  0
SECTION
  2
BLOCKS
  0
ENDSEC
  0
SECTION
  2
ENTITIES
  0
LINE
  8
0
 10
0.148163
 20
92.3065
 11
0.295197
 21
92.3258
  0
LINE
  8
0
 10
0.295197
 20
92.3258
 11
0.439987
 21
92.3579
  0
LINE
  8
0
 10
0.439987
 20
92.3579
 11
0.581421
 21
92.4025
  0
LINE
  8
0
 10
0.581421
 20
92.4025
 11
0.718445
 21
92.4593
  0
LINE
  8
0
 10
0.718445
 20
92.4593
 11
0.849991
 21
92.5278
  0
LINE
  8
0
 10
0.849991
 20
92.5278
 11
0.975067
 21
92.6074
  0
LINE
  8
0
 10
0.975067
 20
92.6074
 11
1.09273
 21
92.6977
  0
LINE
  8
0
 10
1.09273
 20
92.6977
 11
1.20207
 21
92.7979
  0
LINE
  8
0
 10
1.20207
 20
92.7979
 11
1.30226
 21
92.9073
  0
LINE
  8
0
 10
1.30226
 20
92.9073
 11
1.39255
 21
93.0249
  0
LINE
  8
0
 10
1.39255
 20
93.0249
 11
1.47223
 21
93.15
  0
LINE
  8
0
 10
1.47223
 20
93.15
 11
1.54071
 21
93.2815
  0
LINE
  8
0
 10
1.54071
 20
93.2815
 11
1.59747
 21
93.4186
  0
LINE
  8
0
 10
1.59747
 20
93.4186
 11
1.64206
 21
93.56
  0
LINE
  8
0
 10
1.64206
 20
93.56
 11
1.67416
 21
93.7048
  0
LINE
  8
0
 10
1.67416
 20
93.7048
 11
1.69353
 21
93.8518
  0
LINE
  8
0
 10
1.69353
 20
93.8518
 11
1.7
 21
94
  0
LINE
  8
0
 10
1.7
 20
94
 11
1.69353
 21
94.1482
  0
LINE
  8
0
 10
1.69353
 20
94.1482
 11
1.67416
 21
94.2952
  0
LINE
  8
0
 10
1.67416
 20
94.2952
 11
1.64206
 21
94.44
  0
LINE
  8
0
 10
1.64206
 20
94.44
 11
1.59747
 21
94.5814
  0
LINE
  8
0
 10
1.59747
 20
94.5814
 11
1.54071
 21
94.7184
  0
LINE
  8
0
 10
1.54071
 20
94.7184
 11
1.47223
 21
94.85
  0
LINE
  8
0
 10
1.47223
 20
94.85
 11
1.39255
 21
94.9751
  0
LINE
  8
0
 10
1.39255
 20
94.9751
 11
1.30226
 21
95.0927
  0
LINE
  8
0
 10
1.30226
 20
95.0927
 11
1.20207
 21
95.2021
  0
LINE
  8
0
 10
1.20207
 20
95.2021
 11
1.09273
 21
95.3023
  0
LINE
  8
0
 10
1.09273
 20
95.3023
 11
0.975067
 21
95.3925
  0
LINE
  8
0
 10
0.975067
 20
95.3925
 11
0.849991
 21
95.4722
  0
LINE
  8
0
 10
0.849991
 20
95.4722
 11
0.718445
 21
95.5407
  0
LINE
  8
0
 10
0.718445
 20
95.5407
 11
0.581421
 21
95.5975
  0
LINE
  8
0
 10
0.581421
 20
95.5975
 11
0.439987
 21
95.6421
  0
LINE
  8
0
 10
0.439987
 20
95.6421
 11
0.295197
 21
95.6742
  0
LINE
  8
0
 10
0.295197
 20
95.6742
 11
0.148163
 21
95.6935
  0
LINE
  8
0
 10
0.148163
 20
95.6935
 11
0
 21
95.7
  0
LINE
  8
0
 10
0
 20
95.7
 11
-0.148163
 21
95.6935
  0
LINE
  8
0
 10
-0.148163
 20
95.6935
 11
-0.295197
 21
95.6742
  0
LINE
  8
0
 10
-0.295197
 20
95.6742
 11
-0.439987
 21
95.6421
  0
LINE
  8
0
 10
-0.439987
 20
95.6421
 11
-0.581421
 21
95.5975
  0
LINE
  8
0
 10
-0.581421
 20
95.5975
 11
-0.718445
 21
95.5407
  0
LINE
  8
0
 10
-0.718445
 20
95.5407
 11
-0.849991
 21
95.4722
  0
LINE
  8
0
 10
-0.849991
 20
95.4722
 11
-0.975067
 21
95.3925
  0
LINE
  8
0
 10
-0.975067
 20
95.3925
 11
-1.09273
 21
95.3023
  0
LINE
  8
0
 10
-1.09273
 20
95.3023
 11
-1.20207
 21
95.2021
  0
LINE
  8
0
 10
-1.20207
 20
95.2021
 11
-1.30226
 21
95.0927
  0
LINE
  8
0
 10
-1.30226
 20
95.0927
 11
-1.39255
 21
94.9751
  0
LINE
  8
0
 10
-1.39255
 20
94.9751
 11
-1.47223
 21
94.85
  0
LINE
  8
0
 10
-1.47223
 20
94.85
 11
-1.54071
 21
94.7184
  0
LINE
  8
0
 10
-1.54071
 20
94.7184
 11
-1.59747
 21
94.5814
  0
LINE
  8
0
 10
-1.59747
 20
94.5814
 11
-1.64206
 21
94.44
  0
LINE
  8
0
 10
-1.64206
 20
94.44
 11
-1.67416
 21
94.2952
  0
LINE
  8
0
 10
-1.67416
 20
94.2952
 11
-1.69353
 21
94.1482
  0
LINE
  8
0
 10
-1.69353
 20
94.1482
 11
-1.7
 21
94
  0
LINE
  8
0
 10
-1.7
 20
94
 11
-1.69353
 21
93.8518
  0
LINE
  8
0
 10
-1.69353
 20
93.8518
 11
-1.67416
 21
93.7048
  0
LINE
  8
0
 10
-1.67416
 20
93.7048
 11
-1.64206
 21
93.56
  0
LINE
  8
0
 10
-1.64206
 20
93.56
 11
-1.59747
 21
93.4186
  0
LINE
  8
0
 10
-1.59747
 20
93.4186
 11
-1.54071
 21
93.2815
  0
LINE
  8
0
 10
-1.54071
 20
93.2815
 11
-1.47223
 21
93.15
  0
LINE
  8
0
 10
-1.47223
 20
93.15
 11
-1.39255
 21
93.0249
  0
LINE
  8
0
 10
-1.39255
 20
93.0249
 11
-1.30226
 21
92.9073
  0
LINE
  8
0
 10
-1.30226
 20
92.9073
 11
-1.20207
 21
92.7979
  0
LINE
  8
0
 10
-1.20207
 20
92.7979
 11
-1.09273
 21
92.6977
  0
LINE
  8
0
 10
-1.09273
 20
92.6977
 11
-0.975067
 21
92.6074
  0
LINE
  8
0
 10
-0.975067
 20
92.6074
 11
-0.849991
 21
92.5278
  0
LINE
  8
0
 10
-0.849991
 20
92.5278
 11
-0.718445
 21
92.4593
  0
LINE
  8
0
 10
-0.718445
 20
92.4593
 11
-0.581421
 21
92.4025
  0
LINE
  8
0
 10
-0.581421
 20
92.4025
 11
-0.439987
 21
92.3579
  0
LINE
  8
0
 10
-0.439987
 20
92.3579
 11
-0.295197
 21
92.3258
  0
LINE
  8
0
 10
-0.295197
 20
92.3258
 11
-0.148163
 21
92.3065
  0
LINE
  8
0
 10
-0.148163
 20
92.3065
 11
0
 21
92.3
  0
LINE
  8
0
 10
0
 20
92.3
 11
0.148163
 21
92.3065
  0
LINE
  8
0
 10
15
 20
90
 11
-15
 21
90
  0
LINE
  8
0
 10
-15
 20
90
 11
-15
 21
-90
  0
LINE
  8
0
 10
-15
 20
-90
 11
15
 21
-90
  0
LINE
  8
0
 10
15
 20
-90
 11
15
 21
90
  0
LINE
  8
0
 10
0.148163
 20
-95.6935
 11
0.295197
 21
-95.6742
  0
LINE
  8
0
 10
0.295197
 20
-95.6742
 11
0.439987
 21
-95.6421
  0
LINE
  8
0
 10
0.439987
 20
-95.6421
 11
0.581421
 21
-95.5975
  0
LINE
  8
0
 10
0.581421
 20
-95.5975
 11
0.718445
 21
-95.5407
  0
LINE
  8
0
 10
0.718445
 20
-95.5407
 11
0.849991
 21
-95.4722
  0
LINE
  8
0
 10
0.849991
 20
-95.4722
 11
0.975067
 21
-95.3925
  0
LINE
  8
0
 10
0.975067
 20
-95.3925
 11
1.09273
 21
-95.3023
  0
LINE
  8
0
 10
1.09273
 20
-95.3023
 11
1.20207
 21
-95.2021
  0
LINE
  8
0
 10
1.20207
 20
-95.2021
 11
1.30226
 21
-95.0927
  0
LINE
  8
0
 10
1.30226
 20
-95.0927
 11
1.39255
 21
-94.9751
  0
LINE
  8
0
 10
1.39255
 20
-94.9751
 11
1.47223
 21
-94.85
  0
LINE
  8
0
 10
1.47223
 20
-94.85
 11
1.54071
 21
-94.7184
  0
LINE
  8
0
 10
1.54071
 20
-94.7184
 11
1.59747
 21
-94.5814
  0
LINE
  8
0
 10
1.59747
 20
-94.5814
 11
1.64206
 21
-94.44
  0
LINE
  8
0
 10
1.64206
 20
-94.44
 11
1.67416
 21
-94.2952
  0
LINE
  8
0
 10
1.67416
 20
-94.2952
 11
1.69353
 21
-94.1482
  0
LINE
  8
0
 10
1.69353
 20
-94.1482
 11
1.7
 21
-94
  0
LINE
  8
0
 10
1.7
 20
-94
 11
1.69353
 21
-93.8518
  0
LINE
  8
0
 10
1.69353
 20
-93.8518
 11
1.67416
 21
-93.7048
  0
LINE
  8
0
 10
1.67416
 20
-93.7048
 11
1.64206
 21
-93.56
  0
LINE
  8
0
 10
1.64206
 20
-93.56
 11
1.59747
 21
-93.4186
  0
LINE
  8
0
 10
1.59747
 20
-93.4186
 11
1.54071
 21
-93.2815
  0
LINE
  8
0
 10
1.54071
 20
-93.2815
 11
1.47223
 21
-93.15
  0
LINE
  8
0
 10
1.47223
 20
-93.15
 11
1.39255
 21
-93.0249
  0
LINE
  8
0
 10
1.39255
 20
-93.0249
 11
1.30226
 21
-92.9073
  0
LINE
  8
0
 10
1.30226
 20
-92.9073
 11
1.20207
 21
-92.7979
  0
LINE
  8
0
 10
1.20207
 20
-92.7979
 11
1.09273
 21
-92.6977
  0
LINE
  8
0
 10
1.09273
 20
-92.6977
 11
0.975067
 21
-92.6074
  0
LINE
  8
0
 10
0.975067
 20
-92.6074
 11
0.849991
 21
-92.5278
  0
LINE
  8
0
 10
0.849991
 20
-92.5278
 11
0.718445
 21
-92.4593
  0
LINE
  8
0
 10
0.718445
 20
-92.4593
 11
0.581421
 21
-92.4025
  0
LINE
  8
0
 10
0.581421
 20
-92.4025
 11
0.439987
 21
-92.3579
  0
LINE
  8
0
 10
0.439987
 20
-92.3579
 11
0.295197
 21
-92.3258
  0
LINE
  8
0
 10
0.295197
 20
-92.3258
 11
0.148163
 21
-92.3065
  0
LINE
  8
0
 10
0.148163
 20
-92.3065
 11
0
 21
-92.3
  0
LINE
  8
0
 10
0
 20
-92.3
 11
-0.148163
 21
-92.3065
  0
LINE
  8
0
 10
-0.148163
 20
-92.3065
 11
-0.295197
 21
-92.3258
  0
LINE
  8
0
 10
-0.295197
 20
-92.3258
 11
-0.439987
 21
-92.3579
  0
LINE
  8
0
 10
-0.439987
 20
-92.3579
 11
-0.581421
 21
-92.4025
  0
LINE
  8
0
 10
-0.581421
 20
-92.4025
 11
-0.718445
 21
-92.4593
  0
LINE
  8
0
 10
-0.718445
 20
-92.4593
 11
-0.849991
 21
-92.5278
  0
LINE
  8
0
 10
-0.849991
 20
-92.5278
 11
-0.975067
 21
-92.6074
  0
LINE
  8
0
 10
-0.975067
 20
-92.6074
 11
-1.09273
 21
-92.6977
  0
LINE
  8
0
 10
-1.09273
 20
-92.6977
 11
-1.20207
 21
-92.7979
  0
LINE
  8
0
 10
-1.20207
 20
-92.7979
 11
-1.30226
 21
-92.9073
  0
LINE
  8
0
 10
-1.30226
 20
-92.9073
 11
-1.39255
 21
-93.0249
  0
LINE
  8
0
 10
-1.39255
 20
-93.0249
 11
-1.47223
 21
-93.15
  0
LINE
  8
0
 10
-1.47223
 20
-93.15
 11
-1.54071
 21
-93.2815
  0
LINE
  8
0
 10
-1.54071
 20
-93.2815
 11
-1.59747
 21
-93.4186
  0
LINE
  8
0
 10
-1.59747
 20
-93.4186
 11
-1.64206
 21
-93.56
  0
LINE
  8
0
 10
-1.64206
 20
-93.56
 11
-1.67416
 21
-93.7048
  0
LINE
  8
0
 10
-1.67416
 20
-93.7048
 11
-1.69353
 21
-93.8518
  0
LINE
  8
0
 10
-1.69353
 20
-93.8518
 11
-1.7
 21
-94
  0
LINE
  8
0
 10
-1.7
 20
-94
 11
-1.69353
 21
-94.1482
  0
LINE
  8
0
 10
-1.69353
 20
-94.1482
 11
-1.67416
 21
-94.2952
  0
LINE
  8
0
 10
-1.67416
 20
-94.2952
 11
-1.64206
 21
-94.44
  0
LINE
  8
0
 10
-1.64206
 20
-94.44
 11
-1.59747
 21
-94.5814
  0
LINE
  8
0
 10
-1.59747
 20
-94.5814
 11
-1.54071
 21
-94.7184
  0
LINE
  8
0
 10
-1.54071
 20
-94.7184
 11
-1.47223
 21
-94.85
  0
LINE
  8
0
 10
-1.47223
 20
-94.85
 11
-1.39255
 21
-94.9751
  0
LINE
  8
0
 10
-1.39255
 20
-94.9751
 11
-1.30226
 21
-95.0927
  0
LINE
  8
0
 10
-1.30226
 20
-95.0927
 11
-1.20207
 21
-95.2021
  0
LINE
  8
0
 10
-1.20207
 20
-95.2021
 11
-1.09273
 21
-95.3023
  0
LINE
  8
0
 10
-1.09273
 20
-95.3023
 11
-0.975067
 21
-95.3925
  0
LINE
  8
0
 10
-0.975067
 20
-95.3925
 11
-0.849991
 21
-95.4722
  0
LINE
  8
0
 10
-0.849991
 20
-95.4722
 11
-0.718445
 21
-95.5407
  0
LINE
  8
0
 10
-0.718445
 20
-95.5407
 11
-0.581421
 21
-95.5975
  0
LINE
  8
0
 10
-0.581421
 20
-95.5975
 11
-0.439987
 21
-95.6421
  0
LINE
  8
0
 10
-0.439987
 20
-95.6421
 11
-0.295197
 21
-95.6742
  0
LINE
  8
0
 10
-0.295197
 20
-95.6742
 11
-0.148163
 21
-95.6935
  0
LINE
  8
0
 10
-0.148163
 20
-95.6935
 11
0
 21
-95.7
  0
LINE
  8
0
 10
0
 20
-95.7
 11
0.148163
 21
-95.6935
  0
ENDSEC
  0
SECTION
  2
OBJECTS
  0
DICTIONARY
  0
ENDSEC
  0
EOF
