  0
SECTION
  2
BLOCKS
  0
ENDSEC
  0
SECTION
  2
ENTITIES
  0
LINE
  8
0
 10
-79.8867
 20
38.7049
 11
-79.7742
 21
38.7197
  0
LINE
  8
0
 10
-79.7742
 20
38.7197
 11
-79.6635
 21
38.7443
  0
LINE
  8
0
 10
-79.6635
 20
38.7443
 11
-79.5554
 21
38.7784
  0
LINE
  8
0
 10
-79.5554
 20
38.7784
 11
-79.4506
 21
38.8218
  0
LINE
  8
0
 10
-79.4506
 20
38.8218
 11
-79.35
 21
38.8742
  0
LINE
  8
0
 10
-79.35
 20
38.8742
 11
-79.2543
 21
38.9351
  0
LINE
  8
0
 10
-79.2543
 20
38.9351
 11
-79.1644
 21
39.0041
  0
LINE
  8
0
 10
-79.1644
 20
39.0041
 11
-79.0807
 21
39.0807
  0
LINE
  8
0
 10
-79.0807
 20
39.0807
 11
-79.0041
 21
39.1644
  0
LINE
  8
0
 10
-79.0041
 20
39.1644
 11
-78.9351
 21
39.2543
  0
LINE
  8
0
 10
-78.9351
 20
39.2543
 11
-78.8742
 21
39.35
  0
LINE
  8
0
 10
-78.8742
 20
39.35
 11
-78.8218
 21
39.4506
  0
LINE
  8
0
 10
-78.8218
 20
39.4506
 11
-78.7784
 21
39.5554
  0
LINE
  8
0
 10
-78.7784
 20
39.5554
 11
-78.7443
 21
39.6635
  0
LINE
  8
0
 10
-78.7443
 20
39.6635
 11
-78.7197
 21
39.7742
  0
LINE
  8
0
 10
-78.7197
 20
39.7742
 11
-78.7049
 21
39.8867
  0
LINE
  8
0
 10
-78.7049
 20
39.8867
 11
-78.7
 21
40
  0
LINE
  8
0
 10
-78.7
 20
40
 11
-78.7049
 21
40.1133
  0
LINE
  8
0
 10
-78.7049
 20
40.1133
 11
-78.7197
 21
40.2257
  0
LINE
  8
0
 10
-78.7197
 20
40.2257
 11
-78.7443
 21
40.3365
  0
LINE
  8
0
 10
-78.7443
 20
40.3365
 11
-78.7784
 21
40.4446
  0
LINE
  8
0
 10
-78.7784
 20
40.4446
 11
-78.8218
 21
40.5494
  0
LINE
  8
0
 10
-78.8218
 20
40.5494
 11
-78.8742
 21
40.65
  0
LINE
  8
0
 10
-78.8742
 20
40.65
 11
-78.9351
 21
40.7456
  0
LINE
  8
0
 10
-78.9351
 20
40.7456
 11
-79.0041
 21
40.8356
  0
LINE
  8
0
 10
-79.0041
 20
40.8356
 11
-79.0807
 21
40.9192
  0
LINE
  8
0
 10
-79.0807
 20
40.9192
 11
-79.1644
 21
40.9958
  0
LINE
  8
0
 10
-79.1644
 20
40.9958
 11
-79.2543
 21
41.0649
  0
LINE
  8
0
 10
-79.2543
 20
41.0649
 11
-79.35
 21
41.1258
  0
LINE
  8
0
 10
-79.35
 20
41.1258
 11
-79.4506
 21
41.1782
  0
LINE
  8
0
 10
-79.4506
 20
41.1782
 11
-79.5554
 21
41.2216
  0
LINE
  8
0
 10
-79.5554
 20
41.2216
 11
-79.6635
 21
41.2557
  0
LINE
  8
0
 10
-79.6635
 20
41.2557
 11
-79.7742
 21
41.2802
  0
LINE
  8
0
 10
-79.7742
 20
41.2802
 11
-79.8867
 21
41.295
  0
LINE
  8
0
 10
-79.8867
 20
41.295
 11
-80
 21
41.3
  0
LINE
  8
0
 10
-80
 20
41.3
 11
-80.1133
 21
41.295
  0
LINE
  8
0
 10
-80.1133
 20
41.295
 11
-80.2257
 21
41.2802
  0
LINE
  8
0
 10
-80.2257
 20
41.2802
 11
-80.3365
 21
41.2557
  0
LINE
  8
0
 10
-80.3365
 20
41.2557
 11
-80.4446
 21
41.2216
  0
LINE
  8
0
 10
-80.4446
 20
41.2216
 11
-80.5494
 21
41.1782
  0
LINE
  8
0
 10
-80.5494
 20
41.1782
 11
-80.65
 21
41.1258
  0
LINE
  8
0
 10
-80.65
 20
41.1258
 11
-80.7456
 21
41.0649
  0
LINE
  8
0
 10
-80.7456
 20
41.0649
 11
-80.8356
 21
40.9958
  0
LINE
  8
0
 10
-80.8356
 20
40.9958
 11
-80.9192
 21
40.9192
  0
LINE
  8
0
 10
-80.9192
 20
40.9192
 11
-80.9958
 21
40.8356
  0
LINE
  8
0
 10
-80.9958
 20
40.8356
 11
-81.0649
 21
40.7456
  0
LINE
  8
0
 10
-81.0649
 20
40.7456
 11
-81.1258
 21
40.65
  0
LINE
  8
0
 10
-81.1258
 20
40.65
 11
-81.1782
 21
40.5494
  0
LINE
  8
0
 10
-81.1782
 20
40.5494
 11
-81.2216
 21
40.4446
  0
LINE
  8
0
 10
-81.2216
 20
40.4446
 11
-81.2557
 21
40.3365
  0
LINE
  8
0
 10
-81.2557
 20
40.3365
 11
-81.2802
 21
40.2257
  0
LINE
  8
0
 10
-81.2802
 20
40.2257
 11
-81.295
 21
40.1133
  0
LINE
  8
0
 10
-81.295
 20
40.1133
 11
-81.3
 21
40
  0
LINE
  8
0
 10
-81.3
 20
40
 11
-81.295
 21
39.8867
  0
LINE
  8
0
 10
-81.295
 20
39.8867
 11
-81.2802
 21
39.7742
  0
LINE
  8
0
 10
-81.2802
 20
39.7742
 11
-81.2557
 21
39.6635
  0
LINE
  8
0
 10
-81.2557
 20
39.6635
 11
-81.2216
 21
39.5554
  0
LINE
  8
0
 10
-81.2216
 20
39.5554
 11
-81.1782
 21
39.4506
  0
LINE
  8
0
 10
-81.1782
 20
39.4506
 11
-81.1258
 21
39.35
  0
LINE
  8
0
 10
-81.1258
 20
39.35
 11
-81.0649
 21
39.2543
  0
LINE
  8
0
 10
-81.0649
 20
39.2543
 11
-80.9958
 21
39.1644
  0
LINE
  8
0
 10
-80.9958
 20
39.1644
 11
-80.9192
 21
39.0807
  0
LINE
  8
0
 10
-80.9192
 20
39.0807
 11
-80.8356
 21
39.0041
  0
LINE
  8
0
 10
-80.8356
 20
39.0041
 11
-80.7456
 21
38.9351
  0
LINE
  8
0
 10
-80.7456
 20
38.9351
 11
-80.65
 21
38.8742
  0
LINE
  8
0
 10
-80.65
 20
38.8742
 11
-80.5494
 21
38.8218
  0
LINE
  8
0
 10
-80.5494
 20
38.8218
 11
-80.4446
 21
38.7784
  0
LINE
  8
0
 10
-80.4446
 20
38.7784
 11
-80.3365
 21
38.7443
  0
LINE
  8
0
 10
-80.3365
 20
38.7443
 11
-80.2257
 21
38.7197
  0
LINE
  8
0
 10
-80.2257
 20
38.7197
 11
-80.1133
 21
38.7049
  0
LINE
  8
0
 10
-80.1133
 20
38.7049
 11
-80
 21
38.7
  0
LINE
  8
0
 10
-80
 20
38.7
 11
-79.8867
 21
38.7049
  0
LINE
  8
0
 10
80.1133
 20
38.7049
 11
80.2257
 21
38.7197
  0
LINE
  8
0
 10
80.2257
 20
38.7197
 11
80.3365
 21
38.7443
  0
LINE
  8
0
 10
80.3365
 20
38.7443
 11
80.4446
 21
38.7784
  0
LINE
  8
0
 10
80.4446
 20
38.7784
 11
80.5494
 21
38.8218
  0
LINE
  8
0
 10
80.5494
 20
38.8218
 11
80.65
 21
38.8742
  0
LINE
  8
0
 10
80.65
 20
38.8742
 11
80.7456
 21
38.9351
  0
LINE
  8
0
 10
80.7456
 20
38.9351
 11
80.8356
 21
39.0041
  0
LINE
  8
0
 10
80.8356
 20
39.0041
 11
80.9192
 21
39.0807
  0
LINE
  8
0
 10
80.9192
 20
39.0807
 11
80.9958
 21
39.1644
  0
LINE
  8
0
 10
80.9958
 20
39.1644
 11
81.0649
 21
39.2543
  0
LINE
  8
0
 10
81.0649
 20
39.2543
 11
81.1258
 21
39.35
  0
LINE
  8
0
 10
81.1258
 20
39.35
 11
81.1782
 21
39.4506
  0
LINE
  8
0
 10
81.1782
 20
39.4506
 11
81.2216
 21
39.5554
  0
LINE
  8
0
 10
81.2216
 20
39.5554
 11
81.2557
 21
39.6635
  0
LINE
  8
0
 10
81.2557
 20
39.6635
 11
81.2802
 21
39.7742
  0
LINE
  8
0
 10
81.2802
 20
39.7742
 11
81.295
 21
39.8867
  0
LINE
  8
0
 10
81.295
 20
39.8867
 11
81.3
 21
40
  0
LINE
  8
0
 10
81.3
 20
40
 11
81.295
 21
40.1133
  0
LINE
  8
0
 10
81.295
 20
40.1133
 11
81.2802
 21
40.2257
  0
LINE
  8
0
 10
81.2802
 20
40.2257
 11
81.2557
 21
40.3365
  0
LINE
  8
0
 10
81.2557
 20
40.3365
 11
81.2216
 21
40.4446
  0
LINE
  8
0
 10
81.2216
 20
40.4446
 11
81.1782
 21
40.5494
  0
LINE
  8
0
 10
81.1782
 20
40.5494
 11
81.1258
 21
40.65
  0
LINE
  8
0
 10
81.1258
 20
40.65
 11
81.0649
 21
40.7456
  0
LINE
  8
0
 10
81.0649
 20
40.7456
 11
80.9958
 21
40.8356
  0
LINE
  8
0
 10
80.9958
 20
40.8356
 11
80.9192
 21
40.9192
  0
LINE
  8
0
 10
80.9192
 20
40.9192
 11
80.8356
 21
40.9958
  0
LINE
  8
0
 10
80.8356
 20
40.9958
 11
80.7456
 21
41.0649
  0
LINE
  8
0
 10
80.7456
 20
41.0649
 11
80.65
 21
41.1258
  0
LINE
  8
0
 10
80.65
 20
41.1258
 11
80.5494
 21
41.1782
  0
LINE
  8
0
 10
80.5494
 20
41.1782
 11
80.4446
 21
41.2216
  0
LINE
  8
0
 10
80.4446
 20
41.2216
 11
80.3365
 21
41.2557
  0
LINE
  8
0
 10
80.3365
 20
41.2557
 11
80.2257
 21
41.2802
  0
LINE
  8
0
 10
80.2257
 20
41.2802
 11
80.1133
 21
41.295
  0
LINE
  8
0
 10
80.1133
 20
41.295
 11
80
 21
41.3
  0
LINE
  8
0
 10
80
 20
41.3
 11
79.8867
 21
41.295
  0
LINE
  8
0
 10
79.8867
 20
41.295
 11
79.7742
 21
41.2802
  0
LINE
  8
0
 10
79.7742
 20
41.2802
 11
79.6635
 21
41.2557
  0
LINE
  8
0
 10
79.6635
 20
41.2557
 11
79.5554
 21
41.2216
  0
LINE
  8
0
 10
79.5554
 20
41.2216
 11
79.4506
 21
41.1782
  0
LINE
  8
0
 10
79.4506
 20
41.1782
 11
79.35
 21
41.1258
  0
LINE
  8
0
 10
79.35
 20
41.1258
 11
79.2543
 21
41.0649
  0
LINE
  8
0
 10
79.2543
 20
41.0649
 11
79.1644
 21
40.9958
  0
LINE
  8
0
 10
79.1644
 20
40.9958
 11
79.0807
 21
40.9192
  0
LINE
  8
0
 10
79.0807
 20
40.9192
 11
79.0041
 21
40.8356
  0
LINE
  8
0
 10
79.0041
 20
40.8356
 11
78.9351
 21
40.7456
  0
LINE
  8
0
 10
78.9351
 20
40.7456
 11
78.8742
 21
40.65
  0
LINE
  8
0
 10
78.8742
 20
40.65
 11
78.8218
 21
40.5494
  0
LINE
  8
0
 10
78.8218
 20
40.5494
 11
78.7784
 21
40.4446
  0
LINE
  8
0
 10
78.7784
 20
40.4446
 11
78.7443
 21
40.3365
  0
LINE
  8
0
 10
78.7443
 20
40.3365
 11
78.7197
 21
40.2257
  0
LINE
  8
0
 10
78.7197
 20
40.2257
 11
78.7049
 21
40.1133
  0
LINE
  8
0
 10
78.7049
 20
40.1133
 11
78.7
 21
40
  0
LINE
  8
0
 10
78.7
 20
40
 11
78.7049
 21
39.8867
  0
LINE
  8
0
 10
78.7049
 20
39.8867
 11
78.7197
 21
39.7742
  0
LINE
  8
0
 10
78.7197
 20
39.7742
 11
78.7443
 21
39.6635
  0
LINE
  8
0
 10
78.7443
 20
39.6635
 11
78.7784
 21
39.5554
  0
LINE
  8
0
 10
78.7784
 20
39.5554
 11
78.8218
 21
39.4506
  0
LINE
  8
0
 10
78.8218
 20
39.4506
 11
78.8742
 21
39.35
  0
LINE
  8
0
 10
78.8742
 20
39.35
 11
78.9351
 21
39.2543
  0
LINE
  8
0
 10
78.9351
 20
39.2543
 11
79.0041
 21
39.1644
  0
LINE
  8
0
 10
79.0041
 20
39.1644
 11
79.0807
 21
39.0807
  0
LINE
  8
0
 10
79.0807
 20
39.0807
 11
79.1644
 21
39.0041
  0
LINE
  8
0
 10
79.1644
 20
39.0041
 11
79.2543
 21
38.9351
  0
LINE
  8
0
 10
79.2543
 20
38.9351
 11
79.35
 21
38.8742
  0
LINE
  8
0
 10
79.35
 20
38.8742
 11
79.4506
 21
38.8218
  0
LINE
  8
0
 10
79.4506
 20
38.8218
 11
79.5554
 21
38.7784
  0
LINE
  8
0
 10
79.5554
 20
38.7784
 11
79.6635
 21
38.7443
  0
LINE
  8
0
 10
79.6635
 20
38.7443
 11
79.7742
 21
38.7197
  0
LINE
  8
0
 10
79.7742
 20
38.7197
 11
79.8867
 21
38.7049
  0
LINE
  8
0
 10
79.8867
 20
38.7049
 11
80
 21
38.7
  0
LINE
  8
0
 10
80
 20
38.7
 11
80.1133
 21
38.7049
  0
LINE
  8
0
 10
79
 20
39
 11
-79
 21
39
  0
LINE
  8
0
 10
-79
 20
39
 11
-79
 21
-39
  0
LINE
  8
0
 10
-79
 20
-39
 11
79
 21
-39
  0
LINE
  8
0
 10
79
 20
-39
 11
79
 21
39
  0
LINE
  8
0
 10
-79.8867
 20
-41.295
 11
-79.7742
 21
-41.2802
  0
LINE
  8
0
 10
-79.7742
 20
-41.2802
 11
-79.6635
 21
-41.2557
  0
LINE
  8
0
 10
-79.6635
 20
-41.2557
 11
-79.5554
 21
-41.2216
  0
LINE
  8
0
 10
-79.5554
 20
-41.2216
 11
-79.4506
 21
-41.1782
  0
LINE
  8
0
 10
-79.4506
 20
-41.1782
 11
-79.35
 21
-41.1258
  0
LINE
  8
0
 10
-79.35
 20
-41.1258
 11
-79.2543
 21
-41.0649
  0
LINE
  8
0
 10
-79.2543
 20
-41.0649
 11
-79.1644
 21
-40.9958
  0
LINE
  8
0
 10
-79.1644
 20
-40.9958
 11
-79.0807
 21
-40.9192
  0
LINE
  8
0
 10
-79.0807
 20
-40.9192
 11
-79.0041
 21
-40.8356
  0
LINE
  8
0
 10
-79.0041
 20
-40.8356
 11
-78.9351
 21
-40.7456
  0
LINE
  8
0
 10
-78.9351
 20
-40.7456
 11
-78.8742
 21
-40.65
  0
LINE
  8
0
 10
-78.8742
 20
-40.65
 11
-78.8218
 21
-40.5494
  0
LINE
  8
0
 10
-78.8218
 20
-40.5494
 11
-78.7784
 21
-40.4446
  0
LINE
  8
0
 10
-78.7784
 20
-40.4446
 11
-78.7443
 21
-40.3365
  0
LINE
  8
0
 10
-78.7443
 20
-40.3365
 11
-78.7197
 21
-40.2257
  0
LINE
  8
0
 10
-78.7197
 20
-40.2257
 11
-78.7049
 21
-40.1133
  0
LINE
  8
0
 10
-78.7049
 20
-40.1133
 11
-78.7
 21
-40
  0
LINE
  8
0
 10
-78.7
 20
-40
 11
-78.7049
 21
-39.8867
  0
LINE
  8
0
 10
-78.7049
 20
-39.8867
 11
-78.7197
 21
-39.7742
  0
LINE
  8
0
 10
-78.7197
 20
-39.7742
 11
-78.7443
 21
-39.6635
  0
LINE
  8
0
 10
-78.7443
 20
-39.6635
 11
-78.7784
 21
-39.5554
  0
LINE
  8
0
 10
-78.7784
 20
-39.5554
 11
-78.8218
 21
-39.4506
  0
LINE
  8
0
 10
-78.8218
 20
-39.4506
 11
-78.8742
 21
-39.35
  0
LINE
  8
0
 10
-78.8742
 20
-39.35
 11
-78.9351
 21
-39.2543
  0
LINE
  8
0
 10
-78.9351
 20
-39.2543
 11
-79.0041
 21
-39.1644
  0
LINE
  8
0
 10
-79.0041
 20
-39.1644
 11
-79.0807
 21
-39.0807
  0
LINE
  8
0
 10
-79.0807
 20
-39.0807
 11
-79.1644
 21
-39.0041
  0
LINE
  8
0
 10
-79.1644
 20
-39.0041
 11
-79.2543
 21
-38.9351
  0
LINE
  8
0
 10
-79.2543
 20
-38.9351
 11
-79.35
 21
-38.8742
  0
LINE
  8
0
 10
-79.35
 20
-38.8742
 11
-79.4506
 21
-38.8218
  0
LINE
  8
0
 10
-79.4506
 20
-38.8218
 11
-79.5554
 21
-38.7784
  0
LINE
  8
0
 10
-79.5554
 20
-38.7784
 11
-79.6635
 21
-38.7443
  0
LINE
  8
0
 10
-79.6635
 20
-38.7443
 11
-79.7742
 21
-38.7197
  0
LINE
  8
0
 10
-79.7742
 20
-38.7197
 11
-79.8867
 21
-38.7049
  0
LINE
  8
0
 10
-79.8867
 20
-38.7049
 11
-80
 21
-38.7
  0
LINE
  8
0
 10
-80
 20
-38.7
 11
-80.1133
 21
-38.7049
  0
LINE
  8
0
 10
-80.1133
 20
-38.7049
 11
-80.2257
 21
-38.7197
  0
LINE
  8
0
 10
-80.2257
 20
-38.7197
 11
-80.3365
 21
-38.7443
  0
LINE
  8
0
 10
-80.3365
 20
-38.7443
 11
-80.4446
 21
-38.7784
  0
LINE
  8
0
 10
-80.4446
 20
-38.7784
 11
-80.5494
 21
-38.8218
  0
LINE
  8
0
 10
-80.5494
 20
-38.8218
 11
-80.65
 21
-38.8742
  0
LINE
  8
0
 10
-80.65
 20
-38.8742
 11
-80.7456
 21
-38.9351
  0
LINE
  8
0
 10
-80.7456
 20
-38.9351
 11
-80.8356
 21
-39.0041
  0
LINE
  8
0
 10
-80.8356
 20
-39.0041
 11
-80.9192
 21
-39.0807
  0
LINE
  8
0
 10
-80.9192
 20
-39.0807
 11
-80.9958
 21
-39.1644
  0
LINE
  8
0
 10
-80.9958
 20
-39.1644
 11
-81.0649
 21
-39.2543
  0
LINE
  8
0
 10
-81.0649
 20
-39.2543
 11
-81.1258
 21
-39.35
  0
LINE
  8
0
 10
-81.1258
 20
-39.35
 11
-81.1782
 21
-39.4506
  0
LINE
  8
0
 10
-81.1782
 20
-39.4506
 11
-81.2216
 21
-39.5554
  0
LINE
  8
0
 10
-81.2216
 20
-39.5554
 11
-81.2557
 21
-39.6635
  0
LINE
  8
0
 10
-81.2557
 20
-39.6635
 11
-81.2802
 21
-39.7742
  0
LINE
  8
0
 10
-81.2802
 20
-39.7742
 11
-81.295
 21
-39.8867
  0
LINE
  8
0
 10
-81.295
 20
-39.8867
 11
-81.3
 21
-40
  0
LINE
  8
0
 10
-81.3
 20
-40
 11
-81.295
 21
-40.1133
  0
LINE
  8
0
 10
-81.295
 20
-40.1133
 11
-81.2802
 21
-40.2257
  0
LINE
  8
0
 10
-81.2802
 20
-40.2257
 11
-81.2557
 21
-40.3365
  0
LINE
  8
0
 10
-81.2557
 20
-40.3365
 11
-81.2216
 21
-40.4446
  0
LINE
  8
0
 10
-81.2216
 20
-40.4446
 11
-81.1782
 21
-40.5494
  0
LINE
  8
0
 10
-81.1782
 20
-40.5494
 11
-81.1258
 21
-40.65
  0
LINE
  8
0
 10
-81.1258
 20
-40.65
 11
-81.0649
 21
-40.7456
  0
LINE
  8
0
 10
-81.0649
 20
-40.7456
 11
-80.9958
 21
-40.8356
  0
LINE
  8
0
 10
-80.9958
 20
-40.8356
 11
-80.9192
 21
-40.9192
  0
LINE
  8
0
 10
-80.9192
 20
-40.9192
 11
-80.8356
 21
-40.9958
  0
LINE
  8
0
 10
-80.8356
 20
-40.9958
 11
-80.7456
 21
-41.0649
  0
LINE
  8
0
 10
-80.7456
 20
-41.0649
 11
-80.65
 21
-41.1258
  0
LINE
  8
0
 10
-80.65
 20
-41.1258
 11
-80.5494
 21
-41.1782
  0
LINE
  8
0
 10
-80.5494
 20
-41.1782
 11
-80.4446
 21
-41.2216
  0
LINE
  8
0
 10
-80.4446
 20
-41.2216
 11
-80.3365
 21
-41.2557
  0
LINE
  8
0
 10
-80.3365
 20
-41.2557
 11
-80.2257
 21
-41.2802
  0
LINE
  8
0
 10
-80.2257
 20
-41.2802
 11
-80.1133
 21
-41.295
  0
LINE
  8
0
 10
-80.1133
 20
-41.295
 11
-80
 21
-41.3
  0
LINE
  8
0
 10
-80
 20
-41.3
 11
-79.8867
 21
-41.295
  0
LINE
  8
0
 10
80.1133
 20
-41.295
 11
80.2257
 21
-41.2802
  0
LINE
  8
0
 10
80.2257
 20
-41.2802
 11
80.3365
 21
-41.2557
  0
LINE
  8
0
 10
80.3365
 20
-41.2557
 11
80.4446
 21
-41.2216
  0
LINE
  8
0
 10
80.4446
 20
-41.2216
 11
80.5494
 21
-41.1782
  0
LINE
  8
0
 10
80.5494
 20
-41.1782
 11
80.65
 21
-41.1258
  0
LINE
  8
0
 10
80.65
 20
-41.1258
 11
80.7456
 21
-41.0649
  0
LINE
  8
0
 10
80.7456
 20
-41.0649
 11
80.8356
 21
-40.9958
  0
LINE
  8
0
 10
80.8356
 20
-40.9958
 11
80.9192
 21
-40.9192
  0
LINE
  8
0
 10
80.9192
 20
-40.9192
 11
80.9958
 21
-40.8356
  0
LINE
  8
0
 10
80.9958
 20
-40.8356
 11
81.0649
 21
-40.7456
  0
LINE
  8
0
 10
81.0649
 20
-40.7456
 11
81.1258
 21
-40.65
  0
LINE
  8
0
 10
81.1258
 20
-40.65
 11
81.1782
 21
-40.5494
  0
LINE
  8
0
 10
81.1782
 20
-40.5494
 11
81.2216
 21
-40.4446
  0
LINE
  8
0
 10
81.2216
 20
-40.4446
 11
81.2557
 21
-40.3365
  0
LINE
  8
0
 10
81.2557
 20
-40.3365
 11
81.2802
 21
-40.2257
  0
LINE
  8
0
 10
81.2802
 20
-40.2257
 11
81.295
 21
-40.1133
  0
LINE
  8
0
 10
81.295
 20
-40.1133
 11
81.3
 21
-40
  0
LINE
  8
0
 10
81.3
 20
-40
 11
81.295
 21
-39.8867
  0
LINE
  8
0
 10
81.295
 20
-39.8867
 11
81.2802
 21
-39.7742
  0
LINE
  8
0
 10
81.2802
 20
-39.7742
 11
81.2557
 21
-39.6635
  0
LINE
  8
0
 10
81.2557
 20
-39.6635
 11
81.2216
 21
-39.5554
  0
LINE
  8
0
 10
81.2216
 20
-39.5554
 11
81.1782
 21
-39.4506
  0
LINE
  8
0
 10
81.1782
 20
-39.4506
 11
81.1258
 21
-39.35
  0
LINE
  8
0
 10
81.1258
 20
-39.35
 11
81.0649
 21
-39.2543
  0
LINE
  8
0
 10
81.0649
 20
-39.2543
 11
80.9958
 21
-39.1644
  0
LINE
  8
0
 10
80.9958
 20
-39.1644
 11
80.9192
 21
-39.0807
  0
LINE
  8
0
 10
80.9192
 20
-39.0807
 11
80.8356
 21
-39.0041
  0
LINE
  8
0
 10
80.8356
 20
-39.0041
 11
80.7456
 21
-38.9351
  0
LINE
  8
0
 10
80.7456
 20
-38.9351
 11
80.65
 21
-38.8742
  0
LINE
  8
0
 10
80.65
 20
-38.8742
 11
80.5494
 21
-38.8218
  0
LINE
  8
0
 10
80.5494
 20
-38.8218
 11
80.4446
 21
-38.7784
  0
LINE
  8
0
 10
80.4446
 20
-38.7784
 11
80.3365
 21
-38.7443
  0
LINE
  8
0
 10
80.3365
 20
-38.7443
 11
80.2257
 21
-38.7197
  0
LINE
  8
0
 10
80.2257
 20
-38.7197
 11
80.1133
 21
-38.7049
  0
LINE
  8
0
 10
80.1133
 20
-38.7049
 11
80
 21
-38.7
  0
LINE
  8
0
 10
80
 20
-38.7
 11
79.8867
 21
-38.7049
  0
LINE
  8
0
 10
79.8867
 20
-38.7049
 11
79.7742
 21
-38.7197
  0
LINE
  8
0
 10
79.7742
 20
-38.7197
 11
79.6635
 21
-38.7443
  0
LINE
  8
0
 10
79.6635
 20
-38.7443
 11
79.5554
 21
-38.7784
  0
LINE
  8
0
 10
79.5554
 20
-38.7784
 11
79.4506
 21
-38.8218
  0
LINE
  8
0
 10
79.4506
 20
-38.8218
 11
79.35
 21
-38.8742
  0
LINE
  8
0
 10
79.35
 20
-38.8742
 11
79.2543
 21
-38.9351
  0
LINE
  8
0
 10
79.2543
 20
-38.9351
 11
79.1644
 21
-39.0041
  0
LINE
  8
0
 10
79.1644
 20
-39.0041
 11
79.0807
 21
-39.0807
  0
LINE
  8
0
 10
79.0807
 20
-39.0807
 11
79.0041
 21
-39.1644
  0
LINE
  8
0
 10
79.0041
 20
-39.1644
 11
78.9351
 21
-39.2543
  0
LINE
  8
0
 10
78.9351
 20
-39.2543
 11
78.8742
 21
-39.35
  0
LINE
  8
0
 10
78.8742
 20
-39.35
 11
78.8218
 21
-39.4506
  0
LINE
  8
0
 10
78.8218
 20
-39.4506
 11
78.7784
 21
-39.5554
  0
LINE
  8
0
 10
78.7784
 20
-39.5554
 11
78.7443
 21
-39.6635
  0
LINE
  8
0
 10
78.7443
 20
-39.6635
 11
78.7197
 21
-39.7742
  0
LINE
  8
0
 10
78.7197
 20
-39.7742
 11
78.7049
 21
-39.8867
  0
LINE
  8
0
 10
78.7049
 20
-39.8867
 11
78.7
 21
-40
  0
LINE
  8
0
 10
78.7
 20
-40
 11
78.7049
 21
-40.1133
  0
LINE
  8
0
 10
78.7049
 20
-40.1133
 11
78.7197
 21
-40.2257
  0
LINE
  8
0
 10
78.7197
 20
-40.2257
 11
78.7443
 21
-40.3365
  0
LINE
  8
0
 10
78.7443
 20
-40.3365
 11
78.7784
 21
-40.4446
  0
LINE
  8
0
 10
78.7784
 20
-40.4446
 11
78.8218
 21
-40.5494
  0
LINE
  8
0
 10
78.8218
 20
-40.5494
 11
78.8742
 21
-40.65
  0
LINE
  8
0
 10
78.8742
 20
-40.65
 11
78.9351
 21
-40.7456
  0
LINE
  8
0
 10
78.9351
 20
-40.7456
 11
79.0041
 21
-40.8356
  0
LINE
  8
0
 10
79.0041
 20
-40.8356
 11
79.0807
 21
-40.9192
  0
LINE
  8
0
 10
79.0807
 20
-40.9192
 11
79.1644
 21
-40.9958
  0
LINE
  8
0
 10
79.1644
 20
-40.9958
 11
79.2543
 21
-41.0649
  0
LINE
  8
0
 10
79.2543
 20
-41.0649
 11
79.35
 21
-41.1258
  0
LINE
  8
0
 10
79.35
 20
-41.1258
 11
79.4506
 21
-41.1782
  0
LINE
  8
0
 10
79.4506
 20
-41.1782
 11
79.5554
 21
-41.2216
  0
LINE
  8
0
 10
79.5554
 20
-41.2216
 11
79.6635
 21
-41.2557
  0
LINE
  8
0
 10
79.6635
 20
-41.2557
 11
79.7742
 21
-41.2802
  0
LINE
  8
0
 10
79.7742
 20
-41.2802
 11
79.8867
 21
-41.295
  0
LINE
  8
0
 10
79.8867
 20
-41.295
 11
80
 21
-41.3
  0
LINE
  8
0
 10
80
 20
-41.3
 11
80.1133
 21
-41.295
  0
ENDSEC
  0
SECTION
  2
OBJECTS
  0
DICTIONARY
  0
ENDSEC
  0
EOF
