  0
SECTION
  2
BLOCKS
  0
ENDSEC
  0
SECTION
  2
ENTITIES
  0
LINE
  8
0
 10
-53.3867
 20
56.2049
 11
-53.2742
 21
56.2197
  0
LINE
  8
0
 10
-53.2742
 20
56.2197
 11
-53.1635
 21
56.2443
  0
LINE
  8
0
 10
-53.1635
 20
56.2443
 11
-53.0554
 21
56.2784
  0
LINE
  8
0
 10
-53.0554
 20
56.2784
 11
-52.9506
 21
56.3218
  0
LINE
  8
0
 10
-52.9506
 20
56.3218
 11
-52.85
 21
56.3742
  0
LINE
  8
0
 10
-52.85
 20
56.3742
 11
-52.7543
 21
56.4351
  0
LINE
  8
0
 10
-52.7543
 20
56.4351
 11
-52.6644
 21
56.5041
  0
LINE
  8
0
 10
-52.6644
 20
56.5041
 11
-52.5807
 21
56.5807
  0
LINE
  8
0
 10
-52.5807
 20
56.5807
 11
-52.5041
 21
56.6644
  0
LINE
  8
0
 10
-52.5041
 20
56.6644
 11
-52.4351
 21
56.7543
  0
LINE
  8
0
 10
-52.4351
 20
56.7543
 11
-52.3742
 21
56.85
  0
LINE
  8
0
 10
-52.3742
 20
56.85
 11
-52.3218
 21
56.9506
  0
LINE
  8
0
 10
-52.3218
 20
56.9506
 11
-52.2784
 21
57.0554
  0
LINE
  8
0
 10
-52.2784
 20
57.0554
 11
-52.2443
 21
57.1635
  0
LINE
  8
0
 10
-52.2443
 20
57.1635
 11
-52.2197
 21
57.2742
  0
LINE
  8
0
 10
-52.2197
 20
57.2742
 11
-52.2049
 21
57.3867
  0
LINE
  8
0
 10
-52.2049
 20
57.3867
 11
-52.2
 21
57.5
  0
LINE
  8
0
 10
-52.2
 20
57.5
 11
-52.2049
 21
57.6133
  0
LINE
  8
0
 10
-52.2049
 20
57.6133
 11
-52.2197
 21
57.7257
  0
LINE
  8
0
 10
-52.2197
 20
57.7257
 11
-52.2443
 21
57.8365
  0
LINE
  8
0
 10
-52.2443
 20
57.8365
 11
-52.2784
 21
57.9446
  0
LINE
  8
0
 10
-52.2784
 20
57.9446
 11
-52.3218
 21
58.0494
  0
LINE
  8
0
 10
-52.3218
 20
58.0494
 11
-52.3742
 21
58.15
  0
LINE
  8
0
 10
-52.3742
 20
58.15
 11
-52.4351
 21
58.2456
  0
LINE
  8
0
 10
-52.4351
 20
58.2456
 11
-52.5041
 21
58.3356
  0
LINE
  8
0
 10
-52.5041
 20
58.3356
 11
-52.5807
 21
58.4192
  0
LINE
  8
0
 10
-52.5807
 20
58.4192
 11
-52.6644
 21
58.4958
  0
LINE
  8
0
 10
-52.6644
 20
58.4958
 11
-52.7543
 21
58.5649
  0
LINE
  8
0
 10
-52.7543
 20
58.5649
 11
-52.85
 21
58.6258
  0
LINE
  8
0
 10
-52.85
 20
58.6258
 11
-52.9506
 21
58.6782
  0
LINE
  8
0
 10
-52.9506
 20
58.6782
 11
-53.0554
 21
58.7216
  0
LINE
  8
0
 10
-53.0554
 20
58.7216
 11
-53.1635
 21
58.7557
  0
LINE
  8
0
 10
-53.1635
 20
58.7557
 11
-53.2742
 21
58.7802
  0
LINE
  8
0
 10
-53.2742
 20
58.7802
 11
-53.3867
 21
58.795
  0
LINE
  8
0
 10
-53.3867
 20
58.795
 11
-53.5
 21
58.8
  0
LINE
  8
0
 10
-53.5
 20
58.8
 11
-53.6133
 21
58.795
  0
LINE
  8
0
 10
-53.6133
 20
58.795
 11
-53.7257
 21
58.7802
  0
LINE
  8
0
 10
-53.7257
 20
58.7802
 11
-53.8365
 21
58.7557
  0
LINE
  8
0
 10
-53.8365
 20
58.7557
 11
-53.9446
 21
58.7216
  0
LINE
  8
0
 10
-53.9446
 20
58.7216
 11
-54.0494
 21
58.6782
  0
LINE
  8
0
 10
-54.0494
 20
58.6782
 11
-54.15
 21
58.6258
  0
LINE
  8
0
 10
-54.15
 20
58.6258
 11
-54.2456
 21
58.5649
  0
LINE
  8
0
 10
-54.2456
 20
58.5649
 11
-54.3356
 21
58.4958
  0
LINE
  8
0
 10
-54.3356
 20
58.4958
 11
-54.4192
 21
58.4192
  0
LINE
  8
0
 10
-54.4192
 20
58.4192
 11
-54.4958
 21
58.3356
  0
LINE
  8
0
 10
-54.4958
 20
58.3356
 11
-54.5649
 21
58.2456
  0
LINE
  8
0
 10
-54.5649
 20
58.2456
 11
-54.6258
 21
58.15
  0
LINE
  8
0
 10
-54.6258
 20
58.15
 11
-54.6782
 21
58.0494
  0
LINE
  8
0
 10
-54.6782
 20
58.0494
 11
-54.7216
 21
57.9446
  0
LINE
  8
0
 10
-54.7216
 20
57.9446
 11
-54.7557
 21
57.8365
  0
LINE
  8
0
 10
-54.7557
 20
57.8365
 11
-54.7802
 21
57.7257
  0
LINE
  8
0
 10
-54.7802
 20
57.7257
 11
-54.795
 21
57.6133
  0
LINE
  8
0
 10
-54.795
 20
57.6133
 11
-54.8
 21
57.5
  0
LINE
  8
0
 10
-54.8
 20
57.5
 11
-54.795
 21
57.3867
  0
LINE
  8
0
 10
-54.795
 20
57.3867
 11
-54.7802
 21
57.2742
  0
LINE
  8
0
 10
-54.7802
 20
57.2742
 11
-54.7557
 21
57.1635
  0
LINE
  8
0
 10
-54.7557
 20
57.1635
 11
-54.7216
 21
57.0554
  0
LINE
  8
0
 10
-54.7216
 20
57.0554
 11
-54.6782
 21
56.9506
  0
LINE
  8
0
 10
-54.6782
 20
56.9506
 11
-54.6258
 21
56.85
  0
LINE
  8
0
 10
-54.6258
 20
56.85
 11
-54.5649
 21
56.7543
  0
LINE
  8
0
 10
-54.5649
 20
56.7543
 11
-54.4958
 21
56.6644
  0
LINE
  8
0
 10
-54.4958
 20
56.6644
 11
-54.4192
 21
56.5807
  0
LINE
  8
0
 10
-54.4192
 20
56.5807
 11
-54.3356
 21
56.5041
  0
LINE
  8
0
 10
-54.3356
 20
56.5041
 11
-54.2456
 21
56.4351
  0
LINE
  8
0
 10
-54.2456
 20
56.4351
 11
-54.15
 21
56.3742
  0
LINE
  8
0
 10
-54.15
 20
56.3742
 11
-54.0494
 21
56.3218
  0
LINE
  8
0
 10
-54.0494
 20
56.3218
 11
-53.9446
 21
56.2784
  0
LINE
  8
0
 10
-53.9446
 20
56.2784
 11
-53.8365
 21
56.2443
  0
LINE
  8
0
 10
-53.8365
 20
56.2443
 11
-53.7257
 21
56.2197
  0
LINE
  8
0
 10
-53.7257
 20
56.2197
 11
-53.6133
 21
56.2049
  0
LINE
  8
0
 10
-53.6133
 20
56.2049
 11
-53.5
 21
56.2
  0
LINE
  8
0
 10
-53.5
 20
56.2
 11
-53.3867
 21
56.2049
  0
LINE
  8
0
 10
53.6133
 20
56.2049
 11
53.7257
 21
56.2197
  0
LINE
  8
0
 10
53.7257
 20
56.2197
 11
53.8365
 21
56.2443
  0
LINE
  8
0
 10
53.8365
 20
56.2443
 11
53.9446
 21
56.2784
  0
LINE
  8
0
 10
53.9446
 20
56.2784
 11
54.0494
 21
56.3218
  0
LINE
  8
0
 10
54.0494
 20
56.3218
 11
54.15
 21
56.3742
  0
LINE
  8
0
 10
54.15
 20
56.3742
 11
54.2456
 21
56.4351
  0
LINE
  8
0
 10
54.2456
 20
56.4351
 11
54.3356
 21
56.5041
  0
LINE
  8
0
 10
54.3356
 20
56.5041
 11
54.4192
 21
56.5807
  0
LINE
  8
0
 10
54.4192
 20
56.5807
 11
54.4958
 21
56.6644
  0
LINE
  8
0
 10
54.4958
 20
56.6644
 11
54.5649
 21
56.7543
  0
LINE
  8
0
 10
54.5649
 20
56.7543
 11
54.6258
 21
56.85
  0
LINE
  8
0
 10
54.6258
 20
56.85
 11
54.6782
 21
56.9506
  0
LINE
  8
0
 10
54.6782
 20
56.9506
 11
54.7216
 21
57.0554
  0
LINE
  8
0
 10
54.7216
 20
57.0554
 11
54.7557
 21
57.1635
  0
LINE
  8
0
 10
54.7557
 20
57.1635
 11
54.7802
 21
57.2742
  0
LINE
  8
0
 10
54.7802
 20
57.2742
 11
54.795
 21
57.3867
  0
LINE
  8
0
 10
54.795
 20
57.3867
 11
54.8
 21
57.5
  0
LINE
  8
0
 10
54.8
 20
57.5
 11
54.795
 21
57.6133
  0
LINE
  8
0
 10
54.795
 20
57.6133
 11
54.7802
 21
57.7257
  0
LINE
  8
0
 10
54.7802
 20
57.7257
 11
54.7557
 21
57.8365
  0
LINE
  8
0
 10
54.7557
 20
57.8365
 11
54.7216
 21
57.9446
  0
LINE
  8
0
 10
54.7216
 20
57.9446
 11
54.6782
 21
58.0494
  0
LINE
  8
0
 10
54.6782
 20
58.0494
 11
54.6258
 21
58.15
  0
LINE
  8
0
 10
54.6258
 20
58.15
 11
54.5649
 21
58.2456
  0
LINE
  8
0
 10
54.5649
 20
58.2456
 11
54.4958
 21
58.3356
  0
LINE
  8
0
 10
54.4958
 20
58.3356
 11
54.4192
 21
58.4192
  0
LINE
  8
0
 10
54.4192
 20
58.4192
 11
54.3356
 21
58.4958
  0
LINE
  8
0
 10
54.3356
 20
58.4958
 11
54.2456
 21
58.5649
  0
LINE
  8
0
 10
54.2456
 20
58.5649
 11
54.15
 21
58.6258
  0
LINE
  8
0
 10
54.15
 20
58.6258
 11
54.0494
 21
58.6782
  0
LINE
  8
0
 10
54.0494
 20
58.6782
 11
53.9446
 21
58.7216
  0
LINE
  8
0
 10
53.9446
 20
58.7216
 11
53.8365
 21
58.7557
  0
LINE
  8
0
 10
53.8365
 20
58.7557
 11
53.7257
 21
58.7802
  0
LINE
  8
0
 10
53.7257
 20
58.7802
 11
53.6133
 21
58.795
  0
LINE
  8
0
 10
53.6133
 20
58.795
 11
53.5
 21
58.8
  0
LINE
  8
0
 10
53.5
 20
58.8
 11
53.3867
 21
58.795
  0
LINE
  8
0
 10
53.3867
 20
58.795
 11
53.2742
 21
58.7802
  0
LINE
  8
0
 10
53.2742
 20
58.7802
 11
53.1635
 21
58.7557
  0
LINE
  8
0
 10
53.1635
 20
58.7557
 11
53.0554
 21
58.7216
  0
LINE
  8
0
 10
53.0554
 20
58.7216
 11
52.9506
 21
58.6782
  0
LINE
  8
0
 10
52.9506
 20
58.6782
 11
52.85
 21
58.6258
  0
LINE
  8
0
 10
52.85
 20
58.6258
 11
52.7543
 21
58.5649
  0
LINE
  8
0
 10
52.7543
 20
58.5649
 11
52.6644
 21
58.4958
  0
LINE
  8
0
 10
52.6644
 20
58.4958
 11
52.5807
 21
58.4192
  0
LINE
  8
0
 10
52.5807
 20
58.4192
 11
52.5041
 21
58.3356
  0
LINE
  8
0
 10
52.5041
 20
58.3356
 11
52.4351
 21
58.2456
  0
LINE
  8
0
 10
52.4351
 20
58.2456
 11
52.3742
 21
58.15
  0
LINE
  8
0
 10
52.3742
 20
58.15
 11
52.3218
 21
58.0494
  0
LINE
  8
0
 10
52.3218
 20
58.0494
 11
52.2784
 21
57.9446
  0
LINE
  8
0
 10
52.2784
 20
57.9446
 11
52.2443
 21
57.8365
  0
LINE
  8
0
 10
52.2443
 20
57.8365
 11
52.2197
 21
57.7257
  0
LINE
  8
0
 10
52.2197
 20
57.7257
 11
52.2049
 21
57.6133
  0
LINE
  8
0
 10
52.2049
 20
57.6133
 11
52.2
 21
57.5
  0
LINE
  8
0
 10
52.2
 20
57.5
 11
52.2049
 21
57.3867
  0
LINE
  8
0
 10
52.2049
 20
57.3867
 11
52.2197
 21
57.2742
  0
LINE
  8
0
 10
52.2197
 20
57.2742
 11
52.2443
 21
57.1635
  0
LINE
  8
0
 10
52.2443
 20
57.1635
 11
52.2784
 21
57.0554
  0
LINE
  8
0
 10
52.2784
 20
57.0554
 11
52.3218
 21
56.9506
  0
LINE
  8
0
 10
52.3218
 20
56.9506
 11
52.3742
 21
56.85
  0
LINE
  8
0
 10
52.3742
 20
56.85
 11
52.4351
 21
56.7543
  0
LINE
  8
0
 10
52.4351
 20
56.7543
 11
52.5041
 21
56.6644
  0
LINE
  8
0
 10
52.5041
 20
56.6644
 11
52.5807
 21
56.5807
  0
LINE
  8
0
 10
52.5807
 20
56.5807
 11
52.6644
 21
56.5041
  0
LINE
  8
0
 10
52.6644
 20
56.5041
 11
52.7543
 21
56.4351
  0
LINE
  8
0
 10
52.7543
 20
56.4351
 11
52.85
 21
56.3742
  0
LINE
  8
0
 10
52.85
 20
56.3742
 11
52.9506
 21
56.3218
  0
LINE
  8
0
 10
52.9506
 20
56.3218
 11
53.0554
 21
56.2784
  0
LINE
  8
0
 10
53.0554
 20
56.2784
 11
53.1635
 21
56.2443
  0
LINE
  8
0
 10
53.1635
 20
56.2443
 11
53.2742
 21
56.2197
  0
LINE
  8
0
 10
53.2742
 20
56.2197
 11
53.3867
 21
56.2049
  0
LINE
  8
0
 10
53.3867
 20
56.2049
 11
53.5
 21
56.2
  0
LINE
  8
0
 10
53.5
 20
56.2
 11
53.6133
 21
56.2049
  0
LINE
  8
0
 10
52.5
 20
56.5
 11
-52.5
 21
56.5
  0
LINE
  8
0
 10
-52.5
 20
56.5
 11
-52.5
 21
-56.5
  0
LINE
  8
0
 10
-52.5
 20
-56.5
 11
52.5
 21
-56.5
  0
LINE
  8
0
 10
52.5
 20
-56.5
 11
52.5
 21
56.5
  0
LINE
  8
0
 10
-53.3867
 20
-58.795
 11
-53.2742
 21
-58.7802
  0
LINE
  8
0
 10
-53.2742
 20
-58.7802
 11
-53.1635
 21
-58.7557
  0
LINE
  8
0
 10
-53.1635
 20
-58.7557
 11
-53.0554
 21
-58.7216
  0
LINE
  8
0
 10
-53.0554
 20
-58.7216
 11
-52.9506
 21
-58.6782
  0
LINE
  8
0
 10
-52.9506
 20
-58.6782
 11
-52.85
 21
-58.6258
  0
LINE
  8
0
 10
-52.85
 20
-58.6258
 11
-52.7543
 21
-58.5649
  0
LINE
  8
0
 10
-52.7543
 20
-58.5649
 11
-52.6644
 21
-58.4958
  0
LINE
  8
0
 10
-52.6644
 20
-58.4958
 11
-52.5807
 21
-58.4192
  0
LINE
  8
0
 10
-52.5807
 20
-58.4192
 11
-52.5041
 21
-58.3356
  0
LINE
  8
0
 10
-52.5041
 20
-58.3356
 11
-52.4351
 21
-58.2456
  0
LINE
  8
0
 10
-52.4351
 20
-58.2456
 11
-52.3742
 21
-58.15
  0
LINE
  8
0
 10
-52.3742
 20
-58.15
 11
-52.3218
 21
-58.0494
  0
LINE
  8
0
 10
-52.3218
 20
-58.0494
 11
-52.2784
 21
-57.9446
  0
LINE
  8
0
 10
-52.2784
 20
-57.9446
 11
-52.2443
 21
-57.8365
  0
LINE
  8
0
 10
-52.2443
 20
-57.8365
 11
-52.2197
 21
-57.7257
  0
LINE
  8
0
 10
-52.2197
 20
-57.7257
 11
-52.2049
 21
-57.6133
  0
LINE
  8
0
 10
-52.2049
 20
-57.6133
 11
-52.2
 21
-57.5
  0
LINE
  8
0
 10
-52.2
 20
-57.5
 11
-52.2049
 21
-57.3867
  0
LINE
  8
0
 10
-52.2049
 20
-57.3867
 11
-52.2197
 21
-57.2742
  0
LINE
  8
0
 10
-52.2197
 20
-57.2742
 11
-52.2443
 21
-57.1635
  0
LINE
  8
0
 10
-52.2443
 20
-57.1635
 11
-52.2784
 21
-57.0554
  0
LINE
  8
0
 10
-52.2784
 20
-57.0554
 11
-52.3218
 21
-56.9506
  0
LINE
  8
0
 10
-52.3218
 20
-56.9506
 11
-52.3742
 21
-56.85
  0
LINE
  8
0
 10
-52.3742
 20
-56.85
 11
-52.4351
 21
-56.7543
  0
LINE
  8
0
 10
-52.4351
 20
-56.7543
 11
-52.5041
 21
-56.6644
  0
LINE
  8
0
 10
-52.5041
 20
-56.6644
 11
-52.5807
 21
-56.5807
  0
LINE
  8
0
 10
-52.5807
 20
-56.5807
 11
-52.6644
 21
-56.5041
  0
LINE
  8
0
 10
-52.6644
 20
-56.5041
 11
-52.7543
 21
-56.4351
  0
LINE
  8
0
 10
-52.7543
 20
-56.4351
 11
-52.85
 21
-56.3742
  0
LINE
  8
0
 10
-52.85
 20
-56.3742
 11
-52.9506
 21
-56.3218
  0
LINE
  8
0
 10
-52.9506
 20
-56.3218
 11
-53.0554
 21
-56.2784
  0
LINE
  8
0
 10
-53.0554
 20
-56.2784
 11
-53.1635
 21
-56.2443
  0
LINE
  8
0
 10
-53.1635
 20
-56.2443
 11
-53.2742
 21
-56.2197
  0
LINE
  8
0
 10
-53.2742
 20
-56.2197
 11
-53.3867
 21
-56.2049
  0
LINE
  8
0
 10
-53.3867
 20
-56.2049
 11
-53.5
 21
-56.2
  0
LINE
  8
0
 10
-53.5
 20
-56.2
 11
-53.6133
 21
-56.2049
  0
LINE
  8
0
 10
-53.6133
 20
-56.2049
 11
-53.7257
 21
-56.2197
  0
LINE
  8
0
 10
-53.7257
 20
-56.2197
 11
-53.8365
 21
-56.2443
  0
LINE
  8
0
 10
-53.8365
 20
-56.2443
 11
-53.9446
 21
-56.2784
  0
LINE
  8
0
 10
-53.9446
 20
-56.2784
 11
-54.0494
 21
-56.3218
  0
LINE
  8
0
 10
-54.0494
 20
-56.3218
 11
-54.15
 21
-56.3742
  0
LINE
  8
0
 10
-54.15
 20
-56.3742
 11
-54.2456
 21
-56.4351
  0
LINE
  8
0
 10
-54.2456
 20
-56.4351
 11
-54.3356
 21
-56.5041
  0
LINE
  8
0
 10
-54.3356
 20
-56.5041
 11
-54.4192
 21
-56.5807
  0
LINE
  8
0
 10
-54.4192
 20
-56.5807
 11
-54.4958
 21
-56.6644
  0
LINE
  8
0
 10
-54.4958
 20
-56.6644
 11
-54.5649
 21
-56.7543
  0
LINE
  8
0
 10
-54.5649
 20
-56.7543
 11
-54.6258
 21
-56.85
  0
LINE
  8
0
 10
-54.6258
 20
-56.85
 11
-54.6782
 21
-56.9506
  0
LINE
  8
0
 10
-54.6782
 20
-56.9506
 11
-54.7216
 21
-57.0554
  0
LINE
  8
0
 10
-54.7216
 20
-57.0554
 11
-54.7557
 21
-57.1635
  0
LINE
  8
0
 10
-54.7557
 20
-57.1635
 11
-54.7802
 21
-57.2742
  0
LINE
  8
0
 10
-54.7802
 20
-57.2742
 11
-54.795
 21
-57.3867
  0
LINE
  8
0
 10
-54.795
 20
-57.3867
 11
-54.8
 21
-57.5
  0
LINE
  8
0
 10
-54.8
 20
-57.5
 11
-54.795
 21
-57.6133
  0
LINE
  8
0
 10
-54.795
 20
-57.6133
 11
-54.7802
 21
-57.7257
  0
LINE
  8
0
 10
-54.7802
 20
-57.7257
 11
-54.7557
 21
-57.8365
  0
LINE
  8
0
 10
-54.7557
 20
-57.8365
 11
-54.7216
 21
-57.9446
  0
LINE
  8
0
 10
-54.7216
 20
-57.9446
 11
-54.6782
 21
-58.0494
  0
LINE
  8
0
 10
-54.6782
 20
-58.0494
 11
-54.6258
 21
-58.15
  0
LINE
  8
0
 10
-54.6258
 20
-58.15
 11
-54.5649
 21
-58.2456
  0
LINE
  8
0
 10
-54.5649
 20
-58.2456
 11
-54.4958
 21
-58.3356
  0
LINE
  8
0
 10
-54.4958
 20
-58.3356
 11
-54.4192
 21
-58.4192
  0
LINE
  8
0
 10
-54.4192
 20
-58.4192
 11
-54.3356
 21
-58.4958
  0
LINE
  8
0
 10
-54.3356
 20
-58.4958
 11
-54.2456
 21
-58.5649
  0
LINE
  8
0
 10
-54.2456
 20
-58.5649
 11
-54.15
 21
-58.6258
  0
LINE
  8
0
 10
-54.15
 20
-58.6258
 11
-54.0494
 21
-58.6782
  0
LINE
  8
0
 10
-54.0494
 20
-58.6782
 11
-53.9446
 21
-58.7216
  0
LINE
  8
0
 10
-53.9446
 20
-58.7216
 11
-53.8365
 21
-58.7557
  0
LINE
  8
0
 10
-53.8365
 20
-58.7557
 11
-53.7257
 21
-58.7802
  0
LINE
  8
0
 10
-53.7257
 20
-58.7802
 11
-53.6133
 21
-58.795
  0
LINE
  8
0
 10
-53.6133
 20
-58.795
 11
-53.5
 21
-58.8
  0
LINE
  8
0
 10
-53.5
 20
-58.8
 11
-53.3867
 21
-58.795
  0
LINE
  8
0
 10
53.6133
 20
-58.795
 11
53.7257
 21
-58.7802
  0
LINE
  8
0
 10
53.7257
 20
-58.7802
 11
53.8365
 21
-58.7557
  0
LINE
  8
0
 10
53.8365
 20
-58.7557
 11
53.9446
 21
-58.7216
  0
LINE
  8
0
 10
53.9446
 20
-58.7216
 11
54.0494
 21
-58.6782
  0
LINE
  8
0
 10
54.0494
 20
-58.6782
 11
54.15
 21
-58.6258
  0
LINE
  8
0
 10
54.15
 20
-58.6258
 11
54.2456
 21
-58.5649
  0
LINE
  8
0
 10
54.2456
 20
-58.5649
 11
54.3356
 21
-58.4958
  0
LINE
  8
0
 10
54.3356
 20
-58.4958
 11
54.4192
 21
-58.4192
  0
LINE
  8
0
 10
54.4192
 20
-58.4192
 11
54.4958
 21
-58.3356
  0
LINE
  8
0
 10
54.4958
 20
-58.3356
 11
54.5649
 21
-58.2456
  0
LINE
  8
0
 10
54.5649
 20
-58.2456
 11
54.6258
 21
-58.15
  0
LINE
  8
0
 10
54.6258
 20
-58.15
 11
54.6782
 21
-58.0494
  0
LINE
  8
0
 10
54.6782
 20
-58.0494
 11
54.7216
 21
-57.9446
  0
LINE
  8
0
 10
54.7216
 20
-57.9446
 11
54.7557
 21
-57.8365
  0
LINE
  8
0
 10
54.7557
 20
-57.8365
 11
54.7802
 21
-57.7257
  0
LINE
  8
0
 10
54.7802
 20
-57.7257
 11
54.795
 21
-57.6133
  0
LINE
  8
0
 10
54.795
 20
-57.6133
 11
54.8
 21
-57.5
  0
LINE
  8
0
 10
54.8
 20
-57.5
 11
54.795
 21
-57.3867
  0
LINE
  8
0
 10
54.795
 20
-57.3867
 11
54.7802
 21
-57.2742
  0
LINE
  8
0
 10
54.7802
 20
-57.2742
 11
54.7557
 21
-57.1635
  0
LINE
  8
0
 10
54.7557
 20
-57.1635
 11
54.7216
 21
-57.0554
  0
LINE
  8
0
 10
54.7216
 20
-57.0554
 11
54.6782
 21
-56.9506
  0
LINE
  8
0
 10
54.6782
 20
-56.9506
 11
54.6258
 21
-56.85
  0
LINE
  8
0
 10
54.6258
 20
-56.85
 11
54.5649
 21
-56.7543
  0
LINE
  8
0
 10
54.5649
 20
-56.7543
 11
54.4958
 21
-56.6644
  0
LINE
  8
0
 10
54.4958
 20
-56.6644
 11
54.4192
 21
-56.5807
  0
LINE
  8
0
 10
54.4192
 20
-56.5807
 11
54.3356
 21
-56.5041
  0
LINE
  8
0
 10
54.3356
 20
-56.5041
 11
54.2456
 21
-56.4351
  0
LINE
  8
0
 10
54.2456
 20
-56.4351
 11
54.15
 21
-56.3742
  0
LINE
  8
0
 10
54.15
 20
-56.3742
 11
54.0494
 21
-56.3218
  0
LINE
  8
0
 10
54.0494
 20
-56.3218
 11
53.9446
 21
-56.2784
  0
LINE
  8
0
 10
53.9446
 20
-56.2784
 11
53.8365
 21
-56.2443
  0
LINE
  8
0
 10
53.8365
 20
-56.2443
 11
53.7257
 21
-56.2197
  0
LINE
  8
0
 10
53.7257
 20
-56.2197
 11
53.6133
 21
-56.2049
  0
LINE
  8
0
 10
53.6133
 20
-56.2049
 11
53.5
 21
-56.2
  0
LINE
  8
0
 10
53.5
 20
-56.2
 11
53.3867
 21
-56.2049
  0
LINE
  8
0
 10
53.3867
 20
-56.2049
 11
53.2742
 21
-56.2197
  0
LINE
  8
0
 10
53.2742
 20
-56.2197
 11
53.1635
 21
-56.2443
  0
LINE
  8
0
 10
53.1635
 20
-56.2443
 11
53.0554
 21
-56.2784
  0
LINE
  8
0
 10
53.0554
 20
-56.2784
 11
52.9506
 21
-56.3218
  0
LINE
  8
0
 10
52.9506
 20
-56.3218
 11
52.85
 21
-56.3742
  0
LINE
  8
0
 10
52.85
 20
-56.3742
 11
52.7543
 21
-56.4351
  0
LINE
  8
0
 10
52.7543
 20
-56.4351
 11
52.6644
 21
-56.5041
  0
LINE
  8
0
 10
52.6644
 20
-56.5041
 11
52.5807
 21
-56.5807
  0
LINE
  8
0
 10
52.5807
 20
-56.5807
 11
52.5041
 21
-56.6644
  0
LINE
  8
0
 10
52.5041
 20
-56.6644
 11
52.4351
 21
-56.7543
  0
LINE
  8
0
 10
52.4351
 20
-56.7543
 11
52.3742
 21
-56.85
  0
LINE
  8
0
 10
52.3742
 20
-56.85
 11
52.3218
 21
-56.9506
  0
LINE
  8
0
 10
52.3218
 20
-56.9506
 11
52.2784
 21
-57.0554
  0
LINE
  8
0
 10
52.2784
 20
-57.0554
 11
52.2443
 21
-57.1635
  0
LINE
  8
0
 10
52.2443
 20
-57.1635
 11
52.2197
 21
-57.2742
  0
LINE
  8
0
 10
52.2197
 20
-57.2742
 11
52.2049
 21
-57.3867
  0
LINE
  8
0
 10
52.2049
 20
-57.3867
 11
52.2
 21
-57.5
  0
LINE
  8
0
 10
52.2
 20
-57.5
 11
52.2049
 21
-57.6133
  0
LINE
  8
0
 10
52.2049
 20
-57.6133
 11
52.2197
 21
-57.7257
  0
LINE
  8
0
 10
52.2197
 20
-57.7257
 11
52.2443
 21
-57.8365
  0
LINE
  8
0
 10
52.2443
 20
-57.8365
 11
52.2784
 21
-57.9446
  0
LINE
  8
0
 10
52.2784
 20
-57.9446
 11
52.3218
 21
-58.0494
  0
LINE
  8
0
 10
52.3218
 20
-58.0494
 11
52.3742
 21
-58.15
  0
LINE
  8
0
 10
52.3742
 20
-58.15
 11
52.4351
 21
-58.2456
  0
LINE
  8
0
 10
52.4351
 20
-58.2456
 11
52.5041
 21
-58.3356
  0
LINE
  8
0
 10
52.5041
 20
-58.3356
 11
52.5807
 21
-58.4192
  0
LINE
  8
0
 10
52.5807
 20
-58.4192
 11
52.6644
 21
-58.4958
  0
LINE
  8
0
 10
52.6644
 20
-58.4958
 11
52.7543
 21
-58.5649
  0
LINE
  8
0
 10
52.7543
 20
-58.5649
 11
52.85
 21
-58.6258
  0
LINE
  8
0
 10
52.85
 20
-58.6258
 11
52.9506
 21
-58.6782
  0
LINE
  8
0
 10
52.9506
 20
-58.6782
 11
53.0554
 21
-58.7216
  0
LINE
  8
0
 10
53.0554
 20
-58.7216
 11
53.1635
 21
-58.7557
  0
LINE
  8
0
 10
53.1635
 20
-58.7557
 11
53.2742
 21
-58.7802
  0
LINE
  8
0
 10
53.2742
 20
-58.7802
 11
53.3867
 21
-58.795
  0
LINE
  8
0
 10
53.3867
 20
-58.795
 11
53.5
 21
-58.8
  0
LINE
  8
0
 10
53.5
 20
-58.8
 11
53.6133
 21
-58.795
  0
ENDSEC
  0
SECTION
  2
OBJECTS
  0
DICTIONARY
  0
ENDSEC
  0
EOF
