  0
SECTION
  2
BLOCKS
  0
ENDSEC
  0
SECTION
  2
ENTITIES
  0
LINE
  8
0
 10
139
 20
97
 11
-139
 21
97
  0
LINE
  8
0
 10
-139
 20
97
 11
-139
 21
-94
  0
LINE
  8
0
 10
-139
 20
-94
 11
139
 21
-94
  0
LINE
  8
0
 10
139
 20
-94
 11
139
 21
97
  0
LINE
  8
0
 10
-143.852
 20
86.3065
 11
-143.705
 21
86.3258
  0
LINE
  8
0
 10
-143.705
 20
86.3258
 11
-143.56
 21
86.3579
  0
LINE
  8
0
 10
-143.56
 20
86.3579
 11
-143.419
 21
86.4025
  0
LINE
  8
0
 10
-143.419
 20
86.4025
 11
-143.282
 21
86.4593
  0
LINE
  8
0
 10
-143.282
 20
86.4593
 11
-143.15
 21
86.5278
  0
LINE
  8
0
 10
-143.15
 20
86.5278
 11
-143.025
 21
86.6074
  0
LINE
  8
0
 10
-143.025
 20
86.6074
 11
-142.907
 21
86.6977
  0
LINE
  8
0
 10
-142.907
 20
86.6977
 11
-142.798
 21
86.7979
  0
LINE
  8
0
 10
-142.798
 20
86.7979
 11
-142.698
 21
86.9073
  0
LINE
  8
0
 10
-142.698
 20
86.9073
 11
-142.607
 21
87.0249
  0
LINE
  8
0
 10
-142.607
 20
87.0249
 11
-142.528
 21
87.15
  0
LINE
  8
0
 10
-142.528
 20
87.15
 11
-142.459
 21
87.2815
  0
LINE
  8
0
 10
-142.459
 20
87.2815
 11
-142.403
 21
87.4186
  0
LINE
  8
0
 10
-142.403
 20
87.4186
 11
-142.358
 21
87.56
  0
LINE
  8
0
 10
-142.358
 20
87.56
 11
-142.326
 21
87.7048
  0
LINE
  8
0
 10
-142.326
 20
87.7048
 11
-142.306
 21
87.8518
  0
LINE
  8
0
 10
-142.306
 20
87.8518
 11
-142.3
 21
88
  0
LINE
  8
0
 10
-142.3
 20
88
 11
-142.306
 21
88.1482
  0
LINE
  8
0
 10
-142.306
 20
88.1482
 11
-142.326
 21
88.2952
  0
LINE
  8
0
 10
-142.326
 20
88.2952
 11
-142.358
 21
88.44
  0
LINE
  8
0
 10
-142.358
 20
88.44
 11
-142.403
 21
88.5814
  0
LINE
  8
0
 10
-142.403
 20
88.5814
 11
-142.459
 21
88.7184
  0
LINE
  8
0
 10
-142.459
 20
88.7184
 11
-142.528
 21
88.85
  0
LINE
  8
0
 10
-142.528
 20
88.85
 11
-142.607
 21
88.9751
  0
LINE
  8
0
 10
-142.607
 20
88.9751
 11
-142.698
 21
89.0927
  0
LINE
  8
0
 10
-142.698
 20
89.0927
 11
-142.798
 21
89.2021
  0
LINE
  8
0
 10
-142.798
 20
89.2021
 11
-142.907
 21
89.3023
  0
LINE
  8
0
 10
-142.907
 20
89.3023
 11
-143.025
 21
89.3925
  0
LINE
  8
0
 10
-143.025
 20
89.3925
 11
-143.15
 21
89.4722
  0
LINE
  8
0
 10
-143.15
 20
89.4722
 11
-143.282
 21
89.5407
  0
LINE
  8
0
 10
-143.282
 20
89.5407
 11
-143.419
 21
89.5975
  0
LINE
  8
0
 10
-143.419
 20
89.5975
 11
-143.56
 21
89.6421
  0
LINE
  8
0
 10
-143.56
 20
89.6421
 11
-143.705
 21
89.6742
  0
LINE
  8
0
 10
-143.705
 20
89.6742
 11
-143.852
 21
89.6935
  0
LINE
  8
0
 10
-143.852
 20
89.6935
 11
-144
 21
89.7
  0
LINE
  8
0
 10
-144
 20
89.7
 11
-144.148
 21
89.6935
  0
LINE
  8
0
 10
-144.148
 20
89.6935
 11
-144.295
 21
89.6742
  0
LINE
  8
0
 10
-144.295
 20
89.6742
 11
-144.44
 21
89.6421
  0
LINE
  8
0
 10
-144.44
 20
89.6421
 11
-144.581
 21
89.5975
  0
LINE
  8
0
 10
-144.581
 20
89.5975
 11
-144.718
 21
89.5407
  0
LINE
  8
0
 10
-144.718
 20
89.5407
 11
-144.85
 21
89.4722
  0
LINE
  8
0
 10
-144.85
 20
89.4722
 11
-144.975
 21
89.3925
  0
LINE
  8
0
 10
-144.975
 20
89.3925
 11
-145.093
 21
89.3023
  0
LINE
  8
0
 10
-145.093
 20
89.3023
 11
-145.202
 21
89.2021
  0
LINE
  8
0
 10
-145.202
 20
89.2021
 11
-145.302
 21
89.0927
  0
LINE
  8
0
 10
-145.302
 20
89.0927
 11
-145.393
 21
88.9751
  0
LINE
  8
0
 10
-145.393
 20
88.9751
 11
-145.472
 21
88.85
  0
LINE
  8
0
 10
-145.472
 20
88.85
 11
-145.541
 21
88.7184
  0
LINE
  8
0
 10
-145.541
 20
88.7184
 11
-145.597
 21
88.5814
  0
LINE
  8
0
 10
-145.597
 20
88.5814
 11
-145.642
 21
88.44
  0
LINE
  8
0
 10
-145.642
 20
88.44
 11
-145.674
 21
88.2952
  0
LINE
  8
0
 10
-145.674
 20
88.2952
 11
-145.694
 21
88.1482
  0
LINE
  8
0
 10
-145.694
 20
88.1482
 11
-145.7
 21
88
  0
LINE
  8
0
 10
-145.7
 20
88
 11
-145.694
 21
87.8518
  0
LINE
  8
0
 10
-145.694
 20
87.8518
 11
-145.674
 21
87.7048
  0
LINE
  8
0
 10
-145.674
 20
87.7048
 11
-145.642
 21
87.56
  0
LINE
  8
0
 10
-145.642
 20
87.56
 11
-145.597
 21
87.4186
  0
LINE
  8
0
 10
-145.597
 20
87.4186
 11
-145.541
 21
87.2815
  0
LINE
  8
0
 10
-145.541
 20
87.2815
 11
-145.472
 21
87.15
  0
LINE
  8
0
 10
-145.472
 20
87.15
 11
-145.393
 21
87.0249
  0
LINE
  8
0
 10
-145.393
 20
87.0249
 11
-145.302
 21
86.9073
  0
LINE
  8
0
 10
-145.302
 20
86.9073
 11
-145.202
 21
86.7979
  0
LINE
  8
0
 10
-145.202
 20
86.7979
 11
-145.093
 21
86.6977
  0
LINE
  8
0
 10
-145.093
 20
86.6977
 11
-144.975
 21
86.6074
  0
LINE
  8
0
 10
-144.975
 20
86.6074
 11
-144.85
 21
86.5278
  0
LINE
  8
0
 10
-144.85
 20
86.5278
 11
-144.718
 21
86.4593
  0
LINE
  8
0
 10
-144.718
 20
86.4593
 11
-144.581
 21
86.4025
  0
LINE
  8
0
 10
-144.581
 20
86.4025
 11
-144.44
 21
86.3579
  0
LINE
  8
0
 10
-144.44
 20
86.3579
 11
-144.295
 21
86.3258
  0
LINE
  8
0
 10
-144.295
 20
86.3258
 11
-144.148
 21
86.3065
  0
LINE
  8
0
 10
-144.148
 20
86.3065
 11
-144
 21
86.3
  0
LINE
  8
0
 10
-144
 20
86.3
 11
-143.852
 21
86.3065
  0
LINE
  8
0
 10
144.148
 20
86.3065
 11
144.295
 21
86.3258
  0
LINE
  8
0
 10
144.295
 20
86.3258
 11
144.44
 21
86.3579
  0
LINE
  8
0
 10
144.44
 20
86.3579
 11
144.581
 21
86.4025
  0
LINE
  8
0
 10
144.581
 20
86.4025
 11
144.718
 21
86.4593
  0
LINE
  8
0
 10
144.718
 20
86.4593
 11
144.85
 21
86.5278
  0
LINE
  8
0
 10
144.85
 20
86.5278
 11
144.975
 21
86.6074
  0
LINE
  8
0
 10
144.975
 20
86.6074
 11
145.093
 21
86.6977
  0
LINE
  8
0
 10
145.093
 20
86.6977
 11
145.202
 21
86.7979
  0
LINE
  8
0
 10
145.202
 20
86.7979
 11
145.302
 21
86.9073
  0
LINE
  8
0
 10
145.302
 20
86.9073
 11
145.393
 21
87.0249
  0
LINE
  8
0
 10
145.393
 20
87.0249
 11
145.472
 21
87.15
  0
LINE
  8
0
 10
145.472
 20
87.15
 11
145.541
 21
87.2815
  0
LINE
  8
0
 10
145.541
 20
87.2815
 11
145.597
 21
87.4186
  0
LINE
  8
0
 10
145.597
 20
87.4186
 11
145.642
 21
87.56
  0
LINE
  8
0
 10
145.642
 20
87.56
 11
145.674
 21
87.7048
  0
LINE
  8
0
 10
145.674
 20
87.7048
 11
145.694
 21
87.8518
  0
LINE
  8
0
 10
145.694
 20
87.8518
 11
145.7
 21
88
  0
LINE
  8
0
 10
145.7
 20
88
 11
145.694
 21
88.1482
  0
LINE
  8
0
 10
145.694
 20
88.1482
 11
145.674
 21
88.2952
  0
LINE
  8
0
 10
145.674
 20
88.2952
 11
145.642
 21
88.44
  0
LINE
  8
0
 10
145.642
 20
88.44
 11
145.597
 21
88.5814
  0
LINE
  8
0
 10
145.597
 20
88.5814
 11
145.541
 21
88.7184
  0
LINE
  8
0
 10
145.541
 20
88.7184
 11
145.472
 21
88.85
  0
LINE
  8
0
 10
145.472
 20
88.85
 11
145.393
 21
88.9751
  0
LINE
  8
0
 10
145.393
 20
88.9751
 11
145.302
 21
89.0927
  0
LINE
  8
0
 10
145.302
 20
89.0927
 11
145.202
 21
89.2021
  0
LINE
  8
0
 10
145.202
 20
89.2021
 11
145.093
 21
89.3023
  0
LINE
  8
0
 10
145.093
 20
89.3023
 11
144.975
 21
89.3925
  0
LINE
  8
0
 10
144.975
 20
89.3925
 11
144.85
 21
89.4722
  0
LINE
  8
0
 10
144.85
 20
89.4722
 11
144.718
 21
89.5407
  0
LINE
  8
0
 10
144.718
 20
89.5407
 11
144.581
 21
89.5975
  0
LINE
  8
0
 10
144.581
 20
89.5975
 11
144.44
 21
89.6421
  0
LINE
  8
0
 10
144.44
 20
89.6421
 11
144.295
 21
89.6742
  0
LINE
  8
0
 10
144.295
 20
89.6742
 11
144.148
 21
89.6935
  0
LINE
  8
0
 10
144.148
 20
89.6935
 11
144
 21
89.7
  0
LINE
  8
0
 10
144
 20
89.7
 11
143.852
 21
89.6935
  0
LINE
  8
0
 10
143.852
 20
89.6935
 11
143.705
 21
89.6742
  0
LINE
  8
0
 10
143.705
 20
89.6742
 11
143.56
 21
89.6421
  0
LINE
  8
0
 10
143.56
 20
89.6421
 11
143.419
 21
89.5975
  0
LINE
  8
0
 10
143.419
 20
89.5975
 11
143.282
 21
89.5407
  0
LINE
  8
0
 10
143.282
 20
89.5407
 11
143.15
 21
89.4722
  0
LINE
  8
0
 10
143.15
 20
89.4722
 11
143.025
 21
89.3925
  0
LINE
  8
0
 10
143.025
 20
89.3925
 11
142.907
 21
89.3023
  0
LINE
  8
0
 10
142.907
 20
89.3023
 11
142.798
 21
89.2021
  0
LINE
  8
0
 10
142.798
 20
89.2021
 11
142.698
 21
89.0927
  0
LINE
  8
0
 10
142.698
 20
89.0927
 11
142.607
 21
88.9751
  0
LINE
  8
0
 10
142.607
 20
88.9751
 11
142.528
 21
88.85
  0
LINE
  8
0
 10
142.528
 20
88.85
 11
142.459
 21
88.7184
  0
LINE
  8
0
 10
142.459
 20
88.7184
 11
142.403
 21
88.5814
  0
LINE
  8
0
 10
142.403
 20
88.5814
 11
142.358
 21
88.44
  0
LINE
  8
0
 10
142.358
 20
88.44
 11
142.326
 21
88.2952
  0
LINE
  8
0
 10
142.326
 20
88.2952
 11
142.306
 21
88.1482
  0
LINE
  8
0
 10
142.306
 20
88.1482
 11
142.3
 21
88
  0
LINE
  8
0
 10
142.3
 20
88
 11
142.306
 21
87.8518
  0
LINE
  8
0
 10
142.306
 20
87.8518
 11
142.326
 21
87.7048
  0
LINE
  8
0
 10
142.326
 20
87.7048
 11
142.358
 21
87.56
  0
LINE
  8
0
 10
142.358
 20
87.56
 11
142.403
 21
87.4186
  0
LINE
  8
0
 10
142.403
 20
87.4186
 11
142.459
 21
87.2815
  0
LINE
  8
0
 10
142.459
 20
87.2815
 11
142.528
 21
87.15
  0
LINE
  8
0
 10
142.528
 20
87.15
 11
142.607
 21
87.0249
  0
LINE
  8
0
 10
142.607
 20
87.0249
 11
142.698
 21
86.9073
  0
LINE
  8
0
 10
142.698
 20
86.9073
 11
142.798
 21
86.7979
  0
LINE
  8
0
 10
142.798
 20
86.7979
 11
142.907
 21
86.6977
  0
LINE
  8
0
 10
142.907
 20
86.6977
 11
143.025
 21
86.6074
  0
LINE
  8
0
 10
143.025
 20
86.6074
 11
143.15
 21
86.5278
  0
LINE
  8
0
 10
143.15
 20
86.5278
 11
143.282
 21
86.4593
  0
LINE
  8
0
 10
143.282
 20
86.4593
 11
143.419
 21
86.4025
  0
LINE
  8
0
 10
143.419
 20
86.4025
 11
143.56
 21
86.3579
  0
LINE
  8
0
 10
143.56
 20
86.3579
 11
143.705
 21
86.3258
  0
LINE
  8
0
 10
143.705
 20
86.3258
 11
143.852
 21
86.3065
  0
LINE
  8
0
 10
143.852
 20
86.3065
 11
144
 21
86.3
  0
LINE
  8
0
 10
144
 20
86.3
 11
144.148
 21
86.3065
  0
LINE
  8
0
 10
-143.852
 20
-89.6935
 11
-143.705
 21
-89.6742
  0
LINE
  8
0
 10
-143.705
 20
-89.6742
 11
-143.56
 21
-89.6421
  0
LINE
  8
0
 10
-143.56
 20
-89.6421
 11
-143.419
 21
-89.5975
  0
LINE
  8
0
 10
-143.419
 20
-89.5975
 11
-143.282
 21
-89.5407
  0
LINE
  8
0
 10
-143.282
 20
-89.5407
 11
-143.15
 21
-89.4722
  0
LINE
  8
0
 10
-143.15
 20
-89.4722
 11
-143.025
 21
-89.3925
  0
LINE
  8
0
 10
-143.025
 20
-89.3925
 11
-142.907
 21
-89.3023
  0
LINE
  8
0
 10
-142.907
 20
-89.3023
 11
-142.798
 21
-89.2021
  0
LINE
  8
0
 10
-142.798
 20
-89.2021
 11
-142.698
 21
-89.0927
  0
LINE
  8
0
 10
-142.698
 20
-89.0927
 11
-142.607
 21
-88.9751
  0
LINE
  8
0
 10
-142.607
 20
-88.9751
 11
-142.528
 21
-88.85
  0
LINE
  8
0
 10
-142.528
 20
-88.85
 11
-142.459
 21
-88.7184
  0
LINE
  8
0
 10
-142.459
 20
-88.7184
 11
-142.403
 21
-88.5814
  0
LINE
  8
0
 10
-142.403
 20
-88.5814
 11
-142.358
 21
-88.44
  0
LINE
  8
0
 10
-142.358
 20
-88.44
 11
-142.326
 21
-88.2952
  0
LINE
  8
0
 10
-142.326
 20
-88.2952
 11
-142.306
 21
-88.1482
  0
LINE
  8
0
 10
-142.306
 20
-88.1482
 11
-142.3
 21
-88
  0
LINE
  8
0
 10
-142.3
 20
-88
 11
-142.306
 21
-87.8518
  0
LINE
  8
0
 10
-142.306
 20
-87.8518
 11
-142.326
 21
-87.7048
  0
LINE
  8
0
 10
-142.326
 20
-87.7048
 11
-142.358
 21
-87.56
  0
LINE
  8
0
 10
-142.358
 20
-87.56
 11
-142.403
 21
-87.4186
  0
LINE
  8
0
 10
-142.403
 20
-87.4186
 11
-142.459
 21
-87.2815
  0
LINE
  8
0
 10
-142.459
 20
-87.2815
 11
-142.528
 21
-87.15
  0
LINE
  8
0
 10
-142.528
 20
-87.15
 11
-142.607
 21
-87.0249
  0
LINE
  8
0
 10
-142.607
 20
-87.0249
 11
-142.698
 21
-86.9073
  0
LINE
  8
0
 10
-142.698
 20
-86.9073
 11
-142.798
 21
-86.7979
  0
LINE
  8
0
 10
-142.798
 20
-86.7979
 11
-142.907
 21
-86.6977
  0
LINE
  8
0
 10
-142.907
 20
-86.6977
 11
-143.025
 21
-86.6074
  0
LINE
  8
0
 10
-143.025
 20
-86.6074
 11
-143.15
 21
-86.5278
  0
LINE
  8
0
 10
-143.15
 20
-86.5278
 11
-143.282
 21
-86.4593
  0
LINE
  8
0
 10
-143.282
 20
-86.4593
 11
-143.419
 21
-86.4025
  0
LINE
  8
0
 10
-143.419
 20
-86.4025
 11
-143.56
 21
-86.3579
  0
LINE
  8
0
 10
-143.56
 20
-86.3579
 11
-143.705
 21
-86.3258
  0
LINE
  8
0
 10
-143.705
 20
-86.3258
 11
-143.852
 21
-86.3065
  0
LINE
  8
0
 10
-143.852
 20
-86.3065
 11
-144
 21
-86.3
  0
LINE
  8
0
 10
-144
 20
-86.3
 11
-144.148
 21
-86.3065
  0
LINE
  8
0
 10
-144.148
 20
-86.3065
 11
-144.295
 21
-86.3258
  0
LINE
  8
0
 10
-144.295
 20
-86.3258
 11
-144.44
 21
-86.3579
  0
LINE
  8
0
 10
-144.44
 20
-86.3579
 11
-144.581
 21
-86.4025
  0
LINE
  8
0
 10
-144.581
 20
-86.4025
 11
-144.718
 21
-86.4593
  0
LINE
  8
0
 10
-144.718
 20
-86.4593
 11
-144.85
 21
-86.5278
  0
LINE
  8
0
 10
-144.85
 20
-86.5278
 11
-144.975
 21
-86.6074
  0
LINE
  8
0
 10
-144.975
 20
-86.6074
 11
-145.093
 21
-86.6977
  0
LINE
  8
0
 10
-145.093
 20
-86.6977
 11
-145.202
 21
-86.7979
  0
LINE
  8
0
 10
-145.202
 20
-86.7979
 11
-145.302
 21
-86.9073
  0
LINE
  8
0
 10
-145.302
 20
-86.9073
 11
-145.393
 21
-87.0249
  0
LINE
  8
0
 10
-145.393
 20
-87.0249
 11
-145.472
 21
-87.15
  0
LINE
  8
0
 10
-145.472
 20
-87.15
 11
-145.541
 21
-87.2815
  0
LINE
  8
0
 10
-145.541
 20
-87.2815
 11
-145.597
 21
-87.4186
  0
LINE
  8
0
 10
-145.597
 20
-87.4186
 11
-145.642
 21
-87.56
  0
LINE
  8
0
 10
-145.642
 20
-87.56
 11
-145.674
 21
-87.7048
  0
LINE
  8
0
 10
-145.674
 20
-87.7048
 11
-145.694
 21
-87.8518
  0
LINE
  8
0
 10
-145.694
 20
-87.8518
 11
-145.7
 21
-88
  0
LINE
  8
0
 10
-145.7
 20
-88
 11
-145.694
 21
-88.1482
  0
LINE
  8
0
 10
-145.694
 20
-88.1482
 11
-145.674
 21
-88.2952
  0
LINE
  8
0
 10
-145.674
 20
-88.2952
 11
-145.642
 21
-88.44
  0
LINE
  8
0
 10
-145.642
 20
-88.44
 11
-145.597
 21
-88.5814
  0
LINE
  8
0
 10
-145.597
 20
-88.5814
 11
-145.541
 21
-88.7184
  0
LINE
  8
0
 10
-145.541
 20
-88.7184
 11
-145.472
 21
-88.85
  0
LINE
  8
0
 10
-145.472
 20
-88.85
 11
-145.393
 21
-88.9751
  0
LINE
  8
0
 10
-145.393
 20
-88.9751
 11
-145.302
 21
-89.0927
  0
LINE
  8
0
 10
-145.302
 20
-89.0927
 11
-145.202
 21
-89.2021
  0
LINE
  8
0
 10
-145.202
 20
-89.2021
 11
-145.093
 21
-89.3023
  0
LINE
  8
0
 10
-145.093
 20
-89.3023
 11
-144.975
 21
-89.3925
  0
LINE
  8
0
 10
-144.975
 20
-89.3925
 11
-144.85
 21
-89.4722
  0
LINE
  8
0
 10
-144.85
 20
-89.4722
 11
-144.718
 21
-89.5407
  0
LINE
  8
0
 10
-144.718
 20
-89.5407
 11
-144.581
 21
-89.5975
  0
LINE
  8
0
 10
-144.581
 20
-89.5975
 11
-144.44
 21
-89.6421
  0
LINE
  8
0
 10
-144.44
 20
-89.6421
 11
-144.295
 21
-89.6742
  0
LINE
  8
0
 10
-144.295
 20
-89.6742
 11
-144.148
 21
-89.6935
  0
LINE
  8
0
 10
-144.148
 20
-89.6935
 11
-144
 21
-89.7
  0
LINE
  8
0
 10
-144
 20
-89.7
 11
-143.852
 21
-89.6935
  0
LINE
  8
0
 10
144.148
 20
-89.6935
 11
144.295
 21
-89.6742
  0
LINE
  8
0
 10
144.295
 20
-89.6742
 11
144.44
 21
-89.6421
  0
LINE
  8
0
 10
144.44
 20
-89.6421
 11
144.581
 21
-89.5975
  0
LINE
  8
0
 10
144.581
 20
-89.5975
 11
144.718
 21
-89.5407
  0
LINE
  8
0
 10
144.718
 20
-89.5407
 11
144.85
 21
-89.4722
  0
LINE
  8
0
 10
144.85
 20
-89.4722
 11
144.975
 21
-89.3925
  0
LINE
  8
0
 10
144.975
 20
-89.3925
 11
145.093
 21
-89.3023
  0
LINE
  8
0
 10
145.093
 20
-89.3023
 11
145.202
 21
-89.2021
  0
LINE
  8
0
 10
145.202
 20
-89.2021
 11
145.302
 21
-89.0927
  0
LINE
  8
0
 10
145.302
 20
-89.0927
 11
145.393
 21
-88.9751
  0
LINE
  8
0
 10
145.393
 20
-88.9751
 11
145.472
 21
-88.85
  0
LINE
  8
0
 10
145.472
 20
-88.85
 11
145.541
 21
-88.7184
  0
LINE
  8
0
 10
145.541
 20
-88.7184
 11
145.597
 21
-88.5814
  0
LINE
  8
0
 10
145.597
 20
-88.5814
 11
145.642
 21
-88.44
  0
LINE
  8
0
 10
145.642
 20
-88.44
 11
145.674
 21
-88.2952
  0
LINE
  8
0
 10
145.674
 20
-88.2952
 11
145.694
 21
-88.1482
  0
LINE
  8
0
 10
145.694
 20
-88.1482
 11
145.7
 21
-88
  0
LINE
  8
0
 10
145.7
 20
-88
 11
145.694
 21
-87.8518
  0
LINE
  8
0
 10
145.694
 20
-87.8518
 11
145.674
 21
-87.7048
  0
LINE
  8
0
 10
145.674
 20
-87.7048
 11
145.642
 21
-87.56
  0
LINE
  8
0
 10
145.642
 20
-87.56
 11
145.597
 21
-87.4186
  0
LINE
  8
0
 10
145.597
 20
-87.4186
 11
145.541
 21
-87.2815
  0
LINE
  8
0
 10
145.541
 20
-87.2815
 11
145.472
 21
-87.15
  0
LINE
  8
0
 10
145.472
 20
-87.15
 11
145.393
 21
-87.0249
  0
LINE
  8
0
 10
145.393
 20
-87.0249
 11
145.302
 21
-86.9073
  0
LINE
  8
0
 10
145.302
 20
-86.9073
 11
145.202
 21
-86.7979
  0
LINE
  8
0
 10
145.202
 20
-86.7979
 11
145.093
 21
-86.6977
  0
LINE
  8
0
 10
145.093
 20
-86.6977
 11
144.975
 21
-86.6074
  0
LINE
  8
0
 10
144.975
 20
-86.6074
 11
144.85
 21
-86.5278
  0
LINE
  8
0
 10
144.85
 20
-86.5278
 11
144.718
 21
-86.4593
  0
LINE
  8
0
 10
144.718
 20
-86.4593
 11
144.581
 21
-86.4025
  0
LINE
  8
0
 10
144.581
 20
-86.4025
 11
144.44
 21
-86.3579
  0
LINE
  8
0
 10
144.44
 20
-86.3579
 11
144.295
 21
-86.3258
  0
LINE
  8
0
 10
144.295
 20
-86.3258
 11
144.148
 21
-86.3065
  0
LINE
  8
0
 10
144.148
 20
-86.3065
 11
144
 21
-86.3
  0
LINE
  8
0
 10
144
 20
-86.3
 11
143.852
 21
-86.3065
  0
LINE
  8
0
 10
143.852
 20
-86.3065
 11
143.705
 21
-86.3258
  0
LINE
  8
0
 10
143.705
 20
-86.3258
 11
143.56
 21
-86.3579
  0
LINE
  8
0
 10
143.56
 20
-86.3579
 11
143.419
 21
-86.4025
  0
LINE
  8
0
 10
143.419
 20
-86.4025
 11
143.282
 21
-86.4593
  0
LINE
  8
0
 10
143.282
 20
-86.4593
 11
143.15
 21
-86.5278
  0
LINE
  8
0
 10
143.15
 20
-86.5278
 11
143.025
 21
-86.6074
  0
LINE
  8
0
 10
143.025
 20
-86.6074
 11
142.907
 21
-86.6977
  0
LINE
  8
0
 10
142.907
 20
-86.6977
 11
142.798
 21
-86.7979
  0
LINE
  8
0
 10
142.798
 20
-86.7979
 11
142.698
 21
-86.9073
  0
LINE
  8
0
 10
142.698
 20
-86.9073
 11
142.607
 21
-87.0249
  0
LINE
  8
0
 10
142.607
 20
-87.0249
 11
142.528
 21
-87.15
  0
LINE
  8
0
 10
142.528
 20
-87.15
 11
142.459
 21
-87.2815
  0
LINE
  8
0
 10
142.459
 20
-87.2815
 11
142.403
 21
-87.4186
  0
LINE
  8
0
 10
142.403
 20
-87.4186
 11
142.358
 21
-87.56
  0
LINE
  8
0
 10
142.358
 20
-87.56
 11
142.326
 21
-87.7048
  0
LINE
  8
0
 10
142.326
 20
-87.7048
 11
142.306
 21
-87.8518
  0
LINE
  8
0
 10
142.306
 20
-87.8518
 11
142.3
 21
-88
  0
LINE
  8
0
 10
142.3
 20
-88
 11
142.306
 21
-88.1482
  0
LINE
  8
0
 10
142.306
 20
-88.1482
 11
142.326
 21
-88.2952
  0
LINE
  8
0
 10
142.326
 20
-88.2952
 11
142.358
 21
-88.44
  0
LINE
  8
0
 10
142.358
 20
-88.44
 11
142.403
 21
-88.5814
  0
LINE
  8
0
 10
142.403
 20
-88.5814
 11
142.459
 21
-88.7184
  0
LINE
  8
0
 10
142.459
 20
-88.7184
 11
142.528
 21
-88.85
  0
LINE
  8
0
 10
142.528
 20
-88.85
 11
142.607
 21
-88.9751
  0
LINE
  8
0
 10
142.607
 20
-88.9751
 11
142.698
 21
-89.0927
  0
LINE
  8
0
 10
142.698
 20
-89.0927
 11
142.798
 21
-89.2021
  0
LINE
  8
0
 10
142.798
 20
-89.2021
 11
142.907
 21
-89.3023
  0
LINE
  8
0
 10
142.907
 20
-89.3023
 11
143.025
 21
-89.3925
  0
LINE
  8
0
 10
143.025
 20
-89.3925
 11
143.15
 21
-89.4722
  0
LINE
  8
0
 10
143.15
 20
-89.4722
 11
143.282
 21
-89.5407
  0
LINE
  8
0
 10
143.282
 20
-89.5407
 11
143.419
 21
-89.5975
  0
LINE
  8
0
 10
143.419
 20
-89.5975
 11
143.56
 21
-89.6421
  0
LINE
  8
0
 10
143.56
 20
-89.6421
 11
143.705
 21
-89.6742
  0
LINE
  8
0
 10
143.705
 20
-89.6742
 11
143.852
 21
-89.6935
  0
LINE
  8
0
 10
143.852
 20
-89.6935
 11
144
 21
-89.7
  0
LINE
  8
0
 10
144
 20
-89.7
 11
144.148
 21
-89.6935
  0
ENDSEC
  0
SECTION
  2
OBJECTS
  0
DICTIONARY
  0
ENDSEC
  0
EOF
