<?xml version="1.0" standalone="no"?>
<!DOCTYPE svg PUBLIC "-//W3C//DTD SVG 1.1//EN" "http://www.w3.org/Graphics/SVG/1.1/DTD/svg11.dtd">
<svg width="292mm" height="191mm" viewBox="-146 -97 292 191" xmlns="http://www.w3.org/2000/svg" version="1.1">
<title>OpenSCAD Model</title>
<path d="
M 139,-97 L -139,-97 L -139,94 L 139,94 z
M -143.852,-86.3065 L -143.705,-86.3258 L -143.56,-86.3579 L -143.419,-86.4025 L -143.282,-86.4593 L -143.15,-86.5278
 L -143.025,-86.6074 L -142.907,-86.6977 L -142.798,-86.7979 L -142.698,-86.9073 L -142.607,-87.0249 L -142.528,-87.15
 L -142.459,-87.2815 L -142.403,-87.4186 L -142.358,-87.56 L -142.326,-87.7048 L -142.306,-87.8518 L -142.3,-88
 L -142.306,-88.1482 L -142.326,-88.2952 L -142.358,-88.44 L -142.403,-88.5814 L -142.459,-88.7184 L -142.528,-88.85
 L -142.607,-88.9751 L -142.698,-89.0927 L -142.798,-89.2021 L -142.907,-89.3023 L -143.025,-89.3925 L -143.15,-89.4722
 L -143.282,-89.5407 L -143.419,-89.5975 L -143.56,-89.6421 L -143.705,-89.6742 L -143.852,-89.6935 L -144,-89.7
 L -144.148,-89.6935 L -144.295,-89.6742 L -144.44,-89.6421 L -144.581,-89.5975 L -144.718,-89.5407 L -144.85,-89.4722
 L -144.975,-89.3925 L -145.093,-89.3023 L -145.202,-89.2021 L -145.302,-89.0927 L -145.393,-88.9751 L -145.472,-88.85
 L -145.541,-88.7184 L -145.597,-88.5814 L -145.642,-88.44 L -145.674,-88.2952 L -145.694,-88.1482 L -145.7,-88
 L -145.694,-87.8518 L -145.674,-87.7048 L -145.642,-87.56 L -145.597,-87.4186 L -145.541,-87.2815 L -145.472,-87.15
 L -145.393,-87.0249 L -145.302,-86.9073 L -145.202,-86.7979 L -145.093,-86.6977 L -144.975,-86.6074 L -144.85,-86.5278
 L -144.718,-86.4593 L -144.581,-86.4025 L -144.44,-86.3579 L -144.295,-86.3258 L -144.148,-86.3065 L -144,-86.3
 z
M 144.148,-86.3065 L 144.295,-86.3258 L 144.44,-86.3579 L 144.581,-86.4025 L 144.718,-86.4593 L 144.85,-86.5278
 L 144.975,-86.6074 L 145.093,-86.6977 L 145.202,-86.7979 L 145.302,-86.9073 L 145.393,-87.0249 L 145.472,-87.15
 L 145.541,-87.2815 L 145.597,-87.4186 L 145.642,-87.56 L 145.674,-87.7048 L 145.694,-87.8518 L 145.7,-88
 L 145.694,-88.1482 L 145.674,-88.2952 L 145.642,-88.44 L 145.597,-88.5814 L 145.541,-88.7184 L 145.472,-88.85
 L 145.393,-88.9751 L 145.302,-89.0927 L 145.202,-89.2021 L 145.093,-89.3023 L 144.975,-89.3925 L 144.85,-89.4722
 L 144.718,-89.5407 L 144.581,-89.5975 L 144.44,-89.6421 L 144.295,-89.6742 L 144.148,-89.6935 L 144,-89.7
 L 143.852,-89.6935 L 143.705,-89.6742 L 143.56,-89.6421 L 143.419,-89.5975 L 143.282,-89.5407 L 143.15,-89.4722
 L 143.025,-89.3925 L 142.907,-89.3023 L 142.798,-89.2021 L 142.698,-89.0927 L 142.607,-88.9751 L 142.528,-88.85
 L 142.459,-88.7184 L 142.403,-88.5814 L 142.358,-88.44 L 142.326,-88.2952 L 142.306,-88.1482 L 142.3,-88
 L 142.306,-87.8518 L 142.326,-87.7048 L 142.358,-87.56 L 142.403,-87.4186 L 142.459,-87.2815 L 142.528,-87.15
 L 142.607,-87.0249 L 142.698,-86.9073 L 142.798,-86.7979 L 142.907,-86.6977 L 143.025,-86.6074 L 143.15,-86.5278
 L 143.282,-86.4593 L 143.419,-86.4025 L 143.56,-86.3579 L 143.705,-86.3258 L 143.852,-86.3065 L 144,-86.3
 z
M -143.852,89.6935 L -143.705,89.6742 L -143.56,89.6421 L -143.419,89.5975 L -143.282,89.5407 L -143.15,89.4722
 L -143.025,89.3925 L -142.907,89.3023 L -142.798,89.2021 L -142.698,89.0927 L -142.607,88.9751 L -142.528,88.85
 L -142.459,88.7184 L -142.403,88.5814 L -142.358,88.44 L -142.326,88.2952 L -142.306,88.1482 L -142.3,88
 L -142.306,87.8518 L -142.326,87.7048 L -142.358,87.56 L -142.403,87.4186 L -142.459,87.2815 L -142.528,87.15
 L -142.607,87.0249 L -142.698,86.9073 L -142.798,86.7979 L -142.907,86.6977 L -143.025,86.6074 L -143.15,86.5278
 L -143.282,86.4593 L -143.419,86.4025 L -143.56,86.3579 L -143.705,86.3258 L -143.852,86.3065 L -144,86.3
 L -144.148,86.3065 L -144.295,86.3258 L -144.44,86.3579 L -144.581,86.4025 L -144.718,86.4593 L -144.85,86.5278
 L -144.975,86.6074 L -145.093,86.6977 L -145.202,86.7979 L -145.302,86.9073 L -145.393,87.0249 L -145.472,87.15
 L -145.541,87.2815 L -145.597,87.4186 L -145.642,87.56 L -145.674,87.7048 L -145.694,87.8518 L -145.7,88
 L -145.694,88.1482 L -145.674,88.2952 L -145.642,88.44 L -145.597,88.5814 L -145.541,88.7184 L -145.472,88.85
 L -145.393,88.9751 L -145.302,89.0927 L -145.202,89.2021 L -145.093,89.3023 L -144.975,89.3925 L -144.85,89.4722
 L -144.718,89.5407 L -144.581,89.5975 L -144.44,89.6421 L -144.295,89.6742 L -144.148,89.6935 L -144,89.7
 z
M 144.148,89.6935 L 144.295,89.6742 L 144.44,89.6421 L 144.581,89.5975 L 144.718,89.5407 L 144.85,89.4722
 L 144.975,89.3925 L 145.093,89.3023 L 145.202,89.2021 L 145.302,89.0927 L 145.393,88.9751 L 145.472,88.85
 L 145.541,88.7184 L 145.597,88.5814 L 145.642,88.44 L 145.674,88.2952 L 145.694,88.1482 L 145.7,88
 L 145.694,87.8518 L 145.674,87.7048 L 145.642,87.56 L 145.597,87.4186 L 145.541,87.2815 L 145.472,87.15
 L 145.393,87.0249 L 145.302,86.9073 L 145.202,86.7979 L 145.093,86.6977 L 144.975,86.6074 L 144.85,86.5278
 L 144.718,86.4593 L 144.581,86.4025 L 144.44,86.3579 L 144.295,86.3258 L 144.148,86.3065 L 144,86.3
 L 143.852,86.3065 L 143.705,86.3258 L 143.56,86.3579 L 143.419,86.4025 L 143.282,86.4593 L 143.15,86.5278
 L 143.025,86.6074 L 142.907,86.6977 L 142.798,86.7979 L 142.698,86.9073 L 142.607,87.0249 L 142.528,87.15
 L 142.459,87.2815 L 142.403,87.4186 L 142.358,87.56 L 142.326,87.7048 L 142.306,87.8518 L 142.3,88
 L 142.306,88.1482 L 142.326,88.2952 L 142.358,88.44 L 142.403,88.5814 L 142.459,88.7184 L 142.528,88.85
 L 142.607,88.9751 L 142.698,89.0927 L 142.798,89.2021 L 142.907,89.3023 L 143.025,89.3925 L 143.15,89.4722
 L 143.282,89.5407 L 143.419,89.5975 L 143.56,89.6421 L 143.705,89.6742 L 143.852,89.6935 L 144,89.7
 z
" stroke="black" fill="lightgray" stroke-width="0.5"/>
</svg>
