  0
SECTION
  2
BLOCKS
  0
ENDSEC
  0
SECTION
  2
ENTITIES
  0
LINE
  8
0
 10
75
 20
65
 11
-75
 21
65
  0
LINE
  8
0
 10
-75
 20
65
 11
-75
 21
-85
  0
LINE
  8
0
 10
-75
 20
-85
 11
75
 21
-85
  0
LINE
  8
0
 10
75
 20
-85
 11
75
 21
65
  0
LINE
  8
0
 10
64.8039
 20
44.7586
 11
64.6093
 21
44.7842
  0
LINE
  8
0
 10
64.6093
 20
44.7842
 11
64.4176
 21
44.8267
  0
LINE
  8
0
 10
64.4176
 20
44.8267
 11
64.2305
 21
44.8857
  0
LINE
  8
0
 10
64.2305
 20
44.8857
 11
64.0491
 21
44.9608
  0
LINE
  8
0
 10
64.0491
 20
44.9608
 11
63.875
 21
45.0514
  0
LINE
  8
0
 10
63.875
 20
45.0514
 11
63.7094
 21
45.1569
  0
LINE
  8
0
 10
63.7094
 20
45.1569
 11
63.5537
 21
45.2764
  0
LINE
  8
0
 10
63.5537
 20
45.2764
 11
63.409
 21
45.409
  0
LINE
  8
0
 10
63.409
 20
45.409
 11
63.2764
 21
45.5537
  0
LINE
  8
0
 10
63.2764
 20
45.5537
 11
63.1569
 21
45.7094
  0
LINE
  8
0
 10
63.1569
 20
45.7094
 11
63.0514
 21
45.875
  0
LINE
  8
0
 10
63.0514
 20
45.875
 11
62.9608
 21
46.0491
  0
LINE
  8
0
 10
62.9608
 20
46.0491
 11
62.8857
 21
46.2305
  0
LINE
  8
0
 10
62.8857
 20
46.2305
 11
62.8267
 21
46.4176
  0
LINE
  8
0
 10
62.8267
 20
46.4176
 11
62.7842
 21
46.6093
  0
LINE
  8
0
 10
62.7842
 20
46.6093
 11
62.7586
 21
46.8039
  0
LINE
  8
0
 10
62.7586
 20
46.8039
 11
62.75
 21
47
  0
LINE
  8
0
 10
62.75
 20
47
 11
62.7586
 21
47.1961
  0
LINE
  8
0
 10
62.7586
 20
47.1961
 11
62.7842
 21
47.3907
  0
LINE
  8
0
 10
62.7842
 20
47.3907
 11
62.8267
 21
47.5823
  0
LINE
  8
0
 10
62.8267
 20
47.5823
 11
62.8857
 21
47.7695
  0
LINE
  8
0
 10
62.8857
 20
47.7695
 11
62.9608
 21
47.9509
  0
LINE
  8
0
 10
62.9608
 20
47.9509
 11
63.0514
 21
48.125
  0
LINE
  8
0
 10
63.0514
 20
48.125
 11
63.1569
 21
48.2905
  0
LINE
  8
0
 10
63.1569
 20
48.2905
 11
63.2764
 21
48.4463
  0
LINE
  8
0
 10
63.2764
 20
48.4463
 11
63.409
 21
48.591
  0
LINE
  8
0
 10
63.409
 20
48.591
 11
63.5537
 21
48.7236
  0
LINE
  8
0
 10
63.5537
 20
48.7236
 11
63.7094
 21
48.8431
  0
LINE
  8
0
 10
63.7094
 20
48.8431
 11
63.875
 21
48.9485
  0
LINE
  8
0
 10
63.875
 20
48.9485
 11
64.0491
 21
49.0392
  0
LINE
  8
0
 10
64.0491
 20
49.0392
 11
64.2305
 21
49.1143
  0
LINE
  8
0
 10
64.2305
 20
49.1143
 11
64.4176
 21
49.1733
  0
LINE
  8
0
 10
64.4176
 20
49.1733
 11
64.6093
 21
49.2158
  0
LINE
  8
0
 10
64.6093
 20
49.2158
 11
64.8039
 21
49.2414
  0
LINE
  8
0
 10
64.8039
 20
49.2414
 11
65
 21
49.25
  0
LINE
  8
0
 10
65
 20
49.25
 11
65.1961
 21
49.2414
  0
LINE
  8
0
 10
65.1961
 20
49.2414
 11
65.3907
 21
49.2158
  0
LINE
  8
0
 10
65.3907
 20
49.2158
 11
65.5823
 21
49.1733
  0
LINE
  8
0
 10
65.5823
 20
49.1733
 11
65.7695
 21
49.1143
  0
LINE
  8
0
 10
65.7695
 20
49.1143
 11
65.9509
 21
49.0392
  0
LINE
  8
0
 10
65.9509
 20
49.0392
 11
66.125
 21
48.9485
  0
LINE
  8
0
 10
66.125
 20
48.9485
 11
66.2905
 21
48.8431
  0
LINE
  8
0
 10
66.2905
 20
48.8431
 11
66.4463
 21
48.7236
  0
LINE
  8
0
 10
66.4463
 20
48.7236
 11
66.591
 21
48.591
  0
LINE
  8
0
 10
66.591
 20
48.591
 11
66.7236
 21
48.4463
  0
LINE
  8
0
 10
66.7236
 20
48.4463
 11
66.8431
 21
48.2905
  0
LINE
  8
0
 10
66.8431
 20
48.2905
 11
66.9485
 21
48.125
  0
LINE
  8
0
 10
66.9485
 20
48.125
 11
67.0392
 21
47.9509
  0
LINE
  8
0
 10
67.0392
 20
47.9509
 11
67.1143
 21
47.7695
  0
LINE
  8
0
 10
67.1143
 20
47.7695
 11
67.1733
 21
47.5823
  0
LINE
  8
0
 10
67.1733
 20
47.5823
 11
67.2158
 21
47.3907
  0
LINE
  8
0
 10
67.2158
 20
47.3907
 11
67.2414
 21
47.1961
  0
LINE
  8
0
 10
67.2414
 20
47.1961
 11
67.25
 21
47
  0
LINE
  8
0
 10
67.25
 20
47
 11
67.2414
 21
46.8039
  0
LINE
  8
0
 10
67.2414
 20
46.8039
 11
67.2158
 21
46.6093
  0
LINE
  8
0
 10
67.2158
 20
46.6093
 11
67.1733
 21
46.4176
  0
LINE
  8
0
 10
67.1733
 20
46.4176
 11
67.1143
 21
46.2305
  0
LINE
  8
0
 10
67.1143
 20
46.2305
 11
67.0392
 21
46.0491
  0
LINE
  8
0
 10
67.0392
 20
46.0491
 11
66.9485
 21
45.875
  0
LINE
  8
0
 10
66.9485
 20
45.875
 11
66.8431
 21
45.7094
  0
LINE
  8
0
 10
66.8431
 20
45.7094
 11
66.7236
 21
45.5537
  0
LINE
  8
0
 10
66.7236
 20
45.5537
 11
66.591
 21
45.409
  0
LINE
  8
0
 10
66.591
 20
45.409
 11
66.4463
 21
45.2764
  0
LINE
  8
0
 10
66.4463
 20
45.2764
 11
66.2905
 21
45.1569
  0
LINE
  8
0
 10
66.2905
 20
45.1569
 11
66.125
 21
45.0514
  0
LINE
  8
0
 10
66.125
 20
45.0514
 11
65.9509
 21
44.9608
  0
LINE
  8
0
 10
65.9509
 20
44.9608
 11
65.7695
 21
44.8857
  0
LINE
  8
0
 10
65.7695
 20
44.8857
 11
65.5823
 21
44.8267
  0
LINE
  8
0
 10
65.5823
 20
44.8267
 11
65.3907
 21
44.7842
  0
LINE
  8
0
 10
65.3907
 20
44.7842
 11
65.1961
 21
44.7586
  0
LINE
  8
0
 10
65.1961
 20
44.7586
 11
65
 21
44.75
  0
LINE
  8
0
 10
65
 20
44.75
 11
64.8039
 21
44.7586
  0
LINE
  8
0
 10
-65.1961
 20
44.7586
 11
-65.3907
 21
44.7842
  0
LINE
  8
0
 10
-65.3907
 20
44.7842
 11
-65.5823
 21
44.8267
  0
LINE
  8
0
 10
-65.5823
 20
44.8267
 11
-65.7695
 21
44.8857
  0
LINE
  8
0
 10
-65.7695
 20
44.8857
 11
-65.9509
 21
44.9608
  0
LINE
  8
0
 10
-65.9509
 20
44.9608
 11
-66.125
 21
45.0514
  0
LINE
  8
0
 10
-66.125
 20
45.0514
 11
-66.2905
 21
45.1569
  0
LINE
  8
0
 10
-66.2905
 20
45.1569
 11
-66.4463
 21
45.2764
  0
LINE
  8
0
 10
-66.4463
 20
45.2764
 11
-66.591
 21
45.409
  0
LINE
  8
0
 10
-66.591
 20
45.409
 11
-66.7236
 21
45.5537
  0
LINE
  8
0
 10
-66.7236
 20
45.5537
 11
-66.8431
 21
45.7094
  0
LINE
  8
0
 10
-66.8431
 20
45.7094
 11
-66.9485
 21
45.875
  0
LINE
  8
0
 10
-66.9485
 20
45.875
 11
-67.0392
 21
46.0491
  0
LINE
  8
0
 10
-67.0392
 20
46.0491
 11
-67.1143
 21
46.2305
  0
LINE
  8
0
 10
-67.1143
 20
46.2305
 11
-67.1733
 21
46.4176
  0
LINE
  8
0
 10
-67.1733
 20
46.4176
 11
-67.2158
 21
46.6093
  0
LINE
  8
0
 10
-67.2158
 20
46.6093
 11
-67.2414
 21
46.8039
  0
LINE
  8
0
 10
-67.2414
 20
46.8039
 11
-67.25
 21
47
  0
LINE
  8
0
 10
-67.25
 20
47
 11
-67.2414
 21
47.1961
  0
LINE
  8
0
 10
-67.2414
 20
47.1961
 11
-67.2158
 21
47.3907
  0
LINE
  8
0
 10
-67.2158
 20
47.3907
 11
-67.1733
 21
47.5823
  0
LINE
  8
0
 10
-67.1733
 20
47.5823
 11
-67.1143
 21
47.7695
  0
LINE
  8
0
 10
-67.1143
 20
47.7695
 11
-67.0392
 21
47.9509
  0
LINE
  8
0
 10
-67.0392
 20
47.9509
 11
-66.9485
 21
48.125
  0
LINE
  8
0
 10
-66.9485
 20
48.125
 11
-66.8431
 21
48.2905
  0
LINE
  8
0
 10
-66.8431
 20
48.2905
 11
-66.7236
 21
48.4463
  0
LINE
  8
0
 10
-66.7236
 20
48.4463
 11
-66.591
 21
48.591
  0
LINE
  8
0
 10
-66.591
 20
48.591
 11
-66.4463
 21
48.7236
  0
LINE
  8
0
 10
-66.4463
 20
48.7236
 11
-66.2905
 21
48.8431
  0
LINE
  8
0
 10
-66.2905
 20
48.8431
 11
-66.125
 21
48.9485
  0
LINE
  8
0
 10
-66.125
 20
48.9485
 11
-65.9509
 21
49.0392
  0
LINE
  8
0
 10
-65.9509
 20
49.0392
 11
-65.7695
 21
49.1143
  0
LINE
  8
0
 10
-65.7695
 20
49.1143
 11
-65.5823
 21
49.1733
  0
LINE
  8
0
 10
-65.5823
 20
49.1733
 11
-65.3907
 21
49.2158
  0
LINE
  8
0
 10
-65.3907
 20
49.2158
 11
-65.1961
 21
49.2414
  0
LINE
  8
0
 10
-65.1961
 20
49.2414
 11
-65
 21
49.25
  0
LINE
  8
0
 10
-65
 20
49.25
 11
-64.8039
 21
49.2414
  0
LINE
  8
0
 10
-64.8039
 20
49.2414
 11
-64.6093
 21
49.2158
  0
LINE
  8
0
 10
-64.6093
 20
49.2158
 11
-64.4176
 21
49.1733
  0
LINE
  8
0
 10
-64.4176
 20
49.1733
 11
-64.2305
 21
49.1143
  0
LINE
  8
0
 10
-64.2305
 20
49.1143
 11
-64.0491
 21
49.0392
  0
LINE
  8
0
 10
-64.0491
 20
49.0392
 11
-63.875
 21
48.9485
  0
LINE
  8
0
 10
-63.875
 20
48.9485
 11
-63.7094
 21
48.8431
  0
LINE
  8
0
 10
-63.7094
 20
48.8431
 11
-63.5537
 21
48.7236
  0
LINE
  8
0
 10
-63.5537
 20
48.7236
 11
-63.409
 21
48.591
  0
LINE
  8
0
 10
-63.409
 20
48.591
 11
-63.2764
 21
48.4463
  0
LINE
  8
0
 10
-63.2764
 20
48.4463
 11
-63.1569
 21
48.2905
  0
LINE
  8
0
 10
-63.1569
 20
48.2905
 11
-63.0514
 21
48.125
  0
LINE
  8
0
 10
-63.0514
 20
48.125
 11
-62.9608
 21
47.9509
  0
LINE
  8
0
 10
-62.9608
 20
47.9509
 11
-62.8857
 21
47.7695
  0
LINE
  8
0
 10
-62.8857
 20
47.7695
 11
-62.8267
 21
47.5823
  0
LINE
  8
0
 10
-62.8267
 20
47.5823
 11
-62.7842
 21
47.3907
  0
LINE
  8
0
 10
-62.7842
 20
47.3907
 11
-62.7586
 21
47.1961
  0
LINE
  8
0
 10
-62.7586
 20
47.1961
 11
-62.75
 21
47
  0
LINE
  8
0
 10
-62.75
 20
47
 11
-62.7586
 21
46.8039
  0
LINE
  8
0
 10
-62.7586
 20
46.8039
 11
-62.7842
 21
46.6093
  0
LINE
  8
0
 10
-62.7842
 20
46.6093
 11
-62.8267
 21
46.4176
  0
LINE
  8
0
 10
-62.8267
 20
46.4176
 11
-62.8857
 21
46.2305
  0
LINE
  8
0
 10
-62.8857
 20
46.2305
 11
-62.9608
 21
46.0491
  0
LINE
  8
0
 10
-62.9608
 20
46.0491
 11
-63.0514
 21
45.875
  0
LINE
  8
0
 10
-63.0514
 20
45.875
 11
-63.1569
 21
45.7094
  0
LINE
  8
0
 10
-63.1569
 20
45.7094
 11
-63.2764
 21
45.5537
  0
LINE
  8
0
 10
-63.2764
 20
45.5537
 11
-63.409
 21
45.409
  0
LINE
  8
0
 10
-63.409
 20
45.409
 11
-63.5537
 21
45.2764
  0
LINE
  8
0
 10
-63.5537
 20
45.2764
 11
-63.7094
 21
45.1569
  0
LINE
  8
0
 10
-63.7094
 20
45.1569
 11
-63.875
 21
45.0514
  0
LINE
  8
0
 10
-63.875
 20
45.0514
 11
-64.0491
 21
44.9608
  0
LINE
  8
0
 10
-64.0491
 20
44.9608
 11
-64.2305
 21
44.8857
  0
LINE
  8
0
 10
-64.2305
 20
44.8857
 11
-64.4176
 21
44.8267
  0
LINE
  8
0
 10
-64.4176
 20
44.8267
 11
-64.6093
 21
44.7842
  0
LINE
  8
0
 10
-64.6093
 20
44.7842
 11
-64.8039
 21
44.7586
  0
LINE
  8
0
 10
-64.8039
 20
44.7586
 11
-65
 21
44.75
  0
LINE
  8
0
 10
-65
 20
44.75
 11
-65.1961
 21
44.7586
  0
LINE
  8
0
 10
13.8518
 20
12.3065
 11
13.7048
 21
12.3258
  0
LINE
  8
0
 10
13.7048
 20
12.3258
 11
13.56
 21
12.3579
  0
LINE
  8
0
 10
13.56
 20
12.3579
 11
13.4186
 21
12.4025
  0
LINE
  8
0
 10
13.4186
 20
12.4025
 11
13.2815
 21
12.4593
  0
LINE
  8
0
 10
13.2815
 20
12.4593
 11
13.15
 21
12.5278
  0
LINE
  8
0
 10
13.15
 20
12.5278
 11
13.0249
 21
12.6074
  0
LINE
  8
0
 10
13.0249
 20
12.6074
 11
12.9073
 21
12.6977
  0
LINE
  8
0
 10
12.9073
 20
12.6977
 11
12.7979
 21
12.7979
  0
LINE
  8
0
 10
12.7979
 20
12.7979
 11
12.6977
 21
12.9073
  0
LINE
  8
0
 10
12.6977
 20
12.9073
 11
12.6074
 21
13.0249
  0
LINE
  8
0
 10
12.6074
 20
13.0249
 11
12.5278
 21
13.15
  0
LINE
  8
0
 10
12.5278
 20
13.15
 11
12.4593
 21
13.2815
  0
LINE
  8
0
 10
12.4593
 20
13.2815
 11
12.4025
 21
13.4186
  0
LINE
  8
0
 10
12.4025
 20
13.4186
 11
12.3579
 21
13.56
  0
LINE
  8
0
 10
12.3579
 20
13.56
 11
12.3258
 21
13.7048
  0
LINE
  8
0
 10
12.3258
 20
13.7048
 11
12.3065
 21
13.8518
  0
LINE
  8
0
 10
12.3065
 20
13.8518
 11
12.3
 21
14
  0
LINE
  8
0
 10
12.3
 20
14
 11
12.3065
 21
14.1482
  0
LINE
  8
0
 10
12.3065
 20
14.1482
 11
12.3258
 21
14.2952
  0
LINE
  8
0
 10
12.3258
 20
14.2952
 11
12.3579
 21
14.44
  0
LINE
  8
0
 10
12.3579
 20
14.44
 11
12.4025
 21
14.5814
  0
LINE
  8
0
 10
12.4025
 20
14.5814
 11
12.4593
 21
14.7184
  0
LINE
  8
0
 10
12.4593
 20
14.7184
 11
12.5278
 21
14.85
  0
LINE
  8
0
 10
12.5278
 20
14.85
 11
12.6074
 21
14.9751
  0
LINE
  8
0
 10
12.6074
 20
14.9751
 11
12.6977
 21
15.0927
  0
LINE
  8
0
 10
12.6977
 20
15.0927
 11
12.7979
 21
15.2021
  0
LINE
  8
0
 10
12.7979
 20
15.2021
 11
12.9073
 21
15.3023
  0
LINE
  8
0
 10
12.9073
 20
15.3023
 11
13.0249
 21
15.3925
  0
LINE
  8
0
 10
13.0249
 20
15.3925
 11
13.15
 21
15.4722
  0
LINE
  8
0
 10
13.15
 20
15.4722
 11
13.2815
 21
15.5407
  0
LINE
  8
0
 10
13.2815
 20
15.5407
 11
13.4186
 21
15.5975
  0
LINE
  8
0
 10
13.4186
 20
15.5975
 11
13.56
 21
15.6421
  0
LINE
  8
0
 10
13.56
 20
15.6421
 11
13.7048
 21
15.6742
  0
LINE
  8
0
 10
13.7048
 20
15.6742
 11
13.8518
 21
15.6935
  0
LINE
  8
0
 10
13.8518
 20
15.6935
 11
14
 21
15.7
  0
LINE
  8
0
 10
14
 20
15.7
 11
14.1482
 21
15.6935
  0
LINE
  8
0
 10
14.1482
 20
15.6935
 11
14.2952
 21
15.6742
  0
LINE
  8
0
 10
14.2952
 20
15.6742
 11
14.44
 21
15.6421
  0
LINE
  8
0
 10
14.44
 20
15.6421
 11
14.5814
 21
15.5975
  0
LINE
  8
0
 10
14.5814
 20
15.5975
 11
14.7184
 21
15.5407
  0
LINE
  8
0
 10
14.7184
 20
15.5407
 11
14.85
 21
15.4722
  0
LINE
  8
0
 10
14.85
 20
15.4722
 11
14.9751
 21
15.3925
  0
LINE
  8
0
 10
14.9751
 20
15.3925
 11
15.0927
 21
15.3023
  0
LINE
  8
0
 10
15.0927
 20
15.3023
 11
15.2021
 21
15.2021
  0
LINE
  8
0
 10
15.2021
 20
15.2021
 11
15.3023
 21
15.0927
  0
LINE
  8
0
 10
15.3023
 20
15.0927
 11
15.3925
 21
14.9751
  0
LINE
  8
0
 10
15.3925
 20
14.9751
 11
15.4722
 21
14.85
  0
LINE
  8
0
 10
15.4722
 20
14.85
 11
15.5407
 21
14.7184
  0
LINE
  8
0
 10
15.5407
 20
14.7184
 11
15.5975
 21
14.5814
  0
LINE
  8
0
 10
15.5975
 20
14.5814
 11
15.6421
 21
14.44
  0
LINE
  8
0
 10
15.6421
 20
14.44
 11
15.6742
 21
14.2952
  0
LINE
  8
0
 10
15.6742
 20
14.2952
 11
15.6935
 21
14.1482
  0
LINE
  8
0
 10
15.6935
 20
14.1482
 11
15.7
 21
14
  0
LINE
  8
0
 10
15.7
 20
14
 11
15.6935
 21
13.8518
  0
LINE
  8
0
 10
15.6935
 20
13.8518
 11
15.6742
 21
13.7048
  0
LINE
  8
0
 10
15.6742
 20
13.7048
 11
15.6421
 21
13.56
  0
LINE
  8
0
 10
15.6421
 20
13.56
 11
15.5975
 21
13.4186
  0
LINE
  8
0
 10
15.5975
 20
13.4186
 11
15.5407
 21
13.2815
  0
LINE
  8
0
 10
15.5407
 20
13.2815
 11
15.4722
 21
13.15
  0
LINE
  8
0
 10
15.4722
 20
13.15
 11
15.3925
 21
13.0249
  0
LINE
  8
0
 10
15.3925
 20
13.0249
 11
15.3023
 21
12.9073
  0
LINE
  8
0
 10
15.3023
 20
12.9073
 11
15.2021
 21
12.7979
  0
LINE
  8
0
 10
15.2021
 20
12.7979
 11
15.0927
 21
12.6977
  0
LINE
  8
0
 10
15.0927
 20
12.6977
 11
14.9751
 21
12.6074
  0
LINE
  8
0
 10
14.9751
 20
12.6074
 11
14.85
 21
12.5278
  0
LINE
  8
0
 10
14.85
 20
12.5278
 11
14.7184
 21
12.4593
  0
LINE
  8
0
 10
14.7184
 20
12.4593
 11
14.5814
 21
12.4025
  0
LINE
  8
0
 10
14.5814
 20
12.4025
 11
14.44
 21
12.3579
  0
LINE
  8
0
 10
14.44
 20
12.3579
 11
14.2952
 21
12.3258
  0
LINE
  8
0
 10
14.2952
 20
12.3258
 11
14.1482
 21
12.3065
  0
LINE
  8
0
 10
14.1482
 20
12.3065
 11
14
 21
12.3
  0
LINE
  8
0
 10
14
 20
12.3
 11
13.8518
 21
12.3065
  0
LINE
  8
0
 10
-14.1482
 20
12.3065
 11
-14.2952
 21
12.3258
  0
LINE
  8
0
 10
-14.2952
 20
12.3258
 11
-14.44
 21
12.3579
  0
LINE
  8
0
 10
-14.44
 20
12.3579
 11
-14.5814
 21
12.4025
  0
LINE
  8
0
 10
-14.5814
 20
12.4025
 11
-14.7184
 21
12.4593
  0
LINE
  8
0
 10
-14.7184
 20
12.4593
 11
-14.85
 21
12.5278
  0
LINE
  8
0
 10
-14.85
 20
12.5278
 11
-14.9751
 21
12.6074
  0
LINE
  8
0
 10
-14.9751
 20
12.6074
 11
-15.0927
 21
12.6977
  0
LINE
  8
0
 10
-15.0927
 20
12.6977
 11
-15.2021
 21
12.7979
  0
LINE
  8
0
 10
-15.2021
 20
12.7979
 11
-15.3023
 21
12.9073
  0
LINE
  8
0
 10
-15.3023
 20
12.9073
 11
-15.3925
 21
13.0249
  0
LINE
  8
0
 10
-15.3925
 20
13.0249
 11
-15.4722
 21
13.15
  0
LINE
  8
0
 10
-15.4722
 20
13.15
 11
-15.5407
 21
13.2815
  0
LINE
  8
0
 10
-15.5407
 20
13.2815
 11
-15.5975
 21
13.4186
  0
LINE
  8
0
 10
-15.5975
 20
13.4186
 11
-15.6421
 21
13.56
  0
LINE
  8
0
 10
-15.6421
 20
13.56
 11
-15.6742
 21
13.7048
  0
LINE
  8
0
 10
-15.6742
 20
13.7048
 11
-15.6935
 21
13.8518
  0
LINE
  8
0
 10
-15.6935
 20
13.8518
 11
-15.7
 21
14
  0
LINE
  8
0
 10
-15.7
 20
14
 11
-15.6935
 21
14.1482
  0
LINE
  8
0
 10
-15.6935
 20
14.1482
 11
-15.6742
 21
14.2952
  0
LINE
  8
0
 10
-15.6742
 20
14.2952
 11
-15.6421
 21
14.44
  0
LINE
  8
0
 10
-15.6421
 20
14.44
 11
-15.5975
 21
14.5814
  0
LINE
  8
0
 10
-15.5975
 20
14.5814
 11
-15.5407
 21
14.7184
  0
LINE
  8
0
 10
-15.5407
 20
14.7184
 11
-15.4722
 21
14.85
  0
LINE
  8
0
 10
-15.4722
 20
14.85
 11
-15.3925
 21
14.9751
  0
LINE
  8
0
 10
-15.3925
 20
14.9751
 11
-15.3023
 21
15.0927
  0
LINE
  8
0
 10
-15.3023
 20
15.0927
 11
-15.2021
 21
15.2021
  0
LINE
  8
0
 10
-15.2021
 20
15.2021
 11
-15.0927
 21
15.3023
  0
LINE
  8
0
 10
-15.0927
 20
15.3023
 11
-14.9751
 21
15.3925
  0
LINE
  8
0
 10
-14.9751
 20
15.3925
 11
-14.85
 21
15.4722
  0
LINE
  8
0
 10
-14.85
 20
15.4722
 11
-14.7184
 21
15.5407
  0
LINE
  8
0
 10
-14.7184
 20
15.5407
 11
-14.5814
 21
15.5975
  0
LINE
  8
0
 10
-14.5814
 20
15.5975
 11
-14.44
 21
15.6421
  0
LINE
  8
0
 10
-14.44
 20
15.6421
 11
-14.2952
 21
15.6742
  0
LINE
  8
0
 10
-14.2952
 20
15.6742
 11
-14.1482
 21
15.6935
  0
LINE
  8
0
 10
-14.1482
 20
15.6935
 11
-14
 21
15.7
  0
LINE
  8
0
 10
-14
 20
15.7
 11
-13.8518
 21
15.6935
  0
LINE
  8
0
 10
-13.8518
 20
15.6935
 11
-13.7048
 21
15.6742
  0
LINE
  8
0
 10
-13.7048
 20
15.6742
 11
-13.56
 21
15.6421
  0
LINE
  8
0
 10
-13.56
 20
15.6421
 11
-13.4186
 21
15.5975
  0
LINE
  8
0
 10
-13.4186
 20
15.5975
 11
-13.2815
 21
15.5407
  0
LINE
  8
0
 10
-13.2815
 20
15.5407
 11
-13.15
 21
15.4722
  0
LINE
  8
0
 10
-13.15
 20
15.4722
 11
-13.0249
 21
15.3925
  0
LINE
  8
0
 10
-13.0249
 20
15.3925
 11
-12.9073
 21
15.3023
  0
LINE
  8
0
 10
-12.9073
 20
15.3023
 11
-12.7979
 21
15.2021
  0
LINE
  8
0
 10
-12.7979
 20
15.2021
 11
-12.6977
 21
15.0927
  0
LINE
  8
0
 10
-12.6977
 20
15.0927
 11
-12.6074
 21
14.9751
  0
LINE
  8
0
 10
-12.6074
 20
14.9751
 11
-12.5278
 21
14.85
  0
LINE
  8
0
 10
-12.5278
 20
14.85
 11
-12.4593
 21
14.7184
  0
LINE
  8
0
 10
-12.4593
 20
14.7184
 11
-12.4025
 21
14.5814
  0
LINE
  8
0
 10
-12.4025
 20
14.5814
 11
-12.3579
 21
14.44
  0
LINE
  8
0
 10
-12.3579
 20
14.44
 11
-12.3258
 21
14.2952
  0
LINE
  8
0
 10
-12.3258
 20
14.2952
 11
-12.3065
 21
14.1482
  0
LINE
  8
0
 10
-12.3065
 20
14.1482
 11
-12.3
 21
14
  0
LINE
  8
0
 10
-12.3
 20
14
 11
-12.3065
 21
13.8518
  0
LINE
  8
0
 10
-12.3065
 20
13.8518
 11
-12.3258
 21
13.7048
  0
LINE
  8
0
 10
-12.3258
 20
13.7048
 11
-12.3579
 21
13.56
  0
LINE
  8
0
 10
-12.3579
 20
13.56
 11
-12.4025
 21
13.4186
  0
LINE
  8
0
 10
-12.4025
 20
13.4186
 11
-12.4593
 21
13.2815
  0
LINE
  8
0
 10
-12.4593
 20
13.2815
 11
-12.5278
 21
13.15
  0
LINE
  8
0
 10
-12.5278
 20
13.15
 11
-12.6074
 21
13.0249
  0
LINE
  8
0
 10
-12.6074
 20
13.0249
 11
-12.6977
 21
12.9073
  0
LINE
  8
0
 10
-12.6977
 20
12.9073
 11
-12.7979
 21
12.7979
  0
LINE
  8
0
 10
-12.7979
 20
12.7979
 11
-12.9073
 21
12.6977
  0
LINE
  8
0
 10
-12.9073
 20
12.6977
 11
-13.0249
 21
12.6074
  0
LINE
  8
0
 10
-13.0249
 20
12.6074
 11
-13.15
 21
12.5278
  0
LINE
  8
0
 10
-13.15
 20
12.5278
 11
-13.2815
 21
12.4593
  0
LINE
  8
0
 10
-13.2815
 20
12.4593
 11
-13.4186
 21
12.4025
  0
LINE
  8
0
 10
-13.4186
 20
12.4025
 11
-13.56
 21
12.3579
  0
LINE
  8
0
 10
-13.56
 20
12.3579
 11
-13.7048
 21
12.3258
  0
LINE
  8
0
 10
-13.7048
 20
12.3258
 11
-13.8518
 21
12.3065
  0
LINE
  8
0
 10
-13.8518
 20
12.3065
 11
-14
 21
12.3
  0
LINE
  8
0
 10
-14
 20
12.3
 11
-14.1482
 21
12.3065
  0
LINE
  8
0
 10
-0.697235
 20
-7.96954
 11
-1.38918
 21
-7.87845
  0
LINE
  8
0
 10
-1.38918
 20
-7.87845
 11
-2.07054
 21
-7.7274
  0
LINE
  8
0
 10
-2.07054
 20
-7.7274
 11
-2.73616
 21
-7.51753
  0
LINE
  8
0
 10
-2.73616
 20
-7.51753
 11
-3.38094
 21
-7.25046
  0
LINE
  8
0
 10
-3.38094
 20
-7.25046
 11
-4
 21
-6.92819
  0
LINE
  8
0
 10
-4
 20
-6.92819
 11
-4.58861
 21
-6.55321
  0
LINE
  8
0
 10
-4.58861
 20
-6.55321
 11
-5.14229
 21
-6.12834
  0
LINE
  8
0
 10
-5.14229
 20
-6.12834
 11
-5.65685
 21
-5.65685
  0
LINE
  8
0
 10
-5.65685
 20
-5.65685
 11
-6.12834
 21
-5.14229
  0
LINE
  8
0
 10
-6.12834
 20
-5.14229
 11
-6.55321
 21
-4.58861
  0
LINE
  8
0
 10
-6.55321
 20
-4.58861
 11
-6.92819
 21
-4
  0
LINE
  8
0
 10
-6.92819
 20
-4
 11
-7.25046
 21
-3.38094
  0
LINE
  8
0
 10
-7.25046
 20
-3.38094
 11
-7.51753
 21
-2.73616
  0
LINE
  8
0
 10
-7.51753
 20
-2.73616
 11
-7.7274
 21
-2.07054
  0
LINE
  8
0
 10
-7.7274
 20
-2.07054
 11
-7.87845
 21
-1.38918
  0
LINE
  8
0
 10
-7.87845
 20
-1.38918
 11
-7.96954
 21
-0.697235
  0
LINE
  8
0
 10
-7.96954
 20
-0.697235
 11
-8
 21
0
  0
LINE
  8
0
 10
-8
 20
0
 11
-7.96954
 21
0.697235
  0
LINE
  8
0
 10
-7.96954
 20
0.697235
 11
-7.87845
 21
1.38918
  0
LINE
  8
0
 10
-7.87845
 20
1.38918
 11
-7.7274
 21
2.07054
  0
LINE
  8
0
 10
-7.7274
 20
2.07054
 11
-7.51753
 21
2.73616
  0
LINE
  8
0
 10
-7.51753
 20
2.73616
 11
-7.25046
 21
3.38094
  0
LINE
  8
0
 10
-7.25046
 20
3.38094
 11
-6.92819
 21
4
  0
LINE
  8
0
 10
-6.92819
 20
4
 11
-6.55321
 21
4.58861
  0
LINE
  8
0
 10
-6.55321
 20
4.58861
 11
-6.12834
 21
5.14229
  0
LINE
  8
0
 10
-6.12834
 20
5.14229
 11
-5.65685
 21
5.65685
  0
LINE
  8
0
 10
-5.65685
 20
5.65685
 11
-5.14229
 21
6.12834
  0
LINE
  8
0
 10
-5.14229
 20
6.12834
 11
-4.58861
 21
6.55321
  0
LINE
  8
0
 10
-4.58861
 20
6.55321
 11
-4
 21
6.92819
  0
LINE
  8
0
 10
-4
 20
6.92819
 11
-3.38094
 21
7.25046
  0
LINE
  8
0
 10
-3.38094
 20
7.25046
 11
-2.73616
 21
7.51753
  0
LINE
  8
0
 10
-2.73616
 20
7.51753
 11
-2.07054
 21
7.7274
  0
LINE
  8
0
 10
-2.07054
 20
7.7274
 11
-1.38918
 21
7.87845
  0
LINE
  8
0
 10
-1.38918
 20
7.87845
 11
-0.697235
 21
7.96954
  0
LINE
  8
0
 10
-0.697235
 20
7.96954
 11
0
 21
8
  0
LINE
  8
0
 10
0
 20
8
 11
0.697235
 21
7.96954
  0
LINE
  8
0
 10
0.697235
 20
7.96954
 11
1.38918
 21
7.87845
  0
LINE
  8
0
 10
1.38918
 20
7.87845
 11
2.07054
 21
7.7274
  0
LINE
  8
0
 10
2.07054
 20
7.7274
 11
2.73616
 21
7.51753
  0
LINE
  8
0
 10
2.73616
 20
7.51753
 11
3.38094
 21
7.25046
  0
LINE
  8
0
 10
3.38094
 20
7.25046
 11
4
 21
6.92819
  0
LINE
  8
0
 10
4
 20
6.92819
 11
4.58861
 21
6.55321
  0
LINE
  8
0
 10
4.58861
 20
6.55321
 11
5.14229
 21
6.12834
  0
LINE
  8
0
 10
5.14229
 20
6.12834
 11
5.65685
 21
5.65685
  0
LINE
  8
0
 10
5.65685
 20
5.65685
 11
6.12834
 21
5.14229
  0
LINE
  8
0
 10
6.12834
 20
5.14229
 11
6.55321
 21
4.58861
  0
LINE
  8
0
 10
6.55321
 20
4.58861
 11
6.92819
 21
4
  0
LINE
  8
0
 10
6.92819
 20
4
 11
7.25046
 21
3.38094
  0
LINE
  8
0
 10
7.25046
 20
3.38094
 11
7.51753
 21
2.73616
  0
LINE
  8
0
 10
7.51753
 20
2.73616
 11
7.7274
 21
2.07054
  0
LINE
  8
0
 10
7.7274
 20
2.07054
 11
7.87845
 21
1.38918
  0
LINE
  8
0
 10
7.87845
 20
1.38918
 11
7.96954
 21
0.697235
  0
LINE
  8
0
 10
7.96954
 20
0.697235
 11
8
 21
0
  0
LINE
  8
0
 10
8
 20
0
 11
7.96954
 21
-0.697235
  0
LINE
  8
0
 10
7.96954
 20
-0.697235
 11
7.87845
 21
-1.38918
  0
LINE
  8
0
 10
7.87845
 20
-1.38918
 11
7.7274
 21
-2.07054
  0
LINE
  8
0
 10
7.7274
 20
-2.07054
 11
7.51753
 21
-2.73616
  0
LINE
  8
0
 10
7.51753
 20
-2.73616
 11
7.25046
 21
-3.38094
  0
LINE
  8
0
 10
7.25046
 20
-3.38094
 11
6.92819
 21
-4
  0
LINE
  8
0
 10
6.92819
 20
-4
 11
6.55321
 21
-4.58861
  0
LINE
  8
0
 10
6.55321
 20
-4.58861
 11
6.12834
 21
-5.14229
  0
LINE
  8
0
 10
6.12834
 20
-5.14229
 11
5.65685
 21
-5.65685
  0
LINE
  8
0
 10
5.65685
 20
-5.65685
 11
5.14229
 21
-6.12834
  0
LINE
  8
0
 10
5.14229
 20
-6.12834
 11
4.58861
 21
-6.55321
  0
LINE
  8
0
 10
4.58861
 20
-6.55321
 11
4
 21
-6.92819
  0
LINE
  8
0
 10
4
 20
-6.92819
 11
3.38094
 21
-7.25046
  0
LINE
  8
0
 10
3.38094
 20
-7.25046
 11
2.73616
 21
-7.51753
  0
LINE
  8
0
 10
2.73616
 20
-7.51753
 11
2.07054
 21
-7.7274
  0
LINE
  8
0
 10
2.07054
 20
-7.7274
 11
1.38918
 21
-7.87845
  0
LINE
  8
0
 10
1.38918
 20
-7.87845
 11
0.697235
 21
-7.96954
  0
LINE
  8
0
 10
0.697235
 20
-7.96954
 11
0
 21
-8
  0
LINE
  8
0
 10
0
 20
-8
 11
-0.697235
 21
-7.96954
  0
LINE
  8
0
 10
13.8518
 20
-15.6935
 11
13.7048
 21
-15.6742
  0
LINE
  8
0
 10
13.7048
 20
-15.6742
 11
13.56
 21
-15.6421
  0
LINE
  8
0
 10
13.56
 20
-15.6421
 11
13.4186
 21
-15.5975
  0
LINE
  8
0
 10
13.4186
 20
-15.5975
 11
13.2815
 21
-15.5407
  0
LINE
  8
0
 10
13.2815
 20
-15.5407
 11
13.15
 21
-15.4722
  0
LINE
  8
0
 10
13.15
 20
-15.4722
 11
13.0249
 21
-15.3925
  0
LINE
  8
0
 10
13.0249
 20
-15.3925
 11
12.9073
 21
-15.3023
  0
LINE
  8
0
 10
12.9073
 20
-15.3023
 11
12.7979
 21
-15.2021
  0
LINE
  8
0
 10
12.7979
 20
-15.2021
 11
12.6977
 21
-15.0927
  0
LINE
  8
0
 10
12.6977
 20
-15.0927
 11
12.6074
 21
-14.9751
  0
LINE
  8
0
 10
12.6074
 20
-14.9751
 11
12.5278
 21
-14.85
  0
LINE
  8
0
 10
12.5278
 20
-14.85
 11
12.4593
 21
-14.7184
  0
LINE
  8
0
 10
12.4593
 20
-14.7184
 11
12.4025
 21
-14.5814
  0
LINE
  8
0
 10
12.4025
 20
-14.5814
 11
12.3579
 21
-14.44
  0
LINE
  8
0
 10
12.3579
 20
-14.44
 11
12.3258
 21
-14.2952
  0
LINE
  8
0
 10
12.3258
 20
-14.2952
 11
12.3065
 21
-14.1482
  0
LINE
  8
0
 10
12.3065
 20
-14.1482
 11
12.3
 21
-14
  0
LINE
  8
0
 10
12.3
 20
-14
 11
12.3065
 21
-13.8518
  0
LINE
  8
0
 10
12.3065
 20
-13.8518
 11
12.3258
 21
-13.7048
  0
LINE
  8
0
 10
12.3258
 20
-13.7048
 11
12.3579
 21
-13.56
  0
LINE
  8
0
 10
12.3579
 20
-13.56
 11
12.4025
 21
-13.4186
  0
LINE
  8
0
 10
12.4025
 20
-13.4186
 11
12.4593
 21
-13.2815
  0
LINE
  8
0
 10
12.4593
 20
-13.2815
 11
12.5278
 21
-13.15
  0
LINE
  8
0
 10
12.5278
 20
-13.15
 11
12.6074
 21
-13.0249
  0
LINE
  8
0
 10
12.6074
 20
-13.0249
 11
12.6977
 21
-12.9073
  0
LINE
  8
0
 10
12.6977
 20
-12.9073
 11
12.7979
 21
-12.7979
  0
LINE
  8
0
 10
12.7979
 20
-12.7979
 11
12.9073
 21
-12.6977
  0
LINE
  8
0
 10
12.9073
 20
-12.6977
 11
13.0249
 21
-12.6074
  0
LINE
  8
0
 10
13.0249
 20
-12.6074
 11
13.15
 21
-12.5278
  0
LINE
  8
0
 10
13.15
 20
-12.5278
 11
13.2815
 21
-12.4593
  0
LINE
  8
0
 10
13.2815
 20
-12.4593
 11
13.4186
 21
-12.4025
  0
LINE
  8
0
 10
13.4186
 20
-12.4025
 11
13.56
 21
-12.3579
  0
LINE
  8
0
 10
13.56
 20
-12.3579
 11
13.7048
 21
-12.3258
  0
LINE
  8
0
 10
13.7048
 20
-12.3258
 11
13.8518
 21
-12.3065
  0
LINE
  8
0
 10
13.8518
 20
-12.3065
 11
14
 21
-12.3
  0
LINE
  8
0
 10
14
 20
-12.3
 11
14.1482
 21
-12.3065
  0
LINE
  8
0
 10
14.1482
 20
-12.3065
 11
14.2952
 21
-12.3258
  0
LINE
  8
0
 10
14.2952
 20
-12.3258
 11
14.44
 21
-12.3579
  0
LINE
  8
0
 10
14.44
 20
-12.3579
 11
14.5814
 21
-12.4025
  0
LINE
  8
0
 10
14.5814
 20
-12.4025
 11
14.7184
 21
-12.4593
  0
LINE
  8
0
 10
14.7184
 20
-12.4593
 11
14.85
 21
-12.5278
  0
LINE
  8
0
 10
14.85
 20
-12.5278
 11
14.9751
 21
-12.6074
  0
LINE
  8
0
 10
14.9751
 20
-12.6074
 11
15.0927
 21
-12.6977
  0
LINE
  8
0
 10
15.0927
 20
-12.6977
 11
15.2021
 21
-12.7979
  0
LINE
  8
0
 10
15.2021
 20
-12.7979
 11
15.3023
 21
-12.9073
  0
LINE
  8
0
 10
15.3023
 20
-12.9073
 11
15.3925
 21
-13.0249
  0
LINE
  8
0
 10
15.3925
 20
-13.0249
 11
15.4722
 21
-13.15
  0
LINE
  8
0
 10
15.4722
 20
-13.15
 11
15.5407
 21
-13.2815
  0
LINE
  8
0
 10
15.5407
 20
-13.2815
 11
15.5975
 21
-13.4186
  0
LINE
  8
0
 10
15.5975
 20
-13.4186
 11
15.6421
 21
-13.56
  0
LINE
  8
0
 10
15.6421
 20
-13.56
 11
15.6742
 21
-13.7048
  0
LINE
  8
0
 10
15.6742
 20
-13.7048
 11
15.6935
 21
-13.8518
  0
LINE
  8
0
 10
15.6935
 20
-13.8518
 11
15.7
 21
-14
  0
LINE
  8
0
 10
15.7
 20
-14
 11
15.6935
 21
-14.1482
  0
LINE
  8
0
 10
15.6935
 20
-14.1482
 11
15.6742
 21
-14.2952
  0
LINE
  8
0
 10
15.6742
 20
-14.2952
 11
15.6421
 21
-14.44
  0
LINE
  8
0
 10
15.6421
 20
-14.44
 11
15.5975
 21
-14.5814
  0
LINE
  8
0
 10
15.5975
 20
-14.5814
 11
15.5407
 21
-14.7184
  0
LINE
  8
0
 10
15.5407
 20
-14.7184
 11
15.4722
 21
-14.85
  0
LINE
  8
0
 10
15.4722
 20
-14.85
 11
15.3925
 21
-14.9751
  0
LINE
  8
0
 10
15.3925
 20
-14.9751
 11
15.3023
 21
-15.0927
  0
LINE
  8
0
 10
15.3023
 20
-15.0927
 11
15.2021
 21
-15.2021
  0
LINE
  8
0
 10
15.2021
 20
-15.2021
 11
15.0927
 21
-15.3023
  0
LINE
  8
0
 10
15.0927
 20
-15.3023
 11
14.9751
 21
-15.3925
  0
LINE
  8
0
 10
14.9751
 20
-15.3925
 11
14.85
 21
-15.4722
  0
LINE
  8
0
 10
14.85
 20
-15.4722
 11
14.7184
 21
-15.5407
  0
LINE
  8
0
 10
14.7184
 20
-15.5407
 11
14.5814
 21
-15.5975
  0
LINE
  8
0
 10
14.5814
 20
-15.5975
 11
14.44
 21
-15.6421
  0
LINE
  8
0
 10
14.44
 20
-15.6421
 11
14.2952
 21
-15.6742
  0
LINE
  8
0
 10
14.2952
 20
-15.6742
 11
14.1482
 21
-15.6935
  0
LINE
  8
0
 10
14.1482
 20
-15.6935
 11
14
 21
-15.7
  0
LINE
  8
0
 10
14
 20
-15.7
 11
13.8518
 21
-15.6935
  0
LINE
  8
0
 10
-14.1482
 20
-15.6935
 11
-14.2952
 21
-15.6742
  0
LINE
  8
0
 10
-14.2952
 20
-15.6742
 11
-14.44
 21
-15.6421
  0
LINE
  8
0
 10
-14.44
 20
-15.6421
 11
-14.5814
 21
-15.5975
  0
LINE
  8
0
 10
-14.5814
 20
-15.5975
 11
-14.7184
 21
-15.5407
  0
LINE
  8
0
 10
-14.7184
 20
-15.5407
 11
-14.85
 21
-15.4722
  0
LINE
  8
0
 10
-14.85
 20
-15.4722
 11
-14.9751
 21
-15.3925
  0
LINE
  8
0
 10
-14.9751
 20
-15.3925
 11
-15.0927
 21
-15.3023
  0
LINE
  8
0
 10
-15.0927
 20
-15.3023
 11
-15.2021
 21
-15.2021
  0
LINE
  8
0
 10
-15.2021
 20
-15.2021
 11
-15.3023
 21
-15.0927
  0
LINE
  8
0
 10
-15.3023
 20
-15.0927
 11
-15.3925
 21
-14.9751
  0
LINE
  8
0
 10
-15.3925
 20
-14.9751
 11
-15.4722
 21
-14.85
  0
LINE
  8
0
 10
-15.4722
 20
-14.85
 11
-15.5407
 21
-14.7184
  0
LINE
  8
0
 10
-15.5407
 20
-14.7184
 11
-15.5975
 21
-14.5814
  0
LINE
  8
0
 10
-15.5975
 20
-14.5814
 11
-15.6421
 21
-14.44
  0
LINE
  8
0
 10
-15.6421
 20
-14.44
 11
-15.6742
 21
-14.2952
  0
LINE
  8
0
 10
-15.6742
 20
-14.2952
 11
-15.6935
 21
-14.1482
  0
LINE
  8
0
 10
-15.6935
 20
-14.1482
 11
-15.7
 21
-14
  0
LINE
  8
0
 10
-15.7
 20
-14
 11
-15.6935
 21
-13.8518
  0
LINE
  8
0
 10
-15.6935
 20
-13.8518
 11
-15.6742
 21
-13.7048
  0
LINE
  8
0
 10
-15.6742
 20
-13.7048
 11
-15.6421
 21
-13.56
  0
LINE
  8
0
 10
-15.6421
 20
-13.56
 11
-15.5975
 21
-13.4186
  0
LINE
  8
0
 10
-15.5975
 20
-13.4186
 11
-15.5407
 21
-13.2815
  0
LINE
  8
0
 10
-15.5407
 20
-13.2815
 11
-15.4722
 21
-13.15
  0
LINE
  8
0
 10
-15.4722
 20
-13.15
 11
-15.3925
 21
-13.0249
  0
LINE
  8
0
 10
-15.3925
 20
-13.0249
 11
-15.3023
 21
-12.9073
  0
LINE
  8
0
 10
-15.3023
 20
-12.9073
 11
-15.2021
 21
-12.7979
  0
LINE
  8
0
 10
-15.2021
 20
-12.7979
 11
-15.0927
 21
-12.6977
  0
LINE
  8
0
 10
-15.0927
 20
-12.6977
 11
-14.9751
 21
-12.6074
  0
LINE
  8
0
 10
-14.9751
 20
-12.6074
 11
-14.85
 21
-12.5278
  0
LINE
  8
0
 10
-14.85
 20
-12.5278
 11
-14.7184
 21
-12.4593
  0
LINE
  8
0
 10
-14.7184
 20
-12.4593
 11
-14.5814
 21
-12.4025
  0
LINE
  8
0
 10
-14.5814
 20
-12.4025
 11
-14.44
 21
-12.3579
  0
LINE
  8
0
 10
-14.44
 20
-12.3579
 11
-14.2952
 21
-12.3258
  0
LINE
  8
0
 10
-14.2952
 20
-12.3258
 11
-14.1482
 21
-12.3065
  0
LINE
  8
0
 10
-14.1482
 20
-12.3065
 11
-14
 21
-12.3
  0
LINE
  8
0
 10
-14
 20
-12.3
 11
-13.8518
 21
-12.3065
  0
LINE
  8
0
 10
-13.8518
 20
-12.3065
 11
-13.7048
 21
-12.3258
  0
LINE
  8
0
 10
-13.7048
 20
-12.3258
 11
-13.56
 21
-12.3579
  0
LINE
  8
0
 10
-13.56
 20
-12.3579
 11
-13.4186
 21
-12.4025
  0
LINE
  8
0
 10
-13.4186
 20
-12.4025
 11
-13.2815
 21
-12.4593
  0
LINE
  8
0
 10
-13.2815
 20
-12.4593
 11
-13.15
 21
-12.5278
  0
LINE
  8
0
 10
-13.15
 20
-12.5278
 11
-13.0249
 21
-12.6074
  0
LINE
  8
0
 10
-13.0249
 20
-12.6074
 11
-12.9073
 21
-12.6977
  0
LINE
  8
0
 10
-12.9073
 20
-12.6977
 11
-12.7979
 21
-12.7979
  0
LINE
  8
0
 10
-12.7979
 20
-12.7979
 11
-12.6977
 21
-12.9073
  0
LINE
  8
0
 10
-12.6977
 20
-12.9073
 11
-12.6074
 21
-13.0249
  0
LINE
  8
0
 10
-12.6074
 20
-13.0249
 11
-12.5278
 21
-13.15
  0
LINE
  8
0
 10
-12.5278
 20
-13.15
 11
-12.4593
 21
-13.2815
  0
LINE
  8
0
 10
-12.4593
 20
-13.2815
 11
-12.4025
 21
-13.4186
  0
LINE
  8
0
 10
-12.4025
 20
-13.4186
 11
-12.3579
 21
-13.56
  0
LINE
  8
0
 10
-12.3579
 20
-13.56
 11
-12.3258
 21
-13.7048
  0
LINE
  8
0
 10
-12.3258
 20
-13.7048
 11
-12.3065
 21
-13.8518
  0
LINE
  8
0
 10
-12.3065
 20
-13.8518
 11
-12.3
 21
-14
  0
LINE
  8
0
 10
-12.3
 20
-14
 11
-12.3065
 21
-14.1482
  0
LINE
  8
0
 10
-12.3065
 20
-14.1482
 11
-12.3258
 21
-14.2952
  0
LINE
  8
0
 10
-12.3258
 20
-14.2952
 11
-12.3579
 21
-14.44
  0
LINE
  8
0
 10
-12.3579
 20
-14.44
 11
-12.4025
 21
-14.5814
  0
LINE
  8
0
 10
-12.4025
 20
-14.5814
 11
-12.4593
 21
-14.7184
  0
LINE
  8
0
 10
-12.4593
 20
-14.7184
 11
-12.5278
 21
-14.85
  0
LINE
  8
0
 10
-12.5278
 20
-14.85
 11
-12.6074
 21
-14.9751
  0
LINE
  8
0
 10
-12.6074
 20
-14.9751
 11
-12.6977
 21
-15.0927
  0
LINE
  8
0
 10
-12.6977
 20
-15.0927
 11
-12.7979
 21
-15.2021
  0
LINE
  8
0
 10
-12.7979
 20
-15.2021
 11
-12.9073
 21
-15.3023
  0
LINE
  8
0
 10
-12.9073
 20
-15.3023
 11
-13.0249
 21
-15.3925
  0
LINE
  8
0
 10
-13.0249
 20
-15.3925
 11
-13.15
 21
-15.4722
  0
LINE
  8
0
 10
-13.15
 20
-15.4722
 11
-13.2815
 21
-15.5407
  0
LINE
  8
0
 10
-13.2815
 20
-15.5407
 11
-13.4186
 21
-15.5975
  0
LINE
  8
0
 10
-13.4186
 20
-15.5975
 11
-13.56
 21
-15.6421
  0
LINE
  8
0
 10
-13.56
 20
-15.6421
 11
-13.7048
 21
-15.6742
  0
LINE
  8
0
 10
-13.7048
 20
-15.6742
 11
-13.8518
 21
-15.6935
  0
LINE
  8
0
 10
-13.8518
 20
-15.6935
 11
-14
 21
-15.7
  0
LINE
  8
0
 10
-14
 20
-15.7
 11
-14.1482
 21
-15.6935
  0
LINE
  8
0
 10
64.8039
 20
-69.2414
 11
64.6093
 21
-69.2158
  0
LINE
  8
0
 10
64.6093
 20
-69.2158
 11
64.4176
 21
-69.1733
  0
LINE
  8
0
 10
64.4176
 20
-69.1733
 11
64.2305
 21
-69.1143
  0
LINE
  8
0
 10
64.2305
 20
-69.1143
 11
64.0491
 21
-69.0392
  0
LINE
  8
0
 10
64.0491
 20
-69.0392
 11
63.875
 21
-68.9485
  0
LINE
  8
0
 10
63.875
 20
-68.9485
 11
63.7094
 21
-68.8431
  0
LINE
  8
0
 10
63.7094
 20
-68.8431
 11
63.5537
 21
-68.7236
  0
LINE
  8
0
 10
63.5537
 20
-68.7236
 11
63.409
 21
-68.591
  0
LINE
  8
0
 10
63.409
 20
-68.591
 11
63.2764
 21
-68.4463
  0
LINE
  8
0
 10
63.2764
 20
-68.4463
 11
63.1569
 21
-68.2905
  0
LINE
  8
0
 10
63.1569
 20
-68.2905
 11
63.0514
 21
-68.125
  0
LINE
  8
0
 10
63.0514
 20
-68.125
 11
62.9608
 21
-67.9509
  0
LINE
  8
0
 10
62.9608
 20
-67.9509
 11
62.8857
 21
-67.7695
  0
LINE
  8
0
 10
62.8857
 20
-67.7695
 11
62.8267
 21
-67.5823
  0
LINE
  8
0
 10
62.8267
 20
-67.5823
 11
62.7842
 21
-67.3907
  0
LINE
  8
0
 10
62.7842
 20
-67.3907
 11
62.7586
 21
-67.1961
  0
LINE
  8
0
 10
62.7586
 20
-67.1961
 11
62.75
 21
-67
  0
LINE
  8
0
 10
62.75
 20
-67
 11
62.7586
 21
-66.8039
  0
LINE
  8
0
 10
62.7586
 20
-66.8039
 11
62.7842
 21
-66.6093
  0
LINE
  8
0
 10
62.7842
 20
-66.6093
 11
62.8267
 21
-66.4176
  0
LINE
  8
0
 10
62.8267
 20
-66.4176
 11
62.8857
 21
-66.2305
  0
LINE
  8
0
 10
62.8857
 20
-66.2305
 11
62.9608
 21
-66.0491
  0
LINE
  8
0
 10
62.9608
 20
-66.0491
 11
63.0514
 21
-65.875
  0
LINE
  8
0
 10
63.0514
 20
-65.875
 11
63.1569
 21
-65.7094
  0
LINE
  8
0
 10
63.1569
 20
-65.7094
 11
63.2764
 21
-65.5537
  0
LINE
  8
0
 10
63.2764
 20
-65.5537
 11
63.409
 21
-65.409
  0
LINE
  8
0
 10
63.409
 20
-65.409
 11
63.5537
 21
-65.2764
  0
LINE
  8
0
 10
63.5537
 20
-65.2764
 11
63.7094
 21
-65.1569
  0
LINE
  8
0
 10
63.7094
 20
-65.1569
 11
63.875
 21
-65.0514
  0
LINE
  8
0
 10
63.875
 20
-65.0514
 11
64.0491
 21
-64.9608
  0
LINE
  8
0
 10
64.0491
 20
-64.9608
 11
64.2305
 21
-64.8857
  0
LINE
  8
0
 10
64.2305
 20
-64.8857
 11
64.4176
 21
-64.8267
  0
LINE
  8
0
 10
64.4176
 20
-64.8267
 11
64.6093
 21
-64.7842
  0
LINE
  8
0
 10
64.6093
 20
-64.7842
 11
64.8039
 21
-64.7586
  0
LINE
  8
0
 10
64.8039
 20
-64.7586
 11
65
 21
-64.75
  0
LINE
  8
0
 10
65
 20
-64.75
 11
65.1961
 21
-64.7586
  0
LINE
  8
0
 10
65.1961
 20
-64.7586
 11
65.3907
 21
-64.7842
  0
LINE
  8
0
 10
65.3907
 20
-64.7842
 11
65.5823
 21
-64.8267
  0
LINE
  8
0
 10
65.5823
 20
-64.8267
 11
65.7695
 21
-64.8857
  0
LINE
  8
0
 10
65.7695
 20
-64.8857
 11
65.9509
 21
-64.9608
  0
LINE
  8
0
 10
65.9509
 20
-64.9608
 11
66.125
 21
-65.0514
  0
LINE
  8
0
 10
66.125
 20
-65.0514
 11
66.2905
 21
-65.1569
  0
LINE
  8
0
 10
66.2905
 20
-65.1569
 11
66.4463
 21
-65.2764
  0
LINE
  8
0
 10
66.4463
 20
-65.2764
 11
66.591
 21
-65.409
  0
LINE
  8
0
 10
66.591
 20
-65.409
 11
66.7236
 21
-65.5537
  0
LINE
  8
0
 10
66.7236
 20
-65.5537
 11
66.8431
 21
-65.7094
  0
LINE
  8
0
 10
66.8431
 20
-65.7094
 11
66.9485
 21
-65.875
  0
LINE
  8
0
 10
66.9485
 20
-65.875
 11
67.0392
 21
-66.0491
  0
LINE
  8
0
 10
67.0392
 20
-66.0491
 11
67.1143
 21
-66.2305
  0
LINE
  8
0
 10
67.1143
 20
-66.2305
 11
67.1733
 21
-66.4176
  0
LINE
  8
0
 10
67.1733
 20
-66.4176
 11
67.2158
 21
-66.6093
  0
LINE
  8
0
 10
67.2158
 20
-66.6093
 11
67.2414
 21
-66.8039
  0
LINE
  8
0
 10
67.2414
 20
-66.8039
 11
67.25
 21
-67
  0
LINE
  8
0
 10
67.25
 20
-67
 11
67.2414
 21
-67.1961
  0
LINE
  8
0
 10
67.2414
 20
-67.1961
 11
67.2158
 21
-67.3907
  0
LINE
  8
0
 10
67.2158
 20
-67.3907
 11
67.1733
 21
-67.5823
  0
LINE
  8
0
 10
67.1733
 20
-67.5823
 11
67.1143
 21
-67.7695
  0
LINE
  8
0
 10
67.1143
 20
-67.7695
 11
67.0392
 21
-67.9509
  0
LINE
  8
0
 10
67.0392
 20
-67.9509
 11
66.9485
 21
-68.125
  0
LINE
  8
0
 10
66.9485
 20
-68.125
 11
66.8431
 21
-68.2905
  0
LINE
  8
0
 10
66.8431
 20
-68.2905
 11
66.7236
 21
-68.4463
  0
LINE
  8
0
 10
66.7236
 20
-68.4463
 11
66.591
 21
-68.591
  0
LINE
  8
0
 10
66.591
 20
-68.591
 11
66.4463
 21
-68.7236
  0
LINE
  8
0
 10
66.4463
 20
-68.7236
 11
66.2905
 21
-68.8431
  0
LINE
  8
0
 10
66.2905
 20
-68.8431
 11
66.125
 21
-68.9485
  0
LINE
  8
0
 10
66.125
 20
-68.9485
 11
65.9509
 21
-69.0392
  0
LINE
  8
0
 10
65.9509
 20
-69.0392
 11
65.7695
 21
-69.1143
  0
LINE
  8
0
 10
65.7695
 20
-69.1143
 11
65.5823
 21
-69.1733
  0
LINE
  8
0
 10
65.5823
 20
-69.1733
 11
65.3907
 21
-69.2158
  0
LINE
  8
0
 10
65.3907
 20
-69.2158
 11
65.1961
 21
-69.2414
  0
LINE
  8
0
 10
65.1961
 20
-69.2414
 11
65
 21
-69.25
  0
LINE
  8
0
 10
65
 20
-69.25
 11
64.8039
 21
-69.2414
  0
LINE
  8
0
 10
-65.1961
 20
-69.2414
 11
-65.3907
 21
-69.2158
  0
LINE
  8
0
 10
-65.3907
 20
-69.2158
 11
-65.5823
 21
-69.1733
  0
LINE
  8
0
 10
-65.5823
 20
-69.1733
 11
-65.7695
 21
-69.1143
  0
LINE
  8
0
 10
-65.7695
 20
-69.1143
 11
-65.9509
 21
-69.0392
  0
LINE
  8
0
 10
-65.9509
 20
-69.0392
 11
-66.125
 21
-68.9485
  0
LINE
  8
0
 10
-66.125
 20
-68.9485
 11
-66.2905
 21
-68.8431
  0
LINE
  8
0
 10
-66.2905
 20
-68.8431
 11
-66.4463
 21
-68.7236
  0
LINE
  8
0
 10
-66.4463
 20
-68.7236
 11
-66.591
 21
-68.591
  0
LINE
  8
0
 10
-66.591
 20
-68.591
 11
-66.7236
 21
-68.4463
  0
LINE
  8
0
 10
-66.7236
 20
-68.4463
 11
-66.8431
 21
-68.2905
  0
LINE
  8
0
 10
-66.8431
 20
-68.2905
 11
-66.9485
 21
-68.125
  0
LINE
  8
0
 10
-66.9485
 20
-68.125
 11
-67.0392
 21
-67.9509
  0
LINE
  8
0
 10
-67.0392
 20
-67.9509
 11
-67.1143
 21
-67.7695
  0
LINE
  8
0
 10
-67.1143
 20
-67.7695
 11
-67.1733
 21
-67.5823
  0
LINE
  8
0
 10
-67.1733
 20
-67.5823
 11
-67.2158
 21
-67.3907
  0
LINE
  8
0
 10
-67.2158
 20
-67.3907
 11
-67.2414
 21
-67.1961
  0
LINE
  8
0
 10
-67.2414
 20
-67.1961
 11
-67.25
 21
-67
  0
LINE
  8
0
 10
-67.25
 20
-67
 11
-67.2414
 21
-66.8039
  0
LINE
  8
0
 10
-67.2414
 20
-66.8039
 11
-67.2158
 21
-66.6093
  0
LINE
  8
0
 10
-67.2158
 20
-66.6093
 11
-67.1733
 21
-66.4176
  0
LINE
  8
0
 10
-67.1733
 20
-66.4176
 11
-67.1143
 21
-66.2305
  0
LINE
  8
0
 10
-67.1143
 20
-66.2305
 11
-67.0392
 21
-66.0491
  0
LINE
  8
0
 10
-67.0392
 20
-66.0491
 11
-66.9485
 21
-65.875
  0
LINE
  8
0
 10
-66.9485
 20
-65.875
 11
-66.8431
 21
-65.7094
  0
LINE
  8
0
 10
-66.8431
 20
-65.7094
 11
-66.7236
 21
-65.5537
  0
LINE
  8
0
 10
-66.7236
 20
-65.5537
 11
-66.591
 21
-65.409
  0
LINE
  8
0
 10
-66.591
 20
-65.409
 11
-66.4463
 21
-65.2764
  0
LINE
  8
0
 10
-66.4463
 20
-65.2764
 11
-66.2905
 21
-65.1569
  0
LINE
  8
0
 10
-66.2905
 20
-65.1569
 11
-66.125
 21
-65.0514
  0
LINE
  8
0
 10
-66.125
 20
-65.0514
 11
-65.9509
 21
-64.9608
  0
LINE
  8
0
 10
-65.9509
 20
-64.9608
 11
-65.7695
 21
-64.8857
  0
LINE
  8
0
 10
-65.7695
 20
-64.8857
 11
-65.5823
 21
-64.8267
  0
LINE
  8
0
 10
-65.5823
 20
-64.8267
 11
-65.3907
 21
-64.7842
  0
LINE
  8
0
 10
-65.3907
 20
-64.7842
 11
-65.1961
 21
-64.7586
  0
LINE
  8
0
 10
-65.1961
 20
-64.7586
 11
-65
 21
-64.75
  0
LINE
  8
0
 10
-65
 20
-64.75
 11
-64.8039
 21
-64.7586
  0
LINE
  8
0
 10
-64.8039
 20
-64.7586
 11
-64.6093
 21
-64.7842
  0
LINE
  8
0
 10
-64.6093
 20
-64.7842
 11
-64.4176
 21
-64.8267
  0
LINE
  8
0
 10
-64.4176
 20
-64.8267
 11
-64.2305
 21
-64.8857
  0
LINE
  8
0
 10
-64.2305
 20
-64.8857
 11
-64.0491
 21
-64.9608
  0
LINE
  8
0
 10
-64.0491
 20
-64.9608
 11
-63.875
 21
-65.0514
  0
LINE
  8
0
 10
-63.875
 20
-65.0514
 11
-63.7094
 21
-65.1569
  0
LINE
  8
0
 10
-63.7094
 20
-65.1569
 11
-63.5537
 21
-65.2764
  0
LINE
  8
0
 10
-63.5537
 20
-65.2764
 11
-63.409
 21
-65.409
  0
LINE
  8
0
 10
-63.409
 20
-65.409
 11
-63.2764
 21
-65.5537
  0
LINE
  8
0
 10
-63.2764
 20
-65.5537
 11
-63.1569
 21
-65.7094
  0
LINE
  8
0
 10
-63.1569
 20
-65.7094
 11
-63.0514
 21
-65.875
  0
LINE
  8
0
 10
-63.0514
 20
-65.875
 11
-62.9608
 21
-66.0491
  0
LINE
  8
0
 10
-62.9608
 20
-66.0491
 11
-62.8857
 21
-66.2305
  0
LINE
  8
0
 10
-62.8857
 20
-66.2305
 11
-62.8267
 21
-66.4176
  0
LINE
  8
0
 10
-62.8267
 20
-66.4176
 11
-62.7842
 21
-66.6093
  0
LINE
  8
0
 10
-62.7842
 20
-66.6093
 11
-62.7586
 21
-66.8039
  0
LINE
  8
0
 10
-62.7586
 20
-66.8039
 11
-62.75
 21
-67
  0
LINE
  8
0
 10
-62.75
 20
-67
 11
-62.7586
 21
-67.1961
  0
LINE
  8
0
 10
-62.7586
 20
-67.1961
 11
-62.7842
 21
-67.3907
  0
LINE
  8
0
 10
-62.7842
 20
-67.3907
 11
-62.8267
 21
-67.5823
  0
LINE
  8
0
 10
-62.8267
 20
-67.5823
 11
-62.8857
 21
-67.7695
  0
LINE
  8
0
 10
-62.8857
 20
-67.7695
 11
-62.9608
 21
-67.9509
  0
LINE
  8
0
 10
-62.9608
 20
-67.9509
 11
-63.0514
 21
-68.125
  0
LINE
  8
0
 10
-63.0514
 20
-68.125
 11
-63.1569
 21
-68.2905
  0
LINE
  8
0
 10
-63.1569
 20
-68.2905
 11
-63.2764
 21
-68.4463
  0
LINE
  8
0
 10
-63.2764
 20
-68.4463
 11
-63.409
 21
-68.591
  0
LINE
  8
0
 10
-63.409
 20
-68.591
 11
-63.5537
 21
-68.7236
  0
LINE
  8
0
 10
-63.5537
 20
-68.7236
 11
-63.7094
 21
-68.8431
  0
LINE
  8
0
 10
-63.7094
 20
-68.8431
 11
-63.875
 21
-68.9485
  0
LINE
  8
0
 10
-63.875
 20
-68.9485
 11
-64.0491
 21
-69.0392
  0
LINE
  8
0
 10
-64.0491
 20
-69.0392
 11
-64.2305
 21
-69.1143
  0
LINE
  8
0
 10
-64.2305
 20
-69.1143
 11
-64.4176
 21
-69.1733
  0
LINE
  8
0
 10
-64.4176
 20
-69.1733
 11
-64.6093
 21
-69.2158
  0
LINE
  8
0
 10
-64.6093
 20
-69.2158
 11
-64.8039
 21
-69.2414
  0
LINE
  8
0
 10
-64.8039
 20
-69.2414
 11
-65
 21
-69.25
  0
LINE
  8
0
 10
-65
 20
-69.25
 11
-65.1961
 21
-69.2414
  0
ENDSEC
  0
SECTION
  2
OBJECTS
  0
DICTIONARY
  0
ENDSEC
  0
EOF
