  0
SECTION
  2
BLOCKS
  0
ENDSEC
  0
SECTION
  2
ENTITIES
  0
LINE
  8
0
 10
165
 20
120
 11
-165
 21
120
  0
LINE
  8
0
 10
-165
 20
120
 11
-165
 21
0
  0
LINE
  8
0
 10
-165
 20
0
 11
165
 21
0
  0
LINE
  8
0
 10
165
 20
0
 11
165
 21
120
  0
LINE
  8
0
 10
-157.196
 20
109.759
 11
-157.391
 21
109.784
  0
LINE
  8
0
 10
-157.391
 20
109.784
 11
-157.582
 21
109.827
  0
LINE
  8
0
 10
-157.582
 20
109.827
 11
-157.77
 21
109.886
  0
LINE
  8
0
 10
-157.77
 20
109.886
 11
-157.951
 21
109.961
  0
LINE
  8
0
 10
-157.951
 20
109.961
 11
-158.125
 21
110.051
  0
LINE
  8
0
 10
-158.125
 20
110.051
 11
-158.291
 21
110.157
  0
LINE
  8
0
 10
-158.291
 20
110.157
 11
-158.446
 21
110.276
  0
LINE
  8
0
 10
-158.446
 20
110.276
 11
-158.591
 21
110.409
  0
LINE
  8
0
 10
-158.591
 20
110.409
 11
-158.724
 21
110.554
  0
LINE
  8
0
 10
-158.724
 20
110.554
 11
-158.843
 21
110.709
  0
LINE
  8
0
 10
-158.843
 20
110.709
 11
-158.949
 21
110.875
  0
LINE
  8
0
 10
-158.949
 20
110.875
 11
-159.039
 21
111.049
  0
LINE
  8
0
 10
-159.039
 20
111.049
 11
-159.114
 21
111.23
  0
LINE
  8
0
 10
-159.114
 20
111.23
 11
-159.173
 21
111.418
  0
LINE
  8
0
 10
-159.173
 20
111.418
 11
-159.216
 21
111.609
  0
LINE
  8
0
 10
-159.216
 20
111.609
 11
-159.241
 21
111.804
  0
LINE
  8
0
 10
-159.241
 20
111.804
 11
-159.25
 21
112
  0
LINE
  8
0
 10
-159.25
 20
112
 11
-159.241
 21
112.196
  0
LINE
  8
0
 10
-159.241
 20
112.196
 11
-159.216
 21
112.391
  0
LINE
  8
0
 10
-159.216
 20
112.391
 11
-159.173
 21
112.582
  0
LINE
  8
0
 10
-159.173
 20
112.582
 11
-159.114
 21
112.77
  0
LINE
  8
0
 10
-159.114
 20
112.77
 11
-159.039
 21
112.951
  0
LINE
  8
0
 10
-159.039
 20
112.951
 11
-158.949
 21
113.125
  0
LINE
  8
0
 10
-158.949
 20
113.125
 11
-158.843
 21
113.291
  0
LINE
  8
0
 10
-158.843
 20
113.291
 11
-158.724
 21
113.446
  0
LINE
  8
0
 10
-158.724
 20
113.446
 11
-158.591
 21
113.591
  0
LINE
  8
0
 10
-158.591
 20
113.591
 11
-158.446
 21
113.724
  0
LINE
  8
0
 10
-158.446
 20
113.724
 11
-158.291
 21
113.843
  0
LINE
  8
0
 10
-158.291
 20
113.843
 11
-158.125
 21
113.949
  0
LINE
  8
0
 10
-158.125
 20
113.949
 11
-157.951
 21
114.039
  0
LINE
  8
0
 10
-157.951
 20
114.039
 11
-157.77
 21
114.114
  0
LINE
  8
0
 10
-157.77
 20
114.114
 11
-157.582
 21
114.173
  0
LINE
  8
0
 10
-157.582
 20
114.173
 11
-157.391
 21
114.216
  0
LINE
  8
0
 10
-157.391
 20
114.216
 11
-157.196
 21
114.241
  0
LINE
  8
0
 10
-157.196
 20
114.241
 11
-157
 21
114.25
  0
LINE
  8
0
 10
-157
 20
114.25
 11
-156.804
 21
114.241
  0
LINE
  8
0
 10
-156.804
 20
114.241
 11
-156.609
 21
114.216
  0
LINE
  8
0
 10
-156.609
 20
114.216
 11
-156.418
 21
114.173
  0
LINE
  8
0
 10
-156.418
 20
114.173
 11
-156.23
 21
114.114
  0
LINE
  8
0
 10
-156.23
 20
114.114
 11
-156.049
 21
114.039
  0
LINE
  8
0
 10
-156.049
 20
114.039
 11
-155.875
 21
113.949
  0
LINE
  8
0
 10
-155.875
 20
113.949
 11
-155.709
 21
113.843
  0
LINE
  8
0
 10
-155.709
 20
113.843
 11
-155.554
 21
113.724
  0
LINE
  8
0
 10
-155.554
 20
113.724
 11
-155.409
 21
113.591
  0
LINE
  8
0
 10
-155.409
 20
113.591
 11
-155.276
 21
113.446
  0
LINE
  8
0
 10
-155.276
 20
113.446
 11
-155.157
 21
113.291
  0
LINE
  8
0
 10
-155.157
 20
113.291
 11
-155.051
 21
113.125
  0
LINE
  8
0
 10
-155.051
 20
113.125
 11
-154.961
 21
112.951
  0
LINE
  8
0
 10
-154.961
 20
112.951
 11
-154.886
 21
112.77
  0
LINE
  8
0
 10
-154.886
 20
112.77
 11
-154.827
 21
112.582
  0
LINE
  8
0
 10
-154.827
 20
112.582
 11
-154.784
 21
112.391
  0
LINE
  8
0
 10
-154.784
 20
112.391
 11
-154.759
 21
112.196
  0
LINE
  8
0
 10
-154.759
 20
112.196
 11
-154.75
 21
112
  0
LINE
  8
0
 10
-154.75
 20
112
 11
-154.759
 21
111.804
  0
LINE
  8
0
 10
-154.759
 20
111.804
 11
-154.784
 21
111.609
  0
LINE
  8
0
 10
-154.784
 20
111.609
 11
-154.827
 21
111.418
  0
LINE
  8
0
 10
-154.827
 20
111.418
 11
-154.886
 21
111.23
  0
LINE
  8
0
 10
-154.886
 20
111.23
 11
-154.961
 21
111.049
  0
LINE
  8
0
 10
-154.961
 20
111.049
 11
-155.051
 21
110.875
  0
LINE
  8
0
 10
-155.051
 20
110.875
 11
-155.157
 21
110.709
  0
LINE
  8
0
 10
-155.157
 20
110.709
 11
-155.276
 21
110.554
  0
LINE
  8
0
 10
-155.276
 20
110.554
 11
-155.409
 21
110.409
  0
LINE
  8
0
 10
-155.409
 20
110.409
 11
-155.554
 21
110.276
  0
LINE
  8
0
 10
-155.554
 20
110.276
 11
-155.709
 21
110.157
  0
LINE
  8
0
 10
-155.709
 20
110.157
 11
-155.875
 21
110.051
  0
LINE
  8
0
 10
-155.875
 20
110.051
 11
-156.049
 21
109.961
  0
LINE
  8
0
 10
-156.049
 20
109.961
 11
-156.23
 21
109.886
  0
LINE
  8
0
 10
-156.23
 20
109.886
 11
-156.418
 21
109.827
  0
LINE
  8
0
 10
-156.418
 20
109.827
 11
-156.609
 21
109.784
  0
LINE
  8
0
 10
-156.609
 20
109.784
 11
-156.804
 21
109.759
  0
LINE
  8
0
 10
-156.804
 20
109.759
 11
-157
 21
109.75
  0
LINE
  8
0
 10
-157
 20
109.75
 11
-157.196
 21
109.759
  0
LINE
  8
0
 10
156.804
 20
109.759
 11
156.609
 21
109.784
  0
LINE
  8
0
 10
156.609
 20
109.784
 11
156.418
 21
109.827
  0
LINE
  8
0
 10
156.418
 20
109.827
 11
156.23
 21
109.886
  0
LINE
  8
0
 10
156.23
 20
109.886
 11
156.049
 21
109.961
  0
LINE
  8
0
 10
156.049
 20
109.961
 11
155.875
 21
110.051
  0
LINE
  8
0
 10
155.875
 20
110.051
 11
155.709
 21
110.157
  0
LINE
  8
0
 10
155.709
 20
110.157
 11
155.554
 21
110.276
  0
LINE
  8
0
 10
155.554
 20
110.276
 11
155.409
 21
110.409
  0
LINE
  8
0
 10
155.409
 20
110.409
 11
155.276
 21
110.554
  0
LINE
  8
0
 10
155.276
 20
110.554
 11
155.157
 21
110.709
  0
LINE
  8
0
 10
155.157
 20
110.709
 11
155.051
 21
110.875
  0
LINE
  8
0
 10
155.051
 20
110.875
 11
154.961
 21
111.049
  0
LINE
  8
0
 10
154.961
 20
111.049
 11
154.886
 21
111.23
  0
LINE
  8
0
 10
154.886
 20
111.23
 11
154.827
 21
111.418
  0
LINE
  8
0
 10
154.827
 20
111.418
 11
154.784
 21
111.609
  0
LINE
  8
0
 10
154.784
 20
111.609
 11
154.759
 21
111.804
  0
LINE
  8
0
 10
154.759
 20
111.804
 11
154.75
 21
112
  0
LINE
  8
0
 10
154.75
 20
112
 11
154.759
 21
112.196
  0
LINE
  8
0
 10
154.759
 20
112.196
 11
154.784
 21
112.391
  0
LINE
  8
0
 10
154.784
 20
112.391
 11
154.827
 21
112.582
  0
LINE
  8
0
 10
154.827
 20
112.582
 11
154.886
 21
112.77
  0
LINE
  8
0
 10
154.886
 20
112.77
 11
154.961
 21
112.951
  0
LINE
  8
0
 10
154.961
 20
112.951
 11
155.051
 21
113.125
  0
LINE
  8
0
 10
155.051
 20
113.125
 11
155.157
 21
113.291
  0
LINE
  8
0
 10
155.157
 20
113.291
 11
155.276
 21
113.446
  0
LINE
  8
0
 10
155.276
 20
113.446
 11
155.409
 21
113.591
  0
LINE
  8
0
 10
155.409
 20
113.591
 11
155.554
 21
113.724
  0
LINE
  8
0
 10
155.554
 20
113.724
 11
155.709
 21
113.843
  0
LINE
  8
0
 10
155.709
 20
113.843
 11
155.875
 21
113.949
  0
LINE
  8
0
 10
155.875
 20
113.949
 11
156.049
 21
114.039
  0
LINE
  8
0
 10
156.049
 20
114.039
 11
156.23
 21
114.114
  0
LINE
  8
0
 10
156.23
 20
114.114
 11
156.418
 21
114.173
  0
LINE
  8
0
 10
156.418
 20
114.173
 11
156.609
 21
114.216
  0
LINE
  8
0
 10
156.609
 20
114.216
 11
156.804
 21
114.241
  0
LINE
  8
0
 10
156.804
 20
114.241
 11
157
 21
114.25
  0
LINE
  8
0
 10
157
 20
114.25
 11
157.196
 21
114.241
  0
LINE
  8
0
 10
157.196
 20
114.241
 11
157.391
 21
114.216
  0
LINE
  8
0
 10
157.391
 20
114.216
 11
157.582
 21
114.173
  0
LINE
  8
0
 10
157.582
 20
114.173
 11
157.77
 21
114.114
  0
LINE
  8
0
 10
157.77
 20
114.114
 11
157.951
 21
114.039
  0
LINE
  8
0
 10
157.951
 20
114.039
 11
158.125
 21
113.949
  0
LINE
  8
0
 10
158.125
 20
113.949
 11
158.291
 21
113.843
  0
LINE
  8
0
 10
158.291
 20
113.843
 11
158.446
 21
113.724
  0
LINE
  8
0
 10
158.446
 20
113.724
 11
158.591
 21
113.591
  0
LINE
  8
0
 10
158.591
 20
113.591
 11
158.724
 21
113.446
  0
LINE
  8
0
 10
158.724
 20
113.446
 11
158.843
 21
113.291
  0
LINE
  8
0
 10
158.843
 20
113.291
 11
158.949
 21
113.125
  0
LINE
  8
0
 10
158.949
 20
113.125
 11
159.039
 21
112.951
  0
LINE
  8
0
 10
159.039
 20
112.951
 11
159.114
 21
112.77
  0
LINE
  8
0
 10
159.114
 20
112.77
 11
159.173
 21
112.582
  0
LINE
  8
0
 10
159.173
 20
112.582
 11
159.216
 21
112.391
  0
LINE
  8
0
 10
159.216
 20
112.391
 11
159.241
 21
112.196
  0
LINE
  8
0
 10
159.241
 20
112.196
 11
159.25
 21
112
  0
LINE
  8
0
 10
159.25
 20
112
 11
159.241
 21
111.804
  0
LINE
  8
0
 10
159.241
 20
111.804
 11
159.216
 21
111.609
  0
LINE
  8
0
 10
159.216
 20
111.609
 11
159.173
 21
111.418
  0
LINE
  8
0
 10
159.173
 20
111.418
 11
159.114
 21
111.23
  0
LINE
  8
0
 10
159.114
 20
111.23
 11
159.039
 21
111.049
  0
LINE
  8
0
 10
159.039
 20
111.049
 11
158.949
 21
110.875
  0
LINE
  8
0
 10
158.949
 20
110.875
 11
158.843
 21
110.709
  0
LINE
  8
0
 10
158.843
 20
110.709
 11
158.724
 21
110.554
  0
LINE
  8
0
 10
158.724
 20
110.554
 11
158.591
 21
110.409
  0
LINE
  8
0
 10
158.591
 20
110.409
 11
158.446
 21
110.276
  0
LINE
  8
0
 10
158.446
 20
110.276
 11
158.291
 21
110.157
  0
LINE
  8
0
 10
158.291
 20
110.157
 11
158.125
 21
110.051
  0
LINE
  8
0
 10
158.125
 20
110.051
 11
157.951
 21
109.961
  0
LINE
  8
0
 10
157.951
 20
109.961
 11
157.77
 21
109.886
  0
LINE
  8
0
 10
157.77
 20
109.886
 11
157.582
 21
109.827
  0
LINE
  8
0
 10
157.582
 20
109.827
 11
157.391
 21
109.784
  0
LINE
  8
0
 10
157.391
 20
109.784
 11
157.196
 21
109.759
  0
LINE
  8
0
 10
157.196
 20
109.759
 11
157
 21
109.75
  0
LINE
  8
0
 10
157
 20
109.75
 11
156.804
 21
109.759
  0
LINE
  8
0
 10
-0.196091
 20
109.759
 11
-0.390701
 21
109.784
  0
LINE
  8
0
 10
-0.390701
 20
109.784
 11
-0.582336
 21
109.827
  0
LINE
  8
0
 10
-0.582336
 20
109.827
 11
-0.769531
 21
109.886
  0
LINE
  8
0
 10
-0.769531
 20
109.886
 11
-0.950882
 21
109.961
  0
LINE
  8
0
 10
-0.950882
 20
109.961
 11
-1.125
 21
110.051
  0
LINE
  8
0
 10
-1.125
 20
110.051
 11
-1.29054
 21
110.157
  0
LINE
  8
0
 10
-1.29054
 20
110.157
 11
-1.44626
 21
110.276
  0
LINE
  8
0
 10
-1.44626
 20
110.276
 11
-1.59099
 21
110.409
  0
LINE
  8
0
 10
-1.59099
 20
110.409
 11
-1.72359
 21
110.554
  0
LINE
  8
0
 10
-1.72359
 20
110.554
 11
-1.84308
 21
110.709
  0
LINE
  8
0
 10
-1.84308
 20
110.709
 11
-1.94855
 21
110.875
  0
LINE
  8
0
 10
-1.94855
 20
110.875
 11
-2.03918
 21
111.049
  0
LINE
  8
0
 10
-2.03918
 20
111.049
 11
-2.1143
 21
111.23
  0
LINE
  8
0
 10
-2.1143
 20
111.23
 11
-2.17332
 21
111.418
  0
LINE
  8
0
 10
-2.17332
 20
111.418
 11
-2.21581
 21
111.609
  0
LINE
  8
0
 10
-2.21581
 20
111.609
 11
-2.24142
 21
111.804
  0
LINE
  8
0
 10
-2.24142
 20
111.804
 11
-2.25
 21
112
  0
LINE
  8
0
 10
-2.25
 20
112
 11
-2.24142
 21
112.196
  0
LINE
  8
0
 10
-2.24142
 20
112.196
 11
-2.21581
 21
112.391
  0
LINE
  8
0
 10
-2.21581
 20
112.391
 11
-2.17332
 21
112.582
  0
LINE
  8
0
 10
-2.17332
 20
112.582
 11
-2.1143
 21
112.77
  0
LINE
  8
0
 10
-2.1143
 20
112.77
 11
-2.03918
 21
112.951
  0
LINE
  8
0
 10
-2.03918
 20
112.951
 11
-1.94855
 21
113.125
  0
LINE
  8
0
 10
-1.94855
 20
113.125
 11
-1.84308
 21
113.291
  0
LINE
  8
0
 10
-1.84308
 20
113.291
 11
-1.72359
 21
113.446
  0
LINE
  8
0
 10
-1.72359
 20
113.446
 11
-1.59099
 21
113.591
  0
LINE
  8
0
 10
-1.59099
 20
113.591
 11
-1.44626
 21
113.724
  0
LINE
  8
0
 10
-1.44626
 20
113.724
 11
-1.29054
 21
113.843
  0
LINE
  8
0
 10
-1.29054
 20
113.843
 11
-1.125
 21
113.949
  0
LINE
  8
0
 10
-1.125
 20
113.949
 11
-0.950882
 21
114.039
  0
LINE
  8
0
 10
-0.950882
 20
114.039
 11
-0.769531
 21
114.114
  0
LINE
  8
0
 10
-0.769531
 20
114.114
 11
-0.582336
 21
114.173
  0
LINE
  8
0
 10
-0.582336
 20
114.173
 11
-0.390701
 21
114.216
  0
LINE
  8
0
 10
-0.390701
 20
114.216
 11
-0.196091
 21
114.241
  0
LINE
  8
0
 10
-0.196091
 20
114.241
 11
0
 21
114.25
  0
LINE
  8
0
 10
0
 20
114.25
 11
0.196091
 21
114.241
  0
LINE
  8
0
 10
0.196091
 20
114.241
 11
0.390701
 21
114.216
  0
LINE
  8
0
 10
0.390701
 20
114.216
 11
0.582336
 21
114.173
  0
LINE
  8
0
 10
0.582336
 20
114.173
 11
0.769531
 21
114.114
  0
LINE
  8
0
 10
0.769531
 20
114.114
 11
0.950882
 21
114.039
  0
LINE
  8
0
 10
0.950882
 20
114.039
 11
1.125
 21
113.949
  0
LINE
  8
0
 10
1.125
 20
113.949
 11
1.29054
 21
113.843
  0
LINE
  8
0
 10
1.29054
 20
113.843
 11
1.44626
 21
113.724
  0
LINE
  8
0
 10
1.44626
 20
113.724
 11
1.59099
 21
113.591
  0
LINE
  8
0
 10
1.59099
 20
113.591
 11
1.72359
 21
113.446
  0
LINE
  8
0
 10
1.72359
 20
113.446
 11
1.84308
 21
113.291
  0
LINE
  8
0
 10
1.84308
 20
113.291
 11
1.94855
 21
113.125
  0
LINE
  8
0
 10
1.94855
 20
113.125
 11
2.03918
 21
112.951
  0
LINE
  8
0
 10
2.03918
 20
112.951
 11
2.1143
 21
112.77
  0
LINE
  8
0
 10
2.1143
 20
112.77
 11
2.17332
 21
112.582
  0
LINE
  8
0
 10
2.17332
 20
112.582
 11
2.21581
 21
112.391
  0
LINE
  8
0
 10
2.21581
 20
112.391
 11
2.24142
 21
112.196
  0
LINE
  8
0
 10
2.24142
 20
112.196
 11
2.25
 21
112
  0
LINE
  8
0
 10
2.25
 20
112
 11
2.24142
 21
111.804
  0
LINE
  8
0
 10
2.24142
 20
111.804
 11
2.21581
 21
111.609
  0
LINE
  8
0
 10
2.21581
 20
111.609
 11
2.17332
 21
111.418
  0
LINE
  8
0
 10
2.17332
 20
111.418
 11
2.1143
 21
111.23
  0
LINE
  8
0
 10
2.1143
 20
111.23
 11
2.03918
 21
111.049
  0
LINE
  8
0
 10
2.03918
 20
111.049
 11
1.94855
 21
110.875
  0
LINE
  8
0
 10
1.94855
 20
110.875
 11
1.84308
 21
110.709
  0
LINE
  8
0
 10
1.84308
 20
110.709
 11
1.72359
 21
110.554
  0
LINE
  8
0
 10
1.72359
 20
110.554
 11
1.59099
 21
110.409
  0
LINE
  8
0
 10
1.59099
 20
110.409
 11
1.44626
 21
110.276
  0
LINE
  8
0
 10
1.44626
 20
110.276
 11
1.29054
 21
110.157
  0
LINE
  8
0
 10
1.29054
 20
110.157
 11
1.125
 21
110.051
  0
LINE
  8
0
 10
1.125
 20
110.051
 11
0.950882
 21
109.961
  0
LINE
  8
0
 10
0.950882
 20
109.961
 11
0.769531
 21
109.886
  0
LINE
  8
0
 10
0.769531
 20
109.886
 11
0.582336
 21
109.827
  0
LINE
  8
0
 10
0.582336
 20
109.827
 11
0.390701
 21
109.784
  0
LINE
  8
0
 10
0.390701
 20
109.784
 11
0.196091
 21
109.759
  0
LINE
  8
0
 10
0.196091
 20
109.759
 11
0
 21
109.75
  0
LINE
  8
0
 10
0
 20
109.75
 11
-0.196091
 21
109.759
  0
LINE
  8
0
 10
-85.1133
 20
93.7049
 11
-85.2257
 21
93.7197
  0
LINE
  8
0
 10
-85.2257
 20
93.7197
 11
-85.3365
 21
93.7443
  0
LINE
  8
0
 10
-85.3365
 20
93.7443
 11
-85.4446
 21
93.7784
  0
LINE
  8
0
 10
-85.4446
 20
93.7784
 11
-85.5494
 21
93.8218
  0
LINE
  8
0
 10
-85.5494
 20
93.8218
 11
-85.65
 21
93.8742
  0
LINE
  8
0
 10
-85.65
 20
93.8742
 11
-85.7456
 21
93.9351
  0
LINE
  8
0
 10
-85.7456
 20
93.9351
 11
-85.8356
 21
94.0041
  0
LINE
  8
0
 10
-85.8356
 20
94.0041
 11
-85.9192
 21
94.0807
  0
LINE
  8
0
 10
-85.9192
 20
94.0807
 11
-85.9958
 21
94.1644
  0
LINE
  8
0
 10
-85.9958
 20
94.1644
 11
-86.0649
 21
94.2543
  0
LINE
  8
0
 10
-86.0649
 20
94.2543
 11
-86.1258
 21
94.35
  0
LINE
  8
0
 10
-86.1258
 20
94.35
 11
-86.1782
 21
94.4506
  0
LINE
  8
0
 10
-86.1782
 20
94.4506
 11
-86.2216
 21
94.5554
  0
LINE
  8
0
 10
-86.2216
 20
94.5554
 11
-86.2557
 21
94.6635
  0
LINE
  8
0
 10
-86.2557
 20
94.6635
 11
-86.2802
 21
94.7742
  0
LINE
  8
0
 10
-86.2802
 20
94.7742
 11
-86.295
 21
94.8867
  0
LINE
  8
0
 10
-86.295
 20
94.8867
 11
-86.3
 21
95
  0
LINE
  8
0
 10
-86.3
 20
95
 11
-86.295
 21
95.1133
  0
LINE
  8
0
 10
-86.295
 20
95.1133
 11
-86.2802
 21
95.2257
  0
LINE
  8
0
 10
-86.2802
 20
95.2257
 11
-86.2557
 21
95.3365
  0
LINE
  8
0
 10
-86.2557
 20
95.3365
 11
-86.2216
 21
95.4446
  0
LINE
  8
0
 10
-86.2216
 20
95.4446
 11
-86.1782
 21
95.5494
  0
LINE
  8
0
 10
-86.1782
 20
95.5494
 11
-86.1258
 21
95.65
  0
LINE
  8
0
 10
-86.1258
 20
95.65
 11
-86.0649
 21
95.7456
  0
LINE
  8
0
 10
-86.0649
 20
95.7456
 11
-85.9958
 21
95.8356
  0
LINE
  8
0
 10
-85.9958
 20
95.8356
 11
-85.9192
 21
95.9192
  0
LINE
  8
0
 10
-85.9192
 20
95.9192
 11
-85.8356
 21
95.9958
  0
LINE
  8
0
 10
-85.8356
 20
95.9958
 11
-85.7456
 21
96.0649
  0
LINE
  8
0
 10
-85.7456
 20
96.0649
 11
-85.65
 21
96.1258
  0
LINE
  8
0
 10
-85.65
 20
96.1258
 11
-85.5494
 21
96.1782
  0
LINE
  8
0
 10
-85.5494
 20
96.1782
 11
-85.4446
 21
96.2216
  0
LINE
  8
0
 10
-85.4446
 20
96.2216
 11
-85.3365
 21
96.2557
  0
LINE
  8
0
 10
-85.3365
 20
96.2557
 11
-85.2257
 21
96.2802
  0
LINE
  8
0
 10
-85.2257
 20
96.2802
 11
-85.1133
 21
96.295
  0
LINE
  8
0
 10
-85.1133
 20
96.295
 11
-85
 21
96.3
  0
LINE
  8
0
 10
-85
 20
96.3
 11
-84.8867
 21
96.295
  0
LINE
  8
0
 10
-84.8867
 20
96.295
 11
-84.7742
 21
96.2802
  0
LINE
  8
0
 10
-84.7742
 20
96.2802
 11
-84.6635
 21
96.2557
  0
LINE
  8
0
 10
-84.6635
 20
96.2557
 11
-84.5554
 21
96.2216
  0
LINE
  8
0
 10
-84.5554
 20
96.2216
 11
-84.4506
 21
96.1782
  0
LINE
  8
0
 10
-84.4506
 20
96.1782
 11
-84.35
 21
96.1258
  0
LINE
  8
0
 10
-84.35
 20
96.1258
 11
-84.2543
 21
96.0649
  0
LINE
  8
0
 10
-84.2543
 20
96.0649
 11
-84.1644
 21
95.9958
  0
LINE
  8
0
 10
-84.1644
 20
95.9958
 11
-84.0807
 21
95.9192
  0
LINE
  8
0
 10
-84.0807
 20
95.9192
 11
-84.0041
 21
95.8356
  0
LINE
  8
0
 10
-84.0041
 20
95.8356
 11
-83.9351
 21
95.7456
  0
LINE
  8
0
 10
-83.9351
 20
95.7456
 11
-83.8742
 21
95.65
  0
LINE
  8
0
 10
-83.8742
 20
95.65
 11
-83.8218
 21
95.5494
  0
LINE
  8
0
 10
-83.8218
 20
95.5494
 11
-83.7784
 21
95.4446
  0
LINE
  8
0
 10
-83.7784
 20
95.4446
 11
-83.7443
 21
95.3365
  0
LINE
  8
0
 10
-83.7443
 20
95.3365
 11
-83.7197
 21
95.2257
  0
LINE
  8
0
 10
-83.7197
 20
95.2257
 11
-83.7049
 21
95.1133
  0
LINE
  8
0
 10
-83.7049
 20
95.1133
 11
-83.7
 21
95
  0
LINE
  8
0
 10
-83.7
 20
95
 11
-83.7049
 21
94.8867
  0
LINE
  8
0
 10
-83.7049
 20
94.8867
 11
-83.7197
 21
94.7742
  0
LINE
  8
0
 10
-83.7197
 20
94.7742
 11
-83.7443
 21
94.6635
  0
LINE
  8
0
 10
-83.7443
 20
94.6635
 11
-83.7784
 21
94.5554
  0
LINE
  8
0
 10
-83.7784
 20
94.5554
 11
-83.8218
 21
94.4506
  0
LINE
  8
0
 10
-83.8218
 20
94.4506
 11
-83.8742
 21
94.35
  0
LINE
  8
0
 10
-83.8742
 20
94.35
 11
-83.9351
 21
94.2543
  0
LINE
  8
0
 10
-83.9351
 20
94.2543
 11
-84.0041
 21
94.1644
  0
LINE
  8
0
 10
-84.0041
 20
94.1644
 11
-84.0807
 21
94.0807
  0
LINE
  8
0
 10
-84.0807
 20
94.0807
 11
-84.1644
 21
94.0041
  0
LINE
  8
0
 10
-84.1644
 20
94.0041
 11
-84.2543
 21
93.9351
  0
LINE
  8
0
 10
-84.2543
 20
93.9351
 11
-84.35
 21
93.8742
  0
LINE
  8
0
 10
-84.35
 20
93.8742
 11
-84.4506
 21
93.8218
  0
LINE
  8
0
 10
-84.4506
 20
93.8218
 11
-84.5554
 21
93.7784
  0
LINE
  8
0
 10
-84.5554
 20
93.7784
 11
-84.6635
 21
93.7443
  0
LINE
  8
0
 10
-84.6635
 20
93.7443
 11
-84.7742
 21
93.7197
  0
LINE
  8
0
 10
-84.7742
 20
93.7197
 11
-84.8867
 21
93.7049
  0
LINE
  8
0
 10
-84.8867
 20
93.7049
 11
-85
 21
93.7
  0
LINE
  8
0
 10
-85
 20
93.7
 11
-85.1133
 21
93.7049
  0
LINE
  8
0
 10
-65.1133
 20
93.7049
 11
-65.2257
 21
93.7197
  0
LINE
  8
0
 10
-65.2257
 20
93.7197
 11
-65.3365
 21
93.7443
  0
LINE
  8
0
 10
-65.3365
 20
93.7443
 11
-65.4446
 21
93.7784
  0
LINE
  8
0
 10
-65.4446
 20
93.7784
 11
-65.5494
 21
93.8218
  0
LINE
  8
0
 10
-65.5494
 20
93.8218
 11
-65.65
 21
93.8742
  0
LINE
  8
0
 10
-65.65
 20
93.8742
 11
-65.7456
 21
93.9351
  0
LINE
  8
0
 10
-65.7456
 20
93.9351
 11
-65.8356
 21
94.0041
  0
LINE
  8
0
 10
-65.8356
 20
94.0041
 11
-65.9192
 21
94.0807
  0
LINE
  8
0
 10
-65.9192
 20
94.0807
 11
-65.9958
 21
94.1644
  0
LINE
  8
0
 10
-65.9958
 20
94.1644
 11
-66.0649
 21
94.2543
  0
LINE
  8
0
 10
-66.0649
 20
94.2543
 11
-66.1258
 21
94.35
  0
LINE
  8
0
 10
-66.1258
 20
94.35
 11
-66.1782
 21
94.4506
  0
LINE
  8
0
 10
-66.1782
 20
94.4506
 11
-66.2216
 21
94.5554
  0
LINE
  8
0
 10
-66.2216
 20
94.5554
 11
-66.2557
 21
94.6635
  0
LINE
  8
0
 10
-66.2557
 20
94.6635
 11
-66.2802
 21
94.7742
  0
LINE
  8
0
 10
-66.2802
 20
94.7742
 11
-66.295
 21
94.8867
  0
LINE
  8
0
 10
-66.295
 20
94.8867
 11
-66.3
 21
95
  0
LINE
  8
0
 10
-66.3
 20
95
 11
-66.295
 21
95.1133
  0
LINE
  8
0
 10
-66.295
 20
95.1133
 11
-66.2802
 21
95.2257
  0
LINE
  8
0
 10
-66.2802
 20
95.2257
 11
-66.2557
 21
95.3365
  0
LINE
  8
0
 10
-66.2557
 20
95.3365
 11
-66.2216
 21
95.4446
  0
LINE
  8
0
 10
-66.2216
 20
95.4446
 11
-66.1782
 21
95.5494
  0
LINE
  8
0
 10
-66.1782
 20
95.5494
 11
-66.1258
 21
95.65
  0
LINE
  8
0
 10
-66.1258
 20
95.65
 11
-66.0649
 21
95.7456
  0
LINE
  8
0
 10
-66.0649
 20
95.7456
 11
-65.9958
 21
95.8356
  0
LINE
  8
0
 10
-65.9958
 20
95.8356
 11
-65.9192
 21
95.9192
  0
LINE
  8
0
 10
-65.9192
 20
95.9192
 11
-65.8356
 21
95.9958
  0
LINE
  8
0
 10
-65.8356
 20
95.9958
 11
-65.7456
 21
96.0649
  0
LINE
  8
0
 10
-65.7456
 20
96.0649
 11
-65.65
 21
96.1258
  0
LINE
  8
0
 10
-65.65
 20
96.1258
 11
-65.5494
 21
96.1782
  0
LINE
  8
0
 10
-65.5494
 20
96.1782
 11
-65.4446
 21
96.2216
  0
LINE
  8
0
 10
-65.4446
 20
96.2216
 11
-65.3365
 21
96.2557
  0
LINE
  8
0
 10
-65.3365
 20
96.2557
 11
-65.2257
 21
96.2802
  0
LINE
  8
0
 10
-65.2257
 20
96.2802
 11
-65.1133
 21
96.295
  0
LINE
  8
0
 10
-65.1133
 20
96.295
 11
-65
 21
96.3
  0
LINE
  8
0
 10
-65
 20
96.3
 11
-64.8867
 21
96.295
  0
LINE
  8
0
 10
-64.8867
 20
96.295
 11
-64.7742
 21
96.2802
  0
LINE
  8
0
 10
-64.7742
 20
96.2802
 11
-64.6635
 21
96.2557
  0
LINE
  8
0
 10
-64.6635
 20
96.2557
 11
-64.5554
 21
96.2216
  0
LINE
  8
0
 10
-64.5554
 20
96.2216
 11
-64.4506
 21
96.1782
  0
LINE
  8
0
 10
-64.4506
 20
96.1782
 11
-64.35
 21
96.1258
  0
LINE
  8
0
 10
-64.35
 20
96.1258
 11
-64.2543
 21
96.0649
  0
LINE
  8
0
 10
-64.2543
 20
96.0649
 11
-64.1644
 21
95.9958
  0
LINE
  8
0
 10
-64.1644
 20
95.9958
 11
-64.0807
 21
95.9192
  0
LINE
  8
0
 10
-64.0807
 20
95.9192
 11
-64.0041
 21
95.8356
  0
LINE
  8
0
 10
-64.0041
 20
95.8356
 11
-63.9351
 21
95.7456
  0
LINE
  8
0
 10
-63.9351
 20
95.7456
 11
-63.8742
 21
95.65
  0
LINE
  8
0
 10
-63.8742
 20
95.65
 11
-63.8218
 21
95.5494
  0
LINE
  8
0
 10
-63.8218
 20
95.5494
 11
-63.7784
 21
95.4446
  0
LINE
  8
0
 10
-63.7784
 20
95.4446
 11
-63.7443
 21
95.3365
  0
LINE
  8
0
 10
-63.7443
 20
95.3365
 11
-63.7197
 21
95.2257
  0
LINE
  8
0
 10
-63.7197
 20
95.2257
 11
-63.7049
 21
95.1133
  0
LINE
  8
0
 10
-63.7049
 20
95.1133
 11
-63.7
 21
95
  0
LINE
  8
0
 10
-63.7
 20
95
 11
-63.7049
 21
94.8867
  0
LINE
  8
0
 10
-63.7049
 20
94.8867
 11
-63.7197
 21
94.7742
  0
LINE
  8
0
 10
-63.7197
 20
94.7742
 11
-63.7443
 21
94.6635
  0
LINE
  8
0
 10
-63.7443
 20
94.6635
 11
-63.7784
 21
94.5554
  0
LINE
  8
0
 10
-63.7784
 20
94.5554
 11
-63.8218
 21
94.4506
  0
LINE
  8
0
 10
-63.8218
 20
94.4506
 11
-63.8742
 21
94.35
  0
LINE
  8
0
 10
-63.8742
 20
94.35
 11
-63.9351
 21
94.2543
  0
LINE
  8
0
 10
-63.9351
 20
94.2543
 11
-64.0041
 21
94.1644
  0
LINE
  8
0
 10
-64.0041
 20
94.1644
 11
-64.0807
 21
94.0807
  0
LINE
  8
0
 10
-64.0807
 20
94.0807
 11
-64.1644
 21
94.0041
  0
LINE
  8
0
 10
-64.1644
 20
94.0041
 11
-64.2543
 21
93.9351
  0
LINE
  8
0
 10
-64.2543
 20
93.9351
 11
-64.35
 21
93.8742
  0
LINE
  8
0
 10
-64.35
 20
93.8742
 11
-64.4506
 21
93.8218
  0
LINE
  8
0
 10
-64.4506
 20
93.8218
 11
-64.5554
 21
93.7784
  0
LINE
  8
0
 10
-64.5554
 20
93.7784
 11
-64.6635
 21
93.7443
  0
LINE
  8
0
 10
-64.6635
 20
93.7443
 11
-64.7742
 21
93.7197
  0
LINE
  8
0
 10
-64.7742
 20
93.7197
 11
-64.8867
 21
93.7049
  0
LINE
  8
0
 10
-64.8867
 20
93.7049
 11
-65
 21
93.7
  0
LINE
  8
0
 10
-65
 20
93.7
 11
-65.1133
 21
93.7049
  0
LINE
  8
0
 10
73.8518
 20
82.3065
 11
73.7048
 21
82.3258
  0
LINE
  8
0
 10
73.7048
 20
82.3258
 11
73.56
 21
82.3579
  0
LINE
  8
0
 10
73.56
 20
82.3579
 11
73.4186
 21
82.4025
  0
LINE
  8
0
 10
73.4186
 20
82.4025
 11
73.2815
 21
82.4593
  0
LINE
  8
0
 10
73.2815
 20
82.4593
 11
73.15
 21
82.5278
  0
LINE
  8
0
 10
73.15
 20
82.5278
 11
73.0249
 21
82.6074
  0
LINE
  8
0
 10
73.0249
 20
82.6074
 11
72.9073
 21
82.6977
  0
LINE
  8
0
 10
72.9073
 20
82.6977
 11
72.7979
 21
82.7979
  0
LINE
  8
0
 10
72.7979
 20
82.7979
 11
72.6977
 21
82.9073
  0
LINE
  8
0
 10
72.6977
 20
82.9073
 11
72.6074
 21
83.0249
  0
LINE
  8
0
 10
72.6074
 20
83.0249
 11
72.5278
 21
83.15
  0
LINE
  8
0
 10
72.5278
 20
83.15
 11
72.4593
 21
83.2815
  0
LINE
  8
0
 10
72.4593
 20
83.2815
 11
72.4025
 21
83.4186
  0
LINE
  8
0
 10
72.4025
 20
83.4186
 11
72.3579
 21
83.56
  0
LINE
  8
0
 10
72.3579
 20
83.56
 11
72.3258
 21
83.7048
  0
LINE
  8
0
 10
72.3258
 20
83.7048
 11
72.3065
 21
83.8518
  0
LINE
  8
0
 10
72.3065
 20
83.8518
 11
72.3
 21
84
  0
LINE
  8
0
 10
72.3
 20
84
 11
72.3065
 21
84.1482
  0
LINE
  8
0
 10
72.3065
 20
84.1482
 11
72.3258
 21
84.2952
  0
LINE
  8
0
 10
72.3258
 20
84.2952
 11
72.3579
 21
84.44
  0
LINE
  8
0
 10
72.3579
 20
84.44
 11
72.4025
 21
84.5814
  0
LINE
  8
0
 10
72.4025
 20
84.5814
 11
72.4593
 21
84.7184
  0
LINE
  8
0
 10
72.4593
 20
84.7184
 11
72.5278
 21
84.85
  0
LINE
  8
0
 10
72.5278
 20
84.85
 11
72.6074
 21
84.9751
  0
LINE
  8
0
 10
72.6074
 20
84.9751
 11
72.6977
 21
85.0927
  0
LINE
  8
0
 10
72.6977
 20
85.0927
 11
72.7979
 21
85.2021
  0
LINE
  8
0
 10
72.7979
 20
85.2021
 11
72.9073
 21
85.3023
  0
LINE
  8
0
 10
72.9073
 20
85.3023
 11
73.0249
 21
85.3925
  0
LINE
  8
0
 10
73.0249
 20
85.3925
 11
73.15
 21
85.4722
  0
LINE
  8
0
 10
73.15
 20
85.4722
 11
73.2815
 21
85.5407
  0
LINE
  8
0
 10
73.2815
 20
85.5407
 11
73.4186
 21
85.5975
  0
LINE
  8
0
 10
73.4186
 20
85.5975
 11
73.56
 21
85.6421
  0
LINE
  8
0
 10
73.56
 20
85.6421
 11
73.7048
 21
85.6742
  0
LINE
  8
0
 10
73.7048
 20
85.6742
 11
73.8518
 21
85.6935
  0
LINE
  8
0
 10
73.8518
 20
85.6935
 11
74
 21
85.7
  0
LINE
  8
0
 10
74
 20
85.7
 11
74.1482
 21
85.6935
  0
LINE
  8
0
 10
74.1482
 20
85.6935
 11
74.2952
 21
85.6742
  0
LINE
  8
0
 10
74.2952
 20
85.6742
 11
74.44
 21
85.6421
  0
LINE
  8
0
 10
74.44
 20
85.6421
 11
74.5814
 21
85.5975
  0
LINE
  8
0
 10
74.5814
 20
85.5975
 11
74.7184
 21
85.5407
  0
LINE
  8
0
 10
74.7184
 20
85.5407
 11
74.85
 21
85.4722
  0
LINE
  8
0
 10
74.85
 20
85.4722
 11
74.9751
 21
85.3925
  0
LINE
  8
0
 10
74.9751
 20
85.3925
 11
75.0927
 21
85.3023
  0
LINE
  8
0
 10
75.0927
 20
85.3023
 11
75.2021
 21
85.2021
  0
LINE
  8
0
 10
75.2021
 20
85.2021
 11
75.3023
 21
85.0927
  0
LINE
  8
0
 10
75.3023
 20
85.0927
 11
75.3925
 21
84.9751
  0
LINE
  8
0
 10
75.3925
 20
84.9751
 11
75.4722
 21
84.85
  0
LINE
  8
0
 10
75.4722
 20
84.85
 11
75.5407
 21
84.7184
  0
LINE
  8
0
 10
75.5407
 20
84.7184
 11
75.5975
 21
84.5814
  0
LINE
  8
0
 10
75.5975
 20
84.5814
 11
75.6421
 21
84.44
  0
LINE
  8
0
 10
75.6421
 20
84.44
 11
75.6742
 21
84.2952
  0
LINE
  8
0
 10
75.6742
 20
84.2952
 11
75.6935
 21
84.1482
  0
LINE
  8
0
 10
75.6935
 20
84.1482
 11
75.7
 21
84
  0
LINE
  8
0
 10
75.7
 20
84
 11
75.6935
 21
83.8518
  0
LINE
  8
0
 10
75.6935
 20
83.8518
 11
75.6742
 21
83.7048
  0
LINE
  8
0
 10
75.6742
 20
83.7048
 11
75.6421
 21
83.56
  0
LINE
  8
0
 10
75.6421
 20
83.56
 11
75.5975
 21
83.4186
  0
LINE
  8
0
 10
75.5975
 20
83.4186
 11
75.5407
 21
83.2815
  0
LINE
  8
0
 10
75.5407
 20
83.2815
 11
75.4722
 21
83.15
  0
LINE
  8
0
 10
75.4722
 20
83.15
 11
75.3925
 21
83.0249
  0
LINE
  8
0
 10
75.3925
 20
83.0249
 11
75.3023
 21
82.9073
  0
LINE
  8
0
 10
75.3023
 20
82.9073
 11
75.2021
 21
82.7979
  0
LINE
  8
0
 10
75.2021
 20
82.7979
 11
75.0927
 21
82.6977
  0
LINE
  8
0
 10
75.0927
 20
82.6977
 11
74.9751
 21
82.6074
  0
LINE
  8
0
 10
74.9751
 20
82.6074
 11
74.85
 21
82.5278
  0
LINE
  8
0
 10
74.85
 20
82.5278
 11
74.7184
 21
82.4593
  0
LINE
  8
0
 10
74.7184
 20
82.4593
 11
74.5814
 21
82.4025
  0
LINE
  8
0
 10
74.5814
 20
82.4025
 11
74.44
 21
82.3579
  0
LINE
  8
0
 10
74.44
 20
82.3579
 11
74.2952
 21
82.3258
  0
LINE
  8
0
 10
74.2952
 20
82.3258
 11
74.1482
 21
82.3065
  0
LINE
  8
0
 10
74.1482
 20
82.3065
 11
74
 21
82.3
  0
LINE
  8
0
 10
74
 20
82.3
 11
73.8518
 21
82.3065
  0
LINE
  8
0
 10
45.8518
 20
82.3065
 11
45.7048
 21
82.3258
  0
LINE
  8
0
 10
45.7048
 20
82.3258
 11
45.56
 21
82.3579
  0
LINE
  8
0
 10
45.56
 20
82.3579
 11
45.4186
 21
82.4025
  0
LINE
  8
0
 10
45.4186
 20
82.4025
 11
45.2816
 21
82.4593
  0
LINE
  8
0
 10
45.2816
 20
82.4593
 11
45.15
 21
82.5278
  0
LINE
  8
0
 10
45.15
 20
82.5278
 11
45.0249
 21
82.6074
  0
LINE
  8
0
 10
45.0249
 20
82.6074
 11
44.9073
 21
82.6977
  0
LINE
  8
0
 10
44.9073
 20
82.6977
 11
44.7979
 21
82.7979
  0
LINE
  8
0
 10
44.7979
 20
82.7979
 11
44.6977
 21
82.9073
  0
LINE
  8
0
 10
44.6977
 20
82.9073
 11
44.6075
 21
83.0249
  0
LINE
  8
0
 10
44.6075
 20
83.0249
 11
44.5278
 21
83.15
  0
LINE
  8
0
 10
44.5278
 20
83.15
 11
44.4593
 21
83.2815
  0
LINE
  8
0
 10
44.4593
 20
83.2815
 11
44.4025
 21
83.4186
  0
LINE
  8
0
 10
44.4025
 20
83.4186
 11
44.3579
 21
83.56
  0
LINE
  8
0
 10
44.3579
 20
83.56
 11
44.3258
 21
83.7048
  0
LINE
  8
0
 10
44.3258
 20
83.7048
 11
44.3065
 21
83.8518
  0
LINE
  8
0
 10
44.3065
 20
83.8518
 11
44.3
 21
84
  0
LINE
  8
0
 10
44.3
 20
84
 11
44.3065
 21
84.1482
  0
LINE
  8
0
 10
44.3065
 20
84.1482
 11
44.3258
 21
84.2952
  0
LINE
  8
0
 10
44.3258
 20
84.2952
 11
44.3579
 21
84.44
  0
LINE
  8
0
 10
44.3579
 20
84.44
 11
44.4025
 21
84.5814
  0
LINE
  8
0
 10
44.4025
 20
84.5814
 11
44.4593
 21
84.7184
  0
LINE
  8
0
 10
44.4593
 20
84.7184
 11
44.5278
 21
84.85
  0
LINE
  8
0
 10
44.5278
 20
84.85
 11
44.6075
 21
84.9751
  0
LINE
  8
0
 10
44.6075
 20
84.9751
 11
44.6977
 21
85.0927
  0
LINE
  8
0
 10
44.6977
 20
85.0927
 11
44.7979
 21
85.2021
  0
LINE
  8
0
 10
44.7979
 20
85.2021
 11
44.9073
 21
85.3023
  0
LINE
  8
0
 10
44.9073
 20
85.3023
 11
45.0249
 21
85.3925
  0
LINE
  8
0
 10
45.0249
 20
85.3925
 11
45.15
 21
85.4722
  0
LINE
  8
0
 10
45.15
 20
85.4722
 11
45.2816
 21
85.5407
  0
LINE
  8
0
 10
45.2816
 20
85.5407
 11
45.4186
 21
85.5975
  0
LINE
  8
0
 10
45.4186
 20
85.5975
 11
45.56
 21
85.6421
  0
LINE
  8
0
 10
45.56
 20
85.6421
 11
45.7048
 21
85.6742
  0
LINE
  8
0
 10
45.7048
 20
85.6742
 11
45.8518
 21
85.6935
  0
LINE
  8
0
 10
45.8518
 20
85.6935
 11
46
 21
85.7
  0
LINE
  8
0
 10
46
 20
85.7
 11
46.1482
 21
85.6935
  0
LINE
  8
0
 10
46.1482
 20
85.6935
 11
46.2952
 21
85.6742
  0
LINE
  8
0
 10
46.2952
 20
85.6742
 11
46.44
 21
85.6421
  0
LINE
  8
0
 10
46.44
 20
85.6421
 11
46.5814
 21
85.5975
  0
LINE
  8
0
 10
46.5814
 20
85.5975
 11
46.7185
 21
85.5407
  0
LINE
  8
0
 10
46.7185
 20
85.5407
 11
46.85
 21
85.4722
  0
LINE
  8
0
 10
46.85
 20
85.4722
 11
46.9751
 21
85.3925
  0
LINE
  8
0
 10
46.9751
 20
85.3925
 11
47.0927
 21
85.3023
  0
LINE
  8
0
 10
47.0927
 20
85.3023
 11
47.2021
 21
85.2021
  0
LINE
  8
0
 10
47.2021
 20
85.2021
 11
47.3023
 21
85.0927
  0
LINE
  8
0
 10
47.3023
 20
85.0927
 11
47.3926
 21
84.9751
  0
LINE
  8
0
 10
47.3926
 20
84.9751
 11
47.4722
 21
84.85
  0
LINE
  8
0
 10
47.4722
 20
84.85
 11
47.5407
 21
84.7184
  0
LINE
  8
0
 10
47.5407
 20
84.7184
 11
47.5975
 21
84.5814
  0
LINE
  8
0
 10
47.5975
 20
84.5814
 11
47.6421
 21
84.44
  0
LINE
  8
0
 10
47.6421
 20
84.44
 11
47.6742
 21
84.2952
  0
LINE
  8
0
 10
47.6742
 20
84.2952
 11
47.6935
 21
84.1482
  0
LINE
  8
0
 10
47.6935
 20
84.1482
 11
47.7
 21
84
  0
LINE
  8
0
 10
47.7
 20
84
 11
47.6935
 21
83.8518
  0
LINE
  8
0
 10
47.6935
 20
83.8518
 11
47.6742
 21
83.7048
  0
LINE
  8
0
 10
47.6742
 20
83.7048
 11
47.6421
 21
83.56
  0
LINE
  8
0
 10
47.6421
 20
83.56
 11
47.5975
 21
83.4186
  0
LINE
  8
0
 10
47.5975
 20
83.4186
 11
47.5407
 21
83.2815
  0
LINE
  8
0
 10
47.5407
 20
83.2815
 11
47.4722
 21
83.15
  0
LINE
  8
0
 10
47.4722
 20
83.15
 11
47.3926
 21
83.0249
  0
LINE
  8
0
 10
47.3926
 20
83.0249
 11
47.3023
 21
82.9073
  0
LINE
  8
0
 10
47.3023
 20
82.9073
 11
47.2021
 21
82.7979
  0
LINE
  8
0
 10
47.2021
 20
82.7979
 11
47.0927
 21
82.6977
  0
LINE
  8
0
 10
47.0927
 20
82.6977
 11
46.9751
 21
82.6074
  0
LINE
  8
0
 10
46.9751
 20
82.6074
 11
46.85
 21
82.5278
  0
LINE
  8
0
 10
46.85
 20
82.5278
 11
46.7185
 21
82.4593
  0
LINE
  8
0
 10
46.7185
 20
82.4593
 11
46.5814
 21
82.4025
  0
LINE
  8
0
 10
46.5814
 20
82.4025
 11
46.44
 21
82.3579
  0
LINE
  8
0
 10
46.44
 20
82.3579
 11
46.2952
 21
82.3258
  0
LINE
  8
0
 10
46.2952
 20
82.3258
 11
46.1482
 21
82.3065
  0
LINE
  8
0
 10
46.1482
 20
82.3065
 11
46
 21
82.3
  0
LINE
  8
0
 10
46
 20
82.3
 11
45.8518
 21
82.3065
  0
LINE
  8
0
 10
13.8518
 20
82.3065
 11
13.7048
 21
82.3258
  0
LINE
  8
0
 10
13.7048
 20
82.3258
 11
13.56
 21
82.3579
  0
LINE
  8
0
 10
13.56
 20
82.3579
 11
13.4186
 21
82.4025
  0
LINE
  8
0
 10
13.4186
 20
82.4025
 11
13.2815
 21
82.4593
  0
LINE
  8
0
 10
13.2815
 20
82.4593
 11
13.15
 21
82.5278
  0
LINE
  8
0
 10
13.15
 20
82.5278
 11
13.0249
 21
82.6074
  0
LINE
  8
0
 10
13.0249
 20
82.6074
 11
12.9073
 21
82.6977
  0
LINE
  8
0
 10
12.9073
 20
82.6977
 11
12.7979
 21
82.7979
  0
LINE
  8
0
 10
12.7979
 20
82.7979
 11
12.6977
 21
82.9073
  0
LINE
  8
0
 10
12.6977
 20
82.9073
 11
12.6074
 21
83.0249
  0
LINE
  8
0
 10
12.6074
 20
83.0249
 11
12.5278
 21
83.15
  0
LINE
  8
0
 10
12.5278
 20
83.15
 11
12.4593
 21
83.2815
  0
LINE
  8
0
 10
12.4593
 20
83.2815
 11
12.4025
 21
83.4186
  0
LINE
  8
0
 10
12.4025
 20
83.4186
 11
12.3579
 21
83.56
  0
LINE
  8
0
 10
12.3579
 20
83.56
 11
12.3258
 21
83.7048
  0
LINE
  8
0
 10
12.3258
 20
83.7048
 11
12.3065
 21
83.8518
  0
LINE
  8
0
 10
12.3065
 20
83.8518
 11
12.3
 21
84
  0
LINE
  8
0
 10
12.3
 20
84
 11
12.3065
 21
84.1482
  0
LINE
  8
0
 10
12.3065
 20
84.1482
 11
12.3258
 21
84.2952
  0
LINE
  8
0
 10
12.3258
 20
84.2952
 11
12.3579
 21
84.44
  0
LINE
  8
0
 10
12.3579
 20
84.44
 11
12.4025
 21
84.5814
  0
LINE
  8
0
 10
12.4025
 20
84.5814
 11
12.4593
 21
84.7184
  0
LINE
  8
0
 10
12.4593
 20
84.7184
 11
12.5278
 21
84.85
  0
LINE
  8
0
 10
12.5278
 20
84.85
 11
12.6074
 21
84.9751
  0
LINE
  8
0
 10
12.6074
 20
84.9751
 11
12.6977
 21
85.0927
  0
LINE
  8
0
 10
12.6977
 20
85.0927
 11
12.7979
 21
85.2021
  0
LINE
  8
0
 10
12.7979
 20
85.2021
 11
12.9073
 21
85.3023
  0
LINE
  8
0
 10
12.9073
 20
85.3023
 11
13.0249
 21
85.3925
  0
LINE
  8
0
 10
13.0249
 20
85.3925
 11
13.15
 21
85.4722
  0
LINE
  8
0
 10
13.15
 20
85.4722
 11
13.2815
 21
85.5407
  0
LINE
  8
0
 10
13.2815
 20
85.5407
 11
13.4186
 21
85.5975
  0
LINE
  8
0
 10
13.4186
 20
85.5975
 11
13.56
 21
85.6421
  0
LINE
  8
0
 10
13.56
 20
85.6421
 11
13.7048
 21
85.6742
  0
LINE
  8
0
 10
13.7048
 20
85.6742
 11
13.8518
 21
85.6935
  0
LINE
  8
0
 10
13.8518
 20
85.6935
 11
14
 21
85.7
  0
LINE
  8
0
 10
14
 20
85.7
 11
14.1482
 21
85.6935
  0
LINE
  8
0
 10
14.1482
 20
85.6935
 11
14.2952
 21
85.6742
  0
LINE
  8
0
 10
14.2952
 20
85.6742
 11
14.44
 21
85.6421
  0
LINE
  8
0
 10
14.44
 20
85.6421
 11
14.5814
 21
85.5975
  0
LINE
  8
0
 10
14.5814
 20
85.5975
 11
14.7184
 21
85.5407
  0
LINE
  8
0
 10
14.7184
 20
85.5407
 11
14.85
 21
85.4722
  0
LINE
  8
0
 10
14.85
 20
85.4722
 11
14.9751
 21
85.3925
  0
LINE
  8
0
 10
14.9751
 20
85.3925
 11
15.0927
 21
85.3023
  0
LINE
  8
0
 10
15.0927
 20
85.3023
 11
15.2021
 21
85.2021
  0
LINE
  8
0
 10
15.2021
 20
85.2021
 11
15.3023
 21
85.0927
  0
LINE
  8
0
 10
15.3023
 20
85.0927
 11
15.3925
 21
84.9751
  0
LINE
  8
0
 10
15.3925
 20
84.9751
 11
15.4722
 21
84.85
  0
LINE
  8
0
 10
15.4722
 20
84.85
 11
15.5407
 21
84.7184
  0
LINE
  8
0
 10
15.5407
 20
84.7184
 11
15.5975
 21
84.5814
  0
LINE
  8
0
 10
15.5975
 20
84.5814
 11
15.6421
 21
84.44
  0
LINE
  8
0
 10
15.6421
 20
84.44
 11
15.6742
 21
84.2952
  0
LINE
  8
0
 10
15.6742
 20
84.2952
 11
15.6935
 21
84.1482
  0
LINE
  8
0
 10
15.6935
 20
84.1482
 11
15.7
 21
84
  0
LINE
  8
0
 10
15.7
 20
84
 11
15.6935
 21
83.8518
  0
LINE
  8
0
 10
15.6935
 20
83.8518
 11
15.6742
 21
83.7048
  0
LINE
  8
0
 10
15.6742
 20
83.7048
 11
15.6421
 21
83.56
  0
LINE
  8
0
 10
15.6421
 20
83.56
 11
15.5975
 21
83.4186
  0
LINE
  8
0
 10
15.5975
 20
83.4186
 11
15.5407
 21
83.2815
  0
LINE
  8
0
 10
15.5407
 20
83.2815
 11
15.4722
 21
83.15
  0
LINE
  8
0
 10
15.4722
 20
83.15
 11
15.3925
 21
83.0249
  0
LINE
  8
0
 10
15.3925
 20
83.0249
 11
15.3023
 21
82.9073
  0
LINE
  8
0
 10
15.3023
 20
82.9073
 11
15.2021
 21
82.7979
  0
LINE
  8
0
 10
15.2021
 20
82.7979
 11
15.0927
 21
82.6977
  0
LINE
  8
0
 10
15.0927
 20
82.6977
 11
14.9751
 21
82.6074
  0
LINE
  8
0
 10
14.9751
 20
82.6074
 11
14.85
 21
82.5278
  0
LINE
  8
0
 10
14.85
 20
82.5278
 11
14.7184
 21
82.4593
  0
LINE
  8
0
 10
14.7184
 20
82.4593
 11
14.5814
 21
82.4025
  0
LINE
  8
0
 10
14.5814
 20
82.4025
 11
14.44
 21
82.3579
  0
LINE
  8
0
 10
14.44
 20
82.3579
 11
14.2952
 21
82.3258
  0
LINE
  8
0
 10
14.2952
 20
82.3258
 11
14.1482
 21
82.3065
  0
LINE
  8
0
 10
14.1482
 20
82.3065
 11
14
 21
82.3
  0
LINE
  8
0
 10
14
 20
82.3
 11
13.8518
 21
82.3065
  0
LINE
  8
0
 10
-14.1482
 20
82.3065
 11
-14.2952
 21
82.3258
  0
LINE
  8
0
 10
-14.2952
 20
82.3258
 11
-14.44
 21
82.3579
  0
LINE
  8
0
 10
-14.44
 20
82.3579
 11
-14.5814
 21
82.4025
  0
LINE
  8
0
 10
-14.5814
 20
82.4025
 11
-14.7184
 21
82.4593
  0
LINE
  8
0
 10
-14.7184
 20
82.4593
 11
-14.85
 21
82.5278
  0
LINE
  8
0
 10
-14.85
 20
82.5278
 11
-14.9751
 21
82.6074
  0
LINE
  8
0
 10
-14.9751
 20
82.6074
 11
-15.0927
 21
82.6977
  0
LINE
  8
0
 10
-15.0927
 20
82.6977
 11
-15.2021
 21
82.7979
  0
LINE
  8
0
 10
-15.2021
 20
82.7979
 11
-15.3023
 21
82.9073
  0
LINE
  8
0
 10
-15.3023
 20
82.9073
 11
-15.3925
 21
83.0249
  0
LINE
  8
0
 10
-15.3925
 20
83.0249
 11
-15.4722
 21
83.15
  0
LINE
  8
0
 10
-15.4722
 20
83.15
 11
-15.5407
 21
83.2815
  0
LINE
  8
0
 10
-15.5407
 20
83.2815
 11
-15.5975
 21
83.4186
  0
LINE
  8
0
 10
-15.5975
 20
83.4186
 11
-15.6421
 21
83.56
  0
LINE
  8
0
 10
-15.6421
 20
83.56
 11
-15.6742
 21
83.7048
  0
LINE
  8
0
 10
-15.6742
 20
83.7048
 11
-15.6935
 21
83.8518
  0
LINE
  8
0
 10
-15.6935
 20
83.8518
 11
-15.7
 21
84
  0
LINE
  8
0
 10
-15.7
 20
84
 11
-15.6935
 21
84.1482
  0
LINE
  8
0
 10
-15.6935
 20
84.1482
 11
-15.6742
 21
84.2952
  0
LINE
  8
0
 10
-15.6742
 20
84.2952
 11
-15.6421
 21
84.44
  0
LINE
  8
0
 10
-15.6421
 20
84.44
 11
-15.5975
 21
84.5814
  0
LINE
  8
0
 10
-15.5975
 20
84.5814
 11
-15.5407
 21
84.7184
  0
LINE
  8
0
 10
-15.5407
 20
84.7184
 11
-15.4722
 21
84.85
  0
LINE
  8
0
 10
-15.4722
 20
84.85
 11
-15.3925
 21
84.9751
  0
LINE
  8
0
 10
-15.3925
 20
84.9751
 11
-15.3023
 21
85.0927
  0
LINE
  8
0
 10
-15.3023
 20
85.0927
 11
-15.2021
 21
85.2021
  0
LINE
  8
0
 10
-15.2021
 20
85.2021
 11
-15.0927
 21
85.3023
  0
LINE
  8
0
 10
-15.0927
 20
85.3023
 11
-14.9751
 21
85.3925
  0
LINE
  8
0
 10
-14.9751
 20
85.3925
 11
-14.85
 21
85.4722
  0
LINE
  8
0
 10
-14.85
 20
85.4722
 11
-14.7184
 21
85.5407
  0
LINE
  8
0
 10
-14.7184
 20
85.5407
 11
-14.5814
 21
85.5975
  0
LINE
  8
0
 10
-14.5814
 20
85.5975
 11
-14.44
 21
85.6421
  0
LINE
  8
0
 10
-14.44
 20
85.6421
 11
-14.2952
 21
85.6742
  0
LINE
  8
0
 10
-14.2952
 20
85.6742
 11
-14.1482
 21
85.6935
  0
LINE
  8
0
 10
-14.1482
 20
85.6935
 11
-14
 21
85.7
  0
LINE
  8
0
 10
-14
 20
85.7
 11
-13.8518
 21
85.6935
  0
LINE
  8
0
 10
-13.8518
 20
85.6935
 11
-13.7048
 21
85.6742
  0
LINE
  8
0
 10
-13.7048
 20
85.6742
 11
-13.56
 21
85.6421
  0
LINE
  8
0
 10
-13.56
 20
85.6421
 11
-13.4186
 21
85.5975
  0
LINE
  8
0
 10
-13.4186
 20
85.5975
 11
-13.2815
 21
85.5407
  0
LINE
  8
0
 10
-13.2815
 20
85.5407
 11
-13.15
 21
85.4722
  0
LINE
  8
0
 10
-13.15
 20
85.4722
 11
-13.0249
 21
85.3925
  0
LINE
  8
0
 10
-13.0249
 20
85.3925
 11
-12.9073
 21
85.3023
  0
LINE
  8
0
 10
-12.9073
 20
85.3023
 11
-12.7979
 21
85.2021
  0
LINE
  8
0
 10
-12.7979
 20
85.2021
 11
-12.6977
 21
85.0927
  0
LINE
  8
0
 10
-12.6977
 20
85.0927
 11
-12.6074
 21
84.9751
  0
LINE
  8
0
 10
-12.6074
 20
84.9751
 11
-12.5278
 21
84.85
  0
LINE
  8
0
 10
-12.5278
 20
84.85
 11
-12.4593
 21
84.7184
  0
LINE
  8
0
 10
-12.4593
 20
84.7184
 11
-12.4025
 21
84.5814
  0
LINE
  8
0
 10
-12.4025
 20
84.5814
 11
-12.3579
 21
84.44
  0
LINE
  8
0
 10
-12.3579
 20
84.44
 11
-12.3258
 21
84.2952
  0
LINE
  8
0
 10
-12.3258
 20
84.2952
 11
-12.3065
 21
84.1482
  0
LINE
  8
0
 10
-12.3065
 20
84.1482
 11
-12.3
 21
84
  0
LINE
  8
0
 10
-12.3
 20
84
 11
-12.3065
 21
83.8518
  0
LINE
  8
0
 10
-12.3065
 20
83.8518
 11
-12.3258
 21
83.7048
  0
LINE
  8
0
 10
-12.3258
 20
83.7048
 11
-12.3579
 21
83.56
  0
LINE
  8
0
 10
-12.3579
 20
83.56
 11
-12.4025
 21
83.4186
  0
LINE
  8
0
 10
-12.4025
 20
83.4186
 11
-12.4593
 21
83.2815
  0
LINE
  8
0
 10
-12.4593
 20
83.2815
 11
-12.5278
 21
83.15
  0
LINE
  8
0
 10
-12.5278
 20
83.15
 11
-12.6074
 21
83.0249
  0
LINE
  8
0
 10
-12.6074
 20
83.0249
 11
-12.6977
 21
82.9073
  0
LINE
  8
0
 10
-12.6977
 20
82.9073
 11
-12.7979
 21
82.7979
  0
LINE
  8
0
 10
-12.7979
 20
82.7979
 11
-12.9073
 21
82.6977
  0
LINE
  8
0
 10
-12.9073
 20
82.6977
 11
-13.0249
 21
82.6074
  0
LINE
  8
0
 10
-13.0249
 20
82.6074
 11
-13.15
 21
82.5278
  0
LINE
  8
0
 10
-13.15
 20
82.5278
 11
-13.2815
 21
82.4593
  0
LINE
  8
0
 10
-13.2815
 20
82.4593
 11
-13.4186
 21
82.4025
  0
LINE
  8
0
 10
-13.4186
 20
82.4025
 11
-13.56
 21
82.3579
  0
LINE
  8
0
 10
-13.56
 20
82.3579
 11
-13.7048
 21
82.3258
  0
LINE
  8
0
 10
-13.7048
 20
82.3258
 11
-13.8518
 21
82.3065
  0
LINE
  8
0
 10
-13.8518
 20
82.3065
 11
-14
 21
82.3
  0
LINE
  8
0
 10
-14
 20
82.3
 11
-14.1482
 21
82.3065
  0
LINE
  8
0
 10
59.3899
 20
63.0266
 11
58.7845
 21
63.1064
  0
LINE
  8
0
 10
58.7845
 20
63.1064
 11
58.1883
 21
63.2385
  0
LINE
  8
0
 10
58.1883
 20
63.2385
 11
57.6059
 21
63.4222
  0
LINE
  8
0
 10
57.6059
 20
63.4222
 11
57.0417
 21
63.6559
  0
LINE
  8
0
 10
57.0417
 20
63.6559
 11
56.5
 21
63.9378
  0
LINE
  8
0
 10
56.5
 20
63.9378
 11
55.985
 21
64.2659
  0
LINE
  8
0
 10
55.985
 20
64.2659
 11
55.5005
 21
64.6377
  0
LINE
  8
0
 10
55.5005
 20
64.6377
 11
55.0503
 21
65.0503
  0
LINE
  8
0
 10
55.0503
 20
65.0503
 11
54.6377
 21
65.5005
  0
LINE
  8
0
 10
54.6377
 20
65.5005
 11
54.2659
 21
65.985
  0
LINE
  8
0
 10
54.2659
 20
65.985
 11
53.9378
 21
66.5
  0
LINE
  8
0
 10
53.9378
 20
66.5
 11
53.6559
 21
67.0417
  0
LINE
  8
0
 10
53.6559
 20
67.0417
 11
53.4222
 21
67.6059
  0
LINE
  8
0
 10
53.4222
 20
67.6059
 11
53.2385
 21
68.1883
  0
LINE
  8
0
 10
53.2385
 20
68.1883
 11
53.1064
 21
68.7845
  0
LINE
  8
0
 10
53.1064
 20
68.7845
 11
53.0266
 21
69.3899
  0
LINE
  8
0
 10
53.0266
 20
69.3899
 11
53
 21
70
  0
LINE
  8
0
 10
53
 20
70
 11
53.0266
 21
70.6101
  0
LINE
  8
0
 10
53.0266
 20
70.6101
 11
53.1064
 21
71.2155
  0
LINE
  8
0
 10
53.1064
 20
71.2155
 11
53.2385
 21
71.8117
  0
LINE
  8
0
 10
53.2385
 20
71.8117
 11
53.4222
 21
72.3941
  0
LINE
  8
0
 10
53.4222
 20
72.3941
 11
53.6559
 21
72.9583
  0
LINE
  8
0
 10
53.6559
 20
72.9583
 11
53.9378
 21
73.5
  0
LINE
  8
0
 10
53.9378
 20
73.5
 11
54.2659
 21
74.015
  0
LINE
  8
0
 10
54.2659
 20
74.015
 11
54.6377
 21
74.4995
  0
LINE
  8
0
 10
54.6377
 20
74.4995
 11
55.0503
 21
74.9497
  0
LINE
  8
0
 10
55.0503
 20
74.9497
 11
55.5005
 21
75.3623
  0
LINE
  8
0
 10
55.5005
 20
75.3623
 11
55.985
 21
75.7341
  0
LINE
  8
0
 10
55.985
 20
75.7341
 11
56.5
 21
76.0622
  0
LINE
  8
0
 10
56.5
 20
76.0622
 11
57.0417
 21
76.3441
  0
LINE
  8
0
 10
57.0417
 20
76.3441
 11
57.6059
 21
76.5778
  0
LINE
  8
0
 10
57.6059
 20
76.5778
 11
58.1883
 21
76.7615
  0
LINE
  8
0
 10
58.1883
 20
76.7615
 11
58.7845
 21
76.8936
  0
LINE
  8
0
 10
58.7845
 20
76.8936
 11
59.3899
 21
76.9734
  0
LINE
  8
0
 10
59.3899
 20
76.9734
 11
60
 21
77
  0
LINE
  8
0
 10
60
 20
77
 11
60.6101
 21
76.9734
  0
LINE
  8
0
 10
60.6101
 20
76.9734
 11
61.2155
 21
76.8936
  0
LINE
  8
0
 10
61.2155
 20
76.8936
 11
61.8117
 21
76.7615
  0
LINE
  8
0
 10
61.8117
 20
76.7615
 11
62.3941
 21
76.5778
  0
LINE
  8
0
 10
62.3941
 20
76.5778
 11
62.9583
 21
76.3441
  0
LINE
  8
0
 10
62.9583
 20
76.3441
 11
63.5
 21
76.0622
  0
LINE
  8
0
 10
63.5
 20
76.0622
 11
64.015
 21
75.7341
  0
LINE
  8
0
 10
64.015
 20
75.7341
 11
64.4995
 21
75.3623
  0
LINE
  8
0
 10
64.4995
 20
75.3623
 11
64.9497
 21
74.9497
  0
LINE
  8
0
 10
64.9497
 20
74.9497
 11
65.3623
 21
74.4995
  0
LINE
  8
0
 10
65.3623
 20
74.4995
 11
65.7341
 21
74.015
  0
LINE
  8
0
 10
65.7341
 20
74.015
 11
66.0622
 21
73.5
  0
LINE
  8
0
 10
66.0622
 20
73.5
 11
66.3441
 21
72.9583
  0
LINE
  8
0
 10
66.3441
 20
72.9583
 11
66.5778
 21
72.3941
  0
LINE
  8
0
 10
66.5778
 20
72.3941
 11
66.7615
 21
71.8117
  0
LINE
  8
0
 10
66.7615
 20
71.8117
 11
66.8936
 21
71.2155
  0
LINE
  8
0
 10
66.8936
 20
71.2155
 11
66.9734
 21
70.6101
  0
LINE
  8
0
 10
66.9734
 20
70.6101
 11
67
 21
70
  0
LINE
  8
0
 10
67
 20
70
 11
66.9734
 21
69.3899
  0
LINE
  8
0
 10
66.9734
 20
69.3899
 11
66.8936
 21
68.7845
  0
LINE
  8
0
 10
66.8936
 20
68.7845
 11
66.7615
 21
68.1883
  0
LINE
  8
0
 10
66.7615
 20
68.1883
 11
66.5778
 21
67.6059
  0
LINE
  8
0
 10
66.5778
 20
67.6059
 11
66.3441
 21
67.0417
  0
LINE
  8
0
 10
66.3441
 20
67.0417
 11
66.0622
 21
66.5
  0
LINE
  8
0
 10
66.0622
 20
66.5
 11
65.7341
 21
65.985
  0
LINE
  8
0
 10
65.7341
 20
65.985
 11
65.3623
 21
65.5005
  0
LINE
  8
0
 10
65.3623
 20
65.5005
 11
64.9497
 21
65.0503
  0
LINE
  8
0
 10
64.9497
 20
65.0503
 11
64.4995
 21
64.6377
  0
LINE
  8
0
 10
64.4995
 20
64.6377
 11
64.015
 21
64.2659
  0
LINE
  8
0
 10
64.015
 20
64.2659
 11
63.5
 21
63.9378
  0
LINE
  8
0
 10
63.5
 20
63.9378
 11
62.9583
 21
63.6559
  0
LINE
  8
0
 10
62.9583
 20
63.6559
 11
62.3941
 21
63.4222
  0
LINE
  8
0
 10
62.3941
 20
63.4222
 11
61.8117
 21
63.2385
  0
LINE
  8
0
 10
61.8117
 20
63.2385
 11
61.2155
 21
63.1064
  0
LINE
  8
0
 10
61.2155
 20
63.1064
 11
60.6101
 21
63.0266
  0
LINE
  8
0
 10
60.6101
 20
63.0266
 11
60
 21
63
  0
LINE
  8
0
 10
60
 20
63
 11
59.3899
 21
63.0266
  0
LINE
  8
0
 10
-0.610077
 20
63.0266
 11
-1.21553
 21
63.1064
  0
LINE
  8
0
 10
-1.21553
 20
63.1064
 11
-1.81172
 21
63.2385
  0
LINE
  8
0
 10
-1.81172
 20
63.2385
 11
-2.39413
 21
63.4222
  0
LINE
  8
0
 10
-2.39413
 20
63.4222
 11
-2.95831
 21
63.6559
  0
LINE
  8
0
 10
-2.95831
 20
63.6559
 11
-3.5
 21
63.9378
  0
LINE
  8
0
 10
-3.5
 20
63.9378
 11
-4.01503
 21
64.2659
  0
LINE
  8
0
 10
-4.01503
 20
64.2659
 11
-4.49951
 21
64.6377
  0
LINE
  8
0
 10
-4.49951
 20
64.6377
 11
-4.94974
 21
65.0503
  0
LINE
  8
0
 10
-4.94974
 20
65.0503
 11
-5.3623
 21
65.5005
  0
LINE
  8
0
 10
-5.3623
 20
65.5005
 11
-5.73405
 21
65.985
  0
LINE
  8
0
 10
-5.73405
 20
65.985
 11
-6.06216
 21
66.5
  0
LINE
  8
0
 10
-6.06216
 20
66.5
 11
-6.34415
 21
67.0417
  0
LINE
  8
0
 10
-6.34415
 20
67.0417
 11
-6.57784
 21
67.6059
  0
LINE
  8
0
 10
-6.57784
 20
67.6059
 11
-6.76147
 21
68.1883
  0
LINE
  8
0
 10
-6.76147
 20
68.1883
 11
-6.89365
 21
68.7845
  0
LINE
  8
0
 10
-6.89365
 20
68.7845
 11
-6.97336
 21
69.3899
  0
LINE
  8
0
 10
-6.97336
 20
69.3899
 11
-7
 21
70
  0
LINE
  8
0
 10
-7
 20
70
 11
-6.97336
 21
70.6101
  0
LINE
  8
0
 10
-6.97336
 20
70.6101
 11
-6.89365
 21
71.2155
  0
LINE
  8
0
 10
-6.89365
 20
71.2155
 11
-6.76147
 21
71.8117
  0
LINE
  8
0
 10
-6.76147
 20
71.8117
 11
-6.57784
 21
72.3941
  0
LINE
  8
0
 10
-6.57784
 20
72.3941
 11
-6.34415
 21
72.9583
  0
LINE
  8
0
 10
-6.34415
 20
72.9583
 11
-6.06216
 21
73.5
  0
LINE
  8
0
 10
-6.06216
 20
73.5
 11
-5.73405
 21
74.015
  0
LINE
  8
0
 10
-5.73405
 20
74.015
 11
-5.3623
 21
74.4995
  0
LINE
  8
0
 10
-5.3623
 20
74.4995
 11
-4.94974
 21
74.9497
  0
LINE
  8
0
 10
-4.94974
 20
74.9497
 11
-4.49951
 21
75.3623
  0
LINE
  8
0
 10
-4.49951
 20
75.3623
 11
-4.01503
 21
75.7341
  0
LINE
  8
0
 10
-4.01503
 20
75.7341
 11
-3.5
 21
76.0622
  0
LINE
  8
0
 10
-3.5
 20
76.0622
 11
-2.95831
 21
76.3441
  0
LINE
  8
0
 10
-2.95831
 20
76.3441
 11
-2.39413
 21
76.5778
  0
LINE
  8
0
 10
-2.39413
 20
76.5778
 11
-1.81172
 21
76.7615
  0
LINE
  8
0
 10
-1.81172
 20
76.7615
 11
-1.21553
 21
76.8936
  0
LINE
  8
0
 10
-1.21553
 20
76.8936
 11
-0.610077
 21
76.9734
  0
LINE
  8
0
 10
-0.610077
 20
76.9734
 11
0
 21
77
  0
LINE
  8
0
 10
0
 20
77
 11
0.610077
 21
76.9734
  0
LINE
  8
0
 10
0.610077
 20
76.9734
 11
1.21553
 21
76.8936
  0
LINE
  8
0
 10
1.21553
 20
76.8936
 11
1.81172
 21
76.7615
  0
LINE
  8
0
 10
1.81172
 20
76.7615
 11
2.39413
 21
76.5778
  0
LINE
  8
0
 10
2.39413
 20
76.5778
 11
2.95831
 21
76.3441
  0
LINE
  8
0
 10
2.95831
 20
76.3441
 11
3.5
 21
76.0622
  0
LINE
  8
0
 10
3.5
 20
76.0622
 11
4.01503
 21
75.7341
  0
LINE
  8
0
 10
4.01503
 20
75.7341
 11
4.49951
 21
75.3623
  0
LINE
  8
0
 10
4.49951
 20
75.3623
 11
4.94974
 21
74.9497
  0
LINE
  8
0
 10
4.94974
 20
74.9497
 11
5.3623
 21
74.4995
  0
LINE
  8
0
 10
5.3623
 20
74.4995
 11
5.73405
 21
74.015
  0
LINE
  8
0
 10
5.73405
 20
74.015
 11
6.06216
 21
73.5
  0
LINE
  8
0
 10
6.06216
 20
73.5
 11
6.34415
 21
72.9583
  0
LINE
  8
0
 10
6.34415
 20
72.9583
 11
6.57784
 21
72.3941
  0
LINE
  8
0
 10
6.57784
 20
72.3941
 11
6.76147
 21
71.8117
  0
LINE
  8
0
 10
6.76147
 20
71.8117
 11
6.89365
 21
71.2155
  0
LINE
  8
0
 10
6.89365
 20
71.2155
 11
6.97336
 21
70.6101
  0
LINE
  8
0
 10
6.97336
 20
70.6101
 11
7
 21
70
  0
LINE
  8
0
 10
7
 20
70
 11
6.97336
 21
69.3899
  0
LINE
  8
0
 10
6.97336
 20
69.3899
 11
6.89365
 21
68.7845
  0
LINE
  8
0
 10
6.89365
 20
68.7845
 11
6.76147
 21
68.1883
  0
LINE
  8
0
 10
6.76147
 20
68.1883
 11
6.57784
 21
67.6059
  0
LINE
  8
0
 10
6.57784
 20
67.6059
 11
6.34415
 21
67.0417
  0
LINE
  8
0
 10
6.34415
 20
67.0417
 11
6.06216
 21
66.5
  0
LINE
  8
0
 10
6.06216
 20
66.5
 11
5.73405
 21
65.985
  0
LINE
  8
0
 10
5.73405
 20
65.985
 11
5.3623
 21
65.5005
  0
LINE
  8
0
 10
5.3623
 20
65.5005
 11
4.94974
 21
65.0503
  0
LINE
  8
0
 10
4.94974
 20
65.0503
 11
4.49951
 21
64.6377
  0
LINE
  8
0
 10
4.49951
 20
64.6377
 11
4.01503
 21
64.2659
  0
LINE
  8
0
 10
4.01503
 20
64.2659
 11
3.5
 21
63.9378
  0
LINE
  8
0
 10
3.5
 20
63.9378
 11
2.95831
 21
63.6559
  0
LINE
  8
0
 10
2.95831
 20
63.6559
 11
2.39413
 21
63.4222
  0
LINE
  8
0
 10
2.39413
 20
63.4222
 11
1.81172
 21
63.2385
  0
LINE
  8
0
 10
1.81172
 20
63.2385
 11
1.21553
 21
63.1064
  0
LINE
  8
0
 10
1.21553
 20
63.1064
 11
0.610077
 21
63.0266
  0
LINE
  8
0
 10
0.610077
 20
63.0266
 11
0
 21
63
  0
LINE
  8
0
 10
0
 20
63
 11
-0.610077
 21
63.0266
  0
LINE
  8
0
 10
-154.148
 20
57.3065
 11
-154.295
 21
57.3258
  0
LINE
  8
0
 10
-154.295
 20
57.3258
 11
-154.44
 21
57.3579
  0
LINE
  8
0
 10
-154.44
 20
57.3579
 11
-154.581
 21
57.4025
  0
LINE
  8
0
 10
-154.581
 20
57.4025
 11
-154.718
 21
57.4593
  0
LINE
  8
0
 10
-154.718
 20
57.4593
 11
-154.85
 21
57.5278
  0
LINE
  8
0
 10
-154.85
 20
57.5278
 11
-154.975
 21
57.6074
  0
LINE
  8
0
 10
-154.975
 20
57.6074
 11
-155.093
 21
57.6977
  0
LINE
  8
0
 10
-155.093
 20
57.6977
 11
-155.202
 21
57.7979
  0
LINE
  8
0
 10
-155.202
 20
57.7979
 11
-155.302
 21
57.9073
  0
LINE
  8
0
 10
-155.302
 20
57.9073
 11
-155.393
 21
58.0249
  0
LINE
  8
0
 10
-155.393
 20
58.0249
 11
-155.472
 21
58.15
  0
LINE
  8
0
 10
-155.472
 20
58.15
 11
-155.541
 21
58.2815
  0
LINE
  8
0
 10
-155.541
 20
58.2815
 11
-155.597
 21
58.4186
  0
LINE
  8
0
 10
-155.597
 20
58.4186
 11
-155.642
 21
58.56
  0
LINE
  8
0
 10
-155.642
 20
58.56
 11
-155.674
 21
58.7048
  0
LINE
  8
0
 10
-155.674
 20
58.7048
 11
-155.694
 21
58.8518
  0
LINE
  8
0
 10
-155.694
 20
58.8518
 11
-155.7
 21
59
  0
LINE
  8
0
 10
-155.7
 20
59
 11
-155.694
 21
59.1482
  0
LINE
  8
0
 10
-155.694
 20
59.1482
 11
-155.674
 21
59.2952
  0
LINE
  8
0
 10
-155.674
 20
59.2952
 11
-155.642
 21
59.44
  0
LINE
  8
0
 10
-155.642
 20
59.44
 11
-155.597
 21
59.5814
  0
LINE
  8
0
 10
-155.597
 20
59.5814
 11
-155.541
 21
59.7184
  0
LINE
  8
0
 10
-155.541
 20
59.7184
 11
-155.472
 21
59.85
  0
LINE
  8
0
 10
-155.472
 20
59.85
 11
-155.393
 21
59.9751
  0
LINE
  8
0
 10
-155.393
 20
59.9751
 11
-155.302
 21
60.0927
  0
LINE
  8
0
 10
-155.302
 20
60.0927
 11
-155.202
 21
60.2021
  0
LINE
  8
0
 10
-155.202
 20
60.2021
 11
-155.093
 21
60.3023
  0
LINE
  8
0
 10
-155.093
 20
60.3023
 11
-154.975
 21
60.3925
  0
LINE
  8
0
 10
-154.975
 20
60.3925
 11
-154.85
 21
60.4722
  0
LINE
  8
0
 10
-154.85
 20
60.4722
 11
-154.718
 21
60.5407
  0
LINE
  8
0
 10
-154.718
 20
60.5407
 11
-154.581
 21
60.5975
  0
LINE
  8
0
 10
-154.581
 20
60.5975
 11
-154.44
 21
60.6421
  0
LINE
  8
0
 10
-154.44
 20
60.6421
 11
-154.295
 21
60.6742
  0
LINE
  8
0
 10
-154.295
 20
60.6742
 11
-154.148
 21
60.6935
  0
LINE
  8
0
 10
-154.148
 20
60.6935
 11
-154
 21
60.7
  0
LINE
  8
0
 10
-154
 20
60.7
 11
-153.852
 21
60.6935
  0
LINE
  8
0
 10
-153.852
 20
60.6935
 11
-153.705
 21
60.6742
  0
LINE
  8
0
 10
-153.705
 20
60.6742
 11
-153.56
 21
60.6421
  0
LINE
  8
0
 10
-153.56
 20
60.6421
 11
-153.419
 21
60.5975
  0
LINE
  8
0
 10
-153.419
 20
60.5975
 11
-153.282
 21
60.5407
  0
LINE
  8
0
 10
-153.282
 20
60.5407
 11
-153.15
 21
60.4722
  0
LINE
  8
0
 10
-153.15
 20
60.4722
 11
-153.025
 21
60.3925
  0
LINE
  8
0
 10
-153.025
 20
60.3925
 11
-152.907
 21
60.3023
  0
LINE
  8
0
 10
-152.907
 20
60.3023
 11
-152.798
 21
60.2021
  0
LINE
  8
0
 10
-152.798
 20
60.2021
 11
-152.698
 21
60.0927
  0
LINE
  8
0
 10
-152.698
 20
60.0927
 11
-152.607
 21
59.9751
  0
LINE
  8
0
 10
-152.607
 20
59.9751
 11
-152.528
 21
59.85
  0
LINE
  8
0
 10
-152.528
 20
59.85
 11
-152.459
 21
59.7184
  0
LINE
  8
0
 10
-152.459
 20
59.7184
 11
-152.403
 21
59.5814
  0
LINE
  8
0
 10
-152.403
 20
59.5814
 11
-152.358
 21
59.44
  0
LINE
  8
0
 10
-152.358
 20
59.44
 11
-152.326
 21
59.2952
  0
LINE
  8
0
 10
-152.326
 20
59.2952
 11
-152.306
 21
59.1482
  0
LINE
  8
0
 10
-152.306
 20
59.1482
 11
-152.3
 21
59
  0
LINE
  8
0
 10
-152.3
 20
59
 11
-152.306
 21
58.8518
  0
LINE
  8
0
 10
-152.306
 20
58.8518
 11
-152.326
 21
58.7048
  0
LINE
  8
0
 10
-152.326
 20
58.7048
 11
-152.358
 21
58.56
  0
LINE
  8
0
 10
-152.358
 20
58.56
 11
-152.403
 21
58.4186
  0
LINE
  8
0
 10
-152.403
 20
58.4186
 11
-152.459
 21
58.2815
  0
LINE
  8
0
 10
-152.459
 20
58.2815
 11
-152.528
 21
58.15
  0
LINE
  8
0
 10
-152.528
 20
58.15
 11
-152.607
 21
58.0249
  0
LINE
  8
0
 10
-152.607
 20
58.0249
 11
-152.698
 21
57.9073
  0
LINE
  8
0
 10
-152.698
 20
57.9073
 11
-152.798
 21
57.7979
  0
LINE
  8
0
 10
-152.798
 20
57.7979
 11
-152.907
 21
57.6977
  0
LINE
  8
0
 10
-152.907
 20
57.6977
 11
-153.025
 21
57.6074
  0
LINE
  8
0
 10
-153.025
 20
57.6074
 11
-153.15
 21
57.5278
  0
LINE
  8
0
 10
-153.15
 20
57.5278
 11
-153.282
 21
57.4593
  0
LINE
  8
0
 10
-153.282
 20
57.4593
 11
-153.419
 21
57.4025
  0
LINE
  8
0
 10
-153.419
 20
57.4025
 11
-153.56
 21
57.3579
  0
LINE
  8
0
 10
-153.56
 20
57.3579
 11
-153.705
 21
57.3258
  0
LINE
  8
0
 10
-153.705
 20
57.3258
 11
-153.852
 21
57.3065
  0
LINE
  8
0
 10
-153.852
 20
57.3065
 11
-154
 21
57.3
  0
LINE
  8
0
 10
-154
 20
57.3
 11
-154.148
 21
57.3065
  0
LINE
  8
0
 10
-126.148
 20
57.3065
 11
-126.295
 21
57.3258
  0
LINE
  8
0
 10
-126.295
 20
57.3258
 11
-126.44
 21
57.3579
  0
LINE
  8
0
 10
-126.44
 20
57.3579
 11
-126.581
 21
57.4025
  0
LINE
  8
0
 10
-126.581
 20
57.4025
 11
-126.718
 21
57.4593
  0
LINE
  8
0
 10
-126.718
 20
57.4593
 11
-126.85
 21
57.5278
  0
LINE
  8
0
 10
-126.85
 20
57.5278
 11
-126.975
 21
57.6074
  0
LINE
  8
0
 10
-126.975
 20
57.6074
 11
-127.093
 21
57.6977
  0
LINE
  8
0
 10
-127.093
 20
57.6977
 11
-127.202
 21
57.7979
  0
LINE
  8
0
 10
-127.202
 20
57.7979
 11
-127.302
 21
57.9073
  0
LINE
  8
0
 10
-127.302
 20
57.9073
 11
-127.393
 21
58.0249
  0
LINE
  8
0
 10
-127.393
 20
58.0249
 11
-127.472
 21
58.15
  0
LINE
  8
0
 10
-127.472
 20
58.15
 11
-127.541
 21
58.2815
  0
LINE
  8
0
 10
-127.541
 20
58.2815
 11
-127.597
 21
58.4186
  0
LINE
  8
0
 10
-127.597
 20
58.4186
 11
-127.642
 21
58.56
  0
LINE
  8
0
 10
-127.642
 20
58.56
 11
-127.674
 21
58.7048
  0
LINE
  8
0
 10
-127.674
 20
58.7048
 11
-127.694
 21
58.8518
  0
LINE
  8
0
 10
-127.694
 20
58.8518
 11
-127.7
 21
59
  0
LINE
  8
0
 10
-127.7
 20
59
 11
-127.694
 21
59.1482
  0
LINE
  8
0
 10
-127.694
 20
59.1482
 11
-127.674
 21
59.2952
  0
LINE
  8
0
 10
-127.674
 20
59.2952
 11
-127.642
 21
59.44
  0
LINE
  8
0
 10
-127.642
 20
59.44
 11
-127.597
 21
59.5814
  0
LINE
  8
0
 10
-127.597
 20
59.5814
 11
-127.541
 21
59.7184
  0
LINE
  8
0
 10
-127.541
 20
59.7184
 11
-127.472
 21
59.85
  0
LINE
  8
0
 10
-127.472
 20
59.85
 11
-127.393
 21
59.9751
  0
LINE
  8
0
 10
-127.393
 20
59.9751
 11
-127.302
 21
60.0927
  0
LINE
  8
0
 10
-127.302
 20
60.0927
 11
-127.202
 21
60.2021
  0
LINE
  8
0
 10
-127.202
 20
60.2021
 11
-127.093
 21
60.3023
  0
LINE
  8
0
 10
-127.093
 20
60.3023
 11
-126.975
 21
60.3925
  0
LINE
  8
0
 10
-126.975
 20
60.3925
 11
-126.85
 21
60.4722
  0
LINE
  8
0
 10
-126.85
 20
60.4722
 11
-126.718
 21
60.5407
  0
LINE
  8
0
 10
-126.718
 20
60.5407
 11
-126.581
 21
60.5975
  0
LINE
  8
0
 10
-126.581
 20
60.5975
 11
-126.44
 21
60.6421
  0
LINE
  8
0
 10
-126.44
 20
60.6421
 11
-126.295
 21
60.6742
  0
LINE
  8
0
 10
-126.295
 20
60.6742
 11
-126.148
 21
60.6935
  0
LINE
  8
0
 10
-126.148
 20
60.6935
 11
-126
 21
60.7
  0
LINE
  8
0
 10
-126
 20
60.7
 11
-125.852
 21
60.6935
  0
LINE
  8
0
 10
-125.852
 20
60.6935
 11
-125.705
 21
60.6742
  0
LINE
  8
0
 10
-125.705
 20
60.6742
 11
-125.56
 21
60.6421
  0
LINE
  8
0
 10
-125.56
 20
60.6421
 11
-125.419
 21
60.5975
  0
LINE
  8
0
 10
-125.419
 20
60.5975
 11
-125.282
 21
60.5407
  0
LINE
  8
0
 10
-125.282
 20
60.5407
 11
-125.15
 21
60.4722
  0
LINE
  8
0
 10
-125.15
 20
60.4722
 11
-125.025
 21
60.3925
  0
LINE
  8
0
 10
-125.025
 20
60.3925
 11
-124.907
 21
60.3023
  0
LINE
  8
0
 10
-124.907
 20
60.3023
 11
-124.798
 21
60.2021
  0
LINE
  8
0
 10
-124.798
 20
60.2021
 11
-124.698
 21
60.0927
  0
LINE
  8
0
 10
-124.698
 20
60.0927
 11
-124.607
 21
59.9751
  0
LINE
  8
0
 10
-124.607
 20
59.9751
 11
-124.528
 21
59.85
  0
LINE
  8
0
 10
-124.528
 20
59.85
 11
-124.459
 21
59.7184
  0
LINE
  8
0
 10
-124.459
 20
59.7184
 11
-124.403
 21
59.5814
  0
LINE
  8
0
 10
-124.403
 20
59.5814
 11
-124.358
 21
59.44
  0
LINE
  8
0
 10
-124.358
 20
59.44
 11
-124.326
 21
59.2952
  0
LINE
  8
0
 10
-124.326
 20
59.2952
 11
-124.306
 21
59.1482
  0
LINE
  8
0
 10
-124.306
 20
59.1482
 11
-124.3
 21
59
  0
LINE
  8
0
 10
-124.3
 20
59
 11
-124.306
 21
58.8518
  0
LINE
  8
0
 10
-124.306
 20
58.8518
 11
-124.326
 21
58.7048
  0
LINE
  8
0
 10
-124.326
 20
58.7048
 11
-124.358
 21
58.56
  0
LINE
  8
0
 10
-124.358
 20
58.56
 11
-124.403
 21
58.4186
  0
LINE
  8
0
 10
-124.403
 20
58.4186
 11
-124.459
 21
58.2815
  0
LINE
  8
0
 10
-124.459
 20
58.2815
 11
-124.528
 21
58.15
  0
LINE
  8
0
 10
-124.528
 20
58.15
 11
-124.607
 21
58.0249
  0
LINE
  8
0
 10
-124.607
 20
58.0249
 11
-124.698
 21
57.9073
  0
LINE
  8
0
 10
-124.698
 20
57.9073
 11
-124.798
 21
57.7979
  0
LINE
  8
0
 10
-124.798
 20
57.7979
 11
-124.907
 21
57.6977
  0
LINE
  8
0
 10
-124.907
 20
57.6977
 11
-125.025
 21
57.6074
  0
LINE
  8
0
 10
-125.025
 20
57.6074
 11
-125.15
 21
57.5278
  0
LINE
  8
0
 10
-125.15
 20
57.5278
 11
-125.282
 21
57.4593
  0
LINE
  8
0
 10
-125.282
 20
57.4593
 11
-125.419
 21
57.4025
  0
LINE
  8
0
 10
-125.419
 20
57.4025
 11
-125.56
 21
57.3579
  0
LINE
  8
0
 10
-125.56
 20
57.3579
 11
-125.705
 21
57.3258
  0
LINE
  8
0
 10
-125.705
 20
57.3258
 11
-125.852
 21
57.3065
  0
LINE
  8
0
 10
-125.852
 20
57.3065
 11
-126
 21
57.3
  0
LINE
  8
0
 10
-126
 20
57.3
 11
-126.148
 21
57.3065
  0
LINE
  8
0
 10
-14.1482
 20
54.3065
 11
-14.2952
 21
54.3258
  0
LINE
  8
0
 10
-14.2952
 20
54.3258
 11
-14.44
 21
54.3579
  0
LINE
  8
0
 10
-14.44
 20
54.3579
 11
-14.5814
 21
54.4025
  0
LINE
  8
0
 10
-14.5814
 20
54.4025
 11
-14.7184
 21
54.4593
  0
LINE
  8
0
 10
-14.7184
 20
54.4593
 11
-14.85
 21
54.5278
  0
LINE
  8
0
 10
-14.85
 20
54.5278
 11
-14.9751
 21
54.6075
  0
LINE
  8
0
 10
-14.9751
 20
54.6075
 11
-15.0927
 21
54.6977
  0
LINE
  8
0
 10
-15.0927
 20
54.6977
 11
-15.2021
 21
54.7979
  0
LINE
  8
0
 10
-15.2021
 20
54.7979
 11
-15.3023
 21
54.9073
  0
LINE
  8
0
 10
-15.3023
 20
54.9073
 11
-15.3925
 21
55.0249
  0
LINE
  8
0
 10
-15.3925
 20
55.0249
 11
-15.4722
 21
55.15
  0
LINE
  8
0
 10
-15.4722
 20
55.15
 11
-15.5407
 21
55.2816
  0
LINE
  8
0
 10
-15.5407
 20
55.2816
 11
-15.5975
 21
55.4186
  0
LINE
  8
0
 10
-15.5975
 20
55.4186
 11
-15.6421
 21
55.56
  0
LINE
  8
0
 10
-15.6421
 20
55.56
 11
-15.6742
 21
55.7048
  0
LINE
  8
0
 10
-15.6742
 20
55.7048
 11
-15.6935
 21
55.8518
  0
LINE
  8
0
 10
-15.6935
 20
55.8518
 11
-15.7
 21
56
  0
LINE
  8
0
 10
-15.7
 20
56
 11
-15.6935
 21
56.1482
  0
LINE
  8
0
 10
-15.6935
 20
56.1482
 11
-15.6742
 21
56.2952
  0
LINE
  8
0
 10
-15.6742
 20
56.2952
 11
-15.6421
 21
56.44
  0
LINE
  8
0
 10
-15.6421
 20
56.44
 11
-15.5975
 21
56.5814
  0
LINE
  8
0
 10
-15.5975
 20
56.5814
 11
-15.5407
 21
56.7185
  0
LINE
  8
0
 10
-15.5407
 20
56.7185
 11
-15.4722
 21
56.85
  0
LINE
  8
0
 10
-15.4722
 20
56.85
 11
-15.3925
 21
56.9751
  0
LINE
  8
0
 10
-15.3925
 20
56.9751
 11
-15.3023
 21
57.0927
  0
LINE
  8
0
 10
-15.3023
 20
57.0927
 11
-15.2021
 21
57.2021
  0
LINE
  8
0
 10
-15.2021
 20
57.2021
 11
-15.0927
 21
57.3023
  0
LINE
  8
0
 10
-15.0927
 20
57.3023
 11
-14.9751
 21
57.3926
  0
LINE
  8
0
 10
-14.9751
 20
57.3926
 11
-14.85
 21
57.4722
  0
LINE
  8
0
 10
-14.85
 20
57.4722
 11
-14.7184
 21
57.5407
  0
LINE
  8
0
 10
-14.7184
 20
57.5407
 11
-14.5814
 21
57.5975
  0
LINE
  8
0
 10
-14.5814
 20
57.5975
 11
-14.44
 21
57.6421
  0
LINE
  8
0
 10
-14.44
 20
57.6421
 11
-14.2952
 21
57.6742
  0
LINE
  8
0
 10
-14.2952
 20
57.6742
 11
-14.1482
 21
57.6935
  0
LINE
  8
0
 10
-14.1482
 20
57.6935
 11
-14
 21
57.7
  0
LINE
  8
0
 10
-14
 20
57.7
 11
-13.8518
 21
57.6935
  0
LINE
  8
0
 10
-13.8518
 20
57.6935
 11
-13.7048
 21
57.6742
  0
LINE
  8
0
 10
-13.7048
 20
57.6742
 11
-13.56
 21
57.6421
  0
LINE
  8
0
 10
-13.56
 20
57.6421
 11
-13.4186
 21
57.5975
  0
LINE
  8
0
 10
-13.4186
 20
57.5975
 11
-13.2815
 21
57.5407
  0
LINE
  8
0
 10
-13.2815
 20
57.5407
 11
-13.15
 21
57.4722
  0
LINE
  8
0
 10
-13.15
 20
57.4722
 11
-13.0249
 21
57.3926
  0
LINE
  8
0
 10
-13.0249
 20
57.3926
 11
-12.9073
 21
57.3023
  0
LINE
  8
0
 10
-12.9073
 20
57.3023
 11
-12.7979
 21
57.2021
  0
LINE
  8
0
 10
-12.7979
 20
57.2021
 11
-12.6977
 21
57.0927
  0
LINE
  8
0
 10
-12.6977
 20
57.0927
 11
-12.6074
 21
56.9751
  0
LINE
  8
0
 10
-12.6074
 20
56.9751
 11
-12.5278
 21
56.85
  0
LINE
  8
0
 10
-12.5278
 20
56.85
 11
-12.4593
 21
56.7185
  0
LINE
  8
0
 10
-12.4593
 20
56.7185
 11
-12.4025
 21
56.5814
  0
LINE
  8
0
 10
-12.4025
 20
56.5814
 11
-12.3579
 21
56.44
  0
LINE
  8
0
 10
-12.3579
 20
56.44
 11
-12.3258
 21
56.2952
  0
LINE
  8
0
 10
-12.3258
 20
56.2952
 11
-12.3065
 21
56.1482
  0
LINE
  8
0
 10
-12.3065
 20
56.1482
 11
-12.3
 21
56
  0
LINE
  8
0
 10
-12.3
 20
56
 11
-12.3065
 21
55.8518
  0
LINE
  8
0
 10
-12.3065
 20
55.8518
 11
-12.3258
 21
55.7048
  0
LINE
  8
0
 10
-12.3258
 20
55.7048
 11
-12.3579
 21
55.56
  0
LINE
  8
0
 10
-12.3579
 20
55.56
 11
-12.4025
 21
55.4186
  0
LINE
  8
0
 10
-12.4025
 20
55.4186
 11
-12.4593
 21
55.2816
  0
LINE
  8
0
 10
-12.4593
 20
55.2816
 11
-12.5278
 21
55.15
  0
LINE
  8
0
 10
-12.5278
 20
55.15
 11
-12.6074
 21
55.0249
  0
LINE
  8
0
 10
-12.6074
 20
55.0249
 11
-12.6977
 21
54.9073
  0
LINE
  8
0
 10
-12.6977
 20
54.9073
 11
-12.7979
 21
54.7979
  0
LINE
  8
0
 10
-12.7979
 20
54.7979
 11
-12.9073
 21
54.6977
  0
LINE
  8
0
 10
-12.9073
 20
54.6977
 11
-13.0249
 21
54.6075
  0
LINE
  8
0
 10
-13.0249
 20
54.6075
 11
-13.15
 21
54.5278
  0
LINE
  8
0
 10
-13.15
 20
54.5278
 11
-13.2815
 21
54.4593
  0
LINE
  8
0
 10
-13.2815
 20
54.4593
 11
-13.4186
 21
54.4025
  0
LINE
  8
0
 10
-13.4186
 20
54.4025
 11
-13.56
 21
54.3579
  0
LINE
  8
0
 10
-13.56
 20
54.3579
 11
-13.7048
 21
54.3258
  0
LINE
  8
0
 10
-13.7048
 20
54.3258
 11
-13.8518
 21
54.3065
  0
LINE
  8
0
 10
-13.8518
 20
54.3065
 11
-14
 21
54.3
  0
LINE
  8
0
 10
-14
 20
54.3
 11
-14.1482
 21
54.3065
  0
LINE
  8
0
 10
13.8518
 20
54.3065
 11
13.7048
 21
54.3258
  0
LINE
  8
0
 10
13.7048
 20
54.3258
 11
13.56
 21
54.3579
  0
LINE
  8
0
 10
13.56
 20
54.3579
 11
13.4186
 21
54.4025
  0
LINE
  8
0
 10
13.4186
 20
54.4025
 11
13.2815
 21
54.4593
  0
LINE
  8
0
 10
13.2815
 20
54.4593
 11
13.15
 21
54.5278
  0
LINE
  8
0
 10
13.15
 20
54.5278
 11
13.0249
 21
54.6075
  0
LINE
  8
0
 10
13.0249
 20
54.6075
 11
12.9073
 21
54.6977
  0
LINE
  8
0
 10
12.9073
 20
54.6977
 11
12.7979
 21
54.7979
  0
LINE
  8
0
 10
12.7979
 20
54.7979
 11
12.6977
 21
54.9073
  0
LINE
  8
0
 10
12.6977
 20
54.9073
 11
12.6074
 21
55.0249
  0
LINE
  8
0
 10
12.6074
 20
55.0249
 11
12.5278
 21
55.15
  0
LINE
  8
0
 10
12.5278
 20
55.15
 11
12.4593
 21
55.2816
  0
LINE
  8
0
 10
12.4593
 20
55.2816
 11
12.4025
 21
55.4186
  0
LINE
  8
0
 10
12.4025
 20
55.4186
 11
12.3579
 21
55.56
  0
LINE
  8
0
 10
12.3579
 20
55.56
 11
12.3258
 21
55.7048
  0
LINE
  8
0
 10
12.3258
 20
55.7048
 11
12.3065
 21
55.8518
  0
LINE
  8
0
 10
12.3065
 20
55.8518
 11
12.3
 21
56
  0
LINE
  8
0
 10
12.3
 20
56
 11
12.3065
 21
56.1482
  0
LINE
  8
0
 10
12.3065
 20
56.1482
 11
12.3258
 21
56.2952
  0
LINE
  8
0
 10
12.3258
 20
56.2952
 11
12.3579
 21
56.44
  0
LINE
  8
0
 10
12.3579
 20
56.44
 11
12.4025
 21
56.5814
  0
LINE
  8
0
 10
12.4025
 20
56.5814
 11
12.4593
 21
56.7185
  0
LINE
  8
0
 10
12.4593
 20
56.7185
 11
12.5278
 21
56.85
  0
LINE
  8
0
 10
12.5278
 20
56.85
 11
12.6074
 21
56.9751
  0
LINE
  8
0
 10
12.6074
 20
56.9751
 11
12.6977
 21
57.0927
  0
LINE
  8
0
 10
12.6977
 20
57.0927
 11
12.7979
 21
57.2021
  0
LINE
  8
0
 10
12.7979
 20
57.2021
 11
12.9073
 21
57.3023
  0
LINE
  8
0
 10
12.9073
 20
57.3023
 11
13.0249
 21
57.3926
  0
LINE
  8
0
 10
13.0249
 20
57.3926
 11
13.15
 21
57.4722
  0
LINE
  8
0
 10
13.15
 20
57.4722
 11
13.2815
 21
57.5407
  0
LINE
  8
0
 10
13.2815
 20
57.5407
 11
13.4186
 21
57.5975
  0
LINE
  8
0
 10
13.4186
 20
57.5975
 11
13.56
 21
57.6421
  0
LINE
  8
0
 10
13.56
 20
57.6421
 11
13.7048
 21
57.6742
  0
LINE
  8
0
 10
13.7048
 20
57.6742
 11
13.8518
 21
57.6935
  0
LINE
  8
0
 10
13.8518
 20
57.6935
 11
14
 21
57.7
  0
LINE
  8
0
 10
14
 20
57.7
 11
14.1482
 21
57.6935
  0
LINE
  8
0
 10
14.1482
 20
57.6935
 11
14.2952
 21
57.6742
  0
LINE
  8
0
 10
14.2952
 20
57.6742
 11
14.44
 21
57.6421
  0
LINE
  8
0
 10
14.44
 20
57.6421
 11
14.5814
 21
57.5975
  0
LINE
  8
0
 10
14.5814
 20
57.5975
 11
14.7184
 21
57.5407
  0
LINE
  8
0
 10
14.7184
 20
57.5407
 11
14.85
 21
57.4722
  0
LINE
  8
0
 10
14.85
 20
57.4722
 11
14.9751
 21
57.3926
  0
LINE
  8
0
 10
14.9751
 20
57.3926
 11
15.0927
 21
57.3023
  0
LINE
  8
0
 10
15.0927
 20
57.3023
 11
15.2021
 21
57.2021
  0
LINE
  8
0
 10
15.2021
 20
57.2021
 11
15.3023
 21
57.0927
  0
LINE
  8
0
 10
15.3023
 20
57.0927
 11
15.3925
 21
56.9751
  0
LINE
  8
0
 10
15.3925
 20
56.9751
 11
15.4722
 21
56.85
  0
LINE
  8
0
 10
15.4722
 20
56.85
 11
15.5407
 21
56.7185
  0
LINE
  8
0
 10
15.5407
 20
56.7185
 11
15.5975
 21
56.5814
  0
LINE
  8
0
 10
15.5975
 20
56.5814
 11
15.6421
 21
56.44
  0
LINE
  8
0
 10
15.6421
 20
56.44
 11
15.6742
 21
56.2952
  0
LINE
  8
0
 10
15.6742
 20
56.2952
 11
15.6935
 21
56.1482
  0
LINE
  8
0
 10
15.6935
 20
56.1482
 11
15.7
 21
56
  0
LINE
  8
0
 10
15.7
 20
56
 11
15.6935
 21
55.8518
  0
LINE
  8
0
 10
15.6935
 20
55.8518
 11
15.6742
 21
55.7048
  0
LINE
  8
0
 10
15.6742
 20
55.7048
 11
15.6421
 21
55.56
  0
LINE
  8
0
 10
15.6421
 20
55.56
 11
15.5975
 21
55.4186
  0
LINE
  8
0
 10
15.5975
 20
55.4186
 11
15.5407
 21
55.2816
  0
LINE
  8
0
 10
15.5407
 20
55.2816
 11
15.4722
 21
55.15
  0
LINE
  8
0
 10
15.4722
 20
55.15
 11
15.3925
 21
55.0249
  0
LINE
  8
0
 10
15.3925
 20
55.0249
 11
15.3023
 21
54.9073
  0
LINE
  8
0
 10
15.3023
 20
54.9073
 11
15.2021
 21
54.7979
  0
LINE
  8
0
 10
15.2021
 20
54.7979
 11
15.0927
 21
54.6977
  0
LINE
  8
0
 10
15.0927
 20
54.6977
 11
14.9751
 21
54.6075
  0
LINE
  8
0
 10
14.9751
 20
54.6075
 11
14.85
 21
54.5278
  0
LINE
  8
0
 10
14.85
 20
54.5278
 11
14.7184
 21
54.4593
  0
LINE
  8
0
 10
14.7184
 20
54.4593
 11
14.5814
 21
54.4025
  0
LINE
  8
0
 10
14.5814
 20
54.4025
 11
14.44
 21
54.3579
  0
LINE
  8
0
 10
14.44
 20
54.3579
 11
14.2952
 21
54.3258
  0
LINE
  8
0
 10
14.2952
 20
54.3258
 11
14.1482
 21
54.3065
  0
LINE
  8
0
 10
14.1482
 20
54.3065
 11
14
 21
54.3
  0
LINE
  8
0
 10
14
 20
54.3
 11
13.8518
 21
54.3065
  0
LINE
  8
0
 10
45.8518
 20
54.3065
 11
45.7048
 21
54.3258
  0
LINE
  8
0
 10
45.7048
 20
54.3258
 11
45.56
 21
54.3579
  0
LINE
  8
0
 10
45.56
 20
54.3579
 11
45.4186
 21
54.4025
  0
LINE
  8
0
 10
45.4186
 20
54.4025
 11
45.2816
 21
54.4593
  0
LINE
  8
0
 10
45.2816
 20
54.4593
 11
45.15
 21
54.5278
  0
LINE
  8
0
 10
45.15
 20
54.5278
 11
45.0249
 21
54.6075
  0
LINE
  8
0
 10
45.0249
 20
54.6075
 11
44.9073
 21
54.6977
  0
LINE
  8
0
 10
44.9073
 20
54.6977
 11
44.7979
 21
54.7979
  0
LINE
  8
0
 10
44.7979
 20
54.7979
 11
44.6977
 21
54.9073
  0
LINE
  8
0
 10
44.6977
 20
54.9073
 11
44.6075
 21
55.0249
  0
LINE
  8
0
 10
44.6075
 20
55.0249
 11
44.5278
 21
55.15
  0
LINE
  8
0
 10
44.5278
 20
55.15
 11
44.4593
 21
55.2816
  0
LINE
  8
0
 10
44.4593
 20
55.2816
 11
44.4025
 21
55.4186
  0
LINE
  8
0
 10
44.4025
 20
55.4186
 11
44.3579
 21
55.56
  0
LINE
  8
0
 10
44.3579
 20
55.56
 11
44.3258
 21
55.7048
  0
LINE
  8
0
 10
44.3258
 20
55.7048
 11
44.3065
 21
55.8518
  0
LINE
  8
0
 10
44.3065
 20
55.8518
 11
44.3
 21
56
  0
LINE
  8
0
 10
44.3
 20
56
 11
44.3065
 21
56.1482
  0
LINE
  8
0
 10
44.3065
 20
56.1482
 11
44.3258
 21
56.2952
  0
LINE
  8
0
 10
44.3258
 20
56.2952
 11
44.3579
 21
56.44
  0
LINE
  8
0
 10
44.3579
 20
56.44
 11
44.4025
 21
56.5814
  0
LINE
  8
0
 10
44.4025
 20
56.5814
 11
44.4593
 21
56.7185
  0
LINE
  8
0
 10
44.4593
 20
56.7185
 11
44.5278
 21
56.85
  0
LINE
  8
0
 10
44.5278
 20
56.85
 11
44.6075
 21
56.9751
  0
LINE
  8
0
 10
44.6075
 20
56.9751
 11
44.6977
 21
57.0927
  0
LINE
  8
0
 10
44.6977
 20
57.0927
 11
44.7979
 21
57.2021
  0
LINE
  8
0
 10
44.7979
 20
57.2021
 11
44.9073
 21
57.3023
  0
LINE
  8
0
 10
44.9073
 20
57.3023
 11
45.0249
 21
57.3926
  0
LINE
  8
0
 10
45.0249
 20
57.3926
 11
45.15
 21
57.4722
  0
LINE
  8
0
 10
45.15
 20
57.4722
 11
45.2816
 21
57.5407
  0
LINE
  8
0
 10
45.2816
 20
57.5407
 11
45.4186
 21
57.5975
  0
LINE
  8
0
 10
45.4186
 20
57.5975
 11
45.56
 21
57.6421
  0
LINE
  8
0
 10
45.56
 20
57.6421
 11
45.7048
 21
57.6742
  0
LINE
  8
0
 10
45.7048
 20
57.6742
 11
45.8518
 21
57.6935
  0
LINE
  8
0
 10
45.8518
 20
57.6935
 11
46
 21
57.7
  0
LINE
  8
0
 10
46
 20
57.7
 11
46.1482
 21
57.6935
  0
LINE
  8
0
 10
46.1482
 20
57.6935
 11
46.2952
 21
57.6742
  0
LINE
  8
0
 10
46.2952
 20
57.6742
 11
46.44
 21
57.6421
  0
LINE
  8
0
 10
46.44
 20
57.6421
 11
46.5814
 21
57.5975
  0
LINE
  8
0
 10
46.5814
 20
57.5975
 11
46.7185
 21
57.5407
  0
LINE
  8
0
 10
46.7185
 20
57.5407
 11
46.85
 21
57.4722
  0
LINE
  8
0
 10
46.85
 20
57.4722
 11
46.9751
 21
57.3926
  0
LINE
  8
0
 10
46.9751
 20
57.3926
 11
47.0927
 21
57.3023
  0
LINE
  8
0
 10
47.0927
 20
57.3023
 11
47.2021
 21
57.2021
  0
LINE
  8
0
 10
47.2021
 20
57.2021
 11
47.3023
 21
57.0927
  0
LINE
  8
0
 10
47.3023
 20
57.0927
 11
47.3926
 21
56.9751
  0
LINE
  8
0
 10
47.3926
 20
56.9751
 11
47.4722
 21
56.85
  0
LINE
  8
0
 10
47.4722
 20
56.85
 11
47.5407
 21
56.7185
  0
LINE
  8
0
 10
47.5407
 20
56.7185
 11
47.5975
 21
56.5814
  0
LINE
  8
0
 10
47.5975
 20
56.5814
 11
47.6421
 21
56.44
  0
LINE
  8
0
 10
47.6421
 20
56.44
 11
47.6742
 21
56.2952
  0
LINE
  8
0
 10
47.6742
 20
56.2952
 11
47.6935
 21
56.1482
  0
LINE
  8
0
 10
47.6935
 20
56.1482
 11
47.7
 21
56
  0
LINE
  8
0
 10
47.7
 20
56
 11
47.6935
 21
55.8518
  0
LINE
  8
0
 10
47.6935
 20
55.8518
 11
47.6742
 21
55.7048
  0
LINE
  8
0
 10
47.6742
 20
55.7048
 11
47.6421
 21
55.56
  0
LINE
  8
0
 10
47.6421
 20
55.56
 11
47.5975
 21
55.4186
  0
LINE
  8
0
 10
47.5975
 20
55.4186
 11
47.5407
 21
55.2816
  0
LINE
  8
0
 10
47.5407
 20
55.2816
 11
47.4722
 21
55.15
  0
LINE
  8
0
 10
47.4722
 20
55.15
 11
47.3926
 21
55.0249
  0
LINE
  8
0
 10
47.3926
 20
55.0249
 11
47.3023
 21
54.9073
  0
LINE
  8
0
 10
47.3023
 20
54.9073
 11
47.2021
 21
54.7979
  0
LINE
  8
0
 10
47.2021
 20
54.7979
 11
47.0927
 21
54.6977
  0
LINE
  8
0
 10
47.0927
 20
54.6977
 11
46.9751
 21
54.6075
  0
LINE
  8
0
 10
46.9751
 20
54.6075
 11
46.85
 21
54.5278
  0
LINE
  8
0
 10
46.85
 20
54.5278
 11
46.7185
 21
54.4593
  0
LINE
  8
0
 10
46.7185
 20
54.4593
 11
46.5814
 21
54.4025
  0
LINE
  8
0
 10
46.5814
 20
54.4025
 11
46.44
 21
54.3579
  0
LINE
  8
0
 10
46.44
 20
54.3579
 11
46.2952
 21
54.3258
  0
LINE
  8
0
 10
46.2952
 20
54.3258
 11
46.1482
 21
54.3065
  0
LINE
  8
0
 10
46.1482
 20
54.3065
 11
46
 21
54.3
  0
LINE
  8
0
 10
46
 20
54.3
 11
45.8518
 21
54.3065
  0
LINE
  8
0
 10
73.8518
 20
54.3065
 11
73.7048
 21
54.3258
  0
LINE
  8
0
 10
73.7048
 20
54.3258
 11
73.56
 21
54.3579
  0
LINE
  8
0
 10
73.56
 20
54.3579
 11
73.4186
 21
54.4025
  0
LINE
  8
0
 10
73.4186
 20
54.4025
 11
73.2815
 21
54.4593
  0
LINE
  8
0
 10
73.2815
 20
54.4593
 11
73.15
 21
54.5278
  0
LINE
  8
0
 10
73.15
 20
54.5278
 11
73.0249
 21
54.6075
  0
LINE
  8
0
 10
73.0249
 20
54.6075
 11
72.9073
 21
54.6977
  0
LINE
  8
0
 10
72.9073
 20
54.6977
 11
72.7979
 21
54.7979
  0
LINE
  8
0
 10
72.7979
 20
54.7979
 11
72.6977
 21
54.9073
  0
LINE
  8
0
 10
72.6977
 20
54.9073
 11
72.6074
 21
55.0249
  0
LINE
  8
0
 10
72.6074
 20
55.0249
 11
72.5278
 21
55.15
  0
LINE
  8
0
 10
72.5278
 20
55.15
 11
72.4593
 21
55.2816
  0
LINE
  8
0
 10
72.4593
 20
55.2816
 11
72.4025
 21
55.4186
  0
LINE
  8
0
 10
72.4025
 20
55.4186
 11
72.3579
 21
55.56
  0
LINE
  8
0
 10
72.3579
 20
55.56
 11
72.3258
 21
55.7048
  0
LINE
  8
0
 10
72.3258
 20
55.7048
 11
72.3065
 21
55.8518
  0
LINE
  8
0
 10
72.3065
 20
55.8518
 11
72.3
 21
56
  0
LINE
  8
0
 10
72.3
 20
56
 11
72.3065
 21
56.1482
  0
LINE
  8
0
 10
72.3065
 20
56.1482
 11
72.3258
 21
56.2952
  0
LINE
  8
0
 10
72.3258
 20
56.2952
 11
72.3579
 21
56.44
  0
LINE
  8
0
 10
72.3579
 20
56.44
 11
72.4025
 21
56.5814
  0
LINE
  8
0
 10
72.4025
 20
56.5814
 11
72.4593
 21
56.7185
  0
LINE
  8
0
 10
72.4593
 20
56.7185
 11
72.5278
 21
56.85
  0
LINE
  8
0
 10
72.5278
 20
56.85
 11
72.6074
 21
56.9751
  0
LINE
  8
0
 10
72.6074
 20
56.9751
 11
72.6977
 21
57.0927
  0
LINE
  8
0
 10
72.6977
 20
57.0927
 11
72.7979
 21
57.2021
  0
LINE
  8
0
 10
72.7979
 20
57.2021
 11
72.9073
 21
57.3023
  0
LINE
  8
0
 10
72.9073
 20
57.3023
 11
73.0249
 21
57.3926
  0
LINE
  8
0
 10
73.0249
 20
57.3926
 11
73.15
 21
57.4722
  0
LINE
  8
0
 10
73.15
 20
57.4722
 11
73.2815
 21
57.5407
  0
LINE
  8
0
 10
73.2815
 20
57.5407
 11
73.4186
 21
57.5975
  0
LINE
  8
0
 10
73.4186
 20
57.5975
 11
73.56
 21
57.6421
  0
LINE
  8
0
 10
73.56
 20
57.6421
 11
73.7048
 21
57.6742
  0
LINE
  8
0
 10
73.7048
 20
57.6742
 11
73.8518
 21
57.6935
  0
LINE
  8
0
 10
73.8518
 20
57.6935
 11
74
 21
57.7
  0
LINE
  8
0
 10
74
 20
57.7
 11
74.1482
 21
57.6935
  0
LINE
  8
0
 10
74.1482
 20
57.6935
 11
74.2952
 21
57.6742
  0
LINE
  8
0
 10
74.2952
 20
57.6742
 11
74.44
 21
57.6421
  0
LINE
  8
0
 10
74.44
 20
57.6421
 11
74.5814
 21
57.5975
  0
LINE
  8
0
 10
74.5814
 20
57.5975
 11
74.7184
 21
57.5407
  0
LINE
  8
0
 10
74.7184
 20
57.5407
 11
74.85
 21
57.4722
  0
LINE
  8
0
 10
74.85
 20
57.4722
 11
74.9751
 21
57.3926
  0
LINE
  8
0
 10
74.9751
 20
57.3926
 11
75.0927
 21
57.3023
  0
LINE
  8
0
 10
75.0927
 20
57.3023
 11
75.2021
 21
57.2021
  0
LINE
  8
0
 10
75.2021
 20
57.2021
 11
75.3023
 21
57.0927
  0
LINE
  8
0
 10
75.3023
 20
57.0927
 11
75.3925
 21
56.9751
  0
LINE
  8
0
 10
75.3925
 20
56.9751
 11
75.4722
 21
56.85
  0
LINE
  8
0
 10
75.4722
 20
56.85
 11
75.5407
 21
56.7185
  0
LINE
  8
0
 10
75.5407
 20
56.7185
 11
75.5975
 21
56.5814
  0
LINE
  8
0
 10
75.5975
 20
56.5814
 11
75.6421
 21
56.44
  0
LINE
  8
0
 10
75.6421
 20
56.44
 11
75.6742
 21
56.2952
  0
LINE
  8
0
 10
75.6742
 20
56.2952
 11
75.6935
 21
56.1482
  0
LINE
  8
0
 10
75.6935
 20
56.1482
 11
75.7
 21
56
  0
LINE
  8
0
 10
75.7
 20
56
 11
75.6935
 21
55.8518
  0
LINE
  8
0
 10
75.6935
 20
55.8518
 11
75.6742
 21
55.7048
  0
LINE
  8
0
 10
75.6742
 20
55.7048
 11
75.6421
 21
55.56
  0
LINE
  8
0
 10
75.6421
 20
55.56
 11
75.5975
 21
55.4186
  0
LINE
  8
0
 10
75.5975
 20
55.4186
 11
75.5407
 21
55.2816
  0
LINE
  8
0
 10
75.5407
 20
55.2816
 11
75.4722
 21
55.15
  0
LINE
  8
0
 10
75.4722
 20
55.15
 11
75.3925
 21
55.0249
  0
LINE
  8
0
 10
75.3925
 20
55.0249
 11
75.3023
 21
54.9073
  0
LINE
  8
0
 10
75.3023
 20
54.9073
 11
75.2021
 21
54.7979
  0
LINE
  8
0
 10
75.2021
 20
54.7979
 11
75.0927
 21
54.6977
  0
LINE
  8
0
 10
75.0927
 20
54.6977
 11
74.9751
 21
54.6075
  0
LINE
  8
0
 10
74.9751
 20
54.6075
 11
74.85
 21
54.5278
  0
LINE
  8
0
 10
74.85
 20
54.5278
 11
74.7184
 21
54.4593
  0
LINE
  8
0
 10
74.7184
 20
54.4593
 11
74.5814
 21
54.4025
  0
LINE
  8
0
 10
74.5814
 20
54.4025
 11
74.44
 21
54.3579
  0
LINE
  8
0
 10
74.44
 20
54.3579
 11
74.2952
 21
54.3258
  0
LINE
  8
0
 10
74.2952
 20
54.3258
 11
74.1482
 21
54.3065
  0
LINE
  8
0
 10
74.1482
 20
54.3065
 11
74
 21
54.3
  0
LINE
  8
0
 10
74
 20
54.3
 11
73.8518
 21
54.3065
  0
LINE
  8
0
 10
-140.697
 20
37.0305
 11
-141.389
 21
37.1216
  0
LINE
  8
0
 10
-141.389
 20
37.1216
 11
-142.071
 21
37.2726
  0
LINE
  8
0
 10
-142.071
 20
37.2726
 11
-142.736
 21
37.4825
  0
LINE
  8
0
 10
-142.736
 20
37.4825
 11
-143.381
 21
37.7495
  0
LINE
  8
0
 10
-143.381
 20
37.7495
 11
-144
 21
38.0718
  0
LINE
  8
0
 10
-144
 20
38.0718
 11
-144.589
 21
38.4468
  0
LINE
  8
0
 10
-144.589
 20
38.4468
 11
-145.142
 21
38.8717
  0
LINE
  8
0
 10
-145.142
 20
38.8717
 11
-145.657
 21
39.3432
  0
LINE
  8
0
 10
-145.657
 20
39.3432
 11
-146.128
 21
39.8577
  0
LINE
  8
0
 10
-146.128
 20
39.8577
 11
-146.553
 21
40.4114
  0
LINE
  8
0
 10
-146.553
 20
40.4114
 11
-146.928
 21
41
  0
LINE
  8
0
 10
-146.928
 20
41
 11
-147.25
 21
41.6191
  0
LINE
  8
0
 10
-147.25
 20
41.6191
 11
-147.518
 21
42.2638
  0
LINE
  8
0
 10
-147.518
 20
42.2638
 11
-147.727
 21
42.9295
  0
LINE
  8
0
 10
-147.727
 20
42.9295
 11
-147.878
 21
43.6108
  0
LINE
  8
0
 10
-147.878
 20
43.6108
 11
-147.97
 21
44.3028
  0
LINE
  8
0
 10
-147.97
 20
44.3028
 11
-148
 21
45
  0
LINE
  8
0
 10
-148
 20
45
 11
-147.97
 21
45.6972
  0
LINE
  8
0
 10
-147.97
 20
45.6972
 11
-147.878
 21
46.3892
  0
LINE
  8
0
 10
-147.878
 20
46.3892
 11
-147.727
 21
47.0705
  0
LINE
  8
0
 10
-147.727
 20
47.0705
 11
-147.518
 21
47.7362
  0
LINE
  8
0
 10
-147.518
 20
47.7362
 11
-147.25
 21
48.3809
  0
LINE
  8
0
 10
-147.25
 20
48.3809
 11
-146.928
 21
49
  0
LINE
  8
0
 10
-146.928
 20
49
 11
-146.553
 21
49.5886
  0
LINE
  8
0
 10
-146.553
 20
49.5886
 11
-146.128
 21
50.1423
  0
LINE
  8
0
 10
-146.128
 20
50.1423
 11
-145.657
 21
50.6568
  0
LINE
  8
0
 10
-145.657
 20
50.6568
 11
-145.142
 21
51.1283
  0
LINE
  8
0
 10
-145.142
 20
51.1283
 11
-144.589
 21
51.5532
  0
LINE
  8
0
 10
-144.589
 20
51.5532
 11
-144
 21
51.9282
  0
LINE
  8
0
 10
-144
 20
51.9282
 11
-143.381
 21
52.2505
  0
LINE
  8
0
 10
-143.381
 20
52.2505
 11
-142.736
 21
52.5175
  0
LINE
  8
0
 10
-142.736
 20
52.5175
 11
-142.071
 21
52.7274
  0
LINE
  8
0
 10
-142.071
 20
52.7274
 11
-141.389
 21
52.8784
  0
LINE
  8
0
 10
-141.389
 20
52.8784
 11
-140.697
 21
52.9695
  0
LINE
  8
0
 10
-140.697
 20
52.9695
 11
-140
 21
53
  0
LINE
  8
0
 10
-140
 20
53
 11
-139.303
 21
52.9695
  0
LINE
  8
0
 10
-139.303
 20
52.9695
 11
-138.611
 21
52.8784
  0
LINE
  8
0
 10
-138.611
 20
52.8784
 11
-137.929
 21
52.7274
  0
LINE
  8
0
 10
-137.929
 20
52.7274
 11
-137.264
 21
52.5175
  0
LINE
  8
0
 10
-137.264
 20
52.5175
 11
-136.619
 21
52.2505
  0
LINE
  8
0
 10
-136.619
 20
52.2505
 11
-136
 21
51.9282
  0
LINE
  8
0
 10
-136
 20
51.9282
 11
-135.411
 21
51.5532
  0
LINE
  8
0
 10
-135.411
 20
51.5532
 11
-134.858
 21
51.1283
  0
LINE
  8
0
 10
-134.858
 20
51.1283
 11
-134.343
 21
50.6568
  0
LINE
  8
0
 10
-134.343
 20
50.6568
 11
-133.872
 21
50.1423
  0
LINE
  8
0
 10
-133.872
 20
50.1423
 11
-133.447
 21
49.5886
  0
LINE
  8
0
 10
-133.447
 20
49.5886
 11
-133.072
 21
49
  0
LINE
  8
0
 10
-133.072
 20
49
 11
-132.75
 21
48.3809
  0
LINE
  8
0
 10
-132.75
 20
48.3809
 11
-132.482
 21
47.7362
  0
LINE
  8
0
 10
-132.482
 20
47.7362
 11
-132.273
 21
47.0705
  0
LINE
  8
0
 10
-132.273
 20
47.0705
 11
-132.122
 21
46.3892
  0
LINE
  8
0
 10
-132.122
 20
46.3892
 11
-132.03
 21
45.6972
  0
LINE
  8
0
 10
-132.03
 20
45.6972
 11
-132
 21
45
  0
LINE
  8
0
 10
-132
 20
45
 11
-132.03
 21
44.3028
  0
LINE
  8
0
 10
-132.03
 20
44.3028
 11
-132.122
 21
43.6108
  0
LINE
  8
0
 10
-132.122
 20
43.6108
 11
-132.273
 21
42.9295
  0
LINE
  8
0
 10
-132.273
 20
42.9295
 11
-132.482
 21
42.2638
  0
LINE
  8
0
 10
-132.482
 20
42.2638
 11
-132.75
 21
41.6191
  0
LINE
  8
0
 10
-132.75
 20
41.6191
 11
-133.072
 21
41
  0
LINE
  8
0
 10
-133.072
 20
41
 11
-133.447
 21
40.4114
  0
LINE
  8
0
 10
-133.447
 20
40.4114
 11
-133.872
 21
39.8577
  0
LINE
  8
0
 10
-133.872
 20
39.8577
 11
-134.343
 21
39.3432
  0
LINE
  8
0
 10
-134.343
 20
39.3432
 11
-134.858
 21
38.8717
  0
LINE
  8
0
 10
-134.858
 20
38.8717
 11
-135.411
 21
38.4468
  0
LINE
  8
0
 10
-135.411
 20
38.4468
 11
-136
 21
38.0718
  0
LINE
  8
0
 10
-136
 20
38.0718
 11
-136.619
 21
37.7495
  0
LINE
  8
0
 10
-136.619
 20
37.7495
 11
-137.264
 21
37.4825
  0
LINE
  8
0
 10
-137.264
 20
37.4825
 11
-137.929
 21
37.2726
  0
LINE
  8
0
 10
-137.929
 20
37.2726
 11
-138.611
 21
37.1216
  0
LINE
  8
0
 10
-138.611
 20
37.1216
 11
-139.303
 21
37.0305
  0
LINE
  8
0
 10
-139.303
 20
37.0305
 11
-140
 21
37
  0
LINE
  8
0
 10
-140
 20
37
 11
-140.697
 21
37.0305
  0
LINE
  8
0
 10
-126.148
 20
29.3065
 11
-126.295
 21
29.3258
  0
LINE
  8
0
 10
-126.295
 20
29.3258
 11
-126.44
 21
29.3579
  0
LINE
  8
0
 10
-126.44
 20
29.3579
 11
-126.581
 21
29.4025
  0
LINE
  8
0
 10
-126.581
 20
29.4025
 11
-126.718
 21
29.4593
  0
LINE
  8
0
 10
-126.718
 20
29.4593
 11
-126.85
 21
29.5278
  0
LINE
  8
0
 10
-126.85
 20
29.5278
 11
-126.975
 21
29.6075
  0
LINE
  8
0
 10
-126.975
 20
29.6075
 11
-127.093
 21
29.6977
  0
LINE
  8
0
 10
-127.093
 20
29.6977
 11
-127.202
 21
29.7979
  0
LINE
  8
0
 10
-127.202
 20
29.7979
 11
-127.302
 21
29.9073
  0
LINE
  8
0
 10
-127.302
 20
29.9073
 11
-127.393
 21
30.0249
  0
LINE
  8
0
 10
-127.393
 20
30.0249
 11
-127.472
 21
30.15
  0
LINE
  8
0
 10
-127.472
 20
30.15
 11
-127.541
 21
30.2816
  0
LINE
  8
0
 10
-127.541
 20
30.2816
 11
-127.597
 21
30.4186
  0
LINE
  8
0
 10
-127.597
 20
30.4186
 11
-127.642
 21
30.56
  0
LINE
  8
0
 10
-127.642
 20
30.56
 11
-127.674
 21
30.7048
  0
LINE
  8
0
 10
-127.674
 20
30.7048
 11
-127.694
 21
30.8518
  0
LINE
  8
0
 10
-127.694
 20
30.8518
 11
-127.7
 21
31
  0
LINE
  8
0
 10
-127.7
 20
31
 11
-127.694
 21
31.1482
  0
LINE
  8
0
 10
-127.694
 20
31.1482
 11
-127.674
 21
31.2952
  0
LINE
  8
0
 10
-127.674
 20
31.2952
 11
-127.642
 21
31.44
  0
LINE
  8
0
 10
-127.642
 20
31.44
 11
-127.597
 21
31.5814
  0
LINE
  8
0
 10
-127.597
 20
31.5814
 11
-127.541
 21
31.7185
  0
LINE
  8
0
 10
-127.541
 20
31.7185
 11
-127.472
 21
31.85
  0
LINE
  8
0
 10
-127.472
 20
31.85
 11
-127.393
 21
31.9751
  0
LINE
  8
0
 10
-127.393
 20
31.9751
 11
-127.302
 21
32.0927
  0
LINE
  8
0
 10
-127.302
 20
32.0927
 11
-127.202
 21
32.2021
  0
LINE
  8
0
 10
-127.202
 20
32.2021
 11
-127.093
 21
32.3023
  0
LINE
  8
0
 10
-127.093
 20
32.3023
 11
-126.975
 21
32.3926
  0
LINE
  8
0
 10
-126.975
 20
32.3926
 11
-126.85
 21
32.4722
  0
LINE
  8
0
 10
-126.85
 20
32.4722
 11
-126.718
 21
32.5407
  0
LINE
  8
0
 10
-126.718
 20
32.5407
 11
-126.581
 21
32.5975
  0
LINE
  8
0
 10
-126.581
 20
32.5975
 11
-126.44
 21
32.6421
  0
LINE
  8
0
 10
-126.44
 20
32.6421
 11
-126.295
 21
32.6742
  0
LINE
  8
0
 10
-126.295
 20
32.6742
 11
-126.148
 21
32.6935
  0
LINE
  8
0
 10
-126.148
 20
32.6935
 11
-126
 21
32.7
  0
LINE
  8
0
 10
-126
 20
32.7
 11
-125.852
 21
32.6935
  0
LINE
  8
0
 10
-125.852
 20
32.6935
 11
-125.705
 21
32.6742
  0
LINE
  8
0
 10
-125.705
 20
32.6742
 11
-125.56
 21
32.6421
  0
LINE
  8
0
 10
-125.56
 20
32.6421
 11
-125.419
 21
32.5975
  0
LINE
  8
0
 10
-125.419
 20
32.5975
 11
-125.282
 21
32.5407
  0
LINE
  8
0
 10
-125.282
 20
32.5407
 11
-125.15
 21
32.4722
  0
LINE
  8
0
 10
-125.15
 20
32.4722
 11
-125.025
 21
32.3926
  0
LINE
  8
0
 10
-125.025
 20
32.3926
 11
-124.907
 21
32.3023
  0
LINE
  8
0
 10
-124.907
 20
32.3023
 11
-124.798
 21
32.2021
  0
LINE
  8
0
 10
-124.798
 20
32.2021
 11
-124.698
 21
32.0927
  0
LINE
  8
0
 10
-124.698
 20
32.0927
 11
-124.607
 21
31.9751
  0
LINE
  8
0
 10
-124.607
 20
31.9751
 11
-124.528
 21
31.85
  0
LINE
  8
0
 10
-124.528
 20
31.85
 11
-124.459
 21
31.7185
  0
LINE
  8
0
 10
-124.459
 20
31.7185
 11
-124.403
 21
31.5814
  0
LINE
  8
0
 10
-124.403
 20
31.5814
 11
-124.358
 21
31.44
  0
LINE
  8
0
 10
-124.358
 20
31.44
 11
-124.326
 21
31.2952
  0
LINE
  8
0
 10
-124.326
 20
31.2952
 11
-124.306
 21
31.1482
  0
LINE
  8
0
 10
-124.306
 20
31.1482
 11
-124.3
 21
31
  0
LINE
  8
0
 10
-124.3
 20
31
 11
-124.306
 21
30.8518
  0
LINE
  8
0
 10
-124.306
 20
30.8518
 11
-124.326
 21
30.7048
  0
LINE
  8
0
 10
-124.326
 20
30.7048
 11
-124.358
 21
30.56
  0
LINE
  8
0
 10
-124.358
 20
30.56
 11
-124.403
 21
30.4186
  0
LINE
  8
0
 10
-124.403
 20
30.4186
 11
-124.459
 21
30.2816
  0
LINE
  8
0
 10
-124.459
 20
30.2816
 11
-124.528
 21
30.15
  0
LINE
  8
0
 10
-124.528
 20
30.15
 11
-124.607
 21
30.0249
  0
LINE
  8
0
 10
-124.607
 20
30.0249
 11
-124.698
 21
29.9073
  0
LINE
  8
0
 10
-124.698
 20
29.9073
 11
-124.798
 21
29.7979
  0
LINE
  8
0
 10
-124.798
 20
29.7979
 11
-124.907
 21
29.6977
  0
LINE
  8
0
 10
-124.907
 20
29.6977
 11
-125.025
 21
29.6075
  0
LINE
  8
0
 10
-125.025
 20
29.6075
 11
-125.15
 21
29.5278
  0
LINE
  8
0
 10
-125.15
 20
29.5278
 11
-125.282
 21
29.4593
  0
LINE
  8
0
 10
-125.282
 20
29.4593
 11
-125.419
 21
29.4025
  0
LINE
  8
0
 10
-125.419
 20
29.4025
 11
-125.56
 21
29.3579
  0
LINE
  8
0
 10
-125.56
 20
29.3579
 11
-125.705
 21
29.3258
  0
LINE
  8
0
 10
-125.705
 20
29.3258
 11
-125.852
 21
29.3065
  0
LINE
  8
0
 10
-125.852
 20
29.3065
 11
-126
 21
29.3
  0
LINE
  8
0
 10
-126
 20
29.3
 11
-126.148
 21
29.3065
  0
LINE
  8
0
 10
-154.148
 20
29.3065
 11
-154.295
 21
29.3258
  0
LINE
  8
0
 10
-154.295
 20
29.3258
 11
-154.44
 21
29.3579
  0
LINE
  8
0
 10
-154.44
 20
29.3579
 11
-154.581
 21
29.4025
  0
LINE
  8
0
 10
-154.581
 20
29.4025
 11
-154.718
 21
29.4593
  0
LINE
  8
0
 10
-154.718
 20
29.4593
 11
-154.85
 21
29.5278
  0
LINE
  8
0
 10
-154.85
 20
29.5278
 11
-154.975
 21
29.6075
  0
LINE
  8
0
 10
-154.975
 20
29.6075
 11
-155.093
 21
29.6977
  0
LINE
  8
0
 10
-155.093
 20
29.6977
 11
-155.202
 21
29.7979
  0
LINE
  8
0
 10
-155.202
 20
29.7979
 11
-155.302
 21
29.9073
  0
LINE
  8
0
 10
-155.302
 20
29.9073
 11
-155.393
 21
30.0249
  0
LINE
  8
0
 10
-155.393
 20
30.0249
 11
-155.472
 21
30.15
  0
LINE
  8
0
 10
-155.472
 20
30.15
 11
-155.541
 21
30.2816
  0
LINE
  8
0
 10
-155.541
 20
30.2816
 11
-155.597
 21
30.4186
  0
LINE
  8
0
 10
-155.597
 20
30.4186
 11
-155.642
 21
30.56
  0
LINE
  8
0
 10
-155.642
 20
30.56
 11
-155.674
 21
30.7048
  0
LINE
  8
0
 10
-155.674
 20
30.7048
 11
-155.694
 21
30.8518
  0
LINE
  8
0
 10
-155.694
 20
30.8518
 11
-155.7
 21
31
  0
LINE
  8
0
 10
-155.7
 20
31
 11
-155.694
 21
31.1482
  0
LINE
  8
0
 10
-155.694
 20
31.1482
 11
-155.674
 21
31.2952
  0
LINE
  8
0
 10
-155.674
 20
31.2952
 11
-155.642
 21
31.44
  0
LINE
  8
0
 10
-155.642
 20
31.44
 11
-155.597
 21
31.5814
  0
LINE
  8
0
 10
-155.597
 20
31.5814
 11
-155.541
 21
31.7185
  0
LINE
  8
0
 10
-155.541
 20
31.7185
 11
-155.472
 21
31.85
  0
LINE
  8
0
 10
-155.472
 20
31.85
 11
-155.393
 21
31.9751
  0
LINE
  8
0
 10
-155.393
 20
31.9751
 11
-155.302
 21
32.0927
  0
LINE
  8
0
 10
-155.302
 20
32.0927
 11
-155.202
 21
32.2021
  0
LINE
  8
0
 10
-155.202
 20
32.2021
 11
-155.093
 21
32.3023
  0
LINE
  8
0
 10
-155.093
 20
32.3023
 11
-154.975
 21
32.3926
  0
LINE
  8
0
 10
-154.975
 20
32.3926
 11
-154.85
 21
32.4722
  0
LINE
  8
0
 10
-154.85
 20
32.4722
 11
-154.718
 21
32.5407
  0
LINE
  8
0
 10
-154.718
 20
32.5407
 11
-154.581
 21
32.5975
  0
LINE
  8
0
 10
-154.581
 20
32.5975
 11
-154.44
 21
32.6421
  0
LINE
  8
0
 10
-154.44
 20
32.6421
 11
-154.295
 21
32.6742
  0
LINE
  8
0
 10
-154.295
 20
32.6742
 11
-154.148
 21
32.6935
  0
LINE
  8
0
 10
-154.148
 20
32.6935
 11
-154
 21
32.7
  0
LINE
  8
0
 10
-154
 20
32.7
 11
-153.852
 21
32.6935
  0
LINE
  8
0
 10
-153.852
 20
32.6935
 11
-153.705
 21
32.6742
  0
LINE
  8
0
 10
-153.705
 20
32.6742
 11
-153.56
 21
32.6421
  0
LINE
  8
0
 10
-153.56
 20
32.6421
 11
-153.419
 21
32.5975
  0
LINE
  8
0
 10
-153.419
 20
32.5975
 11
-153.282
 21
32.5407
  0
LINE
  8
0
 10
-153.282
 20
32.5407
 11
-153.15
 21
32.4722
  0
LINE
  8
0
 10
-153.15
 20
32.4722
 11
-153.025
 21
32.3926
  0
LINE
  8
0
 10
-153.025
 20
32.3926
 11
-152.907
 21
32.3023
  0
LINE
  8
0
 10
-152.907
 20
32.3023
 11
-152.798
 21
32.2021
  0
LINE
  8
0
 10
-152.798
 20
32.2021
 11
-152.698
 21
32.0927
  0
LINE
  8
0
 10
-152.698
 20
32.0927
 11
-152.607
 21
31.9751
  0
LINE
  8
0
 10
-152.607
 20
31.9751
 11
-152.528
 21
31.85
  0
LINE
  8
0
 10
-152.528
 20
31.85
 11
-152.459
 21
31.7185
  0
LINE
  8
0
 10
-152.459
 20
31.7185
 11
-152.403
 21
31.5814
  0
LINE
  8
0
 10
-152.403
 20
31.5814
 11
-152.358
 21
31.44
  0
LINE
  8
0
 10
-152.358
 20
31.44
 11
-152.326
 21
31.2952
  0
LINE
  8
0
 10
-152.326
 20
31.2952
 11
-152.306
 21
31.1482
  0
LINE
  8
0
 10
-152.306
 20
31.1482
 11
-152.3
 21
31
  0
LINE
  8
0
 10
-152.3
 20
31
 11
-152.306
 21
30.8518
  0
LINE
  8
0
 10
-152.306
 20
30.8518
 11
-152.326
 21
30.7048
  0
LINE
  8
0
 10
-152.326
 20
30.7048
 11
-152.358
 21
30.56
  0
LINE
  8
0
 10
-152.358
 20
30.56
 11
-152.403
 21
30.4186
  0
LINE
  8
0
 10
-152.403
 20
30.4186
 11
-152.459
 21
30.2816
  0
LINE
  8
0
 10
-152.459
 20
30.2816
 11
-152.528
 21
30.15
  0
LINE
  8
0
 10
-152.528
 20
30.15
 11
-152.607
 21
30.0249
  0
LINE
  8
0
 10
-152.607
 20
30.0249
 11
-152.698
 21
29.9073
  0
LINE
  8
0
 10
-152.698
 20
29.9073
 11
-152.798
 21
29.7979
  0
LINE
  8
0
 10
-152.798
 20
29.7979
 11
-152.907
 21
29.6977
  0
LINE
  8
0
 10
-152.907
 20
29.6977
 11
-153.025
 21
29.6075
  0
LINE
  8
0
 10
-153.025
 20
29.6075
 11
-153.15
 21
29.5278
  0
LINE
  8
0
 10
-153.15
 20
29.5278
 11
-153.282
 21
29.4593
  0
LINE
  8
0
 10
-153.282
 20
29.4593
 11
-153.419
 21
29.4025
  0
LINE
  8
0
 10
-153.419
 20
29.4025
 11
-153.56
 21
29.3579
  0
LINE
  8
0
 10
-153.56
 20
29.3579
 11
-153.705
 21
29.3258
  0
LINE
  8
0
 10
-153.705
 20
29.3258
 11
-153.852
 21
29.3065
  0
LINE
  8
0
 10
-153.852
 20
29.3065
 11
-154
 21
29.3
  0
LINE
  8
0
 10
-154
 20
29.3
 11
-154.148
 21
29.3065
  0
LINE
  8
0
 10
-65.1133
 20
23.7049
 11
-65.2257
 21
23.7197
  0
LINE
  8
0
 10
-65.2257
 20
23.7197
 11
-65.3365
 21
23.7443
  0
LINE
  8
0
 10
-65.3365
 20
23.7443
 11
-65.4446
 21
23.7784
  0
LINE
  8
0
 10
-65.4446
 20
23.7784
 11
-65.5494
 21
23.8218
  0
LINE
  8
0
 10
-65.5494
 20
23.8218
 11
-65.65
 21
23.8742
  0
LINE
  8
0
 10
-65.65
 20
23.8742
 11
-65.7456
 21
23.9351
  0
LINE
  8
0
 10
-65.7456
 20
23.9351
 11
-65.8356
 21
24.0041
  0
LINE
  8
0
 10
-65.8356
 20
24.0041
 11
-65.9192
 21
24.0807
  0
LINE
  8
0
 10
-65.9192
 20
24.0807
 11
-65.9958
 21
24.1644
  0
LINE
  8
0
 10
-65.9958
 20
24.1644
 11
-66.0649
 21
24.2543
  0
LINE
  8
0
 10
-66.0649
 20
24.2543
 11
-66.1258
 21
24.35
  0
LINE
  8
0
 10
-66.1258
 20
24.35
 11
-66.1782
 21
24.4506
  0
LINE
  8
0
 10
-66.1782
 20
24.4506
 11
-66.2216
 21
24.5554
  0
LINE
  8
0
 10
-66.2216
 20
24.5554
 11
-66.2557
 21
24.6635
  0
LINE
  8
0
 10
-66.2557
 20
24.6635
 11
-66.2802
 21
24.7742
  0
LINE
  8
0
 10
-66.2802
 20
24.7742
 11
-66.295
 21
24.8867
  0
LINE
  8
0
 10
-66.295
 20
24.8867
 11
-66.3
 21
25
  0
LINE
  8
0
 10
-66.3
 20
25
 11
-66.295
 21
25.1133
  0
LINE
  8
0
 10
-66.295
 20
25.1133
 11
-66.2802
 21
25.2257
  0
LINE
  8
0
 10
-66.2802
 20
25.2257
 11
-66.2557
 21
25.3365
  0
LINE
  8
0
 10
-66.2557
 20
25.3365
 11
-66.2216
 21
25.4446
  0
LINE
  8
0
 10
-66.2216
 20
25.4446
 11
-66.1782
 21
25.5494
  0
LINE
  8
0
 10
-66.1782
 20
25.5494
 11
-66.1258
 21
25.65
  0
LINE
  8
0
 10
-66.1258
 20
25.65
 11
-66.0649
 21
25.7456
  0
LINE
  8
0
 10
-66.0649
 20
25.7456
 11
-65.9958
 21
25.8356
  0
LINE
  8
0
 10
-65.9958
 20
25.8356
 11
-65.9192
 21
25.9192
  0
LINE
  8
0
 10
-65.9192
 20
25.9192
 11
-65.8356
 21
25.9958
  0
LINE
  8
0
 10
-65.8356
 20
25.9958
 11
-65.7456
 21
26.0649
  0
LINE
  8
0
 10
-65.7456
 20
26.0649
 11
-65.65
 21
26.1258
  0
LINE
  8
0
 10
-65.65
 20
26.1258
 11
-65.5494
 21
26.1782
  0
LINE
  8
0
 10
-65.5494
 20
26.1782
 11
-65.4446
 21
26.2216
  0
LINE
  8
0
 10
-65.4446
 20
26.2216
 11
-65.3365
 21
26.2557
  0
LINE
  8
0
 10
-65.3365
 20
26.2557
 11
-65.2257
 21
26.2802
  0
LINE
  8
0
 10
-65.2257
 20
26.2802
 11
-65.1133
 21
26.295
  0
LINE
  8
0
 10
-65.1133
 20
26.295
 11
-65
 21
26.3
  0
LINE
  8
0
 10
-65
 20
26.3
 11
-64.8867
 21
26.295
  0
LINE
  8
0
 10
-64.8867
 20
26.295
 11
-64.7742
 21
26.2802
  0
LINE
  8
0
 10
-64.7742
 20
26.2802
 11
-64.6635
 21
26.2557
  0
LINE
  8
0
 10
-64.6635
 20
26.2557
 11
-64.5554
 21
26.2216
  0
LINE
  8
0
 10
-64.5554
 20
26.2216
 11
-64.4506
 21
26.1782
  0
LINE
  8
0
 10
-64.4506
 20
26.1782
 11
-64.35
 21
26.1258
  0
LINE
  8
0
 10
-64.35
 20
26.1258
 11
-64.2543
 21
26.0649
  0
LINE
  8
0
 10
-64.2543
 20
26.0649
 11
-64.1644
 21
25.9958
  0
LINE
  8
0
 10
-64.1644
 20
25.9958
 11
-64.0807
 21
25.9192
  0
LINE
  8
0
 10
-64.0807
 20
25.9192
 11
-64.0041
 21
25.8356
  0
LINE
  8
0
 10
-64.0041
 20
25.8356
 11
-63.9351
 21
25.7456
  0
LINE
  8
0
 10
-63.9351
 20
25.7456
 11
-63.8742
 21
25.65
  0
LINE
  8
0
 10
-63.8742
 20
25.65
 11
-63.8218
 21
25.5494
  0
LINE
  8
0
 10
-63.8218
 20
25.5494
 11
-63.7784
 21
25.4446
  0
LINE
  8
0
 10
-63.7784
 20
25.4446
 11
-63.7443
 21
25.3365
  0
LINE
  8
0
 10
-63.7443
 20
25.3365
 11
-63.7197
 21
25.2257
  0
LINE
  8
0
 10
-63.7197
 20
25.2257
 11
-63.7049
 21
25.1133
  0
LINE
  8
0
 10
-63.7049
 20
25.1133
 11
-63.7
 21
25
  0
LINE
  8
0
 10
-63.7
 20
25
 11
-63.7049
 21
24.8867
  0
LINE
  8
0
 10
-63.7049
 20
24.8867
 11
-63.7197
 21
24.7742
  0
LINE
  8
0
 10
-63.7197
 20
24.7742
 11
-63.7443
 21
24.6635
  0
LINE
  8
0
 10
-63.7443
 20
24.6635
 11
-63.7784
 21
24.5554
  0
LINE
  8
0
 10
-63.7784
 20
24.5554
 11
-63.8218
 21
24.4506
  0
LINE
  8
0
 10
-63.8218
 20
24.4506
 11
-63.8742
 21
24.35
  0
LINE
  8
0
 10
-63.8742
 20
24.35
 11
-63.9351
 21
24.2543
  0
LINE
  8
0
 10
-63.9351
 20
24.2543
 11
-64.0041
 21
24.1644
  0
LINE
  8
0
 10
-64.0041
 20
24.1644
 11
-64.0807
 21
24.0807
  0
LINE
  8
0
 10
-64.0807
 20
24.0807
 11
-64.1644
 21
24.0041
  0
LINE
  8
0
 10
-64.1644
 20
24.0041
 11
-64.2543
 21
23.9351
  0
LINE
  8
0
 10
-64.2543
 20
23.9351
 11
-64.35
 21
23.8742
  0
LINE
  8
0
 10
-64.35
 20
23.8742
 11
-64.4506
 21
23.8218
  0
LINE
  8
0
 10
-64.4506
 20
23.8218
 11
-64.5554
 21
23.7784
  0
LINE
  8
0
 10
-64.5554
 20
23.7784
 11
-64.6635
 21
23.7443
  0
LINE
  8
0
 10
-64.6635
 20
23.7443
 11
-64.7742
 21
23.7197
  0
LINE
  8
0
 10
-64.7742
 20
23.7197
 11
-64.8867
 21
23.7049
  0
LINE
  8
0
 10
-64.8867
 20
23.7049
 11
-65
 21
23.7
  0
LINE
  8
0
 10
-65
 20
23.7
 11
-65.1133
 21
23.7049
  0
LINE
  8
0
 10
-85.1133
 20
23.7049
 11
-85.2257
 21
23.7197
  0
LINE
  8
0
 10
-85.2257
 20
23.7197
 11
-85.3365
 21
23.7443
  0
LINE
  8
0
 10
-85.3365
 20
23.7443
 11
-85.4446
 21
23.7784
  0
LINE
  8
0
 10
-85.4446
 20
23.7784
 11
-85.5494
 21
23.8218
  0
LINE
  8
0
 10
-85.5494
 20
23.8218
 11
-85.65
 21
23.8742
  0
LINE
  8
0
 10
-85.65
 20
23.8742
 11
-85.7456
 21
23.9351
  0
LINE
  8
0
 10
-85.7456
 20
23.9351
 11
-85.8356
 21
24.0041
  0
LINE
  8
0
 10
-85.8356
 20
24.0041
 11
-85.9192
 21
24.0807
  0
LINE
  8
0
 10
-85.9192
 20
24.0807
 11
-85.9958
 21
24.1644
  0
LINE
  8
0
 10
-85.9958
 20
24.1644
 11
-86.0649
 21
24.2543
  0
LINE
  8
0
 10
-86.0649
 20
24.2543
 11
-86.1258
 21
24.35
  0
LINE
  8
0
 10
-86.1258
 20
24.35
 11
-86.1782
 21
24.4506
  0
LINE
  8
0
 10
-86.1782
 20
24.4506
 11
-86.2216
 21
24.5554
  0
LINE
  8
0
 10
-86.2216
 20
24.5554
 11
-86.2557
 21
24.6635
  0
LINE
  8
0
 10
-86.2557
 20
24.6635
 11
-86.2802
 21
24.7742
  0
LINE
  8
0
 10
-86.2802
 20
24.7742
 11
-86.295
 21
24.8867
  0
LINE
  8
0
 10
-86.295
 20
24.8867
 11
-86.3
 21
25
  0
LINE
  8
0
 10
-86.3
 20
25
 11
-86.295
 21
25.1133
  0
LINE
  8
0
 10
-86.295
 20
25.1133
 11
-86.2802
 21
25.2257
  0
LINE
  8
0
 10
-86.2802
 20
25.2257
 11
-86.2557
 21
25.3365
  0
LINE
  8
0
 10
-86.2557
 20
25.3365
 11
-86.2216
 21
25.4446
  0
LINE
  8
0
 10
-86.2216
 20
25.4446
 11
-86.1782
 21
25.5494
  0
LINE
  8
0
 10
-86.1782
 20
25.5494
 11
-86.1258
 21
25.65
  0
LINE
  8
0
 10
-86.1258
 20
25.65
 11
-86.0649
 21
25.7456
  0
LINE
  8
0
 10
-86.0649
 20
25.7456
 11
-85.9958
 21
25.8356
  0
LINE
  8
0
 10
-85.9958
 20
25.8356
 11
-85.9192
 21
25.9192
  0
LINE
  8
0
 10
-85.9192
 20
25.9192
 11
-85.8356
 21
25.9958
  0
LINE
  8
0
 10
-85.8356
 20
25.9958
 11
-85.7456
 21
26.0649
  0
LINE
  8
0
 10
-85.7456
 20
26.0649
 11
-85.65
 21
26.1258
  0
LINE
  8
0
 10
-85.65
 20
26.1258
 11
-85.5494
 21
26.1782
  0
LINE
  8
0
 10
-85.5494
 20
26.1782
 11
-85.4446
 21
26.2216
  0
LINE
  8
0
 10
-85.4446
 20
26.2216
 11
-85.3365
 21
26.2557
  0
LINE
  8
0
 10
-85.3365
 20
26.2557
 11
-85.2257
 21
26.2802
  0
LINE
  8
0
 10
-85.2257
 20
26.2802
 11
-85.1133
 21
26.295
  0
LINE
  8
0
 10
-85.1133
 20
26.295
 11
-85
 21
26.3
  0
LINE
  8
0
 10
-85
 20
26.3
 11
-84.8867
 21
26.295
  0
LINE
  8
0
 10
-84.8867
 20
26.295
 11
-84.7742
 21
26.2802
  0
LINE
  8
0
 10
-84.7742
 20
26.2802
 11
-84.6635
 21
26.2557
  0
LINE
  8
0
 10
-84.6635
 20
26.2557
 11
-84.5554
 21
26.2216
  0
LINE
  8
0
 10
-84.5554
 20
26.2216
 11
-84.4506
 21
26.1782
  0
LINE
  8
0
 10
-84.4506
 20
26.1782
 11
-84.35
 21
26.1258
  0
LINE
  8
0
 10
-84.35
 20
26.1258
 11
-84.2543
 21
26.0649
  0
LINE
  8
0
 10
-84.2543
 20
26.0649
 11
-84.1644
 21
25.9958
  0
LINE
  8
0
 10
-84.1644
 20
25.9958
 11
-84.0807
 21
25.9192
  0
LINE
  8
0
 10
-84.0807
 20
25.9192
 11
-84.0041
 21
25.8356
  0
LINE
  8
0
 10
-84.0041
 20
25.8356
 11
-83.9351
 21
25.7456
  0
LINE
  8
0
 10
-83.9351
 20
25.7456
 11
-83.8742
 21
25.65
  0
LINE
  8
0
 10
-83.8742
 20
25.65
 11
-83.8218
 21
25.5494
  0
LINE
  8
0
 10
-83.8218
 20
25.5494
 11
-83.7784
 21
25.4446
  0
LINE
  8
0
 10
-83.7784
 20
25.4446
 11
-83.7443
 21
25.3365
  0
LINE
  8
0
 10
-83.7443
 20
25.3365
 11
-83.7197
 21
25.2257
  0
LINE
  8
0
 10
-83.7197
 20
25.2257
 11
-83.7049
 21
25.1133
  0
LINE
  8
0
 10
-83.7049
 20
25.1133
 11
-83.7
 21
25
  0
LINE
  8
0
 10
-83.7
 20
25
 11
-83.7049
 21
24.8867
  0
LINE
  8
0
 10
-83.7049
 20
24.8867
 11
-83.7197
 21
24.7742
  0
LINE
  8
0
 10
-83.7197
 20
24.7742
 11
-83.7443
 21
24.6635
  0
LINE
  8
0
 10
-83.7443
 20
24.6635
 11
-83.7784
 21
24.5554
  0
LINE
  8
0
 10
-83.7784
 20
24.5554
 11
-83.8218
 21
24.4506
  0
LINE
  8
0
 10
-83.8218
 20
24.4506
 11
-83.8742
 21
24.35
  0
LINE
  8
0
 10
-83.8742
 20
24.35
 11
-83.9351
 21
24.2543
  0
LINE
  8
0
 10
-83.9351
 20
24.2543
 11
-84.0041
 21
24.1644
  0
LINE
  8
0
 10
-84.0041
 20
24.1644
 11
-84.0807
 21
24.0807
  0
LINE
  8
0
 10
-84.0807
 20
24.0807
 11
-84.1644
 21
24.0041
  0
LINE
  8
0
 10
-84.1644
 20
24.0041
 11
-84.2543
 21
23.9351
  0
LINE
  8
0
 10
-84.2543
 20
23.9351
 11
-84.35
 21
23.8742
  0
LINE
  8
0
 10
-84.35
 20
23.8742
 11
-84.4506
 21
23.8218
  0
LINE
  8
0
 10
-84.4506
 20
23.8218
 11
-84.5554
 21
23.7784
  0
LINE
  8
0
 10
-84.5554
 20
23.7784
 11
-84.6635
 21
23.7443
  0
LINE
  8
0
 10
-84.6635
 20
23.7443
 11
-84.7742
 21
23.7197
  0
LINE
  8
0
 10
-84.7742
 20
23.7197
 11
-84.8867
 21
23.7049
  0
LINE
  8
0
 10
-84.8867
 20
23.7049
 11
-85
 21
23.7
  0
LINE
  8
0
 10
-85
 20
23.7
 11
-85.1133
 21
23.7049
  0
LINE
  8
0
 10
-0.196091
 20
5.75856
 11
-0.390701
 21
5.78418
  0
LINE
  8
0
 10
-0.390701
 20
5.78418
 11
-0.582336
 21
5.82666
  0
LINE
  8
0
 10
-0.582336
 20
5.82666
 11
-0.769531
 21
5.88568
  0
LINE
  8
0
 10
-0.769531
 20
5.88568
 11
-0.950882
 21
5.9608
  0
LINE
  8
0
 10
-0.950882
 20
5.9608
 11
-1.125
 21
6.05144
  0
LINE
  8
0
 10
-1.125
 20
6.05144
 11
-1.29054
 21
6.15691
  0
LINE
  8
0
 10
-1.29054
 20
6.15691
 11
-1.44626
 21
6.2764
  0
LINE
  8
0
 10
-1.44626
 20
6.2764
 11
-1.59099
 21
6.409
  0
LINE
  8
0
 10
-1.59099
 20
6.409
 11
-1.72359
 21
6.55373
  0
LINE
  8
0
 10
-1.72359
 20
6.55373
 11
-1.84308
 21
6.70944
  0
LINE
  8
0
 10
-1.84308
 20
6.70944
 11
-1.94855
 21
6.875
  0
LINE
  8
0
 10
-1.94855
 20
6.875
 11
-2.03918
 21
7.0491
  0
LINE
  8
0
 10
-2.03918
 20
7.0491
 11
-2.1143
 21
7.23045
  0
LINE
  8
0
 10
-2.1143
 20
7.23045
 11
-2.17332
 21
7.41765
  0
LINE
  8
0
 10
-2.17332
 20
7.41765
 11
-2.21581
 21
7.60928
  0
LINE
  8
0
 10
-2.21581
 20
7.60928
 11
-2.24142
 21
7.80389
  0
LINE
  8
0
 10
-2.24142
 20
7.80389
 11
-2.25
 21
8
  0
LINE
  8
0
 10
-2.25
 20
8
 11
-2.24142
 21
8.19609
  0
LINE
  8
0
 10
-2.24142
 20
8.19609
 11
-2.21581
 21
8.3907
  0
LINE
  8
0
 10
-2.21581
 20
8.3907
 11
-2.17332
 21
8.58234
  0
LINE
  8
0
 10
-2.17332
 20
8.58234
 11
-2.1143
 21
8.76953
  0
LINE
  8
0
 10
-2.1143
 20
8.76953
 11
-2.03918
 21
8.95088
  0
LINE
  8
0
 10
-2.03918
 20
8.95088
 11
-1.94855
 21
9.125
  0
LINE
  8
0
 10
-1.94855
 20
9.125
 11
-1.84308
 21
9.29054
  0
LINE
  8
0
 10
-1.84308
 20
9.29054
 11
-1.72359
 21
9.44626
  0
LINE
  8
0
 10
-1.72359
 20
9.44626
 11
-1.59099
 21
9.59099
  0
LINE
  8
0
 10
-1.59099
 20
9.59099
 11
-1.44626
 21
9.72359
  0
LINE
  8
0
 10
-1.44626
 20
9.72359
 11
-1.29054
 21
9.84308
  0
LINE
  8
0
 10
-1.29054
 20
9.84308
 11
-1.125
 21
9.94855
  0
LINE
  8
0
 10
-1.125
 20
9.94855
 11
-0.950882
 21
10.0392
  0
LINE
  8
0
 10
-0.950882
 20
10.0392
 11
-0.769531
 21
10.1143
  0
LINE
  8
0
 10
-0.769531
 20
10.1143
 11
-0.582336
 21
10.1733
  0
LINE
  8
0
 10
-0.582336
 20
10.1733
 11
-0.390701
 21
10.2158
  0
LINE
  8
0
 10
-0.390701
 20
10.2158
 11
-0.196091
 21
10.2414
  0
LINE
  8
0
 10
-0.196091
 20
10.2414
 11
0
 21
10.25
  0
LINE
  8
0
 10
0
 20
10.25
 11
0.196091
 21
10.2414
  0
LINE
  8
0
 10
0.196091
 20
10.2414
 11
0.390701
 21
10.2158
  0
LINE
  8
0
 10
0.390701
 20
10.2158
 11
0.582336
 21
10.1733
  0
LINE
  8
0
 10
0.582336
 20
10.1733
 11
0.769531
 21
10.1143
  0
LINE
  8
0
 10
0.769531
 20
10.1143
 11
0.950882
 21
10.0392
  0
LINE
  8
0
 10
0.950882
 20
10.0392
 11
1.125
 21
9.94855
  0
LINE
  8
0
 10
1.125
 20
9.94855
 11
1.29054
 21
9.84308
  0
LINE
  8
0
 10
1.29054
 20
9.84308
 11
1.44626
 21
9.72359
  0
LINE
  8
0
 10
1.44626
 20
9.72359
 11
1.59099
 21
9.59099
  0
LINE
  8
0
 10
1.59099
 20
9.59099
 11
1.72359
 21
9.44626
  0
LINE
  8
0
 10
1.72359
 20
9.44626
 11
1.84308
 21
9.29054
  0
LINE
  8
0
 10
1.84308
 20
9.29054
 11
1.94855
 21
9.125
  0
LINE
  8
0
 10
1.94855
 20
9.125
 11
2.03918
 21
8.95088
  0
LINE
  8
0
 10
2.03918
 20
8.95088
 11
2.1143
 21
8.76953
  0
LINE
  8
0
 10
2.1143
 20
8.76953
 11
2.17332
 21
8.58234
  0
LINE
  8
0
 10
2.17332
 20
8.58234
 11
2.21581
 21
8.3907
  0
LINE
  8
0
 10
2.21581
 20
8.3907
 11
2.24142
 21
8.19609
  0
LINE
  8
0
 10
2.24142
 20
8.19609
 11
2.25
 21
8
  0
LINE
  8
0
 10
2.25
 20
8
 11
2.24142
 21
7.80389
  0
LINE
  8
0
 10
2.24142
 20
7.80389
 11
2.21581
 21
7.60928
  0
LINE
  8
0
 10
2.21581
 20
7.60928
 11
2.17332
 21
7.41765
  0
LINE
  8
0
 10
2.17332
 20
7.41765
 11
2.1143
 21
7.23045
  0
LINE
  8
0
 10
2.1143
 20
7.23045
 11
2.03918
 21
7.0491
  0
LINE
  8
0
 10
2.03918
 20
7.0491
 11
1.94855
 21
6.875
  0
LINE
  8
0
 10
1.94855
 20
6.875
 11
1.84308
 21
6.70944
  0
LINE
  8
0
 10
1.84308
 20
6.70944
 11
1.72359
 21
6.55373
  0
LINE
  8
0
 10
1.72359
 20
6.55373
 11
1.59099
 21
6.409
  0
LINE
  8
0
 10
1.59099
 20
6.409
 11
1.44626
 21
6.2764
  0
LINE
  8
0
 10
1.44626
 20
6.2764
 11
1.29054
 21
6.15691
  0
LINE
  8
0
 10
1.29054
 20
6.15691
 11
1.125
 21
6.05144
  0
LINE
  8
0
 10
1.125
 20
6.05144
 11
0.950882
 21
5.9608
  0
LINE
  8
0
 10
0.950882
 20
5.9608
 11
0.769531
 21
5.88568
  0
LINE
  8
0
 10
0.769531
 20
5.88568
 11
0.582336
 21
5.82666
  0
LINE
  8
0
 10
0.582336
 20
5.82666
 11
0.390701
 21
5.78418
  0
LINE
  8
0
 10
0.390701
 20
5.78418
 11
0.196091
 21
5.75856
  0
LINE
  8
0
 10
0.196091
 20
5.75856
 11
0
 21
5.75
  0
LINE
  8
0
 10
0
 20
5.75
 11
-0.196091
 21
5.75856
  0
LINE
  8
0
 10
-157.196
 20
5.75856
 11
-157.391
 21
5.78418
  0
LINE
  8
0
 10
-157.391
 20
5.78418
 11
-157.582
 21
5.82666
  0
LINE
  8
0
 10
-157.582
 20
5.82666
 11
-157.77
 21
5.88568
  0
LINE
  8
0
 10
-157.77
 20
5.88568
 11
-157.951
 21
5.9608
  0
LINE
  8
0
 10
-157.951
 20
5.9608
 11
-158.125
 21
6.05144
  0
LINE
  8
0
 10
-158.125
 20
6.05144
 11
-158.291
 21
6.15691
  0
LINE
  8
0
 10
-158.291
 20
6.15691
 11
-158.446
 21
6.2764
  0
LINE
  8
0
 10
-158.446
 20
6.2764
 11
-158.591
 21
6.409
  0
LINE
  8
0
 10
-158.591
 20
6.409
 11
-158.724
 21
6.55373
  0
LINE
  8
0
 10
-158.724
 20
6.55373
 11
-158.843
 21
6.70944
  0
LINE
  8
0
 10
-158.843
 20
6.70944
 11
-158.949
 21
6.875
  0
LINE
  8
0
 10
-158.949
 20
6.875
 11
-159.039
 21
7.0491
  0
LINE
  8
0
 10
-159.039
 20
7.0491
 11
-159.114
 21
7.23045
  0
LINE
  8
0
 10
-159.114
 20
7.23045
 11
-159.173
 21
7.41765
  0
LINE
  8
0
 10
-159.173
 20
7.41765
 11
-159.216
 21
7.60928
  0
LINE
  8
0
 10
-159.216
 20
7.60928
 11
-159.241
 21
7.80389
  0
LINE
  8
0
 10
-159.241
 20
7.80389
 11
-159.25
 21
8
  0
LINE
  8
0
 10
-159.25
 20
8
 11
-159.241
 21
8.19609
  0
LINE
  8
0
 10
-159.241
 20
8.19609
 11
-159.216
 21
8.3907
  0
LINE
  8
0
 10
-159.216
 20
8.3907
 11
-159.173
 21
8.58234
  0
LINE
  8
0
 10
-159.173
 20
8.58234
 11
-159.114
 21
8.76953
  0
LINE
  8
0
 10
-159.114
 20
8.76953
 11
-159.039
 21
8.95088
  0
LINE
  8
0
 10
-159.039
 20
8.95088
 11
-158.949
 21
9.125
  0
LINE
  8
0
 10
-158.949
 20
9.125
 11
-158.843
 21
9.29054
  0
LINE
  8
0
 10
-158.843
 20
9.29054
 11
-158.724
 21
9.44626
  0
LINE
  8
0
 10
-158.724
 20
9.44626
 11
-158.591
 21
9.59099
  0
LINE
  8
0
 10
-158.591
 20
9.59099
 11
-158.446
 21
9.72359
  0
LINE
  8
0
 10
-158.446
 20
9.72359
 11
-158.291
 21
9.84308
  0
LINE
  8
0
 10
-158.291
 20
9.84308
 11
-158.125
 21
9.94855
  0
LINE
  8
0
 10
-158.125
 20
9.94855
 11
-157.951
 21
10.0392
  0
LINE
  8
0
 10
-157.951
 20
10.0392
 11
-157.77
 21
10.1143
  0
LINE
  8
0
 10
-157.77
 20
10.1143
 11
-157.582
 21
10.1733
  0
LINE
  8
0
 10
-157.582
 20
10.1733
 11
-157.391
 21
10.2158
  0
LINE
  8
0
 10
-157.391
 20
10.2158
 11
-157.196
 21
10.2414
  0
LINE
  8
0
 10
-157.196
 20
10.2414
 11
-157
 21
10.25
  0
LINE
  8
0
 10
-157
 20
10.25
 11
-156.804
 21
10.2414
  0
LINE
  8
0
 10
-156.804
 20
10.2414
 11
-156.609
 21
10.2158
  0
LINE
  8
0
 10
-156.609
 20
10.2158
 11
-156.418
 21
10.1733
  0
LINE
  8
0
 10
-156.418
 20
10.1733
 11
-156.23
 21
10.1143
  0
LINE
  8
0
 10
-156.23
 20
10.1143
 11
-156.049
 21
10.0392
  0
LINE
  8
0
 10
-156.049
 20
10.0392
 11
-155.875
 21
9.94855
  0
LINE
  8
0
 10
-155.875
 20
9.94855
 11
-155.709
 21
9.84308
  0
LINE
  8
0
 10
-155.709
 20
9.84308
 11
-155.554
 21
9.72359
  0
LINE
  8
0
 10
-155.554
 20
9.72359
 11
-155.409
 21
9.59099
  0
LINE
  8
0
 10
-155.409
 20
9.59099
 11
-155.276
 21
9.44626
  0
LINE
  8
0
 10
-155.276
 20
9.44626
 11
-155.157
 21
9.29054
  0
LINE
  8
0
 10
-155.157
 20
9.29054
 11
-155.051
 21
9.125
  0
LINE
  8
0
 10
-155.051
 20
9.125
 11
-154.961
 21
8.95088
  0
LINE
  8
0
 10
-154.961
 20
8.95088
 11
-154.886
 21
8.76953
  0
LINE
  8
0
 10
-154.886
 20
8.76953
 11
-154.827
 21
8.58234
  0
LINE
  8
0
 10
-154.827
 20
8.58234
 11
-154.784
 21
8.3907
  0
LINE
  8
0
 10
-154.784
 20
8.3907
 11
-154.759
 21
8.19609
  0
LINE
  8
0
 10
-154.759
 20
8.19609
 11
-154.75
 21
8
  0
LINE
  8
0
 10
-154.75
 20
8
 11
-154.759
 21
7.80389
  0
LINE
  8
0
 10
-154.759
 20
7.80389
 11
-154.784
 21
7.60928
  0
LINE
  8
0
 10
-154.784
 20
7.60928
 11
-154.827
 21
7.41765
  0
LINE
  8
0
 10
-154.827
 20
7.41765
 11
-154.886
 21
7.23045
  0
LINE
  8
0
 10
-154.886
 20
7.23045
 11
-154.961
 21
7.0491
  0
LINE
  8
0
 10
-154.961
 20
7.0491
 11
-155.051
 21
6.875
  0
LINE
  8
0
 10
-155.051
 20
6.875
 11
-155.157
 21
6.70944
  0
LINE
  8
0
 10
-155.157
 20
6.70944
 11
-155.276
 21
6.55373
  0
LINE
  8
0
 10
-155.276
 20
6.55373
 11
-155.409
 21
6.409
  0
LINE
  8
0
 10
-155.409
 20
6.409
 11
-155.554
 21
6.2764
  0
LINE
  8
0
 10
-155.554
 20
6.2764
 11
-155.709
 21
6.15691
  0
LINE
  8
0
 10
-155.709
 20
6.15691
 11
-155.875
 21
6.05144
  0
LINE
  8
0
 10
-155.875
 20
6.05144
 11
-156.049
 21
5.9608
  0
LINE
  8
0
 10
-156.049
 20
5.9608
 11
-156.23
 21
5.88568
  0
LINE
  8
0
 10
-156.23
 20
5.88568
 11
-156.418
 21
5.82666
  0
LINE
  8
0
 10
-156.418
 20
5.82666
 11
-156.609
 21
5.78418
  0
LINE
  8
0
 10
-156.609
 20
5.78418
 11
-156.804
 21
5.75856
  0
LINE
  8
0
 10
-156.804
 20
5.75856
 11
-157
 21
5.75
  0
LINE
  8
0
 10
-157
 20
5.75
 11
-157.196
 21
5.75856
  0
LINE
  8
0
 10
156.804
 20
5.75856
 11
156.609
 21
5.78418
  0
LINE
  8
0
 10
156.609
 20
5.78418
 11
156.418
 21
5.82666
  0
LINE
  8
0
 10
156.418
 20
5.82666
 11
156.23
 21
5.88568
  0
LINE
  8
0
 10
156.23
 20
5.88568
 11
156.049
 21
5.9608
  0
LINE
  8
0
 10
156.049
 20
5.9608
 11
155.875
 21
6.05144
  0
LINE
  8
0
 10
155.875
 20
6.05144
 11
155.709
 21
6.15691
  0
LINE
  8
0
 10
155.709
 20
6.15691
 11
155.554
 21
6.2764
  0
LINE
  8
0
 10
155.554
 20
6.2764
 11
155.409
 21
6.409
  0
LINE
  8
0
 10
155.409
 20
6.409
 11
155.276
 21
6.55373
  0
LINE
  8
0
 10
155.276
 20
6.55373
 11
155.157
 21
6.70944
  0
LINE
  8
0
 10
155.157
 20
6.70944
 11
155.051
 21
6.875
  0
LINE
  8
0
 10
155.051
 20
6.875
 11
154.961
 21
7.0491
  0
LINE
  8
0
 10
154.961
 20
7.0491
 11
154.886
 21
7.23045
  0
LINE
  8
0
 10
154.886
 20
7.23045
 11
154.827
 21
7.41765
  0
LINE
  8
0
 10
154.827
 20
7.41765
 11
154.784
 21
7.60928
  0
LINE
  8
0
 10
154.784
 20
7.60928
 11
154.759
 21
7.80389
  0
LINE
  8
0
 10
154.759
 20
7.80389
 11
154.75
 21
8
  0
LINE
  8
0
 10
154.75
 20
8
 11
154.759
 21
8.19609
  0
LINE
  8
0
 10
154.759
 20
8.19609
 11
154.784
 21
8.3907
  0
LINE
  8
0
 10
154.784
 20
8.3907
 11
154.827
 21
8.58234
  0
LINE
  8
0
 10
154.827
 20
8.58234
 11
154.886
 21
8.76953
  0
LINE
  8
0
 10
154.886
 20
8.76953
 11
154.961
 21
8.95088
  0
LINE
  8
0
 10
154.961
 20
8.95088
 11
155.051
 21
9.125
  0
LINE
  8
0
 10
155.051
 20
9.125
 11
155.157
 21
9.29054
  0
LINE
  8
0
 10
155.157
 20
9.29054
 11
155.276
 21
9.44626
  0
LINE
  8
0
 10
155.276
 20
9.44626
 11
155.409
 21
9.59099
  0
LINE
  8
0
 10
155.409
 20
9.59099
 11
155.554
 21
9.72359
  0
LINE
  8
0
 10
155.554
 20
9.72359
 11
155.709
 21
9.84308
  0
LINE
  8
0
 10
155.709
 20
9.84308
 11
155.875
 21
9.94855
  0
LINE
  8
0
 10
155.875
 20
9.94855
 11
156.049
 21
10.0392
  0
LINE
  8
0
 10
156.049
 20
10.0392
 11
156.23
 21
10.1143
  0
LINE
  8
0
 10
156.23
 20
10.1143
 11
156.418
 21
10.1733
  0
LINE
  8
0
 10
156.418
 20
10.1733
 11
156.609
 21
10.2158
  0
LINE
  8
0
 10
156.609
 20
10.2158
 11
156.804
 21
10.2414
  0
LINE
  8
0
 10
156.804
 20
10.2414
 11
157
 21
10.25
  0
LINE
  8
0
 10
157
 20
10.25
 11
157.196
 21
10.2414
  0
LINE
  8
0
 10
157.196
 20
10.2414
 11
157.391
 21
10.2158
  0
LINE
  8
0
 10
157.391
 20
10.2158
 11
157.582
 21
10.1733
  0
LINE
  8
0
 10
157.582
 20
10.1733
 11
157.77
 21
10.1143
  0
LINE
  8
0
 10
157.77
 20
10.1143
 11
157.951
 21
10.0392
  0
LINE
  8
0
 10
157.951
 20
10.0392
 11
158.125
 21
9.94855
  0
LINE
  8
0
 10
158.125
 20
9.94855
 11
158.291
 21
9.84308
  0
LINE
  8
0
 10
158.291
 20
9.84308
 11
158.446
 21
9.72359
  0
LINE
  8
0
 10
158.446
 20
9.72359
 11
158.591
 21
9.59099
  0
LINE
  8
0
 10
158.591
 20
9.59099
 11
158.724
 21
9.44626
  0
LINE
  8
0
 10
158.724
 20
9.44626
 11
158.843
 21
9.29054
  0
LINE
  8
0
 10
158.843
 20
9.29054
 11
158.949
 21
9.125
  0
LINE
  8
0
 10
158.949
 20
9.125
 11
159.039
 21
8.95088
  0
LINE
  8
0
 10
159.039
 20
8.95088
 11
159.114
 21
8.76953
  0
LINE
  8
0
 10
159.114
 20
8.76953
 11
159.173
 21
8.58234
  0
LINE
  8
0
 10
159.173
 20
8.58234
 11
159.216
 21
8.3907
  0
LINE
  8
0
 10
159.216
 20
8.3907
 11
159.241
 21
8.19609
  0
LINE
  8
0
 10
159.241
 20
8.19609
 11
159.25
 21
8
  0
LINE
  8
0
 10
159.25
 20
8
 11
159.241
 21
7.80389
  0
LINE
  8
0
 10
159.241
 20
7.80389
 11
159.216
 21
7.60928
  0
LINE
  8
0
 10
159.216
 20
7.60928
 11
159.173
 21
7.41765
  0
LINE
  8
0
 10
159.173
 20
7.41765
 11
159.114
 21
7.23045
  0
LINE
  8
0
 10
159.114
 20
7.23045
 11
159.039
 21
7.0491
  0
LINE
  8
0
 10
159.039
 20
7.0491
 11
158.949
 21
6.875
  0
LINE
  8
0
 10
158.949
 20
6.875
 11
158.843
 21
6.70944
  0
LINE
  8
0
 10
158.843
 20
6.70944
 11
158.724
 21
6.55373
  0
LINE
  8
0
 10
158.724
 20
6.55373
 11
158.591
 21
6.409
  0
LINE
  8
0
 10
158.591
 20
6.409
 11
158.446
 21
6.2764
  0
LINE
  8
0
 10
158.446
 20
6.2764
 11
158.291
 21
6.15691
  0
LINE
  8
0
 10
158.291
 20
6.15691
 11
158.125
 21
6.05144
  0
LINE
  8
0
 10
158.125
 20
6.05144
 11
157.951
 21
5.9608
  0
LINE
  8
0
 10
157.951
 20
5.9608
 11
157.77
 21
5.88568
  0
LINE
  8
0
 10
157.77
 20
5.88568
 11
157.582
 21
5.82666
  0
LINE
  8
0
 10
157.582
 20
5.82666
 11
157.391
 21
5.78418
  0
LINE
  8
0
 10
157.391
 20
5.78418
 11
157.196
 21
5.75856
  0
LINE
  8
0
 10
157.196
 20
5.75856
 11
157
 21
5.75
  0
LINE
  8
0
 10
157
 20
5.75
 11
156.804
 21
5.75856
  0
ENDSEC
  0
SECTION
  2
OBJECTS
  0
DICTIONARY
  0
ENDSEC
  0
EOF
