  0
SECTION
  2
BLOCKS
  0
ENDSEC
  0
SECTION
  2
ENTITIES
  0
LINE
  8
0
 10
65
 20
0
 11
-65
 21
0
  0
LINE
  8
0
 10
-65
 20
0
 11
-65
 21
-170
  0
LINE
  8
0
 10
-65
 20
-170
 11
65
 21
-170
  0
LINE
  8
0
 10
65
 20
-170
 11
65
 21
0
  0
LINE
  8
0
 10
56.8039
 20
-10.2414
 11
56.6093
 21
-10.2158
  0
LINE
  8
0
 10
56.6093
 20
-10.2158
 11
56.4176
 21
-10.1733
  0
LINE
  8
0
 10
56.4176
 20
-10.1733
 11
56.2305
 21
-10.1143
  0
LINE
  8
0
 10
56.2305
 20
-10.1143
 11
56.0491
 21
-10.0392
  0
LINE
  8
0
 10
56.0491
 20
-10.0392
 11
55.875
 21
-9.94855
  0
LINE
  8
0
 10
55.875
 20
-9.94855
 11
55.7094
 21
-9.84308
  0
LINE
  8
0
 10
55.7094
 20
-9.84308
 11
55.5537
 21
-9.72359
  0
LINE
  8
0
 10
55.5537
 20
-9.72359
 11
55.409
 21
-9.59099
  0
LINE
  8
0
 10
55.409
 20
-9.59099
 11
55.2764
 21
-9.44626
  0
LINE
  8
0
 10
55.2764
 20
-9.44626
 11
55.1569
 21
-9.29054
  0
LINE
  8
0
 10
55.1569
 20
-9.29054
 11
55.0514
 21
-9.125
  0
LINE
  8
0
 10
55.0514
 20
-9.125
 11
54.9608
 21
-8.95088
  0
LINE
  8
0
 10
54.9608
 20
-8.95088
 11
54.8857
 21
-8.76953
  0
LINE
  8
0
 10
54.8857
 20
-8.76953
 11
54.8267
 21
-8.58234
  0
LINE
  8
0
 10
54.8267
 20
-8.58234
 11
54.7842
 21
-8.3907
  0
LINE
  8
0
 10
54.7842
 20
-8.3907
 11
54.7586
 21
-8.19609
  0
LINE
  8
0
 10
54.7586
 20
-8.19609
 11
54.75
 21
-8
  0
LINE
  8
0
 10
54.75
 20
-8
 11
54.7586
 21
-7.80389
  0
LINE
  8
0
 10
54.7586
 20
-7.80389
 11
54.7842
 21
-7.60928
  0
LINE
  8
0
 10
54.7842
 20
-7.60928
 11
54.8267
 21
-7.41765
  0
LINE
  8
0
 10
54.8267
 20
-7.41765
 11
54.8857
 21
-7.23045
  0
LINE
  8
0
 10
54.8857
 20
-7.23045
 11
54.9608
 21
-7.0491
  0
LINE
  8
0
 10
54.9608
 20
-7.0491
 11
55.0514
 21
-6.875
  0
LINE
  8
0
 10
55.0514
 20
-6.875
 11
55.1569
 21
-6.70944
  0
LINE
  8
0
 10
55.1569
 20
-6.70944
 11
55.2764
 21
-6.55373
  0
LINE
  8
0
 10
55.2764
 20
-6.55373
 11
55.409
 21
-6.409
  0
LINE
  8
0
 10
55.409
 20
-6.409
 11
55.5537
 21
-6.2764
  0
LINE
  8
0
 10
55.5537
 20
-6.2764
 11
55.7094
 21
-6.15691
  0
LINE
  8
0
 10
55.7094
 20
-6.15691
 11
55.875
 21
-6.05144
  0
LINE
  8
0
 10
55.875
 20
-6.05144
 11
56.0491
 21
-5.9608
  0
LINE
  8
0
 10
56.0491
 20
-5.9608
 11
56.2305
 21
-5.88568
  0
LINE
  8
0
 10
56.2305
 20
-5.88568
 11
56.4176
 21
-5.82666
  0
LINE
  8
0
 10
56.4176
 20
-5.82666
 11
56.6093
 21
-5.78418
  0
LINE
  8
0
 10
56.6093
 20
-5.78418
 11
56.8039
 21
-5.75856
  0
LINE
  8
0
 10
56.8039
 20
-5.75856
 11
57
 21
-5.75
  0
LINE
  8
0
 10
57
 20
-5.75
 11
57.1961
 21
-5.75856
  0
LINE
  8
0
 10
57.1961
 20
-5.75856
 11
57.3907
 21
-5.78418
  0
LINE
  8
0
 10
57.3907
 20
-5.78418
 11
57.5823
 21
-5.82666
  0
LINE
  8
0
 10
57.5823
 20
-5.82666
 11
57.7695
 21
-5.88568
  0
LINE
  8
0
 10
57.7695
 20
-5.88568
 11
57.9509
 21
-5.9608
  0
LINE
  8
0
 10
57.9509
 20
-5.9608
 11
58.125
 21
-6.05144
  0
LINE
  8
0
 10
58.125
 20
-6.05144
 11
58.2905
 21
-6.15691
  0
LINE
  8
0
 10
58.2905
 20
-6.15691
 11
58.4463
 21
-6.2764
  0
LINE
  8
0
 10
58.4463
 20
-6.2764
 11
58.591
 21
-6.409
  0
LINE
  8
0
 10
58.591
 20
-6.409
 11
58.7236
 21
-6.55373
  0
LINE
  8
0
 10
58.7236
 20
-6.55373
 11
58.8431
 21
-6.70944
  0
LINE
  8
0
 10
58.8431
 20
-6.70944
 11
58.9485
 21
-6.875
  0
LINE
  8
0
 10
58.9485
 20
-6.875
 11
59.0392
 21
-7.0491
  0
LINE
  8
0
 10
59.0392
 20
-7.0491
 11
59.1143
 21
-7.23045
  0
LINE
  8
0
 10
59.1143
 20
-7.23045
 11
59.1733
 21
-7.41765
  0
LINE
  8
0
 10
59.1733
 20
-7.41765
 11
59.2158
 21
-7.60928
  0
LINE
  8
0
 10
59.2158
 20
-7.60928
 11
59.2414
 21
-7.80389
  0
LINE
  8
0
 10
59.2414
 20
-7.80389
 11
59.25
 21
-8
  0
LINE
  8
0
 10
59.25
 20
-8
 11
59.2414
 21
-8.19609
  0
LINE
  8
0
 10
59.2414
 20
-8.19609
 11
59.2158
 21
-8.3907
  0
LINE
  8
0
 10
59.2158
 20
-8.3907
 11
59.1733
 21
-8.58234
  0
LINE
  8
0
 10
59.1733
 20
-8.58234
 11
59.1143
 21
-8.76953
  0
LINE
  8
0
 10
59.1143
 20
-8.76953
 11
59.0392
 21
-8.95088
  0
LINE
  8
0
 10
59.0392
 20
-8.95088
 11
58.9485
 21
-9.125
  0
LINE
  8
0
 10
58.9485
 20
-9.125
 11
58.8431
 21
-9.29054
  0
LINE
  8
0
 10
58.8431
 20
-9.29054
 11
58.7236
 21
-9.44626
  0
LINE
  8
0
 10
58.7236
 20
-9.44626
 11
58.591
 21
-9.59099
  0
LINE
  8
0
 10
58.591
 20
-9.59099
 11
58.4463
 21
-9.72359
  0
LINE
  8
0
 10
58.4463
 20
-9.72359
 11
58.2905
 21
-9.84308
  0
LINE
  8
0
 10
58.2905
 20
-9.84308
 11
58.125
 21
-9.94855
  0
LINE
  8
0
 10
58.125
 20
-9.94855
 11
57.9509
 21
-10.0392
  0
LINE
  8
0
 10
57.9509
 20
-10.0392
 11
57.7695
 21
-10.1143
  0
LINE
  8
0
 10
57.7695
 20
-10.1143
 11
57.5823
 21
-10.1733
  0
LINE
  8
0
 10
57.5823
 20
-10.1733
 11
57.3907
 21
-10.2158
  0
LINE
  8
0
 10
57.3907
 20
-10.2158
 11
57.1961
 21
-10.2414
  0
LINE
  8
0
 10
57.1961
 20
-10.2414
 11
57
 21
-10.25
  0
LINE
  8
0
 10
57
 20
-10.25
 11
56.8039
 21
-10.2414
  0
LINE
  8
0
 10
-0.196091
 20
-10.2414
 11
-0.390701
 21
-10.2158
  0
LINE
  8
0
 10
-0.390701
 20
-10.2158
 11
-0.582336
 21
-10.1733
  0
LINE
  8
0
 10
-0.582336
 20
-10.1733
 11
-0.769531
 21
-10.1143
  0
LINE
  8
0
 10
-0.769531
 20
-10.1143
 11
-0.950882
 21
-10.0392
  0
LINE
  8
0
 10
-0.950882
 20
-10.0392
 11
-1.125
 21
-9.94855
  0
LINE
  8
0
 10
-1.125
 20
-9.94855
 11
-1.29054
 21
-9.84308
  0
LINE
  8
0
 10
-1.29054
 20
-9.84308
 11
-1.44626
 21
-9.72359
  0
LINE
  8
0
 10
-1.44626
 20
-9.72359
 11
-1.59099
 21
-9.59099
  0
LINE
  8
0
 10
-1.59099
 20
-9.59099
 11
-1.72359
 21
-9.44626
  0
LINE
  8
0
 10
-1.72359
 20
-9.44626
 11
-1.84308
 21
-9.29054
  0
LINE
  8
0
 10
-1.84308
 20
-9.29054
 11
-1.94855
 21
-9.125
  0
LINE
  8
0
 10
-1.94855
 20
-9.125
 11
-2.03918
 21
-8.95088
  0
LINE
  8
0
 10
-2.03918
 20
-8.95088
 11
-2.1143
 21
-8.76953
  0
LINE
  8
0
 10
-2.1143
 20
-8.76953
 11
-2.17332
 21
-8.58234
  0
LINE
  8
0
 10
-2.17332
 20
-8.58234
 11
-2.21581
 21
-8.3907
  0
LINE
  8
0
 10
-2.21581
 20
-8.3907
 11
-2.24142
 21
-8.19609
  0
LINE
  8
0
 10
-2.24142
 20
-8.19609
 11
-2.25
 21
-8
  0
LINE
  8
0
 10
-2.25
 20
-8
 11
-2.24142
 21
-7.80389
  0
LINE
  8
0
 10
-2.24142
 20
-7.80389
 11
-2.21581
 21
-7.60928
  0
LINE
  8
0
 10
-2.21581
 20
-7.60928
 11
-2.17332
 21
-7.41765
  0
LINE
  8
0
 10
-2.17332
 20
-7.41765
 11
-2.1143
 21
-7.23045
  0
LINE
  8
0
 10
-2.1143
 20
-7.23045
 11
-2.03918
 21
-7.0491
  0
LINE
  8
0
 10
-2.03918
 20
-7.0491
 11
-1.94855
 21
-6.875
  0
LINE
  8
0
 10
-1.94855
 20
-6.875
 11
-1.84308
 21
-6.70944
  0
LINE
  8
0
 10
-1.84308
 20
-6.70944
 11
-1.72359
 21
-6.55373
  0
LINE
  8
0
 10
-1.72359
 20
-6.55373
 11
-1.59099
 21
-6.409
  0
LINE
  8
0
 10
-1.59099
 20
-6.409
 11
-1.44626
 21
-6.2764
  0
LINE
  8
0
 10
-1.44626
 20
-6.2764
 11
-1.29054
 21
-6.15691
  0
LINE
  8
0
 10
-1.29054
 20
-6.15691
 11
-1.125
 21
-6.05144
  0
LINE
  8
0
 10
-1.125
 20
-6.05144
 11
-0.950882
 21
-5.9608
  0
LINE
  8
0
 10
-0.950882
 20
-5.9608
 11
-0.769531
 21
-5.88568
  0
LINE
  8
0
 10
-0.769531
 20
-5.88568
 11
-0.582336
 21
-5.82666
  0
LINE
  8
0
 10
-0.582336
 20
-5.82666
 11
-0.390701
 21
-5.78418
  0
LINE
  8
0
 10
-0.390701
 20
-5.78418
 11
-0.196091
 21
-5.75856
  0
LINE
  8
0
 10
-0.196091
 20
-5.75856
 11
0
 21
-5.75
  0
LINE
  8
0
 10
0
 20
-5.75
 11
0.196091
 21
-5.75856
  0
LINE
  8
0
 10
0.196091
 20
-5.75856
 11
0.390701
 21
-5.78418
  0
LINE
  8
0
 10
0.390701
 20
-5.78418
 11
0.582336
 21
-5.82666
  0
LINE
  8
0
 10
0.582336
 20
-5.82666
 11
0.769531
 21
-5.88568
  0
LINE
  8
0
 10
0.769531
 20
-5.88568
 11
0.950882
 21
-5.9608
  0
LINE
  8
0
 10
0.950882
 20
-5.9608
 11
1.125
 21
-6.05144
  0
LINE
  8
0
 10
1.125
 20
-6.05144
 11
1.29054
 21
-6.15691
  0
LINE
  8
0
 10
1.29054
 20
-6.15691
 11
1.44626
 21
-6.2764
  0
LINE
  8
0
 10
1.44626
 20
-6.2764
 11
1.59099
 21
-6.409
  0
LINE
  8
0
 10
1.59099
 20
-6.409
 11
1.72359
 21
-6.55373
  0
LINE
  8
0
 10
1.72359
 20
-6.55373
 11
1.84308
 21
-6.70944
  0
LINE
  8
0
 10
1.84308
 20
-6.70944
 11
1.94855
 21
-6.875
  0
LINE
  8
0
 10
1.94855
 20
-6.875
 11
2.03918
 21
-7.0491
  0
LINE
  8
0
 10
2.03918
 20
-7.0491
 11
2.1143
 21
-7.23045
  0
LINE
  8
0
 10
2.1143
 20
-7.23045
 11
2.17332
 21
-7.41765
  0
LINE
  8
0
 10
2.17332
 20
-7.41765
 11
2.21581
 21
-7.60928
  0
LINE
  8
0
 10
2.21581
 20
-7.60928
 11
2.24142
 21
-7.80389
  0
LINE
  8
0
 10
2.24142
 20
-7.80389
 11
2.25
 21
-8
  0
LINE
  8
0
 10
2.25
 20
-8
 11
2.24142
 21
-8.19609
  0
LINE
  8
0
 10
2.24142
 20
-8.19609
 11
2.21581
 21
-8.3907
  0
LINE
  8
0
 10
2.21581
 20
-8.3907
 11
2.17332
 21
-8.58234
  0
LINE
  8
0
 10
2.17332
 20
-8.58234
 11
2.1143
 21
-8.76953
  0
LINE
  8
0
 10
2.1143
 20
-8.76953
 11
2.03918
 21
-8.95088
  0
LINE
  8
0
 10
2.03918
 20
-8.95088
 11
1.94855
 21
-9.125
  0
LINE
  8
0
 10
1.94855
 20
-9.125
 11
1.84308
 21
-9.29054
  0
LINE
  8
0
 10
1.84308
 20
-9.29054
 11
1.72359
 21
-9.44626
  0
LINE
  8
0
 10
1.72359
 20
-9.44626
 11
1.59099
 21
-9.59099
  0
LINE
  8
0
 10
1.59099
 20
-9.59099
 11
1.44626
 21
-9.72359
  0
LINE
  8
0
 10
1.44626
 20
-9.72359
 11
1.29054
 21
-9.84308
  0
LINE
  8
0
 10
1.29054
 20
-9.84308
 11
1.125
 21
-9.94855
  0
LINE
  8
0
 10
1.125
 20
-9.94855
 11
0.950882
 21
-10.0392
  0
LINE
  8
0
 10
0.950882
 20
-10.0392
 11
0.769531
 21
-10.1143
  0
LINE
  8
0
 10
0.769531
 20
-10.1143
 11
0.582336
 21
-10.1733
  0
LINE
  8
0
 10
0.582336
 20
-10.1733
 11
0.390701
 21
-10.2158
  0
LINE
  8
0
 10
0.390701
 20
-10.2158
 11
0.196091
 21
-10.2414
  0
LINE
  8
0
 10
0.196091
 20
-10.2414
 11
0
 21
-10.25
  0
LINE
  8
0
 10
0
 20
-10.25
 11
-0.196091
 21
-10.2414
  0
LINE
  8
0
 10
-57.1961
 20
-10.2414
 11
-57.3907
 21
-10.2158
  0
LINE
  8
0
 10
-57.3907
 20
-10.2158
 11
-57.5823
 21
-10.1733
  0
LINE
  8
0
 10
-57.5823
 20
-10.1733
 11
-57.7695
 21
-10.1143
  0
LINE
  8
0
 10
-57.7695
 20
-10.1143
 11
-57.9509
 21
-10.0392
  0
LINE
  8
0
 10
-57.9509
 20
-10.0392
 11
-58.125
 21
-9.94855
  0
LINE
  8
0
 10
-58.125
 20
-9.94855
 11
-58.2905
 21
-9.84308
  0
LINE
  8
0
 10
-58.2905
 20
-9.84308
 11
-58.4463
 21
-9.72359
  0
LINE
  8
0
 10
-58.4463
 20
-9.72359
 11
-58.591
 21
-9.59099
  0
LINE
  8
0
 10
-58.591
 20
-9.59099
 11
-58.7236
 21
-9.44626
  0
LINE
  8
0
 10
-58.7236
 20
-9.44626
 11
-58.8431
 21
-9.29054
  0
LINE
  8
0
 10
-58.8431
 20
-9.29054
 11
-58.9485
 21
-9.125
  0
LINE
  8
0
 10
-58.9485
 20
-9.125
 11
-59.0392
 21
-8.95088
  0
LINE
  8
0
 10
-59.0392
 20
-8.95088
 11
-59.1143
 21
-8.76953
  0
LINE
  8
0
 10
-59.1143
 20
-8.76953
 11
-59.1733
 21
-8.58234
  0
LINE
  8
0
 10
-59.1733
 20
-8.58234
 11
-59.2158
 21
-8.3907
  0
LINE
  8
0
 10
-59.2158
 20
-8.3907
 11
-59.2414
 21
-8.19609
  0
LINE
  8
0
 10
-59.2414
 20
-8.19609
 11
-59.25
 21
-8
  0
LINE
  8
0
 10
-59.25
 20
-8
 11
-59.2414
 21
-7.80389
  0
LINE
  8
0
 10
-59.2414
 20
-7.80389
 11
-59.2158
 21
-7.60928
  0
LINE
  8
0
 10
-59.2158
 20
-7.60928
 11
-59.1733
 21
-7.41765
  0
LINE
  8
0
 10
-59.1733
 20
-7.41765
 11
-59.1143
 21
-7.23045
  0
LINE
  8
0
 10
-59.1143
 20
-7.23045
 11
-59.0392
 21
-7.0491
  0
LINE
  8
0
 10
-59.0392
 20
-7.0491
 11
-58.9485
 21
-6.875
  0
LINE
  8
0
 10
-58.9485
 20
-6.875
 11
-58.8431
 21
-6.70944
  0
LINE
  8
0
 10
-58.8431
 20
-6.70944
 11
-58.7236
 21
-6.55373
  0
LINE
  8
0
 10
-58.7236
 20
-6.55373
 11
-58.591
 21
-6.409
  0
LINE
  8
0
 10
-58.591
 20
-6.409
 11
-58.4463
 21
-6.2764
  0
LINE
  8
0
 10
-58.4463
 20
-6.2764
 11
-58.2905
 21
-6.15691
  0
LINE
  8
0
 10
-58.2905
 20
-6.15691
 11
-58.125
 21
-6.05144
  0
LINE
  8
0
 10
-58.125
 20
-6.05144
 11
-57.9509
 21
-5.9608
  0
LINE
  8
0
 10
-57.9509
 20
-5.9608
 11
-57.7695
 21
-5.88568
  0
LINE
  8
0
 10
-57.7695
 20
-5.88568
 11
-57.5823
 21
-5.82666
  0
LINE
  8
0
 10
-57.5823
 20
-5.82666
 11
-57.3907
 21
-5.78418
  0
LINE
  8
0
 10
-57.3907
 20
-5.78418
 11
-57.1961
 21
-5.75856
  0
LINE
  8
0
 10
-57.1961
 20
-5.75856
 11
-57
 21
-5.75
  0
LINE
  8
0
 10
-57
 20
-5.75
 11
-56.8039
 21
-5.75856
  0
LINE
  8
0
 10
-56.8039
 20
-5.75856
 11
-56.6093
 21
-5.78418
  0
LINE
  8
0
 10
-56.6093
 20
-5.78418
 11
-56.4176
 21
-5.82666
  0
LINE
  8
0
 10
-56.4176
 20
-5.82666
 11
-56.2305
 21
-5.88568
  0
LINE
  8
0
 10
-56.2305
 20
-5.88568
 11
-56.0491
 21
-5.9608
  0
LINE
  8
0
 10
-56.0491
 20
-5.9608
 11
-55.875
 21
-6.05144
  0
LINE
  8
0
 10
-55.875
 20
-6.05144
 11
-55.7094
 21
-6.15691
  0
LINE
  8
0
 10
-55.7094
 20
-6.15691
 11
-55.5537
 21
-6.2764
  0
LINE
  8
0
 10
-55.5537
 20
-6.2764
 11
-55.409
 21
-6.409
  0
LINE
  8
0
 10
-55.409
 20
-6.409
 11
-55.2764
 21
-6.55373
  0
LINE
  8
0
 10
-55.2764
 20
-6.55373
 11
-55.1569
 21
-6.70944
  0
LINE
  8
0
 10
-55.1569
 20
-6.70944
 11
-55.0514
 21
-6.875
  0
LINE
  8
0
 10
-55.0514
 20
-6.875
 11
-54.9608
 21
-7.0491
  0
LINE
  8
0
 10
-54.9608
 20
-7.0491
 11
-54.8857
 21
-7.23045
  0
LINE
  8
0
 10
-54.8857
 20
-7.23045
 11
-54.8267
 21
-7.41765
  0
LINE
  8
0
 10
-54.8267
 20
-7.41765
 11
-54.7842
 21
-7.60928
  0
LINE
  8
0
 10
-54.7842
 20
-7.60928
 11
-54.7586
 21
-7.80389
  0
LINE
  8
0
 10
-54.7586
 20
-7.80389
 11
-54.75
 21
-8
  0
LINE
  8
0
 10
-54.75
 20
-8
 11
-54.7586
 21
-8.19609
  0
LINE
  8
0
 10
-54.7586
 20
-8.19609
 11
-54.7842
 21
-8.3907
  0
LINE
  8
0
 10
-54.7842
 20
-8.3907
 11
-54.8267
 21
-8.58234
  0
LINE
  8
0
 10
-54.8267
 20
-8.58234
 11
-54.8857
 21
-8.76953
  0
LINE
  8
0
 10
-54.8857
 20
-8.76953
 11
-54.9608
 21
-8.95088
  0
LINE
  8
0
 10
-54.9608
 20
-8.95088
 11
-55.0514
 21
-9.125
  0
LINE
  8
0
 10
-55.0514
 20
-9.125
 11
-55.1569
 21
-9.29054
  0
LINE
  8
0
 10
-55.1569
 20
-9.29054
 11
-55.2764
 21
-9.44626
  0
LINE
  8
0
 10
-55.2764
 20
-9.44626
 11
-55.409
 21
-9.59099
  0
LINE
  8
0
 10
-55.409
 20
-9.59099
 11
-55.5537
 21
-9.72359
  0
LINE
  8
0
 10
-55.5537
 20
-9.72359
 11
-55.7094
 21
-9.84308
  0
LINE
  8
0
 10
-55.7094
 20
-9.84308
 11
-55.875
 21
-9.94855
  0
LINE
  8
0
 10
-55.875
 20
-9.94855
 11
-56.0491
 21
-10.0392
  0
LINE
  8
0
 10
-56.0491
 20
-10.0392
 11
-56.2305
 21
-10.1143
  0
LINE
  8
0
 10
-56.2305
 20
-10.1143
 11
-56.4176
 21
-10.1733
  0
LINE
  8
0
 10
-56.4176
 20
-10.1733
 11
-56.6093
 21
-10.2158
  0
LINE
  8
0
 10
-56.6093
 20
-10.2158
 11
-56.8039
 21
-10.2414
  0
LINE
  8
0
 10
-56.8039
 20
-10.2414
 11
-57
 21
-10.25
  0
LINE
  8
0
 10
-57
 20
-10.25
 11
-57.1961
 21
-10.2414
  0
LINE
  8
0
 10
26.8518
 20
-31.6935
 11
26.7048
 21
-31.6742
  0
LINE
  8
0
 10
26.7048
 20
-31.6742
 11
26.56
 21
-31.6421
  0
LINE
  8
0
 10
26.56
 20
-31.6421
 11
26.4186
 21
-31.5975
  0
LINE
  8
0
 10
26.4186
 20
-31.5975
 11
26.2815
 21
-31.5407
  0
LINE
  8
0
 10
26.2815
 20
-31.5407
 11
26.15
 21
-31.4722
  0
LINE
  8
0
 10
26.15
 20
-31.4722
 11
26.0249
 21
-31.3926
  0
LINE
  8
0
 10
26.0249
 20
-31.3926
 11
25.9073
 21
-31.3023
  0
LINE
  8
0
 10
25.9073
 20
-31.3023
 11
25.7979
 21
-31.2021
  0
LINE
  8
0
 10
25.7979
 20
-31.2021
 11
25.6977
 21
-31.0927
  0
LINE
  8
0
 10
25.6977
 20
-31.0927
 11
25.6074
 21
-30.9751
  0
LINE
  8
0
 10
25.6074
 20
-30.9751
 11
25.5278
 21
-30.85
  0
LINE
  8
0
 10
25.5278
 20
-30.85
 11
25.4593
 21
-30.7185
  0
LINE
  8
0
 10
25.4593
 20
-30.7185
 11
25.4025
 21
-30.5814
  0
LINE
  8
0
 10
25.4025
 20
-30.5814
 11
25.3579
 21
-30.44
  0
LINE
  8
0
 10
25.3579
 20
-30.44
 11
25.3258
 21
-30.2952
  0
LINE
  8
0
 10
25.3258
 20
-30.2952
 11
25.3065
 21
-30.1482
  0
LINE
  8
0
 10
25.3065
 20
-30.1482
 11
25.3
 21
-30
  0
LINE
  8
0
 10
25.3
 20
-30
 11
25.3065
 21
-29.8518
  0
LINE
  8
0
 10
25.3065
 20
-29.8518
 11
25.3258
 21
-29.7048
  0
LINE
  8
0
 10
25.3258
 20
-29.7048
 11
25.3579
 21
-29.56
  0
LINE
  8
0
 10
25.3579
 20
-29.56
 11
25.4025
 21
-29.4186
  0
LINE
  8
0
 10
25.4025
 20
-29.4186
 11
25.4593
 21
-29.2816
  0
LINE
  8
0
 10
25.4593
 20
-29.2816
 11
25.5278
 21
-29.15
  0
LINE
  8
0
 10
25.5278
 20
-29.15
 11
25.6074
 21
-29.0249
  0
LINE
  8
0
 10
25.6074
 20
-29.0249
 11
25.6977
 21
-28.9073
  0
LINE
  8
0
 10
25.6977
 20
-28.9073
 11
25.7979
 21
-28.7979
  0
LINE
  8
0
 10
25.7979
 20
-28.7979
 11
25.9073
 21
-28.6977
  0
LINE
  8
0
 10
25.9073
 20
-28.6977
 11
26.0249
 21
-28.6075
  0
LINE
  8
0
 10
26.0249
 20
-28.6075
 11
26.15
 21
-28.5278
  0
LINE
  8
0
 10
26.15
 20
-28.5278
 11
26.2815
 21
-28.4593
  0
LINE
  8
0
 10
26.2815
 20
-28.4593
 11
26.4186
 21
-28.4025
  0
LINE
  8
0
 10
26.4186
 20
-28.4025
 11
26.56
 21
-28.3579
  0
LINE
  8
0
 10
26.56
 20
-28.3579
 11
26.7048
 21
-28.3258
  0
LINE
  8
0
 10
26.7048
 20
-28.3258
 11
26.8518
 21
-28.3065
  0
LINE
  8
0
 10
26.8518
 20
-28.3065
 11
27
 21
-28.3
  0
LINE
  8
0
 10
27
 20
-28.3
 11
27.1482
 21
-28.3065
  0
LINE
  8
0
 10
27.1482
 20
-28.3065
 11
27.2952
 21
-28.3258
  0
LINE
  8
0
 10
27.2952
 20
-28.3258
 11
27.44
 21
-28.3579
  0
LINE
  8
0
 10
27.44
 20
-28.3579
 11
27.5814
 21
-28.4025
  0
LINE
  8
0
 10
27.5814
 20
-28.4025
 11
27.7184
 21
-28.4593
  0
LINE
  8
0
 10
27.7184
 20
-28.4593
 11
27.85
 21
-28.5278
  0
LINE
  8
0
 10
27.85
 20
-28.5278
 11
27.9751
 21
-28.6075
  0
LINE
  8
0
 10
27.9751
 20
-28.6075
 11
28.0927
 21
-28.6977
  0
LINE
  8
0
 10
28.0927
 20
-28.6977
 11
28.2021
 21
-28.7979
  0
LINE
  8
0
 10
28.2021
 20
-28.7979
 11
28.3023
 21
-28.9073
  0
LINE
  8
0
 10
28.3023
 20
-28.9073
 11
28.3925
 21
-29.0249
  0
LINE
  8
0
 10
28.3925
 20
-29.0249
 11
28.4722
 21
-29.15
  0
LINE
  8
0
 10
28.4722
 20
-29.15
 11
28.5407
 21
-29.2816
  0
LINE
  8
0
 10
28.5407
 20
-29.2816
 11
28.5975
 21
-29.4186
  0
LINE
  8
0
 10
28.5975
 20
-29.4186
 11
28.6421
 21
-29.56
  0
LINE
  8
0
 10
28.6421
 20
-29.56
 11
28.6742
 21
-29.7048
  0
LINE
  8
0
 10
28.6742
 20
-29.7048
 11
28.6935
 21
-29.8518
  0
LINE
  8
0
 10
28.6935
 20
-29.8518
 11
28.7
 21
-30
  0
LINE
  8
0
 10
28.7
 20
-30
 11
28.6935
 21
-30.1482
  0
LINE
  8
0
 10
28.6935
 20
-30.1482
 11
28.6742
 21
-30.2952
  0
LINE
  8
0
 10
28.6742
 20
-30.2952
 11
28.6421
 21
-30.44
  0
LINE
  8
0
 10
28.6421
 20
-30.44
 11
28.5975
 21
-30.5814
  0
LINE
  8
0
 10
28.5975
 20
-30.5814
 11
28.5407
 21
-30.7185
  0
LINE
  8
0
 10
28.5407
 20
-30.7185
 11
28.4722
 21
-30.85
  0
LINE
  8
0
 10
28.4722
 20
-30.85
 11
28.3925
 21
-30.9751
  0
LINE
  8
0
 10
28.3925
 20
-30.9751
 11
28.3023
 21
-31.0927
  0
LINE
  8
0
 10
28.3023
 20
-31.0927
 11
28.2021
 21
-31.2021
  0
LINE
  8
0
 10
28.2021
 20
-31.2021
 11
28.0927
 21
-31.3023
  0
LINE
  8
0
 10
28.0927
 20
-31.3023
 11
27.9751
 21
-31.3926
  0
LINE
  8
0
 10
27.9751
 20
-31.3926
 11
27.85
 21
-31.4722
  0
LINE
  8
0
 10
27.85
 20
-31.4722
 11
27.7184
 21
-31.5407
  0
LINE
  8
0
 10
27.7184
 20
-31.5407
 11
27.5814
 21
-31.5975
  0
LINE
  8
0
 10
27.5814
 20
-31.5975
 11
27.44
 21
-31.6421
  0
LINE
  8
0
 10
27.44
 20
-31.6421
 11
27.2952
 21
-31.6742
  0
LINE
  8
0
 10
27.2952
 20
-31.6742
 11
27.1482
 21
-31.6935
  0
LINE
  8
0
 10
27.1482
 20
-31.6935
 11
27
 21
-31.7
  0
LINE
  8
0
 10
27
 20
-31.7
 11
26.8518
 21
-31.6935
  0
LINE
  8
0
 10
-27.1482
 20
-31.6935
 11
-27.2952
 21
-31.6742
  0
LINE
  8
0
 10
-27.2952
 20
-31.6742
 11
-27.44
 21
-31.6421
  0
LINE
  8
0
 10
-27.44
 20
-31.6421
 11
-27.5814
 21
-31.5975
  0
LINE
  8
0
 10
-27.5814
 20
-31.5975
 11
-27.7184
 21
-31.5407
  0
LINE
  8
0
 10
-27.7184
 20
-31.5407
 11
-27.85
 21
-31.4722
  0
LINE
  8
0
 10
-27.85
 20
-31.4722
 11
-27.9751
 21
-31.3926
  0
LINE
  8
0
 10
-27.9751
 20
-31.3926
 11
-28.0927
 21
-31.3023
  0
LINE
  8
0
 10
-28.0927
 20
-31.3023
 11
-28.2021
 21
-31.2021
  0
LINE
  8
0
 10
-28.2021
 20
-31.2021
 11
-28.3023
 21
-31.0927
  0
LINE
  8
0
 10
-28.3023
 20
-31.0927
 11
-28.3925
 21
-30.9751
  0
LINE
  8
0
 10
-28.3925
 20
-30.9751
 11
-28.4722
 21
-30.85
  0
LINE
  8
0
 10
-28.4722
 20
-30.85
 11
-28.5407
 21
-30.7185
  0
LINE
  8
0
 10
-28.5407
 20
-30.7185
 11
-28.5975
 21
-30.5814
  0
LINE
  8
0
 10
-28.5975
 20
-30.5814
 11
-28.6421
 21
-30.44
  0
LINE
  8
0
 10
-28.6421
 20
-30.44
 11
-28.6742
 21
-30.2952
  0
LINE
  8
0
 10
-28.6742
 20
-30.2952
 11
-28.6935
 21
-30.1482
  0
LINE
  8
0
 10
-28.6935
 20
-30.1482
 11
-28.7
 21
-30
  0
LINE
  8
0
 10
-28.7
 20
-30
 11
-28.6935
 21
-29.8518
  0
LINE
  8
0
 10
-28.6935
 20
-29.8518
 11
-28.6742
 21
-29.7048
  0
LINE
  8
0
 10
-28.6742
 20
-29.7048
 11
-28.6421
 21
-29.56
  0
LINE
  8
0
 10
-28.6421
 20
-29.56
 11
-28.5975
 21
-29.4186
  0
LINE
  8
0
 10
-28.5975
 20
-29.4186
 11
-28.5407
 21
-29.2816
  0
LINE
  8
0
 10
-28.5407
 20
-29.2816
 11
-28.4722
 21
-29.15
  0
LINE
  8
0
 10
-28.4722
 20
-29.15
 11
-28.3925
 21
-29.0249
  0
LINE
  8
0
 10
-28.3925
 20
-29.0249
 11
-28.3023
 21
-28.9073
  0
LINE
  8
0
 10
-28.3023
 20
-28.9073
 11
-28.2021
 21
-28.7979
  0
LINE
  8
0
 10
-28.2021
 20
-28.7979
 11
-28.0927
 21
-28.6977
  0
LINE
  8
0
 10
-28.0927
 20
-28.6977
 11
-27.9751
 21
-28.6075
  0
LINE
  8
0
 10
-27.9751
 20
-28.6075
 11
-27.85
 21
-28.5278
  0
LINE
  8
0
 10
-27.85
 20
-28.5278
 11
-27.7184
 21
-28.4593
  0
LINE
  8
0
 10
-27.7184
 20
-28.4593
 11
-27.5814
 21
-28.4025
  0
LINE
  8
0
 10
-27.5814
 20
-28.4025
 11
-27.44
 21
-28.3579
  0
LINE
  8
0
 10
-27.44
 20
-28.3579
 11
-27.2952
 21
-28.3258
  0
LINE
  8
0
 10
-27.2952
 20
-28.3258
 11
-27.1482
 21
-28.3065
  0
LINE
  8
0
 10
-27.1482
 20
-28.3065
 11
-27
 21
-28.3
  0
LINE
  8
0
 10
-27
 20
-28.3
 11
-26.8518
 21
-28.3065
  0
LINE
  8
0
 10
-26.8518
 20
-28.3065
 11
-26.7048
 21
-28.3258
  0
LINE
  8
0
 10
-26.7048
 20
-28.3258
 11
-26.56
 21
-28.3579
  0
LINE
  8
0
 10
-26.56
 20
-28.3579
 11
-26.4186
 21
-28.4025
  0
LINE
  8
0
 10
-26.4186
 20
-28.4025
 11
-26.2815
 21
-28.4593
  0
LINE
  8
0
 10
-26.2815
 20
-28.4593
 11
-26.15
 21
-28.5278
  0
LINE
  8
0
 10
-26.15
 20
-28.5278
 11
-26.0249
 21
-28.6075
  0
LINE
  8
0
 10
-26.0249
 20
-28.6075
 11
-25.9073
 21
-28.6977
  0
LINE
  8
0
 10
-25.9073
 20
-28.6977
 11
-25.7979
 21
-28.7979
  0
LINE
  8
0
 10
-25.7979
 20
-28.7979
 11
-25.6977
 21
-28.9073
  0
LINE
  8
0
 10
-25.6977
 20
-28.9073
 11
-25.6074
 21
-29.0249
  0
LINE
  8
0
 10
-25.6074
 20
-29.0249
 11
-25.5278
 21
-29.15
  0
LINE
  8
0
 10
-25.5278
 20
-29.15
 11
-25.4593
 21
-29.2816
  0
LINE
  8
0
 10
-25.4593
 20
-29.2816
 11
-25.4025
 21
-29.4186
  0
LINE
  8
0
 10
-25.4025
 20
-29.4186
 11
-25.3579
 21
-29.56
  0
LINE
  8
0
 10
-25.3579
 20
-29.56
 11
-25.3258
 21
-29.7048
  0
LINE
  8
0
 10
-25.3258
 20
-29.7048
 11
-25.3065
 21
-29.8518
  0
LINE
  8
0
 10
-25.3065
 20
-29.8518
 11
-25.3
 21
-30
  0
LINE
  8
0
 10
-25.3
 20
-30
 11
-25.3065
 21
-30.1482
  0
LINE
  8
0
 10
-25.3065
 20
-30.1482
 11
-25.3258
 21
-30.2952
  0
LINE
  8
0
 10
-25.3258
 20
-30.2952
 11
-25.3579
 21
-30.44
  0
LINE
  8
0
 10
-25.3579
 20
-30.44
 11
-25.4025
 21
-30.5814
  0
LINE
  8
0
 10
-25.4025
 20
-30.5814
 11
-25.4593
 21
-30.7185
  0
LINE
  8
0
 10
-25.4593
 20
-30.7185
 11
-25.5278
 21
-30.85
  0
LINE
  8
0
 10
-25.5278
 20
-30.85
 11
-25.6074
 21
-30.9751
  0
LINE
  8
0
 10
-25.6074
 20
-30.9751
 11
-25.6977
 21
-31.0927
  0
LINE
  8
0
 10
-25.6977
 20
-31.0927
 11
-25.7979
 21
-31.2021
  0
LINE
  8
0
 10
-25.7979
 20
-31.2021
 11
-25.9073
 21
-31.3023
  0
LINE
  8
0
 10
-25.9073
 20
-31.3023
 11
-26.0249
 21
-31.3926
  0
LINE
  8
0
 10
-26.0249
 20
-31.3926
 11
-26.15
 21
-31.4722
  0
LINE
  8
0
 10
-26.15
 20
-31.4722
 11
-26.2815
 21
-31.5407
  0
LINE
  8
0
 10
-26.2815
 20
-31.5407
 11
-26.4186
 21
-31.5975
  0
LINE
  8
0
 10
-26.4186
 20
-31.5975
 11
-26.56
 21
-31.6421
  0
LINE
  8
0
 10
-26.56
 20
-31.6421
 11
-26.7048
 21
-31.6742
  0
LINE
  8
0
 10
-26.7048
 20
-31.6742
 11
-26.8518
 21
-31.6935
  0
LINE
  8
0
 10
-26.8518
 20
-31.6935
 11
-27
 21
-31.7
  0
LINE
  8
0
 10
-27
 20
-31.7
 11
-27.1482
 21
-31.6935
  0
LINE
  8
0
 10
-41.3
 20
-136.953
 11
-41.4743
 21
-136.945
  0
LINE
  8
0
 10
-41.4743
 20
-136.945
 11
-41.6473
 21
-136.922
  0
LINE
  8
0
 10
-41.6473
 20
-136.922
 11
-41.8176
 21
-136.884
  0
LINE
  8
0
 10
-41.8176
 20
-136.884
 11
-41.984
 21
-136.832
  0
LINE
  8
0
 10
-41.984
 20
-136.832
 11
-42.1452
 21
-136.765
  0
LINE
  8
0
 10
-42.1452
 20
-136.765
 11
-42.3
 21
-136.685
  0
LINE
  8
0
 10
-42.3
 20
-136.685
 11
-42.4471
 21
-136.591
  0
LINE
  8
0
 10
-42.4471
 20
-136.591
 11
-42.5856
 21
-136.485
  0
LINE
  8
0
 10
-42.5856
 20
-136.485
 11
-42.7142
 21
-136.367
  0
LINE
  8
0
 10
-42.7142
 20
-136.367
 11
-42.8321
 21
-136.238
  0
LINE
  8
0
 10
-42.8321
 20
-136.238
 11
-42.9383
 21
-136.1
  0
LINE
  8
0
 10
-42.9383
 20
-136.1
 11
-43.032
 21
-135.953
  0
LINE
  8
0
 10
-43.032
 20
-135.953
 11
-43.1126
 21
-135.798
  0
LINE
  8
0
 10
-43.1126
 20
-135.798
 11
-43.1794
 21
-135.637
  0
LINE
  8
0
 10
-43.1794
 20
-135.637
 11
-43.2318
 21
-135.47
  0
LINE
  8
0
 10
-43.2318
 20
-135.47
 11
-43.2696
 21
-135.3
  0
LINE
  8
0
 10
-43.2696
 20
-135.3
 11
-43.2924
 21
-135.127
  0
LINE
  8
0
 10
-43.2924
 20
-135.127
 11
-43.3
 21
-134.953
  0
LINE
  8
0
 10
-43.3
 20
-134.953
 11
-43.3
 21
-35.0474
  0
LINE
  8
0
 10
-43.3
 20
-35.0474
 11
-43.2924
 21
-34.8731
  0
LINE
  8
0
 10
-43.2924
 20
-34.8731
 11
-43.2696
 21
-34.7001
  0
LINE
  8
0
 10
-43.2696
 20
-34.7001
 11
-43.2318
 21
-34.5298
  0
LINE
  8
0
 10
-43.2318
 20
-34.5298
 11
-43.1794
 21
-34.3633
  0
LINE
  8
0
 10
-43.1794
 20
-34.3633
 11
-43.1126
 21
-34.2021
  0
LINE
  8
0
 10
-43.1126
 20
-34.2021
 11
-43.032
 21
-34.0474
  0
LINE
  8
0
 10
-43.032
 20
-34.0474
 11
-42.9383
 21
-33.9002
  0
LINE
  8
0
 10
-42.9383
 20
-33.9002
 11
-42.8321
 21
-33.7618
  0
LINE
  8
0
 10
-42.8321
 20
-33.7618
 11
-42.7142
 21
-33.6332
  0
LINE
  8
0
 10
-42.7142
 20
-33.6332
 11
-42.5856
 21
-33.5153
  0
LINE
  8
0
 10
-42.5856
 20
-33.5153
 11
-42.4471
 21
-33.4091
  0
LINE
  8
0
 10
-42.4471
 20
-33.4091
 11
-42.3
 21
-33.3153
  0
LINE
  8
0
 10
-42.3
 20
-33.3153
 11
-42.1452
 21
-33.2348
  0
LINE
  8
0
 10
-42.1452
 20
-33.2348
 11
-41.984
 21
-33.168
  0
LINE
  8
0
 10
-41.984
 20
-33.168
 11
-41.8176
 21
-33.1155
  0
LINE
  8
0
 10
-41.8176
 20
-33.1155
 11
-41.6473
 21
-33.0778
  0
LINE
  8
0
 10
-41.6473
 20
-33.0778
 11
-41.4743
 21
-33.055
  0
LINE
  8
0
 10
-41.4743
 20
-33.055
 11
-41.3
 21
-33.0474
  0
LINE
  8
0
 10
-41.3
 20
-33.0474
 11
-20.7
 21
-33.0474
  0
LINE
  8
0
 10
-20.7
 20
-33.0474
 11
-20.5257
 21
-33.055
  0
LINE
  8
0
 10
-20.5257
 20
-33.055
 11
-20.3527
 21
-33.0778
  0
LINE
  8
0
 10
-20.3527
 20
-33.0778
 11
-20.1824
 21
-33.1155
  0
LINE
  8
0
 10
-20.1824
 20
-33.1155
 11
-20.016
 21
-33.168
  0
LINE
  8
0
 10
-20.016
 20
-33.168
 11
-19.8548
 21
-33.2348
  0
LINE
  8
0
 10
-19.8548
 20
-33.2348
 11
-19.7
 21
-33.3153
  0
LINE
  8
0
 10
-19.7
 20
-33.3153
 11
-19.5529
 21
-33.4091
  0
LINE
  8
0
 10
-19.5529
 20
-33.4091
 11
-19.4144
 21
-33.5153
  0
LINE
  8
0
 10
-19.4144
 20
-33.5153
 11
-19.2858
 21
-33.6332
  0
LINE
  8
0
 10
-19.2858
 20
-33.6332
 11
-19.1679
 21
-33.7618
  0
LINE
  8
0
 10
-19.1679
 20
-33.7618
 11
-19.0617
 21
-33.9002
  0
LINE
  8
0
 10
-19.0617
 20
-33.9002
 11
-18.968
 21
-34.0474
  0
LINE
  8
0
 10
-18.968
 20
-34.0474
 11
-18.8874
 21
-34.2021
  0
LINE
  8
0
 10
-18.8874
 20
-34.2021
 11
-18.8206
 21
-34.3633
  0
LINE
  8
0
 10
-18.8206
 20
-34.3633
 11
-18.7682
 21
-34.5298
  0
LINE
  8
0
 10
-18.7682
 20
-34.5298
 11
-18.7304
 21
-34.7001
  0
LINE
  8
0
 10
-18.7304
 20
-34.7001
 11
-18.7076
 21
-34.8731
  0
LINE
  8
0
 10
-18.7076
 20
-34.8731
 11
-18.7
 21
-35.0474
  0
LINE
  8
0
 10
-18.7
 20
-35.0474
 11
-18.7
 21
-134.953
  0
LINE
  8
0
 10
-18.7
 20
-134.953
 11
-18.7076
 21
-135.127
  0
LINE
  8
0
 10
-18.7076
 20
-135.127
 11
-18.7304
 21
-135.3
  0
LINE
  8
0
 10
-18.7304
 20
-135.3
 11
-18.7682
 21
-135.47
  0
LINE
  8
0
 10
-18.7682
 20
-135.47
 11
-18.8206
 21
-135.637
  0
LINE
  8
0
 10
-18.8206
 20
-135.637
 11
-18.8874
 21
-135.798
  0
LINE
  8
0
 10
-18.8874
 20
-135.798
 11
-18.968
 21
-135.953
  0
LINE
  8
0
 10
-18.968
 20
-135.953
 11
-19.0617
 21
-136.1
  0
LINE
  8
0
 10
-19.0617
 20
-136.1
 11
-19.1679
 21
-136.238
  0
LINE
  8
0
 10
-19.1679
 20
-136.238
 11
-19.2858
 21
-136.367
  0
LINE
  8
0
 10
-19.2858
 20
-136.367
 11
-19.4144
 21
-136.485
  0
LINE
  8
0
 10
-19.4144
 20
-136.485
 11
-19.5529
 21
-136.591
  0
LINE
  8
0
 10
-19.5529
 20
-136.591
 11
-19.7
 21
-136.685
  0
LINE
  8
0
 10
-19.7
 20
-136.685
 11
-19.8548
 21
-136.765
  0
LINE
  8
0
 10
-19.8548
 20
-136.765
 11
-20.016
 21
-136.832
  0
LINE
  8
0
 10
-20.016
 20
-136.832
 11
-20.1824
 21
-136.884
  0
LINE
  8
0
 10
-20.1824
 20
-136.884
 11
-20.3527
 21
-136.922
  0
LINE
  8
0
 10
-20.3527
 20
-136.922
 11
-20.5257
 21
-136.945
  0
LINE
  8
0
 10
-20.5257
 20
-136.945
 11
-20.7
 21
-136.953
  0
LINE
  8
0
 10
-20.7
 20
-136.953
 11
-41.3
 21
-136.953
  0
LINE
  8
0
 10
-20.8257
 20
-136.645
 11
-20.6527
 21
-136.622
  0
LINE
  8
0
 10
-20.6527
 20
-136.622
 11
-20.4824
 21
-136.584
  0
LINE
  8
0
 10
-20.4824
 20
-136.584
 11
-20.316
 21
-136.532
  0
LINE
  8
0
 10
-20.316
 20
-136.532
 11
-20.1548
 21
-136.465
  0
LINE
  8
0
 10
-20.1548
 20
-136.465
 11
-20
 21
-136.385
  0
LINE
  8
0
 10
-20
 20
-136.385
 11
-19.8529
 21
-136.291
  0
LINE
  8
0
 10
-19.8529
 20
-136.291
 11
-19.7144
 21
-136.185
  0
LINE
  8
0
 10
-19.7144
 20
-136.185
 11
-19.5858
 21
-136.067
  0
LINE
  8
0
 10
-19.5858
 20
-136.067
 11
-19.4679
 21
-135.938
  0
LINE
  8
0
 10
-19.4679
 20
-135.938
 11
-19.3617
 21
-135.8
  0
LINE
  8
0
 10
-19.3617
 20
-135.8
 11
-19.268
 21
-135.653
  0
LINE
  8
0
 10
-19.268
 20
-135.653
 11
-19.1874
 21
-135.498
  0
LINE
  8
0
 10
-19.1874
 20
-135.498
 11
-19.1206
 21
-135.337
  0
LINE
  8
0
 10
-19.1206
 20
-135.337
 11
-19.0682
 21
-135.17
  0
LINE
  8
0
 10
-19.0682
 20
-135.17
 11
-19.0304
 21
-135
  0
LINE
  8
0
 10
-19.0304
 20
-135
 11
-19.0076
 21
-134.827
  0
LINE
  8
0
 10
-19.0076
 20
-134.827
 11
-19
 21
-134.653
  0
LINE
  8
0
 10
-19
 20
-134.653
 11
-19
 21
-35.3474
  0
LINE
  8
0
 10
-19
 20
-35.3474
 11
-19.0076
 21
-35.1731
  0
LINE
  8
0
 10
-19.0076
 20
-35.1731
 11
-19.0304
 21
-35.0001
  0
LINE
  8
0
 10
-19.0304
 20
-35.0001
 11
-19.0682
 21
-34.8297
  0
LINE
  8
0
 10
-19.0682
 20
-34.8297
 11
-19.1206
 21
-34.6633
  0
LINE
  8
0
 10
-19.1206
 20
-34.6633
 11
-19.1874
 21
-34.5022
  0
LINE
  8
0
 10
-19.1874
 20
-34.5022
 11
-19.268
 21
-34.3474
  0
LINE
  8
0
 10
-19.268
 20
-34.3474
 11
-19.3617
 21
-34.2002
  0
LINE
  8
0
 10
-19.3617
 20
-34.2002
 11
-19.4679
 21
-34.0618
  0
LINE
  8
0
 10
-19.4679
 20
-34.0618
 11
-19.5858
 21
-33.9332
  0
LINE
  8
0
 10
-19.5858
 20
-33.9332
 11
-19.7144
 21
-33.8153
  0
LINE
  8
0
 10
-19.7144
 20
-33.8153
 11
-19.8529
 21
-33.7091
  0
LINE
  8
0
 10
-19.8529
 20
-33.7091
 11
-20
 21
-33.6153
  0
LINE
  8
0
 10
-20
 20
-33.6153
 11
-20.1548
 21
-33.5348
  0
LINE
  8
0
 10
-20.1548
 20
-33.5348
 11
-20.316
 21
-33.468
  0
LINE
  8
0
 10
-20.316
 20
-33.468
 11
-20.4824
 21
-33.4155
  0
LINE
  8
0
 10
-20.4824
 20
-33.4155
 11
-20.6527
 21
-33.3778
  0
LINE
  8
0
 10
-20.6527
 20
-33.3778
 11
-20.8257
 21
-33.355
  0
LINE
  8
0
 10
-20.8257
 20
-33.355
 11
-21
 21
-33.3474
  0
LINE
  8
0
 10
-21
 20
-33.3474
 11
-41
 21
-33.3474
  0
LINE
  8
0
 10
-41
 20
-33.3474
 11
-41.1743
 21
-33.355
  0
LINE
  8
0
 10
-41.1743
 20
-33.355
 11
-41.3473
 21
-33.3778
  0
LINE
  8
0
 10
-41.3473
 20
-33.3778
 11
-41.5176
 21
-33.4155
  0
LINE
  8
0
 10
-41.5176
 20
-33.4155
 11
-41.684
 21
-33.468
  0
LINE
  8
0
 10
-41.684
 20
-33.468
 11
-41.8452
 21
-33.5348
  0
LINE
  8
0
 10
-41.8452
 20
-33.5348
 11
-42
 21
-33.6153
  0
LINE
  8
0
 10
-42
 20
-33.6153
 11
-42.1471
 21
-33.7091
  0
LINE
  8
0
 10
-42.1471
 20
-33.7091
 11
-42.2856
 21
-33.8153
  0
LINE
  8
0
 10
-42.2856
 20
-33.8153
 11
-42.4142
 21
-33.9332
  0
LINE
  8
0
 10
-42.4142
 20
-33.9332
 11
-42.5321
 21
-34.0618
  0
LINE
  8
0
 10
-42.5321
 20
-34.0618
 11
-42.6383
 21
-34.2002
  0
LINE
  8
0
 10
-42.6383
 20
-34.2002
 11
-42.732
 21
-34.3474
  0
LINE
  8
0
 10
-42.732
 20
-34.3474
 11
-42.8126
 21
-34.5022
  0
LINE
  8
0
 10
-42.8126
 20
-34.5022
 11
-42.8794
 21
-34.6633
  0
LINE
  8
0
 10
-42.8794
 20
-34.6633
 11
-42.9318
 21
-34.8297
  0
LINE
  8
0
 10
-42.9318
 20
-34.8297
 11
-42.9696
 21
-35.0001
  0
LINE
  8
0
 10
-42.9696
 20
-35.0001
 11
-42.9924
 21
-35.1731
  0
LINE
  8
0
 10
-42.9924
 20
-35.1731
 11
-43
 21
-35.3474
  0
LINE
  8
0
 10
-43
 20
-35.3474
 11
-43
 21
-134.653
  0
LINE
  8
0
 10
-43
 20
-134.653
 11
-42.9924
 21
-134.827
  0
LINE
  8
0
 10
-42.9924
 20
-134.827
 11
-42.9696
 21
-135
  0
LINE
  8
0
 10
-42.9696
 20
-135
 11
-42.9318
 21
-135.17
  0
LINE
  8
0
 10
-42.9318
 20
-135.17
 11
-42.8794
 21
-135.337
  0
LINE
  8
0
 10
-42.8794
 20
-135.337
 11
-42.8126
 21
-135.498
  0
LINE
  8
0
 10
-42.8126
 20
-135.498
 11
-42.732
 21
-135.653
  0
LINE
  8
0
 10
-42.732
 20
-135.653
 11
-42.6383
 21
-135.8
  0
LINE
  8
0
 10
-42.6383
 20
-135.8
 11
-42.5321
 21
-135.938
  0
LINE
  8
0
 10
-42.5321
 20
-135.938
 11
-42.4142
 21
-136.067
  0
LINE
  8
0
 10
-42.4142
 20
-136.067
 11
-42.2856
 21
-136.185
  0
LINE
  8
0
 10
-42.2856
 20
-136.185
 11
-42.1471
 21
-136.291
  0
LINE
  8
0
 10
-42.1471
 20
-136.291
 11
-42
 21
-136.385
  0
LINE
  8
0
 10
-42
 20
-136.385
 11
-41.8452
 21
-136.465
  0
LINE
  8
0
 10
-41.8452
 20
-136.465
 11
-41.684
 21
-136.532
  0
LINE
  8
0
 10
-41.684
 20
-136.532
 11
-41.5176
 21
-136.584
  0
LINE
  8
0
 10
-41.5176
 20
-136.584
 11
-41.3473
 21
-136.622
  0
LINE
  8
0
 10
-41.3473
 20
-136.622
 11
-41.1743
 21
-136.645
  0
LINE
  8
0
 10
-41.1743
 20
-136.645
 11
-41
 21
-136.653
  0
LINE
  8
0
 10
-41
 20
-136.653
 11
-21
 21
-136.653
  0
LINE
  8
0
 10
-21
 20
-136.653
 11
-20.8257
 21
-136.645
  0
LINE
  8
0
 10
-9
 20
-136.653
 11
-9.34862
 21
-136.637
  0
LINE
  8
0
 10
-9.34862
 20
-136.637
 11
-9.69458
 21
-136.592
  0
LINE
  8
0
 10
-9.69458
 20
-136.592
 11
-10.0353
 21
-136.516
  0
LINE
  8
0
 10
-10.0353
 20
-136.516
 11
-10.3681
 21
-136.411
  0
LINE
  8
0
 10
-10.3681
 20
-136.411
 11
-10.6905
 21
-136.278
  0
LINE
  8
0
 10
-10.6905
 20
-136.278
 11
-11
 21
-136.117
  0
LINE
  8
0
 10
-11
 20
-136.117
 11
-11.2943
 21
-135.929
  0
LINE
  8
0
 10
-11.2943
 20
-135.929
 11
-11.5711
 21
-135.717
  0
LINE
  8
0
 10
-11.5711
 20
-135.717
 11
-11.8284
 21
-135.481
  0
LINE
  8
0
 10
-11.8284
 20
-135.481
 11
-12.0642
 21
-135.224
  0
LINE
  8
0
 10
-12.0642
 20
-135.224
 11
-12.2766
 21
-134.947
  0
LINE
  8
0
 10
-12.2766
 20
-134.947
 11
-12.4641
 21
-134.653
  0
LINE
  8
0
 10
-12.4641
 20
-134.653
 11
-12.6252
 21
-134.343
  0
LINE
  8
0
 10
-12.6252
 20
-134.343
 11
-12.7588
 21
-134.021
  0
LINE
  8
0
 10
-12.7588
 20
-134.021
 11
-12.8637
 21
-133.688
  0
LINE
  8
0
 10
-12.8637
 20
-133.688
 11
-12.9392
 21
-133.347
  0
LINE
  8
0
 10
-12.9392
 20
-133.347
 11
-12.9848
 21
-133.001
  0
LINE
  8
0
 10
-12.9848
 20
-133.001
 11
-13
 21
-132.653
  0
LINE
  8
0
 10
-13
 20
-132.653
 11
-13
 21
-37.3474
  0
LINE
  8
0
 10
-13
 20
-37.3474
 11
-12.9848
 21
-36.9988
  0
LINE
  8
0
 10
-12.9848
 20
-36.9988
 11
-12.9392
 21
-36.6528
  0
LINE
  8
0
 10
-12.9392
 20
-36.6528
 11
-12.8637
 21
-36.3121
  0
LINE
  8
0
 10
-12.8637
 20
-36.3121
 11
-12.7588
 21
-35.9793
  0
LINE
  8
0
 10
-12.7588
 20
-35.9793
 11
-12.6252
 21
-35.6569
  0
LINE
  8
0
 10
-12.6252
 20
-35.6569
 11
-12.4641
 21
-35.3474
  0
LINE
  8
0
 10
-12.4641
 20
-35.3474
 11
-12.2766
 21
-35.0531
  0
LINE
  8
0
 10
-12.2766
 20
-35.0531
 11
-12.0642
 21
-34.7762
  0
LINE
  8
0
 10
-12.0642
 20
-34.7762
 11
-11.8284
 21
-34.519
  0
LINE
  8
0
 10
-11.8284
 20
-34.519
 11
-11.5711
 21
-34.2832
  0
LINE
  8
0
 10
-11.5711
 20
-34.2832
 11
-11.2943
 21
-34.0708
  0
LINE
  8
0
 10
-11.2943
 20
-34.0708
 11
-11
 21
-33.8833
  0
LINE
  8
0
 10
-11
 20
-33.8833
 11
-10.6905
 21
-33.7222
  0
LINE
  8
0
 10
-10.6905
 20
-33.7222
 11
-10.3681
 21
-33.5886
  0
LINE
  8
0
 10
-10.3681
 20
-33.5886
 11
-10.0353
 21
-33.4837
  0
LINE
  8
0
 10
-10.0353
 20
-33.4837
 11
-9.69458
 21
-33.4082
  0
LINE
  8
0
 10
-9.69458
 20
-33.4082
 11
-9.34862
 21
-33.3626
  0
LINE
  8
0
 10
-9.34862
 20
-33.3626
 11
-9
 21
-33.3474
  0
LINE
  8
0
 10
-9
 20
-33.3474
 11
9
 21
-33.3474
  0
LINE
  8
0
 10
9
 20
-33.3474
 11
9.34862
 21
-33.3626
  0
LINE
  8
0
 10
9.34862
 20
-33.3626
 11
9.69458
 21
-33.4082
  0
LINE
  8
0
 10
9.69458
 20
-33.4082
 11
10.0353
 21
-33.4837
  0
LINE
  8
0
 10
10.0353
 20
-33.4837
 11
10.3681
 21
-33.5886
  0
LINE
  8
0
 10
10.3681
 20
-33.5886
 11
10.6905
 21
-33.7222
  0
LINE
  8
0
 10
10.6905
 20
-33.7222
 11
11
 21
-33.8833
  0
LINE
  8
0
 10
11
 20
-33.8833
 11
11.2943
 21
-34.0708
  0
LINE
  8
0
 10
11.2943
 20
-34.0708
 11
11.5711
 21
-34.2832
  0
LINE
  8
0
 10
11.5711
 20
-34.2832
 11
11.8284
 21
-34.519
  0
LINE
  8
0
 10
11.8284
 20
-34.519
 11
12.0642
 21
-34.7762
  0
LINE
  8
0
 10
12.0642
 20
-34.7762
 11
12.2766
 21
-35.0531
  0
LINE
  8
0
 10
12.2766
 20
-35.0531
 11
12.4641
 21
-35.3474
  0
LINE
  8
0
 10
12.4641
 20
-35.3474
 11
12.6252
 21
-35.6569
  0
LINE
  8
0
 10
12.6252
 20
-35.6569
 11
12.7588
 21
-35.9793
  0
LINE
  8
0
 10
12.7588
 20
-35.9793
 11
12.8637
 21
-36.3121
  0
LINE
  8
0
 10
12.8637
 20
-36.3121
 11
12.9392
 21
-36.6528
  0
LINE
  8
0
 10
12.9392
 20
-36.6528
 11
12.9848
 21
-36.9988
  0
LINE
  8
0
 10
12.9848
 20
-36.9988
 11
13
 21
-37.3474
  0
LINE
  8
0
 10
13
 20
-37.3474
 11
13
 21
-132.653
  0
LINE
  8
0
 10
13
 20
-132.653
 11
12.9848
 21
-133.001
  0
LINE
  8
0
 10
12.9848
 20
-133.001
 11
12.9392
 21
-133.347
  0
LINE
  8
0
 10
12.9392
 20
-133.347
 11
12.8637
 21
-133.688
  0
LINE
  8
0
 10
12.8637
 20
-133.688
 11
12.7588
 21
-134.021
  0
LINE
  8
0
 10
12.7588
 20
-134.021
 11
12.6252
 21
-134.343
  0
LINE
  8
0
 10
12.6252
 20
-134.343
 11
12.4641
 21
-134.653
  0
LINE
  8
0
 10
12.4641
 20
-134.653
 11
12.2766
 21
-134.947
  0
LINE
  8
0
 10
12.2766
 20
-134.947
 11
12.0642
 21
-135.224
  0
LINE
  8
0
 10
12.0642
 20
-135.224
 11
11.8284
 21
-135.481
  0
LINE
  8
0
 10
11.8284
 20
-135.481
 11
11.5711
 21
-135.717
  0
LINE
  8
0
 10
11.5711
 20
-135.717
 11
11.2943
 21
-135.929
  0
LINE
  8
0
 10
11.2943
 20
-135.929
 11
11
 21
-136.117
  0
LINE
  8
0
 10
11
 20
-136.117
 11
10.6905
 21
-136.278
  0
LINE
  8
0
 10
10.6905
 20
-136.278
 11
10.3681
 21
-136.411
  0
LINE
  8
0
 10
10.3681
 20
-136.411
 11
10.0353
 21
-136.516
  0
LINE
  8
0
 10
10.0353
 20
-136.516
 11
9.69458
 21
-136.592
  0
LINE
  8
0
 10
9.69458
 20
-136.592
 11
9.34862
 21
-136.637
  0
LINE
  8
0
 10
9.34862
 20
-136.637
 11
9
 21
-136.653
  0
LINE
  8
0
 10
9
 20
-136.653
 11
-9
 21
-136.653
  0
LINE
  8
0
 10
26.8518
 20
-141.694
 11
26.7048
 21
-141.674
  0
LINE
  8
0
 10
26.7048
 20
-141.674
 11
26.56
 21
-141.642
  0
LINE
  8
0
 10
26.56
 20
-141.642
 11
26.4186
 21
-141.597
  0
LINE
  8
0
 10
26.4186
 20
-141.597
 11
26.2815
 21
-141.541
  0
LINE
  8
0
 10
26.2815
 20
-141.541
 11
26.15
 21
-141.472
  0
LINE
  8
0
 10
26.15
 20
-141.472
 11
26.0249
 21
-141.393
  0
LINE
  8
0
 10
26.0249
 20
-141.393
 11
25.9073
 21
-141.302
  0
LINE
  8
0
 10
25.9073
 20
-141.302
 11
25.7979
 21
-141.202
  0
LINE
  8
0
 10
25.7979
 20
-141.202
 11
25.6977
 21
-141.093
  0
LINE
  8
0
 10
25.6977
 20
-141.093
 11
25.6074
 21
-140.975
  0
LINE
  8
0
 10
25.6074
 20
-140.975
 11
25.5278
 21
-140.85
  0
LINE
  8
0
 10
25.5278
 20
-140.85
 11
25.4593
 21
-140.718
  0
LINE
  8
0
 10
25.4593
 20
-140.718
 11
25.4025
 21
-140.581
  0
LINE
  8
0
 10
25.4025
 20
-140.581
 11
25.3579
 21
-140.44
  0
LINE
  8
0
 10
25.3579
 20
-140.44
 11
25.3258
 21
-140.295
  0
LINE
  8
0
 10
25.3258
 20
-140.295
 11
25.3065
 21
-140.148
  0
LINE
  8
0
 10
25.3065
 20
-140.148
 11
25.3
 21
-140
  0
LINE
  8
0
 10
25.3
 20
-140
 11
25.3065
 21
-139.852
  0
LINE
  8
0
 10
25.3065
 20
-139.852
 11
25.3258
 21
-139.705
  0
LINE
  8
0
 10
25.3258
 20
-139.705
 11
25.3579
 21
-139.56
  0
LINE
  8
0
 10
25.3579
 20
-139.56
 11
25.4025
 21
-139.419
  0
LINE
  8
0
 10
25.4025
 20
-139.419
 11
25.4593
 21
-139.282
  0
LINE
  8
0
 10
25.4593
 20
-139.282
 11
25.5278
 21
-139.15
  0
LINE
  8
0
 10
25.5278
 20
-139.15
 11
25.6074
 21
-139.025
  0
LINE
  8
0
 10
25.6074
 20
-139.025
 11
25.6977
 21
-138.907
  0
LINE
  8
0
 10
25.6977
 20
-138.907
 11
25.7979
 21
-138.798
  0
LINE
  8
0
 10
25.7979
 20
-138.798
 11
25.9073
 21
-138.698
  0
LINE
  8
0
 10
25.9073
 20
-138.698
 11
26.0249
 21
-138.607
  0
LINE
  8
0
 10
26.0249
 20
-138.607
 11
26.15
 21
-138.528
  0
LINE
  8
0
 10
26.15
 20
-138.528
 11
26.2815
 21
-138.459
  0
LINE
  8
0
 10
26.2815
 20
-138.459
 11
26.4186
 21
-138.403
  0
LINE
  8
0
 10
26.4186
 20
-138.403
 11
26.56
 21
-138.358
  0
LINE
  8
0
 10
26.56
 20
-138.358
 11
26.7048
 21
-138.326
  0
LINE
  8
0
 10
26.7048
 20
-138.326
 11
26.8518
 21
-138.306
  0
LINE
  8
0
 10
26.8518
 20
-138.306
 11
27
 21
-138.3
  0
LINE
  8
0
 10
27
 20
-138.3
 11
27.1482
 21
-138.306
  0
LINE
  8
0
 10
27.1482
 20
-138.306
 11
27.2952
 21
-138.326
  0
LINE
  8
0
 10
27.2952
 20
-138.326
 11
27.44
 21
-138.358
  0
LINE
  8
0
 10
27.44
 20
-138.358
 11
27.5814
 21
-138.403
  0
LINE
  8
0
 10
27.5814
 20
-138.403
 11
27.7184
 21
-138.459
  0
LINE
  8
0
 10
27.7184
 20
-138.459
 11
27.85
 21
-138.528
  0
LINE
  8
0
 10
27.85
 20
-138.528
 11
27.9751
 21
-138.607
  0
LINE
  8
0
 10
27.9751
 20
-138.607
 11
28.0927
 21
-138.698
  0
LINE
  8
0
 10
28.0927
 20
-138.698
 11
28.2021
 21
-138.798
  0
LINE
  8
0
 10
28.2021
 20
-138.798
 11
28.3023
 21
-138.907
  0
LINE
  8
0
 10
28.3023
 20
-138.907
 11
28.3925
 21
-139.025
  0
LINE
  8
0
 10
28.3925
 20
-139.025
 11
28.4722
 21
-139.15
  0
LINE
  8
0
 10
28.4722
 20
-139.15
 11
28.5407
 21
-139.282
  0
LINE
  8
0
 10
28.5407
 20
-139.282
 11
28.5975
 21
-139.419
  0
LINE
  8
0
 10
28.5975
 20
-139.419
 11
28.6421
 21
-139.56
  0
LINE
  8
0
 10
28.6421
 20
-139.56
 11
28.6742
 21
-139.705
  0
LINE
  8
0
 10
28.6742
 20
-139.705
 11
28.6935
 21
-139.852
  0
LINE
  8
0
 10
28.6935
 20
-139.852
 11
28.7
 21
-140
  0
LINE
  8
0
 10
28.7
 20
-140
 11
28.6935
 21
-140.148
  0
LINE
  8
0
 10
28.6935
 20
-140.148
 11
28.6742
 21
-140.295
  0
LINE
  8
0
 10
28.6742
 20
-140.295
 11
28.6421
 21
-140.44
  0
LINE
  8
0
 10
28.6421
 20
-140.44
 11
28.5975
 21
-140.581
  0
LINE
  8
0
 10
28.5975
 20
-140.581
 11
28.5407
 21
-140.718
  0
LINE
  8
0
 10
28.5407
 20
-140.718
 11
28.4722
 21
-140.85
  0
LINE
  8
0
 10
28.4722
 20
-140.85
 11
28.3925
 21
-140.975
  0
LINE
  8
0
 10
28.3925
 20
-140.975
 11
28.3023
 21
-141.093
  0
LINE
  8
0
 10
28.3023
 20
-141.093
 11
28.2021
 21
-141.202
  0
LINE
  8
0
 10
28.2021
 20
-141.202
 11
28.0927
 21
-141.302
  0
LINE
  8
0
 10
28.0927
 20
-141.302
 11
27.9751
 21
-141.393
  0
LINE
  8
0
 10
27.9751
 20
-141.393
 11
27.85
 21
-141.472
  0
LINE
  8
0
 10
27.85
 20
-141.472
 11
27.7184
 21
-141.541
  0
LINE
  8
0
 10
27.7184
 20
-141.541
 11
27.5814
 21
-141.597
  0
LINE
  8
0
 10
27.5814
 20
-141.597
 11
27.44
 21
-141.642
  0
LINE
  8
0
 10
27.44
 20
-141.642
 11
27.2952
 21
-141.674
  0
LINE
  8
0
 10
27.2952
 20
-141.674
 11
27.1482
 21
-141.694
  0
LINE
  8
0
 10
27.1482
 20
-141.694
 11
27
 21
-141.7
  0
LINE
  8
0
 10
27
 20
-141.7
 11
26.8518
 21
-141.694
  0
LINE
  8
0
 10
-27.1482
 20
-141.694
 11
-27.2952
 21
-141.674
  0
LINE
  8
0
 10
-27.2952
 20
-141.674
 11
-27.44
 21
-141.642
  0
LINE
  8
0
 10
-27.44
 20
-141.642
 11
-27.5814
 21
-141.597
  0
LINE
  8
0
 10
-27.5814
 20
-141.597
 11
-27.7184
 21
-141.541
  0
LINE
  8
0
 10
-27.7184
 20
-141.541
 11
-27.85
 21
-141.472
  0
LINE
  8
0
 10
-27.85
 20
-141.472
 11
-27.9751
 21
-141.393
  0
LINE
  8
0
 10
-27.9751
 20
-141.393
 11
-28.0927
 21
-141.302
  0
LINE
  8
0
 10
-28.0927
 20
-141.302
 11
-28.2021
 21
-141.202
  0
LINE
  8
0
 10
-28.2021
 20
-141.202
 11
-28.3023
 21
-141.093
  0
LINE
  8
0
 10
-28.3023
 20
-141.093
 11
-28.3925
 21
-140.975
  0
LINE
  8
0
 10
-28.3925
 20
-140.975
 11
-28.4722
 21
-140.85
  0
LINE
  8
0
 10
-28.4722
 20
-140.85
 11
-28.5407
 21
-140.718
  0
LINE
  8
0
 10
-28.5407
 20
-140.718
 11
-28.5975
 21
-140.581
  0
LINE
  8
0
 10
-28.5975
 20
-140.581
 11
-28.6421
 21
-140.44
  0
LINE
  8
0
 10
-28.6421
 20
-140.44
 11
-28.6742
 21
-140.295
  0
LINE
  8
0
 10
-28.6742
 20
-140.295
 11
-28.6935
 21
-140.148
  0
LINE
  8
0
 10
-28.6935
 20
-140.148
 11
-28.7
 21
-140
  0
LINE
  8
0
 10
-28.7
 20
-140
 11
-28.6935
 21
-139.852
  0
LINE
  8
0
 10
-28.6935
 20
-139.852
 11
-28.6742
 21
-139.705
  0
LINE
  8
0
 10
-28.6742
 20
-139.705
 11
-28.6421
 21
-139.56
  0
LINE
  8
0
 10
-28.6421
 20
-139.56
 11
-28.5975
 21
-139.419
  0
LINE
  8
0
 10
-28.5975
 20
-139.419
 11
-28.5407
 21
-139.282
  0
LINE
  8
0
 10
-28.5407
 20
-139.282
 11
-28.4722
 21
-139.15
  0
LINE
  8
0
 10
-28.4722
 20
-139.15
 11
-28.3925
 21
-139.025
  0
LINE
  8
0
 10
-28.3925
 20
-139.025
 11
-28.3023
 21
-138.907
  0
LINE
  8
0
 10
-28.3023
 20
-138.907
 11
-28.2021
 21
-138.798
  0
LINE
  8
0
 10
-28.2021
 20
-138.798
 11
-28.0927
 21
-138.698
  0
LINE
  8
0
 10
-28.0927
 20
-138.698
 11
-27.9751
 21
-138.607
  0
LINE
  8
0
 10
-27.9751
 20
-138.607
 11
-27.85
 21
-138.528
  0
LINE
  8
0
 10
-27.85
 20
-138.528
 11
-27.7184
 21
-138.459
  0
LINE
  8
0
 10
-27.7184
 20
-138.459
 11
-27.5814
 21
-138.403
  0
LINE
  8
0
 10
-27.5814
 20
-138.403
 11
-27.44
 21
-138.358
  0
LINE
  8
0
 10
-27.44
 20
-138.358
 11
-27.2952
 21
-138.326
  0
LINE
  8
0
 10
-27.2952
 20
-138.326
 11
-27.1482
 21
-138.306
  0
LINE
  8
0
 10
-27.1482
 20
-138.306
 11
-27
 21
-138.3
  0
LINE
  8
0
 10
-27
 20
-138.3
 11
-26.8518
 21
-138.306
  0
LINE
  8
0
 10
-26.8518
 20
-138.306
 11
-26.7048
 21
-138.326
  0
LINE
  8
0
 10
-26.7048
 20
-138.326
 11
-26.56
 21
-138.358
  0
LINE
  8
0
 10
-26.56
 20
-138.358
 11
-26.4186
 21
-138.403
  0
LINE
  8
0
 10
-26.4186
 20
-138.403
 11
-26.2815
 21
-138.459
  0
LINE
  8
0
 10
-26.2815
 20
-138.459
 11
-26.15
 21
-138.528
  0
LINE
  8
0
 10
-26.15
 20
-138.528
 11
-26.0249
 21
-138.607
  0
LINE
  8
0
 10
-26.0249
 20
-138.607
 11
-25.9073
 21
-138.698
  0
LINE
  8
0
 10
-25.9073
 20
-138.698
 11
-25.7979
 21
-138.798
  0
LINE
  8
0
 10
-25.7979
 20
-138.798
 11
-25.6977
 21
-138.907
  0
LINE
  8
0
 10
-25.6977
 20
-138.907
 11
-25.6074
 21
-139.025
  0
LINE
  8
0
 10
-25.6074
 20
-139.025
 11
-25.5278
 21
-139.15
  0
LINE
  8
0
 10
-25.5278
 20
-139.15
 11
-25.4593
 21
-139.282
  0
LINE
  8
0
 10
-25.4593
 20
-139.282
 11
-25.4025
 21
-139.419
  0
LINE
  8
0
 10
-25.4025
 20
-139.419
 11
-25.3579
 21
-139.56
  0
LINE
  8
0
 10
-25.3579
 20
-139.56
 11
-25.3258
 21
-139.705
  0
LINE
  8
0
 10
-25.3258
 20
-139.705
 11
-25.3065
 21
-139.852
  0
LINE
  8
0
 10
-25.3065
 20
-139.852
 11
-25.3
 21
-140
  0
LINE
  8
0
 10
-25.3
 20
-140
 11
-25.3065
 21
-140.148
  0
LINE
  8
0
 10
-25.3065
 20
-140.148
 11
-25.3258
 21
-140.295
  0
LINE
  8
0
 10
-25.3258
 20
-140.295
 11
-25.3579
 21
-140.44
  0
LINE
  8
0
 10
-25.3579
 20
-140.44
 11
-25.4025
 21
-140.581
  0
LINE
  8
0
 10
-25.4025
 20
-140.581
 11
-25.4593
 21
-140.718
  0
LINE
  8
0
 10
-25.4593
 20
-140.718
 11
-25.5278
 21
-140.85
  0
LINE
  8
0
 10
-25.5278
 20
-140.85
 11
-25.6074
 21
-140.975
  0
LINE
  8
0
 10
-25.6074
 20
-140.975
 11
-25.6977
 21
-141.093
  0
LINE
  8
0
 10
-25.6977
 20
-141.093
 11
-25.7979
 21
-141.202
  0
LINE
  8
0
 10
-25.7979
 20
-141.202
 11
-25.9073
 21
-141.302
  0
LINE
  8
0
 10
-25.9073
 20
-141.302
 11
-26.0249
 21
-141.393
  0
LINE
  8
0
 10
-26.0249
 20
-141.393
 11
-26.15
 21
-141.472
  0
LINE
  8
0
 10
-26.15
 20
-141.472
 11
-26.2815
 21
-141.541
  0
LINE
  8
0
 10
-26.2815
 20
-141.541
 11
-26.4186
 21
-141.597
  0
LINE
  8
0
 10
-26.4186
 20
-141.597
 11
-26.56
 21
-141.642
  0
LINE
  8
0
 10
-26.56
 20
-141.642
 11
-26.7048
 21
-141.674
  0
LINE
  8
0
 10
-26.7048
 20
-141.674
 11
-26.8518
 21
-141.694
  0
LINE
  8
0
 10
-26.8518
 20
-141.694
 11
-27
 21
-141.7
  0
LINE
  8
0
 10
-27
 20
-141.7
 11
-27.1482
 21
-141.694
  0
LINE
  8
0
 10
56.8039
 20
-164.241
 11
56.6093
 21
-164.216
  0
LINE
  8
0
 10
56.6093
 20
-164.216
 11
56.4176
 21
-164.173
  0
LINE
  8
0
 10
56.4176
 20
-164.173
 11
56.2305
 21
-164.114
  0
LINE
  8
0
 10
56.2305
 20
-164.114
 11
56.0491
 21
-164.039
  0
LINE
  8
0
 10
56.0491
 20
-164.039
 11
55.875
 21
-163.949
  0
LINE
  8
0
 10
55.875
 20
-163.949
 11
55.7094
 21
-163.843
  0
LINE
  8
0
 10
55.7094
 20
-163.843
 11
55.5537
 21
-163.724
  0
LINE
  8
0
 10
55.5537
 20
-163.724
 11
55.409
 21
-163.591
  0
LINE
  8
0
 10
55.409
 20
-163.591
 11
55.2764
 21
-163.446
  0
LINE
  8
0
 10
55.2764
 20
-163.446
 11
55.1569
 21
-163.291
  0
LINE
  8
0
 10
55.1569
 20
-163.291
 11
55.0514
 21
-163.125
  0
LINE
  8
0
 10
55.0514
 20
-163.125
 11
54.9608
 21
-162.951
  0
LINE
  8
0
 10
54.9608
 20
-162.951
 11
54.8857
 21
-162.77
  0
LINE
  8
0
 10
54.8857
 20
-162.77
 11
54.8267
 21
-162.582
  0
LINE
  8
0
 10
54.8267
 20
-162.582
 11
54.7842
 21
-162.391
  0
LINE
  8
0
 10
54.7842
 20
-162.391
 11
54.7586
 21
-162.196
  0
LINE
  8
0
 10
54.7586
 20
-162.196
 11
54.75
 21
-162
  0
LINE
  8
0
 10
54.75
 20
-162
 11
54.7586
 21
-161.804
  0
LINE
  8
0
 10
54.7586
 20
-161.804
 11
54.7842
 21
-161.609
  0
LINE
  8
0
 10
54.7842
 20
-161.609
 11
54.8267
 21
-161.418
  0
LINE
  8
0
 10
54.8267
 20
-161.418
 11
54.8857
 21
-161.23
  0
LINE
  8
0
 10
54.8857
 20
-161.23
 11
54.9608
 21
-161.049
  0
LINE
  8
0
 10
54.9608
 20
-161.049
 11
55.0514
 21
-160.875
  0
LINE
  8
0
 10
55.0514
 20
-160.875
 11
55.1569
 21
-160.709
  0
LINE
  8
0
 10
55.1569
 20
-160.709
 11
55.2764
 21
-160.554
  0
LINE
  8
0
 10
55.2764
 20
-160.554
 11
55.409
 21
-160.409
  0
LINE
  8
0
 10
55.409
 20
-160.409
 11
55.5537
 21
-160.276
  0
LINE
  8
0
 10
55.5537
 20
-160.276
 11
55.7094
 21
-160.157
  0
LINE
  8
0
 10
55.7094
 20
-160.157
 11
55.875
 21
-160.051
  0
LINE
  8
0
 10
55.875
 20
-160.051
 11
56.0491
 21
-159.961
  0
LINE
  8
0
 10
56.0491
 20
-159.961
 11
56.2305
 21
-159.886
  0
LINE
  8
0
 10
56.2305
 20
-159.886
 11
56.4176
 21
-159.827
  0
LINE
  8
0
 10
56.4176
 20
-159.827
 11
56.6093
 21
-159.784
  0
LINE
  8
0
 10
56.6093
 20
-159.784
 11
56.8039
 21
-159.759
  0
LINE
  8
0
 10
56.8039
 20
-159.759
 11
57
 21
-159.75
  0
LINE
  8
0
 10
57
 20
-159.75
 11
57.1961
 21
-159.759
  0
LINE
  8
0
 10
57.1961
 20
-159.759
 11
57.3907
 21
-159.784
  0
LINE
  8
0
 10
57.3907
 20
-159.784
 11
57.5823
 21
-159.827
  0
LINE
  8
0
 10
57.5823
 20
-159.827
 11
57.7695
 21
-159.886
  0
LINE
  8
0
 10
57.7695
 20
-159.886
 11
57.9509
 21
-159.961
  0
LINE
  8
0
 10
57.9509
 20
-159.961
 11
58.125
 21
-160.051
  0
LINE
  8
0
 10
58.125
 20
-160.051
 11
58.2905
 21
-160.157
  0
LINE
  8
0
 10
58.2905
 20
-160.157
 11
58.4463
 21
-160.276
  0
LINE
  8
0
 10
58.4463
 20
-160.276
 11
58.591
 21
-160.409
  0
LINE
  8
0
 10
58.591
 20
-160.409
 11
58.7236
 21
-160.554
  0
LINE
  8
0
 10
58.7236
 20
-160.554
 11
58.8431
 21
-160.709
  0
LINE
  8
0
 10
58.8431
 20
-160.709
 11
58.9485
 21
-160.875
  0
LINE
  8
0
 10
58.9485
 20
-160.875
 11
59.0392
 21
-161.049
  0
LINE
  8
0
 10
59.0392
 20
-161.049
 11
59.1143
 21
-161.23
  0
LINE
  8
0
 10
59.1143
 20
-161.23
 11
59.1733
 21
-161.418
  0
LINE
  8
0
 10
59.1733
 20
-161.418
 11
59.2158
 21
-161.609
  0
LINE
  8
0
 10
59.2158
 20
-161.609
 11
59.2414
 21
-161.804
  0
LINE
  8
0
 10
59.2414
 20
-161.804
 11
59.25
 21
-162
  0
LINE
  8
0
 10
59.25
 20
-162
 11
59.2414
 21
-162.196
  0
LINE
  8
0
 10
59.2414
 20
-162.196
 11
59.2158
 21
-162.391
  0
LINE
  8
0
 10
59.2158
 20
-162.391
 11
59.1733
 21
-162.582
  0
LINE
  8
0
 10
59.1733
 20
-162.582
 11
59.1143
 21
-162.77
  0
LINE
  8
0
 10
59.1143
 20
-162.77
 11
59.0392
 21
-162.951
  0
LINE
  8
0
 10
59.0392
 20
-162.951
 11
58.9485
 21
-163.125
  0
LINE
  8
0
 10
58.9485
 20
-163.125
 11
58.8431
 21
-163.291
  0
LINE
  8
0
 10
58.8431
 20
-163.291
 11
58.7236
 21
-163.446
  0
LINE
  8
0
 10
58.7236
 20
-163.446
 11
58.591
 21
-163.591
  0
LINE
  8
0
 10
58.591
 20
-163.591
 11
58.4463
 21
-163.724
  0
LINE
  8
0
 10
58.4463
 20
-163.724
 11
58.2905
 21
-163.843
  0
LINE
  8
0
 10
58.2905
 20
-163.843
 11
58.125
 21
-163.949
  0
LINE
  8
0
 10
58.125
 20
-163.949
 11
57.9509
 21
-164.039
  0
LINE
  8
0
 10
57.9509
 20
-164.039
 11
57.7695
 21
-164.114
  0
LINE
  8
0
 10
57.7695
 20
-164.114
 11
57.5823
 21
-164.173
  0
LINE
  8
0
 10
57.5823
 20
-164.173
 11
57.3907
 21
-164.216
  0
LINE
  8
0
 10
57.3907
 20
-164.216
 11
57.1961
 21
-164.241
  0
LINE
  8
0
 10
57.1961
 20
-164.241
 11
57
 21
-164.25
  0
LINE
  8
0
 10
57
 20
-164.25
 11
56.8039
 21
-164.241
  0
LINE
  8
0
 10
-0.196091
 20
-164.241
 11
-0.390701
 21
-164.216
  0
LINE
  8
0
 10
-0.390701
 20
-164.216
 11
-0.582336
 21
-164.173
  0
LINE
  8
0
 10
-0.582336
 20
-164.173
 11
-0.769531
 21
-164.114
  0
LINE
  8
0
 10
-0.769531
 20
-164.114
 11
-0.950882
 21
-164.039
  0
LINE
  8
0
 10
-0.950882
 20
-164.039
 11
-1.125
 21
-163.949
  0
LINE
  8
0
 10
-1.125
 20
-163.949
 11
-1.29054
 21
-163.843
  0
LINE
  8
0
 10
-1.29054
 20
-163.843
 11
-1.44626
 21
-163.724
  0
LINE
  8
0
 10
-1.44626
 20
-163.724
 11
-1.59099
 21
-163.591
  0
LINE
  8
0
 10
-1.59099
 20
-163.591
 11
-1.72359
 21
-163.446
  0
LINE
  8
0
 10
-1.72359
 20
-163.446
 11
-1.84308
 21
-163.291
  0
LINE
  8
0
 10
-1.84308
 20
-163.291
 11
-1.94855
 21
-163.125
  0
LINE
  8
0
 10
-1.94855
 20
-163.125
 11
-2.03918
 21
-162.951
  0
LINE
  8
0
 10
-2.03918
 20
-162.951
 11
-2.1143
 21
-162.77
  0
LINE
  8
0
 10
-2.1143
 20
-162.77
 11
-2.17332
 21
-162.582
  0
LINE
  8
0
 10
-2.17332
 20
-162.582
 11
-2.21581
 21
-162.391
  0
LINE
  8
0
 10
-2.21581
 20
-162.391
 11
-2.24142
 21
-162.196
  0
LINE
  8
0
 10
-2.24142
 20
-162.196
 11
-2.25
 21
-162
  0
LINE
  8
0
 10
-2.25
 20
-162
 11
-2.24142
 21
-161.804
  0
LINE
  8
0
 10
-2.24142
 20
-161.804
 11
-2.21581
 21
-161.609
  0
LINE
  8
0
 10
-2.21581
 20
-161.609
 11
-2.17332
 21
-161.418
  0
LINE
  8
0
 10
-2.17332
 20
-161.418
 11
-2.1143
 21
-161.23
  0
LINE
  8
0
 10
-2.1143
 20
-161.23
 11
-2.03918
 21
-161.049
  0
LINE
  8
0
 10
-2.03918
 20
-161.049
 11
-1.94855
 21
-160.875
  0
LINE
  8
0
 10
-1.94855
 20
-160.875
 11
-1.84308
 21
-160.709
  0
LINE
  8
0
 10
-1.84308
 20
-160.709
 11
-1.72359
 21
-160.554
  0
LINE
  8
0
 10
-1.72359
 20
-160.554
 11
-1.59099
 21
-160.409
  0
LINE
  8
0
 10
-1.59099
 20
-160.409
 11
-1.44626
 21
-160.276
  0
LINE
  8
0
 10
-1.44626
 20
-160.276
 11
-1.29054
 21
-160.157
  0
LINE
  8
0
 10
-1.29054
 20
-160.157
 11
-1.125
 21
-160.051
  0
LINE
  8
0
 10
-1.125
 20
-160.051
 11
-0.950882
 21
-159.961
  0
LINE
  8
0
 10
-0.950882
 20
-159.961
 11
-0.769531
 21
-159.886
  0
LINE
  8
0
 10
-0.769531
 20
-159.886
 11
-0.582336
 21
-159.827
  0
LINE
  8
0
 10
-0.582336
 20
-159.827
 11
-0.390701
 21
-159.784
  0
LINE
  8
0
 10
-0.390701
 20
-159.784
 11
-0.196091
 21
-159.759
  0
LINE
  8
0
 10
-0.196091
 20
-159.759
 11
0
 21
-159.75
  0
LINE
  8
0
 10
0
 20
-159.75
 11
0.196091
 21
-159.759
  0
LINE
  8
0
 10
0.196091
 20
-159.759
 11
0.390701
 21
-159.784
  0
LINE
  8
0
 10
0.390701
 20
-159.784
 11
0.582336
 21
-159.827
  0
LINE
  8
0
 10
0.582336
 20
-159.827
 11
0.769531
 21
-159.886
  0
LINE
  8
0
 10
0.769531
 20
-159.886
 11
0.950882
 21
-159.961
  0
LINE
  8
0
 10
0.950882
 20
-159.961
 11
1.125
 21
-160.051
  0
LINE
  8
0
 10
1.125
 20
-160.051
 11
1.29054
 21
-160.157
  0
LINE
  8
0
 10
1.29054
 20
-160.157
 11
1.44626
 21
-160.276
  0
LINE
  8
0
 10
1.44626
 20
-160.276
 11
1.59099
 21
-160.409
  0
LINE
  8
0
 10
1.59099
 20
-160.409
 11
1.72359
 21
-160.554
  0
LINE
  8
0
 10
1.72359
 20
-160.554
 11
1.84308
 21
-160.709
  0
LINE
  8
0
 10
1.84308
 20
-160.709
 11
1.94855
 21
-160.875
  0
LINE
  8
0
 10
1.94855
 20
-160.875
 11
2.03918
 21
-161.049
  0
LINE
  8
0
 10
2.03918
 20
-161.049
 11
2.1143
 21
-161.23
  0
LINE
  8
0
 10
2.1143
 20
-161.23
 11
2.17332
 21
-161.418
  0
LINE
  8
0
 10
2.17332
 20
-161.418
 11
2.21581
 21
-161.609
  0
LINE
  8
0
 10
2.21581
 20
-161.609
 11
2.24142
 21
-161.804
  0
LINE
  8
0
 10
2.24142
 20
-161.804
 11
2.25
 21
-162
  0
LINE
  8
0
 10
2.25
 20
-162
 11
2.24142
 21
-162.196
  0
LINE
  8
0
 10
2.24142
 20
-162.196
 11
2.21581
 21
-162.391
  0
LINE
  8
0
 10
2.21581
 20
-162.391
 11
2.17332
 21
-162.582
  0
LINE
  8
0
 10
2.17332
 20
-162.582
 11
2.1143
 21
-162.77
  0
LINE
  8
0
 10
2.1143
 20
-162.77
 11
2.03918
 21
-162.951
  0
LINE
  8
0
 10
2.03918
 20
-162.951
 11
1.94855
 21
-163.125
  0
LINE
  8
0
 10
1.94855
 20
-163.125
 11
1.84308
 21
-163.291
  0
LINE
  8
0
 10
1.84308
 20
-163.291
 11
1.72359
 21
-163.446
  0
LINE
  8
0
 10
1.72359
 20
-163.446
 11
1.59099
 21
-163.591
  0
LINE
  8
0
 10
1.59099
 20
-163.591
 11
1.44626
 21
-163.724
  0
LINE
  8
0
 10
1.44626
 20
-163.724
 11
1.29054
 21
-163.843
  0
LINE
  8
0
 10
1.29054
 20
-163.843
 11
1.125
 21
-163.949
  0
LINE
  8
0
 10
1.125
 20
-163.949
 11
0.950882
 21
-164.039
  0
LINE
  8
0
 10
0.950882
 20
-164.039
 11
0.769531
 21
-164.114
  0
LINE
  8
0
 10
0.769531
 20
-164.114
 11
0.582336
 21
-164.173
  0
LINE
  8
0
 10
0.582336
 20
-164.173
 11
0.390701
 21
-164.216
  0
LINE
  8
0
 10
0.390701
 20
-164.216
 11
0.196091
 21
-164.241
  0
LINE
  8
0
 10
0.196091
 20
-164.241
 11
0
 21
-164.25
  0
LINE
  8
0
 10
0
 20
-164.25
 11
-0.196091
 21
-164.241
  0
LINE
  8
0
 10
-57.1961
 20
-164.241
 11
-57.3907
 21
-164.216
  0
LINE
  8
0
 10
-57.3907
 20
-164.216
 11
-57.5823
 21
-164.173
  0
LINE
  8
0
 10
-57.5823
 20
-164.173
 11
-57.7695
 21
-164.114
  0
LINE
  8
0
 10
-57.7695
 20
-164.114
 11
-57.9509
 21
-164.039
  0
LINE
  8
0
 10
-57.9509
 20
-164.039
 11
-58.125
 21
-163.949
  0
LINE
  8
0
 10
-58.125
 20
-163.949
 11
-58.2905
 21
-163.843
  0
LINE
  8
0
 10
-58.2905
 20
-163.843
 11
-58.4463
 21
-163.724
  0
LINE
  8
0
 10
-58.4463
 20
-163.724
 11
-58.591
 21
-163.591
  0
LINE
  8
0
 10
-58.591
 20
-163.591
 11
-58.7236
 21
-163.446
  0
LINE
  8
0
 10
-58.7236
 20
-163.446
 11
-58.8431
 21
-163.291
  0
LINE
  8
0
 10
-58.8431
 20
-163.291
 11
-58.9485
 21
-163.125
  0
LINE
  8
0
 10
-58.9485
 20
-163.125
 11
-59.0392
 21
-162.951
  0
LINE
  8
0
 10
-59.0392
 20
-162.951
 11
-59.1143
 21
-162.77
  0
LINE
  8
0
 10
-59.1143
 20
-162.77
 11
-59.1733
 21
-162.582
  0
LINE
  8
0
 10
-59.1733
 20
-162.582
 11
-59.2158
 21
-162.391
  0
LINE
  8
0
 10
-59.2158
 20
-162.391
 11
-59.2414
 21
-162.196
  0
LINE
  8
0
 10
-59.2414
 20
-162.196
 11
-59.25
 21
-162
  0
LINE
  8
0
 10
-59.25
 20
-162
 11
-59.2414
 21
-161.804
  0
LINE
  8
0
 10
-59.2414
 20
-161.804
 11
-59.2158
 21
-161.609
  0
LINE
  8
0
 10
-59.2158
 20
-161.609
 11
-59.1733
 21
-161.418
  0
LINE
  8
0
 10
-59.1733
 20
-161.418
 11
-59.1143
 21
-161.23
  0
LINE
  8
0
 10
-59.1143
 20
-161.23
 11
-59.0392
 21
-161.049
  0
LINE
  8
0
 10
-59.0392
 20
-161.049
 11
-58.9485
 21
-160.875
  0
LINE
  8
0
 10
-58.9485
 20
-160.875
 11
-58.8431
 21
-160.709
  0
LINE
  8
0
 10
-58.8431
 20
-160.709
 11
-58.7236
 21
-160.554
  0
LINE
  8
0
 10
-58.7236
 20
-160.554
 11
-58.591
 21
-160.409
  0
LINE
  8
0
 10
-58.591
 20
-160.409
 11
-58.4463
 21
-160.276
  0
LINE
  8
0
 10
-58.4463
 20
-160.276
 11
-58.2905
 21
-160.157
  0
LINE
  8
0
 10
-58.2905
 20
-160.157
 11
-58.125
 21
-160.051
  0
LINE
  8
0
 10
-58.125
 20
-160.051
 11
-57.9509
 21
-159.961
  0
LINE
  8
0
 10
-57.9509
 20
-159.961
 11
-57.7695
 21
-159.886
  0
LINE
  8
0
 10
-57.7695
 20
-159.886
 11
-57.5823
 21
-159.827
  0
LINE
  8
0
 10
-57.5823
 20
-159.827
 11
-57.3907
 21
-159.784
  0
LINE
  8
0
 10
-57.3907
 20
-159.784
 11
-57.1961
 21
-159.759
  0
LINE
  8
0
 10
-57.1961
 20
-159.759
 11
-57
 21
-159.75
  0
LINE
  8
0
 10
-57
 20
-159.75
 11
-56.8039
 21
-159.759
  0
LINE
  8
0
 10
-56.8039
 20
-159.759
 11
-56.6093
 21
-159.784
  0
LINE
  8
0
 10
-56.6093
 20
-159.784
 11
-56.4176
 21
-159.827
  0
LINE
  8
0
 10
-56.4176
 20
-159.827
 11
-56.2305
 21
-159.886
  0
LINE
  8
0
 10
-56.2305
 20
-159.886
 11
-56.0491
 21
-159.961
  0
LINE
  8
0
 10
-56.0491
 20
-159.961
 11
-55.875
 21
-160.051
  0
LINE
  8
0
 10
-55.875
 20
-160.051
 11
-55.7094
 21
-160.157
  0
LINE
  8
0
 10
-55.7094
 20
-160.157
 11
-55.5537
 21
-160.276
  0
LINE
  8
0
 10
-55.5537
 20
-160.276
 11
-55.409
 21
-160.409
  0
LINE
  8
0
 10
-55.409
 20
-160.409
 11
-55.2764
 21
-160.554
  0
LINE
  8
0
 10
-55.2764
 20
-160.554
 11
-55.1569
 21
-160.709
  0
LINE
  8
0
 10
-55.1569
 20
-160.709
 11
-55.0514
 21
-160.875
  0
LINE
  8
0
 10
-55.0514
 20
-160.875
 11
-54.9608
 21
-161.049
  0
LINE
  8
0
 10
-54.9608
 20
-161.049
 11
-54.8857
 21
-161.23
  0
LINE
  8
0
 10
-54.8857
 20
-161.23
 11
-54.8267
 21
-161.418
  0
LINE
  8
0
 10
-54.8267
 20
-161.418
 11
-54.7842
 21
-161.609
  0
LINE
  8
0
 10
-54.7842
 20
-161.609
 11
-54.7586
 21
-161.804
  0
LINE
  8
0
 10
-54.7586
 20
-161.804
 11
-54.75
 21
-162
  0
LINE
  8
0
 10
-54.75
 20
-162
 11
-54.7586
 21
-162.196
  0
LINE
  8
0
 10
-54.7586
 20
-162.196
 11
-54.7842
 21
-162.391
  0
LINE
  8
0
 10
-54.7842
 20
-162.391
 11
-54.8267
 21
-162.582
  0
LINE
  8
0
 10
-54.8267
 20
-162.582
 11
-54.8857
 21
-162.77
  0
LINE
  8
0
 10
-54.8857
 20
-162.77
 11
-54.9608
 21
-162.951
  0
LINE
  8
0
 10
-54.9608
 20
-162.951
 11
-55.0514
 21
-163.125
  0
LINE
  8
0
 10
-55.0514
 20
-163.125
 11
-55.1569
 21
-163.291
  0
LINE
  8
0
 10
-55.1569
 20
-163.291
 11
-55.2764
 21
-163.446
  0
LINE
  8
0
 10
-55.2764
 20
-163.446
 11
-55.409
 21
-163.591
  0
LINE
  8
0
 10
-55.409
 20
-163.591
 11
-55.5537
 21
-163.724
  0
LINE
  8
0
 10
-55.5537
 20
-163.724
 11
-55.7094
 21
-163.843
  0
LINE
  8
0
 10
-55.7094
 20
-163.843
 11
-55.875
 21
-163.949
  0
LINE
  8
0
 10
-55.875
 20
-163.949
 11
-56.0491
 21
-164.039
  0
LINE
  8
0
 10
-56.0491
 20
-164.039
 11
-56.2305
 21
-164.114
  0
LINE
  8
0
 10
-56.2305
 20
-164.114
 11
-56.4176
 21
-164.173
  0
LINE
  8
0
 10
-56.4176
 20
-164.173
 11
-56.6093
 21
-164.216
  0
LINE
  8
0
 10
-56.6093
 20
-164.216
 11
-56.8039
 21
-164.241
  0
LINE
  8
0
 10
-56.8039
 20
-164.241
 11
-57
 21
-164.25
  0
LINE
  8
0
 10
-57
 20
-164.25
 11
-57.1961
 21
-164.241
  0
ENDSEC
  0
SECTION
  2
OBJECTS
  0
DICTIONARY
  0
ENDSEC
  0
EOF
