  0
SECTION
  2
BLOCKS
  0
ENDSEC
  0
SECTION
  2
ENTITIES
  0
LINE
  8
0
 10
-18.8518
 20
44.3065
 11
-18.7048
 21
44.3258
  0
LINE
  8
0
 10
-18.7048
 20
44.3258
 11
-18.56
 21
44.3579
  0
LINE
  8
0
 10
-18.56
 20
44.3579
 11
-18.4186
 21
44.4025
  0
LINE
  8
0
 10
-18.4186
 20
44.4025
 11
-18.2815
 21
44.4593
  0
LINE
  8
0
 10
-18.2815
 20
44.4593
 11
-18.15
 21
44.5278
  0
LINE
  8
0
 10
-18.15
 20
44.5278
 11
-18.0249
 21
44.6074
  0
LINE
  8
0
 10
-18.0249
 20
44.6074
 11
-17.9073
 21
44.6977
  0
LINE
  8
0
 10
-17.9073
 20
44.6977
 11
-17.7979
 21
44.7979
  0
LINE
  8
0
 10
-17.7979
 20
44.7979
 11
-17.6977
 21
44.9073
  0
LINE
  8
0
 10
-17.6977
 20
44.9073
 11
-17.6074
 21
45.0249
  0
LINE
  8
0
 10
-17.6074
 20
45.0249
 11
-17.5278
 21
45.15
  0
LINE
  8
0
 10
-17.5278
 20
45.15
 11
-17.4593
 21
45.2815
  0
LINE
  8
0
 10
-17.4593
 20
45.2815
 11
-17.4025
 21
45.4186
  0
LINE
  8
0
 10
-17.4025
 20
45.4186
 11
-17.3579
 21
45.56
  0
LINE
  8
0
 10
-17.3579
 20
45.56
 11
-17.3258
 21
45.7048
  0
LINE
  8
0
 10
-17.3258
 20
45.7048
 11
-17.3065
 21
45.8518
  0
LINE
  8
0
 10
-17.3065
 20
45.8518
 11
-17.3
 21
46
  0
LINE
  8
0
 10
-17.3
 20
46
 11
-17.3065
 21
46.1482
  0
LINE
  8
0
 10
-17.3065
 20
46.1482
 11
-17.3258
 21
46.2952
  0
LINE
  8
0
 10
-17.3258
 20
46.2952
 11
-17.3579
 21
46.44
  0
LINE
  8
0
 10
-17.3579
 20
46.44
 11
-17.4025
 21
46.5814
  0
LINE
  8
0
 10
-17.4025
 20
46.5814
 11
-17.4593
 21
46.7184
  0
LINE
  8
0
 10
-17.4593
 20
46.7184
 11
-17.5278
 21
46.85
  0
LINE
  8
0
 10
-17.5278
 20
46.85
 11
-17.6074
 21
46.9751
  0
LINE
  8
0
 10
-17.6074
 20
46.9751
 11
-17.6977
 21
47.0927
  0
LINE
  8
0
 10
-17.6977
 20
47.0927
 11
-17.7979
 21
47.2021
  0
LINE
  8
0
 10
-17.7979
 20
47.2021
 11
-17.9073
 21
47.3023
  0
LINE
  8
0
 10
-17.9073
 20
47.3023
 11
-18.0249
 21
47.3925
  0
LINE
  8
0
 10
-18.0249
 20
47.3925
 11
-18.15
 21
47.4722
  0
LINE
  8
0
 10
-18.15
 20
47.4722
 11
-18.2815
 21
47.5407
  0
LINE
  8
0
 10
-18.2815
 20
47.5407
 11
-18.4186
 21
47.5975
  0
LINE
  8
0
 10
-18.4186
 20
47.5975
 11
-18.56
 21
47.6421
  0
LINE
  8
0
 10
-18.56
 20
47.6421
 11
-18.7048
 21
47.6742
  0
LINE
  8
0
 10
-18.7048
 20
47.6742
 11
-18.8518
 21
47.6935
  0
LINE
  8
0
 10
-18.8518
 20
47.6935
 11
-19
 21
47.7
  0
LINE
  8
0
 10
-19
 20
47.7
 11
-19.1482
 21
47.6935
  0
LINE
  8
0
 10
-19.1482
 20
47.6935
 11
-19.2952
 21
47.6742
  0
LINE
  8
0
 10
-19.2952
 20
47.6742
 11
-19.44
 21
47.6421
  0
LINE
  8
0
 10
-19.44
 20
47.6421
 11
-19.5814
 21
47.5975
  0
LINE
  8
0
 10
-19.5814
 20
47.5975
 11
-19.7184
 21
47.5407
  0
LINE
  8
0
 10
-19.7184
 20
47.5407
 11
-19.85
 21
47.4722
  0
LINE
  8
0
 10
-19.85
 20
47.4722
 11
-19.9751
 21
47.3925
  0
LINE
  8
0
 10
-19.9751
 20
47.3925
 11
-20.0927
 21
47.3023
  0
LINE
  8
0
 10
-20.0927
 20
47.3023
 11
-20.2021
 21
47.2021
  0
LINE
  8
0
 10
-20.2021
 20
47.2021
 11
-20.3023
 21
47.0927
  0
LINE
  8
0
 10
-20.3023
 20
47.0927
 11
-20.3925
 21
46.9751
  0
LINE
  8
0
 10
-20.3925
 20
46.9751
 11
-20.4722
 21
46.85
  0
LINE
  8
0
 10
-20.4722
 20
46.85
 11
-20.5407
 21
46.7184
  0
LINE
  8
0
 10
-20.5407
 20
46.7184
 11
-20.5975
 21
46.5814
  0
LINE
  8
0
 10
-20.5975
 20
46.5814
 11
-20.6421
 21
46.44
  0
LINE
  8
0
 10
-20.6421
 20
46.44
 11
-20.6742
 21
46.2952
  0
LINE
  8
0
 10
-20.6742
 20
46.2952
 11
-20.6935
 21
46.1482
  0
LINE
  8
0
 10
-20.6935
 20
46.1482
 11
-20.7
 21
46
  0
LINE
  8
0
 10
-20.7
 20
46
 11
-20.6935
 21
45.8518
  0
LINE
  8
0
 10
-20.6935
 20
45.8518
 11
-20.6742
 21
45.7048
  0
LINE
  8
0
 10
-20.6742
 20
45.7048
 11
-20.6421
 21
45.56
  0
LINE
  8
0
 10
-20.6421
 20
45.56
 11
-20.5975
 21
45.4186
  0
LINE
  8
0
 10
-20.5975
 20
45.4186
 11
-20.5407
 21
45.2815
  0
LINE
  8
0
 10
-20.5407
 20
45.2815
 11
-20.4722
 21
45.15
  0
LINE
  8
0
 10
-20.4722
 20
45.15
 11
-20.3925
 21
45.0249
  0
LINE
  8
0
 10
-20.3925
 20
45.0249
 11
-20.3023
 21
44.9073
  0
LINE
  8
0
 10
-20.3023
 20
44.9073
 11
-20.2021
 21
44.7979
  0
LINE
  8
0
 10
-20.2021
 20
44.7979
 11
-20.0927
 21
44.6977
  0
LINE
  8
0
 10
-20.0927
 20
44.6977
 11
-19.9751
 21
44.6074
  0
LINE
  8
0
 10
-19.9751
 20
44.6074
 11
-19.85
 21
44.5278
  0
LINE
  8
0
 10
-19.85
 20
44.5278
 11
-19.7184
 21
44.4593
  0
LINE
  8
0
 10
-19.7184
 20
44.4593
 11
-19.5814
 21
44.4025
  0
LINE
  8
0
 10
-19.5814
 20
44.4025
 11
-19.44
 21
44.3579
  0
LINE
  8
0
 10
-19.44
 20
44.3579
 11
-19.2952
 21
44.3258
  0
LINE
  8
0
 10
-19.2952
 20
44.3258
 11
-19.1482
 21
44.3065
  0
LINE
  8
0
 10
-19.1482
 20
44.3065
 11
-19
 21
44.3
  0
LINE
  8
0
 10
-19
 20
44.3
 11
-18.8518
 21
44.3065
  0
LINE
  8
0
 10
19.1482
 20
44.3065
 11
19.2952
 21
44.3258
  0
LINE
  8
0
 10
19.2952
 20
44.3258
 11
19.44
 21
44.3579
  0
LINE
  8
0
 10
19.44
 20
44.3579
 11
19.5814
 21
44.4025
  0
LINE
  8
0
 10
19.5814
 20
44.4025
 11
19.7184
 21
44.4593
  0
LINE
  8
0
 10
19.7184
 20
44.4593
 11
19.85
 21
44.5278
  0
LINE
  8
0
 10
19.85
 20
44.5278
 11
19.9751
 21
44.6074
  0
LINE
  8
0
 10
19.9751
 20
44.6074
 11
20.0927
 21
44.6977
  0
LINE
  8
0
 10
20.0927
 20
44.6977
 11
20.2021
 21
44.7979
  0
LINE
  8
0
 10
20.2021
 20
44.7979
 11
20.3023
 21
44.9073
  0
LINE
  8
0
 10
20.3023
 20
44.9073
 11
20.3925
 21
45.0249
  0
LINE
  8
0
 10
20.3925
 20
45.0249
 11
20.4722
 21
45.15
  0
LINE
  8
0
 10
20.4722
 20
45.15
 11
20.5407
 21
45.2815
  0
LINE
  8
0
 10
20.5407
 20
45.2815
 11
20.5975
 21
45.4186
  0
LINE
  8
0
 10
20.5975
 20
45.4186
 11
20.6421
 21
45.56
  0
LINE
  8
0
 10
20.6421
 20
45.56
 11
20.6742
 21
45.7048
  0
LINE
  8
0
 10
20.6742
 20
45.7048
 11
20.6935
 21
45.8518
  0
LINE
  8
0
 10
20.6935
 20
45.8518
 11
20.7
 21
46
  0
LINE
  8
0
 10
20.7
 20
46
 11
20.6935
 21
46.1482
  0
LINE
  8
0
 10
20.6935
 20
46.1482
 11
20.6742
 21
46.2952
  0
LINE
  8
0
 10
20.6742
 20
46.2952
 11
20.6421
 21
46.44
  0
LINE
  8
0
 10
20.6421
 20
46.44
 11
20.5975
 21
46.5814
  0
LINE
  8
0
 10
20.5975
 20
46.5814
 11
20.5407
 21
46.7184
  0
LINE
  8
0
 10
20.5407
 20
46.7184
 11
20.4722
 21
46.85
  0
LINE
  8
0
 10
20.4722
 20
46.85
 11
20.3925
 21
46.9751
  0
LINE
  8
0
 10
20.3925
 20
46.9751
 11
20.3023
 21
47.0927
  0
LINE
  8
0
 10
20.3023
 20
47.0927
 11
20.2021
 21
47.2021
  0
LINE
  8
0
 10
20.2021
 20
47.2021
 11
20.0927
 21
47.3023
  0
LINE
  8
0
 10
20.0927
 20
47.3023
 11
19.9751
 21
47.3925
  0
LINE
  8
0
 10
19.9751
 20
47.3925
 11
19.85
 21
47.4722
  0
LINE
  8
0
 10
19.85
 20
47.4722
 11
19.7184
 21
47.5407
  0
LINE
  8
0
 10
19.7184
 20
47.5407
 11
19.5814
 21
47.5975
  0
LINE
  8
0
 10
19.5814
 20
47.5975
 11
19.44
 21
47.6421
  0
LINE
  8
0
 10
19.44
 20
47.6421
 11
19.2952
 21
47.6742
  0
LINE
  8
0
 10
19.2952
 20
47.6742
 11
19.1482
 21
47.6935
  0
LINE
  8
0
 10
19.1482
 20
47.6935
 11
19
 21
47.7
  0
LINE
  8
0
 10
19
 20
47.7
 11
18.8518
 21
47.6935
  0
LINE
  8
0
 10
18.8518
 20
47.6935
 11
18.7048
 21
47.6742
  0
LINE
  8
0
 10
18.7048
 20
47.6742
 11
18.56
 21
47.6421
  0
LINE
  8
0
 10
18.56
 20
47.6421
 11
18.4186
 21
47.5975
  0
LINE
  8
0
 10
18.4186
 20
47.5975
 11
18.2815
 21
47.5407
  0
LINE
  8
0
 10
18.2815
 20
47.5407
 11
18.15
 21
47.4722
  0
LINE
  8
0
 10
18.15
 20
47.4722
 11
18.0249
 21
47.3925
  0
LINE
  8
0
 10
18.0249
 20
47.3925
 11
17.9073
 21
47.3023
  0
LINE
  8
0
 10
17.9073
 20
47.3023
 11
17.7979
 21
47.2021
  0
LINE
  8
0
 10
17.7979
 20
47.2021
 11
17.6977
 21
47.0927
  0
LINE
  8
0
 10
17.6977
 20
47.0927
 11
17.6074
 21
46.9751
  0
LINE
  8
0
 10
17.6074
 20
46.9751
 11
17.5278
 21
46.85
  0
LINE
  8
0
 10
17.5278
 20
46.85
 11
17.4593
 21
46.7184
  0
LINE
  8
0
 10
17.4593
 20
46.7184
 11
17.4025
 21
46.5814
  0
LINE
  8
0
 10
17.4025
 20
46.5814
 11
17.3579
 21
46.44
  0
LINE
  8
0
 10
17.3579
 20
46.44
 11
17.3258
 21
46.2952
  0
LINE
  8
0
 10
17.3258
 20
46.2952
 11
17.3065
 21
46.1482
  0
LINE
  8
0
 10
17.3065
 20
46.1482
 11
17.3
 21
46
  0
LINE
  8
0
 10
17.3
 20
46
 11
17.3065
 21
45.8518
  0
LINE
  8
0
 10
17.3065
 20
45.8518
 11
17.3258
 21
45.7048
  0
LINE
  8
0
 10
17.3258
 20
45.7048
 11
17.3579
 21
45.56
  0
LINE
  8
0
 10
17.3579
 20
45.56
 11
17.4025
 21
45.4186
  0
LINE
  8
0
 10
17.4025
 20
45.4186
 11
17.4593
 21
45.2815
  0
LINE
  8
0
 10
17.4593
 20
45.2815
 11
17.5278
 21
45.15
  0
LINE
  8
0
 10
17.5278
 20
45.15
 11
17.6074
 21
45.0249
  0
LINE
  8
0
 10
17.6074
 20
45.0249
 11
17.6977
 21
44.9073
  0
LINE
  8
0
 10
17.6977
 20
44.9073
 11
17.7979
 21
44.7979
  0
LINE
  8
0
 10
17.7979
 20
44.7979
 11
17.9073
 21
44.6977
  0
LINE
  8
0
 10
17.9073
 20
44.6977
 11
18.0249
 21
44.6074
  0
LINE
  8
0
 10
18.0249
 20
44.6074
 11
18.15
 21
44.5278
  0
LINE
  8
0
 10
18.15
 20
44.5278
 11
18.2815
 21
44.4593
  0
LINE
  8
0
 10
18.2815
 20
44.4593
 11
18.4186
 21
44.4025
  0
LINE
  8
0
 10
18.4186
 20
44.4025
 11
18.56
 21
44.3579
  0
LINE
  8
0
 10
18.56
 20
44.3579
 11
18.7048
 21
44.3258
  0
LINE
  8
0
 10
18.7048
 20
44.3258
 11
18.8518
 21
44.3065
  0
LINE
  8
0
 10
18.8518
 20
44.3065
 11
19
 21
44.3
  0
LINE
  8
0
 10
19
 20
44.3
 11
19.1482
 21
44.3065
  0
LINE
  8
0
 10
4.59999
 20
34.8
 11
-4.59999
 21
34.8
  0
LINE
  8
0
 10
-4.59999
 20
34.8
 11
-4.59999
 21
-34.8
  0
LINE
  8
0
 10
-4.59999
 20
-34.8
 11
4.59999
 21
-34.8
  0
LINE
  8
0
 10
4.59999
 20
-34.8
 11
4.59999
 21
34.8
  0
LINE
  8
0
 10
-18.8518
 20
-47.6935
 11
-18.7048
 21
-47.6742
  0
LINE
  8
0
 10
-18.7048
 20
-47.6742
 11
-18.56
 21
-47.6421
  0
LINE
  8
0
 10
-18.56
 20
-47.6421
 11
-18.4186
 21
-47.5975
  0
LINE
  8
0
 10
-18.4186
 20
-47.5975
 11
-18.2815
 21
-47.5407
  0
LINE
  8
0
 10
-18.2815
 20
-47.5407
 11
-18.15
 21
-47.4722
  0
LINE
  8
0
 10
-18.15
 20
-47.4722
 11
-18.0249
 21
-47.3925
  0
LINE
  8
0
 10
-18.0249
 20
-47.3925
 11
-17.9073
 21
-47.3023
  0
LINE
  8
0
 10
-17.9073
 20
-47.3023
 11
-17.7979
 21
-47.2021
  0
LINE
  8
0
 10
-17.7979
 20
-47.2021
 11
-17.6977
 21
-47.0927
  0
LINE
  8
0
 10
-17.6977
 20
-47.0927
 11
-17.6074
 21
-46.9751
  0
LINE
  8
0
 10
-17.6074
 20
-46.9751
 11
-17.5278
 21
-46.85
  0
LINE
  8
0
 10
-17.5278
 20
-46.85
 11
-17.4593
 21
-46.7184
  0
LINE
  8
0
 10
-17.4593
 20
-46.7184
 11
-17.4025
 21
-46.5814
  0
LINE
  8
0
 10
-17.4025
 20
-46.5814
 11
-17.3579
 21
-46.44
  0
LINE
  8
0
 10
-17.3579
 20
-46.44
 11
-17.3258
 21
-46.2952
  0
LINE
  8
0
 10
-17.3258
 20
-46.2952
 11
-17.3065
 21
-46.1482
  0
LINE
  8
0
 10
-17.3065
 20
-46.1482
 11
-17.3
 21
-46
  0
LINE
  8
0
 10
-17.3
 20
-46
 11
-17.3065
 21
-45.8518
  0
LINE
  8
0
 10
-17.3065
 20
-45.8518
 11
-17.3258
 21
-45.7048
  0
LINE
  8
0
 10
-17.3258
 20
-45.7048
 11
-17.3579
 21
-45.56
  0
LINE
  8
0
 10
-17.3579
 20
-45.56
 11
-17.4025
 21
-45.4186
  0
LINE
  8
0
 10
-17.4025
 20
-45.4186
 11
-17.4593
 21
-45.2815
  0
LINE
  8
0
 10
-17.4593
 20
-45.2815
 11
-17.5278
 21
-45.15
  0
LINE
  8
0
 10
-17.5278
 20
-45.15
 11
-17.6074
 21
-45.0249
  0
LINE
  8
0
 10
-17.6074
 20
-45.0249
 11
-17.6977
 21
-44.9073
  0
LINE
  8
0
 10
-17.6977
 20
-44.9073
 11
-17.7979
 21
-44.7979
  0
LINE
  8
0
 10
-17.7979
 20
-44.7979
 11
-17.9073
 21
-44.6977
  0
LINE
  8
0
 10
-17.9073
 20
-44.6977
 11
-18.0249
 21
-44.6074
  0
LINE
  8
0
 10
-18.0249
 20
-44.6074
 11
-18.15
 21
-44.5278
  0
LINE
  8
0
 10
-18.15
 20
-44.5278
 11
-18.2815
 21
-44.4593
  0
LINE
  8
0
 10
-18.2815
 20
-44.4593
 11
-18.4186
 21
-44.4025
  0
LINE
  8
0
 10
-18.4186
 20
-44.4025
 11
-18.56
 21
-44.3579
  0
LINE
  8
0
 10
-18.56
 20
-44.3579
 11
-18.7048
 21
-44.3258
  0
LINE
  8
0
 10
-18.7048
 20
-44.3258
 11
-18.8518
 21
-44.3065
  0
LINE
  8
0
 10
-18.8518
 20
-44.3065
 11
-19
 21
-44.3
  0
LINE
  8
0
 10
-19
 20
-44.3
 11
-19.1482
 21
-44.3065
  0
LINE
  8
0
 10
-19.1482
 20
-44.3065
 11
-19.2952
 21
-44.3258
  0
LINE
  8
0
 10
-19.2952
 20
-44.3258
 11
-19.44
 21
-44.3579
  0
LINE
  8
0
 10
-19.44
 20
-44.3579
 11
-19.5814
 21
-44.4025
  0
LINE
  8
0
 10
-19.5814
 20
-44.4025
 11
-19.7184
 21
-44.4593
  0
LINE
  8
0
 10
-19.7184
 20
-44.4593
 11
-19.85
 21
-44.5278
  0
LINE
  8
0
 10
-19.85
 20
-44.5278
 11
-19.9751
 21
-44.6074
  0
LINE
  8
0
 10
-19.9751
 20
-44.6074
 11
-20.0927
 21
-44.6977
  0
LINE
  8
0
 10
-20.0927
 20
-44.6977
 11
-20.2021
 21
-44.7979
  0
LINE
  8
0
 10
-20.2021
 20
-44.7979
 11
-20.3023
 21
-44.9073
  0
LINE
  8
0
 10
-20.3023
 20
-44.9073
 11
-20.3925
 21
-45.0249
  0
LINE
  8
0
 10
-20.3925
 20
-45.0249
 11
-20.4722
 21
-45.15
  0
LINE
  8
0
 10
-20.4722
 20
-45.15
 11
-20.5407
 21
-45.2815
  0
LINE
  8
0
 10
-20.5407
 20
-45.2815
 11
-20.5975
 21
-45.4186
  0
LINE
  8
0
 10
-20.5975
 20
-45.4186
 11
-20.6421
 21
-45.56
  0
LINE
  8
0
 10
-20.6421
 20
-45.56
 11
-20.6742
 21
-45.7048
  0
LINE
  8
0
 10
-20.6742
 20
-45.7048
 11
-20.6935
 21
-45.8518
  0
LINE
  8
0
 10
-20.6935
 20
-45.8518
 11
-20.7
 21
-46
  0
LINE
  8
0
 10
-20.7
 20
-46
 11
-20.6935
 21
-46.1482
  0
LINE
  8
0
 10
-20.6935
 20
-46.1482
 11
-20.6742
 21
-46.2952
  0
LINE
  8
0
 10
-20.6742
 20
-46.2952
 11
-20.6421
 21
-46.44
  0
LINE
  8
0
 10
-20.6421
 20
-46.44
 11
-20.5975
 21
-46.5814
  0
LINE
  8
0
 10
-20.5975
 20
-46.5814
 11
-20.5407
 21
-46.7184
  0
LINE
  8
0
 10
-20.5407
 20
-46.7184
 11
-20.4722
 21
-46.85
  0
LINE
  8
0
 10
-20.4722
 20
-46.85
 11
-20.3925
 21
-46.9751
  0
LINE
  8
0
 10
-20.3925
 20
-46.9751
 11
-20.3023
 21
-47.0927
  0
LINE
  8
0
 10
-20.3023
 20
-47.0927
 11
-20.2021
 21
-47.2021
  0
LINE
  8
0
 10
-20.2021
 20
-47.2021
 11
-20.0927
 21
-47.3023
  0
LINE
  8
0
 10
-20.0927
 20
-47.3023
 11
-19.9751
 21
-47.3925
  0
LINE
  8
0
 10
-19.9751
 20
-47.3925
 11
-19.85
 21
-47.4722
  0
LINE
  8
0
 10
-19.85
 20
-47.4722
 11
-19.7184
 21
-47.5407
  0
LINE
  8
0
 10
-19.7184
 20
-47.5407
 11
-19.5814
 21
-47.5975
  0
LINE
  8
0
 10
-19.5814
 20
-47.5975
 11
-19.44
 21
-47.6421
  0
LINE
  8
0
 10
-19.44
 20
-47.6421
 11
-19.2952
 21
-47.6742
  0
LINE
  8
0
 10
-19.2952
 20
-47.6742
 11
-19.1482
 21
-47.6935
  0
LINE
  8
0
 10
-19.1482
 20
-47.6935
 11
-19
 21
-47.7
  0
LINE
  8
0
 10
-19
 20
-47.7
 11
-18.8518
 21
-47.6935
  0
LINE
  8
0
 10
19.1482
 20
-47.6935
 11
19.2952
 21
-47.6742
  0
LINE
  8
0
 10
19.2952
 20
-47.6742
 11
19.44
 21
-47.6421
  0
LINE
  8
0
 10
19.44
 20
-47.6421
 11
19.5814
 21
-47.5975
  0
LINE
  8
0
 10
19.5814
 20
-47.5975
 11
19.7184
 21
-47.5407
  0
LINE
  8
0
 10
19.7184
 20
-47.5407
 11
19.85
 21
-47.4722
  0
LINE
  8
0
 10
19.85
 20
-47.4722
 11
19.9751
 21
-47.3925
  0
LINE
  8
0
 10
19.9751
 20
-47.3925
 11
20.0927
 21
-47.3023
  0
LINE
  8
0
 10
20.0927
 20
-47.3023
 11
20.2021
 21
-47.2021
  0
LINE
  8
0
 10
20.2021
 20
-47.2021
 11
20.3023
 21
-47.0927
  0
LINE
  8
0
 10
20.3023
 20
-47.0927
 11
20.3925
 21
-46.9751
  0
LINE
  8
0
 10
20.3925
 20
-46.9751
 11
20.4722
 21
-46.85
  0
LINE
  8
0
 10
20.4722
 20
-46.85
 11
20.5407
 21
-46.7184
  0
LINE
  8
0
 10
20.5407
 20
-46.7184
 11
20.5975
 21
-46.5814
  0
LINE
  8
0
 10
20.5975
 20
-46.5814
 11
20.6421
 21
-46.44
  0
LINE
  8
0
 10
20.6421
 20
-46.44
 11
20.6742
 21
-46.2952
  0
LINE
  8
0
 10
20.6742
 20
-46.2952
 11
20.6935
 21
-46.1482
  0
LINE
  8
0
 10
20.6935
 20
-46.1482
 11
20.7
 21
-46
  0
LINE
  8
0
 10
20.7
 20
-46
 11
20.6935
 21
-45.8518
  0
LINE
  8
0
 10
20.6935
 20
-45.8518
 11
20.6742
 21
-45.7048
  0
LINE
  8
0
 10
20.6742
 20
-45.7048
 11
20.6421
 21
-45.56
  0
LINE
  8
0
 10
20.6421
 20
-45.56
 11
20.5975
 21
-45.4186
  0
LINE
  8
0
 10
20.5975
 20
-45.4186
 11
20.5407
 21
-45.2815
  0
LINE
  8
0
 10
20.5407
 20
-45.2815
 11
20.4722
 21
-45.15
  0
LINE
  8
0
 10
20.4722
 20
-45.15
 11
20.3925
 21
-45.0249
  0
LINE
  8
0
 10
20.3925
 20
-45.0249
 11
20.3023
 21
-44.9073
  0
LINE
  8
0
 10
20.3023
 20
-44.9073
 11
20.2021
 21
-44.7979
  0
LINE
  8
0
 10
20.2021
 20
-44.7979
 11
20.0927
 21
-44.6977
  0
LINE
  8
0
 10
20.0927
 20
-44.6977
 11
19.9751
 21
-44.6074
  0
LINE
  8
0
 10
19.9751
 20
-44.6074
 11
19.85
 21
-44.5278
  0
LINE
  8
0
 10
19.85
 20
-44.5278
 11
19.7184
 21
-44.4593
  0
LINE
  8
0
 10
19.7184
 20
-44.4593
 11
19.5814
 21
-44.4025
  0
LINE
  8
0
 10
19.5814
 20
-44.4025
 11
19.44
 21
-44.3579
  0
LINE
  8
0
 10
19.44
 20
-44.3579
 11
19.2952
 21
-44.3258
  0
LINE
  8
0
 10
19.2952
 20
-44.3258
 11
19.1482
 21
-44.3065
  0
LINE
  8
0
 10
19.1482
 20
-44.3065
 11
19
 21
-44.3
  0
LINE
  8
0
 10
19
 20
-44.3
 11
18.8518
 21
-44.3065
  0
LINE
  8
0
 10
18.8518
 20
-44.3065
 11
18.7048
 21
-44.3258
  0
LINE
  8
0
 10
18.7048
 20
-44.3258
 11
18.56
 21
-44.3579
  0
LINE
  8
0
 10
18.56
 20
-44.3579
 11
18.4186
 21
-44.4025
  0
LINE
  8
0
 10
18.4186
 20
-44.4025
 11
18.2815
 21
-44.4593
  0
LINE
  8
0
 10
18.2815
 20
-44.4593
 11
18.15
 21
-44.5278
  0
LINE
  8
0
 10
18.15
 20
-44.5278
 11
18.0249
 21
-44.6074
  0
LINE
  8
0
 10
18.0249
 20
-44.6074
 11
17.9073
 21
-44.6977
  0
LINE
  8
0
 10
17.9073
 20
-44.6977
 11
17.7979
 21
-44.7979
  0
LINE
  8
0
 10
17.7979
 20
-44.7979
 11
17.6977
 21
-44.9073
  0
LINE
  8
0
 10
17.6977
 20
-44.9073
 11
17.6074
 21
-45.0249
  0
LINE
  8
0
 10
17.6074
 20
-45.0249
 11
17.5278
 21
-45.15
  0
LINE
  8
0
 10
17.5278
 20
-45.15
 11
17.4593
 21
-45.2815
  0
LINE
  8
0
 10
17.4593
 20
-45.2815
 11
17.4025
 21
-45.4186
  0
LINE
  8
0
 10
17.4025
 20
-45.4186
 11
17.3579
 21
-45.56
  0
LINE
  8
0
 10
17.3579
 20
-45.56
 11
17.3258
 21
-45.7048
  0
LINE
  8
0
 10
17.3258
 20
-45.7048
 11
17.3065
 21
-45.8518
  0
LINE
  8
0
 10
17.3065
 20
-45.8518
 11
17.3
 21
-46
  0
LINE
  8
0
 10
17.3
 20
-46
 11
17.3065
 21
-46.1482
  0
LINE
  8
0
 10
17.3065
 20
-46.1482
 11
17.3258
 21
-46.2952
  0
LINE
  8
0
 10
17.3258
 20
-46.2952
 11
17.3579
 21
-46.44
  0
LINE
  8
0
 10
17.3579
 20
-46.44
 11
17.4025
 21
-46.5814
  0
LINE
  8
0
 10
17.4025
 20
-46.5814
 11
17.4593
 21
-46.7184
  0
LINE
  8
0
 10
17.4593
 20
-46.7184
 11
17.5278
 21
-46.85
  0
LINE
  8
0
 10
17.5278
 20
-46.85
 11
17.6074
 21
-46.9751
  0
LINE
  8
0
 10
17.6074
 20
-46.9751
 11
17.6977
 21
-47.0927
  0
LINE
  8
0
 10
17.6977
 20
-47.0927
 11
17.7979
 21
-47.2021
  0
LINE
  8
0
 10
17.7979
 20
-47.2021
 11
17.9073
 21
-47.3023
  0
LINE
  8
0
 10
17.9073
 20
-47.3023
 11
18.0249
 21
-47.3925
  0
LINE
  8
0
 10
18.0249
 20
-47.3925
 11
18.15
 21
-47.4722
  0
LINE
  8
0
 10
18.15
 20
-47.4722
 11
18.2815
 21
-47.5407
  0
LINE
  8
0
 10
18.2815
 20
-47.5407
 11
18.4186
 21
-47.5975
  0
LINE
  8
0
 10
18.4186
 20
-47.5975
 11
18.56
 21
-47.6421
  0
LINE
  8
0
 10
18.56
 20
-47.6421
 11
18.7048
 21
-47.6742
  0
LINE
  8
0
 10
18.7048
 20
-47.6742
 11
18.8518
 21
-47.6935
  0
LINE
  8
0
 10
18.8518
 20
-47.6935
 11
19
 21
-47.7
  0
LINE
  8
0
 10
19
 20
-47.7
 11
19.1482
 21
-47.6935
  0
ENDSEC
  0
SECTION
  2
OBJECTS
  0
DICTIONARY
  0
ENDSEC
  0
EOF
