  0
SECTION
  2
BLOCKS
  0
ENDSEC
  0
SECTION
  2
ENTITIES
  0
LINE
  8
0
 10
0.149994
 20
-7.99345
 11
0.697235
 21
-7.96954
  0
LINE
  8
0
 10
0.697235
 20
-7.96954
 11
1.38918
 21
-7.87845
  0
LINE
  8
0
 10
1.38918
 20
-7.87845
 11
2.07054
 21
-7.7274
  0
LINE
  8
0
 10
2.07054
 20
-7.7274
 11
2.73616
 21
-7.51753
  0
LINE
  8
0
 10
2.73616
 20
-7.51753
 11
3.38094
 21
-7.25046
  0
LINE
  8
0
 10
3.38094
 20
-7.25046
 11
4
 21
-6.92819
  0
LINE
  8
0
 10
4
 20
-6.92819
 11
4.58861
 21
-6.55321
  0
LINE
  8
0
 10
4.58861
 20
-6.55321
 11
5.14229
 21
-6.12834
  0
LINE
  8
0
 10
5.14229
 20
-6.12834
 11
5.65685
 21
-5.65685
  0
LINE
  8
0
 10
5.65685
 20
-5.65685
 11
6.12834
 21
-5.14229
  0
LINE
  8
0
 10
6.12834
 20
-5.14229
 11
6.55321
 21
-4.58861
  0
LINE
  8
0
 10
6.55321
 20
-4.58861
 11
6.92819
 21
-4
  0
LINE
  8
0
 10
6.92819
 20
-4
 11
7.25046
 21
-3.38094
  0
LINE
  8
0
 10
7.25046
 20
-3.38094
 11
7.51753
 21
-2.73616
  0
LINE
  8
0
 10
7.51753
 20
-2.73616
 11
7.7274
 21
-2.07054
  0
LINE
  8
0
 10
7.7274
 20
-2.07054
 11
7.87845
 21
-1.38918
  0
LINE
  8
0
 10
7.87845
 20
-1.38918
 11
7.96954
 21
-0.697235
  0
LINE
  8
0
 10
7.96954
 20
-0.697235
 11
7.99345
 21
-0.149994
  0
LINE
  8
0
 10
7.99345
 20
-0.149994
 11
30
 21
-0.149994
  0
LINE
  8
0
 10
30
 20
-0.149994
 11
30
 21
0.149994
  0
LINE
  8
0
 10
30
 20
0.149994
 11
7.99345
 21
0.149994
  0
LINE
  8
0
 10
7.99345
 20
0.149994
 11
7.96954
 21
0.697235
  0
LINE
  8
0
 10
7.96954
 20
0.697235
 11
7.87845
 21
1.38918
  0
LINE
  8
0
 10
7.87845
 20
1.38918
 11
7.7274
 21
2.07054
  0
LINE
  8
0
 10
7.7274
 20
2.07054
 11
7.51753
 21
2.73616
  0
LINE
  8
0
 10
7.51753
 20
2.73616
 11
7.25046
 21
3.38094
  0
LINE
  8
0
 10
7.25046
 20
3.38094
 11
6.92819
 21
4
  0
LINE
  8
0
 10
6.92819
 20
4
 11
6.55321
 21
4.58861
  0
LINE
  8
0
 10
6.55321
 20
4.58861
 11
6.12834
 21
5.14229
  0
LINE
  8
0
 10
6.12834
 20
5.14229
 11
5.65685
 21
5.65685
  0
LINE
  8
0
 10
5.65685
 20
5.65685
 11
5.14229
 21
6.12834
  0
LINE
  8
0
 10
5.14229
 20
6.12834
 11
4.58861
 21
6.55321
  0
LINE
  8
0
 10
4.58861
 20
6.55321
 11
4
 21
6.92819
  0
LINE
  8
0
 10
4
 20
6.92819
 11
3.38094
 21
7.25046
  0
LINE
  8
0
 10
3.38094
 20
7.25046
 11
2.73616
 21
7.51753
  0
LINE
  8
0
 10
2.73616
 20
7.51753
 11
2.07054
 21
7.7274
  0
LINE
  8
0
 10
2.07054
 20
7.7274
 11
1.38918
 21
7.87845
  0
LINE
  8
0
 10
1.38918
 20
7.87845
 11
0.697235
 21
7.96954
  0
LINE
  8
0
 10
0.697235
 20
7.96954
 11
0.149994
 21
7.99345
  0
LINE
  8
0
 10
0.149994
 20
7.99345
 11
0.149994
 21
30
  0
LINE
  8
0
 10
0.149994
 20
30
 11
-0.149994
 21
30
  0
LINE
  8
0
 10
-0.149994
 20
30
 11
-0.149994
 21
7.99345
  0
LINE
  8
0
 10
-0.149994
 20
7.99345
 11
-0.697235
 21
7.96954
  0
LINE
  8
0
 10
-0.697235
 20
7.96954
 11
-1.38918
 21
7.87845
  0
LINE
  8
0
 10
-1.38918
 20
7.87845
 11
-2.07054
 21
7.7274
  0
LINE
  8
0
 10
-2.07054
 20
7.7274
 11
-2.73616
 21
7.51753
  0
LINE
  8
0
 10
-2.73616
 20
7.51753
 11
-3.38094
 21
7.25046
  0
LINE
  8
0
 10
-3.38094
 20
7.25046
 11
-4
 21
6.92819
  0
LINE
  8
0
 10
-4
 20
6.92819
 11
-4.58861
 21
6.55321
  0
LINE
  8
0
 10
-4.58861
 20
6.55321
 11
-5.14229
 21
6.12834
  0
LINE
  8
0
 10
-5.14229
 20
6.12834
 11
-5.65685
 21
5.65685
  0
LINE
  8
0
 10
-5.65685
 20
5.65685
 11
-6.12834
 21
5.14229
  0
LINE
  8
0
 10
-6.12834
 20
5.14229
 11
-6.55321
 21
4.58861
  0
LINE
  8
0
 10
-6.55321
 20
4.58861
 11
-6.92819
 21
4
  0
LINE
  8
0
 10
-6.92819
 20
4
 11
-7.25046
 21
3.38094
  0
LINE
  8
0
 10
-7.25046
 20
3.38094
 11
-7.51753
 21
2.73616
  0
LINE
  8
0
 10
-7.51753
 20
2.73616
 11
-7.7274
 21
2.07054
  0
LINE
  8
0
 10
-7.7274
 20
2.07054
 11
-7.87845
 21
1.38918
  0
LINE
  8
0
 10
-7.87845
 20
1.38918
 11
-7.96954
 21
0.697235
  0
LINE
  8
0
 10
-7.96954
 20
0.697235
 11
-7.99345
 21
0.149994
  0
LINE
  8
0
 10
-7.99345
 20
0.149994
 11
-30
 21
0.149994
  0
LINE
  8
0
 10
-30
 20
0.149994
 11
-30
 21
-0.149994
  0
LINE
  8
0
 10
-30
 20
-0.149994
 11
-7.99345
 21
-0.149994
  0
LINE
  8
0
 10
-7.99345
 20
-0.149994
 11
-7.96954
 21
-0.697235
  0
LINE
  8
0
 10
-7.96954
 20
-0.697235
 11
-7.87845
 21
-1.38918
  0
LINE
  8
0
 10
-7.87845
 20
-1.38918
 11
-7.7274
 21
-2.07054
  0
LINE
  8
0
 10
-7.7274
 20
-2.07054
 11
-7.51753
 21
-2.73616
  0
LINE
  8
0
 10
-7.51753
 20
-2.73616
 11
-7.25046
 21
-3.38094
  0
LINE
  8
0
 10
-7.25046
 20
-3.38094
 11
-6.92819
 21
-4
  0
LINE
  8
0
 10
-6.92819
 20
-4
 11
-6.55321
 21
-4.58861
  0
LINE
  8
0
 10
-6.55321
 20
-4.58861
 11
-6.12834
 21
-5.14229
  0
LINE
  8
0
 10
-6.12834
 20
-5.14229
 11
-5.65685
 21
-5.65685
  0
LINE
  8
0
 10
-5.65685
 20
-5.65685
 11
-5.14229
 21
-6.12834
  0
LINE
  8
0
 10
-5.14229
 20
-6.12834
 11
-4.58861
 21
-6.55321
  0
LINE
  8
0
 10
-4.58861
 20
-6.55321
 11
-4
 21
-6.92819
  0
LINE
  8
0
 10
-4
 20
-6.92819
 11
-3.38094
 21
-7.25046
  0
LINE
  8
0
 10
-3.38094
 20
-7.25046
 11
-2.73616
 21
-7.51753
  0
LINE
  8
0
 10
-2.73616
 20
-7.51753
 11
-2.07054
 21
-7.7274
  0
LINE
  8
0
 10
-2.07054
 20
-7.7274
 11
-1.38918
 21
-7.87845
  0
LINE
  8
0
 10
-1.38918
 20
-7.87845
 11
-0.697235
 21
-7.96954
  0
LINE
  8
0
 10
-0.697235
 20
-7.96954
 11
-0.149994
 21
-7.99345
  0
LINE
  8
0
 10
-0.149994
 20
-7.99345
 11
-0.149994
 21
-30
  0
LINE
  8
0
 10
-0.149994
 20
-30
 11
0.149994
 21
-30
  0
LINE
  8
0
 10
0.149994
 20
-30
 11
0.149994
 21
-7.99345
  0
LINE
  8
0
 10
-13.8518
 20
12.3065
 11
-13.7048
 21
12.3258
  0
LINE
  8
0
 10
-13.7048
 20
12.3258
 11
-13.56
 21
12.3579
  0
LINE
  8
0
 10
-13.56
 20
12.3579
 11
-13.4186
 21
12.4025
  0
LINE
  8
0
 10
-13.4186
 20
12.4025
 11
-13.2815
 21
12.4593
  0
LINE
  8
0
 10
-13.2815
 20
12.4593
 11
-13.15
 21
12.5278
  0
LINE
  8
0
 10
-13.15
 20
12.5278
 11
-13.0249
 21
12.6074
  0
LINE
  8
0
 10
-13.0249
 20
12.6074
 11
-12.9073
 21
12.6977
  0
LINE
  8
0
 10
-12.9073
 20
12.6977
 11
-12.7979
 21
12.7979
  0
LINE
  8
0
 10
-12.7979
 20
12.7979
 11
-12.6977
 21
12.9073
  0
LINE
  8
0
 10
-12.6977
 20
12.9073
 11
-12.6074
 21
13.0249
  0
LINE
  8
0
 10
-12.6074
 20
13.0249
 11
-12.5278
 21
13.15
  0
LINE
  8
0
 10
-12.5278
 20
13.15
 11
-12.4593
 21
13.2815
  0
LINE
  8
0
 10
-12.4593
 20
13.2815
 11
-12.4025
 21
13.4186
  0
LINE
  8
0
 10
-12.4025
 20
13.4186
 11
-12.3579
 21
13.56
  0
LINE
  8
0
 10
-12.3579
 20
13.56
 11
-12.3258
 21
13.7048
  0
LINE
  8
0
 10
-12.3258
 20
13.7048
 11
-12.3065
 21
13.8518
  0
LINE
  8
0
 10
-12.3065
 20
13.8518
 11
-12.3
 21
14
  0
LINE
  8
0
 10
-12.3
 20
14
 11
-12.3065
 21
14.1482
  0
LINE
  8
0
 10
-12.3065
 20
14.1482
 11
-12.3258
 21
14.2952
  0
LINE
  8
0
 10
-12.3258
 20
14.2952
 11
-12.3579
 21
14.44
  0
LINE
  8
0
 10
-12.3579
 20
14.44
 11
-12.4025
 21
14.5814
  0
LINE
  8
0
 10
-12.4025
 20
14.5814
 11
-12.4593
 21
14.7184
  0
LINE
  8
0
 10
-12.4593
 20
14.7184
 11
-12.5278
 21
14.85
  0
LINE
  8
0
 10
-12.5278
 20
14.85
 11
-12.6074
 21
14.9751
  0
LINE
  8
0
 10
-12.6074
 20
14.9751
 11
-12.6977
 21
15.0927
  0
LINE
  8
0
 10
-12.6977
 20
15.0927
 11
-12.7979
 21
15.2021
  0
LINE
  8
0
 10
-12.7979
 20
15.2021
 11
-12.9073
 21
15.3023
  0
LINE
  8
0
 10
-12.9073
 20
15.3023
 11
-13.0249
 21
15.3925
  0
LINE
  8
0
 10
-13.0249
 20
15.3925
 11
-13.15
 21
15.4722
  0
LINE
  8
0
 10
-13.15
 20
15.4722
 11
-13.2815
 21
15.5407
  0
LINE
  8
0
 10
-13.2815
 20
15.5407
 11
-13.4186
 21
15.5975
  0
LINE
  8
0
 10
-13.4186
 20
15.5975
 11
-13.56
 21
15.6421
  0
LINE
  8
0
 10
-13.56
 20
15.6421
 11
-13.7048
 21
15.6742
  0
LINE
  8
0
 10
-13.7048
 20
15.6742
 11
-13.8518
 21
15.6935
  0
LINE
  8
0
 10
-13.8518
 20
15.6935
 11
-14
 21
15.7
  0
LINE
  8
0
 10
-14
 20
15.7
 11
-14.1482
 21
15.6935
  0
LINE
  8
0
 10
-14.1482
 20
15.6935
 11
-14.2952
 21
15.6742
  0
LINE
  8
0
 10
-14.2952
 20
15.6742
 11
-14.44
 21
15.6421
  0
LINE
  8
0
 10
-14.44
 20
15.6421
 11
-14.5814
 21
15.5975
  0
LINE
  8
0
 10
-14.5814
 20
15.5975
 11
-14.7184
 21
15.5407
  0
LINE
  8
0
 10
-14.7184
 20
15.5407
 11
-14.85
 21
15.4722
  0
LINE
  8
0
 10
-14.85
 20
15.4722
 11
-14.9751
 21
15.3925
  0
LINE
  8
0
 10
-14.9751
 20
15.3925
 11
-15.0927
 21
15.3023
  0
LINE
  8
0
 10
-15.0927
 20
15.3023
 11
-15.2021
 21
15.2021
  0
LINE
  8
0
 10
-15.2021
 20
15.2021
 11
-15.3023
 21
15.0927
  0
LINE
  8
0
 10
-15.3023
 20
15.0927
 11
-15.3925
 21
14.9751
  0
LINE
  8
0
 10
-15.3925
 20
14.9751
 11
-15.4722
 21
14.85
  0
LINE
  8
0
 10
-15.4722
 20
14.85
 11
-15.5407
 21
14.7184
  0
LINE
  8
0
 10
-15.5407
 20
14.7184
 11
-15.5975
 21
14.5814
  0
LINE
  8
0
 10
-15.5975
 20
14.5814
 11
-15.6421
 21
14.44
  0
LINE
  8
0
 10
-15.6421
 20
14.44
 11
-15.6742
 21
14.2952
  0
LINE
  8
0
 10
-15.6742
 20
14.2952
 11
-15.6935
 21
14.1482
  0
LINE
  8
0
 10
-15.6935
 20
14.1482
 11
-15.7
 21
14
  0
LINE
  8
0
 10
-15.7
 20
14
 11
-15.6935
 21
13.8518
  0
LINE
  8
0
 10
-15.6935
 20
13.8518
 11
-15.6742
 21
13.7048
  0
LINE
  8
0
 10
-15.6742
 20
13.7048
 11
-15.6421
 21
13.56
  0
LINE
  8
0
 10
-15.6421
 20
13.56
 11
-15.5975
 21
13.4186
  0
LINE
  8
0
 10
-15.5975
 20
13.4186
 11
-15.5407
 21
13.2815
  0
LINE
  8
0
 10
-15.5407
 20
13.2815
 11
-15.4722
 21
13.15
  0
LINE
  8
0
 10
-15.4722
 20
13.15
 11
-15.3925
 21
13.0249
  0
LINE
  8
0
 10
-15.3925
 20
13.0249
 11
-15.3023
 21
12.9073
  0
LINE
  8
0
 10
-15.3023
 20
12.9073
 11
-15.2021
 21
12.7979
  0
LINE
  8
0
 10
-15.2021
 20
12.7979
 11
-15.0927
 21
12.6977
  0
LINE
  8
0
 10
-15.0927
 20
12.6977
 11
-14.9751
 21
12.6074
  0
LINE
  8
0
 10
-14.9751
 20
12.6074
 11
-14.85
 21
12.5278
  0
LINE
  8
0
 10
-14.85
 20
12.5278
 11
-14.7184
 21
12.4593
  0
LINE
  8
0
 10
-14.7184
 20
12.4593
 11
-14.5814
 21
12.4025
  0
LINE
  8
0
 10
-14.5814
 20
12.4025
 11
-14.44
 21
12.3579
  0
LINE
  8
0
 10
-14.44
 20
12.3579
 11
-14.2952
 21
12.3258
  0
LINE
  8
0
 10
-14.2952
 20
12.3258
 11
-14.1482
 21
12.3065
  0
LINE
  8
0
 10
-14.1482
 20
12.3065
 11
-14
 21
12.3
  0
LINE
  8
0
 10
-14
 20
12.3
 11
-13.8518
 21
12.3065
  0
LINE
  8
0
 10
14.1482
 20
12.3065
 11
14.2952
 21
12.3258
  0
LINE
  8
0
 10
14.2952
 20
12.3258
 11
14.44
 21
12.3579
  0
LINE
  8
0
 10
14.44
 20
12.3579
 11
14.5814
 21
12.4025
  0
LINE
  8
0
 10
14.5814
 20
12.4025
 11
14.7184
 21
12.4593
  0
LINE
  8
0
 10
14.7184
 20
12.4593
 11
14.85
 21
12.5278
  0
LINE
  8
0
 10
14.85
 20
12.5278
 11
14.9751
 21
12.6074
  0
LINE
  8
0
 10
14.9751
 20
12.6074
 11
15.0927
 21
12.6977
  0
LINE
  8
0
 10
15.0927
 20
12.6977
 11
15.2021
 21
12.7979
  0
LINE
  8
0
 10
15.2021
 20
12.7979
 11
15.3023
 21
12.9073
  0
LINE
  8
0
 10
15.3023
 20
12.9073
 11
15.3925
 21
13.0249
  0
LINE
  8
0
 10
15.3925
 20
13.0249
 11
15.4722
 21
13.15
  0
LINE
  8
0
 10
15.4722
 20
13.15
 11
15.5407
 21
13.2815
  0
LINE
  8
0
 10
15.5407
 20
13.2815
 11
15.5975
 21
13.4186
  0
LINE
  8
0
 10
15.5975
 20
13.4186
 11
15.6421
 21
13.56
  0
LINE
  8
0
 10
15.6421
 20
13.56
 11
15.6742
 21
13.7048
  0
LINE
  8
0
 10
15.6742
 20
13.7048
 11
15.6935
 21
13.8518
  0
LINE
  8
0
 10
15.6935
 20
13.8518
 11
15.7
 21
14
  0
LINE
  8
0
 10
15.7
 20
14
 11
15.6935
 21
14.1482
  0
LINE
  8
0
 10
15.6935
 20
14.1482
 11
15.6742
 21
14.2952
  0
LINE
  8
0
 10
15.6742
 20
14.2952
 11
15.6421
 21
14.44
  0
LINE
  8
0
 10
15.6421
 20
14.44
 11
15.5975
 21
14.5814
  0
LINE
  8
0
 10
15.5975
 20
14.5814
 11
15.5407
 21
14.7184
  0
LINE
  8
0
 10
15.5407
 20
14.7184
 11
15.4722
 21
14.85
  0
LINE
  8
0
 10
15.4722
 20
14.85
 11
15.3925
 21
14.9751
  0
LINE
  8
0
 10
15.3925
 20
14.9751
 11
15.3023
 21
15.0927
  0
LINE
  8
0
 10
15.3023
 20
15.0927
 11
15.2021
 21
15.2021
  0
LINE
  8
0
 10
15.2021
 20
15.2021
 11
15.0927
 21
15.3023
  0
LINE
  8
0
 10
15.0927
 20
15.3023
 11
14.9751
 21
15.3925
  0
LINE
  8
0
 10
14.9751
 20
15.3925
 11
14.85
 21
15.4722
  0
LINE
  8
0
 10
14.85
 20
15.4722
 11
14.7184
 21
15.5407
  0
LINE
  8
0
 10
14.7184
 20
15.5407
 11
14.5814
 21
15.5975
  0
LINE
  8
0
 10
14.5814
 20
15.5975
 11
14.44
 21
15.6421
  0
LINE
  8
0
 10
14.44
 20
15.6421
 11
14.2952
 21
15.6742
  0
LINE
  8
0
 10
14.2952
 20
15.6742
 11
14.1482
 21
15.6935
  0
LINE
  8
0
 10
14.1482
 20
15.6935
 11
14
 21
15.7
  0
LINE
  8
0
 10
14
 20
15.7
 11
13.8518
 21
15.6935
  0
LINE
  8
0
 10
13.8518
 20
15.6935
 11
13.7048
 21
15.6742
  0
LINE
  8
0
 10
13.7048
 20
15.6742
 11
13.56
 21
15.6421
  0
LINE
  8
0
 10
13.56
 20
15.6421
 11
13.4186
 21
15.5975
  0
LINE
  8
0
 10
13.4186
 20
15.5975
 11
13.2815
 21
15.5407
  0
LINE
  8
0
 10
13.2815
 20
15.5407
 11
13.15
 21
15.4722
  0
LINE
  8
0
 10
13.15
 20
15.4722
 11
13.0249
 21
15.3925
  0
LINE
  8
0
 10
13.0249
 20
15.3925
 11
12.9073
 21
15.3023
  0
LINE
  8
0
 10
12.9073
 20
15.3023
 11
12.7979
 21
15.2021
  0
LINE
  8
0
 10
12.7979
 20
15.2021
 11
12.6977
 21
15.0927
  0
LINE
  8
0
 10
12.6977
 20
15.0927
 11
12.6074
 21
14.9751
  0
LINE
  8
0
 10
12.6074
 20
14.9751
 11
12.5278
 21
14.85
  0
LINE
  8
0
 10
12.5278
 20
14.85
 11
12.4593
 21
14.7184
  0
LINE
  8
0
 10
12.4593
 20
14.7184
 11
12.4025
 21
14.5814
  0
LINE
  8
0
 10
12.4025
 20
14.5814
 11
12.3579
 21
14.44
  0
LINE
  8
0
 10
12.3579
 20
14.44
 11
12.3258
 21
14.2952
  0
LINE
  8
0
 10
12.3258
 20
14.2952
 11
12.3065
 21
14.1482
  0
LINE
  8
0
 10
12.3065
 20
14.1482
 11
12.3
 21
14
  0
LINE
  8
0
 10
12.3
 20
14
 11
12.3065
 21
13.8518
  0
LINE
  8
0
 10
12.3065
 20
13.8518
 11
12.3258
 21
13.7048
  0
LINE
  8
0
 10
12.3258
 20
13.7048
 11
12.3579
 21
13.56
  0
LINE
  8
0
 10
12.3579
 20
13.56
 11
12.4025
 21
13.4186
  0
LINE
  8
0
 10
12.4025
 20
13.4186
 11
12.4593
 21
13.2815
  0
LINE
  8
0
 10
12.4593
 20
13.2815
 11
12.5278
 21
13.15
  0
LINE
  8
0
 10
12.5278
 20
13.15
 11
12.6074
 21
13.0249
  0
LINE
  8
0
 10
12.6074
 20
13.0249
 11
12.6977
 21
12.9073
  0
LINE
  8
0
 10
12.6977
 20
12.9073
 11
12.7979
 21
12.7979
  0
LINE
  8
0
 10
12.7979
 20
12.7979
 11
12.9073
 21
12.6977
  0
LINE
  8
0
 10
12.9073
 20
12.6977
 11
13.0249
 21
12.6074
  0
LINE
  8
0
 10
13.0249
 20
12.6074
 11
13.15
 21
12.5278
  0
LINE
  8
0
 10
13.15
 20
12.5278
 11
13.2815
 21
12.4593
  0
LINE
  8
0
 10
13.2815
 20
12.4593
 11
13.4186
 21
12.4025
  0
LINE
  8
0
 10
13.4186
 20
12.4025
 11
13.56
 21
12.3579
  0
LINE
  8
0
 10
13.56
 20
12.3579
 11
13.7048
 21
12.3258
  0
LINE
  8
0
 10
13.7048
 20
12.3258
 11
13.8518
 21
12.3065
  0
LINE
  8
0
 10
13.8518
 20
12.3065
 11
14
 21
12.3
  0
LINE
  8
0
 10
14
 20
12.3
 11
14.1482
 21
12.3065
  0
LINE
  8
0
 10
-13.8518
 20
-15.6935
 11
-13.7048
 21
-15.6742
  0
LINE
  8
0
 10
-13.7048
 20
-15.6742
 11
-13.56
 21
-15.6421
  0
LINE
  8
0
 10
-13.56
 20
-15.6421
 11
-13.4186
 21
-15.5975
  0
LINE
  8
0
 10
-13.4186
 20
-15.5975
 11
-13.2815
 21
-15.5407
  0
LINE
  8
0
 10
-13.2815
 20
-15.5407
 11
-13.15
 21
-15.4722
  0
LINE
  8
0
 10
-13.15
 20
-15.4722
 11
-13.0249
 21
-15.3925
  0
LINE
  8
0
 10
-13.0249
 20
-15.3925
 11
-12.9073
 21
-15.3023
  0
LINE
  8
0
 10
-12.9073
 20
-15.3023
 11
-12.7979
 21
-15.2021
  0
LINE
  8
0
 10
-12.7979
 20
-15.2021
 11
-12.6977
 21
-15.0927
  0
LINE
  8
0
 10
-12.6977
 20
-15.0927
 11
-12.6074
 21
-14.9751
  0
LINE
  8
0
 10
-12.6074
 20
-14.9751
 11
-12.5278
 21
-14.85
  0
LINE
  8
0
 10
-12.5278
 20
-14.85
 11
-12.4593
 21
-14.7184
  0
LINE
  8
0
 10
-12.4593
 20
-14.7184
 11
-12.4025
 21
-14.5814
  0
LINE
  8
0
 10
-12.4025
 20
-14.5814
 11
-12.3579
 21
-14.44
  0
LINE
  8
0
 10
-12.3579
 20
-14.44
 11
-12.3258
 21
-14.2952
  0
LINE
  8
0
 10
-12.3258
 20
-14.2952
 11
-12.3065
 21
-14.1482
  0
LINE
  8
0
 10
-12.3065
 20
-14.1482
 11
-12.3
 21
-14
  0
LINE
  8
0
 10
-12.3
 20
-14
 11
-12.3065
 21
-13.8518
  0
LINE
  8
0
 10
-12.3065
 20
-13.8518
 11
-12.3258
 21
-13.7048
  0
LINE
  8
0
 10
-12.3258
 20
-13.7048
 11
-12.3579
 21
-13.56
  0
LINE
  8
0
 10
-12.3579
 20
-13.56
 11
-12.4025
 21
-13.4186
  0
LINE
  8
0
 10
-12.4025
 20
-13.4186
 11
-12.4593
 21
-13.2815
  0
LINE
  8
0
 10
-12.4593
 20
-13.2815
 11
-12.5278
 21
-13.15
  0
LINE
  8
0
 10
-12.5278
 20
-13.15
 11
-12.6074
 21
-13.0249
  0
LINE
  8
0
 10
-12.6074
 20
-13.0249
 11
-12.6977
 21
-12.9073
  0
LINE
  8
0
 10
-12.6977
 20
-12.9073
 11
-12.7979
 21
-12.7979
  0
LINE
  8
0
 10
-12.7979
 20
-12.7979
 11
-12.9073
 21
-12.6977
  0
LINE
  8
0
 10
-12.9073
 20
-12.6977
 11
-13.0249
 21
-12.6074
  0
LINE
  8
0
 10
-13.0249
 20
-12.6074
 11
-13.15
 21
-12.5278
  0
LINE
  8
0
 10
-13.15
 20
-12.5278
 11
-13.2815
 21
-12.4593
  0
LINE
  8
0
 10
-13.2815
 20
-12.4593
 11
-13.4186
 21
-12.4025
  0
LINE
  8
0
 10
-13.4186
 20
-12.4025
 11
-13.56
 21
-12.3579
  0
LINE
  8
0
 10
-13.56
 20
-12.3579
 11
-13.7048
 21
-12.3258
  0
LINE
  8
0
 10
-13.7048
 20
-12.3258
 11
-13.8518
 21
-12.3065
  0
LINE
  8
0
 10
-13.8518
 20
-12.3065
 11
-14
 21
-12.3
  0
LINE
  8
0
 10
-14
 20
-12.3
 11
-14.1482
 21
-12.3065
  0
LINE
  8
0
 10
-14.1482
 20
-12.3065
 11
-14.2952
 21
-12.3258
  0
LINE
  8
0
 10
-14.2952
 20
-12.3258
 11
-14.44
 21
-12.3579
  0
LINE
  8
0
 10
-14.44
 20
-12.3579
 11
-14.5814
 21
-12.4025
  0
LINE
  8
0
 10
-14.5814
 20
-12.4025
 11
-14.7184
 21
-12.4593
  0
LINE
  8
0
 10
-14.7184
 20
-12.4593
 11
-14.85
 21
-12.5278
  0
LINE
  8
0
 10
-14.85
 20
-12.5278
 11
-14.9751
 21
-12.6074
  0
LINE
  8
0
 10
-14.9751
 20
-12.6074
 11
-15.0927
 21
-12.6977
  0
LINE
  8
0
 10
-15.0927
 20
-12.6977
 11
-15.2021
 21
-12.7979
  0
LINE
  8
0
 10
-15.2021
 20
-12.7979
 11
-15.3023
 21
-12.9073
  0
LINE
  8
0
 10
-15.3023
 20
-12.9073
 11
-15.3925
 21
-13.0249
  0
LINE
  8
0
 10
-15.3925
 20
-13.0249
 11
-15.4722
 21
-13.15
  0
LINE
  8
0
 10
-15.4722
 20
-13.15
 11
-15.5407
 21
-13.2815
  0
LINE
  8
0
 10
-15.5407
 20
-13.2815
 11
-15.5975
 21
-13.4186
  0
LINE
  8
0
 10
-15.5975
 20
-13.4186
 11
-15.6421
 21
-13.56
  0
LINE
  8
0
 10
-15.6421
 20
-13.56
 11
-15.6742
 21
-13.7048
  0
LINE
  8
0
 10
-15.6742
 20
-13.7048
 11
-15.6935
 21
-13.8518
  0
LINE
  8
0
 10
-15.6935
 20
-13.8518
 11
-15.7
 21
-14
  0
LINE
  8
0
 10
-15.7
 20
-14
 11
-15.6935
 21
-14.1482
  0
LINE
  8
0
 10
-15.6935
 20
-14.1482
 11
-15.6742
 21
-14.2952
  0
LINE
  8
0
 10
-15.6742
 20
-14.2952
 11
-15.6421
 21
-14.44
  0
LINE
  8
0
 10
-15.6421
 20
-14.44
 11
-15.5975
 21
-14.5814
  0
LINE
  8
0
 10
-15.5975
 20
-14.5814
 11
-15.5407
 21
-14.7184
  0
LINE
  8
0
 10
-15.5407
 20
-14.7184
 11
-15.4722
 21
-14.85
  0
LINE
  8
0
 10
-15.4722
 20
-14.85
 11
-15.3925
 21
-14.9751
  0
LINE
  8
0
 10
-15.3925
 20
-14.9751
 11
-15.3023
 21
-15.0927
  0
LINE
  8
0
 10
-15.3023
 20
-15.0927
 11
-15.2021
 21
-15.2021
  0
LINE
  8
0
 10
-15.2021
 20
-15.2021
 11
-15.0927
 21
-15.3023
  0
LINE
  8
0
 10
-15.0927
 20
-15.3023
 11
-14.9751
 21
-15.3925
  0
LINE
  8
0
 10
-14.9751
 20
-15.3925
 11
-14.85
 21
-15.4722
  0
LINE
  8
0
 10
-14.85
 20
-15.4722
 11
-14.7184
 21
-15.5407
  0
LINE
  8
0
 10
-14.7184
 20
-15.5407
 11
-14.5814
 21
-15.5975
  0
LINE
  8
0
 10
-14.5814
 20
-15.5975
 11
-14.44
 21
-15.6421
  0
LINE
  8
0
 10
-14.44
 20
-15.6421
 11
-14.2952
 21
-15.6742
  0
LINE
  8
0
 10
-14.2952
 20
-15.6742
 11
-14.1482
 21
-15.6935
  0
LINE
  8
0
 10
-14.1482
 20
-15.6935
 11
-14
 21
-15.7
  0
LINE
  8
0
 10
-14
 20
-15.7
 11
-13.8518
 21
-15.6935
  0
LINE
  8
0
 10
14.1482
 20
-15.6935
 11
14.2952
 21
-15.6742
  0
LINE
  8
0
 10
14.2952
 20
-15.6742
 11
14.44
 21
-15.6421
  0
LINE
  8
0
 10
14.44
 20
-15.6421
 11
14.5814
 21
-15.5975
  0
LINE
  8
0
 10
14.5814
 20
-15.5975
 11
14.7184
 21
-15.5407
  0
LINE
  8
0
 10
14.7184
 20
-15.5407
 11
14.85
 21
-15.4722
  0
LINE
  8
0
 10
14.85
 20
-15.4722
 11
14.9751
 21
-15.3925
  0
LINE
  8
0
 10
14.9751
 20
-15.3925
 11
15.0927
 21
-15.3023
  0
LINE
  8
0
 10
15.0927
 20
-15.3023
 11
15.2021
 21
-15.2021
  0
LINE
  8
0
 10
15.2021
 20
-15.2021
 11
15.3023
 21
-15.0927
  0
LINE
  8
0
 10
15.3023
 20
-15.0927
 11
15.3925
 21
-14.9751
  0
LINE
  8
0
 10
15.3925
 20
-14.9751
 11
15.4722
 21
-14.85
  0
LINE
  8
0
 10
15.4722
 20
-14.85
 11
15.5407
 21
-14.7184
  0
LINE
  8
0
 10
15.5407
 20
-14.7184
 11
15.5975
 21
-14.5814
  0
LINE
  8
0
 10
15.5975
 20
-14.5814
 11
15.6421
 21
-14.44
  0
LINE
  8
0
 10
15.6421
 20
-14.44
 11
15.6742
 21
-14.2952
  0
LINE
  8
0
 10
15.6742
 20
-14.2952
 11
15.6935
 21
-14.1482
  0
LINE
  8
0
 10
15.6935
 20
-14.1482
 11
15.7
 21
-14
  0
LINE
  8
0
 10
15.7
 20
-14
 11
15.6935
 21
-13.8518
  0
LINE
  8
0
 10
15.6935
 20
-13.8518
 11
15.6742
 21
-13.7048
  0
LINE
  8
0
 10
15.6742
 20
-13.7048
 11
15.6421
 21
-13.56
  0
LINE
  8
0
 10
15.6421
 20
-13.56
 11
15.5975
 21
-13.4186
  0
LINE
  8
0
 10
15.5975
 20
-13.4186
 11
15.5407
 21
-13.2815
  0
LINE
  8
0
 10
15.5407
 20
-13.2815
 11
15.4722
 21
-13.15
  0
LINE
  8
0
 10
15.4722
 20
-13.15
 11
15.3925
 21
-13.0249
  0
LINE
  8
0
 10
15.3925
 20
-13.0249
 11
15.3023
 21
-12.9073
  0
LINE
  8
0
 10
15.3023
 20
-12.9073
 11
15.2021
 21
-12.7979
  0
LINE
  8
0
 10
15.2021
 20
-12.7979
 11
15.0927
 21
-12.6977
  0
LINE
  8
0
 10
15.0927
 20
-12.6977
 11
14.9751
 21
-12.6074
  0
LINE
  8
0
 10
14.9751
 20
-12.6074
 11
14.85
 21
-12.5278
  0
LINE
  8
0
 10
14.85
 20
-12.5278
 11
14.7184
 21
-12.4593
  0
LINE
  8
0
 10
14.7184
 20
-12.4593
 11
14.5814
 21
-12.4025
  0
LINE
  8
0
 10
14.5814
 20
-12.4025
 11
14.44
 21
-12.3579
  0
LINE
  8
0
 10
14.44
 20
-12.3579
 11
14.2952
 21
-12.3258
  0
LINE
  8
0
 10
14.2952
 20
-12.3258
 11
14.1482
 21
-12.3065
  0
LINE
  8
0
 10
14.1482
 20
-12.3065
 11
14
 21
-12.3
  0
LINE
  8
0
 10
14
 20
-12.3
 11
13.8518
 21
-12.3065
  0
LINE
  8
0
 10
13.8518
 20
-12.3065
 11
13.7048
 21
-12.3258
  0
LINE
  8
0
 10
13.7048
 20
-12.3258
 11
13.56
 21
-12.3579
  0
LINE
  8
0
 10
13.56
 20
-12.3579
 11
13.4186
 21
-12.4025
  0
LINE
  8
0
 10
13.4186
 20
-12.4025
 11
13.2815
 21
-12.4593
  0
LINE
  8
0
 10
13.2815
 20
-12.4593
 11
13.15
 21
-12.5278
  0
LINE
  8
0
 10
13.15
 20
-12.5278
 11
13.0249
 21
-12.6074
  0
LINE
  8
0
 10
13.0249
 20
-12.6074
 11
12.9073
 21
-12.6977
  0
LINE
  8
0
 10
12.9073
 20
-12.6977
 11
12.7979
 21
-12.7979
  0
LINE
  8
0
 10
12.7979
 20
-12.7979
 11
12.6977
 21
-12.9073
  0
LINE
  8
0
 10
12.6977
 20
-12.9073
 11
12.6074
 21
-13.0249
  0
LINE
  8
0
 10
12.6074
 20
-13.0249
 11
12.5278
 21
-13.15
  0
LINE
  8
0
 10
12.5278
 20
-13.15
 11
12.4593
 21
-13.2815
  0
LINE
  8
0
 10
12.4593
 20
-13.2815
 11
12.4025
 21
-13.4186
  0
LINE
  8
0
 10
12.4025
 20
-13.4186
 11
12.3579
 21
-13.56
  0
LINE
  8
0
 10
12.3579
 20
-13.56
 11
12.3258
 21
-13.7048
  0
LINE
  8
0
 10
12.3258
 20
-13.7048
 11
12.3065
 21
-13.8518
  0
LINE
  8
0
 10
12.3065
 20
-13.8518
 11
12.3
 21
-14
  0
LINE
  8
0
 10
12.3
 20
-14
 11
12.3065
 21
-14.1482
  0
LINE
  8
0
 10
12.3065
 20
-14.1482
 11
12.3258
 21
-14.2952
  0
LINE
  8
0
 10
12.3258
 20
-14.2952
 11
12.3579
 21
-14.44
  0
LINE
  8
0
 10
12.3579
 20
-14.44
 11
12.4025
 21
-14.5814
  0
LINE
  8
0
 10
12.4025
 20
-14.5814
 11
12.4593
 21
-14.7184
  0
LINE
  8
0
 10
12.4593
 20
-14.7184
 11
12.5278
 21
-14.85
  0
LINE
  8
0
 10
12.5278
 20
-14.85
 11
12.6074
 21
-14.9751
  0
LINE
  8
0
 10
12.6074
 20
-14.9751
 11
12.6977
 21
-15.0927
  0
LINE
  8
0
 10
12.6977
 20
-15.0927
 11
12.7979
 21
-15.2021
  0
LINE
  8
0
 10
12.7979
 20
-15.2021
 11
12.9073
 21
-15.3023
  0
LINE
  8
0
 10
12.9073
 20
-15.3023
 11
13.0249
 21
-15.3925
  0
LINE
  8
0
 10
13.0249
 20
-15.3925
 11
13.15
 21
-15.4722
  0
LINE
  8
0
 10
13.15
 20
-15.4722
 11
13.2815
 21
-15.5407
  0
LINE
  8
0
 10
13.2815
 20
-15.5407
 11
13.4186
 21
-15.5975
  0
LINE
  8
0
 10
13.4186
 20
-15.5975
 11
13.56
 21
-15.6421
  0
LINE
  8
0
 10
13.56
 20
-15.6421
 11
13.7048
 21
-15.6742
  0
LINE
  8
0
 10
13.7048
 20
-15.6742
 11
13.8518
 21
-15.6935
  0
LINE
  8
0
 10
13.8518
 20
-15.6935
 11
14
 21
-15.7
  0
LINE
  8
0
 10
14
 20
-15.7
 11
14.1482
 21
-15.6935
  0
ENDSEC
  0
SECTION
  2
OBJECTS
  0
DICTIONARY
  0
ENDSEC
  0
EOF
