  0
SECTION
  2
BLOCKS
  0
ENDSEC
  0
SECTION
  2
ENTITIES
  0
LINE
  8
0
 10
3.48622
 20
-39.8478
 11
6.94592
 21
-39.3923
  0
LINE
  8
0
 10
6.94592
 20
-39.3923
 11
10.3528
 21
-38.637
  0
LINE
  8
0
 10
10.3528
 20
-38.637
 11
13.6808
 21
-37.5877
  0
LINE
  8
0
 10
13.6808
 20
-37.5877
 11
16.9047
 21
-36.2523
  0
LINE
  8
0
 10
16.9047
 20
-36.2523
 11
20
 21
-34.641
  0
LINE
  8
0
 10
20
 20
-34.641
 11
22.9431
 21
-32.7661
  0
LINE
  8
0
 10
22.9431
 20
-32.7661
 11
25.7115
 21
-30.6418
  0
LINE
  8
0
 10
25.7115
 20
-30.6418
 11
28.2843
 21
-28.2843
  0
LINE
  8
0
 10
28.2843
 20
-28.2843
 11
30.6418
 21
-25.7115
  0
LINE
  8
0
 10
30.6418
 20
-25.7115
 11
32.7661
 21
-22.9431
  0
LINE
  8
0
 10
32.7661
 20
-22.9431
 11
34.641
 21
-20
  0
LINE
  8
0
 10
34.641
 20
-20
 11
36.2523
 21
-16.9047
  0
LINE
  8
0
 10
36.2523
 20
-16.9047
 11
37.5877
 21
-13.6808
  0
LINE
  8
0
 10
37.5877
 20
-13.6808
 11
38.637
 21
-10.3528
  0
LINE
  8
0
 10
38.637
 20
-10.3528
 11
39.3923
 21
-6.94592
  0
LINE
  8
0
 10
39.3923
 20
-6.94592
 11
39.8478
 21
-3.48622
  0
LINE
  8
0
 10
39.8478
 20
-3.48622
 11
40
 21
0
  0
LINE
  8
0
 10
40
 20
0
 11
39.8478
 21
3.48622
  0
LINE
  8
0
 10
39.8478
 20
3.48622
 11
39.3923
 21
6.94592
  0
LINE
  8
0
 10
39.3923
 20
6.94592
 11
38.637
 21
10.3528
  0
LINE
  8
0
 10
38.637
 20
10.3528
 11
37.5877
 21
13.6808
  0
LINE
  8
0
 10
37.5877
 20
13.6808
 11
36.2523
 21
16.9047
  0
LINE
  8
0
 10
36.2523
 20
16.9047
 11
34.641
 21
20
  0
LINE
  8
0
 10
34.641
 20
20
 11
32.7661
 21
22.9431
  0
LINE
  8
0
 10
32.7661
 20
22.9431
 11
30.6418
 21
25.7115
  0
LINE
  8
0
 10
30.6418
 20
25.7115
 11
28.2843
 21
28.2843
  0
LINE
  8
0
 10
28.2843
 20
28.2843
 11
25.7115
 21
30.6418
  0
LINE
  8
0
 10
25.7115
 20
30.6418
 11
22.9431
 21
32.7661
  0
LINE
  8
0
 10
22.9431
 20
32.7661
 11
20
 21
34.641
  0
LINE
  8
0
 10
20
 20
34.641
 11
16.9047
 21
36.2523
  0
LINE
  8
0
 10
16.9047
 20
36.2523
 11
13.6808
 21
37.5877
  0
LINE
  8
0
 10
13.6808
 20
37.5877
 11
10.3528
 21
38.637
  0
LINE
  8
0
 10
10.3528
 20
38.637
 11
6.94592
 21
39.3923
  0
LINE
  8
0
 10
6.94592
 20
39.3923
 11
3.48622
 21
39.8478
  0
LINE
  8
0
 10
3.48622
 20
39.8478
 11
0
 21
40
  0
LINE
  8
0
 10
0
 20
40
 11
-3.48622
 21
39.8478
  0
LINE
  8
0
 10
-3.48622
 20
39.8478
 11
-6.94592
 21
39.3923
  0
LINE
  8
0
 10
-6.94592
 20
39.3923
 11
-10.3528
 21
38.637
  0
LINE
  8
0
 10
-10.3528
 20
38.637
 11
-13.6808
 21
37.5877
  0
LINE
  8
0
 10
-13.6808
 20
37.5877
 11
-16.9047
 21
36.2523
  0
LINE
  8
0
 10
-16.9047
 20
36.2523
 11
-20
 21
34.641
  0
LINE
  8
0
 10
-20
 20
34.641
 11
-22.9431
 21
32.7661
  0
LINE
  8
0
 10
-22.9431
 20
32.7661
 11
-25.7115
 21
30.6418
  0
LINE
  8
0
 10
-25.7115
 20
30.6418
 11
-28.2843
 21
28.2843
  0
LINE
  8
0
 10
-28.2843
 20
28.2843
 11
-30.6418
 21
25.7115
  0
LINE
  8
0
 10
-30.6418
 20
25.7115
 11
-32.7661
 21
22.9431
  0
LINE
  8
0
 10
-32.7661
 20
22.9431
 11
-34.641
 21
20
  0
LINE
  8
0
 10
-34.641
 20
20
 11
-36.2523
 21
16.9047
  0
LINE
  8
0
 10
-36.2523
 20
16.9047
 11
-37.5877
 21
13.6808
  0
LINE
  8
0
 10
-37.5877
 20
13.6808
 11
-38.637
 21
10.3528
  0
LINE
  8
0
 10
-38.637
 20
10.3528
 11
-39.3923
 21
6.94592
  0
LINE
  8
0
 10
-39.3923
 20
6.94592
 11
-39.8478
 21
3.48622
  0
LINE
  8
0
 10
-39.8478
 20
3.48622
 11
-40
 21
0
  0
LINE
  8
0
 10
-40
 20
0
 11
-39.8478
 21
-3.48622
  0
LINE
  8
0
 10
-39.8478
 20
-3.48622
 11
-39.3923
 21
-6.94592
  0
LINE
  8
0
 10
-39.3923
 20
-6.94592
 11
-38.637
 21
-10.3528
  0
LINE
  8
0
 10
-38.637
 20
-10.3528
 11
-37.5877
 21
-13.6808
  0
LINE
  8
0
 10
-37.5877
 20
-13.6808
 11
-36.2523
 21
-16.9047
  0
LINE
  8
0
 10
-36.2523
 20
-16.9047
 11
-34.641
 21
-20
  0
LINE
  8
0
 10
-34.641
 20
-20
 11
-32.7661
 21
-22.9431
  0
LINE
  8
0
 10
-32.7661
 20
-22.9431
 11
-30.6418
 21
-25.7115
  0
LINE
  8
0
 10
-30.6418
 20
-25.7115
 11
-28.2843
 21
-28.2843
  0
LINE
  8
0
 10
-28.2843
 20
-28.2843
 11
-25.7115
 21
-30.6418
  0
LINE
  8
0
 10
-25.7115
 20
-30.6418
 11
-22.9431
 21
-32.7661
  0
LINE
  8
0
 10
-22.9431
 20
-32.7661
 11
-20
 21
-34.641
  0
LINE
  8
0
 10
-20
 20
-34.641
 11
-16.9047
 21
-36.2523
  0
LINE
  8
0
 10
-16.9047
 20
-36.2523
 11
-13.6808
 21
-37.5877
  0
LINE
  8
0
 10
-13.6808
 20
-37.5877
 11
-10.3528
 21
-38.637
  0
LINE
  8
0
 10
-10.3528
 20
-38.637
 11
-6.94592
 21
-39.3923
  0
LINE
  8
0
 10
-6.94592
 20
-39.3923
 11
-3.48622
 21
-39.8478
  0
LINE
  8
0
 10
-3.48622
 20
-39.8478
 11
0
 21
-40
  0
LINE
  8
0
 10
0
 20
-40
 11
3.48622
 21
-39.8478
  0
LINE
  8
0
 10
-35.8867
 20
34.7049
 11
-35.7742
 21
34.7197
  0
LINE
  8
0
 10
-35.7742
 20
34.7197
 11
-35.6635
 21
34.7443
  0
LINE
  8
0
 10
-35.6635
 20
34.7443
 11
-35.5554
 21
34.7784
  0
LINE
  8
0
 10
-35.5554
 20
34.7784
 11
-35.4506
 21
34.8218
  0
LINE
  8
0
 10
-35.4506
 20
34.8218
 11
-35.35
 21
34.8742
  0
LINE
  8
0
 10
-35.35
 20
34.8742
 11
-35.2543
 21
34.9351
  0
LINE
  8
0
 10
-35.2543
 20
34.9351
 11
-35.1644
 21
35.0041
  0
LINE
  8
0
 10
-35.1644
 20
35.0041
 11
-35.0807
 21
35.0807
  0
LINE
  8
0
 10
-35.0807
 20
35.0807
 11
-35.0041
 21
35.1644
  0
LINE
  8
0
 10
-35.0041
 20
35.1644
 11
-34.9351
 21
35.2543
  0
LINE
  8
0
 10
-34.9351
 20
35.2543
 11
-34.8742
 21
35.35
  0
LINE
  8
0
 10
-34.8742
 20
35.35
 11
-34.8218
 21
35.4506
  0
LINE
  8
0
 10
-34.8218
 20
35.4506
 11
-34.7784
 21
35.5554
  0
LINE
  8
0
 10
-34.7784
 20
35.5554
 11
-34.7443
 21
35.6635
  0
LINE
  8
0
 10
-34.7443
 20
35.6635
 11
-34.7197
 21
35.7742
  0
LINE
  8
0
 10
-34.7197
 20
35.7742
 11
-34.7049
 21
35.8867
  0
LINE
  8
0
 10
-34.7049
 20
35.8867
 11
-34.7
 21
36
  0
LINE
  8
0
 10
-34.7
 20
36
 11
-34.7049
 21
36.1133
  0
LINE
  8
0
 10
-34.7049
 20
36.1133
 11
-34.7197
 21
36.2257
  0
LINE
  8
0
 10
-34.7197
 20
36.2257
 11
-34.7443
 21
36.3365
  0
LINE
  8
0
 10
-34.7443
 20
36.3365
 11
-34.7784
 21
36.4446
  0
LINE
  8
0
 10
-34.7784
 20
36.4446
 11
-34.8218
 21
36.5494
  0
LINE
  8
0
 10
-34.8218
 20
36.5494
 11
-34.8742
 21
36.65
  0
LINE
  8
0
 10
-34.8742
 20
36.65
 11
-34.9351
 21
36.7456
  0
LINE
  8
0
 10
-34.9351
 20
36.7456
 11
-35.0041
 21
36.8356
  0
LINE
  8
0
 10
-35.0041
 20
36.8356
 11
-35.0807
 21
36.9192
  0
LINE
  8
0
 10
-35.0807
 20
36.9192
 11
-35.1644
 21
36.9958
  0
LINE
  8
0
 10
-35.1644
 20
36.9958
 11
-35.2543
 21
37.0649
  0
LINE
  8
0
 10
-35.2543
 20
37.0649
 11
-35.35
 21
37.1258
  0
LINE
  8
0
 10
-35.35
 20
37.1258
 11
-35.4506
 21
37.1782
  0
LINE
  8
0
 10
-35.4506
 20
37.1782
 11
-35.5554
 21
37.2216
  0
LINE
  8
0
 10
-35.5554
 20
37.2216
 11
-35.6635
 21
37.2557
  0
LINE
  8
0
 10
-35.6635
 20
37.2557
 11
-35.7742
 21
37.2802
  0
LINE
  8
0
 10
-35.7742
 20
37.2802
 11
-35.8867
 21
37.295
  0
LINE
  8
0
 10
-35.8867
 20
37.295
 11
-36
 21
37.3
  0
LINE
  8
0
 10
-36
 20
37.3
 11
-36.1133
 21
37.295
  0
LINE
  8
0
 10
-36.1133
 20
37.295
 11
-36.2257
 21
37.2802
  0
LINE
  8
0
 10
-36.2257
 20
37.2802
 11
-36.3365
 21
37.2557
  0
LINE
  8
0
 10
-36.3365
 20
37.2557
 11
-36.4446
 21
37.2216
  0
LINE
  8
0
 10
-36.4446
 20
37.2216
 11
-36.5494
 21
37.1782
  0
LINE
  8
0
 10
-36.5494
 20
37.1782
 11
-36.65
 21
37.1258
  0
LINE
  8
0
 10
-36.65
 20
37.1258
 11
-36.7456
 21
37.0649
  0
LINE
  8
0
 10
-36.7456
 20
37.0649
 11
-36.8356
 21
36.9958
  0
LINE
  8
0
 10
-36.8356
 20
36.9958
 11
-36.9192
 21
36.9192
  0
LINE
  8
0
 10
-36.9192
 20
36.9192
 11
-36.9958
 21
36.8356
  0
LINE
  8
0
 10
-36.9958
 20
36.8356
 11
-37.0649
 21
36.7456
  0
LINE
  8
0
 10
-37.0649
 20
36.7456
 11
-37.1258
 21
36.65
  0
LINE
  8
0
 10
-37.1258
 20
36.65
 11
-37.1782
 21
36.5494
  0
LINE
  8
0
 10
-37.1782
 20
36.5494
 11
-37.2216
 21
36.4446
  0
LINE
  8
0
 10
-37.2216
 20
36.4446
 11
-37.2557
 21
36.3365
  0
LINE
  8
0
 10
-37.2557
 20
36.3365
 11
-37.2802
 21
36.2257
  0
LINE
  8
0
 10
-37.2802
 20
36.2257
 11
-37.295
 21
36.1133
  0
LINE
  8
0
 10
-37.295
 20
36.1133
 11
-37.3
 21
36
  0
LINE
  8
0
 10
-37.3
 20
36
 11
-37.295
 21
35.8867
  0
LINE
  8
0
 10
-37.295
 20
35.8867
 11
-37.2802
 21
35.7742
  0
LINE
  8
0
 10
-37.2802
 20
35.7742
 11
-37.2557
 21
35.6635
  0
LINE
  8
0
 10
-37.2557
 20
35.6635
 11
-37.2216
 21
35.5554
  0
LINE
  8
0
 10
-37.2216
 20
35.5554
 11
-37.1782
 21
35.4506
  0
LINE
  8
0
 10
-37.1782
 20
35.4506
 11
-37.1258
 21
35.35
  0
LINE
  8
0
 10
-37.1258
 20
35.35
 11
-37.0649
 21
35.2543
  0
LINE
  8
0
 10
-37.0649
 20
35.2543
 11
-36.9958
 21
35.1644
  0
LINE
  8
0
 10
-36.9958
 20
35.1644
 11
-36.9192
 21
35.0807
  0
LINE
  8
0
 10
-36.9192
 20
35.0807
 11
-36.8356
 21
35.0041
  0
LINE
  8
0
 10
-36.8356
 20
35.0041
 11
-36.7456
 21
34.9351
  0
LINE
  8
0
 10
-36.7456
 20
34.9351
 11
-36.65
 21
34.8742
  0
LINE
  8
0
 10
-36.65
 20
34.8742
 11
-36.5494
 21
34.8218
  0
LINE
  8
0
 10
-36.5494
 20
34.8218
 11
-36.4446
 21
34.7784
  0
LINE
  8
0
 10
-36.4446
 20
34.7784
 11
-36.3365
 21
34.7443
  0
LINE
  8
0
 10
-36.3365
 20
34.7443
 11
-36.2257
 21
34.7197
  0
LINE
  8
0
 10
-36.2257
 20
34.7197
 11
-36.1133
 21
34.7049
  0
LINE
  8
0
 10
-36.1133
 20
34.7049
 11
-36
 21
34.7
  0
LINE
  8
0
 10
-36
 20
34.7
 11
-35.8867
 21
34.7049
  0
LINE
  8
0
 10
36.1133
 20
34.7049
 11
36.2257
 21
34.7197
  0
LINE
  8
0
 10
36.2257
 20
34.7197
 11
36.3365
 21
34.7443
  0
LINE
  8
0
 10
36.3365
 20
34.7443
 11
36.4446
 21
34.7784
  0
LINE
  8
0
 10
36.4446
 20
34.7784
 11
36.5494
 21
34.8218
  0
LINE
  8
0
 10
36.5494
 20
34.8218
 11
36.65
 21
34.8742
  0
LINE
  8
0
 10
36.65
 20
34.8742
 11
36.7456
 21
34.9351
  0
LINE
  8
0
 10
36.7456
 20
34.9351
 11
36.8356
 21
35.0041
  0
LINE
  8
0
 10
36.8356
 20
35.0041
 11
36.9192
 21
35.0807
  0
LINE
  8
0
 10
36.9192
 20
35.0807
 11
36.9958
 21
35.1644
  0
LINE
  8
0
 10
36.9958
 20
35.1644
 11
37.0649
 21
35.2543
  0
LINE
  8
0
 10
37.0649
 20
35.2543
 11
37.1258
 21
35.35
  0
LINE
  8
0
 10
37.1258
 20
35.35
 11
37.1782
 21
35.4506
  0
LINE
  8
0
 10
37.1782
 20
35.4506
 11
37.2216
 21
35.5554
  0
LINE
  8
0
 10
37.2216
 20
35.5554
 11
37.2557
 21
35.6635
  0
LINE
  8
0
 10
37.2557
 20
35.6635
 11
37.2802
 21
35.7742
  0
LINE
  8
0
 10
37.2802
 20
35.7742
 11
37.295
 21
35.8867
  0
LINE
  8
0
 10
37.295
 20
35.8867
 11
37.3
 21
36
  0
LINE
  8
0
 10
37.3
 20
36
 11
37.295
 21
36.1133
  0
LINE
  8
0
 10
37.295
 20
36.1133
 11
37.2802
 21
36.2257
  0
LINE
  8
0
 10
37.2802
 20
36.2257
 11
37.2557
 21
36.3365
  0
LINE
  8
0
 10
37.2557
 20
36.3365
 11
37.2216
 21
36.4446
  0
LINE
  8
0
 10
37.2216
 20
36.4446
 11
37.1782
 21
36.5494
  0
LINE
  8
0
 10
37.1782
 20
36.5494
 11
37.1258
 21
36.65
  0
LINE
  8
0
 10
37.1258
 20
36.65
 11
37.0649
 21
36.7456
  0
LINE
  8
0
 10
37.0649
 20
36.7456
 11
36.9958
 21
36.8356
  0
LINE
  8
0
 10
36.9958
 20
36.8356
 11
36.9192
 21
36.9192
  0
LINE
  8
0
 10
36.9192
 20
36.9192
 11
36.8356
 21
36.9958
  0
LINE
  8
0
 10
36.8356
 20
36.9958
 11
36.7456
 21
37.0649
  0
LINE
  8
0
 10
36.7456
 20
37.0649
 11
36.65
 21
37.1258
  0
LINE
  8
0
 10
36.65
 20
37.1258
 11
36.5494
 21
37.1782
  0
LINE
  8
0
 10
36.5494
 20
37.1782
 11
36.4446
 21
37.2216
  0
LINE
  8
0
 10
36.4446
 20
37.2216
 11
36.3365
 21
37.2557
  0
LINE
  8
0
 10
36.3365
 20
37.2557
 11
36.2257
 21
37.2802
  0
LINE
  8
0
 10
36.2257
 20
37.2802
 11
36.1133
 21
37.295
  0
LINE
  8
0
 10
36.1133
 20
37.295
 11
36
 21
37.3
  0
LINE
  8
0
 10
36
 20
37.3
 11
35.8867
 21
37.295
  0
LINE
  8
0
 10
35.8867
 20
37.295
 11
35.7742
 21
37.2802
  0
LINE
  8
0
 10
35.7742
 20
37.2802
 11
35.6635
 21
37.2557
  0
LINE
  8
0
 10
35.6635
 20
37.2557
 11
35.5554
 21
37.2216
  0
LINE
  8
0
 10
35.5554
 20
37.2216
 11
35.4506
 21
37.1782
  0
LINE
  8
0
 10
35.4506
 20
37.1782
 11
35.35
 21
37.1258
  0
LINE
  8
0
 10
35.35
 20
37.1258
 11
35.2543
 21
37.0649
  0
LINE
  8
0
 10
35.2543
 20
37.0649
 11
35.1644
 21
36.9958
  0
LINE
  8
0
 10
35.1644
 20
36.9958
 11
35.0807
 21
36.9192
  0
LINE
  8
0
 10
35.0807
 20
36.9192
 11
35.0041
 21
36.8356
  0
LINE
  8
0
 10
35.0041
 20
36.8356
 11
34.9351
 21
36.7456
  0
LINE
  8
0
 10
34.9351
 20
36.7456
 11
34.8742
 21
36.65
  0
LINE
  8
0
 10
34.8742
 20
36.65
 11
34.8218
 21
36.5494
  0
LINE
  8
0
 10
34.8218
 20
36.5494
 11
34.7784
 21
36.4446
  0
LINE
  8
0
 10
34.7784
 20
36.4446
 11
34.7443
 21
36.3365
  0
LINE
  8
0
 10
34.7443
 20
36.3365
 11
34.7197
 21
36.2257
  0
LINE
  8
0
 10
34.7197
 20
36.2257
 11
34.7049
 21
36.1133
  0
LINE
  8
0
 10
34.7049
 20
36.1133
 11
34.7
 21
36
  0
LINE
  8
0
 10
34.7
 20
36
 11
34.7049
 21
35.8867
  0
LINE
  8
0
 10
34.7049
 20
35.8867
 11
34.7197
 21
35.7742
  0
LINE
  8
0
 10
34.7197
 20
35.7742
 11
34.7443
 21
35.6635
  0
LINE
  8
0
 10
34.7443
 20
35.6635
 11
34.7784
 21
35.5554
  0
LINE
  8
0
 10
34.7784
 20
35.5554
 11
34.8218
 21
35.4506
  0
LINE
  8
0
 10
34.8218
 20
35.4506
 11
34.8742
 21
35.35
  0
LINE
  8
0
 10
34.8742
 20
35.35
 11
34.9351
 21
35.2543
  0
LINE
  8
0
 10
34.9351
 20
35.2543
 11
35.0041
 21
35.1644
  0
LINE
  8
0
 10
35.0041
 20
35.1644
 11
35.0807
 21
35.0807
  0
LINE
  8
0
 10
35.0807
 20
35.0807
 11
35.1644
 21
35.0041
  0
LINE
  8
0
 10
35.1644
 20
35.0041
 11
35.2543
 21
34.9351
  0
LINE
  8
0
 10
35.2543
 20
34.9351
 11
35.35
 21
34.8742
  0
LINE
  8
0
 10
35.35
 20
34.8742
 11
35.4506
 21
34.8218
  0
LINE
  8
0
 10
35.4506
 20
34.8218
 11
35.5554
 21
34.7784
  0
LINE
  8
0
 10
35.5554
 20
34.7784
 11
35.6635
 21
34.7443
  0
LINE
  8
0
 10
35.6635
 20
34.7443
 11
35.7742
 21
34.7197
  0
LINE
  8
0
 10
35.7742
 20
34.7197
 11
35.8867
 21
34.7049
  0
LINE
  8
0
 10
35.8867
 20
34.7049
 11
36
 21
34.7
  0
LINE
  8
0
 10
36
 20
34.7
 11
36.1133
 21
34.7049
  0
LINE
  8
0
 10
-35.8867
 20
-37.295
 11
-35.7742
 21
-37.2802
  0
LINE
  8
0
 10
-35.7742
 20
-37.2802
 11
-35.6635
 21
-37.2557
  0
LINE
  8
0
 10
-35.6635
 20
-37.2557
 11
-35.5554
 21
-37.2216
  0
LINE
  8
0
 10
-35.5554
 20
-37.2216
 11
-35.4506
 21
-37.1782
  0
LINE
  8
0
 10
-35.4506
 20
-37.1782
 11
-35.35
 21
-37.1258
  0
LINE
  8
0
 10
-35.35
 20
-37.1258
 11
-35.2543
 21
-37.0649
  0
LINE
  8
0
 10
-35.2543
 20
-37.0649
 11
-35.1644
 21
-36.9958
  0
LINE
  8
0
 10
-35.1644
 20
-36.9958
 11
-35.0807
 21
-36.9192
  0
LINE
  8
0
 10
-35.0807
 20
-36.9192
 11
-35.0041
 21
-36.8356
  0
LINE
  8
0
 10
-35.0041
 20
-36.8356
 11
-34.9351
 21
-36.7456
  0
LINE
  8
0
 10
-34.9351
 20
-36.7456
 11
-34.8742
 21
-36.65
  0
LINE
  8
0
 10
-34.8742
 20
-36.65
 11
-34.8218
 21
-36.5494
  0
LINE
  8
0
 10
-34.8218
 20
-36.5494
 11
-34.7784
 21
-36.4446
  0
LINE
  8
0
 10
-34.7784
 20
-36.4446
 11
-34.7443
 21
-36.3365
  0
LINE
  8
0
 10
-34.7443
 20
-36.3365
 11
-34.7197
 21
-36.2257
  0
LINE
  8
0
 10
-34.7197
 20
-36.2257
 11
-34.7049
 21
-36.1133
  0
LINE
  8
0
 10
-34.7049
 20
-36.1133
 11
-34.7
 21
-36
  0
LINE
  8
0
 10
-34.7
 20
-36
 11
-34.7049
 21
-35.8867
  0
LINE
  8
0
 10
-34.7049
 20
-35.8867
 11
-34.7197
 21
-35.7742
  0
LINE
  8
0
 10
-34.7197
 20
-35.7742
 11
-34.7443
 21
-35.6635
  0
LINE
  8
0
 10
-34.7443
 20
-35.6635
 11
-34.7784
 21
-35.5554
  0
LINE
  8
0
 10
-34.7784
 20
-35.5554
 11
-34.8218
 21
-35.4506
  0
LINE
  8
0
 10
-34.8218
 20
-35.4506
 11
-34.8742
 21
-35.35
  0
LINE
  8
0
 10
-34.8742
 20
-35.35
 11
-34.9351
 21
-35.2543
  0
LINE
  8
0
 10
-34.9351
 20
-35.2543
 11
-35.0041
 21
-35.1644
  0
LINE
  8
0
 10
-35.0041
 20
-35.1644
 11
-35.0807
 21
-35.0807
  0
LINE
  8
0
 10
-35.0807
 20
-35.0807
 11
-35.1644
 21
-35.0041
  0
LINE
  8
0
 10
-35.1644
 20
-35.0041
 11
-35.2543
 21
-34.9351
  0
LINE
  8
0
 10
-35.2543
 20
-34.9351
 11
-35.35
 21
-34.8742
  0
LINE
  8
0
 10
-35.35
 20
-34.8742
 11
-35.4506
 21
-34.8218
  0
LINE
  8
0
 10
-35.4506
 20
-34.8218
 11
-35.5554
 21
-34.7784
  0
LINE
  8
0
 10
-35.5554
 20
-34.7784
 11
-35.6635
 21
-34.7443
  0
LINE
  8
0
 10
-35.6635
 20
-34.7443
 11
-35.7742
 21
-34.7197
  0
LINE
  8
0
 10
-35.7742
 20
-34.7197
 11
-35.8867
 21
-34.7049
  0
LINE
  8
0
 10
-35.8867
 20
-34.7049
 11
-36
 21
-34.7
  0
LINE
  8
0
 10
-36
 20
-34.7
 11
-36.1133
 21
-34.7049
  0
LINE
  8
0
 10
-36.1133
 20
-34.7049
 11
-36.2257
 21
-34.7197
  0
LINE
  8
0
 10
-36.2257
 20
-34.7197
 11
-36.3365
 21
-34.7443
  0
LINE
  8
0
 10
-36.3365
 20
-34.7443
 11
-36.4446
 21
-34.7784
  0
LINE
  8
0
 10
-36.4446
 20
-34.7784
 11
-36.5494
 21
-34.8218
  0
LINE
  8
0
 10
-36.5494
 20
-34.8218
 11
-36.65
 21
-34.8742
  0
LINE
  8
0
 10
-36.65
 20
-34.8742
 11
-36.7456
 21
-34.9351
  0
LINE
  8
0
 10
-36.7456
 20
-34.9351
 11
-36.8356
 21
-35.0041
  0
LINE
  8
0
 10
-36.8356
 20
-35.0041
 11
-36.9192
 21
-35.0807
  0
LINE
  8
0
 10
-36.9192
 20
-35.0807
 11
-36.9958
 21
-35.1644
  0
LINE
  8
0
 10
-36.9958
 20
-35.1644
 11
-37.0649
 21
-35.2543
  0
LINE
  8
0
 10
-37.0649
 20
-35.2543
 11
-37.1258
 21
-35.35
  0
LINE
  8
0
 10
-37.1258
 20
-35.35
 11
-37.1782
 21
-35.4506
  0
LINE
  8
0
 10
-37.1782
 20
-35.4506
 11
-37.2216
 21
-35.5554
  0
LINE
  8
0
 10
-37.2216
 20
-35.5554
 11
-37.2557
 21
-35.6635
  0
LINE
  8
0
 10
-37.2557
 20
-35.6635
 11
-37.2802
 21
-35.7742
  0
LINE
  8
0
 10
-37.2802
 20
-35.7742
 11
-37.295
 21
-35.8867
  0
LINE
  8
0
 10
-37.295
 20
-35.8867
 11
-37.3
 21
-36
  0
LINE
  8
0
 10
-37.3
 20
-36
 11
-37.295
 21
-36.1133
  0
LINE
  8
0
 10
-37.295
 20
-36.1133
 11
-37.2802
 21
-36.2257
  0
LINE
  8
0
 10
-37.2802
 20
-36.2257
 11
-37.2557
 21
-36.3365
  0
LINE
  8
0
 10
-37.2557
 20
-36.3365
 11
-37.2216
 21
-36.4446
  0
LINE
  8
0
 10
-37.2216
 20
-36.4446
 11
-37.1782
 21
-36.5494
  0
LINE
  8
0
 10
-37.1782
 20
-36.5494
 11
-37.1258
 21
-36.65
  0
LINE
  8
0
 10
-37.1258
 20
-36.65
 11
-37.0649
 21
-36.7456
  0
LINE
  8
0
 10
-37.0649
 20
-36.7456
 11
-36.9958
 21
-36.8356
  0
LINE
  8
0
 10
-36.9958
 20
-36.8356
 11
-36.9192
 21
-36.9192
  0
LINE
  8
0
 10
-36.9192
 20
-36.9192
 11
-36.8356
 21
-36.9958
  0
LINE
  8
0
 10
-36.8356
 20
-36.9958
 11
-36.7456
 21
-37.0649
  0
LINE
  8
0
 10
-36.7456
 20
-37.0649
 11
-36.65
 21
-37.1258
  0
LINE
  8
0
 10
-36.65
 20
-37.1258
 11
-36.5494
 21
-37.1782
  0
LINE
  8
0
 10
-36.5494
 20
-37.1782
 11
-36.4446
 21
-37.2216
  0
LINE
  8
0
 10
-36.4446
 20
-37.2216
 11
-36.3365
 21
-37.2557
  0
LINE
  8
0
 10
-36.3365
 20
-37.2557
 11
-36.2257
 21
-37.2802
  0
LINE
  8
0
 10
-36.2257
 20
-37.2802
 11
-36.1133
 21
-37.295
  0
LINE
  8
0
 10
-36.1133
 20
-37.295
 11
-36
 21
-37.3
  0
LINE
  8
0
 10
-36
 20
-37.3
 11
-35.8867
 21
-37.295
  0
LINE
  8
0
 10
36.1133
 20
-37.295
 11
36.2257
 21
-37.2802
  0
LINE
  8
0
 10
36.2257
 20
-37.2802
 11
36.3365
 21
-37.2557
  0
LINE
  8
0
 10
36.3365
 20
-37.2557
 11
36.4446
 21
-37.2216
  0
LINE
  8
0
 10
36.4446
 20
-37.2216
 11
36.5494
 21
-37.1782
  0
LINE
  8
0
 10
36.5494
 20
-37.1782
 11
36.65
 21
-37.1258
  0
LINE
  8
0
 10
36.65
 20
-37.1258
 11
36.7456
 21
-37.0649
  0
LINE
  8
0
 10
36.7456
 20
-37.0649
 11
36.8356
 21
-36.9958
  0
LINE
  8
0
 10
36.8356
 20
-36.9958
 11
36.9192
 21
-36.9192
  0
LINE
  8
0
 10
36.9192
 20
-36.9192
 11
36.9958
 21
-36.8356
  0
LINE
  8
0
 10
36.9958
 20
-36.8356
 11
37.0649
 21
-36.7456
  0
LINE
  8
0
 10
37.0649
 20
-36.7456
 11
37.1258
 21
-36.65
  0
LINE
  8
0
 10
37.1258
 20
-36.65
 11
37.1782
 21
-36.5494
  0
LINE
  8
0
 10
37.1782
 20
-36.5494
 11
37.2216
 21
-36.4446
  0
LINE
  8
0
 10
37.2216
 20
-36.4446
 11
37.2557
 21
-36.3365
  0
LINE
  8
0
 10
37.2557
 20
-36.3365
 11
37.2802
 21
-36.2257
  0
LINE
  8
0
 10
37.2802
 20
-36.2257
 11
37.295
 21
-36.1133
  0
LINE
  8
0
 10
37.295
 20
-36.1133
 11
37.3
 21
-36
  0
LINE
  8
0
 10
37.3
 20
-36
 11
37.295
 21
-35.8867
  0
LINE
  8
0
 10
37.295
 20
-35.8867
 11
37.2802
 21
-35.7742
  0
LINE
  8
0
 10
37.2802
 20
-35.7742
 11
37.2557
 21
-35.6635
  0
LINE
  8
0
 10
37.2557
 20
-35.6635
 11
37.2216
 21
-35.5554
  0
LINE
  8
0
 10
37.2216
 20
-35.5554
 11
37.1782
 21
-35.4506
  0
LINE
  8
0
 10
37.1782
 20
-35.4506
 11
37.1258
 21
-35.35
  0
LINE
  8
0
 10
37.1258
 20
-35.35
 11
37.0649
 21
-35.2543
  0
LINE
  8
0
 10
37.0649
 20
-35.2543
 11
36.9958
 21
-35.1644
  0
LINE
  8
0
 10
36.9958
 20
-35.1644
 11
36.9192
 21
-35.0807
  0
LINE
  8
0
 10
36.9192
 20
-35.0807
 11
36.8356
 21
-35.0041
  0
LINE
  8
0
 10
36.8356
 20
-35.0041
 11
36.7456
 21
-34.9351
  0
LINE
  8
0
 10
36.7456
 20
-34.9351
 11
36.65
 21
-34.8742
  0
LINE
  8
0
 10
36.65
 20
-34.8742
 11
36.5494
 21
-34.8218
  0
LINE
  8
0
 10
36.5494
 20
-34.8218
 11
36.4446
 21
-34.7784
  0
LINE
  8
0
 10
36.4446
 20
-34.7784
 11
36.3365
 21
-34.7443
  0
LINE
  8
0
 10
36.3365
 20
-34.7443
 11
36.2257
 21
-34.7197
  0
LINE
  8
0
 10
36.2257
 20
-34.7197
 11
36.1133
 21
-34.7049
  0
LINE
  8
0
 10
36.1133
 20
-34.7049
 11
36
 21
-34.7
  0
LINE
  8
0
 10
36
 20
-34.7
 11
35.8867
 21
-34.7049
  0
LINE
  8
0
 10
35.8867
 20
-34.7049
 11
35.7742
 21
-34.7197
  0
LINE
  8
0
 10
35.7742
 20
-34.7197
 11
35.6635
 21
-34.7443
  0
LINE
  8
0
 10
35.6635
 20
-34.7443
 11
35.5554
 21
-34.7784
  0
LINE
  8
0
 10
35.5554
 20
-34.7784
 11
35.4506
 21
-34.8218
  0
LINE
  8
0
 10
35.4506
 20
-34.8218
 11
35.35
 21
-34.8742
  0
LINE
  8
0
 10
35.35
 20
-34.8742
 11
35.2543
 21
-34.9351
  0
LINE
  8
0
 10
35.2543
 20
-34.9351
 11
35.1644
 21
-35.0041
  0
LINE
  8
0
 10
35.1644
 20
-35.0041
 11
35.0807
 21
-35.0807
  0
LINE
  8
0
 10
35.0807
 20
-35.0807
 11
35.0041
 21
-35.1644
  0
LINE
  8
0
 10
35.0041
 20
-35.1644
 11
34.9351
 21
-35.2543
  0
LINE
  8
0
 10
34.9351
 20
-35.2543
 11
34.8742
 21
-35.35
  0
LINE
  8
0
 10
34.8742
 20
-35.35
 11
34.8218
 21
-35.4506
  0
LINE
  8
0
 10
34.8218
 20
-35.4506
 11
34.7784
 21
-35.5554
  0
LINE
  8
0
 10
34.7784
 20
-35.5554
 11
34.7443
 21
-35.6635
  0
LINE
  8
0
 10
34.7443
 20
-35.6635
 11
34.7197
 21
-35.7742
  0
LINE
  8
0
 10
34.7197
 20
-35.7742
 11
34.7049
 21
-35.8867
  0
LINE
  8
0
 10
34.7049
 20
-35.8867
 11
34.7
 21
-36
  0
LINE
  8
0
 10
34.7
 20
-36
 11
34.7049
 21
-36.1133
  0
LINE
  8
0
 10
34.7049
 20
-36.1133
 11
34.7197
 21
-36.2257
  0
LINE
  8
0
 10
34.7197
 20
-36.2257
 11
34.7443
 21
-36.3365
  0
LINE
  8
0
 10
34.7443
 20
-36.3365
 11
34.7784
 21
-36.4446
  0
LINE
  8
0
 10
34.7784
 20
-36.4446
 11
34.8218
 21
-36.5494
  0
LINE
  8
0
 10
34.8218
 20
-36.5494
 11
34.8742
 21
-36.65
  0
LINE
  8
0
 10
34.8742
 20
-36.65
 11
34.9351
 21
-36.7456
  0
LINE
  8
0
 10
34.9351
 20
-36.7456
 11
35.0041
 21
-36.8356
  0
LINE
  8
0
 10
35.0041
 20
-36.8356
 11
35.0807
 21
-36.9192
  0
LINE
  8
0
 10
35.0807
 20
-36.9192
 11
35.1644
 21
-36.9958
  0
LINE
  8
0
 10
35.1644
 20
-36.9958
 11
35.2543
 21
-37.0649
  0
LINE
  8
0
 10
35.2543
 20
-37.0649
 11
35.35
 21
-37.1258
  0
LINE
  8
0
 10
35.35
 20
-37.1258
 11
35.4506
 21
-37.1782
  0
LINE
  8
0
 10
35.4506
 20
-37.1782
 11
35.5554
 21
-37.2216
  0
LINE
  8
0
 10
35.5554
 20
-37.2216
 11
35.6635
 21
-37.2557
  0
LINE
  8
0
 10
35.6635
 20
-37.2557
 11
35.7742
 21
-37.2802
  0
LINE
  8
0
 10
35.7742
 20
-37.2802
 11
35.8867
 21
-37.295
  0
LINE
  8
0
 10
35.8867
 20
-37.295
 11
36
 21
-37.3
  0
LINE
  8
0
 10
36
 20
-37.3
 11
36.1133
 21
-37.295
  0
ENDSEC
  0
SECTION
  2
OBJECTS
  0
DICTIONARY
  0
ENDSEC
  0
EOF
