<svg xmlns="http://www.w3.org/2000/svg" xmlns:inkscape="http://www.inkscape.org/namespaces/inkscape" width="515.000mm" height="112.000mm" viewBox="0 0 515.000 112.000">
<g id="OUTLINE" inkscape:groupmode="layer" inkscape:label="OUTLINE" fill="none" stroke="#000000" stroke-width="0.2">
<path d="M 5.4770,111.9772 L 4.9580,111.9088 L 4.4470,111.7955 L 3.9480,111.6382 L 3.4640,111.4379 L 3.0000,111.1962 L 2.5590,110.9149 L 2.1430,110.5963 L 1.7570,110.2426 L 1.4040,109.8567 L 1.0850,109.4415 L 0.8040,109.0000 L 0.5620,108.5357 L 0.3620,108.0521 L 0.2040,107.5529 L 0.0910,107.0419 L 0.0230,106.5229 L 0.0000,106.0000 L 0.0000,0.0000 L 515.0000,0.0000 L 515.0000,112.0000 L 6.0000,112.0000 Z"/>
</g>
<g id="BACK_PILOTS" inkscape:groupmode="layer" inkscape:label="BACK_PILOTS" fill="none" stroke="#9b30c8" stroke-width="0.2">
<circle cx="35.5000" cy="10.0000" r="1.3000"/>
<circle cx="483.5000" cy="10.0000" r="1.3000"/>
<circle cx="433.5000" cy="10.0000" r="1.3000"/>
<circle cx="85.5000" cy="10.0000" r="1.3000"/>
<circle cx="113.5000" cy="12.0000" r="1.3000"/>
<circle cx="505.0000" cy="31.5000" r="1.3000"/>
<circle cx="505.0000" cy="81.5000" r="1.3000"/>
</g>
</svg>
