0
SECTION
2
HEADER
9
$ACADVER
1
AC1009
9
$INSUNITS
70
4
0
ENDSEC
0
SECTION
2
TABLES
0
TABLE
2
LAYER
70
4
0
LAYER
2
CUT
70
0
62
7
6
CONTINUOUS
0
LAYER
2
DRILL
70
0
62
1
6
CONTINUOUS
0
LAYER
2
ENGRAVE
70
0
62
5
6
CONTINUOUS
0
LAYER
2
COUNTERSINK
70
0
62
3
6
CONTINUOUS
0
ENDTAB
0
ENDSEC
0
SECTION
2
ENTITIES
0
POLYLINE
8
CUT
66
1
10
0
20
0
30
0
70
1
0
VERTEX
8
CUT
10
509.5230
20
0.0228
30
0
0
VERTEX
8
CUT
10
510.0420
20
0.0912
30
0
0
VERTEX
8
CUT
10
510.5530
20
0.2045
30
0
0
VERTEX
8
CUT
10
511.0520
20
0.3618
30
0
0
VERTEX
8
CUT
10
511.5360
20
0.5621
30
0
0
VERTEX
8
CUT
10
512.0000
20
0.8038
30
0
0
VERTEX
8
CUT
10
512.4410
20
1.0851
30
0
0
VERTEX
8
CUT
10
512.8570
20
1.4037
30
0
0
VERTEX
8
CUT
10
513.2430
20
1.7573
30
0
0
VERTEX
8
CUT
10
513.5960
20
2.1433
30
0
0
VERTEX
8
CUT
10
513.9150
20
2.5585
30
0
0
VERTEX
8
CUT
10
514.1960
20
3.0000
30
0
0
VERTEX
8
CUT
10
514.4380
20
3.4643
30
0
0
VERTEX
8
CUT
10
514.6380
20
3.9479
30
0
0
VERTEX
8
CUT
10
514.7960
20
4.4471
30
0
0
VERTEX
8
CUT
10
514.9090
20
4.9581
30
0
0
VERTEX
8
CUT
10
514.9770
20
5.4771
30
0
0
VERTEX
8
CUT
10
515.0000
20
6.0000
30
0
0
VERTEX
8
CUT
10
515.0000
20
112.0000
30
0
0
VERTEX
8
CUT
10
0.0000
20
112.0000
30
0
0
VERTEX
8
CUT
10
0.0000
20
0.0000
30
0
0
VERTEX
8
CUT
10
509.0000
20
0.0000
30
0
0
SEQEND
8
CUT
0
POLYLINE
8
CUT
66
1
10
0
20
0
30
0
70
1
0
VERTEX
8
CUT
10
360.4000
20
25.2000
30
0
0
VERTEX
8
CUT
10
360.4000
20
94.8000
30
0
0
VERTEX
8
CUT
10
369.6000
20
94.8000
30
0
0
VERTEX
8
CUT
10
369.6000
20
25.2000
30
0
0
SEQEND
8
CUT
0
POLYLINE
8
CUT
66
1
10
0
20
0
30
0
70
1
0
VERTEX
8
CUT
10
417.6300
20
73.7662
30
0
0
VERTEX
8
CUT
10
417.2620
20
73.8145
30
0
0
VERTEX
8
CUT
10
416.9000
20
73.8948
30
0
0
VERTEX
8
CUT
10
416.5460
20
74.0063
30
0
0
VERTEX
8
CUT
10
416.2040
20
74.1482
30
0
0
VERTEX
8
CUT
10
415.8750
20
74.3194
30
0
0
VERTEX
8
CUT
10
415.5620
20
74.5186
30
0
0
VERTEX
8
CUT
10
415.2680
20
74.7444
30
0
0
VERTEX
8
CUT
10
414.9950
20
74.9948
30
0
0
VERTEX
8
CUT
10
414.7440
20
75.2680
30
0
0
VERTEX
8
CUT
10
414.5190
20
75.5623
30
0
0
VERTEX
8
CUT
10
414.3190
20
75.8750
30
0
0
VERTEX
8
CUT
10
414.1480
20
76.2038
30
0
0
VERTEX
8
CUT
10
414.0060
20
76.5464
30
0
0
VERTEX
8
CUT
10
413.8950
20
76.9001
30
0
0
VERTEX
8
CUT
10
413.8150
20
77.2622
30
0
0
VERTEX
8
CUT
10
413.7660
20
77.6295
30
0
0
VERTEX
8
CUT
10
413.7500
20
78.0000
30
0
0
VERTEX
8
CUT
10
413.7660
20
78.3705
30
0
0
VERTEX
8
CUT
10
413.8150
20
78.7378
30
0
0
VERTEX
8
CUT
10
413.8950
20
79.0999
30
0
0
VERTEX
8
CUT
10
414.0060
20
79.4536
30
0
0
VERTEX
8
CUT
10
414.1480
20
79.7962
30
0
0
VERTEX
8
CUT
10
414.3200
20
80.1252
30
0
0
VERTEX
8
CUT
10
414.5190
20
80.4376
30
0
0
VERTEX
8
CUT
10
414.7440
20
80.7319
30
0
0
VERTEX
8
CUT
10
414.9950
20
81.0052
30
0
0
VERTEX
8
CUT
10
415.2680
20
81.2556
30
0
0
VERTEX
8
CUT
10
415.5620
20
81.4814
30
0
0
VERTEX
8
CUT
10
415.8750
20
81.6806
30
0
0
VERTEX
8
CUT
10
416.2040
20
81.8518
30
0
0
VERTEX
8
CUT
10
416.5460
20
81.9937
30
0
0
VERTEX
8
CUT
10
416.9000
20
82.1052
30
0
0
VERTEX
8
CUT
10
417.2620
20
82.1855
30
0
0
VERTEX
8
CUT
10
417.6300
20
82.2338
30
0
0
VERTEX
8
CUT
10
418.0000
20
82.2500
30
0
0
VERTEX
8
CUT
10
418.3700
20
82.2338
30
0
0
VERTEX
8
CUT
10
418.7380
20
82.1855
30
0
0
VERTEX
8
CUT
10
419.1000
20
82.1052
30
0
0
VERTEX
8
CUT
10
419.4540
20
81.9937
30
0
0
VERTEX
8
CUT
10
419.7960
20
81.8518
30
0
0
VERTEX
8
CUT
10
420.1250
20
81.6805
30
0
0
VERTEX
8
CUT
10
420.4380
20
81.4814
30
0
0
VERTEX
8
CUT
10
420.7320
20
81.2556
30
0
0
VERTEX
8
CUT
10
421.0050
20
81.0052
30
0
0
VERTEX
8
CUT
10
421.2560
20
80.7319
30
0
0
VERTEX
8
CUT
10
421.4810
20
80.4376
30
0
0
VERTEX
8
CUT
10
421.6800
20
80.1252
30
0
0
VERTEX
8
CUT
10
421.8520
20
79.7962
30
0
0
VERTEX
8
CUT
10
421.9940
20
79.4536
30
0
0
VERTEX
8
CUT
10
422.1050
20
79.0999
30
0
0
VERTEX
8
CUT
10
422.1850
20
78.7378
30
0
0
VERTEX
8
CUT
10
422.2340
20
78.3705
30
0
0
VERTEX
8
CUT
10
422.2500
20
78.0000
30
0
0
VERTEX
8
CUT
10
422.2340
20
77.6295
30
0
0
VERTEX
8
CUT
10
422.1850
20
77.2622
30
0
0
VERTEX
8
CUT
10
422.1050
20
76.9001
30
0
0
VERTEX
8
CUT
10
421.9940
20
76.5464
30
0
0
VERTEX
8
CUT
10
421.8520
20
76.2038
30
0
0
VERTEX
8
CUT
10
421.6810
20
75.8750
30
0
0
VERTEX
8
CUT
10
421.4810
20
75.5623
30
0
0
VERTEX
8
CUT
10
421.2560
20
75.2680
30
0
0
VERTEX
8
CUT
10
421.0050
20
74.9948
30
0
0
VERTEX
8
CUT
10
420.7320
20
74.7444
30
0
0
VERTEX
8
CUT
10
420.4380
20
74.5186
30
0
0
VERTEX
8
CUT
10
420.1250
20
74.3195
30
0
0
VERTEX
8
CUT
10
419.7960
20
74.1482
30
0
0
VERTEX
8
CUT
10
419.4540
20
74.0063
30
0
0
VERTEX
8
CUT
10
419.1000
20
73.8948
30
0
0
VERTEX
8
CUT
10
418.7380
20
73.8145
30
0
0
VERTEX
8
CUT
10
418.3700
20
73.7662
30
0
0
VERTEX
8
CUT
10
418.0000
20
73.7500
30
0
0
SEQEND
8
CUT
0
POLYLINE
8
CUT
66
1
10
0
20
0
30
0
70
1
0
VERTEX
8
CUT
10
82.6295
20
45.7662
30
0
0
VERTEX
8
CUT
10
82.2622
20
45.8145
30
0
0
VERTEX
8
CUT
10
81.9001
20
45.8948
30
0
0
VERTEX
8
CUT
10
81.5464
20
46.0063
30
0
0
VERTEX
8
CUT
10
81.2038
20
46.1482
30
0
0
VERTEX
8
CUT
10
80.8750
20
46.3194
30
0
0
VERTEX
8
CUT
10
80.5623
20
46.5186
30
0
0
VERTEX
8
CUT
10
80.2680
20
46.7444
30
0
0
VERTEX
8
CUT
10
79.9948
20
46.9948
30
0
0
VERTEX
8
CUT
10
79.7444
20
47.2680
30
0
0
VERTEX
8
CUT
10
79.5186
20
47.5623
30
0
0
VERTEX
8
CUT
10
79.3194
20
47.8750
30
0
0
VERTEX
8
CUT
10
79.1482
20
48.2038
30
0
0
VERTEX
8
CUT
10
79.0063
20
48.5464
30
0
0
VERTEX
8
CUT
10
78.8948
20
48.9001
30
0
0
VERTEX
8
CUT
10
78.8145
20
49.2622
30
0
0
VERTEX
8
CUT
10
78.7662
20
49.6295
30
0
0
VERTEX
8
CUT
10
78.7500
20
50.0000
30
0
0
VERTEX
8
CUT
10
78.7662
20
50.3705
30
0
0
VERTEX
8
CUT
10
78.8145
20
50.7378
30
0
0
VERTEX
8
CUT
10
78.8948
20
51.0999
30
0
0
VERTEX
8
CUT
10
79.0063
20
51.4536
30
0
0
VERTEX
8
CUT
10
79.1482
20
51.7962
30
0
0
VERTEX
8
CUT
10
79.3195
20
52.1252
30
0
0
VERTEX
8
CUT
10
79.5186
20
52.4376
30
0
0
VERTEX
8
CUT
10
79.7444
20
52.7319
30
0
0
VERTEX
8
CUT
10
79.9948
20
53.0052
30
0
0
VERTEX
8
CUT
10
80.2680
20
53.2556
30
0
0
VERTEX
8
CUT
10
80.5623
20
53.4814
30
0
0
VERTEX
8
CUT
10
80.8750
20
53.6806
30
0
0
VERTEX
8
CUT
10
81.2038
20
53.8518
30
0
0
VERTEX
8
CUT
10
81.5464
20
53.9937
30
0
0
VERTEX
8
CUT
10
81.9001
20
54.1052
30
0
0
VERTEX
8
CUT
10
82.2622
20
54.1855
30
0
0
VERTEX
8
CUT
10
82.6295
20
54.2338
30
0
0
VERTEX
8
CUT
10
83.0000
20
54.2500
30
0
0
VERTEX
8
CUT
10
83.3705
20
54.2338
30
0
0
VERTEX
8
CUT
10
83.7378
20
54.1855
30
0
0
VERTEX
8
CUT
10
84.0999
20
54.1052
30
0
0
VERTEX
8
CUT
10
84.4536
20
53.9937
30
0
0
VERTEX
8
CUT
10
84.7962
20
53.8518
30
0
0
VERTEX
8
CUT
10
85.1252
20
53.6805
30
0
0
VERTEX
8
CUT
10
85.4376
20
53.4814
30
0
0
VERTEX
8
CUT
10
85.7319
20
53.2556
30
0
0
VERTEX
8
CUT
10
86.0052
20
53.0052
30
0
0
VERTEX
8
CUT
10
86.2556
20
52.7319
30
0
0
VERTEX
8
CUT
10
86.4814
20
52.4376
30
0
0
VERTEX
8
CUT
10
86.6805
20
52.1252
30
0
0
VERTEX
8
CUT
10
86.8518
20
51.7962
30
0
0
VERTEX
8
CUT
10
86.9937
20
51.4536
30
0
0
VERTEX
8
CUT
10
87.1052
20
51.0999
30
0
0
VERTEX
8
CUT
10
87.1855
20
50.7378
30
0
0
VERTEX
8
CUT
10
87.2338
20
50.3705
30
0
0
VERTEX
8
CUT
10
87.2500
20
50.0000
30
0
0
VERTEX
8
CUT
10
87.2338
20
49.6295
30
0
0
VERTEX
8
CUT
10
87.1855
20
49.2622
30
0
0
VERTEX
8
CUT
10
87.1052
20
48.9001
30
0
0
VERTEX
8
CUT
10
86.9937
20
48.5464
30
0
0
VERTEX
8
CUT
10
86.8518
20
48.2038
30
0
0
VERTEX
8
CUT
10
86.6806
20
47.8750
30
0
0
VERTEX
8
CUT
10
86.4814
20
47.5623
30
0
0
VERTEX
8
CUT
10
86.2556
20
47.2680
30
0
0
VERTEX
8
CUT
10
86.0052
20
46.9948
30
0
0
VERTEX
8
CUT
10
85.7319
20
46.7444
30
0
0
VERTEX
8
CUT
10
85.4376
20
46.5186
30
0
0
VERTEX
8
CUT
10
85.1252
20
46.3195
30
0
0
VERTEX
8
CUT
10
84.7962
20
46.1482
30
0
0
VERTEX
8
CUT
10
84.4536
20
46.0063
30
0
0
VERTEX
8
CUT
10
84.0999
20
45.8948
30
0
0
VERTEX
8
CUT
10
83.7378
20
45.8145
30
0
0
VERTEX
8
CUT
10
83.3705
20
45.7662
30
0
0
VERTEX
8
CUT
10
83.0000
20
45.7500
30
0
0
SEQEND
8
CUT
0
POLYLINE
8
CUT
66
1
10
0
20
0
30
0
70
1
0
VERTEX
8
CUT
10
181.3900
20
31.0267
30
0
0
VERTEX
8
CUT
10
180.7850
20
31.1063
30
0
0
VERTEX
8
CUT
10
180.1880
20
31.2386
30
0
0
VERTEX
8
CUT
10
179.6060
20
31.4222
30
0
0
VERTEX
8
CUT
10
179.0420
20
31.6558
30
0
0
VERTEX
8
CUT
10
178.5000
20
31.9379
30
0
0
VERTEX
8
CUT
10
177.9850
20
32.2659
30
0
0
VERTEX
8
CUT
10
177.5000
20
32.6378
30
0
0
VERTEX
8
CUT
10
177.0500
20
33.0503
30
0
0
VERTEX
8
CUT
10
176.6380
20
33.5004
30
0
0
VERTEX
8
CUT
10
176.2660
20
33.9850
30
0
0
VERTEX
8
CUT
10
175.9380
20
34.5000
30
0
0
VERTEX
8
CUT
10
175.6560
20
35.0418
30
0
0
VERTEX
8
CUT
10
175.4220
20
35.6058
30
0
0
VERTEX
8
CUT
10
175.2390
20
36.1882
30
0
0
VERTEX
8
CUT
10
175.1060
20
36.7845
30
0
0
VERTEX
8
CUT
10
175.0270
20
37.3899
30
0
0
VERTEX
8
CUT
10
175.0000
20
38.0000
30
0
0
VERTEX
8
CUT
10
175.0270
20
38.6101
30
0
0
VERTEX
8
CUT
10
175.1060
20
39.2155
30
0
0
VERTEX
8
CUT
10
175.2390
20
39.8118
30
0
0
VERTEX
8
CUT
10
175.4220
20
40.3942
30
0
0
VERTEX
8
CUT
10
175.6560
20
40.9582
30
0
0
VERTEX
8
CUT
10
175.9380
20
41.5000
30
0
0
VERTEX
8
CUT
10
176.2660
20
42.0150
30
0
0
VERTEX
8
CUT
10
176.6380
20
42.4996
30
0
0
VERTEX
8
CUT
10
177.0500
20
42.9497
30
0
0
VERTEX
8
CUT
10
177.5000
20
43.3622
30
0
0
VERTEX
8
CUT
10
177.9850
20
43.7341
30
0
0
VERTEX
8
CUT
10
178.5000
20
44.0621
30
0
0
VERTEX
8
CUT
10
179.0420
20
44.3442
30
0
0
VERTEX
8
CUT
10
179.6060
20
44.5778
30
0
0
VERTEX
8
CUT
10
180.1880
20
44.7614
30
0
0
VERTEX
8
CUT
10
180.7850
20
44.8937
30
0
0
VERTEX
8
CUT
10
181.3900
20
44.9733
30
0
0
VERTEX
8
CUT
10
182.0000
20
45.0000
30
0
0
VERTEX
8
CUT
10
182.6100
20
44.9733
30
0
0
VERTEX
8
CUT
10
183.2150
20
44.8937
30
0
0
VERTEX
8
CUT
10
183.8120
20
44.7614
30
0
0
VERTEX
8
CUT
10
184.3940
20
44.5778
30
0
0
VERTEX
8
CUT
10
184.9580
20
44.3442
30
0
0
VERTEX
8
CUT
10
185.5000
20
44.0621
30
0
0
VERTEX
8
CUT
10
186.0150
20
43.7341
30
0
0
VERTEX
8
CUT
10
186.5000
20
43.3622
30
0
0
VERTEX
8
CUT
10
186.9500
20
42.9497
30
0
0
VERTEX
8
CUT
10
187.3620
20
42.4996
30
0
0
VERTEX
8
CUT
10
187.7340
20
42.0150
30
0
0
VERTEX
8
CUT
10
188.0620
20
41.5000
30
0
0
VERTEX
8
CUT
10
188.3440
20
40.9582
30
0
0
VERTEX
8
CUT
10
188.5780
20
40.3942
30
0
0
VERTEX
8
CUT
10
188.7610
20
39.8118
30
0
0
VERTEX
8
CUT
10
188.8940
20
39.2155
30
0
0
VERTEX
8
CUT
10
188.9730
20
38.6101
30
0
0
VERTEX
8
CUT
10
189.0000
20
38.0000
30
0
0
VERTEX
8
CUT
10
188.9730
20
37.3899
30
0
0
VERTEX
8
CUT
10
188.8940
20
36.7845
30
0
0
VERTEX
8
CUT
10
188.7610
20
36.1882
30
0
0
VERTEX
8
CUT
10
188.5780
20
35.6058
30
0
0
VERTEX
8
CUT
10
188.3440
20
35.0418
30
0
0
VERTEX
8
CUT
10
188.0620
20
34.5000
30
0
0
VERTEX
8
CUT
10
187.7340
20
33.9850
30
0
0
VERTEX
8
CUT
10
187.3620
20
33.5004
30
0
0
VERTEX
8
CUT
10
186.9500
20
33.0503
30
0
0
VERTEX
8
CUT
10
186.5000
20
32.6378
30
0
0
VERTEX
8
CUT
10
186.0150
20
32.2659
30
0
0
VERTEX
8
CUT
10
185.5000
20
31.9379
30
0
0
VERTEX
8
CUT
10
184.9580
20
31.6558
30
0
0
VERTEX
8
CUT
10
184.3940
20
31.4222
30
0
0
VERTEX
8
CUT
10
183.8120
20
31.2386
30
0
0
VERTEX
8
CUT
10
183.2150
20
31.1063
30
0
0
VERTEX
8
CUT
10
182.6100
20
31.0267
30
0
0
VERTEX
8
CUT
10
182.0000
20
31.0000
30
0
0
SEQEND
8
CUT
0
POLYLINE
8
CUT
66
1
10
0
20
0
30
0
70
1
0
VERTEX
8
CUT
10
250.3900
20
31.0267
30
0
0
VERTEX
8
CUT
10
249.7850
20
31.1063
30
0
0
VERTEX
8
CUT
10
249.1880
20
31.2386
30
0
0
VERTEX
8
CUT
10
248.6060
20
31.4222
30
0
0
VERTEX
8
CUT
10
248.0420
20
31.6558
30
0
0
VERTEX
8
CUT
10
247.5000
20
31.9379
30
0
0
VERTEX
8
CUT
10
246.9850
20
32.2659
30
0
0
VERTEX
8
CUT
10
246.5000
20
32.6378
30
0
0
VERTEX
8
CUT
10
246.0500
20
33.0503
30
0
0
VERTEX
8
CUT
10
245.6380
20
33.5004
30
0
0
VERTEX
8
CUT
10
245.2660
20
33.9850
30
0
0
VERTEX
8
CUT
10
244.9380
20
34.5000
30
0
0
VERTEX
8
CUT
10
244.6560
20
35.0418
30
0
0
VERTEX
8
CUT
10
244.4220
20
35.6058
30
0
0
VERTEX
8
CUT
10
244.2390
20
36.1882
30
0
0
VERTEX
8
CUT
10
244.1060
20
36.7845
30
0
0
VERTEX
8
CUT
10
244.0270
20
37.3899
30
0
0
VERTEX
8
CUT
10
244.0000
20
38.0000
30
0
0
VERTEX
8
CUT
10
244.0270
20
38.6101
30
0
0
VERTEX
8
CUT
10
244.1060
20
39.2155
30
0
0
VERTEX
8
CUT
10
244.2390
20
39.8118
30
0
0
VERTEX
8
CUT
10
244.4220
20
40.3942
30
0
0
VERTEX
8
CUT
10
244.6560
20
40.9582
30
0
0
VERTEX
8
CUT
10
244.9380
20
41.5000
30
0
0
VERTEX
8
CUT
10
245.2660
20
42.0150
30
0
0
VERTEX
8
CUT
10
245.6380
20
42.4996
30
0
0
VERTEX
8
CUT
10
246.0500
20
42.9497
30
0
0
VERTEX
8
CUT
10
246.5000
20
43.3622
30
0
0
VERTEX
8
CUT
10
246.9850
20
43.7341
30
0
0
VERTEX
8
CUT
10
247.5000
20
44.0621
30
0
0
VERTEX
8
CUT
10
248.0420
20
44.3442
30
0
0
VERTEX
8
CUT
10
248.6060
20
44.5778
30
0
0
VERTEX
8
CUT
10
249.1880
20
44.7614
30
0
0
VERTEX
8
CUT
10
249.7850
20
44.8937
30
0
0
VERTEX
8
CUT
10
250.3900
20
44.9733
30
0
0
VERTEX
8
CUT
10
251.0000
20
45.0000
30
0
0
VERTEX
8
CUT
10
251.6100
20
44.9733
30
0
0
VERTEX
8
CUT
10
252.2150
20
44.8937
30
0
0
VERTEX
8
CUT
10
252.8120
20
44.7614
30
0
0
VERTEX
8
CUT
10
253.3940
20
44.5778
30
0
0
VERTEX
8
CUT
10
253.9580
20
44.3442
30
0
0
VERTEX
8
CUT
10
254.5000
20
44.0621
30
0
0
VERTEX
8
CUT
10
255.0150
20
43.7341
30
0
0
VERTEX
8
CUT
10
255.5000
20
43.3622
30
0
0
VERTEX
8
CUT
10
255.9500
20
42.9497
30
0
0
VERTEX
8
CUT
10
256.3620
20
42.4996
30
0
0
VERTEX
8
CUT
10
256.7340
20
42.0150
30
0
0
VERTEX
8
CUT
10
257.0620
20
41.5000
30
0
0
VERTEX
8
CUT
10
257.3440
20
40.9582
30
0
0
VERTEX
8
CUT
10
257.5780
20
40.3942
30
0
0
VERTEX
8
CUT
10
257.7610
20
39.8118
30
0
0
VERTEX
8
CUT
10
257.8940
20
39.2155
30
0
0
VERTEX
8
CUT
10
257.9730
20
38.6101
30
0
0
VERTEX
8
CUT
10
258.0000
20
38.0000
30
0
0
VERTEX
8
CUT
10
257.9730
20
37.3899
30
0
0
VERTEX
8
CUT
10
257.8940
20
36.7845
30
0
0
VERTEX
8
CUT
10
257.7610
20
36.1882
30
0
0
VERTEX
8
CUT
10
257.5780
20
35.6058
30
0
0
VERTEX
8
CUT
10
257.3440
20
35.0418
30
0
0
VERTEX
8
CUT
10
257.0620
20
34.5000
30
0
0
VERTEX
8
CUT
10
256.7340
20
33.9850
30
0
0
VERTEX
8
CUT
10
256.3620
20
33.5004
30
0
0
VERTEX
8
CUT
10
255.9500
20
33.0503
30
0
0
VERTEX
8
CUT
10
255.5000
20
32.6378
30
0
0
VERTEX
8
CUT
10
255.0150
20
32.2659
30
0
0
VERTEX
8
CUT
10
254.5000
20
31.9379
30
0
0
VERTEX
8
CUT
10
253.9580
20
31.6558
30
0
0
VERTEX
8
CUT
10
253.3940
20
31.4222
30
0
0
VERTEX
8
CUT
10
252.8120
20
31.2386
30
0
0
VERTEX
8
CUT
10
252.2150
20
31.1063
30
0
0
VERTEX
8
CUT
10
251.6100
20
31.0267
30
0
0
VERTEX
8
CUT
10
251.0000
20
31.0000
30
0
0
SEQEND
8
CUT
0
POLYLINE
8
CUT
66
1
10
0
20
0
30
0
70
1
0
VERTEX
8
CUT
10
417.6300
20
29.7662
30
0
0
VERTEX
8
CUT
10
417.2620
20
29.8145
30
0
0
VERTEX
8
CUT
10
416.9000
20
29.8948
30
0
0
VERTEX
8
CUT
10
416.5460
20
30.0063
30
0
0
VERTEX
8
CUT
10
416.2040
20
30.1482
30
0
0
VERTEX
8
CUT
10
415.8750
20
30.3194
30
0
0
VERTEX
8
CUT
10
415.5620
20
30.5186
30
0
0
VERTEX
8
CUT
10
415.2680
20
30.7444
30
0
0
VERTEX
8
CUT
10
414.9950
20
30.9948
30
0
0
VERTEX
8
CUT
10
414.7440
20
31.2680
30
0
0
VERTEX
8
CUT
10
414.5190
20
31.5623
30
0
0
VERTEX
8
CUT
10
414.3190
20
31.8750
30
0
0
VERTEX
8
CUT
10
414.1480
20
32.2038
30
0
0
VERTEX
8
CUT
10
414.0060
20
32.5464
30
0
0
VERTEX
8
CUT
10
413.8950
20
32.9001
30
0
0
VERTEX
8
CUT
10
413.8150
20
33.2622
30
0
0
VERTEX
8
CUT
10
413.7660
20
33.6295
30
0
0
VERTEX
8
CUT
10
413.7500
20
34.0000
30
0
0
VERTEX
8
CUT
10
413.7660
20
34.3705
30
0
0
VERTEX
8
CUT
10
413.8150
20
34.7378
30
0
0
VERTEX
8
CUT
10
413.8950
20
35.0999
30
0
0
VERTEX
8
CUT
10
414.0060
20
35.4536
30
0
0
VERTEX
8
CUT
10
414.1480
20
35.7962
30
0
0
VERTEX
8
CUT
10
414.3200
20
36.1252
30
0
0
VERTEX
8
CUT
10
414.5190
20
36.4376
30
0
0
VERTEX
8
CUT
10
414.7440
20
36.7319
30
0
0
VERTEX
8
CUT
10
414.9950
20
37.0052
30
0
0
VERTEX
8
CUT
10
415.2680
20
37.2556
30
0
0
VERTEX
8
CUT
10
415.5620
20
37.4814
30
0
0
VERTEX
8
CUT
10
415.8750
20
37.6806
30
0
0
VERTEX
8
CUT
10
416.2040
20
37.8518
30
0
0
VERTEX
8
CUT
10
416.5460
20
37.9937
30
0
0
VERTEX
8
CUT
10
416.9000
20
38.1052
30
0
0
VERTEX
8
CUT
10
417.2620
20
38.1855
30
0
0
VERTEX
8
CUT
10
417.6300
20
38.2338
30
0
0
VERTEX
8
CUT
10
418.0000
20
38.2500
30
0
0
VERTEX
8
CUT
10
418.3700
20
38.2338
30
0
0
VERTEX
8
CUT
10
418.7380
20
38.1855
30
0
0
VERTEX
8
CUT
10
419.1000
20
38.1052
30
0
0
VERTEX
8
CUT
10
419.4540
20
37.9937
30
0
0
VERTEX
8
CUT
10
419.7960
20
37.8518
30
0
0
VERTEX
8
CUT
10
420.1250
20
37.6805
30
0
0
VERTEX
8
CUT
10
420.4380
20
37.4814
30
0
0
VERTEX
8
CUT
10
420.7320
20
37.2556
30
0
0
VERTEX
8
CUT
10
421.0050
20
37.0052
30
0
0
VERTEX
8
CUT
10
421.2560
20
36.7319
30
0
0
VERTEX
8
CUT
10
421.4810
20
36.4376
30
0
0
VERTEX
8
CUT
10
421.6800
20
36.1252
30
0
0
VERTEX
8
CUT
10
421.8520
20
35.7962
30
0
0
VERTEX
8
CUT
10
421.9940
20
35.4536
30
0
0
VERTEX
8
CUT
10
422.1050
20
35.0999
30
0
0
VERTEX
8
CUT
10
422.1850
20
34.7378
30
0
0
VERTEX
8
CUT
10
422.2340
20
34.3705
30
0
0
VERTEX
8
CUT
10
422.2500
20
34.0000
30
0
0
VERTEX
8
CUT
10
422.2340
20
33.6295
30
0
0
VERTEX
8
CUT
10
422.1850
20
33.2622
30
0
0
VERTEX
8
CUT
10
422.1050
20
32.9001
30
0
0
VERTEX
8
CUT
10
421.9940
20
32.5464
30
0
0
VERTEX
8
CUT
10
421.8520
20
32.2038
30
0
0
VERTEX
8
CUT
10
421.6810
20
31.8750
30
0
0
VERTEX
8
CUT
10
421.4810
20
31.5623
30
0
0
VERTEX
8
CUT
10
421.2560
20
31.2680
30
0
0
VERTEX
8
CUT
10
421.0050
20
30.9948
30
0
0
VERTEX
8
CUT
10
420.7320
20
30.7444
30
0
0
VERTEX
8
CUT
10
420.4380
20
30.5186
30
0
0
VERTEX
8
CUT
10
420.1250
20
30.3195
30
0
0
VERTEX
8
CUT
10
419.7960
20
30.1482
30
0
0
VERTEX
8
CUT
10
419.4540
20
30.0063
30
0
0
VERTEX
8
CUT
10
419.1000
20
29.8948
30
0
0
VERTEX
8
CUT
10
418.7380
20
29.8145
30
0
0
VERTEX
8
CUT
10
418.3700
20
29.7662
30
0
0
VERTEX
8
CUT
10
418.0000
20
29.7500
30
0
0
SEQEND
8
CUT
0
CIRCLE
8
DRILL
10
384.0000
20
106.0000
30
0
40
1.7000
0
CIRCLE
8
DRILL
10
346.0000
20
106.0000
30
0
40
1.7000
0
CIRCLE
8
DRILL
10
168.0000
20
52.0000
30
0
40
1.7000
0
CIRCLE
8
DRILL
10
196.0000
20
52.0000
30
0
40
1.7000
0
CIRCLE
8
DRILL
10
237.0000
20
52.0000
30
0
40
1.7000
0
CIRCLE
8
DRILL
10
265.0000
20
52.0000
30
0
40
1.7000
0
CIRCLE
8
DRILL
10
168.0000
20
24.0000
30
0
40
1.7000
0
CIRCLE
8
DRILL
10
196.0000
20
24.0000
30
0
40
1.7000
0
CIRCLE
8
DRILL
10
265.0000
20
24.0000
30
0
40
1.7000
0
CIRCLE
8
DRILL
10
237.0000
20
24.0000
30
0
40
1.7000
0
CIRCLE
8
DRILL
10
384.0000
20
14.0000
30
0
40
1.7000
0
CIRCLE
8
DRILL
10
346.0000
20
14.0000
30
0
40
1.7000
0
CIRCLE
8
DRILL
10
505.0000
20
8.0000
30
0
40
2.2500
0
CIRCLE
8
DRILL
10
280.0000
20
8.0000
30
0
40
2.2500
0
POLYLINE
8
ENGRAVE
66
1
10
0
20
0
30
0
70
1
0
VERTEX
8
ENGRAVE
10
369.1720
20
100.0310
30
0
0
VERTEX
8
ENGRAVE
10
370.0260
20
100.0310
30
0
0
VERTEX
8
ENGRAVE
10
370.1030
20
100.0330
30
0
0
VERTEX
8
ENGRAVE
10
370.1770
20
100.0370
30
0
0
VERTEX
8
ENGRAVE
10
370.2500
20
100.0440
30
0
0
VERTEX
8
ENGRAVE
10
370.3200
20
100.0540
30
0
0
VERTEX
8
ENGRAVE
10
370.3880
20
100.0670
30
0
0
VERTEX
8
ENGRAVE
10
370.4540
20
100.0830
30
0
0
VERTEX
8
ENGRAVE
10
370.5180
20
100.1010
30
0
0
VERTEX
8
ENGRAVE
10
370.5790
20
100.1230
30
0
0
VERTEX
8
ENGRAVE
10
370.6390
20
100.1470
30
0
0
VERTEX
8
ENGRAVE
10
370.6970
20
100.1740
30
0
0
VERTEX
8
ENGRAVE
10
370.7520
20
100.2040
30
0
0
VERTEX
8
ENGRAVE
10
370.8040
20
100.2360
30
0
0
VERTEX
8
ENGRAVE
10
370.8540
20
100.2700
30
0
0
VERTEX
8
ENGRAVE
10
370.9010
20
100.3070
30
0
0
VERTEX
8
ENGRAVE
10
370.9460
20
100.3460
30
0
0
VERTEX
8
ENGRAVE
10
370.9880
20
100.3880
30
0
0
VERTEX
8
ENGRAVE
10
371.0270
20
100.4320
30
0
0
VERTEX
8
ENGRAVE
10
371.0640
20
100.4780
30
0
0
VERTEX
8
ENGRAVE
10
371.0980
20
100.5270
30
0
0
VERTEX
8
ENGRAVE
10
371.1300
20
100.5780
30
0
0
VERTEX
8
ENGRAVE
10
371.1590
20
100.6310
30
0
0
VERTEX
8
ENGRAVE
10
371.1840
20
100.6850
30
0
0
VERTEX
8
ENGRAVE
10
371.2070
20
100.7410
30
0
0
VERTEX
8
ENGRAVE
10
371.2270
20
100.7980
30
0
0
VERTEX
8
ENGRAVE
10
371.2430
20
100.8570
30
0
0
VERTEX
8
ENGRAVE
10
371.2570
20
100.9170
30
0
0
VERTEX
8
ENGRAVE
10
371.2680
20
100.9780
30
0
0
VERTEX
8
ENGRAVE
10
371.2750
20
101.0410
30
0
0
VERTEX
8
ENGRAVE
10
371.2800
20
101.1060
30
0
0
VERTEX
8
ENGRAVE
10
371.2810
20
101.1710
30
0
0
VERTEX
8
ENGRAVE
10
371.2780
20
101.2730
30
0
0
VERTEX
8
ENGRAVE
10
371.2680
20
101.3700
30
0
0
VERTEX
8
ENGRAVE
10
371.2510
20
101.4620
30
0
0
VERTEX
8
ENGRAVE
10
371.2280
20
101.5500
30
0
0
VERTEX
8
ENGRAVE
10
371.1980
20
101.6320
30
0
0
VERTEX
8
ENGRAVE
10
371.1610
20
101.7100
30
0
0
VERTEX
8
ENGRAVE
10
371.1180
20
101.7840
30
0
0
VERTEX
8
ENGRAVE
10
371.0680
20
101.8530
30
0
0
VERTEX
8
ENGRAVE
10
371.0110
20
101.9160
30
0
0
VERTEX
8
ENGRAVE
10
370.9480
20
101.9760
30
0
0
VERTEX
8
ENGRAVE
10
370.8780
20
102.0300
30
0
0
VERTEX
8
ENGRAVE
10
370.8030
20
102.0780
30
0
0
VERTEX
8
ENGRAVE
10
370.7220
20
102.1210
30
0
0
VERTEX
8
ENGRAVE
10
370.6360
20
102.1580
30
0
0
VERTEX
8
ENGRAVE
10
370.5440
20
102.1890
30
0
0
VERTEX
8
ENGRAVE
10
370.4460
20
102.2150
30
0
0
VERTEX
8
ENGRAVE
10
370.3420
20
102.2340
30
0
0
VERTEX
8
ENGRAVE
10
370.2330
20
102.2490
30
0
0
VERTEX
8
ENGRAVE
10
370.1180
20
102.2570
30
0
0
VERTEX
8
ENGRAVE
10
369.9970
20
102.2600
30
0
0
VERTEX
8
ENGRAVE
10
368.4520
20
102.2600
30
0
0
VERTEX
8
ENGRAVE
10
368.4520
20
98.8204
30
0
0
VERTEX
8
ENGRAVE
10
369.1720
20
98.8204
30
0
0
SEQEND
8
ENGRAVE
0
POLYLINE
8
ENGRAVE
66
1
10
0
20
0
30
0
70
1
0
VERTEX
8
ENGRAVE
10
369.1720
20
100.5850
30
0
0
VERTEX
8
ENGRAVE
10
369.1720
20
101.7010
30
0
0
VERTEX
8
ENGRAVE
10
369.9170
20
101.7010
30
0
0
VERTEX
8
ENGRAVE
10
370.0380
20
101.6960
30
0
0
VERTEX
8
ENGRAVE
10
370.1470
20
101.6790
30
0
0
VERTEX
8
ENGRAVE
10
370.2430
20
101.6520
30
0
0
VERTEX
8
ENGRAVE
10
370.3260
20
101.6140
30
0
0
VERTEX
8
ENGRAVE
10
370.3960
20
101.5660
30
0
0
VERTEX
8
ENGRAVE
10
370.4540
20
101.5060
30
0
0
VERTEX
8
ENGRAVE
10
370.4990
20
101.4350
30
0
0
VERTEX
8
ENGRAVE
10
370.5310
20
101.3540
30
0
0
VERTEX
8
ENGRAVE
10
370.5500
20
101.2620
30
0
0
VERTEX
8
ENGRAVE
10
370.5560
20
101.1590
30
0
0
VERTEX
8
ENGRAVE
10
370.5550
20
101.1050
30
0
0
VERTEX
8
ENGRAVE
10
370.5500
20
101.0530
30
0
0
VERTEX
8
ENGRAVE
10
370.5420
20
101.0040
30
0
0
VERTEX
8
ENGRAVE
10
370.5300
20
100.9570
30
0
0
VERTEX
8
ENGRAVE
10
370.5160
20
100.9130
30
0
0
VERTEX
8
ENGRAVE
10
370.4980
20
100.8720
30
0
0
VERTEX
8
ENGRAVE
10
370.4770
20
100.8330
30
0
0
VERTEX
8
ENGRAVE
10
370.4530
20
100.7970
30
0
0
VERTEX
8
ENGRAVE
10
370.4260
20
100.7640
30
0
0
VERTEX
8
ENGRAVE
10
370.3950
20
100.7330
30
0
0
VERTEX
8
ENGRAVE
10
370.3610
20
100.7050
30
0
0
VERTEX
8
ENGRAVE
10
370.3250
20
100.6800
30
0
0
VERTEX
8
ENGRAVE
10
370.2860
20
100.6580
30
0
0
VERTEX
8
ENGRAVE
10
370.2440
20
100.6390
30
0
0
VERTEX
8
ENGRAVE
10
370.2000
20
100.6220
30
0
0
VERTEX
8
ENGRAVE
10
370.1520
20
100.6090
30
0
0
VERTEX
8
ENGRAVE
10
370.1020
20
100.5990
30
0
0
VERTEX
8
ENGRAVE
10
370.0500
20
100.5910
30
0
0
VERTEX
8
ENGRAVE
10
369.9940
20
100.5870
30
0
0
VERTEX
8
ENGRAVE
10
369.9360
20
100.5850
30
0
0
SEQEND
8
ENGRAVE
0
POLYLINE
8
ENGRAVE
66
1
10
0
20
0
30
0
70
1
0
VERTEX
8
ENGRAVE
10
359.6800
20
100.0830
30
0
0
VERTEX
8
ENGRAVE
10
361.4410
20
100.0830
30
0
0
VERTEX
8
ENGRAVE
10
361.4410
20
100.6390
30
0
0
VERTEX
8
ENGRAVE
10
359.6800
20
100.6390
30
0
0
VERTEX
8
ENGRAVE
10
359.6800
20
101.7040
30
0
0
VERTEX
8
ENGRAVE
10
361.4970
20
101.7040
30
0
0
VERTEX
8
ENGRAVE
10
361.4970
20
102.2600
30
0
0
VERTEX
8
ENGRAVE
10
358.9600
20
102.2600
30
0
0
VERTEX
8
ENGRAVE
10
358.9600
20
98.8204
30
0
0
VERTEX
8
ENGRAVE
10
359.6800
20
98.8204
30
0
0
SEQEND
8
ENGRAVE
0
POLYLINE
8
ENGRAVE
66
1
10
0
20
0
30
0
70
1
0
VERTEX
8
ENGRAVE
10
364.5090
20
99.3770
30
0
0
VERTEX
8
ENGRAVE
10
362.6630
20
99.3770
30
0
0
VERTEX
8
ENGRAVE
10
362.6630
20
102.2600
30
0
0
VERTEX
8
ENGRAVE
10
361.9430
20
102.2600
30
0
0
VERTEX
8
ENGRAVE
10
361.9430
20
98.8204
30
0
0
VERTEX
8
ENGRAVE
10
364.5090
20
98.8204
30
0
0
SEQEND
8
ENGRAVE
0
POLYLINE
8
ENGRAVE
66
1
10
0
20
0
30
0
70
1
0
VERTEX
8
ENGRAVE
10
365.7410
20
99.6992
30
0
0
VERTEX
8
ENGRAVE
10
367.0520
20
99.6992
30
0
0
VERTEX
8
ENGRAVE
10
367.3570
20
98.8204
30
0
0
VERTEX
8
ENGRAVE
10
368.0700
20
98.8204
30
0
0
VERTEX
8
ENGRAVE
10
366.8200
20
102.2600
30
0
0
VERTEX
8
ENGRAVE
10
365.9700
20
102.2600
30
0
0
VERTEX
8
ENGRAVE
10
364.7160
20
98.8204
30
0
0
VERTEX
8
ENGRAVE
10
365.4360
20
98.8204
30
0
0
SEQEND
8
ENGRAVE
0
POLYLINE
8
ENGRAVE
66
1
10
0
20
0
30
0
70
1
0
VERTEX
8
ENGRAVE
10
365.9020
20
100.2410
30
0
0
VERTEX
8
ENGRAVE
10
365.9760
20
100.4560
30
0
0
VERTEX
8
ENGRAVE
10
366.0420
20
100.6500
30
0
0
VERTEX
8
ENGRAVE
10
366.1020
20
100.8240
30
0
0
VERTEX
8
ENGRAVE
10
366.1540
20
100.9780
30
0
0
VERTEX
8
ENGRAVE
10
366.2000
20
101.1110
30
0
0
VERTEX
8
ENGRAVE
10
366.2380
20
101.2250
30
0
0
VERTEX
8
ENGRAVE
10
366.2700
20
101.3180
30
0
0
VERTEX
8
ENGRAVE
10
366.2940
20
101.3910
30
0
0
VERTEX
8
ENGRAVE
10
366.3120
20
101.4440
30
0
0
VERTEX
8
ENGRAVE
10
366.3220
20
101.4760
30
0
0
VERTEX
8
ENGRAVE
10
366.3290
20
101.4990
30
0
0
VERTEX
8
ENGRAVE
10
366.3350
20
101.5200
30
0
0
VERTEX
8
ENGRAVE
10
366.3480
20
101.5620
30
0
0
VERTEX
8
ENGRAVE
10
366.3590
20
101.6020
30
0
0
VERTEX
8
ENGRAVE
10
366.3650
20
101.6220
30
0
0
VERTEX
8
ENGRAVE
10
366.3760
20
101.6590
30
0
0
VERTEX
8
ENGRAVE
10
366.3810
20
101.6770
30
0
0
VERTEX
8
ENGRAVE
10
366.3950
20
101.7300
30
0
0
VERTEX
8
ENGRAVE
10
366.4460
20
101.5620
30
0
0
VERTEX
8
ENGRAVE
10
366.5510
20
101.2300
30
0
0
VERTEX
8
ENGRAVE
10
366.8910
20
100.2410
30
0
0
SEQEND
8
ENGRAVE
0
POLYLINE
8
ENGRAVE
66
1
10
0
20
0
30
0
70
1
0
VERTEX
8
ENGRAVE
10
411.0560
20
93.7526
30
0
0
VERTEX
8
ENGRAVE
10
411.1320
20
93.7579
30
0
0
VERTEX
8
ENGRAVE
10
411.2050
20
93.7667
30
0
0
VERTEX
8
ENGRAVE
10
411.2760
20
93.7789
30
0
0
VERTEX
8
ENGRAVE
10
411.3450
20
93.7947
30
0
0
VERTEX
8
ENGRAVE
10
411.4120
20
93.8140
30
0
0
VERTEX
8
ENGRAVE
10
411.4760
20
93.8368
30
0
0
VERTEX
8
ENGRAVE
10
411.5380
20
93.8631
30
0
0
VERTEX
8
ENGRAVE
10
411.5980
20
93.8930
30
0
0
VERTEX
8
ENGRAVE
10
411.6560
20
93.9263
30
0
0
VERTEX
8
ENGRAVE
10
411.7110
20
93.9632
30
0
0
VERTEX
8
ENGRAVE
10
411.7640
20
94.0038
30
0
0
VERTEX
8
ENGRAVE
10
411.8140
20
94.0481
30
0
0
VERTEX
8
ENGRAVE
10
411.8610
20
94.0961
30
0
0
VERTEX
8
ENGRAVE
10
411.9050
20
94.1478
30
0
0
VERTEX
8
ENGRAVE
10
411.9460
20
94.2031
30
0
0
VERTEX
8
ENGRAVE
10
411.9850
20
94.2622
30
0
0
VERTEX
8
ENGRAVE
10
412.0210
20
94.3249
30
0
0
VERTEX
8
ENGRAVE
10
412.0550
20
94.3913
30
0
0
VERTEX
8
ENGRAVE
10
412.0850
20
94.4614
30
0
0
VERTEX
8
ENGRAVE
10
411.6320
20
94.6324
30
0
0
VERTEX
8
ENGRAVE
10
411.5930
20
94.5426
30
0
0
VERTEX
8
ENGRAVE
10
411.5470
20
94.4623
30
0
0
VERTEX
8
ENGRAVE
10
411.4960
20
94.3914
30
0
0
VERTEX
8
ENGRAVE
10
411.4400
20
94.3300
30
0
0
VERTEX
8
ENGRAVE
10
411.3770
20
94.2780
30
0
0
VERTEX
8
ENGRAVE
10
411.3090
20
94.2355
30
0
0
VERTEX
8
ENGRAVE
10
411.2350
20
94.2024
30
0
0
VERTEX
8
ENGRAVE
10
411.1550
20
94.1788
30
0
0
VERTEX
8
ENGRAVE
10
411.0690
20
94.1646
30
0
0
VERTEX
8
ENGRAVE
10
410.9780
20
94.1599
30
0
0
VERTEX
8
ENGRAVE
10
410.9090
20
94.1622
30
0
0
VERTEX
8
ENGRAVE
10
410.8430
20
94.1689
30
0
0
VERTEX
8
ENGRAVE
10
410.7800
20
94.1802
30
0
0
VERTEX
8
ENGRAVE
10
410.7210
20
94.1960
30
0
0
VERTEX
8
ENGRAVE
10
410.6650
20
94.2163
30
0
0
VERTEX
8
ENGRAVE
10
410.6130
20
94.2411
30
0
0
VERTEX
8
ENGRAVE
10
410.5640
20
94.2705
30
0
0
VERTEX
8
ENGRAVE
10
410.5180
20
94.3043
30
0
0
VERTEX
8
ENGRAVE
10
410.4750
20
94.3427
30
0
0
VERTEX
8
ENGRAVE
10
410.4360
20
94.3856
30
0
0
VERTEX
8
ENGRAVE
10
410.4000
20
94.4328
30
0
0
VERTEX
8
ENGRAVE
10
410.3680
20
94.4840
30
0
0
VERTEX
8
ENGRAVE
10
410.3400
20
94.5392
30
0
0
VERTEX
8
ENGRAVE
10
410.3160
20
94.5986
30
0
0
VERTEX
8
ENGRAVE
10
410.2950
20
94.6620
30
0
0
VERTEX
8
ENGRAVE
10
410.2780
20
94.7294
30
0
0
VERTEX
8
ENGRAVE
10
410.2650
20
94.8009
30
0
0
VERTEX
8
ENGRAVE
10
410.2560
20
94.8764
30
0
0
VERTEX
8
ENGRAVE
10
410.2500
20
94.9561
30
0
0
VERTEX
8
ENGRAVE
10
410.2480
20
95.0397
30
0
0
VERTEX
8
ENGRAVE
10
410.2500
20
95.1220
30
0
0
VERTEX
8
ENGRAVE
10
410.2550
20
95.2001
30
0
0
VERTEX
8
ENGRAVE
10
410.2650
20
95.2743
30
0
0
VERTEX
8
ENGRAVE
10
410.2770
20
95.3444
30
0
0
VERTEX
8
ENGRAVE
10
410.2940
20
95.4104
30
0
0
VERTEX
8
ENGRAVE
10
410.3140
20
95.4724
30
0
0
VERTEX
8
ENGRAVE
10
410.3380
20
95.5303
30
0
0
VERTEX
8
ENGRAVE
10
410.3650
20
95.5841
30
0
0
VERTEX
8
ENGRAVE
10
410.3960
20
95.6339
30
0
0
VERTEX
8
ENGRAVE
10
410.4310
20
95.6797
30
0
0
VERTEX
8
ENGRAVE
10
410.4690
20
95.7212
30
0
0
VERTEX
8
ENGRAVE
10
410.5100
20
95.7584
30
0
0
VERTEX
8
ENGRAVE
10
410.5550
20
95.7912
30
0
0
VERTEX
8
ENGRAVE
10
410.6040
20
95.8196
30
0
0
VERTEX
8
ENGRAVE
10
410.6560
20
95.8437
30
0
0
VERTEX
8
ENGRAVE
10
410.7110
20
95.8634
30
0
0
VERTEX
8
ENGRAVE
10
410.7700
20
95.8786
30
0
0
VERTEX
8
ENGRAVE
10
410.8320
20
95.8896
30
0
0
VERTEX
8
ENGRAVE
10
410.8970
20
95.8961
30
0
0
VERTEX
8
ENGRAVE
10
410.9660
20
95.8983
30
0
0
VERTEX
8
ENGRAVE
10
411.0110
20
95.8972
30
0
0
VERTEX
8
ENGRAVE
10
411.0560
20
95.8939
30
0
0
VERTEX
8
ENGRAVE
10
411.0990
20
95.8884
30
0
0
VERTEX
8
ENGRAVE
10
411.1410
20
95.8807
30
0
0
VERTEX
8
ENGRAVE
10
411.1820
20
95.8708
30
0
0
VERTEX
8
ENGRAVE
10
411.2210
20
95.8587
30
0
0
VERTEX
8
ENGRAVE
10
411.2590
20
95.8443
30
0
0
VERTEX
8
ENGRAVE
10
411.2960
20
95.8278
30
0
0
VERTEX
8
ENGRAVE
10
411.3320
20
95.8091
30
0
0
VERTEX
8
ENGRAVE
10
411.3670
20
95.7881
30
0
0
VERTEX
8
ENGRAVE
10
411.4000
20
95.7653
30
0
0
VERTEX
8
ENGRAVE
10
411.4300
20
95.7410
30
0
0
VERTEX
8
ENGRAVE
10
411.4590
20
95.7151
30
0
0
VERTEX
8
ENGRAVE
10
411.4850
20
95.6877
30
0
0
VERTEX
8
ENGRAVE
10
411.5090
20
95.6588
30
0
0
VERTEX
8
ENGRAVE
10
411.5310
20
95.6283
30
0
0
VERTEX
8
ENGRAVE
10
411.5500
20
95.5963
30
0
0
VERTEX
8
ENGRAVE
10
411.5670
20
95.5628
30
0
0
VERTEX
8
ENGRAVE
10
411.5820
20
95.5277
30
0
0
VERTEX
8
ENGRAVE
10
411.5950
20
95.4911
30
0
0
VERTEX
8
ENGRAVE
10
412.0540
20
95.6162
30
0
0
VERTEX
8
ENGRAVE
10
412.0300
20
95.6826
30
0
0
VERTEX
8
ENGRAVE
10
412.0030
20
95.7458
30
0
0
VERTEX
8
ENGRAVE
10
411.9720
20
95.8056
30
0
0
VERTEX
8
ENGRAVE
10
411.9390
20
95.8621
30
0
0
VERTEX
8
ENGRAVE
10
411.9020
20
95.9153
30
0
0
VERTEX
8
ENGRAVE
10
411.8610
20
95.9652
30
0
0
VERTEX
8
ENGRAVE
10
411.8180
20
96.0119
30
0
0
VERTEX
8
ENGRAVE
10
411.7710
20
96.0552
30
0
0
VERTEX
8
ENGRAVE
10
411.7210
20
96.0952
30
0
0
VERTEX
8
ENGRAVE
10
411.6670
20
96.1319
30
0
0
VERTEX
8
ENGRAVE
10
411.6110
20
96.1653
30
0
0
VERTEX
8
ENGRAVE
10
411.5510
20
96.1951
30
0
0
VERTEX
8
ENGRAVE
10
411.4880
20
96.2214
30
0
0
VERTEX
8
ENGRAVE
10
411.4210
20
96.2442
30
0
0
VERTEX
8
ENGRAVE
10
411.3520
20
96.2635
30
0
0
VERTEX
8
ENGRAVE
10
411.2790
20
96.2793
30
0
0
VERTEX
8
ENGRAVE
10
411.2030
20
96.2916
30
0
0
VERTEX
8
ENGRAVE
10
411.1240
20
96.3004
30
0
0
VERTEX
8
ENGRAVE
10
411.0410
20
96.3056
30
0
0
VERTEX
8
ENGRAVE
10
410.9550
20
96.3074
30
0
0
VERTEX
8
ENGRAVE
10
410.8380
20
96.3041
30
0
0
VERTEX
8
ENGRAVE
10
410.7270
20
96.2943
30
0
0
VERTEX
8
ENGRAVE
10
410.6210
20
96.2779
30
0
0
VERTEX
8
ENGRAVE
10
410.5210
20
96.2549
30
0
0
VERTEX
8
ENGRAVE
10
410.4270
20
96.2254
30
0
0
VERTEX
8
ENGRAVE
10
410.3380
20
96.1893
30
0
0
VERTEX
8
ENGRAVE
10
410.2550
20
96.1467
30
0
0
VERTEX
8
ENGRAVE
10
410.1780
20
96.0975
30
0
0
VERTEX
8
ENGRAVE
10
410.1060
20
96.0418
30
0
0
VERTEX
8
ENGRAVE
10
410.0400
20
95.9794
30
0
0
VERTEX
8
ENGRAVE
10
409.9800
20
95.9110
30
0
0
VERTEX
8
ENGRAVE
10
409.9260
20
95.8369
30
0
0
VERTEX
8
ENGRAVE
10
409.8790
20
95.7571
30
0
0
VERTEX
8
ENGRAVE
10
409.8380
20
95.6717
30
0
0
VERTEX
8
ENGRAVE
10
409.8030
20
95.5806
30
0
0
VERTEX
8
ENGRAVE
10
409.7750
20
95.4837
30
0
0
VERTEX
8
ENGRAVE
10
409.7530
20
95.3812
30
0
0
VERTEX
8
ENGRAVE
10
409.7370
20
95.2731
30
0
0
VERTEX
8
ENGRAVE
10
409.7280
20
95.1592
30
0
0
VERTEX
8
ENGRAVE
10
409.7250
20
95.0397
30
0
0
VERTEX
8
ENGRAVE
10
409.7280
20
94.9204
30
0
0
VERTEX
8
ENGRAVE
10
409.7380
20
94.8065
30
0
0
VERTEX
8
ENGRAVE
10
409.7540
20
94.6981
30
0
0
VERTEX
8
ENGRAVE
10
409.7770
20
94.5950
30
0
0
VERTEX
8
ENGRAVE
10
409.8060
20
94.4973
30
0
0
VERTEX
8
ENGRAVE
10
409.8420
20
94.4051
30
0
0
VERTEX
8
ENGRAVE
10
409.8850
20
94.3183
30
0
0
VERTEX
8
ENGRAVE
10
409.9340
20
94.2369
30
0
0
VERTEX
8
ENGRAVE
10
409.9890
20
94.1609
30
0
0
VERTEX
8
ENGRAVE
10
410.0520
20
94.0903
30
0
0
VERTEX
8
ENGRAVE
10
410.1200
20
94.0258
30
0
0
VERTEX
8
ENGRAVE
10
410.1930
20
93.9681
30
0
0
VERTEX
8
ENGRAVE
10
410.2720
20
93.9172
30
0
0
VERTEX
8
ENGRAVE
10
410.3570
20
93.8731
30
0
0
VERTEX
8
ENGRAVE
10
410.4470
20
93.8357
30
0
0
VERTEX
8
ENGRAVE
10
410.5420
20
93.8052
30
0
0
VERTEX
8
ENGRAVE
10
410.6430
20
93.7814
30
0
0
VERTEX
8
ENGRAVE
10
410.7490
20
93.7645
30
0
0
VERTEX
8
ENGRAVE
10
410.8610
20
93.7543
30
0
0
VERTEX
8
ENGRAVE
10
410.9780
20
93.7509
30
0
0
SEQEND
8
ENGRAVE
0
POLYLINE
8
ENGRAVE
66
1
10
0
20
0
30
0
70
1
0
VERTEX
8
ENGRAVE
10
425.6320
20
95.8684
30
0
0
VERTEX
8
ENGRAVE
10
426.4360
20
95.8684
30
0
0
VERTEX
8
ENGRAVE
10
426.4360
20
96.2704
30
0
0
VERTEX
8
ENGRAVE
10
424.3100
20
96.2704
30
0
0
VERTEX
8
ENGRAVE
10
424.3100
20
95.8684
30
0
0
VERTEX
8
ENGRAVE
10
425.1120
20
95.8684
30
0
0
VERTEX
8
ENGRAVE
10
425.1120
20
93.7861
30
0
0
VERTEX
8
ENGRAVE
10
425.6320
20
93.7861
30
0
0
SEQEND
8
ENGRAVE
0
POLYLINE
8
ENGRAVE
66
1
10
0
20
0
30
0
70
1
0
VERTEX
8
ENGRAVE
10
418.9000
20
95.2513
30
0
0
VERTEX
8
ENGRAVE
10
418.8990
20
95.2862
30
0
0
VERTEX
8
ENGRAVE
10
418.8980
20
95.3233
30
0
0
VERTEX
8
ENGRAVE
10
418.8970
20
95.3627
30
0
0
VERTEX
8
ENGRAVE
10
418.8950
20
95.4042
30
0
0
VERTEX
8
ENGRAVE
10
418.8920
20
95.4479
30
0
0
VERTEX
8
ENGRAVE
10
418.8880
20
95.4937
30
0
0
VERTEX
8
ENGRAVE
10
418.8840
20
95.5418
30
0
0
VERTEX
8
ENGRAVE
10
418.8790
20
95.5921
30
0
0
VERTEX
8
ENGRAVE
10
418.8740
20
95.6445
30
0
0
VERTEX
8
ENGRAVE
10
418.8680
20
95.6991
30
0
0
VERTEX
8
ENGRAVE
10
419.9510
20
93.7861
30
0
0
VERTEX
8
ENGRAVE
10
420.5610
20
93.7861
30
0
0
VERTEX
8
ENGRAVE
10
420.5610
20
96.2704
30
0
0
VERTEX
8
ENGRAVE
10
420.0990
20
96.2704
30
0
0
VERTEX
8
ENGRAVE
10
420.0990
20
94.8264
30
0
0
VERTEX
8
ENGRAVE
10
420.0990
20
94.7822
30
0
0
VERTEX
8
ENGRAVE
10
420.1000
20
94.7370
30
0
0
VERTEX
8
ENGRAVE
10
420.1020
20
94.6909
30
0
0
VERTEX
8
ENGRAVE
10
420.1040
20
94.6439
30
0
0
VERTEX
8
ENGRAVE
10
420.1070
20
94.5959
30
0
0
VERTEX
8
ENGRAVE
10
420.1100
20
94.5469
30
0
0
VERTEX
8
ENGRAVE
10
420.1140
20
94.4970
30
0
0
VERTEX
8
ENGRAVE
10
420.1190
20
94.4461
30
0
0
VERTEX
8
ENGRAVE
10
420.1240
20
94.3943
30
0
0
VERTEX
8
ENGRAVE
10
420.1300
20
94.3415
30
0
0
VERTEX
8
ENGRAVE
10
419.0320
20
96.2704
30
0
0
VERTEX
8
ENGRAVE
10
418.4380
20
96.2704
30
0
0
VERTEX
8
ENGRAVE
10
418.4380
20
93.7861
30
0
0
VERTEX
8
ENGRAVE
10
418.9000
20
93.7861
30
0
0
SEQEND
8
ENGRAVE
0
POLYLINE
8
ENGRAVE
66
1
10
0
20
0
30
0
70
1
0
VERTEX
8
ENGRAVE
10
422.4840
20
94.8511
30
0
0
VERTEX
8
ENGRAVE
10
423.5670
20
94.8511
30
0
0
VERTEX
8
ENGRAVE
10
423.5670
20
93.7861
30
0
0
VERTEX
8
ENGRAVE
10
424.0870
20
93.7861
30
0
0
VERTEX
8
ENGRAVE
10
424.0870
20
96.2704
30
0
0
VERTEX
8
ENGRAVE
10
423.5670
20
96.2704
30
0
0
VERTEX
8
ENGRAVE
10
423.5670
20
95.2812
30
0
0
VERTEX
8
ENGRAVE
10
422.4840
20
95.2812
30
0
0
VERTEX
8
ENGRAVE
10
422.4840
20
96.2704
30
0
0
VERTEX
8
ENGRAVE
10
421.9640
20
96.2704
30
0
0
VERTEX
8
ENGRAVE
10
421.9640
20
93.7861
30
0
0
VERTEX
8
ENGRAVE
10
422.4840
20
93.7861
30
0
0
SEQEND
8
ENGRAVE
0
POLYLINE
8
ENGRAVE
66
1
10
0
20
0
30
0
70
1
0
VERTEX
8
ENGRAVE
10
412.9540
20
94.4209
30
0
0
VERTEX
8
ENGRAVE
10
413.9000
20
94.4209
30
0
0
VERTEX
8
ENGRAVE
10
414.1210
20
93.7861
30
0
0
VERTEX
8
ENGRAVE
10
414.6360
20
93.7861
30
0
0
VERTEX
8
ENGRAVE
10
413.7330
20
96.2704
30
0
0
VERTEX
8
ENGRAVE
10
413.1190
20
96.2704
30
0
0
VERTEX
8
ENGRAVE
10
412.2130
20
93.7861
30
0
0
VERTEX
8
ENGRAVE
10
412.7330
20
93.7861
30
0
0
SEQEND
8
ENGRAVE
0
POLYLINE
8
ENGRAVE
66
1
10
0
20
0
30
0
70
1
0
VERTEX
8
ENGRAVE
10
413.0700
20
94.8123
30
0
0
VERTEX
8
ENGRAVE
10
413.1230
20
94.9672
30
0
0
VERTEX
8
ENGRAVE
10
413.1710
20
95.1075
30
0
0
VERTEX
8
ENGRAVE
10
413.2140
20
95.2332
30
0
0
VERTEX
8
ENGRAVE
10
413.2520
20
95.3443
30
0
0
VERTEX
8
ENGRAVE
10
413.2850
20
95.4408
30
0
0
VERTEX
8
ENGRAVE
10
413.3130
20
95.5227
30
0
0
VERTEX
8
ENGRAVE
10
413.3360
20
95.5900
30
0
0
VERTEX
8
ENGRAVE
10
413.3530
20
95.6428
30
0
0
VERTEX
8
ENGRAVE
10
413.3660
20
95.6809
30
0
0
VERTEX
8
ENGRAVE
10
413.3730
20
95.7044
30
0
0
VERTEX
8
ENGRAVE
10
413.3830
20
95.7361
30
0
0
VERTEX
8
ENGRAVE
10
413.3920
20
95.7664
30
0
0
VERTEX
8
ENGRAVE
10
413.4000
20
95.7954
30
0
0
VERTEX
8
ENGRAVE
10
413.4040
20
95.8093
30
0
0
VERTEX
8
ENGRAVE
10
413.4120
20
95.8361
30
0
0
VERTEX
8
ENGRAVE
10
413.4150
20
95.8490
30
0
0
VERTEX
8
ENGRAVE
10
413.4260
20
95.8878
30
0
0
VERTEX
8
ENGRAVE
10
413.4630
20
95.7661
30
0
0
VERTEX
8
ENGRAVE
10
413.5390
20
95.5263
30
0
0
VERTEX
8
ENGRAVE
10
413.7840
20
94.8123
30
0
0
SEQEND
8
ENGRAVE
0
POLYLINE
8
ENGRAVE
66
1
10
0
20
0
30
0
70
1
0
VERTEX
8
ENGRAVE
10
416.2430
20
93.7880
30
0
0
VERTEX
8
ENGRAVE
10
416.3270
20
93.7935
30
0
0
VERTEX
8
ENGRAVE
10
416.4070
20
93.8028
30
0
0
VERTEX
8
ENGRAVE
10
416.4840
20
93.8158
30
0
0
VERTEX
8
ENGRAVE
10
416.5560
20
93.8324
30
0
0
VERTEX
8
ENGRAVE
10
416.6250
20
93.8528
30
0
0
VERTEX
8
ENGRAVE
10
416.6900
20
93.8768
30
0
0
VERTEX
8
ENGRAVE
10
416.7500
20
93.9046
30
0
0
VERTEX
8
ENGRAVE
10
416.8070
20
93.9361
30
0
0
VERTEX
8
ENGRAVE
10
416.8600
20
93.9713
30
0
0
VERTEX
8
ENGRAVE
10
416.9080
20
94.0098
30
0
0
VERTEX
8
ENGRAVE
10
416.9510
20
94.0515
30
0
0
VERTEX
8
ENGRAVE
10
416.9890
20
94.0961
30
0
0
VERTEX
8
ENGRAVE
10
417.0220
20
94.1439
30
0
0
VERTEX
8
ENGRAVE
10
417.0500
20
94.1947
30
0
0
VERTEX
8
ENGRAVE
10
417.0730
20
94.2486
30
0
0
VERTEX
8
ENGRAVE
10
417.0910
20
94.3056
30
0
0
VERTEX
8
ENGRAVE
10
417.1030
20
94.3656
30
0
0
VERTEX
8
ENGRAVE
10
417.1110
20
94.4287
30
0
0
VERTEX
8
ENGRAVE
10
417.1140
20
94.4949
30
0
0
VERTEX
8
ENGRAVE
10
417.1120
20
94.5447
30
0
0
VERTEX
8
ENGRAVE
10
417.1070
20
94.5925
30
0
0
VERTEX
8
ENGRAVE
10
417.0990
20
94.6383
30
0
0
VERTEX
8
ENGRAVE
10
417.0880
20
94.6821
30
0
0
VERTEX
8
ENGRAVE
10
417.0740
20
94.7239
30
0
0
VERTEX
8
ENGRAVE
10
417.0570
20
94.7637
30
0
0
VERTEX
8
ENGRAVE
10
417.0360
20
94.8015
30
0
0
VERTEX
8
ENGRAVE
10
417.0130
20
94.8374
30
0
0
VERTEX
8
ENGRAVE
10
416.9860
20
94.8712
30
0
0
VERTEX
8
ENGRAVE
10
416.9560
20
94.9031
30
0
0
VERTEX
8
ENGRAVE
10
416.9230
20
94.9327
30
0
0
VERTEX
8
ENGRAVE
10
416.8870
20
94.9600
30
0
0
VERTEX
8
ENGRAVE
10
416.8480
20
94.9849
30
0
0
VERTEX
8
ENGRAVE
10
416.8060
20
95.0074
30
0
0
VERTEX
8
ENGRAVE
10
416.7620
20
95.0276
30
0
0
VERTEX
8
ENGRAVE
10
416.7150
20
95.0453
30
0
0
VERTEX
8
ENGRAVE
10
416.6640
20
95.0607
30
0
0
VERTEX
8
ENGRAVE
10
416.6110
20
95.0737
30
0
0
VERTEX
8
ENGRAVE
10
416.5550
20
95.0844
30
0
0
VERTEX
8
ENGRAVE
10
416.4960
20
95.0926
30
0
0
VERTEX
8
ENGRAVE
10
416.5430
20
95.1038
30
0
0
VERTEX
8
ENGRAVE
10
416.5870
20
95.1168
30
0
0
VERTEX
8
ENGRAVE
10
416.6290
20
95.1318
30
0
0
VERTEX
8
ENGRAVE
10
416.6690
20
95.1486
30
0
0
VERTEX
8
ENGRAVE
10
416.7060
20
95.1673
30
0
0
VERTEX
8
ENGRAVE
10
416.7400
20
95.1879
30
0
0
VERTEX
8
ENGRAVE
10
416.7720
20
95.2104
30
0
0
VERTEX
8
ENGRAVE
10
416.8020
20
95.2348
30
0
0
VERTEX
8
ENGRAVE
10
416.8290
20
95.2610
30
0
0
VERTEX
8
ENGRAVE
10
416.8530
20
95.2892
30
0
0
VERTEX
8
ENGRAVE
10
416.8760
20
95.3189
30
0
0
VERTEX
8
ENGRAVE
10
416.8960
20
95.3500
30
0
0
VERTEX
8
ENGRAVE
10
416.9130
20
95.3824
30
0
0
VERTEX
8
ENGRAVE
10
416.9280
20
95.4161
30
0
0
VERTEX
8
ENGRAVE
10
416.9410
20
95.4512
30
0
0
VERTEX
8
ENGRAVE
10
416.9520
20
95.4875
30
0
0
VERTEX
8
ENGRAVE
10
416.9600
20
95.5252
30
0
0
VERTEX
8
ENGRAVE
10
416.9660
20
95.5642
30
0
0
VERTEX
8
ENGRAVE
10
416.9700
20
95.6046
30
0
0
VERTEX
8
ENGRAVE
10
416.9710
20
95.6462
30
0
0
VERTEX
8
ENGRAVE
10
416.9680
20
95.7064
30
0
0
VERTEX
8
ENGRAVE
10
416.9610
20
95.7636
30
0
0
VERTEX
8
ENGRAVE
10
416.9500
20
95.8178
30
0
0
VERTEX
8
ENGRAVE
10
416.9330
20
95.8689
30
0
0
VERTEX
8
ENGRAVE
10
416.9120
20
95.9171
30
0
0
VERTEX
8
ENGRAVE
10
416.8870
20
95.9622
30
0
0
VERTEX
8
ENGRAVE
10
416.8560
20
96.0043
30
0
0
VERTEX
8
ENGRAVE
10
416.8210
20
96.0434
30
0
0
VERTEX
8
ENGRAVE
10
416.7810
20
96.0795
30
0
0
VERTEX
8
ENGRAVE
10
416.7370
20
96.1125
30
0
0
VERTEX
8
ENGRAVE
10
416.6880
20
96.1425
30
0
0
VERTEX
8
ENGRAVE
10
416.6350
20
96.1694
30
0
0
VERTEX
8
ENGRAVE
10
416.5770
20
96.1930
30
0
0
VERTEX
8
ENGRAVE
10
416.5150
20
96.2135
30
0
0
VERTEX
8
ENGRAVE
10
416.4480
20
96.2309
30
0
0
VERTEX
8
ENGRAVE
10
416.3770
20
96.2451
30
0
0
VERTEX
8
ENGRAVE
10
416.3020
20
96.2562
30
0
0
VERTEX
8
ENGRAVE
10
416.2220
20
96.2641
30
0
0
VERTEX
8
ENGRAVE
10
416.1370
20
96.2688
30
0
0
VERTEX
8
ENGRAVE
10
416.0490
20
96.2704
30
0
0
VERTEX
8
ENGRAVE
10
414.9110
20
96.2704
30
0
0
VERTEX
8
ENGRAVE
10
414.9110
20
93.7861
30
0
0
VERTEX
8
ENGRAVE
10
416.1540
20
93.7861
30
0
0
SEQEND
8
ENGRAVE
0
POLYLINE
8
ENGRAVE
66
1
10
0
20
0
30
0
70
1
0
VERTEX
8
ENGRAVE
10
415.4310
20
95.2689
30
0
0
VERTEX
8
ENGRAVE
10
415.4310
20
95.8842
30
0
0
VERTEX
8
ENGRAVE
10
416.0240
20
95.8842
30
0
0
VERTEX
8
ENGRAVE
10
416.0650
20
95.8835
30
0
0
VERTEX
8
ENGRAVE
10
416.1040
20
95.8814
30
0
0
VERTEX
8
ENGRAVE
10
416.1410
20
95.8779
30
0
0
VERTEX
8
ENGRAVE
10
416.1750
20
95.8730
30
0
0
VERTEX
8
ENGRAVE
10
416.2080
20
95.8666
30
0
0
VERTEX
8
ENGRAVE
10
416.2390
20
95.8588
30
0
0
VERTEX
8
ENGRAVE
10
416.2670
20
95.8497
30
0
0
VERTEX
8
ENGRAVE
10
416.2940
20
95.8391
30
0
0
VERTEX
8
ENGRAVE
10
416.3180
20
95.8271
30
0
0
VERTEX
8
ENGRAVE
10
416.3400
20
95.8137
30
0
0
VERTEX
8
ENGRAVE
10
416.3610
20
95.7986
30
0
0
VERTEX
8
ENGRAVE
10
416.3790
20
95.7816
30
0
0
VERTEX
8
ENGRAVE
10
416.3950
20
95.7627
30
0
0
VERTEX
8
ENGRAVE
10
416.4090
20
95.7418
30
0
0
VERTEX
8
ENGRAVE
10
416.4200
20
95.7189
30
0
0
VERTEX
8
ENGRAVE
10
416.4300
20
95.6942
30
0
0
VERTEX
8
ENGRAVE
10
416.4370
20
95.6675
30
0
0
VERTEX
8
ENGRAVE
10
416.4430
20
95.6388
30
0
0
VERTEX
8
ENGRAVE
10
416.4460
20
95.6082
30
0
0
VERTEX
8
ENGRAVE
10
416.4470
20
95.5757
30
0
0
VERTEX
8
ENGRAVE
10
416.4460
20
95.5458
30
0
0
VERTEX
8
ENGRAVE
10
416.4430
20
95.5174
30
0
0
VERTEX
8
ENGRAVE
10
416.4380
20
95.4906
30
0
0
VERTEX
8
ENGRAVE
10
416.4310
20
95.4653
30
0
0
VERTEX
8
ENGRAVE
10
416.4220
20
95.4415
30
0
0
VERTEX
8
ENGRAVE
10
416.4110
20
95.4192
30
0
0
VERTEX
8
ENGRAVE
10
416.3980
20
95.3985
30
0
0
VERTEX
8
ENGRAVE
10
416.3830
20
95.3793
30
0
0
VERTEX
8
ENGRAVE
10
416.3660
20
95.3617
30
0
0
VERTEX
8
ENGRAVE
10
416.3470
20
95.3456
30
0
0
VERTEX
8
ENGRAVE
10
416.3260
20
95.3310
30
0
0
VERTEX
8
ENGRAVE
10
416.3030
20
95.3180
30
0
0
VERTEX
8
ENGRAVE
10
416.2770
20
95.3065
30
0
0
VERTEX
8
ENGRAVE
10
416.2480
20
95.2965
30
0
0
VERTEX
8
ENGRAVE
10
416.2180
20
95.2881
30
0
0
VERTEX
8
ENGRAVE
10
416.1840
20
95.2812
30
0
0
VERTEX
8
ENGRAVE
10
416.1490
20
95.2758
30
0
0
VERTEX
8
ENGRAVE
10
416.1110
20
95.2720
30
0
0
VERTEX
8
ENGRAVE
10
416.0700
20
95.2697
30
0
0
VERTEX
8
ENGRAVE
10
416.0270
20
95.2689
30
0
0
SEQEND
8
ENGRAVE
0
POLYLINE
8
ENGRAVE
66
1
10
0
20
0
30
0
70
1
0
VERTEX
8
ENGRAVE
10
415.4310
20
94.1723
30
0
0
VERTEX
8
ENGRAVE
10
415.4310
20
94.8846
30
0
0
VERTEX
8
ENGRAVE
10
416.0910
20
94.8846
30
0
0
VERTEX
8
ENGRAVE
10
416.1860
20
94.8811
30
0
0
VERTEX
8
ENGRAVE
10
416.2710
20
94.8706
30
0
0
VERTEX
8
ENGRAVE
10
416.3460
20
94.8531
30
0
0
VERTEX
8
ENGRAVE
10
416.4110
20
94.8287
30
0
0
VERTEX
8
ENGRAVE
10
416.4660
20
94.7973
30
0
0
VERTEX
8
ENGRAVE
10
416.5120
20
94.7589
30
0
0
VERTEX
8
ENGRAVE
10
416.5470
20
94.7135
30
0
0
VERTEX
8
ENGRAVE
10
416.5720
20
94.6611
30
0
0
VERTEX
8
ENGRAVE
10
416.5870
20
94.6018
30
0
0
VERTEX
8
ENGRAVE
10
416.5920
20
94.5354
30
0
0
VERTEX
8
ENGRAVE
10
416.5900
20
94.5000
30
0
0
VERTEX
8
ENGRAVE
10
416.5870
20
94.4664
30
0
0
VERTEX
8
ENGRAVE
10
416.5810
20
94.4347
30
0
0
VERTEX
8
ENGRAVE
10
416.5730
20
94.4047
30
0
0
VERTEX
8
ENGRAVE
10
416.5630
20
94.3766
30
0
0
VERTEX
8
ENGRAVE
10
416.5500
20
94.3502
30
0
0
VERTEX
8
ENGRAVE
10
416.5350
20
94.3257
30
0
0
VERTEX
8
ENGRAVE
10
416.5180
20
94.3030
30
0
0
VERTEX
8
ENGRAVE
10
416.4980
20
94.2821
30
0
0
VERTEX
8
ENGRAVE
10
416.4760
20
94.2630
30
0
0
VERTEX
8
ENGRAVE
10
416.4520
20
94.2458
30
0
0
VERTEX
8
ENGRAVE
10
416.4250
20
94.2304
30
0
0
VERTEX
8
ENGRAVE
10
416.3950
20
94.2168
30
0
0
VERTEX
8
ENGRAVE
10
416.3620
20
94.2049
30
0
0
VERTEX
8
ENGRAVE
10
416.3270
20
94.1950
30
0
0
VERTEX
8
ENGRAVE
10
416.2890
20
94.1868
30
0
0
VERTEX
8
ENGRAVE
10
416.2480
20
94.1804
30
0
0
VERTEX
8
ENGRAVE
10
416.2050
20
94.1759
30
0
0
VERTEX
8
ENGRAVE
10
416.1590
20
94.1732
30
0
0
VERTEX
8
ENGRAVE
10
416.1100
20
94.1723
30
0
0
SEQEND
8
ENGRAVE
0
POLYLINE
8
ENGRAVE
66
1
10
0
20
0
30
0
70
1
0
VERTEX
8
ENGRAVE
10
417.9780
20
96.2704
30
0
0
VERTEX
8
ENGRAVE
10
417.4580
20
96.2704
30
0
0
VERTEX
8
ENGRAVE
10
417.4580
20
93.7861
30
0
0
VERTEX
8
ENGRAVE
10
417.9780
20
93.7861
30
0
0
SEQEND
8
ENGRAVE
0
POLYLINE
8
ENGRAVE
66
1
10
0
20
0
30
0
70
1
0
VERTEX
8
ENGRAVE
10
353.0960
20
88.3944
30
0
0
VERTEX
8
ENGRAVE
10
353.2250
20
88.4046
30
0
0
VERTEX
8
ENGRAVE
10
353.3480
20
88.4216
30
0
0
VERTEX
8
ENGRAVE
10
353.4650
20
88.4454
30
0
0
VERTEX
8
ENGRAVE
10
353.5750
20
88.4760
30
0
0
VERTEX
8
ENGRAVE
10
353.6790
20
88.5134
30
0
0
VERTEX
8
ENGRAVE
10
353.7770
20
88.5576
30
0
0
VERTEX
8
ENGRAVE
10
353.8690
20
88.6086
30
0
0
VERTEX
8
ENGRAVE
10
353.9550
20
88.6664
30
0
0
VERTEX
8
ENGRAVE
10
354.0340
20
88.7310
30
0
0
VERTEX
8
ENGRAVE
10
354.1070
20
88.8018
30
0
0
VERTEX
8
ENGRAVE
10
354.1710
20
88.8782
30
0
0
VERTEX
8
ENGRAVE
10
354.2290
20
88.9601
30
0
0
VERTEX
8
ENGRAVE
10
354.2780
20
89.0475
30
0
0
VERTEX
8
ENGRAVE
10
354.3200
20
89.1406
30
0
0
VERTEX
8
ENGRAVE
10
354.3550
20
89.2391
30
0
0
VERTEX
8
ENGRAVE
10
354.3810
20
89.3433
30
0
0
VERTEX
8
ENGRAVE
10
354.4000
20
89.4530
30
0
0
VERTEX
8
ENGRAVE
10
354.4120
20
89.5682
30
0
0
VERTEX
8
ENGRAVE
10
354.4160
20
89.6890
30
0
0
VERTEX
8
ENGRAVE
10
354.4160
20
91.6857
30
0
0
VERTEX
8
ENGRAVE
10
353.7350
20
91.6857
30
0
0
VERTEX
8
ENGRAVE
10
353.7350
20
89.7305
30
0
0
VERTEX
8
ENGRAVE
10
353.7340
20
89.6544
30
0
0
VERTEX
8
ENGRAVE
10
353.7280
20
89.5819
30
0
0
VERTEX
8
ENGRAVE
10
353.7180
20
89.5130
30
0
0
VERTEX
8
ENGRAVE
10
353.7040
20
89.4478
30
0
0
VERTEX
8
ENGRAVE
10
353.6860
20
89.3861
30
0
0
VERTEX
8
ENGRAVE
10
353.6650
20
89.3281
30
0
0
VERTEX
8
ENGRAVE
10
353.6390
20
89.2737
30
0
0
VERTEX
8
ENGRAVE
10
353.6100
20
89.2229
30
0
0
VERTEX
8
ENGRAVE
10
353.5770
20
89.1758
30
0
0
VERTEX
8
ENGRAVE
10
353.5400
20
89.1322
30
0
0
VERTEX
8
ENGRAVE
10
353.4990
20
89.0926
30
0
0
VERTEX
8
ENGRAVE
10
353.4540
20
89.0571
30
0
0
VERTEX
8
ENGRAVE
10
353.4070
20
89.0258
30
0
0
VERTEX
8
ENGRAVE
10
353.3560
20
88.9987
30
0
0
VERTEX
8
ENGRAVE
10
353.3010
20
88.9757
30
0
0
VERTEX
8
ENGRAVE
10
353.2440
20
88.9569
30
0
0
VERTEX
8
ENGRAVE
10
353.1830
20
88.9423
30
0
0
VERTEX
8
ENGRAVE
10
353.1180
20
88.9319
30
0
0
VERTEX
8
ENGRAVE
10
353.0500
20
88.9256
30
0
0
VERTEX
8
ENGRAVE
10
352.9790
20
88.9235
30
0
0
VERTEX
8
ENGRAVE
10
352.9100
20
88.9255
30
0
0
VERTEX
8
ENGRAVE
10
352.8440
20
88.9315
30
0
0
VERTEX
8
ENGRAVE
10
352.7820
20
88.9415
30
0
0
VERTEX
8
ENGRAVE
10
352.7230
20
88.9555
30
0
0
VERTEX
8
ENGRAVE
10
352.6670
20
88.9734
30
0
0
VERTEX
8
ENGRAVE
10
352.6150
20
88.9953
30
0
0
VERTEX
8
ENGRAVE
10
352.5660
20
89.0213
30
0
0
VERTEX
8
ENGRAVE
10
352.5210
20
89.0512
30
0
0
VERTEX
8
ENGRAVE
10
352.4790
20
89.0851
30
0
0
VERTEX
8
ENGRAVE
10
352.4410
20
89.1230
30
0
0
VERTEX
8
ENGRAVE
10
352.4060
20
89.1647
30
0
0
VERTEX
8
ENGRAVE
10
352.3750
20
89.2102
30
0
0
VERTEX
8
ENGRAVE
10
352.3470
20
89.2594
30
0
0
VERTEX
8
ENGRAVE
10
352.3240
20
89.3122
30
0
0
VERTEX
8
ENGRAVE
10
352.3030
20
89.3688
30
0
0
VERTEX
8
ENGRAVE
10
352.2870
20
89.4291
30
0
0
VERTEX
8
ENGRAVE
10
352.2740
20
89.4931
30
0
0
VERTEX
8
ENGRAVE
10
352.2650
20
89.5609
30
0
0
VERTEX
8
ENGRAVE
10
352.2590
20
89.6323
30
0
0
VERTEX
8
ENGRAVE
10
352.2580
20
89.7075
30
0
0
VERTEX
8
ENGRAVE
10
352.2580
20
91.6857
30
0
0
VERTEX
8
ENGRAVE
10
351.5770
20
91.6857
30
0
0
VERTEX
8
ENGRAVE
10
351.5770
20
89.6544
30
0
0
VERTEX
8
ENGRAVE
10
351.5810
20
89.5355
30
0
0
VERTEX
8
ENGRAVE
10
351.5920
20
89.4222
30
0
0
VERTEX
8
ENGRAVE
10
351.6090
20
89.3145
30
0
0
VERTEX
8
ENGRAVE
10
351.6340
20
89.2125
30
0
0
VERTEX
8
ENGRAVE
10
351.6660
20
89.1161
30
0
0
VERTEX
8
ENGRAVE
10
351.7060
20
89.0253
30
0
0
VERTEX
8
ENGRAVE
10
351.7520
20
88.9401
30
0
0
VERTEX
8
ENGRAVE
10
351.8050
20
88.8606
30
0
0
VERTEX
8
ENGRAVE
10
351.8660
20
88.7867
30
0
0
VERTEX
8
ENGRAVE
10
351.9340
20
88.7184
30
0
0
VERTEX
8
ENGRAVE
10
352.0080
20
88.6561
30
0
0
VERTEX
8
ENGRAVE
10
352.0890
20
88.6005
30
0
0
VERTEX
8
ENGRAVE
10
352.1760
20
88.5514
30
0
0
VERTEX
8
ENGRAVE
10
352.2690
20
88.5088
30
0
0
VERTEX
8
ENGRAVE
10
352.3690
20
88.4728
30
0
0
VERTEX
8
ENGRAVE
10
352.4740
20
88.4433
30
0
0
VERTEX
8
ENGRAVE
10
352.5870
20
88.4204
30
0
0
VERTEX
8
ENGRAVE
10
352.7050
20
88.4041
30
0
0
VERTEX
8
ENGRAVE
10
352.8300
20
88.3942
30
0
0
VERTEX
8
ENGRAVE
10
352.9610
20
88.3910
30
0
0
SEQEND
8
ENGRAVE
0
POLYLINE
8
ENGRAVE
66
1
10
0
20
0
30
0
70
1
0
VERTEX
8
ENGRAVE
10
355.6200
20
89.5807
30
0
0
VERTEX
8
ENGRAVE
10
356.4270
20
89.5807
30
0
0
VERTEX
8
ENGRAVE
10
356.4990
20
89.5820
30
0
0
VERTEX
8
ENGRAVE
10
356.5700
20
89.5861
30
0
0
VERTEX
8
ENGRAVE
10
356.6380
20
89.5928
30
0
0
VERTEX
8
ENGRAVE
10
356.7040
20
89.6022
30
0
0
VERTEX
8
ENGRAVE
10
356.7690
20
89.6144
30
0
0
VERTEX
8
ENGRAVE
10
356.8310
20
89.6292
30
0
0
VERTEX
8
ENGRAVE
10
356.8910
20
89.6467
30
0
0
VERTEX
8
ENGRAVE
10
356.9500
20
89.6670
30
0
0
VERTEX
8
ENGRAVE
10
357.0060
20
89.6899
30
0
0
VERTEX
8
ENGRAVE
10
357.0600
20
89.7155
30
0
0
VERTEX
8
ENGRAVE
10
357.1120
20
89.7436
30
0
0
VERTEX
8
ENGRAVE
10
357.1620
20
89.7740
30
0
0
VERTEX
8
ENGRAVE
10
357.2090
20
89.8065
30
0
0
VERTEX
8
ENGRAVE
10
357.2530
20
89.8413
30
0
0
VERTEX
8
ENGRAVE
10
357.2960
20
89.8784
30
0
0
VERTEX
8
ENGRAVE
10
357.3350
20
89.9176
30
0
0
VERTEX
8
ENGRAVE
10
357.3720
20
89.9592
30
0
0
VERTEX
8
ENGRAVE
10
357.4070
20
90.0029
30
0
0
VERTEX
8
ENGRAVE
10
357.4390
20
90.0489
30
0
0
VERTEX
8
ENGRAVE
10
357.4690
20
90.0971
30
0
0
VERTEX
8
ENGRAVE
10
357.4960
20
90.1471
30
0
0
VERTEX
8
ENGRAVE
10
357.5210
20
90.1985
30
0
0
VERTEX
8
ENGRAVE
10
357.5420
20
90.2511
30
0
0
VERTEX
8
ENGRAVE
10
357.5610
20
90.3052
30
0
0
VERTEX
8
ENGRAVE
10
357.5760
20
90.3605
30
0
0
VERTEX
8
ENGRAVE
10
357.5890
20
90.4172
30
0
0
VERTEX
8
ENGRAVE
10
357.5990
20
90.4753
30
0
0
VERTEX
8
ENGRAVE
10
357.6070
20
90.5346
30
0
0
VERTEX
8
ENGRAVE
10
357.6110
20
90.5953
30
0
0
VERTEX
8
ENGRAVE
10
357.6120
20
90.6574
30
0
0
VERTEX
8
ENGRAVE
10
357.6090
20
90.7534
30
0
0
VERTEX
8
ENGRAVE
10
357.6000
20
90.8449
30
0
0
VERTEX
8
ENGRAVE
10
357.5840
20
90.9320
30
0
0
VERTEX
8
ENGRAVE
10
357.5620
20
91.0147
30
0
0
VERTEX
8
ENGRAVE
10
357.5340
20
91.0928
30
0
0
VERTEX
8
ENGRAVE
10
357.4990
20
91.1666
30
0
0
VERTEX
8
ENGRAVE
10
357.4580
20
91.2359
30
0
0
VERTEX
8
ENGRAVE
10
357.4110
20
91.3008
30
0
0
VERTEX
8
ENGRAVE
10
357.3570
20
91.3611
30
0
0
VERTEX
8
ENGRAVE
10
357.2980
20
91.4171
30
0
0
VERTEX
8
ENGRAVE
10
357.2320
20
91.4681
30
0
0
VERTEX
8
ENGRAVE
10
357.1610
20
91.5138
30
0
0
VERTEX
8
ENGRAVE
10
357.0850
20
91.5541
30
0
0
VERTEX
8
ENGRAVE
10
357.0030
20
91.5890
30
0
0
VERTEX
8
ENGRAVE
10
356.9160
20
91.6185
30
0
0
VERTEX
8
ENGRAVE
10
356.8230
20
91.6427
30
0
0
VERTEX
8
ENGRAVE
10
356.7250
20
91.6615
30
0
0
VERTEX
8
ENGRAVE
10
356.6220
20
91.6749
30
0
0
VERTEX
8
ENGRAVE
10
356.5130
20
91.6830
30
0
0
VERTEX
8
ENGRAVE
10
356.3990
20
91.6857
30
0
0
VERTEX
8
ENGRAVE
10
354.9400
20
91.6857
30
0
0
VERTEX
8
ENGRAVE
10
354.9400
20
88.4371
30
0
0
VERTEX
8
ENGRAVE
10
355.6200
20
88.4371
30
0
0
SEQEND
8
ENGRAVE
0
POLYLINE
8
ENGRAVE
66
1
10
0
20
0
30
0
70
1
0
VERTEX
8
ENGRAVE
10
355.6200
20
90.1040
30
0
0
VERTEX
8
ENGRAVE
10
355.6200
20
91.1577
30
0
0
VERTEX
8
ENGRAVE
10
356.3230
20
91.1577
30
0
0
VERTEX
8
ENGRAVE
10
356.4380
20
91.1526
30
0
0
VERTEX
8
ENGRAVE
10
356.5410
20
91.1372
30
0
0
VERTEX
8
ENGRAVE
10
356.6310
20
91.1116
30
0
0
VERTEX
8
ENGRAVE
10
356.7100
20
91.0758
30
0
0
VERTEX
8
ENGRAVE
10
356.7760
20
91.0297
30
0
0
VERTEX
8
ENGRAVE
10
356.8310
20
90.9734
30
0
0
VERTEX
8
ENGRAVE
10
356.8730
20
90.9069
30
0
0
VERTEX
8
ENGRAVE
10
356.9030
20
90.8301
30
0
0
VERTEX
8
ENGRAVE
10
356.9210
20
90.7431
30
0
0
VERTEX
8
ENGRAVE
10
356.9270
20
90.6458
30
0
0
VERTEX
8
ENGRAVE
10
356.9260
20
90.5945
30
0
0
VERTEX
8
ENGRAVE
10
356.9210
20
90.5456
30
0
0
VERTEX
8
ENGRAVE
10
356.9140
20
90.4992
30
0
0
VERTEX
8
ENGRAVE
10
356.9030
20
90.4553
30
0
0
VERTEX
8
ENGRAVE
10
356.8890
20
90.4138
30
0
0
VERTEX
8
ENGRAVE
10
356.8730
20
90.3748
30
0
0
VERTEX
8
ENGRAVE
10
356.8530
20
90.3383
30
0
0
VERTEX
8
ENGRAVE
10
356.8300
20
90.3042
30
0
0
VERTEX
8
ENGRAVE
10
356.8040
20
90.2726
30
0
0
VERTEX
8
ENGRAVE
10
356.7750
20
90.2435
30
0
0
VERTEX
8
ENGRAVE
10
356.7440
20
90.2170
30
0
0
VERTEX
8
ENGRAVE
10
356.7090
20
90.1933
30
0
0
VERTEX
8
ENGRAVE
10
356.6720
20
90.1724
30
0
0
VERTEX
8
ENGRAVE
10
356.6330
20
90.1542
30
0
0
VERTEX
8
ENGRAVE
10
356.5910
20
90.1389
30
0
0
VERTEX
8
ENGRAVE
10
356.5460
20
90.1263
30
0
0
VERTEX
8
ENGRAVE
10
356.4990
20
90.1166
30
0
0
VERTEX
8
ENGRAVE
10
356.4490
20
90.1096
30
0
0
VERTEX
8
ENGRAVE
10
356.3970
20
90.1054
30
0
0
VERTEX
8
ENGRAVE
10
356.3420
20
90.1040
30
0
0
SEQEND
8
ENGRAVE
0
POLYLINE
8
ENGRAVE
66
1
10
0
20
0
30
0
70
1
0
VERTEX
8
ENGRAVE
10
360.1000
20
90.3500
30
0
0
VERTEX
8
ENGRAVE
10
358.3000
20
90.3500
30
0
0
VERTEX
8
ENGRAVE
10
358.3000
20
89.6500
30
0
0
VERTEX
8
ENGRAVE
10
360.1000
20
89.6500
30
0
0
SEQEND
8
ENGRAVE
0
POLYLINE
8
ENGRAVE
66
1
10
0
20
0
30
0
70
1
0
VERTEX
8
ENGRAVE
10
354.7040
20
68.3708
30
0
0
VERTEX
8
ENGRAVE
10
354.8080
20
68.3835
30
0
0
VERTEX
8
ENGRAVE
10
354.9070
20
68.4047
30
0
0
VERTEX
8
ENGRAVE
10
355.0010
20
68.4344
30
0
0
VERTEX
8
ENGRAVE
10
355.0880
20
68.4726
30
0
0
VERTEX
8
ENGRAVE
10
355.1700
20
68.5192
30
0
0
VERTEX
8
ENGRAVE
10
355.2460
20
68.5744
30
0
0
VERTEX
8
ENGRAVE
10
355.3170
20
68.6380
30
0
0
VERTEX
8
ENGRAVE
10
355.3820
20
68.7101
30
0
0
VERTEX
8
ENGRAVE
10
355.4410
20
68.7907
30
0
0
VERTEX
8
ENGRAVE
10
355.4950
20
68.8796
30
0
0
VERTEX
8
ENGRAVE
10
355.5430
20
68.9764
30
0
0
VERTEX
8
ENGRAVE
10
355.5850
20
69.0812
30
0
0
VERTEX
8
ENGRAVE
10
355.6220
20
69.1940
30
0
0
VERTEX
8
ENGRAVE
10
355.6530
20
69.3147
30
0
0
VERTEX
8
ENGRAVE
10
355.6780
20
69.4434
30
0
0
VERTEX
8
ENGRAVE
10
355.6980
20
69.5801
30
0
0
VERTEX
8
ENGRAVE
10
355.7120
20
69.7248
30
0
0
VERTEX
8
ENGRAVE
10
355.7210
20
69.8775
30
0
0
VERTEX
8
ENGRAVE
10
355.7240
20
70.0381
30
0
0
VERTEX
8
ENGRAVE
10
355.7210
20
70.2013
30
0
0
VERTEX
8
ENGRAVE
10
355.7130
20
70.3561
30
0
0
VERTEX
8
ENGRAVE
10
355.6990
20
70.5025
30
0
0
VERTEX
8
ENGRAVE
10
355.6810
20
70.6405
30
0
0
VERTEX
8
ENGRAVE
10
355.6570
20
70.7701
30
0
0
VERTEX
8
ENGRAVE
10
355.6270
20
70.8914
30
0
0
VERTEX
8
ENGRAVE
10
355.5930
20
71.0042
30
0
0
VERTEX
8
ENGRAVE
10
355.5520
20
71.1086
30
0
0
VERTEX
8
ENGRAVE
10
355.5070
20
71.2047
30
0
0
VERTEX
8
ENGRAVE
10
355.4560
20
71.2923
30
0
0
VERTEX
8
ENGRAVE
10
355.4000
20
71.3716
30
0
0
VERTEX
8
ENGRAVE
10
355.3370
20
71.4426
30
0
0
VERTEX
8
ENGRAVE
10
355.2680
20
71.5052
30
0
0
VERTEX
8
ENGRAVE
10
355.1930
20
71.5594
30
0
0
VERTEX
8
ENGRAVE
10
355.1110
20
71.6053
30
0
0
VERTEX
8
ENGRAVE
10
355.0240
20
71.6429
30
0
0
VERTEX
8
ENGRAVE
10
354.9300
20
71.6721
30
0
0
VERTEX
8
ENGRAVE
10
354.8300
20
71.6930
30
0
0
VERTEX
8
ENGRAVE
10
354.7240
20
71.7055
30
0
0
VERTEX
8
ENGRAVE
10
354.6120
20
71.7097
30
0
0
VERTEX
8
ENGRAVE
10
354.5340
20
71.7079
30
0
0
VERTEX
8
ENGRAVE
10
354.4580
20
71.7027
30
0
0
VERTEX
8
ENGRAVE
10
354.3860
20
71.6939
30
0
0
VERTEX
8
ENGRAVE
10
354.3160
20
71.6816
30
0
0
VERTEX
8
ENGRAVE
10
354.2500
20
71.6659
30
0
0
VERTEX
8
ENGRAVE
10
354.1870
20
71.6466
30
0
0
VERTEX
8
ENGRAVE
10
354.1270
20
71.6238
30
0
0
VERTEX
8
ENGRAVE
10
354.0710
20
71.5975
30
0
0
VERTEX
8
ENGRAVE
10
354.0170
20
71.5677
30
0
0
VERTEX
8
ENGRAVE
10
353.9670
20
71.5344
30
0
0
VERTEX
8
ENGRAVE
10
353.9190
20
71.4975
30
0
0
VERTEX
8
ENGRAVE
10
353.8740
20
71.4566
30
0
0
VERTEX
8
ENGRAVE
10
353.8310
20
71.4119
30
0
0
VERTEX
8
ENGRAVE
10
353.7910
20
71.3633
30
0
0
VERTEX
8
ENGRAVE
10
353.7530
20
71.3108
30
0
0
VERTEX
8
ENGRAVE
10
353.7170
20
71.2544
30
0
0
VERTEX
8
ENGRAVE
10
353.6840
20
71.1942
30
0
0
VERTEX
8
ENGRAVE
10
353.6540
20
71.1301
30
0
0
VERTEX
8
ENGRAVE
10
353.6260
20
71.0621
30
0
0
VERTEX
8
ENGRAVE
10
353.6000
20
70.9903
30
0
0
VERTEX
8
ENGRAVE
10
353.5770
20
70.9144
30
0
0
VERTEX
8
ENGRAVE
10
353.5560
20
70.8342
30
0
0
VERTEX
8
ENGRAVE
10
353.5380
20
70.7497
30
0
0
VERTEX
8
ENGRAVE
10
353.5220
20
70.6609
30
0
0
VERTEX
8
ENGRAVE
10
353.5080
20
70.5678
30
0
0
VERTEX
8
ENGRAVE
10
353.4970
20
70.4704
30
0
0
VERTEX
8
ENGRAVE
10
353.4890
20
70.3688
30
0
0
VERTEX
8
ENGRAVE
10
353.4830
20
70.2628
30
0
0
VERTEX
8
ENGRAVE
10
353.4790
20
70.1526
30
0
0
VERTEX
8
ENGRAVE
10
353.4780
20
70.0381
30
0
0
VERTEX
8
ENGRAVE
10
353.4890
20
69.7205
30
0
0
VERTEX
8
ENGRAVE
10
353.5230
20
69.4363
30
0
0
VERTEX
8
ENGRAVE
10
353.5780
20
69.1856
30
0
0
VERTEX
8
ENGRAVE
10
353.6560
20
68.9683
30
0
0
VERTEX
8
ENGRAVE
10
353.7570
20
68.7844
30
0
0
VERTEX
8
ENGRAVE
10
353.8800
20
68.6340
30
0
0
VERTEX
8
ENGRAVE
10
354.0250
20
68.5170
30
0
0
VERTEX
8
ENGRAVE
10
354.1920
20
68.4334
30
0
0
VERTEX
8
ENGRAVE
10
354.3820
20
68.3832
30
0
0
VERTEX
8
ENGRAVE
10
354.5940
20
68.3665
30
0
0
SEQEND
8
ENGRAVE
0
POLYLINE
8
ENGRAVE
66
1
10
0
20
0
30
0
70
1
0
VERTEX
8
ENGRAVE
10
354.5620
20
68.8771
30
0
0
VERTEX
8
ENGRAVE
10
354.5270
20
68.8804
30
0
0
VERTEX
8
ENGRAVE
10
354.4940
20
68.8858
30
0
0
VERTEX
8
ENGRAVE
10
354.4630
20
68.8934
30
0
0
VERTEX
8
ENGRAVE
10
354.4340
20
68.9031
30
0
0
VERTEX
8
ENGRAVE
10
354.4060
20
68.9151
30
0
0
VERTEX
8
ENGRAVE
10
354.3800
20
68.9292
30
0
0
VERTEX
8
ENGRAVE
10
354.3560
20
68.9454
30
0
0
VERTEX
8
ENGRAVE
10
354.3340
20
68.9638
30
0
0
VERTEX
8
ENGRAVE
10
354.3140
20
68.9844
30
0
0
VERTEX
8
ENGRAVE
10
354.2950
20
69.0075
30
0
0
VERTEX
8
ENGRAVE
10
354.2770
20
69.0334
30
0
0
VERTEX
8
ENGRAVE
10
354.2600
20
69.0622
30
0
0
VERTEX
8
ENGRAVE
10
354.2440
20
69.0938
30
0
0
VERTEX
8
ENGRAVE
10
354.2290
20
69.1282
30
0
0
VERTEX
8
ENGRAVE
10
354.2150
20
69.1655
30
0
0
VERTEX
8
ENGRAVE
10
354.2020
20
69.2056
30
0
0
VERTEX
8
ENGRAVE
10
354.1910
20
69.2486
30
0
0
VERTEX
8
ENGRAVE
10
354.1800
20
69.2943
30
0
0
VERTEX
8
ENGRAVE
10
354.1710
20
69.3429
30
0
0
VERTEX
8
ENGRAVE
10
354.1620
20
69.3949
30
0
0
VERTEX
8
ENGRAVE
10
354.1550
20
69.4508
30
0
0
VERTEX
8
ENGRAVE
10
354.1480
20
69.5106
30
0
0
VERTEX
8
ENGRAVE
10
354.1420
20
69.5742
30
0
0
VERTEX
8
ENGRAVE
10
354.1370
20
69.6418
30
0
0
VERTEX
8
ENGRAVE
10
354.1330
20
69.7133
30
0
0
VERTEX
8
ENGRAVE
10
354.1300
20
69.7887
30
0
0
VERTEX
8
ENGRAVE
10
354.1280
20
69.8679
30
0
0
VERTEX
8
ENGRAVE
10
354.1260
20
69.9510
30
0
0
VERTEX
8
ENGRAVE
10
354.1260
20
70.0381
30
0
0
VERTEX
8
ENGRAVE
10
354.1260
20
70.1260
30
0
0
VERTEX
8
ENGRAVE
10
354.1270
20
70.2099
30
0
0
VERTEX
8
ENGRAVE
10
354.1300
20
70.2897
30
0
0
VERTEX
8
ENGRAVE
10
354.1330
20
70.3655
30
0
0
VERTEX
8
ENGRAVE
10
354.1360
20
70.4372
30
0
0
VERTEX
8
ENGRAVE
10
354.1410
20
70.5050
30
0
0
VERTEX
8
ENGRAVE
10
354.1470
20
70.5687
30
0
0
VERTEX
8
ENGRAVE
10
354.1530
20
70.6283
30
0
0
VERTEX
8
ENGRAVE
10
354.1600
20
70.6839
30
0
0
VERTEX
8
ENGRAVE
10
354.1680
20
70.7355
30
0
0
VERTEX
8
ENGRAVE
10
354.1780
20
70.7837
30
0
0
VERTEX
8
ENGRAVE
10
354.1880
20
70.8291
30
0
0
VERTEX
8
ENGRAVE
10
354.1990
20
70.8718
30
0
0
VERTEX
8
ENGRAVE
10
354.2120
20
70.9117
30
0
0
VERTEX
8
ENGRAVE
10
354.2250
20
70.9488
30
0
0
VERTEX
8
ENGRAVE
10
354.2400
20
70.9832
30
0
0
VERTEX
8
ENGRAVE
10
354.2560
20
71.0147
30
0
0
VERTEX
8
ENGRAVE
10
354.2740
20
71.0436
30
0
0
VERTEX
8
ENGRAVE
10
354.2920
20
71.0696
30
0
0
VERTEX
8
ENGRAVE
10
354.3110
20
71.0929
30
0
0
VERTEX
8
ENGRAVE
10
354.3320
20
71.1137
30
0
0
VERTEX
8
ENGRAVE
10
354.3550
20
71.1323
30
0
0
VERTEX
8
ENGRAVE
10
354.3800
20
71.1488
30
0
0
VERTEX
8
ENGRAVE
10
354.4070
20
71.1630
30
0
0
VERTEX
8
ENGRAVE
10
354.4360
20
71.1750
30
0
0
VERTEX
8
ENGRAVE
10
354.4660
20
71.1849
30
0
0
VERTEX
8
ENGRAVE
10
354.4990
20
71.1926
30
0
0
VERTEX
8
ENGRAVE
10
354.5330
20
71.1980
30
0
0
VERTEX
8
ENGRAVE
10
354.5690
20
71.2013
30
0
0
VERTEX
8
ENGRAVE
10
354.6080
20
71.2024
30
0
0
VERTEX
8
ENGRAVE
10
354.6440
20
71.2013
30
0
0
VERTEX
8
ENGRAVE
10
354.6780
20
71.1981
30
0
0
VERTEX
8
ENGRAVE
10
354.7100
20
71.1927
30
0
0
VERTEX
8
ENGRAVE
10
354.7410
20
71.1851
30
0
0
VERTEX
8
ENGRAVE
10
354.7700
20
71.1753
30
0
0
VERTEX
8
ENGRAVE
10
354.7970
20
71.1634
30
0
0
VERTEX
8
ENGRAVE
10
354.8230
20
71.1493
30
0
0
VERTEX
8
ENGRAVE
10
354.8470
20
71.1331
30
0
0
VERTEX
8
ENGRAVE
10
354.8690
20
71.1147
30
0
0
VERTEX
8
ENGRAVE
10
354.8890
20
71.0941
30
0
0
VERTEX
8
ENGRAVE
10
354.9080
20
71.0710
30
0
0
VERTEX
8
ENGRAVE
10
354.9260
20
71.0451
30
0
0
VERTEX
8
ENGRAVE
10
354.9420
20
71.0164
30
0
0
VERTEX
8
ENGRAVE
10
354.9580
20
70.9849
30
0
0
VERTEX
8
ENGRAVE
10
354.9730
20
70.9505
30
0
0
VERTEX
8
ENGRAVE
10
354.9860
20
70.9134
30
0
0
VERTEX
8
ENGRAVE
10
354.9990
20
70.8734
30
0
0
VERTEX
8
ENGRAVE
10
355.0100
20
70.8307
30
0
0
VERTEX
8
ENGRAVE
10
355.0200
20
70.7851
30
0
0
VERTEX
8
ENGRAVE
10
355.0300
20
70.7367
30
0
0
VERTEX
8
ENGRAVE
10
355.0380
20
70.6849
30
0
0
VERTEX
8
ENGRAVE
10
355.0450
20
70.6291
30
0
0
VERTEX
8
ENGRAVE
10
355.0520
20
70.5692
30
0
0
VERTEX
8
ENGRAVE
10
355.0580
20
70.5054
30
0
0
VERTEX
8
ENGRAVE
10
355.0620
20
70.4375
30
0
0
VERTEX
8
ENGRAVE
10
355.0660
20
70.3657
30
0
0
VERTEX
8
ENGRAVE
10
355.0690
20
70.2898
30
0
0
VERTEX
8
ENGRAVE
10
355.0720
20
70.2099
30
0
0
VERTEX
8
ENGRAVE
10
355.0730
20
70.1260
30
0
0
VERTEX
8
ENGRAVE
10
355.0730
20
70.0381
30
0
0
VERTEX
8
ENGRAVE
10
355.0730
20
69.9537
30
0
0
VERTEX
8
ENGRAVE
10
355.0720
20
69.8728
30
0
0
VERTEX
8
ENGRAVE
10
355.0690
20
69.7956
30
0
0
VERTEX
8
ENGRAVE
10
355.0660
20
69.7220
30
0
0
VERTEX
8
ENGRAVE
10
355.0620
20
69.6519
30
0
0
VERTEX
8
ENGRAVE
10
355.0570
20
69.5855
30
0
0
VERTEX
8
ENGRAVE
10
355.0510
20
69.5226
30
0
0
VERTEX
8
ENGRAVE
10
355.0450
20
69.4633
30
0
0
VERTEX
8
ENGRAVE
10
355.0370
20
69.4077
30
0
0
VERTEX
8
ENGRAVE
10
355.0280
20
69.3556
30
0
0
VERTEX
8
ENGRAVE
10
355.0190
20
69.3067
30
0
0
VERTEX
8
ENGRAVE
10
355.0080
20
69.2606
30
0
0
VERTEX
8
ENGRAVE
10
354.9960
20
69.2172
30
0
0
VERTEX
8
ENGRAVE
10
354.9840
20
69.1765
30
0
0
VERTEX
8
ENGRAVE
10
354.9700
20
69.1386
30
0
0
VERTEX
8
ENGRAVE
10
354.9550
20
69.1034
30
0
0
VERTEX
8
ENGRAVE
10
354.9380
20
69.0710
30
0
0
VERTEX
8
ENGRAVE
10
354.9210
20
69.0413
30
0
0
VERTEX
8
ENGRAVE
10
354.9030
20
69.0144
30
0
0
VERTEX
8
ENGRAVE
10
354.8830
20
68.9902
30
0
0
VERTEX
8
ENGRAVE
10
354.8620
20
68.9685
30
0
0
VERTEX
8
ENGRAVE
10
354.8400
20
68.9491
30
0
0
VERTEX
8
ENGRAVE
10
354.8150
20
68.9320
30
0
0
VERTEX
8
ENGRAVE
10
354.7890
20
68.9171
30
0
0
VERTEX
8
ENGRAVE
10
354.7620
20
68.9046
30
0
0
VERTEX
8
ENGRAVE
10
354.7330
20
68.8943
30
0
0
VERTEX
8
ENGRAVE
10
354.7020
20
68.8863
30
0
0
VERTEX
8
ENGRAVE
10
354.6690
20
68.8806
30
0
0
VERTEX
8
ENGRAVE
10
354.6340
20
68.8772
30
0
0
VERTEX
8
ENGRAVE
10
354.5980
20
68.8761
30
0
0
SEQEND
8
ENGRAVE
0
POLYLINE
8
ENGRAVE
66
1
10
0
20
0
30
0
70
1
0
VERTEX
8
ENGRAVE
10
356.8620
20
70.2477
30
0
0
VERTEX
8
ENGRAVE
10
356.9210
20
70.2541
30
0
0
VERTEX
8
ENGRAVE
10
356.9780
20
70.2648
30
0
0
VERTEX
8
ENGRAVE
10
357.0330
20
70.2797
30
0
0
VERTEX
8
ENGRAVE
10
357.0870
20
70.2989
30
0
0
VERTEX
8
ENGRAVE
10
357.1380
20
70.3224
30
0
0
VERTEX
8
ENGRAVE
10
357.1880
20
70.3501
30
0
0
VERTEX
8
ENGRAVE
10
357.2360
20
70.3821
30
0
0
VERTEX
8
ENGRAVE
10
357.2820
20
70.4183
30
0
0
VERTEX
8
ENGRAVE
10
357.3260
20
70.4588
30
0
0
VERTEX
8
ENGRAVE
10
357.3670
20
70.5024
30
0
0
VERTEX
8
ENGRAVE
10
357.4030
20
70.5476
30
0
0
VERTEX
8
ENGRAVE
10
357.4360
20
70.5946
30
0
0
VERTEX
8
ENGRAVE
10
357.4640
20
70.6433
30
0
0
VERTEX
8
ENGRAVE
10
357.4870
20
70.6937
30
0
0
VERTEX
8
ENGRAVE
10
357.5070
20
70.7459
30
0
0
VERTEX
8
ENGRAVE
10
357.5220
20
70.7998
30
0
0
VERTEX
8
ENGRAVE
10
357.5330
20
70.8554
30
0
0
VERTEX
8
ENGRAVE
10
357.5390
20
70.9128
30
0
0
VERTEX
8
ENGRAVE
10
357.5410
20
70.9719
30
0
0
VERTEX
8
ENGRAVE
10
357.5390
20
71.0309
30
0
0
VERTEX
8
ENGRAVE
10
357.5330
20
71.0883
30
0
0
VERTEX
8
ENGRAVE
10
357.5220
20
71.1439
30
0
0
VERTEX
8
ENGRAVE
10
357.5070
20
71.1978
30
0
0
VERTEX
8
ENGRAVE
10
357.4880
20
71.2500
30
0
0
VERTEX
8
ENGRAVE
10
357.4640
20
71.3004
30
0
0
VERTEX
8
ENGRAVE
10
357.4360
20
71.3491
30
0
0
VERTEX
8
ENGRAVE
10
357.4040
20
71.3961
30
0
0
VERTEX
8
ENGRAVE
10
357.3680
20
71.4413
30
0
0
VERTEX
8
ENGRAVE
10
357.3270
20
71.4849
30
0
0
VERTEX
8
ENGRAVE
10
357.2830
20
71.5254
30
0
0
VERTEX
8
ENGRAVE
10
357.2370
20
71.5616
30
0
0
VERTEX
8
ENGRAVE
10
357.1890
20
71.5936
30
0
0
VERTEX
8
ENGRAVE
10
357.1400
20
71.6214
30
0
0
VERTEX
8
ENGRAVE
10
357.0880
20
71.6448
30
0
0
VERTEX
8
ENGRAVE
10
357.0350
20
71.6640
30
0
0
VERTEX
8
ENGRAVE
10
356.9790
20
71.6789
30
0
0
VERTEX
8
ENGRAVE
10
356.9220
20
71.6896
30
0
0
VERTEX
8
ENGRAVE
10
356.8620
20
71.6960
30
0
0
VERTEX
8
ENGRAVE
10
356.8010
20
71.6981
30
0
0
VERTEX
8
ENGRAVE
10
356.7610
20
71.6972
30
0
0
VERTEX
8
ENGRAVE
10
356.7210
20
71.6943
30
0
0
VERTEX
8
ENGRAVE
10
356.6820
20
71.6895
30
0
0
VERTEX
8
ENGRAVE
10
356.6440
20
71.6828
30
0
0
VERTEX
8
ENGRAVE
10
356.6070
20
71.6742
30
0
0
VERTEX
8
ENGRAVE
10
356.5700
20
71.6637
30
0
0
VERTEX
8
ENGRAVE
10
356.5330
20
71.6512
30
0
0
VERTEX
8
ENGRAVE
10
356.4980
20
71.6369
30
0
0
VERTEX
8
ENGRAVE
10
356.4630
20
71.6206
30
0
0
VERTEX
8
ENGRAVE
10
356.4290
20
71.6024
30
0
0
VERTEX
8
ENGRAVE
10
356.3960
20
71.5826
30
0
0
VERTEX
8
ENGRAVE
10
356.3640
20
71.5612
30
0
0
VERTEX
8
ENGRAVE
10
356.3340
20
71.5385
30
0
0
VERTEX
8
ENGRAVE
10
356.3050
20
71.5143
30
0
0
VERTEX
8
ENGRAVE
10
356.2770
20
71.4886
30
0
0
VERTEX
8
ENGRAVE
10
356.2510
20
71.4615
30
0
0
VERTEX
8
ENGRAVE
10
356.2270
20
71.4329
30
0
0
VERTEX
8
ENGRAVE
10
356.2030
20
71.4029
30
0
0
VERTEX
8
ENGRAVE
10
356.1820
20
71.3714
30
0
0
VERTEX
8
ENGRAVE
10
356.1610
20
71.3385
30
0
0
VERTEX
8
ENGRAVE
10
356.1430
20
71.3045
30
0
0
VERTEX
8
ENGRAVE
10
356.1260
20
71.2699
30
0
0
VERTEX
8
ENGRAVE
10
356.1110
20
71.2348
30
0
0
VERTEX
8
ENGRAVE
10
356.0990
20
71.1990
30
0
0
VERTEX
8
ENGRAVE
10
356.0880
20
71.1627
30
0
0
VERTEX
8
ENGRAVE
10
356.0790
20
71.1257
30
0
0
VERTEX
8
ENGRAVE
10
356.0720
20
71.0881
30
0
0
VERTEX
8
ENGRAVE
10
356.0670
20
71.0500
30
0
0
VERTEX
8
ENGRAVE
10
356.0640
20
71.0112
30
0
0
VERTEX
8
ENGRAVE
10
356.0630
20
70.9719
30
0
0
VERTEX
8
ENGRAVE
10
356.0660
20
70.9115
30
0
0
VERTEX
8
ENGRAVE
10
356.0720
20
70.8531
30
0
0
VERTEX
8
ENGRAVE
10
356.0830
20
70.7966
30
0
0
VERTEX
8
ENGRAVE
10
356.0980
20
70.7420
30
0
0
VERTEX
8
ENGRAVE
10
356.1180
20
70.6894
30
0
0
VERTEX
8
ENGRAVE
10
356.1410
20
70.6387
30
0
0
VERTEX
8
ENGRAVE
10
356.1700
20
70.5900
30
0
0
VERTEX
8
ENGRAVE
10
356.2020
20
70.5432
30
0
0
VERTEX
8
ENGRAVE
10
356.2390
20
70.4983
30
0
0
VERTEX
8
ENGRAVE
10
356.2800
20
70.4554
30
0
0
VERTEX
8
ENGRAVE
10
356.3240
20
70.4155
30
0
0
VERTEX
8
ENGRAVE
10
356.3700
20
70.3799
30
0
0
VERTEX
8
ENGRAVE
10
356.4180
20
70.3484
30
0
0
VERTEX
8
ENGRAVE
10
356.4670
20
70.3211
30
0
0
VERTEX
8
ENGRAVE
10
356.5190
20
70.2980
30
0
0
VERTEX
8
ENGRAVE
10
356.5720
20
70.2792
30
0
0
VERTEX
8
ENGRAVE
10
356.6260
20
70.2645
30
0
0
VERTEX
8
ENGRAVE
10
356.6830
20
70.2540
30
0
0
VERTEX
8
ENGRAVE
10
356.7410
20
70.2477
30
0
0
VERTEX
8
ENGRAVE
10
356.8010
20
70.2456
30
0
0
SEQEND
8
ENGRAVE
0
POLYLINE
8
ENGRAVE
66
1
10
0
20
0
30
0
70
1
0
VERTEX
8
ENGRAVE
10
356.7700
20
70.5856
30
0
0
VERTEX
8
ENGRAVE
10
356.7400
20
70.5891
30
0
0
VERTEX
8
ENGRAVE
10
356.7110
20
70.5948
30
0
0
VERTEX
8
ENGRAVE
10
356.6830
20
70.6028
30
0
0
VERTEX
8
ENGRAVE
10
356.6550
20
70.6130
30
0
0
VERTEX
8
ENGRAVE
10
356.6290
20
70.6256
30
0
0
VERTEX
8
ENGRAVE
10
356.6030
20
70.6404
30
0
0
VERTEX
8
ENGRAVE
10
356.5780
20
70.6575
30
0
0
VERTEX
8
ENGRAVE
10
356.5540
20
70.6770
30
0
0
VERTEX
8
ENGRAVE
10
356.5310
20
70.6986
30
0
0
VERTEX
8
ENGRAVE
10
356.5100
20
70.7219
30
0
0
VERTEX
8
ENGRAVE
10
356.4910
20
70.7461
30
0
0
VERTEX
8
ENGRAVE
10
356.4740
20
70.7712
30
0
0
VERTEX
8
ENGRAVE
10
356.4590
20
70.7971
30
0
0
VERTEX
8
ENGRAVE
10
356.4470
20
70.8240
30
0
0
VERTEX
8
ENGRAVE
10
356.4360
20
70.8518
30
0
0
VERTEX
8
ENGRAVE
10
356.4290
20
70.8805
30
0
0
VERTEX
8
ENGRAVE
10
356.4230
20
70.9100
30
0
0
VERTEX
8
ENGRAVE
10
356.4200
20
70.9405
30
0
0
VERTEX
8
ENGRAVE
10
356.4180
20
70.9719
30
0
0
VERTEX
8
ENGRAVE
10
356.4200
20
71.0032
30
0
0
VERTEX
8
ENGRAVE
10
356.4230
20
71.0336
30
0
0
VERTEX
8
ENGRAVE
10
356.4280
20
71.0631
30
0
0
VERTEX
8
ENGRAVE
10
356.4360
20
71.0916
30
0
0
VERTEX
8
ENGRAVE
10
356.4460
20
71.1191
30
0
0
VERTEX
8
ENGRAVE
10
356.4580
20
71.1458
30
0
0
VERTEX
8
ENGRAVE
10
356.4720
20
71.1714
30
0
0
VERTEX
8
ENGRAVE
10
356.4890
20
71.1962
30
0
0
VERTEX
8
ENGRAVE
10
356.5070
20
71.2199
30
0
0
VERTEX
8
ENGRAVE
10
356.5280
20
71.2428
30
0
0
VERTEX
8
ENGRAVE
10
356.5500
20
71.2640
30
0
0
VERTEX
8
ENGRAVE
10
356.5740
20
71.2830
30
0
0
VERTEX
8
ENGRAVE
10
356.5990
20
71.2998
30
0
0
VERTEX
8
ENGRAVE
10
356.6240
20
71.3143
30
0
0
VERTEX
8
ENGRAVE
10
356.6510
20
71.3266
30
0
0
VERTEX
8
ENGRAVE
10
356.6790
20
71.3367
30
0
0
VERTEX
8
ENGRAVE
10
356.7080
20
71.3445
30
0
0
VERTEX
8
ENGRAVE
10
356.7380
20
71.3501
30
0
0
VERTEX
8
ENGRAVE
10
356.7690
20
71.3535
30
0
0
VERTEX
8
ENGRAVE
10
356.8010
20
71.3546
30
0
0
VERTEX
8
ENGRAVE
10
356.8330
20
71.3535
30
0
0
VERTEX
8
ENGRAVE
10
356.8640
20
71.3502
30
0
0
VERTEX
8
ENGRAVE
10
356.8930
20
71.3447
30
0
0
VERTEX
8
ENGRAVE
10
356.9220
20
71.3369
30
0
0
VERTEX
8
ENGRAVE
10
356.9490
20
71.3269
30
0
0
VERTEX
8
ENGRAVE
10
356.9750
20
71.3148
30
0
0
VERTEX
8
ENGRAVE
10
357.0010
20
71.3004
30
0
0
VERTEX
8
ENGRAVE
10
357.0250
20
71.2838
30
0
0
VERTEX
8
ENGRAVE
10
357.0480
20
71.2650
30
0
0
VERTEX
8
ENGRAVE
10
357.0700
20
71.2439
30
0
0
VERTEX
8
ENGRAVE
10
357.0900
20
71.2213
30
0
0
VERTEX
8
ENGRAVE
10
357.1080
20
71.1976
30
0
0
VERTEX
8
ENGRAVE
10
357.1240
20
71.1730
30
0
0
VERTEX
8
ENGRAVE
10
357.1380
20
71.1473
30
0
0
VERTEX
8
ENGRAVE
10
357.1500
20
71.1206
30
0
0
VERTEX
8
ENGRAVE
10
357.1600
20
71.0929
30
0
0
VERTEX
8
ENGRAVE
10
357.1670
20
71.0641
30
0
0
VERTEX
8
ENGRAVE
10
357.1730
20
71.0344
30
0
0
VERTEX
8
ENGRAVE
10
357.1760
20
71.0036
30
0
0
VERTEX
8
ENGRAVE
10
357.1770
20
70.9719
30
0
0
VERTEX
8
ENGRAVE
10
357.1760
20
70.9401
30
0
0
VERTEX
8
ENGRAVE
10
357.1730
20
70.9092
30
0
0
VERTEX
8
ENGRAVE
10
357.1670
20
70.8794
30
0
0
VERTEX
8
ENGRAVE
10
357.1590
20
70.8505
30
0
0
VERTEX
8
ENGRAVE
10
357.1490
20
70.8226
30
0
0
VERTEX
8
ENGRAVE
10
357.1370
20
70.7956
30
0
0
VERTEX
8
ENGRAVE
10
357.1230
20
70.7696
30
0
0
VERTEX
8
ENGRAVE
10
357.1060
20
70.7446
30
0
0
VERTEX
8
ENGRAVE
10
357.0870
20
70.7206
30
0
0
VERTEX
8
ENGRAVE
10
357.0660
20
70.6975
30
0
0
VERTEX
8
ENGRAVE
10
357.0440
20
70.6760
30
0
0
VERTEX
8
ENGRAVE
10
357.0200
20
70.6568
30
0
0
VERTEX
8
ENGRAVE
10
356.9960
20
70.6399
30
0
0
VERTEX
8
ENGRAVE
10
356.9710
20
70.6252
30
0
0
VERTEX
8
ENGRAVE
10
356.9450
20
70.6127
30
0
0
VERTEX
8
ENGRAVE
10
356.9180
20
70.6026
30
0
0
VERTEX
8
ENGRAVE
10
356.8900
20
70.5947
30
0
0
VERTEX
8
ENGRAVE
10
356.8610
20
70.5890
30
0
0
VERTEX
8
ENGRAVE
10
356.8320
20
70.5856
30
0
0
VERTEX
8
ENGRAVE
10
356.8010
20
70.5845
30
0
0
SEQEND
8
ENGRAVE
0
POLYLINE
8
ENGRAVE
66
1
10
0
20
0
30
0
70
1
0
VERTEX
8
ENGRAVE
10
353.2210
20
68.8945
30
0
0
VERTEX
8
ENGRAVE
10
352.4760
20
68.8945
30
0
0
VERTEX
8
ENGRAVE
10
352.4760
20
71.6613
30
0
0
VERTEX
8
ENGRAVE
10
351.8630
20
71.6613
30
0
0
VERTEX
8
ENGRAVE
10
351.0490
20
71.1333
30
0
0
VERTEX
8
ENGRAVE
10
351.0490
20
70.6237
30
0
0
VERTEX
8
ENGRAVE
10
351.8290
20
71.1102
30
0
0
VERTEX
8
ENGRAVE
10
351.8290
20
68.8945
30
0
0
VERTEX
8
ENGRAVE
10
351.0240
20
68.8945
30
0
0
VERTEX
8
ENGRAVE
10
351.0240
20
68.4126
30
0
0
VERTEX
8
ENGRAVE
10
353.2210
20
68.4126
30
0
0
SEQEND
8
ENGRAVE
0
POLYLINE
8
ENGRAVE
66
1
10
0
20
0
30
0
70
1
0
VERTEX
8
ENGRAVE
10
360.1000
20
70.3500
30
0
0
VERTEX
8
ENGRAVE
10
358.3000
20
70.3500
30
0
0
VERTEX
8
ENGRAVE
10
358.3000
20
69.6500
30
0
0
VERTEX
8
ENGRAVE
10
360.1000
20
69.6500
30
0
0
SEQEND
8
ENGRAVE
0
POLYLINE
8
ENGRAVE
66
1
10
0
20
0
30
0
70
1
0
VERTEX
8
ENGRAVE
10
353.1630
20
48.9452
30
0
0
VERTEX
8
ENGRAVE
10
351.6560
20
48.9452
30
0
0
VERTEX
8
ENGRAVE
10
351.6690
20
48.9750
30
0
0
VERTEX
8
ENGRAVE
10
351.6840
20
49.0045
30
0
0
VERTEX
8
ENGRAVE
10
351.7000
20
49.0335
30
0
0
VERTEX
8
ENGRAVE
10
351.7180
20
49.0622
30
0
0
VERTEX
8
ENGRAVE
10
351.7370
20
49.0905
30
0
0
VERTEX
8
ENGRAVE
10
351.7580
20
49.1184
30
0
0
VERTEX
8
ENGRAVE
10
351.7790
20
49.1460
30
0
0
VERTEX
8
ENGRAVE
10
351.8020
20
49.1732
30
0
0
VERTEX
8
ENGRAVE
10
351.8270
20
49.2001
30
0
0
VERTEX
8
ENGRAVE
10
351.8530
20
49.2265
30
0
0
VERTEX
8
ENGRAVE
10
351.8800
20
49.2528
30
0
0
VERTEX
8
ENGRAVE
10
351.9070
20
49.2790
30
0
0
VERTEX
8
ENGRAVE
10
351.9350
20
49.3052
30
0
0
VERTEX
8
ENGRAVE
10
351.9630
20
49.3313
30
0
0
VERTEX
8
ENGRAVE
10
351.9930
20
49.3574
30
0
0
VERTEX
8
ENGRAVE
10
352.0220
20
49.3834
30
0
0
VERTEX
8
ENGRAVE
10
352.0520
20
49.4094
30
0
0
VERTEX
8
ENGRAVE
10
352.0830
20
49.4353
30
0
0
VERTEX
8
ENGRAVE
10
352.1150
20
49.4612
30
0
0
VERTEX
8
ENGRAVE
10
352.1470
20
49.4870
30
0
0
VERTEX
8
ENGRAVE
10
352.2440
20
49.5651
30
0
0
VERTEX
8
ENGRAVE
10
352.3110
20
49.6179
30
0
0
VERTEX
8
ENGRAVE
10
352.3780
20
49.6712
30
0
0
VERTEX
8
ENGRAVE
10
352.4800
20
49.7522
30
0
0
VERTEX
8
ENGRAVE
10
352.5140
20
49.7796
30
0
0
VERTEX
8
ENGRAVE
10
352.5470
20
49.8074
30
0
0
VERTEX
8
ENGRAVE
10
352.5800
20
49.8356
30
0
0
VERTEX
8
ENGRAVE
10
352.6120
20
49.8642
30
0
0
VERTEX
8
ENGRAVE
10
352.6440
20
49.8931
30
0
0
VERTEX
8
ENGRAVE
10
352.6750
20
49.9225
30
0
0
VERTEX
8
ENGRAVE
10
352.7050
20
49.9522
30
0
0
VERTEX
8
ENGRAVE
10
352.7350
20
49.9824
30
0
0
VERTEX
8
ENGRAVE
10
352.7640
20
50.0129
30
0
0
VERTEX
8
ENGRAVE
10
352.7920
20
50.0438
30
0
0
VERTEX
8
ENGRAVE
10
352.8200
20
50.0753
30
0
0
VERTEX
8
ENGRAVE
10
352.8470
20
50.1073
30
0
0
VERTEX
8
ENGRAVE
10
352.8720
20
50.1398
30
0
0
VERTEX
8
ENGRAVE
10
352.8970
20
50.1730
30
0
0
VERTEX
8
ENGRAVE
10
352.9200
20
50.2067
30
0
0
VERTEX
8
ENGRAVE
10
352.9430
20
50.2410
30
0
0
VERTEX
8
ENGRAVE
10
352.9640
20
50.2759
30
0
0
VERTEX
8
ENGRAVE
10
352.9850
20
50.3113
30
0
0
VERTEX
8
ENGRAVE
10
353.0040
20
50.3473
30
0
0
VERTEX
8
ENGRAVE
10
353.0230
20
50.3839
30
0
0
VERTEX
8
ENGRAVE
10
353.0400
20
50.4213
30
0
0
VERTEX
8
ENGRAVE
10
353.0550
20
50.4595
30
0
0
VERTEX
8
ENGRAVE
10
353.0690
20
50.4986
30
0
0
VERTEX
8
ENGRAVE
10
353.0800
20
50.5385
30
0
0
VERTEX
8
ENGRAVE
10
353.0900
20
50.5793
30
0
0
VERTEX
8
ENGRAVE
10
353.0980
20
50.6210
30
0
0
VERTEX
8
ENGRAVE
10
353.1050
20
50.6636
30
0
0
VERTEX
8
ENGRAVE
10
353.1090
20
50.7071
30
0
0
VERTEX
8
ENGRAVE
10
353.1120
20
50.7514
30
0
0
VERTEX
8
ENGRAVE
10
353.1130
20
50.7966
30
0
0
VERTEX
8
ENGRAVE
10
353.1100
20
50.8814
30
0
0
VERTEX
8
ENGRAVE
10
353.1020
20
50.9623
30
0
0
VERTEX
8
ENGRAVE
10
353.0870
20
51.0393
30
0
0
VERTEX
8
ENGRAVE
10
353.0680
20
51.1124
30
0
0
VERTEX
8
ENGRAVE
10
353.0420
20
51.1817
30
0
0
VERTEX
8
ENGRAVE
10
353.0110
20
51.2471
30
0
0
VERTEX
8
ENGRAVE
10
352.9750
20
51.3086
30
0
0
VERTEX
8
ENGRAVE
10
352.9330
20
51.3662
30
0
0
VERTEX
8
ENGRAVE
10
352.8850
20
51.4200
30
0
0
VERTEX
8
ENGRAVE
10
352.8310
20
51.4699
30
0
0
VERTEX
8
ENGRAVE
10
352.7730
20
51.5154
30
0
0
VERTEX
8
ENGRAVE
10
352.7090
20
51.5562
30
0
0
VERTEX
8
ENGRAVE
10
352.6410
20
51.5922
30
0
0
VERTEX
8
ENGRAVE
10
352.5670
20
51.6233
30
0
0
VERTEX
8
ENGRAVE
10
352.4890
20
51.6497
30
0
0
VERTEX
8
ENGRAVE
10
352.4060
20
51.6713
30
0
0
VERTEX
8
ENGRAVE
10
352.3180
20
51.6881
30
0
0
VERTEX
8
ENGRAVE
10
352.2250
20
51.7001
30
0
0
VERTEX
8
ENGRAVE
10
352.1270
20
51.7073
30
0
0
VERTEX
8
ENGRAVE
10
352.0240
20
51.7097
30
0
0
VERTEX
8
ENGRAVE
10
351.9290
20
51.7073
30
0
0
VERTEX
8
ENGRAVE
10
351.8380
20
51.7002
30
0
0
VERTEX
8
ENGRAVE
10
351.7510
20
51.6883
30
0
0
VERTEX
8
ENGRAVE
10
351.6680
20
51.6717
30
0
0
VERTEX
8
ENGRAVE
10
351.5890
20
51.6503
30
0
0
VERTEX
8
ENGRAVE
10
351.5140
20
51.6242
30
0
0
VERTEX
8
ENGRAVE
10
351.4430
20
51.5933
30
0
0
VERTEX
8
ENGRAVE
10
351.3770
20
51.5577
30
0
0
VERTEX
8
ENGRAVE
10
351.3140
20
51.5173
30
0
0
VERTEX
8
ENGRAVE
10
351.2560
20
51.4722
30
0
0
VERTEX
8
ENGRAVE
10
351.2010
20
51.4225
30
0
0
VERTEX
8
ENGRAVE
10
351.1520
20
51.3686
30
0
0
VERTEX
8
ENGRAVE
10
351.1070
20
51.3104
30
0
0
VERTEX
8
ENGRAVE
10
351.0660
20
51.2479
30
0
0
VERTEX
8
ENGRAVE
10
351.0300
20
51.1811
30
0
0
VERTEX
8
ENGRAVE
10
350.9980
20
51.1100
30
0
0
VERTEX
8
ENGRAVE
10
350.9710
20
51.0347
30
0
0
VERTEX
8
ENGRAVE
10
350.9490
20
50.9550
30
0
0
VERTEX
8
ENGRAVE
10
350.9310
20
50.8710
30
0
0
VERTEX
8
ENGRAVE
10
350.9180
20
50.7828
30
0
0
VERTEX
8
ENGRAVE
10
351.5700
20
50.7459
30
0
0
VERTEX
8
ENGRAVE
10
351.5780
20
50.7895
30
0
0
VERTEX
8
ENGRAVE
10
351.5860
20
50.8309
30
0
0
VERTEX
8
ENGRAVE
10
351.5970
20
50.8700
30
0
0
VERTEX
8
ENGRAVE
10
351.6080
20
50.9069
30
0
0
VERTEX
8
ENGRAVE
10
351.6220
20
50.9416
30
0
0
VERTEX
8
ENGRAVE
10
351.6370
20
50.9740
30
0
0
VERTEX
8
ENGRAVE
10
351.6530
20
51.0042
30
0
0
VERTEX
8
ENGRAVE
10
351.6710
20
51.0322
30
0
0
VERTEX
8
ENGRAVE
10
351.6910
20
51.0579
30
0
0
VERTEX
8
ENGRAVE
10
351.7120
20
51.0814
30
0
0
VERTEX
8
ENGRAVE
10
351.7350
20
51.1026
30
0
0
VERTEX
8
ENGRAVE
10
351.7600
20
51.1216
30
0
0
VERTEX
8
ENGRAVE
10
351.7870
20
51.1384
30
0
0
VERTEX
8
ENGRAVE
10
351.8150
20
51.1530
30
0
0
VERTEX
8
ENGRAVE
10
351.8460
20
51.1653
30
0
0
VERTEX
8
ENGRAVE
10
351.8790
20
51.1753
30
0
0
VERTEX
8
ENGRAVE
10
351.9130
20
51.1831
30
0
0
VERTEX
8
ENGRAVE
10
351.9500
20
51.1887
30
0
0
VERTEX
8
ENGRAVE
10
351.9890
20
51.1921
30
0
0
VERTEX
8
ENGRAVE
10
352.0290
20
51.1932
30
0
0
VERTEX
8
ENGRAVE
10
352.1100
20
51.1890
30
0
0
VERTEX
8
ENGRAVE
10
352.1830
20
51.1762
30
0
0
VERTEX
8
ENGRAVE
10
352.2470
20
51.1550
30
0
0
VERTEX
8
ENGRAVE
10
352.3020
20
51.1253
30
0
0
VERTEX
8
ENGRAVE
10
352.3490
20
51.0871
30
0
0
VERTEX
8
ENGRAVE
10
352.3870
20
51.0405
30
0
0
VERTEX
8
ENGRAVE
10
352.4170
20
50.9853
30
0
0
VERTEX
8
ENGRAVE
10
352.4390
20
50.9217
30
0
0
VERTEX
8
ENGRAVE
10
352.4510
20
50.8496
30
0
0
VERTEX
8
ENGRAVE
10
352.4560
20
50.7690
30
0
0
VERTEX
8
ENGRAVE
10
352.4540
20
50.7343
30
0
0
VERTEX
8
ENGRAVE
10
352.4500
20
50.6995
30
0
0
VERTEX
8
ENGRAVE
10
352.4430
20
50.6646
30
0
0
VERTEX
8
ENGRAVE
10
352.4340
20
50.6295
30
0
0
VERTEX
8
ENGRAVE
10
352.4210
20
50.5943
30
0
0
VERTEX
8
ENGRAVE
10
352.4060
20
50.5590
30
0
0
VERTEX
8
ENGRAVE
10
352.3880
20
50.5235
30
0
0
VERTEX
8
ENGRAVE
10
352.3680
20
50.4879
30
0
0
VERTEX
8
ENGRAVE
10
352.3450
20
50.4521
30
0
0
VERTEX
8
ENGRAVE
10
352.3180
20
50.4162
30
0
0
VERTEX
8
ENGRAVE
10
352.2890
20
50.3793
30
0
0
VERTEX
8
ENGRAVE
10
352.2550
20
50.3404
30
0
0
VERTEX
8
ENGRAVE
10
352.2180
20
50.2996
30
0
0
VERTEX
8
ENGRAVE
10
352.1760
20
50.2569
30
0
0
VERTEX
8
ENGRAVE
10
352.1300
20
50.2122
30
0
0
VERTEX
8
ENGRAVE
10
352.0800
20
50.1655
30
0
0
VERTEX
8
ENGRAVE
10
352.0260
20
50.1170
30
0
0
VERTEX
8
ENGRAVE
10
351.9680
20
50.0665
30
0
0
VERTEX
8
ENGRAVE
10
351.9060
20
50.0141
30
0
0
VERTEX
8
ENGRAVE
10
351.8400
20
49.9597
30
0
0
VERTEX
8
ENGRAVE
10
351.7700
20
49.9023
30
0
0
VERTEX
8
ENGRAVE
10
351.7030
20
49.8454
30
0
0
VERTEX
8
ENGRAVE
10
351.6380
20
49.7889
30
0
0
VERTEX
8
ENGRAVE
10
351.5750
20
49.7328
30
0
0
VERTEX
8
ENGRAVE
10
351.5150
20
49.6773
30
0
0
VERTEX
8
ENGRAVE
10
351.4580
20
49.6222
30
0
0
VERTEX
8
ENGRAVE
10
351.4020
20
49.5675
30
0
0
VERTEX
8
ENGRAVE
10
351.3490
20
49.5133
30
0
0
VERTEX
8
ENGRAVE
10
351.2990
20
49.4596
30
0
0
VERTEX
8
ENGRAVE
10
351.2510
20
49.4064
30
0
0
VERTEX
8
ENGRAVE
10
351.2050
20
49.3532
30
0
0
VERTEX
8
ENGRAVE
10
351.1620
20
49.2997
30
0
0
VERTEX
8
ENGRAVE
10
351.1200
20
49.2460
30
0
0
VERTEX
8
ENGRAVE
10
351.0810
20
49.1920
30
0
0
VERTEX
8
ENGRAVE
10
351.0440
20
49.1378
30
0
0
VERTEX
8
ENGRAVE
10
351.0090
20
49.0832
30
0
0
VERTEX
8
ENGRAVE
10
350.9760
20
49.0284
30
0
0
VERTEX
8
ENGRAVE
10
350.9450
20
48.9733
30
0
0
VERTEX
8
ENGRAVE
10
350.9170
20
48.9179
30
0
0
VERTEX
8
ENGRAVE
10
350.8900
20
48.8622
30
0
0
VERTEX
8
ENGRAVE
10
350.8900
20
48.4126
30
0
0
VERTEX
8
ENGRAVE
10
353.1630
20
48.4126
30
0
0
SEQEND
8
ENGRAVE
0
POLYLINE
8
ENGRAVE
66
1
10
0
20
0
30
0
70
1
0
VERTEX
8
ENGRAVE
10
354.7040
20
48.3708
30
0
0
VERTEX
8
ENGRAVE
10
354.8080
20
48.3835
30
0
0
VERTEX
8
ENGRAVE
10
354.9070
20
48.4047
30
0
0
VERTEX
8
ENGRAVE
10
355.0010
20
48.4344
30
0
0
VERTEX
8
ENGRAVE
10
355.0880
20
48.4726
30
0
0
VERTEX
8
ENGRAVE
10
355.1700
20
48.5192
30
0
0
VERTEX
8
ENGRAVE
10
355.2460
20
48.5744
30
0
0
VERTEX
8
ENGRAVE
10
355.3170
20
48.6380
30
0
0
VERTEX
8
ENGRAVE
10
355.3820
20
48.7101
30
0
0
VERTEX
8
ENGRAVE
10
355.4410
20
48.7907
30
0
0
VERTEX
8
ENGRAVE
10
355.4950
20
48.8796
30
0
0
VERTEX
8
ENGRAVE
10
355.5430
20
48.9764
30
0
0
VERTEX
8
ENGRAVE
10
355.5850
20
49.0812
30
0
0
VERTEX
8
ENGRAVE
10
355.6220
20
49.1940
30
0
0
VERTEX
8
ENGRAVE
10
355.6530
20
49.3147
30
0
0
VERTEX
8
ENGRAVE
10
355.6780
20
49.4434
30
0
0
VERTEX
8
ENGRAVE
10
355.6980
20
49.5801
30
0
0
VERTEX
8
ENGRAVE
10
355.7120
20
49.7248
30
0
0
VERTEX
8
ENGRAVE
10
355.7210
20
49.8775
30
0
0
VERTEX
8
ENGRAVE
10
355.7240
20
50.0381
30
0
0
VERTEX
8
ENGRAVE
10
355.7210
20
50.2013
30
0
0
VERTEX
8
ENGRAVE
10
355.7130
20
50.3561
30
0
0
VERTEX
8
ENGRAVE
10
355.6990
20
50.5025
30
0
0
VERTEX
8
ENGRAVE
10
355.6810
20
50.6405
30
0
0
VERTEX
8
ENGRAVE
10
355.6570
20
50.7701
30
0
0
VERTEX
8
ENGRAVE
10
355.6270
20
50.8914
30
0
0
VERTEX
8
ENGRAVE
10
355.5930
20
51.0042
30
0
0
VERTEX
8
ENGRAVE
10
355.5520
20
51.1086
30
0
0
VERTEX
8
ENGRAVE
10
355.5070
20
51.2047
30
0
0
VERTEX
8
ENGRAVE
10
355.4560
20
51.2923
30
0
0
VERTEX
8
ENGRAVE
10
355.4000
20
51.3716
30
0
0
VERTEX
8
ENGRAVE
10
355.3370
20
51.4426
30
0
0
VERTEX
8
ENGRAVE
10
355.2680
20
51.5052
30
0
0
VERTEX
8
ENGRAVE
10
355.1930
20
51.5594
30
0
0
VERTEX
8
ENGRAVE
10
355.1110
20
51.6053
30
0
0
VERTEX
8
ENGRAVE
10
355.0240
20
51.6429
30
0
0
VERTEX
8
ENGRAVE
10
354.9300
20
51.6721
30
0
0
VERTEX
8
ENGRAVE
10
354.8300
20
51.6930
30
0
0
VERTEX
8
ENGRAVE
10
354.7240
20
51.7055
30
0
0
VERTEX
8
ENGRAVE
10
354.6120
20
51.7097
30
0
0
VERTEX
8
ENGRAVE
10
354.5340
20
51.7079
30
0
0
VERTEX
8
ENGRAVE
10
354.4580
20
51.7027
30
0
0
VERTEX
8
ENGRAVE
10
354.3860
20
51.6939
30
0
0
VERTEX
8
ENGRAVE
10
354.3160
20
51.6816
30
0
0
VERTEX
8
ENGRAVE
10
354.2500
20
51.6659
30
0
0
VERTEX
8
ENGRAVE
10
354.1870
20
51.6466
30
0
0
VERTEX
8
ENGRAVE
10
354.1270
20
51.6238
30
0
0
VERTEX
8
ENGRAVE
10
354.0710
20
51.5975
30
0
0
VERTEX
8
ENGRAVE
10
354.0170
20
51.5677
30
0
0
VERTEX
8
ENGRAVE
10
353.9670
20
51.5344
30
0
0
VERTEX
8
ENGRAVE
10
353.9190
20
51.4975
30
0
0
VERTEX
8
ENGRAVE
10
353.8740
20
51.4566
30
0
0
VERTEX
8
ENGRAVE
10
353.8310
20
51.4119
30
0
0
VERTEX
8
ENGRAVE
10
353.7910
20
51.3633
30
0
0
VERTEX
8
ENGRAVE
10
353.7530
20
51.3108
30
0
0
VERTEX
8
ENGRAVE
10
353.7170
20
51.2544
30
0
0
VERTEX
8
ENGRAVE
10
353.6840
20
51.1942
30
0
0
VERTEX
8
ENGRAVE
10
353.6540
20
51.1301
30
0
0
VERTEX
8
ENGRAVE
10
353.6260
20
51.0621
30
0
0
VERTEX
8
ENGRAVE
10
353.6000
20
50.9903
30
0
0
VERTEX
8
ENGRAVE
10
353.5770
20
50.9144
30
0
0
VERTEX
8
ENGRAVE
10
353.5560
20
50.8342
30
0
0
VERTEX
8
ENGRAVE
10
353.5380
20
50.7497
30
0
0
VERTEX
8
ENGRAVE
10
353.5220
20
50.6609
30
0
0
VERTEX
8
ENGRAVE
10
353.5080
20
50.5678
30
0
0
VERTEX
8
ENGRAVE
10
353.4970
20
50.4704
30
0
0
VERTEX
8
ENGRAVE
10
353.4890
20
50.3688
30
0
0
VERTEX
8
ENGRAVE
10
353.4830
20
50.2628
30
0
0
VERTEX
8
ENGRAVE
10
353.4790
20
50.1526
30
0
0
VERTEX
8
ENGRAVE
10
353.4780
20
50.0381
30
0
0
VERTEX
8
ENGRAVE
10
353.4890
20
49.7205
30
0
0
VERTEX
8
ENGRAVE
10
353.5230
20
49.4363
30
0
0
VERTEX
8
ENGRAVE
10
353.5780
20
49.1856
30
0
0
VERTEX
8
ENGRAVE
10
353.6560
20
48.9683
30
0
0
VERTEX
8
ENGRAVE
10
353.7570
20
48.7844
30
0
0
VERTEX
8
ENGRAVE
10
353.8800
20
48.6340
30
0
0
VERTEX
8
ENGRAVE
10
354.0250
20
48.5170
30
0
0
VERTEX
8
ENGRAVE
10
354.1920
20
48.4334
30
0
0
VERTEX
8
ENGRAVE
10
354.3820
20
48.3832
30
0
0
VERTEX
8
ENGRAVE
10
354.5940
20
48.3665
30
0
0
SEQEND
8
ENGRAVE
0
POLYLINE
8
ENGRAVE
66
1
10
0
20
0
30
0
70
1
0
VERTEX
8
ENGRAVE
10
354.5620
20
48.8771
30
0
0
VERTEX
8
ENGRAVE
10
354.5270
20
48.8804
30
0
0
VERTEX
8
ENGRAVE
10
354.4940
20
48.8858
30
0
0
VERTEX
8
ENGRAVE
10
354.4630
20
48.8934
30
0
0
VERTEX
8
ENGRAVE
10
354.4340
20
48.9031
30
0
0
VERTEX
8
ENGRAVE
10
354.4060
20
48.9151
30
0
0
VERTEX
8
ENGRAVE
10
354.3800
20
48.9292
30
0
0
VERTEX
8
ENGRAVE
10
354.3560
20
48.9454
30
0
0
VERTEX
8
ENGRAVE
10
354.3340
20
48.9638
30
0
0
VERTEX
8
ENGRAVE
10
354.3140
20
48.9844
30
0
0
VERTEX
8
ENGRAVE
10
354.2950
20
49.0075
30
0
0
VERTEX
8
ENGRAVE
10
354.2770
20
49.0334
30
0
0
VERTEX
8
ENGRAVE
10
354.2600
20
49.0622
30
0
0
VERTEX
8
ENGRAVE
10
354.2440
20
49.0938
30
0
0
VERTEX
8
ENGRAVE
10
354.2290
20
49.1282
30
0
0
VERTEX
8
ENGRAVE
10
354.2150
20
49.1655
30
0
0
VERTEX
8
ENGRAVE
10
354.2020
20
49.2056
30
0
0
VERTEX
8
ENGRAVE
10
354.1910
20
49.2486
30
0
0
VERTEX
8
ENGRAVE
10
354.1800
20
49.2943
30
0
0
VERTEX
8
ENGRAVE
10
354.1710
20
49.3429
30
0
0
VERTEX
8
ENGRAVE
10
354.1620
20
49.3949
30
0
0
VERTEX
8
ENGRAVE
10
354.1550
20
49.4508
30
0
0
VERTEX
8
ENGRAVE
10
354.1480
20
49.5106
30
0
0
VERTEX
8
ENGRAVE
10
354.1420
20
49.5742
30
0
0
VERTEX
8
ENGRAVE
10
354.1370
20
49.6418
30
0
0
VERTEX
8
ENGRAVE
10
354.1330
20
49.7133
30
0
0
VERTEX
8
ENGRAVE
10
354.1300
20
49.7887
30
0
0
VERTEX
8
ENGRAVE
10
354.1280
20
49.8679
30
0
0
VERTEX
8
ENGRAVE
10
354.1260
20
49.9510
30
0
0
VERTEX
8
ENGRAVE
10
354.1260
20
50.0381
30
0
0
VERTEX
8
ENGRAVE
10
354.1260
20
50.1260
30
0
0
VERTEX
8
ENGRAVE
10
354.1270
20
50.2099
30
0
0
VERTEX
8
ENGRAVE
10
354.1300
20
50.2897
30
0
0
VERTEX
8
ENGRAVE
10
354.1330
20
50.3655
30
0
0
VERTEX
8
ENGRAVE
10
354.1360
20
50.4372
30
0
0
VERTEX
8
ENGRAVE
10
354.1410
20
50.5050
30
0
0
VERTEX
8
ENGRAVE
10
354.1470
20
50.5687
30
0
0
VERTEX
8
ENGRAVE
10
354.1530
20
50.6283
30
0
0
VERTEX
8
ENGRAVE
10
354.1600
20
50.6839
30
0
0
VERTEX
8
ENGRAVE
10
354.1680
20
50.7355
30
0
0
VERTEX
8
ENGRAVE
10
354.1780
20
50.7837
30
0
0
VERTEX
8
ENGRAVE
10
354.1880
20
50.8291
30
0
0
VERTEX
8
ENGRAVE
10
354.1990
20
50.8718
30
0
0
VERTEX
8
ENGRAVE
10
354.2120
20
50.9117
30
0
0
VERTEX
8
ENGRAVE
10
354.2250
20
50.9488
30
0
0
VERTEX
8
ENGRAVE
10
354.2400
20
50.9832
30
0
0
VERTEX
8
ENGRAVE
10
354.2560
20
51.0147
30
0
0
VERTEX
8
ENGRAVE
10
354.2740
20
51.0436
30
0
0
VERTEX
8
ENGRAVE
10
354.2920
20
51.0696
30
0
0
VERTEX
8
ENGRAVE
10
354.3110
20
51.0929
30
0
0
VERTEX
8
ENGRAVE
10
354.3320
20
51.1137
30
0
0
VERTEX
8
ENGRAVE
10
354.3550
20
51.1323
30
0
0
VERTEX
8
ENGRAVE
10
354.3800
20
51.1488
30
0
0
VERTEX
8
ENGRAVE
10
354.4070
20
51.1630
30
0
0
VERTEX
8
ENGRAVE
10
354.4360
20
51.1750
30
0
0
VERTEX
8
ENGRAVE
10
354.4660
20
51.1849
30
0
0
VERTEX
8
ENGRAVE
10
354.4990
20
51.1926
30
0
0
VERTEX
8
ENGRAVE
10
354.5330
20
51.1980
30
0
0
VERTEX
8
ENGRAVE
10
354.5690
20
51.2013
30
0
0
VERTEX
8
ENGRAVE
10
354.6080
20
51.2024
30
0
0
VERTEX
8
ENGRAVE
10
354.6440
20
51.2013
30
0
0
VERTEX
8
ENGRAVE
10
354.6780
20
51.1981
30
0
0
VERTEX
8
ENGRAVE
10
354.7100
20
51.1927
30
0
0
VERTEX
8
ENGRAVE
10
354.7410
20
51.1851
30
0
0
VERTEX
8
ENGRAVE
10
354.7700
20
51.1753
30
0
0
VERTEX
8
ENGRAVE
10
354.7970
20
51.1634
30
0
0
VERTEX
8
ENGRAVE
10
354.8230
20
51.1493
30
0
0
VERTEX
8
ENGRAVE
10
354.8470
20
51.1331
30
0
0
VERTEX
8
ENGRAVE
10
354.8690
20
51.1147
30
0
0
VERTEX
8
ENGRAVE
10
354.8890
20
51.0941
30
0
0
VERTEX
8
ENGRAVE
10
354.9080
20
51.0710
30
0
0
VERTEX
8
ENGRAVE
10
354.9260
20
51.0451
30
0
0
VERTEX
8
ENGRAVE
10
354.9420
20
51.0164
30
0
0
VERTEX
8
ENGRAVE
10
354.9580
20
50.9849
30
0
0
VERTEX
8
ENGRAVE
10
354.9730
20
50.9505
30
0
0
VERTEX
8
ENGRAVE
10
354.9860
20
50.9134
30
0
0
VERTEX
8
ENGRAVE
10
354.9990
20
50.8734
30
0
0
VERTEX
8
ENGRAVE
10
355.0100
20
50.8307
30
0
0
VERTEX
8
ENGRAVE
10
355.0200
20
50.7851
30
0
0
VERTEX
8
ENGRAVE
10
355.0300
20
50.7367
30
0
0
VERTEX
8
ENGRAVE
10
355.0380
20
50.6849
30
0
0
VERTEX
8
ENGRAVE
10
355.0450
20
50.6291
30
0
0
VERTEX
8
ENGRAVE
10
355.0520
20
50.5692
30
0
0
VERTEX
8
ENGRAVE
10
355.0580
20
50.5054
30
0
0
VERTEX
8
ENGRAVE
10
355.0620
20
50.4375
30
0
0
VERTEX
8
ENGRAVE
10
355.0660
20
50.3657
30
0
0
VERTEX
8
ENGRAVE
10
355.0690
20
50.2898
30
0
0
VERTEX
8
ENGRAVE
10
355.0720
20
50.2099
30
0
0
VERTEX
8
ENGRAVE
10
355.0730
20
50.1260
30
0
0
VERTEX
8
ENGRAVE
10
355.0730
20
50.0381
30
0
0
VERTEX
8
ENGRAVE
10
355.0730
20
49.9537
30
0
0
VERTEX
8
ENGRAVE
10
355.0720
20
49.8728
30
0
0
VERTEX
8
ENGRAVE
10
355.0690
20
49.7956
30
0
0
VERTEX
8
ENGRAVE
10
355.0660
20
49.7220
30
0
0
VERTEX
8
ENGRAVE
10
355.0620
20
49.6519
30
0
0
VERTEX
8
ENGRAVE
10
355.0570
20
49.5855
30
0
0
VERTEX
8
ENGRAVE
10
355.0510
20
49.5226
30
0
0
VERTEX
8
ENGRAVE
10
355.0450
20
49.4633
30
0
0
VERTEX
8
ENGRAVE
10
355.0370
20
49.4077
30
0
0
VERTEX
8
ENGRAVE
10
355.0280
20
49.3556
30
0
0
VERTEX
8
ENGRAVE
10
355.0190
20
49.3067
30
0
0
VERTEX
8
ENGRAVE
10
355.0080
20
49.2606
30
0
0
VERTEX
8
ENGRAVE
10
354.9960
20
49.2172
30
0
0
VERTEX
8
ENGRAVE
10
354.9840
20
49.1765
30
0
0
VERTEX
8
ENGRAVE
10
354.9700
20
49.1386
30
0
0
VERTEX
8
ENGRAVE
10
354.9550
20
49.1034
30
0
0
VERTEX
8
ENGRAVE
10
354.9380
20
49.0710
30
0
0
VERTEX
8
ENGRAVE
10
354.9210
20
49.0413
30
0
0
VERTEX
8
ENGRAVE
10
354.9030
20
49.0144
30
0
0
VERTEX
8
ENGRAVE
10
354.8830
20
48.9902
30
0
0
VERTEX
8
ENGRAVE
10
354.8620
20
48.9685
30
0
0
VERTEX
8
ENGRAVE
10
354.8400
20
48.9491
30
0
0
VERTEX
8
ENGRAVE
10
354.8150
20
48.9320
30
0
0
VERTEX
8
ENGRAVE
10
354.7890
20
48.9171
30
0
0
VERTEX
8
ENGRAVE
10
354.7620
20
48.9046
30
0
0
VERTEX
8
ENGRAVE
10
354.7330
20
48.8943
30
0
0
VERTEX
8
ENGRAVE
10
354.7020
20
48.8863
30
0
0
VERTEX
8
ENGRAVE
10
354.6690
20
48.8806
30
0
0
VERTEX
8
ENGRAVE
10
354.6340
20
48.8772
30
0
0
VERTEX
8
ENGRAVE
10
354.5980
20
48.8761
30
0
0
SEQEND
8
ENGRAVE
0
POLYLINE
8
ENGRAVE
66
1
10
0
20
0
30
0
70
1
0
VERTEX
8
ENGRAVE
10
356.8620
20
50.2477
30
0
0
VERTEX
8
ENGRAVE
10
356.9210
20
50.2541
30
0
0
VERTEX
8
ENGRAVE
10
356.9780
20
50.2648
30
0
0
VERTEX
8
ENGRAVE
10
357.0330
20
50.2797
30
0
0
VERTEX
8
ENGRAVE
10
357.0870
20
50.2989
30
0
0
VERTEX
8
ENGRAVE
10
357.1380
20
50.3224
30
0
0
VERTEX
8
ENGRAVE
10
357.1880
20
50.3501
30
0
0
VERTEX
8
ENGRAVE
10
357.2360
20
50.3821
30
0
0
VERTEX
8
ENGRAVE
10
357.2820
20
50.4183
30
0
0
VERTEX
8
ENGRAVE
10
357.3260
20
50.4588
30
0
0
VERTEX
8
ENGRAVE
10
357.3670
20
50.5024
30
0
0
VERTEX
8
ENGRAVE
10
357.4030
20
50.5476
30
0
0
VERTEX
8
ENGRAVE
10
357.4360
20
50.5946
30
0
0
VERTEX
8
ENGRAVE
10
357.4640
20
50.6433
30
0
0
VERTEX
8
ENGRAVE
10
357.4870
20
50.6937
30
0
0
VERTEX
8
ENGRAVE
10
357.5070
20
50.7459
30
0
0
VERTEX
8
ENGRAVE
10
357.5220
20
50.7998
30
0
0
VERTEX
8
ENGRAVE
10
357.5330
20
50.8554
30
0
0
VERTEX
8
ENGRAVE
10
357.5390
20
50.9128
30
0
0
VERTEX
8
ENGRAVE
10
357.5410
20
50.9719
30
0
0
VERTEX
8
ENGRAVE
10
357.5390
20
51.0309
30
0
0
VERTEX
8
ENGRAVE
10
357.5330
20
51.0883
30
0
0
VERTEX
8
ENGRAVE
10
357.5220
20
51.1439
30
0
0
VERTEX
8
ENGRAVE
10
357.5070
20
51.1978
30
0
0
VERTEX
8
ENGRAVE
10
357.4880
20
51.2500
30
0
0
VERTEX
8
ENGRAVE
10
357.4640
20
51.3004
30
0
0
VERTEX
8
ENGRAVE
10
357.4360
20
51.3491
30
0
0
VERTEX
8
ENGRAVE
10
357.4040
20
51.3961
30
0
0
VERTEX
8
ENGRAVE
10
357.3680
20
51.4413
30
0
0
VERTEX
8
ENGRAVE
10
357.3270
20
51.4849
30
0
0
VERTEX
8
ENGRAVE
10
357.2830
20
51.5254
30
0
0
VERTEX
8
ENGRAVE
10
357.2370
20
51.5616
30
0
0
VERTEX
8
ENGRAVE
10
357.1890
20
51.5936
30
0
0
VERTEX
8
ENGRAVE
10
357.1400
20
51.6214
30
0
0
VERTEX
8
ENGRAVE
10
357.0880
20
51.6448
30
0
0
VERTEX
8
ENGRAVE
10
357.0350
20
51.6640
30
0
0
VERTEX
8
ENGRAVE
10
356.9790
20
51.6789
30
0
0
VERTEX
8
ENGRAVE
10
356.9220
20
51.6896
30
0
0
VERTEX
8
ENGRAVE
10
356.8620
20
51.6960
30
0
0
VERTEX
8
ENGRAVE
10
356.8010
20
51.6981
30
0
0
VERTEX
8
ENGRAVE
10
356.7610
20
51.6972
30
0
0
VERTEX
8
ENGRAVE
10
356.7210
20
51.6943
30
0
0
VERTEX
8
ENGRAVE
10
356.6820
20
51.6895
30
0
0
VERTEX
8
ENGRAVE
10
356.6440
20
51.6828
30
0
0
VERTEX
8
ENGRAVE
10
356.6070
20
51.6742
30
0
0
VERTEX
8
ENGRAVE
10
356.5700
20
51.6637
30
0
0
VERTEX
8
ENGRAVE
10
356.5330
20
51.6512
30
0
0
VERTEX
8
ENGRAVE
10
356.4980
20
51.6369
30
0
0
VERTEX
8
ENGRAVE
10
356.4630
20
51.6206
30
0
0
VERTEX
8
ENGRAVE
10
356.4290
20
51.6024
30
0
0
VERTEX
8
ENGRAVE
10
356.3960
20
51.5826
30
0
0
VERTEX
8
ENGRAVE
10
356.3640
20
51.5612
30
0
0
VERTEX
8
ENGRAVE
10
356.3340
20
51.5385
30
0
0
VERTEX
8
ENGRAVE
10
356.3050
20
51.5143
30
0
0
VERTEX
8
ENGRAVE
10
356.2770
20
51.4886
30
0
0
VERTEX
8
ENGRAVE
10
356.2510
20
51.4615
30
0
0
VERTEX
8
ENGRAVE
10
356.2270
20
51.4329
30
0
0
VERTEX
8
ENGRAVE
10
356.2030
20
51.4029
30
0
0
VERTEX
8
ENGRAVE
10
356.1820
20
51.3714
30
0
0
VERTEX
8
ENGRAVE
10
356.1610
20
51.3385
30
0
0
VERTEX
8
ENGRAVE
10
356.1430
20
51.3045
30
0
0
VERTEX
8
ENGRAVE
10
356.1260
20
51.2699
30
0
0
VERTEX
8
ENGRAVE
10
356.1110
20
51.2348
30
0
0
VERTEX
8
ENGRAVE
10
356.0990
20
51.1990
30
0
0
VERTEX
8
ENGRAVE
10
356.0880
20
51.1627
30
0
0
VERTEX
8
ENGRAVE
10
356.0790
20
51.1257
30
0
0
VERTEX
8
ENGRAVE
10
356.0720
20
51.0881
30
0
0
VERTEX
8
ENGRAVE
10
356.0670
20
51.0500
30
0
0
VERTEX
8
ENGRAVE
10
356.0640
20
51.0112
30
0
0
VERTEX
8
ENGRAVE
10
356.0630
20
50.9719
30
0
0
VERTEX
8
ENGRAVE
10
356.0660
20
50.9115
30
0
0
VERTEX
8
ENGRAVE
10
356.0720
20
50.8531
30
0
0
VERTEX
8
ENGRAVE
10
356.0830
20
50.7966
30
0
0
VERTEX
8
ENGRAVE
10
356.0980
20
50.7420
30
0
0
VERTEX
8
ENGRAVE
10
356.1180
20
50.6894
30
0
0
VERTEX
8
ENGRAVE
10
356.1410
20
50.6387
30
0
0
VERTEX
8
ENGRAVE
10
356.1700
20
50.5900
30
0
0
VERTEX
8
ENGRAVE
10
356.2020
20
50.5432
30
0
0
VERTEX
8
ENGRAVE
10
356.2390
20
50.4983
30
0
0
VERTEX
8
ENGRAVE
10
356.2800
20
50.4554
30
0
0
VERTEX
8
ENGRAVE
10
356.3240
20
50.4155
30
0
0
VERTEX
8
ENGRAVE
10
356.3700
20
50.3799
30
0
0
VERTEX
8
ENGRAVE
10
356.4180
20
50.3484
30
0
0
VERTEX
8
ENGRAVE
10
356.4670
20
50.3211
30
0
0
VERTEX
8
ENGRAVE
10
356.5190
20
50.2980
30
0
0
VERTEX
8
ENGRAVE
10
356.5720
20
50.2792
30
0
0
VERTEX
8
ENGRAVE
10
356.6260
20
50.2645
30
0
0
VERTEX
8
ENGRAVE
10
356.6830
20
50.2540
30
0
0
VERTEX
8
ENGRAVE
10
356.7410
20
50.2477
30
0
0
VERTEX
8
ENGRAVE
10
356.8010
20
50.2456
30
0
0
SEQEND
8
ENGRAVE
0
POLYLINE
8
ENGRAVE
66
1
10
0
20
0
30
0
70
1
0
VERTEX
8
ENGRAVE
10
356.7700
20
50.5856
30
0
0
VERTEX
8
ENGRAVE
10
356.7400
20
50.5891
30
0
0
VERTEX
8
ENGRAVE
10
356.7110
20
50.5948
30
0
0
VERTEX
8
ENGRAVE
10
356.6830
20
50.6028
30
0
0
VERTEX
8
ENGRAVE
10
356.6550
20
50.6130
30
0
0
VERTEX
8
ENGRAVE
10
356.6290
20
50.6256
30
0
0
VERTEX
8
ENGRAVE
10
356.6030
20
50.6404
30
0
0
VERTEX
8
ENGRAVE
10
356.5780
20
50.6575
30
0
0
VERTEX
8
ENGRAVE
10
356.5540
20
50.6770
30
0
0
VERTEX
8
ENGRAVE
10
356.5310
20
50.6986
30
0
0
VERTEX
8
ENGRAVE
10
356.5100
20
50.7219
30
0
0
VERTEX
8
ENGRAVE
10
356.4910
20
50.7461
30
0
0
VERTEX
8
ENGRAVE
10
356.4740
20
50.7712
30
0
0
VERTEX
8
ENGRAVE
10
356.4590
20
50.7971
30
0
0
VERTEX
8
ENGRAVE
10
356.4470
20
50.8240
30
0
0
VERTEX
8
ENGRAVE
10
356.4360
20
50.8518
30
0
0
VERTEX
8
ENGRAVE
10
356.4290
20
50.8805
30
0
0
VERTEX
8
ENGRAVE
10
356.4230
20
50.9100
30
0
0
VERTEX
8
ENGRAVE
10
356.4200
20
50.9405
30
0
0
VERTEX
8
ENGRAVE
10
356.4180
20
50.9719
30
0
0
VERTEX
8
ENGRAVE
10
356.4200
20
51.0032
30
0
0
VERTEX
8
ENGRAVE
10
356.4230
20
51.0336
30
0
0
VERTEX
8
ENGRAVE
10
356.4280
20
51.0631
30
0
0
VERTEX
8
ENGRAVE
10
356.4360
20
51.0916
30
0
0
VERTEX
8
ENGRAVE
10
356.4460
20
51.1191
30
0
0
VERTEX
8
ENGRAVE
10
356.4580
20
51.1458
30
0
0
VERTEX
8
ENGRAVE
10
356.4720
20
51.1714
30
0
0
VERTEX
8
ENGRAVE
10
356.4890
20
51.1962
30
0
0
VERTEX
8
ENGRAVE
10
356.5070
20
51.2199
30
0
0
VERTEX
8
ENGRAVE
10
356.5280
20
51.2428
30
0
0
VERTEX
8
ENGRAVE
10
356.5500
20
51.2640
30
0
0
VERTEX
8
ENGRAVE
10
356.5740
20
51.2830
30
0
0
VERTEX
8
ENGRAVE
10
356.5990
20
51.2998
30
0
0
VERTEX
8
ENGRAVE
10
356.6240
20
51.3143
30
0
0
VERTEX
8
ENGRAVE
10
356.6510
20
51.3266
30
0
0
VERTEX
8
ENGRAVE
10
356.6790
20
51.3367
30
0
0
VERTEX
8
ENGRAVE
10
356.7080
20
51.3445
30
0
0
VERTEX
8
ENGRAVE
10
356.7380
20
51.3501
30
0
0
VERTEX
8
ENGRAVE
10
356.7690
20
51.3535
30
0
0
VERTEX
8
ENGRAVE
10
356.8010
20
51.3546
30
0
0
VERTEX
8
ENGRAVE
10
356.8330
20
51.3535
30
0
0
VERTEX
8
ENGRAVE
10
356.8640
20
51.3502
30
0
0
VERTEX
8
ENGRAVE
10
356.8930
20
51.3447
30
0
0
VERTEX
8
ENGRAVE
10
356.9220
20
51.3369
30
0
0
VERTEX
8
ENGRAVE
10
356.9490
20
51.3269
30
0
0
VERTEX
8
ENGRAVE
10
356.9750
20
51.3148
30
0
0
VERTEX
8
ENGRAVE
10
357.0010
20
51.3004
30
0
0
VERTEX
8
ENGRAVE
10
357.0250
20
51.2838
30
0
0
VERTEX
8
ENGRAVE
10
357.0480
20
51.2650
30
0
0
VERTEX
8
ENGRAVE
10
357.0700
20
51.2439
30
0
0
VERTEX
8
ENGRAVE
10
357.0900
20
51.2213
30
0
0
VERTEX
8
ENGRAVE
10
357.1080
20
51.1976
30
0
0
VERTEX
8
ENGRAVE
10
357.1240
20
51.1730
30
0
0
VERTEX
8
ENGRAVE
10
357.1380
20
51.1473
30
0
0
VERTEX
8
ENGRAVE
10
357.1500
20
51.1206
30
0
0
VERTEX
8
ENGRAVE
10
357.1600
20
51.0929
30
0
0
VERTEX
8
ENGRAVE
10
357.1670
20
51.0641
30
0
0
VERTEX
8
ENGRAVE
10
357.1730
20
51.0344
30
0
0
VERTEX
8
ENGRAVE
10
357.1760
20
51.0036
30
0
0
VERTEX
8
ENGRAVE
10
357.1770
20
50.9719
30
0
0
VERTEX
8
ENGRAVE
10
357.1760
20
50.9401
30
0
0
VERTEX
8
ENGRAVE
10
357.1730
20
50.9092
30
0
0
VERTEX
8
ENGRAVE
10
357.1670
20
50.8794
30
0
0
VERTEX
8
ENGRAVE
10
357.1590
20
50.8505
30
0
0
VERTEX
8
ENGRAVE
10
357.1490
20
50.8226
30
0
0
VERTEX
8
ENGRAVE
10
357.1370
20
50.7956
30
0
0
VERTEX
8
ENGRAVE
10
357.1230
20
50.7696
30
0
0
VERTEX
8
ENGRAVE
10
357.1060
20
50.7446
30
0
0
VERTEX
8
ENGRAVE
10
357.0870
20
50.7206
30
0
0
VERTEX
8
ENGRAVE
10
357.0660
20
50.6975
30
0
0
VERTEX
8
ENGRAVE
10
357.0440
20
50.6760
30
0
0
VERTEX
8
ENGRAVE
10
357.0200
20
50.6568
30
0
0
VERTEX
8
ENGRAVE
10
356.9960
20
50.6399
30
0
0
VERTEX
8
ENGRAVE
10
356.9710
20
50.6252
30
0
0
VERTEX
8
ENGRAVE
10
356.9450
20
50.6127
30
0
0
VERTEX
8
ENGRAVE
10
356.9180
20
50.6026
30
0
0
VERTEX
8
ENGRAVE
10
356.8900
20
50.5947
30
0
0
VERTEX
8
ENGRAVE
10
356.8610
20
50.5890
30
0
0
VERTEX
8
ENGRAVE
10
356.8320
20
50.5856
30
0
0
VERTEX
8
ENGRAVE
10
356.8010
20
50.5845
30
0
0
SEQEND
8
ENGRAVE
0
POLYLINE
8
ENGRAVE
66
1
10
0
20
0
30
0
70
1
0
VERTEX
8
ENGRAVE
10
360.1000
20
50.3500
30
0
0
VERTEX
8
ENGRAVE
10
358.3000
20
50.3500
30
0
0
VERTEX
8
ENGRAVE
10
358.3000
20
49.6500
30
0
0
VERTEX
8
ENGRAVE
10
360.1000
20
49.6500
30
0
0
SEQEND
8
ENGRAVE
0
POLYLINE
8
ENGRAVE
66
1
10
0
20
0
30
0
70
1
0
VERTEX
8
ENGRAVE
10
78.5251
20
32.7528
30
0
0
VERTEX
8
ENGRAVE
10
78.6222
20
32.7586
30
0
0
VERTEX
8
ENGRAVE
10
78.7143
20
32.7682
30
0
0
VERTEX
8
ENGRAVE
10
78.8013
20
32.7818
30
0
0
VERTEX
8
ENGRAVE
10
78.8832
20
32.7991
30
0
0
VERTEX
8
ENGRAVE
10
78.9601
20
32.8204
30
0
0
VERTEX
8
ENGRAVE
10
79.0320
20
32.8455
30
0
0
VERTEX
8
ENGRAVE
10
79.0988
20
32.8744
30
0
0
VERTEX
8
ENGRAVE
10
79.1605
20
32.9072
30
0
0
VERTEX
8
ENGRAVE
10
79.2171
20
32.9439
30
0
0
VERTEX
8
ENGRAVE
10
79.2686
20
32.9843
30
0
0
VERTEX
8
ENGRAVE
10
79.3146
20
33.0280
30
0
0
VERTEX
8
ENGRAVE
10
79.3552
20
33.0752
30
0
0
VERTEX
8
ENGRAVE
10
79.3904
20
33.1259
30
0
0
VERTEX
8
ENGRAVE
10
79.4201
20
33.1800
30
0
0
VERTEX
8
ENGRAVE
10
79.4445
20
33.2375
30
0
0
VERTEX
8
ENGRAVE
10
79.4634
20
33.2985
30
0
0
VERTEX
8
ENGRAVE
10
79.4770
20
33.3629
30
0
0
VERTEX
8
ENGRAVE
10
79.4851
20
33.4307
30
0
0
VERTEX
8
ENGRAVE
10
79.4878
20
33.5020
30
0
0
VERTEX
8
ENGRAVE
10
79.4873
20
33.5326
30
0
0
VERTEX
8
ENGRAVE
10
79.4859
20
33.5626
30
0
0
VERTEX
8
ENGRAVE
10
79.4835
20
33.5918
30
0
0
VERTEX
8
ENGRAVE
10
79.4802
20
33.6203
30
0
0
VERTEX
8
ENGRAVE
10
79.4759
20
33.6481
30
0
0
VERTEX
8
ENGRAVE
10
79.4706
20
33.6751
30
0
0
VERTEX
8
ENGRAVE
10
79.4645
20
33.7015
30
0
0
VERTEX
8
ENGRAVE
10
79.4573
20
33.7271
30
0
0
VERTEX
8
ENGRAVE
10
79.4492
20
33.7520
30
0
0
VERTEX
8
ENGRAVE
10
79.4402
20
33.7761
30
0
0
VERTEX
8
ENGRAVE
10
79.4302
20
33.7996
30
0
0
VERTEX
8
ENGRAVE
10
79.4194
20
33.8224
30
0
0
VERTEX
8
ENGRAVE
10
79.4078
20
33.8445
30
0
0
VERTEX
8
ENGRAVE
10
79.3953
20
33.8660
30
0
0
VERTEX
8
ENGRAVE
10
79.3820
20
33.8868
30
0
0
VERTEX
8
ENGRAVE
10
79.3678
20
33.9069
30
0
0
VERTEX
8
ENGRAVE
10
79.3528
20
33.9263
30
0
0
VERTEX
8
ENGRAVE
10
79.3369
20
33.9451
30
0
0
VERTEX
8
ENGRAVE
10
79.3202
20
33.9632
30
0
0
VERTEX
8
ENGRAVE
10
79.3026
20
33.9807
30
0
0
VERTEX
8
ENGRAVE
10
79.2840
20
33.9975
30
0
0
VERTEX
8
ENGRAVE
10
79.2641
20
34.0140
30
0
0
VERTEX
8
ENGRAVE
10
79.2429
20
34.0300
30
0
0
VERTEX
8
ENGRAVE
10
79.2204
20
34.0457
30
0
0
VERTEX
8
ENGRAVE
10
79.1966
20
34.0609
30
0
0
VERTEX
8
ENGRAVE
10
79.1716
20
34.0756
30
0
0
VERTEX
8
ENGRAVE
10
79.1452
20
34.0900
30
0
0
VERTEX
8
ENGRAVE
10
79.1176
20
34.1039
30
0
0
VERTEX
8
ENGRAVE
10
79.0887
20
34.1174
30
0
0
VERTEX
8
ENGRAVE
10
79.0584
20
34.1305
30
0
0
VERTEX
8
ENGRAVE
10
79.0256
20
34.1435
30
0
0
VERTEX
8
ENGRAVE
10
78.9886
20
34.1567
30
0
0
VERTEX
8
ENGRAVE
10
78.9476
20
34.1701
30
0
0
VERTEX
8
ENGRAVE
10
78.9025
20
34.1838
30
0
0
VERTEX
8
ENGRAVE
10
78.8533
20
34.1977
30
0
0
VERTEX
8
ENGRAVE
10
78.8000
20
34.2119
30
0
0
VERTEX
8
ENGRAVE
10
78.7427
20
34.2262
30
0
0
VERTEX
8
ENGRAVE
10
78.6813
20
34.2408
30
0
0
VERTEX
8
ENGRAVE
10
78.6158
20
34.2556
30
0
0
VERTEX
8
ENGRAVE
10
78.5463
20
34.2707
30
0
0
VERTEX
8
ENGRAVE
10
78.4880
20
34.2835
30
0
0
VERTEX
8
ENGRAVE
10
78.4338
20
34.2959
30
0
0
VERTEX
8
ENGRAVE
10
78.3836
20
34.3078
30
0
0
VERTEX
8
ENGRAVE
10
78.3375
20
34.3193
30
0
0
VERTEX
8
ENGRAVE
10
78.2955
20
34.3304
30
0
0
VERTEX
8
ENGRAVE
10
78.2575
20
34.3410
30
0
0
VERTEX
8
ENGRAVE
10
78.2235
20
34.3512
30
0
0
VERTEX
8
ENGRAVE
10
78.1936
20
34.3609
30
0
0
VERTEX
8
ENGRAVE
10
78.1678
20
34.3702
30
0
0
VERTEX
8
ENGRAVE
10
78.1460
20
34.3791
30
0
0
VERTEX
8
ENGRAVE
10
78.1268
20
34.3879
30
0
0
VERTEX
8
ENGRAVE
10
78.1085
20
34.3971
30
0
0
VERTEX
8
ENGRAVE
10
78.0912
20
34.4067
30
0
0
VERTEX
8
ENGRAVE
10
78.0748
20
34.4166
30
0
0
VERTEX
8
ENGRAVE
10
78.0594
20
34.4269
30
0
0
VERTEX
8
ENGRAVE
10
78.0450
20
34.4376
30
0
0
VERTEX
8
ENGRAVE
10
78.0316
20
34.4486
30
0
0
VERTEX
8
ENGRAVE
10
78.0191
20
34.4601
30
0
0
VERTEX
8
ENGRAVE
10
78.0076
20
34.4718
30
0
0
VERTEX
8
ENGRAVE
10
77.9971
20
34.4840
30
0
0
VERTEX
8
ENGRAVE
10
77.9875
20
34.4967
30
0
0
VERTEX
8
ENGRAVE
10
77.9790
20
34.5101
30
0
0
VERTEX
8
ENGRAVE
10
77.9714
20
34.5242
30
0
0
VERTEX
8
ENGRAVE
10
77.9649
20
34.5390
30
0
0
VERTEX
8
ENGRAVE
10
77.9594
20
34.5545
30
0
0
VERTEX
8
ENGRAVE
10
77.9548
20
34.5708
30
0
0
VERTEX
8
ENGRAVE
10
77.9513
20
34.5877
30
0
0
VERTEX
8
ENGRAVE
10
77.9488
20
34.6053
30
0
0
VERTEX
8
ENGRAVE
10
77.9473
20
34.6237
30
0
0
VERTEX
8
ENGRAVE
10
77.9468
20
34.6427
30
0
0
VERTEX
8
ENGRAVE
10
77.9515
20
34.6990
30
0
0
VERTEX
8
ENGRAVE
10
77.9657
20
34.7493
30
0
0
VERTEX
8
ENGRAVE
10
77.9893
20
34.7938
30
0
0
VERTEX
8
ENGRAVE
10
78.0224
20
34.8323
30
0
0
VERTEX
8
ENGRAVE
10
78.0649
20
34.8648
30
0
0
VERTEX
8
ENGRAVE
10
78.1169
20
34.8915
30
0
0
VERTEX
8
ENGRAVE
10
78.1784
20
34.9122
30
0
0
VERTEX
8
ENGRAVE
10
78.2492
20
34.9270
30
0
0
VERTEX
8
ENGRAVE
10
78.3296
20
34.9359
30
0
0
VERTEX
8
ENGRAVE
10
78.4193
20
34.9389
30
0
0
VERTEX
8
ENGRAVE
10
78.4627
20
34.9381
30
0
0
VERTEX
8
ENGRAVE
10
78.5041
20
34.9357
30
0
0
VERTEX
8
ENGRAVE
10
78.5434
20
34.9316
30
0
0
VERTEX
8
ENGRAVE
10
78.5806
20
34.9259
30
0
0
VERTEX
8
ENGRAVE
10
78.6157
20
34.9186
30
0
0
VERTEX
8
ENGRAVE
10
78.6488
20
34.9097
30
0
0
VERTEX
8
ENGRAVE
10
78.6798
20
34.8991
30
0
0
VERTEX
8
ENGRAVE
10
78.7088
20
34.8870
30
0
0
VERTEX
8
ENGRAVE
10
78.7357
20
34.8732
30
0
0
VERTEX
8
ENGRAVE
10
78.7605
20
34.8578
30
0
0
VERTEX
8
ENGRAVE
10
78.7835
20
34.8408
30
0
0
VERTEX
8
ENGRAVE
10
78.8049
20
34.8222
30
0
0
VERTEX
8
ENGRAVE
10
78.8247
20
34.8020
30
0
0
VERTEX
8
ENGRAVE
10
78.8429
20
34.7802
30
0
0
VERTEX
8
ENGRAVE
10
78.8595
20
34.7568
30
0
0
VERTEX
8
ENGRAVE
10
78.8744
20
34.7319
30
0
0
VERTEX
8
ENGRAVE
10
78.8878
20
34.7054
30
0
0
VERTEX
8
ENGRAVE
10
78.8996
20
34.6772
30
0
0
VERTEX
8
ENGRAVE
10
78.9097
20
34.6475
30
0
0
VERTEX
8
ENGRAVE
10
78.9183
20
34.6162
30
0
0
VERTEX
8
ENGRAVE
10
79.4225
20
34.6850
30
0
0
VERTEX
8
ENGRAVE
10
79.4075
20
34.7498
30
0
0
VERTEX
8
ENGRAVE
10
79.3892
20
34.8107
30
0
0
VERTEX
8
ENGRAVE
10
79.3675
20
34.8680
30
0
0
VERTEX
8
ENGRAVE
10
79.3426
20
34.9214
30
0
0
VERTEX
8
ENGRAVE
10
79.3143
20
34.9711
30
0
0
VERTEX
8
ENGRAVE
10
79.2828
20
35.0170
30
0
0
VERTEX
8
ENGRAVE
10
79.2480
20
35.0591
30
0
0
VERTEX
8
ENGRAVE
10
79.2098
20
35.0974
30
0
0
VERTEX
8
ENGRAVE
10
79.1684
20
35.1320
30
0
0
VERTEX
8
ENGRAVE
10
79.1237
20
35.1628
30
0
0
VERTEX
8
ENGRAVE
10
79.0750
20
35.1903
30
0
0
VERTEX
8
ENGRAVE
10
79.0217
20
35.2149
30
0
0
VERTEX
8
ENGRAVE
10
78.9639
20
35.2365
30
0
0
VERTEX
8
ENGRAVE
10
78.9014
20
35.2553
30
0
0
VERTEX
8
ENGRAVE
10
78.8343
20
35.2712
30
0
0
VERTEX
8
ENGRAVE
10
78.7626
20
35.2843
30
0
0
VERTEX
8
ENGRAVE
10
78.6864
20
35.2944
30
0
0
VERTEX
8
ENGRAVE
10
78.6055
20
35.3016
30
0
0
VERTEX
8
ENGRAVE
10
78.5200
20
35.3059
30
0
0
VERTEX
8
ENGRAVE
10
78.4299
20
35.3074
30
0
0
VERTEX
8
ENGRAVE
10
78.3356
20
35.3056
30
0
0
VERTEX
8
ENGRAVE
10
78.2459
20
35.3002
30
0
0
VERTEX
8
ENGRAVE
10
78.1608
20
35.2913
30
0
0
VERTEX
8
ENGRAVE
10
78.0802
20
35.2788
30
0
0
VERTEX
8
ENGRAVE
10
78.0043
20
35.2626
30
0
0
VERTEX
8
ENGRAVE
10
77.9330
20
35.2430
30
0
0
VERTEX
8
ENGRAVE
10
77.8663
20
35.2197
30
0
0
VERTEX
8
ENGRAVE
10
77.8042
20
35.1929
30
0
0
VERTEX
8
ENGRAVE
10
77.7467
20
35.1624
30
0
0
VERTEX
8
ENGRAVE
10
77.6938
20
35.1284
30
0
0
VERTEX
8
ENGRAVE
10
77.6457
20
35.0911
30
0
0
VERTEX
8
ENGRAVE
10
77.6027
20
35.0505
30
0
0
VERTEX
8
ENGRAVE
10
77.5648
20
35.0069
30
0
0
VERTEX
8
ENGRAVE
10
77.5319
20
34.9600
30
0
0
VERTEX
8
ENGRAVE
10
77.5041
20
34.9100
30
0
0
VERTEX
8
ENGRAVE
10
77.4813
20
34.8569
30
0
0
VERTEX
8
ENGRAVE
10
77.4636
20
34.8006
30
0
0
VERTEX
8
ENGRAVE
10
77.4509
20
34.7411
30
0
0
VERTEX
8
ENGRAVE
10
77.4433
20
34.6785
30
0
0
VERTEX
8
ENGRAVE
10
77.4408
20
34.6127
30
0
0
VERTEX
8
ENGRAVE
10
77.4411
20
34.5866
30
0
0
VERTEX
8
ENGRAVE
10
77.4422
20
34.5610
30
0
0
VERTEX
8
ENGRAVE
10
77.4439
20
34.5361
30
0
0
VERTEX
8
ENGRAVE
10
77.4463
20
34.5117
30
0
0
VERTEX
8
ENGRAVE
10
77.4494
20
34.4880
30
0
0
VERTEX
8
ENGRAVE
10
77.4532
20
34.4648
30
0
0
VERTEX
8
ENGRAVE
10
77.4576
20
34.4423
30
0
0
VERTEX
8
ENGRAVE
10
77.4628
20
34.4203
30
0
0
VERTEX
8
ENGRAVE
10
77.4686
20
34.3990
30
0
0
VERTEX
8
ENGRAVE
10
77.4752
20
34.3782
30
0
0
VERTEX
8
ENGRAVE
10
77.4823
20
34.3580
30
0
0
VERTEX
8
ENGRAVE
10
77.4900
20
34.3384
30
0
0
VERTEX
8
ENGRAVE
10
77.4983
20
34.3193
30
0
0
VERTEX
8
ENGRAVE
10
77.5070
20
34.3007
30
0
0
VERTEX
8
ENGRAVE
10
77.5164
20
34.2826
30
0
0
VERTEX
8
ENGRAVE
10
77.5263
20
34.2650
30
0
0
VERTEX
8
ENGRAVE
10
77.5367
20
34.2480
30
0
0
VERTEX
8
ENGRAVE
10
77.5477
20
34.2315
30
0
0
VERTEX
8
ENGRAVE
10
77.5592
20
34.2156
30
0
0
VERTEX
8
ENGRAVE
10
77.5712
20
34.2001
30
0
0
VERTEX
8
ENGRAVE
10
77.5839
20
34.1852
30
0
0
VERTEX
8
ENGRAVE
10
77.5970
20
34.1707
30
0
0
VERTEX
8
ENGRAVE
10
77.6107
20
34.1566
30
0
0
VERTEX
8
ENGRAVE
10
77.6248
20
34.1430
30
0
0
VERTEX
8
ENGRAVE
10
77.6396
20
34.1298
30
0
0
VERTEX
8
ENGRAVE
10
77.6548
20
34.1171
30
0
0
VERTEX
8
ENGRAVE
10
77.6706
20
34.1048
30
0
0
VERTEX
8
ENGRAVE
10
77.6869
20
34.0929
30
0
0
VERTEX
8
ENGRAVE
10
77.7038
20
34.0815
30
0
0
VERTEX
8
ENGRAVE
10
77.7211
20
34.0705
30
0
0
VERTEX
8
ENGRAVE
10
77.7390
20
34.0599
30
0
0
VERTEX
8
ENGRAVE
10
77.7572
20
34.0496
30
0
0
VERTEX
8
ENGRAVE
10
77.7759
20
34.0396
30
0
0
VERTEX
8
ENGRAVE
10
77.7950
20
34.0298
30
0
0
VERTEX
8
ENGRAVE
10
77.8146
20
34.0203
30
0
0
VERTEX
8
ENGRAVE
10
77.8345
20
34.0111
30
0
0
VERTEX
8
ENGRAVE
10
77.8549
20
34.0022
30
0
0
VERTEX
8
ENGRAVE
10
77.8757
20
33.9935
30
0
0
VERTEX
8
ENGRAVE
10
77.8969
20
33.9852
30
0
0
VERTEX
8
ENGRAVE
10
77.9186
20
33.9771
30
0
0
VERTEX
8
ENGRAVE
10
77.9421
20
33.9689
30
0
0
VERTEX
8
ENGRAVE
10
77.9691
20
33.9602
30
0
0
VERTEX
8
ENGRAVE
10
77.9994
20
33.9510
30
0
0
VERTEX
8
ENGRAVE
10
78.0331
20
33.9413
30
0
0
VERTEX
8
ENGRAVE
10
78.0702
20
33.9311
30
0
0
VERTEX
8
ENGRAVE
10
78.1107
20
33.9203
30
0
0
VERTEX
8
ENGRAVE
10
78.1546
20
33.9091
30
0
0
VERTEX
8
ENGRAVE
10
78.2018
20
33.8973
30
0
0
VERTEX
8
ENGRAVE
10
78.2525
20
33.8850
30
0
0
VERTEX
8
ENGRAVE
10
78.3065
20
33.8722
30
0
0
VERTEX
8
ENGRAVE
10
78.3689
20
33.8594
30
0
0
VERTEX
8
ENGRAVE
10
78.4272
20
33.8469
30
0
0
VERTEX
8
ENGRAVE
10
78.4813
20
33.8348
30
0
0
VERTEX
8
ENGRAVE
10
78.5312
20
33.8231
30
0
0
VERTEX
8
ENGRAVE
10
78.5769
20
33.8118
30
0
0
VERTEX
8
ENGRAVE
10
78.6185
20
33.8009
30
0
0
VERTEX
8
ENGRAVE
10
78.6558
20
33.7904
30
0
0
VERTEX
8
ENGRAVE
10
78.6890
20
33.7802
30
0
0
VERTEX
8
ENGRAVE
10
78.7180
20
33.7705
30
0
0
VERTEX
8
ENGRAVE
10
78.7429
20
33.7611
30
0
0
VERTEX
8
ENGRAVE
10
78.7651
20
33.7517
30
0
0
VERTEX
8
ENGRAVE
10
78.7863
20
33.7419
30
0
0
VERTEX
8
ENGRAVE
10
78.8065
20
33.7316
30
0
0
VERTEX
8
ENGRAVE
10
78.8257
20
33.7208
30
0
0
VERTEX
8
ENGRAVE
10
78.8438
20
33.7096
30
0
0
VERTEX
8
ENGRAVE
10
78.8609
20
33.6979
30
0
0
VERTEX
8
ENGRAVE
10
78.8770
20
33.6857
30
0
0
VERTEX
8
ENGRAVE
10
78.8921
20
33.6731
30
0
0
VERTEX
8
ENGRAVE
10
78.9061
20
33.6600
30
0
0
VERTEX
8
ENGRAVE
10
78.9192
20
33.6465
30
0
0
VERTEX
8
ENGRAVE
10
78.9311
20
33.6324
30
0
0
VERTEX
8
ENGRAVE
10
78.9417
20
33.6175
30
0
0
VERTEX
8
ENGRAVE
10
78.9511
20
33.6019
30
0
0
VERTEX
8
ENGRAVE
10
78.9592
20
33.5856
30
0
0
VERTEX
8
ENGRAVE
10
78.9661
20
33.5685
30
0
0
VERTEX
8
ENGRAVE
10
78.9718
20
33.5507
30
0
0
VERTEX
8
ENGRAVE
10
78.9761
20
33.5321
30
0
0
VERTEX
8
ENGRAVE
10
78.9793
20
33.5128
30
0
0
VERTEX
8
ENGRAVE
10
78.9811
20
33.4928
30
0
0
VERTEX
8
ENGRAVE
10
78.9818
20
33.4720
30
0
0
VERTEX
8
ENGRAVE
10
78.9763
20
33.4090
30
0
0
VERTEX
8
ENGRAVE
10
78.9600
20
33.3527
30
0
0
VERTEX
8
ENGRAVE
10
78.9327
20
33.3029
30
0
0
VERTEX
8
ENGRAVE
10
78.8946
20
33.2598
30
0
0
VERTEX
8
ENGRAVE
10
78.8456
20
33.2234
30
0
0
VERTEX
8
ENGRAVE
10
78.7856
20
33.1935
30
0
0
VERTEX
8
ENGRAVE
10
78.7148
20
33.1703
30
0
0
VERTEX
8
ENGRAVE
10
78.6331
20
33.1538
30
0
0
VERTEX
8
ENGRAVE
10
78.5405
20
33.1438
30
0
0
VERTEX
8
ENGRAVE
10
78.4370
20
33.1405
30
0
0
VERTEX
8
ENGRAVE
10
78.3856
20
33.1414
30
0
0
VERTEX
8
ENGRAVE
10
78.3365
20
33.1441
30
0
0
VERTEX
8
ENGRAVE
10
78.2897
20
33.1485
30
0
0
VERTEX
8
ENGRAVE
10
78.2451
20
33.1548
30
0
0
VERTEX
8
ENGRAVE
10
78.2029
20
33.1628
30
0
0
VERTEX
8
ENGRAVE
10
78.1630
20
33.1726
30
0
0
VERTEX
8
ENGRAVE
10
78.1253
20
33.1841
30
0
0
VERTEX
8
ENGRAVE
10
78.0900
20
33.1975
30
0
0
VERTEX
8
ENGRAVE
10
78.0569
20
33.2126
30
0
0
VERTEX
8
ENGRAVE
10
78.0261
20
33.2295
30
0
0
VERTEX
8
ENGRAVE
10
77.9975
20
33.2484
30
0
0
VERTEX
8
ENGRAVE
10
77.9708
20
33.2695
30
0
0
VERTEX
8
ENGRAVE
10
77.9460
20
33.2927
30
0
0
VERTEX
8
ENGRAVE
10
77.9232
20
33.3181
30
0
0
VERTEX
8
ENGRAVE
10
77.9023
20
33.3457
30
0
0
VERTEX
8
ENGRAVE
10
77.8833
20
33.3754
30
0
0
VERTEX
8
ENGRAVE
10
77.8663
20
33.4073
30
0
0
VERTEX
8
ENGRAVE
10
77.8513
20
33.4414
30
0
0
VERTEX
8
ENGRAVE
10
77.8381
20
33.4776
30
0
0
VERTEX
8
ENGRAVE
10
77.8269
20
33.5161
30
0
0
VERTEX
8
ENGRAVE
10
77.3244
20
33.4332
30
0
0
VERTEX
8
ENGRAVE
10
77.3419
20
33.3662
30
0
0
VERTEX
8
ENGRAVE
10
77.3632
20
33.3027
30
0
0
VERTEX
8
ENGRAVE
10
77.3884
20
33.2426
30
0
0
VERTEX
8
ENGRAVE
10
77.4175
20
33.1861
30
0
0
VERTEX
8
ENGRAVE
10
77.4505
20
33.1330
30
0
0
VERTEX
8
ENGRAVE
10
77.4874
20
33.0835
30
0
0
VERTEX
8
ENGRAVE
10
77.5281
20
33.0374
30
0
0
VERTEX
8
ENGRAVE
10
77.5727
20
32.9948
30
0
0
VERTEX
8
ENGRAVE
10
77.6212
20
32.9557
30
0
0
VERTEX
8
ENGRAVE
10
77.6735
20
32.9201
30
0
0
VERTEX
8
ENGRAVE
10
77.7299
20
32.8880
30
0
0
VERTEX
8
ENGRAVE
10
77.7904
20
32.8592
30
0
0
VERTEX
8
ENGRAVE
10
77.8550
20
32.8338
30
0
0
VERTEX
8
ENGRAVE
10
77.9238
20
32.8118
30
0
0
VERTEX
8
ENGRAVE
10
77.9966
20
32.7932
30
0
0
VERTEX
8
ENGRAVE
10
78.0736
20
32.7780
30
0
0
VERTEX
8
ENGRAVE
10
78.1547
20
32.7661
30
0
0
VERTEX
8
ENGRAVE
10
78.2400
20
32.7576
30
0
0
VERTEX
8
ENGRAVE
10
78.3294
20
32.7526
30
0
0
VERTEX
8
ENGRAVE
10
78.4229
20
32.7509
30
0
0
SEQEND
8
ENGRAVE
0
POLYLINE
8
ENGRAVE
66
1
10
0
20
0
30
0
70
1
0
VERTEX
8
ENGRAVE
10
88.3633
20
32.7526
30
0
0
VERTEX
8
ENGRAVE
10
88.4390
20
32.7579
30
0
0
VERTEX
8
ENGRAVE
10
88.5124
20
32.7667
30
0
0
VERTEX
8
ENGRAVE
10
88.5835
20
32.7789
30
0
0
VERTEX
8
ENGRAVE
10
88.6524
20
32.7947
30
0
0
VERTEX
8
ENGRAVE
10
88.7191
20
32.8140
30
0
0
VERTEX
8
ENGRAVE
10
88.7835
20
32.8368
30
0
0
VERTEX
8
ENGRAVE
10
88.8457
20
32.8631
30
0
0
VERTEX
8
ENGRAVE
10
88.9057
20
32.8930
30
0
0
VERTEX
8
ENGRAVE
10
88.9634
20
32.9263
30
0
0
VERTEX
8
ENGRAVE
10
89.0186
20
32.9632
30
0
0
VERTEX
8
ENGRAVE
10
89.0711
20
33.0038
30
0
0
VERTEX
8
ENGRAVE
10
89.1209
20
33.0481
30
0
0
VERTEX
8
ENGRAVE
10
89.1679
20
33.0961
30
0
0
VERTEX
8
ENGRAVE
10
89.2122
20
33.1478
30
0
0
VERTEX
8
ENGRAVE
10
89.2538
20
33.2031
30
0
0
VERTEX
8
ENGRAVE
10
89.2926
20
33.2622
30
0
0
VERTEX
8
ENGRAVE
10
89.3287
20
33.3249
30
0
0
VERTEX
8
ENGRAVE
10
89.3621
20
33.3913
30
0
0
VERTEX
8
ENGRAVE
10
89.3927
20
33.4614
30
0
0
VERTEX
8
ENGRAVE
10
88.9396
20
33.6324
30
0
0
VERTEX
8
ENGRAVE
10
88.9000
20
33.5426
30
0
0
VERTEX
8
ENGRAVE
10
88.8547
20
33.4623
30
0
0
VERTEX
8
ENGRAVE
10
88.8037
20
33.3914
30
0
0
VERTEX
8
ENGRAVE
10
88.7469
20
33.3300
30
0
0
VERTEX
8
ENGRAVE
10
88.6844
20
33.2780
30
0
0
VERTEX
8
ENGRAVE
10
88.6161
20
33.2355
30
0
0
VERTEX
8
ENGRAVE
10
88.5421
20
33.2024
30
0
0
VERTEX
8
ENGRAVE
10
88.4623
20
33.1788
30
0
0
VERTEX
8
ENGRAVE
10
88.3767
20
33.1646
30
0
0
VERTEX
8
ENGRAVE
10
88.2855
20
33.1599
30
0
0
VERTEX
8
ENGRAVE
10
88.2163
20
33.1622
30
0
0
VERTEX
8
ENGRAVE
10
88.1504
20
33.1689
30
0
0
VERTEX
8
ENGRAVE
10
88.0878
20
33.1802
30
0
0
VERTEX
8
ENGRAVE
10
88.0286
20
33.1960
30
0
0
VERTEX
8
ENGRAVE
10
87.9727
20
33.2163
30
0
0
VERTEX
8
ENGRAVE
10
87.9202
20
33.2411
30
0
0
VERTEX
8
ENGRAVE
10
87.8710
20
33.2705
30
0
0
VERTEX
8
ENGRAVE
10
87.8251
20
33.3043
30
0
0
VERTEX
8
ENGRAVE
10
87.7825
20
33.3427
30
0
0
VERTEX
8
ENGRAVE
10
87.7433
20
33.3856
30
0
0
VERTEX
8
ENGRAVE
10
87.7076
20
33.4328
30
0
0
VERTEX
8
ENGRAVE
10
87.6757
20
33.4840
30
0
0
VERTEX
8
ENGRAVE
10
87.6476
20
33.5392
30
0
0
VERTEX
8
ENGRAVE
10
87.6231
20
33.5986
30
0
0
VERTEX
8
ENGRAVE
10
87.6025
20
33.6620
30
0
0
VERTEX
8
ENGRAVE
10
87.5856
20
33.7294
30
0
0
VERTEX
8
ENGRAVE
10
87.5724
20
33.8009
30
0
0
VERTEX
8
ENGRAVE
10
87.5630
20
33.8764
30
0
0
VERTEX
8
ENGRAVE
10
87.5574
20
33.9561
30
0
0
VERTEX
8
ENGRAVE
10
87.5555
20
34.0397
30
0
0
VERTEX
8
ENGRAVE
10
87.5574
20
34.1220
30
0
0
VERTEX
8
ENGRAVE
10
87.5628
20
34.2001
30
0
0
VERTEX
8
ENGRAVE
10
87.5720
20
34.2743
30
0
0
VERTEX
8
ENGRAVE
10
87.5847
20
34.3444
30
0
0
VERTEX
8
ENGRAVE
10
87.6012
20
34.4104
30
0
0
VERTEX
8
ENGRAVE
10
87.6212
20
34.4724
30
0
0
VERTEX
8
ENGRAVE
10
87.6450
20
34.5303
30
0
0
VERTEX
8
ENGRAVE
10
87.6723
20
34.5841
30
0
0
VERTEX
8
ENGRAVE
10
87.7033
20
34.6339
30
0
0
VERTEX
8
ENGRAVE
10
87.7380
20
34.6797
30
0
0
VERTEX
8
ENGRAVE
10
87.7762
20
34.7212
30
0
0
VERTEX
8
ENGRAVE
10
87.8178
20
34.7584
30
0
0
VERTEX
8
ENGRAVE
10
87.8628
20
34.7912
30
0
0
VERTEX
8
ENGRAVE
10
87.9112
20
34.8196
30
0
0
VERTEX
8
ENGRAVE
10
87.9630
20
34.8437
30
0
0
VERTEX
8
ENGRAVE
10
88.0182
20
34.8634
30
0
0
VERTEX
8
ENGRAVE
10
88.0769
20
34.8786
30
0
0
VERTEX
8
ENGRAVE
10
88.1389
20
34.8896
30
0
0
VERTEX
8
ENGRAVE
10
88.2043
20
34.8961
30
0
0
VERTEX
8
ENGRAVE
10
88.2731
20
34.8983
30
0
0
VERTEX
8
ENGRAVE
10
88.3187
20
34.8972
30
0
0
VERTEX
8
ENGRAVE
10
88.3631
20
34.8939
30
0
0
VERTEX
8
ENGRAVE
10
88.4062
20
34.8884
30
0
0
VERTEX
8
ENGRAVE
10
88.4482
20
34.8807
30
0
0
VERTEX
8
ENGRAVE
10
88.4889
20
34.8708
30
0
0
VERTEX
8
ENGRAVE
10
88.5284
20
34.8587
30
0
0
VERTEX
8
ENGRAVE
10
88.5667
20
34.8443
30
0
0
VERTEX
8
ENGRAVE
10
88.6038
20
34.8278
30
0
0
VERTEX
8
ENGRAVE
10
88.6396
20
34.8091
30
0
0
VERTEX
8
ENGRAVE
10
88.6742
20
34.7881
30
0
0
VERTEX
8
ENGRAVE
10
88.7072
20
34.7653
30
0
0
VERTEX
8
ENGRAVE
10
88.7378
20
34.7410
30
0
0
VERTEX
8
ENGRAVE
10
88.7663
20
34.7151
30
0
0
VERTEX
8
ENGRAVE
10
88.7924
20
34.6877
30
0
0
VERTEX
8
ENGRAVE
10
88.8164
20
34.6588
30
0
0
VERTEX
8
ENGRAVE
10
88.8381
20
34.6283
30
0
0
VERTEX
8
ENGRAVE
10
88.8576
20
34.5963
30
0
0
VERTEX
8
ENGRAVE
10
88.8748
20
34.5628
30
0
0
VERTEX
8
ENGRAVE
10
88.8898
20
34.5277
30
0
0
VERTEX
8
ENGRAVE
10
88.9026
20
34.4911
30
0
0
VERTEX
8
ENGRAVE
10
89.3610
20
34.6162
30
0
0
VERTEX
8
ENGRAVE
10
89.3371
20
34.6826
30
0
0
VERTEX
8
ENGRAVE
10
89.3100
20
34.7458
30
0
0
VERTEX
8
ENGRAVE
10
89.2796
20
34.8056
30
0
0
VERTEX
8
ENGRAVE
10
89.2459
20
34.8621
30
0
0
VERTEX
8
ENGRAVE
10
89.2089
20
34.9153
30
0
0
VERTEX
8
ENGRAVE
10
89.1686
20
34.9652
30
0
0
VERTEX
8
ENGRAVE
10
89.1251
20
35.0119
30
0
0
VERTEX
8
ENGRAVE
10
89.0783
20
35.0552
30
0
0
VERTEX
8
ENGRAVE
10
89.0282
20
35.0952
30
0
0
VERTEX
8
ENGRAVE
10
88.9748
20
35.1319
30
0
0
VERTEX
8
ENGRAVE
10
88.9182
20
35.1653
30
0
0
VERTEX
8
ENGRAVE
10
88.8583
20
35.1951
30
0
0
VERTEX
8
ENGRAVE
10
88.7952
20
35.2214
30
0
0
VERTEX
8
ENGRAVE
10
88.7289
20
35.2442
30
0
0
VERTEX
8
ENGRAVE
10
88.6592
20
35.2635
30
0
0
VERTEX
8
ENGRAVE
10
88.5864
20
35.2793
30
0
0
VERTEX
8
ENGRAVE
10
88.5103
20
35.2916
30
0
0
VERTEX
8
ENGRAVE
10
88.4310
20
35.3004
30
0
0
VERTEX
8
ENGRAVE
10
88.3484
20
35.3056
30
0
0
VERTEX
8
ENGRAVE
10
88.2625
20
35.3074
30
0
0
VERTEX
8
ENGRAVE
10
88.1455
20
35.3041
30
0
0
VERTEX
8
ENGRAVE
10
88.0341
20
35.2943
30
0
0
VERTEX
8
ENGRAVE
10
87.9284
20
35.2779
30
0
0
VERTEX
8
ENGRAVE
10
87.8284
20
35.2549
30
0
0
VERTEX
8
ENGRAVE
10
87.7340
20
35.2254
30
0
0
VERTEX
8
ENGRAVE
10
87.6454
20
35.1893
30
0
0
VERTEX
8
ENGRAVE
10
87.5624
20
35.1467
30
0
0
VERTEX
8
ENGRAVE
10
87.4851
20
35.0975
30
0
0
VERTEX
8
ENGRAVE
10
87.4134
20
35.0418
30
0
0
VERTEX
8
ENGRAVE
10
87.3475
20
34.9794
30
0
0
VERTEX
8
ENGRAVE
10
87.2875
20
34.9110
30
0
0
VERTEX
8
ENGRAVE
10
87.2339
20
34.8369
30
0
0
VERTEX
8
ENGRAVE
10
87.1865
20
34.7571
30
0
0
VERTEX
8
ENGRAVE
10
87.1455
20
34.6717
30
0
0
VERTEX
8
ENGRAVE
10
87.1108
20
34.5806
30
0
0
VERTEX
8
ENGRAVE
10
87.0824
20
34.4837
30
0
0
VERTEX
8
ENGRAVE
10
87.0603
20
34.3812
30
0
0
VERTEX
8
ENGRAVE
10
87.0445
20
34.2731
30
0
0
VERTEX
8
ENGRAVE
10
87.0350
20
34.1592
30
0
0
VERTEX
8
ENGRAVE
10
87.0319
20
34.0397
30
0
0
VERTEX
8
ENGRAVE
10
87.0351
20
33.9204
30
0
0
VERTEX
8
ENGRAVE
10
87.0450
20
33.8065
30
0
0
VERTEX
8
ENGRAVE
10
87.0613
20
33.6981
30
0
0
VERTEX
8
ENGRAVE
10
87.0842
20
33.5950
30
0
0
VERTEX
8
ENGRAVE
10
87.1136
20
33.4973
30
0
0
VERTEX
8
ENGRAVE
10
87.1496
20
33.4051
30
0
0
VERTEX
8
ENGRAVE
10
87.1921
20
33.3183
30
0
0
VERTEX
8
ENGRAVE
10
87.2412
20
33.2369
30
0
0
VERTEX
8
ENGRAVE
10
87.2968
20
33.1609
30
0
0
VERTEX
8
ENGRAVE
10
87.3589
20
33.0903
30
0
0
VERTEX
8
ENGRAVE
10
87.4271
20
33.0258
30
0
0
VERTEX
8
ENGRAVE
10
87.5007
20
32.9681
30
0
0
VERTEX
8
ENGRAVE
10
87.5797
20
32.9172
30
0
0
VERTEX
8
ENGRAVE
10
87.6642
20
32.8731
30
0
0
VERTEX
8
ENGRAVE
10
87.7541
20
32.8357
30
0
0
VERTEX
8
ENGRAVE
10
87.8495
20
32.8052
30
0
0
VERTEX
8
ENGRAVE
10
87.9503
20
32.7814
30
0
0
VERTEX
8
ENGRAVE
10
88.0566
20
32.7645
30
0
0
VERTEX
8
ENGRAVE
10
88.1683
20
32.7543
30
0
0
VERTEX
8
ENGRAVE
10
88.2855
20
32.7509
30
0
0
SEQEND
8
ENGRAVE
0
POLYLINE
8
ENGRAVE
66
1
10
0
20
0
30
0
70
1
0
VERTEX
8
ENGRAVE
10
94.5676
20
33.7294
30
0
0
VERTEX
8
ENGRAVE
10
95.1776
20
33.7294
30
0
0
VERTEX
8
ENGRAVE
10
95.7541
20
32.7861
30
0
0
VERTEX
8
ENGRAVE
10
96.3395
20
32.7861
30
0
0
VERTEX
8
ENGRAVE
10
95.6677
20
33.8299
30
0
0
VERTEX
8
ENGRAVE
10
95.7171
20
33.8432
30
0
0
VERTEX
8
ENGRAVE
10
95.7644
20
33.8591
30
0
0
VERTEX
8
ENGRAVE
10
95.8096
20
33.8775
30
0
0
VERTEX
8
ENGRAVE
10
95.8528
20
33.8986
30
0
0
VERTEX
8
ENGRAVE
10
95.8938
20
33.9222
30
0
0
VERTEX
8
ENGRAVE
10
95.9328
20
33.9485
30
0
0
VERTEX
8
ENGRAVE
10
95.9697
20
33.9773
30
0
0
VERTEX
8
ENGRAVE
10
96.0045
20
34.0087
30
0
0
VERTEX
8
ENGRAVE
10
96.0373
20
34.0428
30
0
0
VERTEX
8
ENGRAVE
10
96.0679
20
34.0794
30
0
0
VERTEX
8
ENGRAVE
10
96.0961
20
34.1180
30
0
0
VERTEX
8
ENGRAVE
10
96.1213
20
34.1580
30
0
0
VERTEX
8
ENGRAVE
10
96.1435
20
34.1995
30
0
0
VERTEX
8
ENGRAVE
10
96.1628
20
34.2424
30
0
0
VERTEX
8
ENGRAVE
10
96.1790
20
34.2868
30
0
0
VERTEX
8
ENGRAVE
10
96.1924
20
34.3325
30
0
0
VERTEX
8
ENGRAVE
10
96.2027
20
34.3797
30
0
0
VERTEX
8
ENGRAVE
10
96.2101
20
34.4283
30
0
0
VERTEX
8
ENGRAVE
10
96.2146
20
34.4784
30
0
0
VERTEX
8
ENGRAVE
10
96.2161
20
34.5299
30
0
0
VERTEX
8
ENGRAVE
10
96.2137
20
34.5998
30
0
0
VERTEX
8
ENGRAVE
10
96.2064
20
34.6664
30
0
0
VERTEX
8
ENGRAVE
10
96.1943
20
34.7296
30
0
0
VERTEX
8
ENGRAVE
10
96.1774
20
34.7895
30
0
0
VERTEX
8
ENGRAVE
10
96.1557
20
34.8461
30
0
0
VERTEX
8
ENGRAVE
10
96.1291
20
34.8994
30
0
0
VERTEX
8
ENGRAVE
10
96.0977
20
34.9493
30
0
0
VERTEX
8
ENGRAVE
10
96.0615
20
34.9959
30
0
0
VERTEX
8
ENGRAVE
10
96.0204
20
35.0391
30
0
0
VERTEX
8
ENGRAVE
10
95.9745
20
35.0791
30
0
0
VERTEX
8
ENGRAVE
10
95.9242
20
35.1154
30
0
0
VERTEX
8
ENGRAVE
10
95.8698
20
35.1479
30
0
0
VERTEX
8
ENGRAVE
10
95.8113
20
35.1766
30
0
0
VERTEX
8
ENGRAVE
10
95.7488
20
35.2015
30
0
0
VERTEX
8
ENGRAVE
10
95.6823
20
35.2225
30
0
0
VERTEX
8
ENGRAVE
10
95.6117
20
35.2398
30
0
0
VERTEX
8
ENGRAVE
10
95.5370
20
35.2531
30
0
0
VERTEX
8
ENGRAVE
10
95.4583
20
35.2627
30
0
0
VERTEX
8
ENGRAVE
10
95.3755
20
35.2684
30
0
0
VERTEX
8
ENGRAVE
10
95.2887
20
35.2704
30
0
0
VERTEX
8
ENGRAVE
10
94.0474
20
35.2704
30
0
0
VERTEX
8
ENGRAVE
10
94.0474
20
32.7861
30
0
0
VERTEX
8
ENGRAVE
10
94.5676
20
32.7861
30
0
0
SEQEND
8
ENGRAVE
0
POLYLINE
8
ENGRAVE
66
1
10
0
20
0
30
0
70
1
0
VERTEX
8
ENGRAVE
10
94.5676
20
34.1331
30
0
0
VERTEX
8
ENGRAVE
10
94.5676
20
34.8666
30
0
0
VERTEX
8
ENGRAVE
10
95.2340
20
34.8666
30
0
0
VERTEX
8
ENGRAVE
10
95.3211
20
34.8630
30
0
0
VERTEX
8
ENGRAVE
10
95.3990
20
34.8523
30
0
0
VERTEX
8
ENGRAVE
10
95.4678
20
34.8344
30
0
0
VERTEX
8
ENGRAVE
10
95.5274
20
34.8093
30
0
0
VERTEX
8
ENGRAVE
10
95.5778
20
34.7771
30
0
0
VERTEX
8
ENGRAVE
10
95.6191
20
34.7378
30
0
0
VERTEX
8
ENGRAVE
10
95.6512
20
34.6912
30
0
0
VERTEX
8
ENGRAVE
10
95.6741
20
34.6375
30
0
0
VERTEX
8
ENGRAVE
10
95.6878
20
34.5767
30
0
0
VERTEX
8
ENGRAVE
10
95.6924
20
34.5087
30
0
0
VERTEX
8
ENGRAVE
10
95.6913
20
34.4739
30
0
0
VERTEX
8
ENGRAVE
10
95.6879
20
34.4406
30
0
0
VERTEX
8
ENGRAVE
10
95.6823
20
34.4090
30
0
0
VERTEX
8
ENGRAVE
10
95.6743
20
34.3789
30
0
0
VERTEX
8
ENGRAVE
10
95.6642
20
34.3504
30
0
0
VERTEX
8
ENGRAVE
10
95.6518
20
34.3236
30
0
0
VERTEX
8
ENGRAVE
10
95.6371
20
34.2983
30
0
0
VERTEX
8
ENGRAVE
10
95.6202
20
34.2746
30
0
0
VERTEX
8
ENGRAVE
10
95.6010
20
34.2524
30
0
0
VERTEX
8
ENGRAVE
10
95.5796
20
34.2319
30
0
0
VERTEX
8
ENGRAVE
10
95.5559
20
34.2131
30
0
0
VERTEX
8
ENGRAVE
10
95.5302
20
34.1963
30
0
0
VERTEX
8
ENGRAVE
10
95.5023
20
34.1815
30
0
0
VERTEX
8
ENGRAVE
10
95.4724
20
34.1687
30
0
0
VERTEX
8
ENGRAVE
10
95.4403
20
34.1578
30
0
0
VERTEX
8
ENGRAVE
10
95.4061
20
34.1489
30
0
0
VERTEX
8
ENGRAVE
10
95.3698
20
34.1420
30
0
0
VERTEX
8
ENGRAVE
10
95.3313
20
34.1371
30
0
0
VERTEX
8
ENGRAVE
10
95.2908
20
34.1341
30
0
0
VERTEX
8
ENGRAVE
10
95.2481
20
34.1331
30
0
0
SEQEND
8
ENGRAVE
0
POLYLINE
8
ENGRAVE
66
1
10
0
20
0
30
0
70
1
0
VERTEX
8
ENGRAVE
10
93.5878
20
35.2704
30
0
0
VERTEX
8
ENGRAVE
10
93.0676
20
35.2704
30
0
0
VERTEX
8
ENGRAVE
10
93.0676
20
32.7861
30
0
0
VERTEX
8
ENGRAVE
10
93.5878
20
32.7861
30
0
0
SEQEND
8
ENGRAVE
0
POLYLINE
8
ENGRAVE
66
1
10
0
20
0
30
0
70
1
0
VERTEX
8
ENGRAVE
10
74.2887
20
33.1881
30
0
0
VERTEX
8
ENGRAVE
10
72.9558
20
33.1881
30
0
0
VERTEX
8
ENGRAVE
10
72.9558
20
35.2704
30
0
0
VERTEX
8
ENGRAVE
10
72.4357
20
35.2704
30
0
0
VERTEX
8
ENGRAVE
10
72.4357
20
32.7861
30
0
0
VERTEX
8
ENGRAVE
10
74.2887
20
32.7861
30
0
0
SEQEND
8
ENGRAVE
0
POLYLINE
8
ENGRAVE
66
1
10
0
20
0
30
0
70
1
0
VERTEX
8
ENGRAVE
10
75.4494
20
34.8684
30
0
0
VERTEX
8
ENGRAVE
10
76.2534
20
34.8684
30
0
0
VERTEX
8
ENGRAVE
10
76.2534
20
35.2704
30
0
0
VERTEX
8
ENGRAVE
10
74.1271
20
35.2704
30
0
0
VERTEX
8
ENGRAVE
10
74.1271
20
34.8684
30
0
0
VERTEX
8
ENGRAVE
10
74.9293
20
34.8684
30
0
0
VERTEX
8
ENGRAVE
10
74.9293
20
32.7861
30
0
0
VERTEX
8
ENGRAVE
10
75.4494
20
32.7861
30
0
0
SEQEND
8
ENGRAVE
0
POLYLINE
8
ENGRAVE
66
1
10
0
20
0
30
0
70
1
0
VERTEX
8
ENGRAVE
10
70.4779
20
33.4209
30
0
0
VERTEX
8
ENGRAVE
10
71.4247
20
33.4209
30
0
0
VERTEX
8
ENGRAVE
10
71.6451
20
32.7861
30
0
0
VERTEX
8
ENGRAVE
10
72.1599
20
32.7861
30
0
0
VERTEX
8
ENGRAVE
10
71.2572
20
35.2704
30
0
0
VERTEX
8
ENGRAVE
10
70.6436
20
35.2704
30
0
0
VERTEX
8
ENGRAVE
10
69.7373
20
32.7861
30
0
0
VERTEX
8
ENGRAVE
10
70.2575
20
32.7861
30
0
0
SEQEND
8
ENGRAVE
0
POLYLINE
8
ENGRAVE
66
1
10
0
20
0
30
0
70
1
0
VERTEX
8
ENGRAVE
10
70.5942
20
33.8123
30
0
0
VERTEX
8
ENGRAVE
10
70.6474
20
33.9672
30
0
0
VERTEX
8
ENGRAVE
10
70.6955
20
34.1075
30
0
0
VERTEX
8
ENGRAVE
10
70.7385
20
34.2332
30
0
0
VERTEX
8
ENGRAVE
10
70.7765
20
34.3443
30
0
0
VERTEX
8
ENGRAVE
10
70.8093
20
34.4408
30
0
0
VERTEX
8
ENGRAVE
10
70.8371
20
34.5227
30
0
0
VERTEX
8
ENGRAVE
10
70.8598
20
34.5900
30
0
0
VERTEX
8
ENGRAVE
10
70.8774
20
34.6428
30
0
0
VERTEX
8
ENGRAVE
10
70.8900
20
34.6809
30
0
0
VERTEX
8
ENGRAVE
10
70.8975
20
34.7044
30
0
0
VERTEX
8
ENGRAVE
10
70.9071
20
34.7361
30
0
0
VERTEX
8
ENGRAVE
10
70.9117
20
34.7515
30
0
0
VERTEX
8
ENGRAVE
10
70.9204
20
34.7811
30
0
0
VERTEX
8
ENGRAVE
10
70.9246
20
34.7954
30
0
0
VERTEX
8
ENGRAVE
10
70.9325
20
34.8229
30
0
0
VERTEX
8
ENGRAVE
10
70.9398
20
34.8490
30
0
0
VERTEX
8
ENGRAVE
10
70.9504
20
34.8878
30
0
0
VERTEX
8
ENGRAVE
10
70.9874
20
34.7661
30
0
0
VERTEX
8
ENGRAVE
10
71.0632
20
34.5263
30
0
0
VERTEX
8
ENGRAVE
10
71.3083
20
33.8123
30
0
0
SEQEND
8
ENGRAVE
0
POLYLINE
8
ENGRAVE
66
1
10
0
20
0
30
0
70
1
0
VERTEX
8
ENGRAVE
10
80.9354
20
34.8684
30
0
0
VERTEX
8
ENGRAVE
10
81.7394
20
34.8684
30
0
0
VERTEX
8
ENGRAVE
10
81.7394
20
35.2704
30
0
0
VERTEX
8
ENGRAVE
10
79.6131
20
35.2704
30
0
0
VERTEX
8
ENGRAVE
10
79.6131
20
34.8684
30
0
0
VERTEX
8
ENGRAVE
10
80.4153
20
34.8684
30
0
0
VERTEX
8
ENGRAVE
10
80.4153
20
32.7861
30
0
0
VERTEX
8
ENGRAVE
10
80.9354
20
32.7861
30
0
0
SEQEND
8
ENGRAVE
0
POLYLINE
8
ENGRAVE
66
1
10
0
20
0
30
0
70
1
0
VERTEX
8
ENGRAVE
10
82.2954
20
33.4209
30
0
0
VERTEX
8
ENGRAVE
10
83.2421
20
33.4209
30
0
0
VERTEX
8
ENGRAVE
10
83.4625
20
32.7861
30
0
0
VERTEX
8
ENGRAVE
10
83.9774
20
32.7861
30
0
0
VERTEX
8
ENGRAVE
10
83.0746
20
35.2704
30
0
0
VERTEX
8
ENGRAVE
10
82.4611
20
35.2704
30
0
0
VERTEX
8
ENGRAVE
10
81.5548
20
32.7861
30
0
0
VERTEX
8
ENGRAVE
10
82.0750
20
32.7861
30
0
0
SEQEND
8
ENGRAVE
0
POLYLINE
8
ENGRAVE
66
1
10
0
20
0
30
0
70
1
0
VERTEX
8
ENGRAVE
10
82.4117
20
33.8123
30
0
0
VERTEX
8
ENGRAVE
10
82.4649
20
33.9672
30
0
0
VERTEX
8
ENGRAVE
10
82.5130
20
34.1075
30
0
0
VERTEX
8
ENGRAVE
10
82.5560
20
34.2332
30
0
0
VERTEX
8
ENGRAVE
10
82.5940
20
34.3443
30
0
0
VERTEX
8
ENGRAVE
10
82.6268
20
34.4408
30
0
0
VERTEX
8
ENGRAVE
10
82.6546
20
34.5227
30
0
0
VERTEX
8
ENGRAVE
10
82.6773
20
34.5900
30
0
0
VERTEX
8
ENGRAVE
10
82.6950
20
34.6428
30
0
0
VERTEX
8
ENGRAVE
10
82.7075
20
34.6809
30
0
0
VERTEX
8
ENGRAVE
10
82.7150
20
34.7044
30
0
0
VERTEX
8
ENGRAVE
10
82.7246
20
34.7361
30
0
0
VERTEX
8
ENGRAVE
10
82.7336
20
34.7664
30
0
0
VERTEX
8
ENGRAVE
10
82.7421
20
34.7954
30
0
0
VERTEX
8
ENGRAVE
10
82.7461
20
34.8093
30
0
0
VERTEX
8
ENGRAVE
10
82.7537
20
34.8361
30
0
0
VERTEX
8
ENGRAVE
10
82.7573
20
34.8490
30
0
0
VERTEX
8
ENGRAVE
10
82.7679
20
34.8878
30
0
0
VERTEX
8
ENGRAVE
10
82.8049
20
34.7661
30
0
0
VERTEX
8
ENGRAVE
10
82.8807
20
34.5263
30
0
0
VERTEX
8
ENGRAVE
10
83.1258
20
33.8123
30
0
0
SEQEND
8
ENGRAVE
0
POLYLINE
8
ENGRAVE
66
1
10
0
20
0
30
0
70
1
0
VERTEX
8
ENGRAVE
10
86.6657
20
35.2704
30
0
0
VERTEX
8
ENGRAVE
10
86.1456
20
35.2704
30
0
0
VERTEX
8
ENGRAVE
10
86.1456
20
32.7861
30
0
0
VERTEX
8
ENGRAVE
10
86.6657
20
32.7861
30
0
0
SEQEND
8
ENGRAVE
0
POLYLINE
8
ENGRAVE
66
1
10
0
20
0
30
0
70
1
0
VERTEX
8
ENGRAVE
10
85.1128
20
34.8684
30
0
0
VERTEX
8
ENGRAVE
10
85.9168
20
34.8684
30
0
0
VERTEX
8
ENGRAVE
10
85.9168
20
35.2704
30
0
0
VERTEX
8
ENGRAVE
10
83.7905
20
35.2704
30
0
0
VERTEX
8
ENGRAVE
10
83.7905
20
34.8684
30
0
0
VERTEX
8
ENGRAVE
10
84.5927
20
34.8684
30
0
0
VERTEX
8
ENGRAVE
10
84.5927
20
32.7861
30
0
0
VERTEX
8
ENGRAVE
10
85.1128
20
32.7861
30
0
0
SEQEND
8
ENGRAVE
0
POLYLINE
8
ENGRAVE
66
1
10
0
20
0
30
0
70
1
0
VERTEX
8
ENGRAVE
10
91.1098
20
33.4209
30
0
0
VERTEX
8
ENGRAVE
10
92.0566
20
33.4209
30
0
0
VERTEX
8
ENGRAVE
10
92.2770
20
32.7861
30
0
0
VERTEX
8
ENGRAVE
10
92.7919
20
32.7861
30
0
0
VERTEX
8
ENGRAVE
10
91.8891
20
35.2704
30
0
0
VERTEX
8
ENGRAVE
10
91.2756
20
35.2704
30
0
0
VERTEX
8
ENGRAVE
10
90.3693
20
32.7861
30
0
0
VERTEX
8
ENGRAVE
10
90.8894
20
32.7861
30
0
0
SEQEND
8
ENGRAVE
0
POLYLINE
8
ENGRAVE
66
1
10
0
20
0
30
0
70
1
0
VERTEX
8
ENGRAVE
10
91.2262
20
33.8123
30
0
0
VERTEX
8
ENGRAVE
10
91.2794
20
33.9672
30
0
0
VERTEX
8
ENGRAVE
10
91.3275
20
34.1075
30
0
0
VERTEX
8
ENGRAVE
10
91.3705
20
34.2332
30
0
0
VERTEX
8
ENGRAVE
10
91.4084
20
34.3443
30
0
0
VERTEX
8
ENGRAVE
10
91.4413
20
34.4408
30
0
0
VERTEX
8
ENGRAVE
10
91.4691
20
34.5227
30
0
0
VERTEX
8
ENGRAVE
10
91.4918
20
34.5900
30
0
0
VERTEX
8
ENGRAVE
10
91.5094
20
34.6428
30
0
0
VERTEX
8
ENGRAVE
10
91.5220
20
34.6809
30
0
0
VERTEX
8
ENGRAVE
10
91.5294
20
34.7044
30
0
0
VERTEX
8
ENGRAVE
10
91.5390
20
34.7361
30
0
0
VERTEX
8
ENGRAVE
10
91.5436
20
34.7515
30
0
0
VERTEX
8
ENGRAVE
10
91.5524
20
34.7811
30
0
0
VERTEX
8
ENGRAVE
10
91.5565
20
34.7954
30
0
0
VERTEX
8
ENGRAVE
10
91.5644
20
34.8229
30
0
0
VERTEX
8
ENGRAVE
10
91.5718
20
34.8490
30
0
0
VERTEX
8
ENGRAVE
10
91.5823
20
34.8878
30
0
0
VERTEX
8
ENGRAVE
10
91.6194
20
34.7661
30
0
0
VERTEX
8
ENGRAVE
10
91.6952
20
34.5263
30
0
0
VERTEX
8
ENGRAVE
10
91.9402
20
33.8123
30
0
0
SEQEND
8
ENGRAVE
0
POLYLINE
8
ENGRAVE
66
1
10
0
20
0
30
0
70
1
0
VERTEX
8
ENGRAVE
10
350.5380
20
28.3944
30
0
0
VERTEX
8
ENGRAVE
10
350.6670
20
28.4046
30
0
0
VERTEX
8
ENGRAVE
10
350.7900
20
28.4216
30
0
0
VERTEX
8
ENGRAVE
10
350.9070
20
28.4454
30
0
0
VERTEX
8
ENGRAVE
10
351.0170
20
28.4760
30
0
0
VERTEX
8
ENGRAVE
10
351.1210
20
28.5134
30
0
0
VERTEX
8
ENGRAVE
10
351.2190
20
28.5576
30
0
0
VERTEX
8
ENGRAVE
10
351.3110
20
28.6086
30
0
0
VERTEX
8
ENGRAVE
10
351.3970
20
28.6664
30
0
0
VERTEX
8
ENGRAVE
10
351.4760
20
28.7310
30
0
0
VERTEX
8
ENGRAVE
10
351.5490
20
28.8018
30
0
0
VERTEX
8
ENGRAVE
10
351.6130
20
28.8782
30
0
0
VERTEX
8
ENGRAVE
10
351.6710
20
28.9601
30
0
0
VERTEX
8
ENGRAVE
10
351.7200
20
29.0475
30
0
0
VERTEX
8
ENGRAVE
10
351.7620
20
29.1406
30
0
0
VERTEX
8
ENGRAVE
10
351.7970
20
29.2391
30
0
0
VERTEX
8
ENGRAVE
10
351.8230
20
29.3433
30
0
0
VERTEX
8
ENGRAVE
10
351.8420
20
29.4530
30
0
0
VERTEX
8
ENGRAVE
10
351.8540
20
29.5682
30
0
0
VERTEX
8
ENGRAVE
10
351.8580
20
29.6890
30
0
0
VERTEX
8
ENGRAVE
10
351.8580
20
31.6857
30
0
0
VERTEX
8
ENGRAVE
10
351.1780
20
31.6857
30
0
0
VERTEX
8
ENGRAVE
10
351.1780
20
29.7305
30
0
0
VERTEX
8
ENGRAVE
10
351.1760
20
29.6544
30
0
0
VERTEX
8
ENGRAVE
10
351.1700
20
29.5819
30
0
0
VERTEX
8
ENGRAVE
10
351.1600
20
29.5130
30
0
0
VERTEX
8
ENGRAVE
10
351.1460
20
29.4478
30
0
0
VERTEX
8
ENGRAVE
10
351.1290
20
29.3861
30
0
0
VERTEX
8
ENGRAVE
10
351.1070
20
29.3281
30
0
0
VERTEX
8
ENGRAVE
10
351.0810
20
29.2737
30
0
0
VERTEX
8
ENGRAVE
10
351.0520
20
29.2229
30
0
0
VERTEX
8
ENGRAVE
10
351.0190
20
29.1758
30
0
0
VERTEX
8
ENGRAVE
10
350.9820
20
29.1322
30
0
0
VERTEX
8
ENGRAVE
10
350.9410
20
29.0926
30
0
0
VERTEX
8
ENGRAVE
10
350.8960
20
29.0571
30
0
0
VERTEX
8
ENGRAVE
10
350.8490
20
29.0258
30
0
0
VERTEX
8
ENGRAVE
10
350.7980
20
28.9987
30
0
0
VERTEX
8
ENGRAVE
10
350.7430
20
28.9757
30
0
0
VERTEX
8
ENGRAVE
10
350.6860
20
28.9569
30
0
0
VERTEX
8
ENGRAVE
10
350.6250
20
28.9423
30
0
0
VERTEX
8
ENGRAVE
10
350.5600
20
28.9319
30
0
0
VERTEX
8
ENGRAVE
10
350.4920
20
28.9256
30
0
0
VERTEX
8
ENGRAVE
10
350.4210
20
28.9235
30
0
0
VERTEX
8
ENGRAVE
10
350.3520
20
28.9255
30
0
0
VERTEX
8
ENGRAVE
10
350.2860
20
28.9315
30
0
0
VERTEX
8
ENGRAVE
10
350.2240
20
28.9415
30
0
0
VERTEX
8
ENGRAVE
10
350.1650
20
28.9555
30
0
0
VERTEX
8
ENGRAVE
10
350.1090
20
28.9734
30
0
0
VERTEX
8
ENGRAVE
10
350.0570
20
28.9953
30
0
0
VERTEX
8
ENGRAVE
10
350.0080
20
29.0213
30
0
0
VERTEX
8
ENGRAVE
10
349.9630
20
29.0512
30
0
0
VERTEX
8
ENGRAVE
10
349.9210
20
29.0851
30
0
0
VERTEX
8
ENGRAVE
10
349.8830
20
29.1230
30
0
0
VERTEX
8
ENGRAVE
10
349.8480
20
29.1647
30
0
0
VERTEX
8
ENGRAVE
10
349.8170
20
29.2102
30
0
0
VERTEX
8
ENGRAVE
10
349.7890
20
29.2594
30
0
0
VERTEX
8
ENGRAVE
10
349.7660
20
29.3122
30
0
0
VERTEX
8
ENGRAVE
10
349.7450
20
29.3688
30
0
0
VERTEX
8
ENGRAVE
10
349.7290
20
29.4291
30
0
0
VERTEX
8
ENGRAVE
10
349.7160
20
29.4931
30
0
0
VERTEX
8
ENGRAVE
10
349.7070
20
29.5609
30
0
0
VERTEX
8
ENGRAVE
10
349.7010
20
29.6323
30
0
0
VERTEX
8
ENGRAVE
10
349.7000
20
29.7075
30
0
0
VERTEX
8
ENGRAVE
10
349.7000
20
31.6857
30
0
0
VERTEX
8
ENGRAVE
10
349.0190
20
31.6857
30
0
0
VERTEX
8
ENGRAVE
10
349.0190
20
29.6544
30
0
0
VERTEX
8
ENGRAVE
10
349.0230
20
29.5355
30
0
0
VERTEX
8
ENGRAVE
10
349.0340
20
29.4222
30
0
0
VERTEX
8
ENGRAVE
10
349.0520
20
29.3145
30
0
0
VERTEX
8
ENGRAVE
10
349.0760
20
29.2125
30
0
0
VERTEX
8
ENGRAVE
10
349.1090
20
29.1161
30
0
0
VERTEX
8
ENGRAVE
10
349.1480
20
29.0253
30
0
0
VERTEX
8
ENGRAVE
10
349.1940
20
28.9401
30
0
0
VERTEX
8
ENGRAVE
10
349.2470
20
28.8606
30
0
0
VERTEX
8
ENGRAVE
10
349.3080
20
28.7867
30
0
0
VERTEX
8
ENGRAVE
10
349.3760
20
28.7184
30
0
0
VERTEX
8
ENGRAVE
10
349.4500
20
28.6561
30
0
0
VERTEX
8
ENGRAVE
10
349.5310
20
28.6005
30
0
0
VERTEX
8
ENGRAVE
10
349.6180
20
28.5514
30
0
0
VERTEX
8
ENGRAVE
10
349.7110
20
28.5088
30
0
0
VERTEX
8
ENGRAVE
10
349.8110
20
28.4728
30
0
0
VERTEX
8
ENGRAVE
10
349.9160
20
28.4433
30
0
0
VERTEX
8
ENGRAVE
10
350.0290
20
28.4204
30
0
0
VERTEX
8
ENGRAVE
10
350.1470
20
28.4041
30
0
0
VERTEX
8
ENGRAVE
10
350.2720
20
28.3942
30
0
0
VERTEX
8
ENGRAVE
10
350.4030
20
28.3910
30
0
0
SEQEND
8
ENGRAVE
0
POLYLINE
8
ENGRAVE
66
1
10
0
20
0
30
0
70
1
0
VERTEX
8
ENGRAVE
10
357.6220
20
28.9627
30
0
0
VERTEX
8
ENGRAVE
10
355.8790
20
28.9627
30
0
0
VERTEX
8
ENGRAVE
10
355.8790
20
31.6857
30
0
0
VERTEX
8
ENGRAVE
10
355.1990
20
31.6857
30
0
0
VERTEX
8
ENGRAVE
10
355.1990
20
28.4371
30
0
0
VERTEX
8
ENGRAVE
10
357.6220
20
28.4371
30
0
0
SEQEND
8
ENGRAVE
0
POLYLINE
8
ENGRAVE
66
1
10
0
20
0
30
0
70
1
0
VERTEX
8
ENGRAVE
10
354.8050
20
28.9627
30
0
0
VERTEX
8
ENGRAVE
10
353.0620
20
28.9627
30
0
0
VERTEX
8
ENGRAVE
10
353.0620
20
31.6857
30
0
0
VERTEX
8
ENGRAVE
10
352.3820
20
31.6857
30
0
0
VERTEX
8
ENGRAVE
10
352.3820
20
28.4371
30
0
0
VERTEX
8
ENGRAVE
10
354.8050
20
28.4371
30
0
0
SEQEND
8
ENGRAVE
0
POLYLINE
8
ENGRAVE
66
1
10
0
20
0
30
0
70
1
0
VERTEX
8
ENGRAVE
10
346.9150
20
29.6291
30
0
0
VERTEX
8
ENGRAVE
10
348.5770
20
29.6291
30
0
0
VERTEX
8
ENGRAVE
10
348.5770
20
30.1547
30
0
0
VERTEX
8
ENGRAVE
10
346.9150
20
30.1547
30
0
0
VERTEX
8
ENGRAVE
10
346.9150
20
31.1600
30
0
0
VERTEX
8
ENGRAVE
10
348.6300
20
31.1600
30
0
0
VERTEX
8
ENGRAVE
10
348.6300
20
31.6857
30
0
0
VERTEX
8
ENGRAVE
10
346.2350
20
31.6857
30
0
0
VERTEX
8
ENGRAVE
10
346.2350
20
28.4371
30
0
0
VERTEX
8
ENGRAVE
10
346.9150
20
28.4371
30
0
0
SEQEND
8
ENGRAVE
0
POLYLINE
8
ENGRAVE
66
1
10
0
20
0
30
0
70
1
0
VERTEX
8
ENGRAVE
10
360.1000
20
30.3500
30
0
0
VERTEX
8
ENGRAVE
10
358.3000
20
30.3500
30
0
0
VERTEX
8
ENGRAVE
10
358.3000
20
29.6500
30
0
0
VERTEX
8
ENGRAVE
10
360.1000
20
29.6500
30
0
0
SEQEND
8
ENGRAVE
0
POLYLINE
8
ENGRAVE
66
1
10
0
20
0
30
0
70
1
0
VERTEX
8
ENGRAVE
10
410.4350
20
15.7526
30
0
0
VERTEX
8
ENGRAVE
10
410.5110
20
15.7579
30
0
0
VERTEX
8
ENGRAVE
10
410.5840
20
15.7667
30
0
0
VERTEX
8
ENGRAVE
10
410.6550
20
15.7789
30
0
0
VERTEX
8
ENGRAVE
10
410.7240
20
15.7947
30
0
0
VERTEX
8
ENGRAVE
10
410.7910
20
15.8140
30
0
0
VERTEX
8
ENGRAVE
10
410.8550
20
15.8368
30
0
0
VERTEX
8
ENGRAVE
10
410.9180
20
15.8631
30
0
0
VERTEX
8
ENGRAVE
10
410.9780
20
15.8930
30
0
0
VERTEX
8
ENGRAVE
10
411.0350
20
15.9263
30
0
0
VERTEX
8
ENGRAVE
10
411.0900
20
15.9632
30
0
0
VERTEX
8
ENGRAVE
10
411.1430
20
16.0038
30
0
0
VERTEX
8
ENGRAVE
10
411.1930
20
16.0481
30
0
0
VERTEX
8
ENGRAVE
10
411.2400
20
16.0961
30
0
0
VERTEX
8
ENGRAVE
10
411.2840
20
16.1478
30
0
0
VERTEX
8
ENGRAVE
10
411.3260
20
16.2031
30
0
0
VERTEX
8
ENGRAVE
10
411.3640
20
16.2622
30
0
0
VERTEX
8
ENGRAVE
10
411.4010
20
16.3249
30
0
0
VERTEX
8
ENGRAVE
10
411.4340
20
16.3913
30
0
0
VERTEX
8
ENGRAVE
10
411.4650
20
16.4614
30
0
0
VERTEX
8
ENGRAVE
10
411.0110
20
16.6324
30
0
0
VERTEX
8
ENGRAVE
10
410.9720
20
16.5426
30
0
0
VERTEX
8
ENGRAVE
10
410.9270
20
16.4623
30
0
0
VERTEX
8
ENGRAVE
10
410.8760
20
16.3914
30
0
0
VERTEX
8
ENGRAVE
10
410.8190
20
16.3300
30
0
0
VERTEX
8
ENGRAVE
10
410.7560
20
16.2780
30
0
0
VERTEX
8
ENGRAVE
10
410.6880
20
16.2355
30
0
0
VERTEX
8
ENGRAVE
10
410.6140
20
16.2024
30
0
0
VERTEX
8
ENGRAVE
10
410.5340
20
16.1788
30
0
0
VERTEX
8
ENGRAVE
10
410.4490
20
16.1646
30
0
0
VERTEX
8
ENGRAVE
10
410.3570
20
16.1599
30
0
0
VERTEX
8
ENGRAVE
10
410.2880
20
16.1622
30
0
0
VERTEX
8
ENGRAVE
10
410.2220
20
16.1689
30
0
0
VERTEX
8
ENGRAVE
10
410.1600
20
16.1802
30
0
0
VERTEX
8
ENGRAVE
10
410.1010
20
16.1960
30
0
0
VERTEX
8
ENGRAVE
10
410.0450
20
16.2163
30
0
0
VERTEX
8
ENGRAVE
10
409.9920
20
16.2411
30
0
0
VERTEX
8
ENGRAVE
10
409.9430
20
16.2705
30
0
0
VERTEX
8
ENGRAVE
10
409.8970
20
16.3043
30
0
0
VERTEX
8
ENGRAVE
10
409.8540
20
16.3427
30
0
0
VERTEX
8
ENGRAVE
10
409.8150
20
16.3856
30
0
0
VERTEX
8
ENGRAVE
10
409.7800
20
16.4328
30
0
0
VERTEX
8
ENGRAVE
10
409.7480
20
16.4840
30
0
0
VERTEX
8
ENGRAVE
10
409.7190
20
16.5392
30
0
0
VERTEX
8
ENGRAVE
10
409.6950
20
16.5986
30
0
0
VERTEX
8
ENGRAVE
10
409.6740
20
16.6620
30
0
0
VERTEX
8
ENGRAVE
10
409.6570
20
16.7294
30
0
0
VERTEX
8
ENGRAVE
10
409.6440
20
16.8009
30
0
0
VERTEX
8
ENGRAVE
10
409.6350
20
16.8764
30
0
0
VERTEX
8
ENGRAVE
10
409.6290
20
16.9561
30
0
0
VERTEX
8
ENGRAVE
10
409.6270
20
17.0397
30
0
0
VERTEX
8
ENGRAVE
10
409.6290
20
17.1220
30
0
0
VERTEX
8
ENGRAVE
10
409.6350
20
17.2001
30
0
0
VERTEX
8
ENGRAVE
10
409.6440
20
17.2743
30
0
0
VERTEX
8
ENGRAVE
10
409.6570
20
17.3444
30
0
0
VERTEX
8
ENGRAVE
10
409.6730
20
17.4104
30
0
0
VERTEX
8
ENGRAVE
10
409.6930
20
17.4724
30
0
0
VERTEX
8
ENGRAVE
10
409.7170
20
17.5303
30
0
0
VERTEX
8
ENGRAVE
10
409.7440
20
17.5841
30
0
0
VERTEX
8
ENGRAVE
10
409.7750
20
17.6339
30
0
0
VERTEX
8
ENGRAVE
10
409.8100
20
17.6797
30
0
0
VERTEX
8
ENGRAVE
10
409.8480
20
17.7212
30
0
0
VERTEX
8
ENGRAVE
10
409.8900
20
17.7584
30
0
0
VERTEX
8
ENGRAVE
10
409.9350
20
17.7912
30
0
0
VERTEX
8
ENGRAVE
10
409.9830
20
17.8196
30
0
0
VERTEX
8
ENGRAVE
10
410.0350
20
17.8437
30
0
0
VERTEX
8
ENGRAVE
10
410.0900
20
17.8634
30
0
0
VERTEX
8
ENGRAVE
10
410.1490
20
17.8786
30
0
0
VERTEX
8
ENGRAVE
10
410.2110
20
17.8896
30
0
0
VERTEX
8
ENGRAVE
10
410.2760
20
17.8961
30
0
0
VERTEX
8
ENGRAVE
10
410.3450
20
17.8983
30
0
0
VERTEX
8
ENGRAVE
10
410.3910
20
17.8972
30
0
0
VERTEX
8
ENGRAVE
10
410.4350
20
17.8939
30
0
0
VERTEX
8
ENGRAVE
10
410.4780
20
17.8884
30
0
0
VERTEX
8
ENGRAVE
10
410.5200
20
17.8807
30
0
0
VERTEX
8
ENGRAVE
10
410.5610
20
17.8708
30
0
0
VERTEX
8
ENGRAVE
10
410.6000
20
17.8587
30
0
0
VERTEX
8
ENGRAVE
10
410.6390
20
17.8443
30
0
0
VERTEX
8
ENGRAVE
10
410.6760
20
17.8278
30
0
0
VERTEX
8
ENGRAVE
10
410.7110
20
17.8091
30
0
0
VERTEX
8
ENGRAVE
10
410.7460
20
17.7881
30
0
0
VERTEX
8
ENGRAVE
10
410.7790
20
17.7653
30
0
0
VERTEX
8
ENGRAVE
10
410.8100
20
17.7410
30
0
0
VERTEX
8
ENGRAVE
10
410.8380
20
17.7151
30
0
0
VERTEX
8
ENGRAVE
10
410.8640
20
17.6877
30
0
0
VERTEX
8
ENGRAVE
10
410.8880
20
17.6588
30
0
0
VERTEX
8
ENGRAVE
10
410.9100
20
17.6283
30
0
0
VERTEX
8
ENGRAVE
10
410.9290
20
17.5963
30
0
0
VERTEX
8
ENGRAVE
10
410.9470
20
17.5628
30
0
0
VERTEX
8
ENGRAVE
10
410.9620
20
17.5277
30
0
0
VERTEX
8
ENGRAVE
10
410.9740
20
17.4911
30
0
0
VERTEX
8
ENGRAVE
10
411.4330
20
17.6162
30
0
0
VERTEX
8
ENGRAVE
10
411.4090
20
17.6826
30
0
0
VERTEX
8
ENGRAVE
10
411.3820
20
17.7458
30
0
0
VERTEX
8
ENGRAVE
10
411.3510
20
17.8056
30
0
0
VERTEX
8
ENGRAVE
10
411.3180
20
17.8621
30
0
0
VERTEX
8
ENGRAVE
10
411.2810
20
17.9153
30
0
0
VERTEX
8
ENGRAVE
10
411.2410
20
17.9652
30
0
0
VERTEX
8
ENGRAVE
10
411.1970
20
18.0119
30
0
0
VERTEX
8
ENGRAVE
10
411.1500
20
18.0552
30
0
0
VERTEX
8
ENGRAVE
10
411.1000
20
18.0952
30
0
0
VERTEX
8
ENGRAVE
10
411.0470
20
18.1319
30
0
0
VERTEX
8
ENGRAVE
10
410.9900
20
18.1653
30
0
0
VERTEX
8
ENGRAVE
10
410.9300
20
18.1951
30
0
0
VERTEX
8
ENGRAVE
10
410.8670
20
18.2214
30
0
0
VERTEX
8
ENGRAVE
10
410.8010
20
18.2442
30
0
0
VERTEX
8
ENGRAVE
10
410.7310
20
18.2635
30
0
0
VERTEX
8
ENGRAVE
10
410.6580
20
18.2793
30
0
0
VERTEX
8
ENGRAVE
10
410.5820
20
18.2916
30
0
0
VERTEX
8
ENGRAVE
10
410.5030
20
18.3004
30
0
0
VERTEX
8
ENGRAVE
10
410.4200
20
18.3056
30
0
0
VERTEX
8
ENGRAVE
10
410.3340
20
18.3074
30
0
0
VERTEX
8
ENGRAVE
10
410.2170
20
18.3041
30
0
0
VERTEX
8
ENGRAVE
10
410.1060
20
18.2943
30
0
0
VERTEX
8
ENGRAVE
10
410.0000
20
18.2779
30
0
0
VERTEX
8
ENGRAVE
10
409.9000
20
18.2549
30
0
0
VERTEX
8
ENGRAVE
10
409.8060
20
18.2254
30
0
0
VERTEX
8
ENGRAVE
10
409.7170
20
18.1893
30
0
0
VERTEX
8
ENGRAVE
10
409.6340
20
18.1467
30
0
0
VERTEX
8
ENGRAVE
10
409.5570
20
18.0975
30
0
0
VERTEX
8
ENGRAVE
10
409.4850
20
18.0418
30
0
0
VERTEX
8
ENGRAVE
10
409.4190
20
17.9794
30
0
0
VERTEX
8
ENGRAVE
10
409.3590
20
17.9110
30
0
0
VERTEX
8
ENGRAVE
10
409.3060
20
17.8369
30
0
0
VERTEX
8
ENGRAVE
10
409.2580
20
17.7571
30
0
0
VERTEX
8
ENGRAVE
10
409.2170
20
17.6717
30
0
0
VERTEX
8
ENGRAVE
10
409.1830
20
17.5806
30
0
0
VERTEX
8
ENGRAVE
10
409.1540
20
17.4837
30
0
0
VERTEX
8
ENGRAVE
10
409.1320
20
17.3812
30
0
0
VERTEX
8
ENGRAVE
10
409.1160
20
17.2731
30
0
0
VERTEX
8
ENGRAVE
10
409.1070
20
17.1592
30
0
0
VERTEX
8
ENGRAVE
10
409.1040
20
17.0397
30
0
0
VERTEX
8
ENGRAVE
10
409.1070
20
16.9204
30
0
0
VERTEX
8
ENGRAVE
10
409.1170
20
16.8065
30
0
0
VERTEX
8
ENGRAVE
10
409.1330
20
16.6981
30
0
0
VERTEX
8
ENGRAVE
10
409.1560
20
16.5950
30
0
0
VERTEX
8
ENGRAVE
10
409.1860
20
16.4973
30
0
0
VERTEX
8
ENGRAVE
10
409.2210
20
16.4051
30
0
0
VERTEX
8
ENGRAVE
10
409.2640
20
16.3183
30
0
0
VERTEX
8
ENGRAVE
10
409.3130
20
16.2369
30
0
0
VERTEX
8
ENGRAVE
10
409.3690
20
16.1609
30
0
0
VERTEX
8
ENGRAVE
10
409.4310
20
16.0903
30
0
0
VERTEX
8
ENGRAVE
10
409.4990
20
16.0258
30
0
0
VERTEX
8
ENGRAVE
10
409.5730
20
15.9681
30
0
0
VERTEX
8
ENGRAVE
10
409.6520
20
15.9172
30
0
0
VERTEX
8
ENGRAVE
10
409.7360
20
15.8731
30
0
0
VERTEX
8
ENGRAVE
10
409.8260
20
15.8357
30
0
0
VERTEX
8
ENGRAVE
10
409.9210
20
15.8052
30
0
0
VERTEX
8
ENGRAVE
10
410.0220
20
15.7814
30
0
0
VERTEX
8
ENGRAVE
10
410.1280
20
15.7645
30
0
0
VERTEX
8
ENGRAVE
10
410.2400
20
15.7543
30
0
0
VERTEX
8
ENGRAVE
10
410.3570
20
15.7509
30
0
0
SEQEND
8
ENGRAVE
0
POLYLINE
8
ENGRAVE
66
1
10
0
20
0
30
0
70
1
0
VERTEX
8
ENGRAVE
10
418.2790
20
17.2513
30
0
0
VERTEX
8
ENGRAVE
10
418.2790
20
17.2862
30
0
0
VERTEX
8
ENGRAVE
10
418.2780
20
17.3233
30
0
0
VERTEX
8
ENGRAVE
10
418.2760
20
17.3627
30
0
0
VERTEX
8
ENGRAVE
10
418.2740
20
17.4042
30
0
0
VERTEX
8
ENGRAVE
10
418.2710
20
17.4479
30
0
0
VERTEX
8
ENGRAVE
10
418.2680
20
17.4937
30
0
0
VERTEX
8
ENGRAVE
10
418.2630
20
17.5418
30
0
0
VERTEX
8
ENGRAVE
10
418.2590
20
17.5921
30
0
0
VERTEX
8
ENGRAVE
10
418.2530
20
17.6445
30
0
0
VERTEX
8
ENGRAVE
10
418.2470
20
17.6991
30
0
0
VERTEX
8
ENGRAVE
10
419.3300
20
15.7861
30
0
0
VERTEX
8
ENGRAVE
10
419.9400
20
15.7861
30
0
0
VERTEX
8
ENGRAVE
10
419.9400
20
18.2704
30
0
0
VERTEX
8
ENGRAVE
10
419.4780
20
18.2704
30
0
0
VERTEX
8
ENGRAVE
10
419.4780
20
16.8264
30
0
0
VERTEX
8
ENGRAVE
10
419.4780
20
16.7822
30
0
0
VERTEX
8
ENGRAVE
10
419.4790
20
16.7370
30
0
0
VERTEX
8
ENGRAVE
10
419.4810
20
16.6909
30
0
0
VERTEX
8
ENGRAVE
10
419.4830
20
16.6439
30
0
0
VERTEX
8
ENGRAVE
10
419.4860
20
16.5959
30
0
0
VERTEX
8
ENGRAVE
10
419.4890
20
16.5469
30
0
0
VERTEX
8
ENGRAVE
10
419.4930
20
16.4970
30
0
0
VERTEX
8
ENGRAVE
10
419.4980
20
16.4461
30
0
0
VERTEX
8
ENGRAVE
10
419.5040
20
16.3943
30
0
0
VERTEX
8
ENGRAVE
10
419.5100
20
16.3415
30
0
0
VERTEX
8
ENGRAVE
10
418.4110
20
18.2704
30
0
0
VERTEX
8
ENGRAVE
10
417.8170
20
18.2704
30
0
0
VERTEX
8
ENGRAVE
10
417.8170
20
15.7861
30
0
0
VERTEX
8
ENGRAVE
10
418.2790
20
15.7861
30
0
0
SEQEND
8
ENGRAVE
0
POLYLINE
8
ENGRAVE
66
1
10
0
20
0
30
0
70
1
0
VERTEX
8
ENGRAVE
10
415.6220
20
15.7880
30
0
0
VERTEX
8
ENGRAVE
10
415.7060
20
15.7935
30
0
0
VERTEX
8
ENGRAVE
10
415.7870
20
15.8028
30
0
0
VERTEX
8
ENGRAVE
10
415.8630
20
15.8158
30
0
0
VERTEX
8
ENGRAVE
10
415.9360
20
15.8324
30
0
0
VERTEX
8
ENGRAVE
10
416.0040
20
15.8528
30
0
0
VERTEX
8
ENGRAVE
10
416.0690
20
15.8768
30
0
0
VERTEX
8
ENGRAVE
10
416.1290
20
15.9046
30
0
0
VERTEX
8
ENGRAVE
10
416.1860
20
15.9361
30
0
0
VERTEX
8
ENGRAVE
10
416.2390
20
15.9713
30
0
0
VERTEX
8
ENGRAVE
10
416.2870
20
16.0098
30
0
0
VERTEX
8
ENGRAVE
10
416.3300
20
16.0515
30
0
0
VERTEX
8
ENGRAVE
10
416.3680
20
16.0961
30
0
0
VERTEX
8
ENGRAVE
10
416.4010
20
16.1439
30
0
0
VERTEX
8
ENGRAVE
10
416.4290
20
16.1947
30
0
0
VERTEX
8
ENGRAVE
10
416.4520
20
16.2486
30
0
0
VERTEX
8
ENGRAVE
10
416.4700
20
16.3056
30
0
0
VERTEX
8
ENGRAVE
10
416.4830
20
16.3656
30
0
0
VERTEX
8
ENGRAVE
10
416.4900
20
16.4287
30
0
0
VERTEX
8
ENGRAVE
10
416.4930
20
16.4949
30
0
0
VERTEX
8
ENGRAVE
10
416.4910
20
16.5447
30
0
0
VERTEX
8
ENGRAVE
10
416.4860
20
16.5925
30
0
0
VERTEX
8
ENGRAVE
10
416.4790
20
16.6383
30
0
0
VERTEX
8
ENGRAVE
10
416.4680
20
16.6821
30
0
0
VERTEX
8
ENGRAVE
10
416.4530
20
16.7239
30
0
0
VERTEX
8
ENGRAVE
10
416.4360
20
16.7637
30
0
0
VERTEX
8
ENGRAVE
10
416.4150
20
16.8015
30
0
0
VERTEX
8
ENGRAVE
10
416.3920
20
16.8374
30
0
0
VERTEX
8
ENGRAVE
10
416.3650
20
16.8712
30
0
0
VERTEX
8
ENGRAVE
10
416.3350
20
16.9031
30
0
0
VERTEX
8
ENGRAVE
10
416.3020
20
16.9327
30
0
0
VERTEX
8
ENGRAVE
10
416.2660
20
16.9600
30
0
0
VERTEX
8
ENGRAVE
10
416.2270
20
16.9849
30
0
0
VERTEX
8
ENGRAVE
10
416.1860
20
17.0074
30
0
0
VERTEX
8
ENGRAVE
10
416.1410
20
17.0276
30
0
0
VERTEX
8
ENGRAVE
10
416.0940
20
17.0453
30
0
0
VERTEX
8
ENGRAVE
10
416.0440
20
17.0607
30
0
0
VERTEX
8
ENGRAVE
10
415.9910
20
17.0737
30
0
0
VERTEX
8
ENGRAVE
10
415.9350
20
17.0844
30
0
0
VERTEX
8
ENGRAVE
10
415.8760
20
17.0926
30
0
0
VERTEX
8
ENGRAVE
10
415.9220
20
17.1038
30
0
0
VERTEX
8
ENGRAVE
10
415.9670
20
17.1168
30
0
0
VERTEX
8
ENGRAVE
10
416.0090
20
17.1318
30
0
0
VERTEX
8
ENGRAVE
10
416.0480
20
17.1486
30
0
0
VERTEX
8
ENGRAVE
10
416.0850
20
17.1673
30
0
0
VERTEX
8
ENGRAVE
10
416.1190
20
17.1879
30
0
0
VERTEX
8
ENGRAVE
10
416.1510
20
17.2104
30
0
0
VERTEX
8
ENGRAVE
10
416.1810
20
17.2348
30
0
0
VERTEX
8
ENGRAVE
10
416.2080
20
17.2610
30
0
0
VERTEX
8
ENGRAVE
10
416.2330
20
17.2892
30
0
0
VERTEX
8
ENGRAVE
10
416.2550
20
17.3189
30
0
0
VERTEX
8
ENGRAVE
10
416.2750
20
17.3500
30
0
0
VERTEX
8
ENGRAVE
10
416.2920
20
17.3824
30
0
0
VERTEX
8
ENGRAVE
10
416.3080
20
17.4161
30
0
0
VERTEX
8
ENGRAVE
10
416.3210
20
17.4512
30
0
0
VERTEX
8
ENGRAVE
10
416.3310
20
17.4875
30
0
0
VERTEX
8
ENGRAVE
10
416.3390
20
17.5252
30
0
0
VERTEX
8
ENGRAVE
10
416.3450
20
17.5642
30
0
0
VERTEX
8
ENGRAVE
10
416.3490
20
17.6046
30
0
0
VERTEX
8
ENGRAVE
10
416.3500
20
17.6462
30
0
0
VERTEX
8
ENGRAVE
10
416.3480
20
17.7064
30
0
0
VERTEX
8
ENGRAVE
10
416.3410
20
17.7636
30
0
0
VERTEX
8
ENGRAVE
10
416.3290
20
17.8178
30
0
0
VERTEX
8
ENGRAVE
10
416.3130
20
17.8689
30
0
0
VERTEX
8
ENGRAVE
10
416.2920
20
17.9171
30
0
0
VERTEX
8
ENGRAVE
10
416.2660
20
17.9622
30
0
0
VERTEX
8
ENGRAVE
10
416.2350
20
18.0043
30
0
0
VERTEX
8
ENGRAVE
10
416.2000
20
18.0434
30
0
0
VERTEX
8
ENGRAVE
10
416.1610
20
18.0795
30
0
0
VERTEX
8
ENGRAVE
10
416.1160
20
18.1125
30
0
0
VERTEX
8
ENGRAVE
10
416.0670
20
18.1425
30
0
0
VERTEX
8
ENGRAVE
10
416.0140
20
18.1694
30
0
0
VERTEX
8
ENGRAVE
10
415.9560
20
18.1930
30
0
0
VERTEX
8
ENGRAVE
10
415.8940
20
18.2135
30
0
0
VERTEX
8
ENGRAVE
10
415.8270
20
18.2309
30
0
0
VERTEX
8
ENGRAVE
10
415.7560
20
18.2451
30
0
0
VERTEX
8
ENGRAVE
10
415.6810
20
18.2562
30
0
0
VERTEX
8
ENGRAVE
10
415.6010
20
18.2641
30
0
0
VERTEX
8
ENGRAVE
10
415.5170
20
18.2688
30
0
0
VERTEX
8
ENGRAVE
10
415.4280
20
18.2704
30
0
0
VERTEX
8
ENGRAVE
10
414.2910
20
18.2704
30
0
0
VERTEX
8
ENGRAVE
10
414.2910
20
15.7861
30
0
0
VERTEX
8
ENGRAVE
10
415.5340
20
15.7861
30
0
0
SEQEND
8
ENGRAVE
0
POLYLINE
8
ENGRAVE
66
1
10
0
20
0
30
0
70
1
0
VERTEX
8
ENGRAVE
10
414.8110
20
17.2689
30
0
0
VERTEX
8
ENGRAVE
10
414.8110
20
17.8842
30
0
0
VERTEX
8
ENGRAVE
10
415.4030
20
17.8842
30
0
0
VERTEX
8
ENGRAVE
10
415.4440
20
17.8835
30
0
0
VERTEX
8
ENGRAVE
10
415.4830
20
17.8814
30
0
0
VERTEX
8
ENGRAVE
10
415.5200
20
17.8779
30
0
0
VERTEX
8
ENGRAVE
10
415.5550
20
17.8730
30
0
0
VERTEX
8
ENGRAVE
10
415.5870
20
17.8666
30
0
0
VERTEX
8
ENGRAVE
10
415.6180
20
17.8588
30
0
0
VERTEX
8
ENGRAVE
10
415.6460
20
17.8497
30
0
0
VERTEX
8
ENGRAVE
10
415.6730
20
17.8391
30
0
0
VERTEX
8
ENGRAVE
10
415.6970
20
17.8271
30
0
0
VERTEX
8
ENGRAVE
10
415.7200
20
17.8137
30
0
0
VERTEX
8
ENGRAVE
10
415.7400
20
17.7986
30
0
0
VERTEX
8
ENGRAVE
10
415.7580
20
17.7816
30
0
0
VERTEX
8
ENGRAVE
10
415.7740
20
17.7627
30
0
0
VERTEX
8
ENGRAVE
10
415.7880
20
17.7418
30
0
0
VERTEX
8
ENGRAVE
10
415.8000
20
17.7189
30
0
0
VERTEX
8
ENGRAVE
10
415.8090
20
17.6942
30
0
0
VERTEX
8
ENGRAVE
10
415.8170
20
17.6675
30
0
0
VERTEX
8
ENGRAVE
10
415.8220
20
17.6388
30
0
0
VERTEX
8
ENGRAVE
10
415.8250
20
17.6082
30
0
0
VERTEX
8
ENGRAVE
10
415.8260
20
17.5757
30
0
0
VERTEX
8
ENGRAVE
10
415.8250
20
17.5458
30
0
0
VERTEX
8
ENGRAVE
10
415.8220
20
17.5174
30
0
0
VERTEX
8
ENGRAVE
10
415.8170
20
17.4906
30
0
0
VERTEX
8
ENGRAVE
10
415.8100
20
17.4653
30
0
0
VERTEX
8
ENGRAVE
10
415.8010
20
17.4415
30
0
0
VERTEX
8
ENGRAVE
10
415.7900
20
17.4192
30
0
0
VERTEX
8
ENGRAVE
10
415.7770
20
17.3985
30
0
0
VERTEX
8
ENGRAVE
10
415.7630
20
17.3793
30
0
0
VERTEX
8
ENGRAVE
10
415.7460
20
17.3617
30
0
0
VERTEX
8
ENGRAVE
10
415.7270
20
17.3456
30
0
0
VERTEX
8
ENGRAVE
10
415.7060
20
17.3310
30
0
0
VERTEX
8
ENGRAVE
10
415.6820
20
17.3180
30
0
0
VERTEX
8
ENGRAVE
10
415.6560
20
17.3065
30
0
0
VERTEX
8
ENGRAVE
10
415.6280
20
17.2965
30
0
0
VERTEX
8
ENGRAVE
10
415.5970
20
17.2881
30
0
0
VERTEX
8
ENGRAVE
10
415.5640
20
17.2812
30
0
0
VERTEX
8
ENGRAVE
10
415.5280
20
17.2758
30
0
0
VERTEX
8
ENGRAVE
10
415.4900
20
17.2720
30
0
0
VERTEX
8
ENGRAVE
10
415.4500
20
17.2697
30
0
0
VERTEX
8
ENGRAVE
10
415.4070
20
17.2689
30
0
0
SEQEND
8
ENGRAVE
0
POLYLINE
8
ENGRAVE
66
1
10
0
20
0
30
0
70
1
0
VERTEX
8
ENGRAVE
10
414.8110
20
16.1723
30
0
0
VERTEX
8
ENGRAVE
10
414.8110
20
16.8846
30
0
0
VERTEX
8
ENGRAVE
10
415.4700
20
16.8846
30
0
0
VERTEX
8
ENGRAVE
10
415.5650
20
16.8811
30
0
0
VERTEX
8
ENGRAVE
10
415.6500
20
16.8706
30
0
0
VERTEX
8
ENGRAVE
10
415.7260
20
16.8531
30
0
0
VERTEX
8
ENGRAVE
10
415.7910
20
16.8287
30
0
0
VERTEX
8
ENGRAVE
10
415.8460
20
16.7973
30
0
0
VERTEX
8
ENGRAVE
10
415.8910
20
16.7589
30
0
0
VERTEX
8
ENGRAVE
10
415.9260
20
16.7135
30
0
0
VERTEX
8
ENGRAVE
10
415.9510
20
16.6611
30
0
0
VERTEX
8
ENGRAVE
10
415.9660
20
16.6018
30
0
0
VERTEX
8
ENGRAVE
10
415.9710
20
16.5354
30
0
0
VERTEX
8
ENGRAVE
10
415.9700
20
16.5000
30
0
0
VERTEX
8
ENGRAVE
10
415.9660
20
16.4664
30
0
0
VERTEX
8
ENGRAVE
10
415.9600
20
16.4347
30
0
0
VERTEX
8
ENGRAVE
10
415.9520
20
16.4047
30
0
0
VERTEX
8
ENGRAVE
10
415.9420
20
16.3766
30
0
0
VERTEX
8
ENGRAVE
10
415.9290
20
16.3502
30
0
0
VERTEX
8
ENGRAVE
10
415.9140
20
16.3257
30
0
0
VERTEX
8
ENGRAVE
10
415.8970
20
16.3030
30
0
0
VERTEX
8
ENGRAVE
10
415.8770
20
16.2821
30
0
0
VERTEX
8
ENGRAVE
10
415.8550
20
16.2630
30
0
0
VERTEX
8
ENGRAVE
10
415.8310
20
16.2458
30
0
0
VERTEX
8
ENGRAVE
10
415.8040
20
16.2304
30
0
0
VERTEX
8
ENGRAVE
10
415.7740
20
16.2168
30
0
0
VERTEX
8
ENGRAVE
10
415.7410
20
16.2049
30
0
0
VERTEX
8
ENGRAVE
10
415.7060
20
16.1950
30
0
0
VERTEX
8
ENGRAVE
10
415.6680
20
16.1868
30
0
0
VERTEX
8
ENGRAVE
10
415.6280
20
16.1804
30
0
0
VERTEX
8
ENGRAVE
10
415.5840
20
16.1759
30
0
0
VERTEX
8
ENGRAVE
10
415.5380
20
16.1732
30
0
0
VERTEX
8
ENGRAVE
10
415.4900
20
16.1723
30
0
0
SEQEND
8
ENGRAVE
0
POLYLINE
8
ENGRAVE
66
1
10
0
20
0
30
0
70
1
0
VERTEX
8
ENGRAVE
10
424.2800
20
18.2704
30
0
0
VERTEX
8
ENGRAVE
10
423.7590
20
18.2704
30
0
0
VERTEX
8
ENGRAVE
10
423.7590
20
15.7861
30
0
0
VERTEX
8
ENGRAVE
10
424.2800
20
15.7861
30
0
0
SEQEND
8
ENGRAVE
0
POLYLINE
8
ENGRAVE
66
1
10
0
20
0
30
0
70
1
0
VERTEX
8
ENGRAVE
10
417.3570
20
18.2704
30
0
0
VERTEX
8
ENGRAVE
10
416.8370
20
18.2704
30
0
0
VERTEX
8
ENGRAVE
10
416.8370
20
15.7861
30
0
0
VERTEX
8
ENGRAVE
10
417.3570
20
15.7861
30
0
0
SEQEND
8
ENGRAVE
0
POLYLINE
8
ENGRAVE
66
1
10
0
20
0
30
0
70
1
0
VERTEX
8
ENGRAVE
10
425.2590
20
16.7294
30
0
0
VERTEX
8
ENGRAVE
10
425.8690
20
16.7294
30
0
0
VERTEX
8
ENGRAVE
10
426.4460
20
15.7861
30
0
0
VERTEX
8
ENGRAVE
10
427.0310
20
15.7861
30
0
0
VERTEX
8
ENGRAVE
10
426.3590
20
16.8299
30
0
0
VERTEX
8
ENGRAVE
10
426.4090
20
16.8432
30
0
0
VERTEX
8
ENGRAVE
10
426.4560
20
16.8591
30
0
0
VERTEX
8
ENGRAVE
10
426.5010
20
16.8775
30
0
0
VERTEX
8
ENGRAVE
10
426.5450
20
16.8986
30
0
0
VERTEX
8
ENGRAVE
10
426.5860
20
16.9222
30
0
0
VERTEX
8
ENGRAVE
10
426.6250
20
16.9485
30
0
0
VERTEX
8
ENGRAVE
10
426.6610
20
16.9773
30
0
0
VERTEX
8
ENGRAVE
10
426.6960
20
17.0087
30
0
0
VERTEX
8
ENGRAVE
10
426.7290
20
17.0428
30
0
0
VERTEX
8
ENGRAVE
10
426.7600
20
17.0794
30
0
0
VERTEX
8
ENGRAVE
10
426.7880
20
17.1180
30
0
0
VERTEX
8
ENGRAVE
10
426.8130
20
17.1580
30
0
0
VERTEX
8
ENGRAVE
10
426.8350
20
17.1995
30
0
0
VERTEX
8
ENGRAVE
10
426.8550
20
17.2424
30
0
0
VERTEX
8
ENGRAVE
10
426.8710
20
17.2868
30
0
0
VERTEX
8
ENGRAVE
10
426.8840
20
17.3325
30
0
0
VERTEX
8
ENGRAVE
10
426.8950
20
17.3797
30
0
0
VERTEX
8
ENGRAVE
10
426.9020
20
17.4283
30
0
0
VERTEX
8
ENGRAVE
10
426.9060
20
17.4784
30
0
0
VERTEX
8
ENGRAVE
10
426.9080
20
17.5299
30
0
0
VERTEX
8
ENGRAVE
10
426.9050
20
17.5998
30
0
0
VERTEX
8
ENGRAVE
10
426.8980
20
17.6664
30
0
0
VERTEX
8
ENGRAVE
10
426.8860
20
17.7296
30
0
0
VERTEX
8
ENGRAVE
10
426.8690
20
17.7895
30
0
0
VERTEX
8
ENGRAVE
10
426.8470
20
17.8461
30
0
0
VERTEX
8
ENGRAVE
10
426.8210
20
17.8994
30
0
0
VERTEX
8
ENGRAVE
10
426.7890
20
17.9493
30
0
0
VERTEX
8
ENGRAVE
10
426.7530
20
17.9959
30
0
0
VERTEX
8
ENGRAVE
10
426.7120
20
18.0391
30
0
0
VERTEX
8
ENGRAVE
10
426.6660
20
18.0791
30
0
0
VERTEX
8
ENGRAVE
10
426.6160
20
18.1154
30
0
0
VERTEX
8
ENGRAVE
10
426.5620
20
18.1479
30
0
0
VERTEX
8
ENGRAVE
10
426.5030
20
18.1766
30
0
0
VERTEX
8
ENGRAVE
10
426.4410
20
18.2015
30
0
0
VERTEX
8
ENGRAVE
10
426.3740
20
18.2225
30
0
0
VERTEX
8
ENGRAVE
10
426.3030
20
18.2398
30
0
0
VERTEX
8
ENGRAVE
10
426.2290
20
18.2531
30
0
0
VERTEX
8
ENGRAVE
10
426.1500
20
18.2627
30
0
0
VERTEX
8
ENGRAVE
10
426.0670
20
18.2684
30
0
0
VERTEX
8
ENGRAVE
10
425.9800
20
18.2704
30
0
0
VERTEX
8
ENGRAVE
10
424.7390
20
18.2704
30
0
0
VERTEX
8
ENGRAVE
10
424.7390
20
15.7861
30
0
0
VERTEX
8
ENGRAVE
10
425.2590
20
15.7861
30
0
0
SEQEND
8
ENGRAVE
0
POLYLINE
8
ENGRAVE
66
1
10
0
20
0
30
0
70
1
0
VERTEX
8
ENGRAVE
10
425.2590
20
17.1331
30
0
0
VERTEX
8
ENGRAVE
10
425.2590
20
17.8666
30
0
0
VERTEX
8
ENGRAVE
10
425.9260
20
17.8666
30
0
0
VERTEX
8
ENGRAVE
10
426.0130
20
17.8630
30
0
0
VERTEX
8
ENGRAVE
10
426.0910
20
17.8523
30
0
0
VERTEX
8
ENGRAVE
10
426.1600
20
17.8344
30
0
0
VERTEX
8
ENGRAVE
10
426.2190
20
17.8093
30
0
0
VERTEX
8
ENGRAVE
10
426.2700
20
17.7771
30
0
0
VERTEX
8
ENGRAVE
10
426.3110
20
17.7378
30
0
0
VERTEX
8
ENGRAVE
10
426.3430
20
17.6912
30
0
0
VERTEX
8
ENGRAVE
10
426.3660
20
17.6375
30
0
0
VERTEX
8
ENGRAVE
10
426.3800
20
17.5767
30
0
0
VERTEX
8
ENGRAVE
10
426.3840
20
17.5087
30
0
0
VERTEX
8
ENGRAVE
10
426.3830
20
17.4739
30
0
0
VERTEX
8
ENGRAVE
10
426.3800
20
17.4406
30
0
0
VERTEX
8
ENGRAVE
10
426.3740
20
17.4090
30
0
0
VERTEX
8
ENGRAVE
10
426.3660
20
17.3789
30
0
0
VERTEX
8
ENGRAVE
10
426.3560
20
17.3504
30
0
0
VERTEX
8
ENGRAVE
10
426.3440
20
17.3236
30
0
0
VERTEX
8
ENGRAVE
10
426.3290
20
17.2983
30
0
0
VERTEX
8
ENGRAVE
10
426.3120
20
17.2746
30
0
0
VERTEX
8
ENGRAVE
10
426.2930
20
17.2524
30
0
0
VERTEX
8
ENGRAVE
10
426.2710
20
17.2319
30
0
0
VERTEX
8
ENGRAVE
10
426.2480
20
17.2131
30
0
0
VERTEX
8
ENGRAVE
10
426.2220
20
17.1963
30
0
0
VERTEX
8
ENGRAVE
10
426.1940
20
17.1815
30
0
0
VERTEX
8
ENGRAVE
10
426.1640
20
17.1687
30
0
0
VERTEX
8
ENGRAVE
10
426.1320
20
17.1578
30
0
0
VERTEX
8
ENGRAVE
10
426.0980
20
17.1489
30
0
0
VERTEX
8
ENGRAVE
10
426.0620
20
17.1420
30
0
0
VERTEX
8
ENGRAVE
10
426.0230
20
17.1371
30
0
0
VERTEX
8
ENGRAVE
10
425.9830
20
17.1341
30
0
0
VERTEX
8
ENGRAVE
10
425.9400
20
17.1331
30
0
0
SEQEND
8
ENGRAVE
0
POLYLINE
8
ENGRAVE
66
1
10
0
20
0
30
0
70
1
0
VERTEX
8
ENGRAVE
10
412.3330
20
16.4209
30
0
0
VERTEX
8
ENGRAVE
10
413.2800
20
16.4209
30
0
0
VERTEX
8
ENGRAVE
10
413.5000
20
15.7861
30
0
0
VERTEX
8
ENGRAVE
10
414.0150
20
15.7861
30
0
0
VERTEX
8
ENGRAVE
10
413.1120
20
18.2704
30
0
0
VERTEX
8
ENGRAVE
10
412.4990
20
18.2704
30
0
0
VERTEX
8
ENGRAVE
10
411.5920
20
15.7861
30
0
0
VERTEX
8
ENGRAVE
10
412.1120
20
15.7861
30
0
0
SEQEND
8
ENGRAVE
0
POLYLINE
8
ENGRAVE
66
1
10
0
20
0
30
0
70
1
0
VERTEX
8
ENGRAVE
10
412.4490
20
16.8123
30
0
0
VERTEX
8
ENGRAVE
10
412.5020
20
16.9672
30
0
0
VERTEX
8
ENGRAVE
10
412.5500
20
17.1075
30
0
0
VERTEX
8
ENGRAVE
10
412.5930
20
17.2332
30
0
0
VERTEX
8
ENGRAVE
10
412.6310
20
17.3443
30
0
0
VERTEX
8
ENGRAVE
10
412.6640
20
17.4408
30
0
0
VERTEX
8
ENGRAVE
10
412.6920
20
17.5227
30
0
0
VERTEX
8
ENGRAVE
10
412.7150
20
17.5900
30
0
0
VERTEX
8
ENGRAVE
10
412.7320
20
17.6428
30
0
0
VERTEX
8
ENGRAVE
10
412.7450
20
17.6809
30
0
0
VERTEX
8
ENGRAVE
10
412.7520
20
17.7044
30
0
0
VERTEX
8
ENGRAVE
10
412.7620
20
17.7361
30
0
0
VERTEX
8
ENGRAVE
10
412.7670
20
17.7515
30
0
0
VERTEX
8
ENGRAVE
10
412.7750
20
17.7811
30
0
0
VERTEX
8
ENGRAVE
10
412.7800
20
17.7954
30
0
0
VERTEX
8
ENGRAVE
10
412.7870
20
17.8229
30
0
0
VERTEX
8
ENGRAVE
10
412.7950
20
17.8490
30
0
0
VERTEX
8
ENGRAVE
10
412.8050
20
17.8878
30
0
0
VERTEX
8
ENGRAVE
10
412.8420
20
17.7661
30
0
0
VERTEX
8
ENGRAVE
10
412.9180
20
17.5263
30
0
0
VERTEX
8
ENGRAVE
10
413.1630
20
16.8123
30
0
0
SEQEND
8
ENGRAVE
0
POLYLINE
8
ENGRAVE
66
1
10
0
20
0
30
0
70
1
0
VERTEX
8
ENGRAVE
10
421.8020
20
16.4209
30
0
0
VERTEX
8
ENGRAVE
10
422.7480
20
16.4209
30
0
0
VERTEX
8
ENGRAVE
10
422.9690
20
15.7861
30
0
0
VERTEX
8
ENGRAVE
10
423.4840
20
15.7861
30
0
0
VERTEX
8
ENGRAVE
10
422.5810
20
18.2704
30
0
0
VERTEX
8
ENGRAVE
10
421.9670
20
18.2704
30
0
0
VERTEX
8
ENGRAVE
10
421.0610
20
15.7861
30
0
0
VERTEX
8
ENGRAVE
10
421.5810
20
15.7861
30
0
0
SEQEND
8
ENGRAVE
0
POLYLINE
8
ENGRAVE
66
1
10
0
20
0
30
0
70
1
0
VERTEX
8
ENGRAVE
10
421.9180
20
16.8123
30
0
0
VERTEX
8
ENGRAVE
10
421.9710
20
16.9672
30
0
0
VERTEX
8
ENGRAVE
10
422.0190
20
17.1075
30
0
0
VERTEX
8
ENGRAVE
10
422.0620
20
17.2332
30
0
0
VERTEX
8
ENGRAVE
10
422.1000
20
17.3443
30
0
0
VERTEX
8
ENGRAVE
10
422.1330
20
17.4408
30
0
0
VERTEX
8
ENGRAVE
10
422.1610
20
17.5227
30
0
0
VERTEX
8
ENGRAVE
10
422.1840
20
17.5900
30
0
0
VERTEX
8
ENGRAVE
10
422.2010
20
17.6428
30
0
0
VERTEX
8
ENGRAVE
10
422.2140
20
17.6809
30
0
0
VERTEX
8
ENGRAVE
10
422.2210
20
17.7044
30
0
0
VERTEX
8
ENGRAVE
10
422.2310
20
17.7361
30
0
0
VERTEX
8
ENGRAVE
10
422.2350
20
17.7515
30
0
0
VERTEX
8
ENGRAVE
10
422.2440
20
17.7811
30
0
0
VERTEX
8
ENGRAVE
10
422.2480
20
17.7954
30
0
0
VERTEX
8
ENGRAVE
10
422.2560
20
17.8229
30
0
0
VERTEX
8
ENGRAVE
10
422.2640
20
17.8490
30
0
0
VERTEX
8
ENGRAVE
10
422.2740
20
17.8878
30
0
0
VERTEX
8
ENGRAVE
10
422.3110
20
17.7661
30
0
0
VERTEX
8
ENGRAVE
10
422.3870
20
17.5263
30
0
0
VERTEX
8
ENGRAVE
10
422.6320
20
16.8123
30
0
0
SEQEND
8
ENGRAVE
0
POLYLINE
8
ENGRAVE
66
1
10
0
20
0
30
0
70
1
0
VERTEX
8
ENGRAVE
10
181.1610
20
6.4645
30
0
0
VERTEX
8
ENGRAVE
10
181.2510
20
6.4703
30
0
0
VERTEX
8
ENGRAVE
10
181.3390
20
6.4799
30
0
0
VERTEX
8
ENGRAVE
10
181.4250
20
6.4934
30
0
0
VERTEX
8
ENGRAVE
10
181.5080
20
6.5106
30
0
0
VERTEX
8
ENGRAVE
10
181.5890
20
6.5317
30
0
0
VERTEX
8
ENGRAVE
10
181.6670
20
6.5567
30
0
0
VERTEX
8
ENGRAVE
10
181.7430
20
6.5855
30
0
0
VERTEX
8
ENGRAVE
10
181.8170
20
6.6182
30
0
0
VERTEX
8
ENGRAVE
10
181.8890
20
6.6547
30
0
0
VERTEX
8
ENGRAVE
10
181.9570
20
6.6948
30
0
0
VERTEX
8
ENGRAVE
10
182.0230
20
6.7383
30
0
0
VERTEX
8
ENGRAVE
10
182.0850
20
6.7852
30
0
0
VERTEX
8
ENGRAVE
10
182.1440
20
6.8355
30
0
0
VERTEX
8
ENGRAVE
10
182.2000
20
6.8893
30
0
0
VERTEX
8
ENGRAVE
10
182.2520
20
6.9464
30
0
0
VERTEX
8
ENGRAVE
10
182.3010
20
7.0070
30
0
0
VERTEX
8
ENGRAVE
10
182.3470
20
7.0709
30
0
0
VERTEX
8
ENGRAVE
10
182.3900
20
7.1383
30
0
0
VERTEX
8
ENGRAVE
10
182.4290
20
7.2091
30
0
0
VERTEX
8
ENGRAVE
10
182.4650
20
7.2827
30
0
0
VERTEX
8
ENGRAVE
10
182.4970
20
7.3586
30
0
0
VERTEX
8
ENGRAVE
10
182.5250
20
7.4369
30
0
0
VERTEX
8
ENGRAVE
10
182.5500
20
7.5174
30
0
0
VERTEX
8
ENGRAVE
10
182.5710
20
7.6002
30
0
0
VERTEX
8
ENGRAVE
10
182.5880
20
7.6854
30
0
0
VERTEX
8
ENGRAVE
10
182.6010
20
7.7728
30
0
0
VERTEX
8
ENGRAVE
10
182.6100
20
7.8625
30
0
0
VERTEX
8
ENGRAVE
10
182.6160
20
7.9546
30
0
0
VERTEX
8
ENGRAVE
10
182.6180
20
8.0489
30
0
0
VERTEX
8
ENGRAVE
10
182.6140
20
8.1912
30
0
0
VERTEX
8
ENGRAVE
10
182.6020
20
8.3272
30
0
0
VERTEX
8
ENGRAVE
10
182.5810
20
8.4571
30
0
0
VERTEX
8
ENGRAVE
10
182.5520
20
8.5808
30
0
0
VERTEX
8
ENGRAVE
10
182.5160
20
8.6982
30
0
0
VERTEX
8
ENGRAVE
10
182.4710
20
8.8095
30
0
0
VERTEX
8
ENGRAVE
10
182.4170
20
8.9146
30
0
0
VERTEX
8
ENGRAVE
10
182.3560
20
9.0134
30
0
0
VERTEX
8
ENGRAVE
10
182.2870
20
9.1060
30
0
0
VERTEX
8
ENGRAVE
10
182.2090
20
9.1925
30
0
0
VERTEX
8
ENGRAVE
10
182.1240
20
9.2716
30
0
0
VERTEX
8
ENGRAVE
10
182.0330
20
9.3424
30
0
0
VERTEX
8
ENGRAVE
10
181.9350
20
9.4049
30
0
0
VERTEX
8
ENGRAVE
10
181.8310
20
9.4591
30
0
0
VERTEX
8
ENGRAVE
10
181.7200
20
9.5049
30
0
0
VERTEX
8
ENGRAVE
10
181.6040
20
9.5424
30
0
0
VERTEX
8
ENGRAVE
10
181.4800
20
9.5716
30
0
0
VERTEX
8
ENGRAVE
10
181.3510
20
9.5924
30
0
0
VERTEX
8
ENGRAVE
10
181.2150
20
9.6049
30
0
0
VERTEX
8
ENGRAVE
10
181.0730
20
9.6091
30
0
0
VERTEX
8
ENGRAVE
10
180.9310
20
9.6050
30
0
0
VERTEX
8
ENGRAVE
10
180.7950
20
9.5926
30
0
0
VERTEX
8
ENGRAVE
10
180.6650
20
9.5720
30
0
0
VERTEX
8
ENGRAVE
10
180.5420
20
9.5431
30
0
0
VERTEX
8
ENGRAVE
10
180.4260
20
9.5060
30
0
0
VERTEX
8
ENGRAVE
10
180.3150
20
9.4607
30
0
0
VERTEX
8
ENGRAVE
10
180.2110
20
9.4071
30
0
0
VERTEX
8
ENGRAVE
10
180.1140
20
9.3452
30
0
0
VERTEX
8
ENGRAVE
10
180.0230
20
9.2751
30
0
0
VERTEX
8
ENGRAVE
10
179.9380
20
9.1968
30
0
0
VERTEX
8
ENGRAVE
10
179.8600
20
9.1111
30
0
0
VERTEX
8
ENGRAVE
10
179.7910
20
9.0189
30
0
0
VERTEX
8
ENGRAVE
10
179.7300
20
8.9203
30
0
0
VERTEX
8
ENGRAVE
10
179.6770
20
8.8152
30
0
0
VERTEX
8
ENGRAVE
10
179.6320
20
8.7037
30
0
0
VERTEX
8
ENGRAVE
10
179.5950
20
8.5856
30
0
0
VERTEX
8
ENGRAVE
10
179.5670
20
8.4611
30
0
0
VERTEX
8
ENGRAVE
10
179.5460
20
8.3302
30
0
0
VERTEX
8
ENGRAVE
10
179.5340
20
8.1928
30
0
0
VERTEX
8
ENGRAVE
10
179.5300
20
8.0489
30
0
0
VERTEX
8
ENGRAVE
10
179.5340
20
7.9045
30
0
0
VERTEX
8
ENGRAVE
10
179.5460
20
7.7663
30
0
0
VERTEX
8
ENGRAVE
10
179.5670
20
7.6344
30
0
0
VERTEX
8
ENGRAVE
10
179.5950
20
7.5088
30
0
0
VERTEX
8
ENGRAVE
10
179.6320
20
7.3895
30
0
0
VERTEX
8
ENGRAVE
10
179.6770
20
7.2764
30
0
0
VERTEX
8
ENGRAVE
10
179.7300
20
7.1696
30
0
0
VERTEX
8
ENGRAVE
10
179.7920
20
7.0691
30
0
0
VERTEX
8
ENGRAVE
10
179.8610
20
6.9748
30
0
0
VERTEX
8
ENGRAVE
10
179.9390
20
6.8868
30
0
0
VERTEX
8
ENGRAVE
10
180.0240
20
6.8062
30
0
0
VERTEX
8
ENGRAVE
10
180.1150
20
6.7341
30
0
0
VERTEX
8
ENGRAVE
10
180.2130
20
6.6705
30
0
0
VERTEX
8
ENGRAVE
10
180.3160
20
6.6153
30
0
0
VERTEX
8
ENGRAVE
10
180.4260
20
6.5687
30
0
0
VERTEX
8
ENGRAVE
10
180.5420
20
6.5305
30
0
0
VERTEX
8
ENGRAVE
10
180.6640
20
6.5008
30
0
0
VERTEX
8
ENGRAVE
10
180.7930
20
6.4796
30
0
0
VERTEX
8
ENGRAVE
10
180.9280
20
6.4669
30
0
0
VERTEX
8
ENGRAVE
10
181.0690
20
6.4626
30
0
0
SEQEND
8
ENGRAVE
0
POLYLINE
8
ENGRAVE
66
1
10
0
20
0
30
0
70
1
0
VERTEX
8
ENGRAVE
10
180.9870
20
6.9689
30
0
0
VERTEX
8
ENGRAVE
10
180.9100
20
6.9776
30
0
0
VERTEX
8
ENGRAVE
10
180.8360
20
6.9921
30
0
0
VERTEX
8
ENGRAVE
10
180.7650
20
7.0124
30
0
0
VERTEX
8
ENGRAVE
10
180.6980
20
7.0385
30
0
0
VERTEX
8
ENGRAVE
10
180.6340
20
7.0703
30
0
0
VERTEX
8
ENGRAVE
10
180.5740
20
7.1080
30
0
0
VERTEX
8
ENGRAVE
10
180.5170
20
7.1514
30
0
0
VERTEX
8
ENGRAVE
10
180.4640
20
7.2007
30
0
0
VERTEX
8
ENGRAVE
10
180.4140
20
7.2557
30
0
0
VERTEX
8
ENGRAVE
10
180.3690
20
7.3158
30
0
0
VERTEX
8
ENGRAVE
10
180.3280
20
7.3802
30
0
0
VERTEX
8
ENGRAVE
10
180.2920
20
7.4488
30
0
0
VERTEX
8
ENGRAVE
10
180.2610
20
7.5217
30
0
0
VERTEX
8
ENGRAVE
10
180.2340
20
7.5989
30
0
0
VERTEX
8
ENGRAVE
10
180.2130
20
7.6803
30
0
0
VERTEX
8
ENGRAVE
10
180.1960
20
7.7660
30
0
0
VERTEX
8
ENGRAVE
10
180.1840
20
7.8560
30
0
0
VERTEX
8
ENGRAVE
10
180.1770
20
7.9503
30
0
0
VERTEX
8
ENGRAVE
10
180.1750
20
8.0489
30
0
0
VERTEX
8
ENGRAVE
10
180.1770
20
8.1465
30
0
0
VERTEX
8
ENGRAVE
10
180.1840
20
8.2397
30
0
0
VERTEX
8
ENGRAVE
10
180.1960
20
8.3285
30
0
0
VERTEX
8
ENGRAVE
10
180.2120
20
8.4129
30
0
0
VERTEX
8
ENGRAVE
10
180.2330
20
8.4929
30
0
0
VERTEX
8
ENGRAVE
10
180.2590
20
8.5685
30
0
0
VERTEX
8
ENGRAVE
10
180.2890
20
8.6397
30
0
0
VERTEX
8
ENGRAVE
10
180.3240
20
8.7065
30
0
0
VERTEX
8
ENGRAVE
10
180.3640
20
8.7688
30
0
0
VERTEX
8
ENGRAVE
10
180.4090
20
8.8268
30
0
0
VERTEX
8
ENGRAVE
10
180.4580
20
8.8798
30
0
0
VERTEX
8
ENGRAVE
10
180.5100
20
8.9272
30
0
0
VERTEX
8
ENGRAVE
10
180.5670
20
8.9690
30
0
0
VERTEX
8
ENGRAVE
10
180.6280
20
9.0053
30
0
0
VERTEX
8
ENGRAVE
10
180.6920
20
9.0359
30
0
0
VERTEX
8
ENGRAVE
10
180.7600
20
9.0610
30
0
0
VERTEX
8
ENGRAVE
10
180.8330
20
9.0806
30
0
0
VERTEX
8
ENGRAVE
10
180.9090
20
9.0945
30
0
0
VERTEX
8
ENGRAVE
10
180.9890
20
9.1029
30
0
0
VERTEX
8
ENGRAVE
10
181.0730
20
9.1056
30
0
0
VERTEX
8
ENGRAVE
10
181.1560
20
9.1028
30
0
0
VERTEX
8
ENGRAVE
10
181.2350
20
9.0944
30
0
0
VERTEX
8
ENGRAVE
10
181.3100
20
9.0803
30
0
0
VERTEX
8
ENGRAVE
10
181.3810
20
9.0607
30
0
0
VERTEX
8
ENGRAVE
10
181.4490
20
9.0354
30
0
0
VERTEX
8
ENGRAVE
10
181.5130
20
9.0045
30
0
0
VERTEX
8
ENGRAVE
10
181.5730
20
8.9679
30
0
0
VERTEX
8
ENGRAVE
10
181.6290
20
8.9258
30
0
0
VERTEX
8
ENGRAVE
10
181.6820
20
8.8780
30
0
0
VERTEX
8
ENGRAVE
10
181.7300
20
8.8246
30
0
0
VERTEX
8
ENGRAVE
10
181.7750
20
8.7663
30
0
0
VERTEX
8
ENGRAVE
10
181.8150
20
8.7037
30
0
0
VERTEX
8
ENGRAVE
10
181.8500
20
8.6368
30
0
0
VERTEX
8
ENGRAVE
10
181.8800
20
8.5656
30
0
0
VERTEX
8
ENGRAVE
10
181.9060
20
8.4902
30
0
0
VERTEX
8
ENGRAVE
10
181.9270
20
8.4105
30
0
0
VERTEX
8
ENGRAVE
10
181.9440
20
8.3265
30
0
0
VERTEX
8
ENGRAVE
10
181.9550
20
8.2382
30
0
0
VERTEX
8
ENGRAVE
10
181.9620
20
8.1457
30
0
0
VERTEX
8
ENGRAVE
10
181.9650
20
8.0489
30
0
0
VERTEX
8
ENGRAVE
10
181.9620
20
7.9475
30
0
0
VERTEX
8
ENGRAVE
10
181.9550
20
7.8509
30
0
0
VERTEX
8
ENGRAVE
10
181.9440
20
7.7590
30
0
0
VERTEX
8
ENGRAVE
10
181.9270
20
7.6718
30
0
0
VERTEX
8
ENGRAVE
10
181.9060
20
7.5894
30
0
0
VERTEX
8
ENGRAVE
10
181.8810
20
7.5117
30
0
0
VERTEX
8
ENGRAVE
10
181.8500
20
7.4387
30
0
0
VERTEX
8
ENGRAVE
10
181.8150
20
7.3704
30
0
0
VERTEX
8
ENGRAVE
10
181.7760
20
7.3069
30
0
0
VERTEX
8
ENGRAVE
10
181.7310
20
7.2481
30
0
0
VERTEX
8
ENGRAVE
10
181.6830
20
7.1945
30
0
0
VERTEX
8
ENGRAVE
10
181.6300
20
7.1466
30
0
0
VERTEX
8
ENGRAVE
10
181.5740
20
7.1043
30
0
0
VERTEX
8
ENGRAVE
10
181.5130
20
7.0676
30
0
0
VERTEX
8
ENGRAVE
10
181.4490
20
7.0366
30
0
0
VERTEX
8
ENGRAVE
10
181.3810
20
7.0112
30
0
0
VERTEX
8
ENGRAVE
10
181.3090
20
6.9914
30
0
0
VERTEX
8
ENGRAVE
10
181.2330
20
6.9773
30
0
0
VERTEX
8
ENGRAVE
10
181.1520
20
6.9689
30
0
0
VERTEX
8
ENGRAVE
10
181.0690
20
6.9660
30
0
0
SEQEND
8
ENGRAVE
0
POLYLINE
8
ENGRAVE
66
1
10
0
20
0
30
0
70
1
0
VERTEX
8
ENGRAVE
10
253.2980
20
6.4888
30
0
0
VERTEX
8
ENGRAVE
10
253.4200
20
6.4984
30
0
0
VERTEX
8
ENGRAVE
10
253.5350
20
6.5144
30
0
0
VERTEX
8
ENGRAVE
10
253.6450
20
6.5368
30
0
0
VERTEX
8
ENGRAVE
10
253.7490
20
6.5656
30
0
0
VERTEX
8
ENGRAVE
10
253.8470
20
6.6009
30
0
0
VERTEX
8
ENGRAVE
10
253.9390
20
6.6424
30
0
0
VERTEX
8
ENGRAVE
10
254.0260
20
6.6905
30
0
0
VERTEX
8
ENGRAVE
10
254.1060
20
6.7449
30
0
0
VERTEX
8
ENGRAVE
10
254.1810
20
6.8057
30
0
0
VERTEX
8
ENGRAVE
10
254.2490
20
6.8723
30
0
0
VERTEX
8
ENGRAVE
10
254.3100
20
6.9442
30
0
0
VERTEX
8
ENGRAVE
10
254.3640
20
7.0213
30
0
0
VERTEX
8
ENGRAVE
10
254.4110
20
7.1036
30
0
0
VERTEX
8
ENGRAVE
10
254.4500
20
7.1911
30
0
0
VERTEX
8
ENGRAVE
10
254.4830
20
7.2839
30
0
0
VERTEX
8
ENGRAVE
10
254.5080
20
7.3819
30
0
0
VERTEX
8
ENGRAVE
10
254.5260
20
7.4851
30
0
0
VERTEX
8
ENGRAVE
10
254.5360
20
7.5936
30
0
0
VERTEX
8
ENGRAVE
10
254.5400
20
7.7073
30
0
0
VERTEX
8
ENGRAVE
10
254.5400
20
9.5865
30
0
0
VERTEX
8
ENGRAVE
10
253.9000
20
9.5865
30
0
0
VERTEX
8
ENGRAVE
10
253.9000
20
7.7464
30
0
0
VERTEX
8
ENGRAVE
10
253.8980
20
7.6747
30
0
0
VERTEX
8
ENGRAVE
10
253.8930
20
7.6065
30
0
0
VERTEX
8
ENGRAVE
10
253.8830
20
7.5417
30
0
0
VERTEX
8
ENGRAVE
10
253.8700
20
7.4803
30
0
0
VERTEX
8
ENGRAVE
10
253.8540
20
7.4222
30
0
0
VERTEX
8
ENGRAVE
10
253.8330
20
7.3676
30
0
0
VERTEX
8
ENGRAVE
10
253.8100
20
7.3164
30
0
0
VERTEX
8
ENGRAVE
10
253.7820
20
7.2686
30
0
0
VERTEX
8
ENGRAVE
10
253.7510
20
7.2242
30
0
0
VERTEX
8
ENGRAVE
10
253.7150
20
7.1832
30
0
0
VERTEX
8
ENGRAVE
10
253.6770
20
7.1459
30
0
0
VERTEX
8
ENGRAVE
10
253.6350
20
7.1125
30
0
0
VERTEX
8
ENGRAVE
10
253.5910
20
7.0831
30
0
0
VERTEX
8
ENGRAVE
10
253.5430
20
7.0576
30
0
0
VERTEX
8
ENGRAVE
10
253.4910
20
7.0360
30
0
0
VERTEX
8
ENGRAVE
10
253.4370
20
7.0183
30
0
0
VERTEX
8
ENGRAVE
10
253.3800
20
7.0045
30
0
0
VERTEX
8
ENGRAVE
10
253.3190
20
6.9947
30
0
0
VERTEX
8
ENGRAVE
10
253.2550
20
6.9888
30
0
0
VERTEX
8
ENGRAVE
10
253.1880
20
6.9869
30
0
0
VERTEX
8
ENGRAVE
10
253.1230
20
6.9887
30
0
0
VERTEX
8
ENGRAVE
10
253.0610
20
6.9944
30
0
0
VERTEX
8
ENGRAVE
10
253.0020
20
7.0038
30
0
0
VERTEX
8
ENGRAVE
10
252.9470
20
7.0169
30
0
0
VERTEX
8
ENGRAVE
10
252.8940
20
7.0338
30
0
0
VERTEX
8
ENGRAVE
10
252.8450
20
7.0544
30
0
0
VERTEX
8
ENGRAVE
10
252.8000
20
7.0788
30
0
0
VERTEX
8
ENGRAVE
10
252.7570
20
7.1070
30
0
0
VERTEX
8
ENGRAVE
10
252.7180
20
7.1389
30
0
0
VERTEX
8
ENGRAVE
10
252.6810
20
7.1746
30
0
0
VERTEX
8
ENGRAVE
10
252.6490
20
7.2139
30
0
0
VERTEX
8
ENGRAVE
10
252.6190
20
7.2566
30
0
0
VERTEX
8
ENGRAVE
10
252.5930
20
7.3029
30
0
0
VERTEX
8
ENGRAVE
10
252.5710
20
7.3527
30
0
0
VERTEX
8
ENGRAVE
10
252.5520
20
7.4060
30
0
0
VERTEX
8
ENGRAVE
10
252.5370
20
7.4627
30
0
0
VERTEX
8
ENGRAVE
10
252.5240
20
7.5230
30
0
0
VERTEX
8
ENGRAVE
10
252.5160
20
7.5867
30
0
0
VERTEX
8
ENGRAVE
10
252.5110
20
7.6540
30
0
0
VERTEX
8
ENGRAVE
10
252.5090
20
7.7247
30
0
0
VERTEX
8
ENGRAVE
10
252.5090
20
9.5865
30
0
0
VERTEX
8
ENGRAVE
10
251.8690
20
9.5865
30
0
0
VERTEX
8
ENGRAVE
10
251.8690
20
7.6748
30
0
0
VERTEX
8
ENGRAVE
10
251.8720
20
7.5628
30
0
0
VERTEX
8
ENGRAVE
10
251.8820
20
7.4562
30
0
0
VERTEX
8
ENGRAVE
10
251.8990
20
7.3549
30
0
0
VERTEX
8
ENGRAVE
10
251.9220
20
7.2588
30
0
0
VERTEX
8
ENGRAVE
10
251.9530
20
7.1681
30
0
0
VERTEX
8
ENGRAVE
10
251.9890
20
7.0826
30
0
0
VERTEX
8
ENGRAVE
10
252.0330
20
7.0025
30
0
0
VERTEX
8
ENGRAVE
10
252.0830
20
6.9276
30
0
0
VERTEX
8
ENGRAVE
10
252.1400
20
6.8580
30
0
0
VERTEX
8
ENGRAVE
10
252.2040
20
6.7938
30
0
0
VERTEX
8
ENGRAVE
10
252.2740
20
6.7352
30
0
0
VERTEX
8
ENGRAVE
10
252.3500
20
6.6828
30
0
0
VERTEX
8
ENGRAVE
10
252.4320
20
6.6366
30
0
0
VERTEX
8
ENGRAVE
10
252.5200
20
6.5965
30
0
0
VERTEX
8
ENGRAVE
10
252.6130
20
6.5626
30
0
0
VERTEX
8
ENGRAVE
10
252.7130
20
6.5349
30
0
0
VERTEX
8
ENGRAVE
10
252.8190
20
6.5133
30
0
0
VERTEX
8
ENGRAVE
10
252.9300
20
6.4979
30
0
0
VERTEX
8
ENGRAVE
10
253.0470
20
6.4887
30
0
0
VERTEX
8
ENGRAVE
10
253.1710
20
6.4856
30
0
0
SEQEND
8
ENGRAVE
0
POLYLINE
8
ENGRAVE
66
1
10
0
20
0
30
0
70
1
0
VERTEX
8
ENGRAVE
10
250.6280
20
9.0918
30
0
0
VERTEX
8
ENGRAVE
10
251.6180
20
9.0918
30
0
0
VERTEX
8
ENGRAVE
10
251.6180
20
9.5865
30
0
0
VERTEX
8
ENGRAVE
10
249.0010
20
9.5865
30
0
0
VERTEX
8
ENGRAVE
10
249.0010
20
9.0918
30
0
0
VERTEX
8
ENGRAVE
10
249.9880
20
9.0918
30
0
0
VERTEX
8
ENGRAVE
10
249.9880
20
6.5290
30
0
0
VERTEX
8
ENGRAVE
10
250.6280
20
6.5290
30
0
0
SEQEND
8
ENGRAVE
0
POLYLINE
8
ENGRAVE
66
1
10
0
20
0
30
0
70
1
0
VERTEX
8
ENGRAVE
10
247.5400
20
7.7464
30
0
0
VERTEX
8
ENGRAVE
10
248.3080
20
6.5290
30
0
0
VERTEX
8
ENGRAVE
10
248.9810
20
6.5290
30
0
0
VERTEX
8
ENGRAVE
10
247.9630
20
8.1370
30
0
0
VERTEX
8
ENGRAVE
10
248.8920
20
9.5865
30
0
0
VERTEX
8
ENGRAVE
10
248.2190
20
9.5865
30
0
0
VERTEX
8
ENGRAVE
10
247.5400
20
8.5059
30
0
0
VERTEX
8
ENGRAVE
10
246.8610
20
9.5865
30
0
0
VERTEX
8
ENGRAVE
10
246.1840
20
9.5865
30
0
0
VERTEX
8
ENGRAVE
10
247.1540
20
8.1370
30
0
0
VERTEX
8
ENGRAVE
10
246.0950
20
6.5290
30
0
0
VERTEX
8
ENGRAVE
10
246.7720
20
6.5290
30
0
0
SEQEND
8
ENGRAVE
0
POLYLINE
8
ENGRAVE
66
1
10
0
20
0
30
0
70
1
0
VERTEX
8
ENGRAVE
10
260.6610
20
7.0238
30
0
0
VERTEX
8
ENGRAVE
10
258.8080
20
7.0238
30
0
0
VERTEX
8
ENGRAVE
10
258.8080
20
7.8288
30
0
0
VERTEX
8
ENGRAVE
10
260.4400
20
7.8288
30
0
0
VERTEX
8
ENGRAVE
10
260.4400
20
8.3236
30
0
0
VERTEX
8
ENGRAVE
10
258.8080
20
8.3236
30
0
0
VERTEX
8
ENGRAVE
10
258.8080
20
9.0918
30
0
0
VERTEX
8
ENGRAVE
10
260.5720
20
9.0918
30
0
0
VERTEX
8
ENGRAVE
10
260.5720
20
9.5865
30
0
0
VERTEX
8
ENGRAVE
10
258.1680
20
9.5865
30
0
0
VERTEX
8
ENGRAVE
10
258.1680
20
6.5290
30
0
0
VERTEX
8
ENGRAVE
10
260.6610
20
6.5290
30
0
0
SEQEND
8
ENGRAVE
0
POLYLINE
8
ENGRAVE
66
1
10
0
20
0
30
0
70
1
0
VERTEX
8
ENGRAVE
10
245.7870
20
9.5865
30
0
0
VERTEX
8
ENGRAVE
10
245.1470
20
9.5865
30
0
0
VERTEX
8
ENGRAVE
10
245.1470
20
6.5290
30
0
0
VERTEX
8
ENGRAVE
10
245.7870
20
6.5290
30
0
0
SEQEND
8
ENGRAVE
0
POLYLINE
8
ENGRAVE
66
1
10
0
20
0
30
0
70
1
0
VERTEX
8
ENGRAVE
10
242.1000
20
8.3822
30
0
0
VERTEX
8
ENGRAVE
10
242.1000
20
8.4181
30
0
0
VERTEX
8
ENGRAVE
10
242.0990
20
8.4609
30
0
0
VERTEX
8
ENGRAVE
10
242.0980
20
8.5105
30
0
0
VERTEX
8
ENGRAVE
10
242.0960
20
8.5669
30
0
0
VERTEX
8
ENGRAVE
10
242.0940
20
8.6301
30
0
0
VERTEX
8
ENGRAVE
10
242.0910
20
8.7001
30
0
0
VERTEX
8
ENGRAVE
10
242.0870
20
8.7770
30
0
0
VERTEX
8
ENGRAVE
10
242.0840
20
8.8606
30
0
0
VERTEX
8
ENGRAVE
10
242.0790
20
8.9511
30
0
0
VERTEX
8
ENGRAVE
10
242.0740
20
9.0484
30
0
0
VERTEX
8
ENGRAVE
10
242.3060
20
8.2346
30
0
0
VERTEX
8
ENGRAVE
10
242.8580
20
6.5290
30
0
0
VERTEX
8
ENGRAVE
10
243.3130
20
6.5290
30
0
0
VERTEX
8
ENGRAVE
10
243.8640
20
8.2346
30
0
0
VERTEX
8
ENGRAVE
10
243.8800
20
8.2842
30
0
0
VERTEX
8
ENGRAVE
10
243.8970
20
8.3408
30
0
0
VERTEX
8
ENGRAVE
10
243.9160
20
8.4045
30
0
0
VERTEX
8
ENGRAVE
10
243.9360
20
8.4752
30
0
0
VERTEX
8
ENGRAVE
10
243.9580
20
8.5531
30
0
0
VERTEX
8
ENGRAVE
10
243.9820
20
8.6380
30
0
0
VERTEX
8
ENGRAVE
10
244.0070
20
8.7300
30
0
0
VERTEX
8
ENGRAVE
10
244.0340
20
8.8290
30
0
0
VERTEX
8
ENGRAVE
10
244.0620
20
8.9352
30
0
0
VERTEX
8
ENGRAVE
10
244.0920
20
9.0484
30
0
0
VERTEX
8
ENGRAVE
10
244.0890
20
8.9570
30
0
0
VERTEX
8
ENGRAVE
10
244.0820
20
8.7992
30
0
0
VERTEX
8
ENGRAVE
10
244.0770
20
8.6746
30
0
0
VERTEX
8
ENGRAVE
10
244.0750
20
8.6247
30
0
0
VERTEX
8
ENGRAVE
10
244.0740
20
8.5831
30
0
0
VERTEX
8
ENGRAVE
10
244.0730
20
8.5498
30
0
0
VERTEX
8
ENGRAVE
10
244.0720
20
8.5248
30
0
0
VERTEX
8
ENGRAVE
10
244.0720
20
8.5080
30
0
0
VERTEX
8
ENGRAVE
10
244.0710
20
8.4703
30
0
0
VERTEX
8
ENGRAVE
10
244.0710
20
8.4451
30
0
0
VERTEX
8
ENGRAVE
10
244.0710
20
8.4073
30
0
0
VERTEX
8
ENGRAVE
10
244.0710
20
8.3822
30
0
0
VERTEX
8
ENGRAVE
10
244.0710
20
6.5290
30
0
0
VERTEX
8
ENGRAVE
10
244.6390
20
6.5290
30
0
0
VERTEX
8
ENGRAVE
10
244.6390
20
9.5865
30
0
0
VERTEX
8
ENGRAVE
10
243.7860
20
9.5865
30
0
0
VERTEX
8
ENGRAVE
10
243.2240
20
7.7919
30
0
0
VERTEX
8
ENGRAVE
10
243.0880
20
7.3015
30
0
0
VERTEX
8
ENGRAVE
10
242.9830
20
7.7117
30
0
0
VERTEX
8
ENGRAVE
10
242.9360
20
7.8766
30
0
0
VERTEX
8
ENGRAVE
10
242.3890
20
9.5865
30
0
0
VERTEX
8
ENGRAVE
10
241.5320
20
9.5865
30
0
0
VERTEX
8
ENGRAVE
10
241.5320
20
6.5290
30
0
0
VERTEX
8
ENGRAVE
10
242.1000
20
6.5290
30
0
0
SEQEND
8
ENGRAVE
0
POLYLINE
8
ENGRAVE
66
1
10
0
20
0
30
0
70
1
0
VERTEX
8
ENGRAVE
10
255.6740
20
7.6900
30
0
0
VERTEX
8
ENGRAVE
10
256.4250
20
7.6900
30
0
0
VERTEX
8
ENGRAVE
10
257.1340
20
6.5290
30
0
0
VERTEX
8
ENGRAVE
10
257.8550
20
6.5290
30
0
0
VERTEX
8
ENGRAVE
10
257.0280
20
7.8136
30
0
0
VERTEX
8
ENGRAVE
10
257.0890
20
7.8300
30
0
0
VERTEX
8
ENGRAVE
10
257.1470
20
7.8495
30
0
0
VERTEX
8
ENGRAVE
10
257.2020
20
7.8723
30
0
0
VERTEX
8
ENGRAVE
10
257.2560
20
7.8982
30
0
0
VERTEX
8
ENGRAVE
10
257.3060
20
7.9273
30
0
0
VERTEX
8
ENGRAVE
10
257.3540
20
7.9596
30
0
0
VERTEX
8
ENGRAVE
10
257.4000
20
7.9951
30
0
0
VERTEX
8
ENGRAVE
10
257.4420
20
8.0337
30
0
0
VERTEX
8
ENGRAVE
10
257.4830
20
8.0756
30
0
0
VERTEX
8
ENGRAVE
10
257.5200
20
8.1207
30
0
0
VERTEX
8
ENGRAVE
10
257.5550
20
8.1682
30
0
0
VERTEX
8
ENGRAVE
10
257.5860
20
8.2175
30
0
0
VERTEX
8
ENGRAVE
10
257.6130
20
8.2685
30
0
0
VERTEX
8
ENGRAVE
10
257.6370
20
8.3214
30
0
0
VERTEX
8
ENGRAVE
10
257.6570
20
8.3759
30
0
0
VERTEX
8
ENGRAVE
10
257.6740
20
8.4322
30
0
0
VERTEX
8
ENGRAVE
10
257.6860
20
8.4903
30
0
0
VERTEX
8
ENGRAVE
10
257.6950
20
8.5502
30
0
0
VERTEX
8
ENGRAVE
10
257.7010
20
8.6118
30
0
0
VERTEX
8
ENGRAVE
10
257.7030
20
8.6751
30
0
0
VERTEX
8
ENGRAVE
10
257.7000
20
8.7612
30
0
0
VERTEX
8
ENGRAVE
10
257.6910
20
8.8431
30
0
0
VERTEX
8
ENGRAVE
10
257.6760
20
8.9210
30
0
0
VERTEX
8
ENGRAVE
10
257.6550
20
8.9947
30
0
0
VERTEX
8
ENGRAVE
10
257.6280
20
9.0644
30
0
0
VERTEX
8
ENGRAVE
10
257.5960
20
9.1299
30
0
0
VERTEX
8
ENGRAVE
10
257.5570
20
9.1914
30
0
0
VERTEX
8
ENGRAVE
10
257.5120
20
9.2487
30
0
0
VERTEX
8
ENGRAVE
10
257.4620
20
9.3019
30
0
0
VERTEX
8
ENGRAVE
10
257.4050
20
9.3511
30
0
0
VERTEX
8
ENGRAVE
10
257.3430
20
9.3958
30
0
0
VERTEX
8
ENGRAVE
10
257.2760
20
9.4358
30
0
0
VERTEX
8
ENGRAVE
10
257.2050
20
9.4712
30
0
0
VERTEX
8
ENGRAVE
10
257.1280
20
9.5018
30
0
0
VERTEX
8
ENGRAVE
10
257.0460
20
9.5277
30
0
0
VERTEX
8
ENGRAVE
10
256.9590
20
9.5489
30
0
0
VERTEX
8
ENGRAVE
10
256.8670
20
9.5653
30
0
0
VERTEX
8
ENGRAVE
10
256.7700
20
9.5771
30
0
0
VERTEX
8
ENGRAVE
10
256.6680
20
9.5842
30
0
0
VERTEX
8
ENGRAVE
10
256.5610
20
9.5865
30
0
0
VERTEX
8
ENGRAVE
10
255.0340
20
9.5865
30
0
0
VERTEX
8
ENGRAVE
10
255.0340
20
6.5290
30
0
0
VERTEX
8
ENGRAVE
10
255.6740
20
6.5290
30
0
0
SEQEND
8
ENGRAVE
0
POLYLINE
8
ENGRAVE
66
1
10
0
20
0
30
0
70
1
0
VERTEX
8
ENGRAVE
10
255.6740
20
8.1869
30
0
0
VERTEX
8
ENGRAVE
10
255.6740
20
9.0896
30
0
0
VERTEX
8
ENGRAVE
10
256.4940
20
9.0896
30
0
0
VERTEX
8
ENGRAVE
10
256.6010
20
9.0852
30
0
0
VERTEX
8
ENGRAVE
10
256.6970
20
9.0720
30
0
0
VERTEX
8
ENGRAVE
10
256.7820
20
9.0500
30
0
0
VERTEX
8
ENGRAVE
10
256.8550
20
9.0191
30
0
0
VERTEX
8
ENGRAVE
10
256.9170
20
8.9795
30
0
0
VERTEX
8
ENGRAVE
10
256.9680
20
8.9310
30
0
0
VERTEX
8
ENGRAVE
10
257.0070
20
8.8737
30
0
0
VERTEX
8
ENGRAVE
10
257.0360
20
8.8077
30
0
0
VERTEX
8
ENGRAVE
10
257.0530
20
8.7328
30
0
0
VERTEX
8
ENGRAVE
10
257.0580
20
8.6491
30
0
0
VERTEX
8
ENGRAVE
10
257.0570
20
8.6062
30
0
0
VERTEX
8
ENGRAVE
10
257.0530
20
8.5653
30
0
0
VERTEX
8
ENGRAVE
10
257.0460
20
8.5264
30
0
0
VERTEX
8
ENGRAVE
10
257.0360
20
8.4894
30
0
0
VERTEX
8
ENGRAVE
10
257.0230
20
8.4543
30
0
0
VERTEX
8
ENGRAVE
10
257.0080
20
8.4212
30
0
0
VERTEX
8
ENGRAVE
10
256.9900
20
8.3901
30
0
0
VERTEX
8
ENGRAVE
10
256.9690
20
8.3609
30
0
0
VERTEX
8
ENGRAVE
10
256.9460
20
8.3337
30
0
0
VERTEX
8
ENGRAVE
10
256.9190
20
8.3084
30
0
0
VERTEX
8
ENGRAVE
10
256.8900
20
8.2853
30
0
0
VERTEX
8
ENGRAVE
10
256.8590
20
8.2646
30
0
0
VERTEX
8
ENGRAVE
10
256.8240
20
8.2464
30
0
0
VERTEX
8
ENGRAVE
10
256.7870
20
8.2306
30
0
0
VERTEX
8
ENGRAVE
10
256.7480
20
8.2172
30
0
0
VERTEX
8
ENGRAVE
10
256.7060
20
8.2063
30
0
0
VERTEX
8
ENGRAVE
10
256.6610
20
8.1978
30
0
0
VERTEX
8
ENGRAVE
10
256.6140
20
8.1917
30
0
0
VERTEX
8
ENGRAVE
10
256.5640
20
8.1881
30
0
0
VERTEX
8
ENGRAVE
10
256.5110
20
8.1869
30
0
0
SEQEND
8
ENGRAVE
0
POLYLINE
8
ENGRAVE
66
1
10
0
20
0
30
0
70
1
0
VERTEX
8
ENGRAVE
10
193.4680
20
7.0008
30
0
0
VERTEX
8
ENGRAVE
10
191.6150
20
7.0008
30
0
0
VERTEX
8
ENGRAVE
10
191.6150
20
7.8059
30
0
0
VERTEX
8
ENGRAVE
10
193.2470
20
7.8059
30
0
0
VERTEX
8
ENGRAVE
10
193.2470
20
8.3006
30
0
0
VERTEX
8
ENGRAVE
10
191.6150
20
8.3006
30
0
0
VERTEX
8
ENGRAVE
10
191.6150
20
9.0688
30
0
0
VERTEX
8
ENGRAVE
10
193.3790
20
9.0688
30
0
0
VERTEX
8
ENGRAVE
10
193.3790
20
9.5635
30
0
0
VERTEX
8
ENGRAVE
10
190.9750
20
9.5635
30
0
0
VERTEX
8
ENGRAVE
10
190.9750
20
6.5060
30
0
0
VERTEX
8
ENGRAVE
10
193.4680
20
6.5060
30
0
0
SEQEND
8
ENGRAVE
0
POLYLINE
8
ENGRAVE
66
1
10
0
20
0
30
0
70
1
0
VERTEX
8
ENGRAVE
10
190.6040
20
7.0008
30
0
0
VERTEX
8
ENGRAVE
10
188.9640
20
7.0008
30
0
0
VERTEX
8
ENGRAVE
10
188.9640
20
9.5635
30
0
0
VERTEX
8
ENGRAVE
10
188.3230
20
9.5635
30
0
0
VERTEX
8
ENGRAVE
10
188.3230
20
6.5060
30
0
0
VERTEX
8
ENGRAVE
10
190.6040
20
6.5060
30
0
0
SEQEND
8
ENGRAVE
0
POLYLINE
8
ENGRAVE
66
1
10
0
20
0
30
0
70
1
0
VERTEX
8
ENGRAVE
10
187.0520
20
9.0688
30
0
0
VERTEX
8
ENGRAVE
10
188.0420
20
9.0688
30
0
0
VERTEX
8
ENGRAVE
10
188.0420
20
9.5635
30
0
0
VERTEX
8
ENGRAVE
10
185.4250
20
9.5635
30
0
0
VERTEX
8
ENGRAVE
10
185.4250
20
9.0688
30
0
0
VERTEX
8
ENGRAVE
10
186.4120
20
9.0688
30
0
0
VERTEX
8
ENGRAVE
10
186.4120
20
6.5060
30
0
0
VERTEX
8
ENGRAVE
10
187.0520
20
6.5060
30
0
0
SEQEND
8
ENGRAVE
0
POLYLINE
8
ENGRAVE
66
1
10
0
20
0
30
0
70
1
0
VERTEX
8
ENGRAVE
10
184.4010
20
9.0688
30
0
0
VERTEX
8
ENGRAVE
10
185.3910
20
9.0688
30
0
0
VERTEX
8
ENGRAVE
10
185.3910
20
9.5635
30
0
0
VERTEX
8
ENGRAVE
10
182.7740
20
9.5635
30
0
0
VERTEX
8
ENGRAVE
10
182.7740
20
9.0688
30
0
0
VERTEX
8
ENGRAVE
10
183.7610
20
9.0688
30
0
0
VERTEX
8
ENGRAVE
10
183.7610
20
6.5060
30
0
0
VERTEX
8
ENGRAVE
10
184.4010
20
6.5060
30
0
0
SEQEND
8
ENGRAVE
0
POLYLINE
8
ENGRAVE
66
1
10
0
20
0
30
0
70
1
0
VERTEX
8
ENGRAVE
10
177.1510
20
7.6670
30
0
0
VERTEX
8
ENGRAVE
10
177.9020
20
7.6670
30
0
0
VERTEX
8
ENGRAVE
10
178.6110
20
6.5060
30
0
0
VERTEX
8
ENGRAVE
10
179.3320
20
6.5060
30
0
0
VERTEX
8
ENGRAVE
10
178.5050
20
7.7907
30
0
0
VERTEX
8
ENGRAVE
10
178.5660
20
7.8070
30
0
0
VERTEX
8
ENGRAVE
10
178.6240
20
7.8265
30
0
0
VERTEX
8
ENGRAVE
10
178.6800
20
7.8493
30
0
0
VERTEX
8
ENGRAVE
10
178.7330
20
7.8752
30
0
0
VERTEX
8
ENGRAVE
10
178.7830
20
7.9043
30
0
0
VERTEX
8
ENGRAVE
10
178.8310
20
7.9366
30
0
0
VERTEX
8
ENGRAVE
10
178.8770
20
7.9721
30
0
0
VERTEX
8
ENGRAVE
10
178.9190
20
8.0108
30
0
0
VERTEX
8
ENGRAVE
10
178.9600
20
8.0526
30
0
0
VERTEX
8
ENGRAVE
10
178.9970
20
8.0977
30
0
0
VERTEX
8
ENGRAVE
10
179.0320
20
8.1452
30
0
0
VERTEX
8
ENGRAVE
10
179.0630
20
8.1945
30
0
0
VERTEX
8
ENGRAVE
10
179.0900
20
8.2455
30
0
0
VERTEX
8
ENGRAVE
10
179.1140
20
8.2984
30
0
0
VERTEX
8
ENGRAVE
10
179.1340
20
8.3529
30
0
0
VERTEX
8
ENGRAVE
10
179.1510
20
8.4093
30
0
0
VERTEX
8
ENGRAVE
10
179.1630
20
8.4673
30
0
0
VERTEX
8
ENGRAVE
10
179.1720
20
8.5272
30
0
0
VERTEX
8
ENGRAVE
10
179.1780
20
8.5888
30
0
0
VERTEX
8
ENGRAVE
10
179.1800
20
8.6521
30
0
0
VERTEX
8
ENGRAVE
10
179.1770
20
8.7382
30
0
0
VERTEX
8
ENGRAVE
10
179.1680
20
8.8201
30
0
0
VERTEX
8
ENGRAVE
10
179.1530
20
8.8980
30
0
0
VERTEX
8
ENGRAVE
10
179.1320
20
8.9717
30
0
0
VERTEX
8
ENGRAVE
10
179.1050
20
9.0414
30
0
0
VERTEX
8
ENGRAVE
10
179.0730
20
9.1069
30
0
0
VERTEX
8
ENGRAVE
10
179.0340
20
9.1684
30
0
0
VERTEX
8
ENGRAVE
10
178.9890
20
9.2257
30
0
0
VERTEX
8
ENGRAVE
10
178.9390
20
9.2789
30
0
0
VERTEX
8
ENGRAVE
10
178.8820
20
9.3281
30
0
0
VERTEX
8
ENGRAVE
10
178.8200
20
9.3728
30
0
0
VERTEX
8
ENGRAVE
10
178.7540
20
9.4128
30
0
0
VERTEX
8
ENGRAVE
10
178.6820
20
9.4482
30
0
0
VERTEX
8
ENGRAVE
10
178.6050
20
9.4788
30
0
0
VERTEX
8
ENGRAVE
10
178.5230
20
9.5047
30
0
0
VERTEX
8
ENGRAVE
10
178.4360
20
9.5259
30
0
0
VERTEX
8
ENGRAVE
10
178.3440
20
9.5423
30
0
0
VERTEX
8
ENGRAVE
10
178.2470
20
9.5541
30
0
0
VERTEX
8
ENGRAVE
10
178.1450
20
9.5612
30
0
0
VERTEX
8
ENGRAVE
10
178.0380
20
9.5635
30
0
0
VERTEX
8
ENGRAVE
10
176.5110
20
9.5635
30
0
0
VERTEX
8
ENGRAVE
10
176.5110
20
6.5060
30
0
0
VERTEX
8
ENGRAVE
10
177.1510
20
6.5060
30
0
0
SEQEND
8
ENGRAVE
0
POLYLINE
8
ENGRAVE
66
1
10
0
20
0
30
0
70
1
0
VERTEX
8
ENGRAVE
10
177.1510
20
8.1639
30
0
0
VERTEX
8
ENGRAVE
10
177.1510
20
9.0666
30
0
0
VERTEX
8
ENGRAVE
10
177.9710
20
9.0666
30
0
0
VERTEX
8
ENGRAVE
10
178.0780
20
9.0622
30
0
0
VERTEX
8
ENGRAVE
10
178.1740
20
9.0490
30
0
0
VERTEX
8
ENGRAVE
10
178.2590
20
9.0269
30
0
0
VERTEX
8
ENGRAVE
10
178.3320
20
8.9961
30
0
0
VERTEX
8
ENGRAVE
10
178.3940
20
8.9565
30
0
0
VERTEX
8
ENGRAVE
10
178.4450
20
8.9080
30
0
0
VERTEX
8
ENGRAVE
10
178.4840
20
8.8507
30
0
0
VERTEX
8
ENGRAVE
10
178.5130
20
8.7847
30
0
0
VERTEX
8
ENGRAVE
10
178.5300
20
8.7098
30
0
0
VERTEX
8
ENGRAVE
10
178.5350
20
8.6261
30
0
0
VERTEX
8
ENGRAVE
10
178.5340
20
8.5832
30
0
0
VERTEX
8
ENGRAVE
10
178.5300
20
8.5423
30
0
0
VERTEX
8
ENGRAVE
10
178.5230
20
8.5034
30
0
0
VERTEX
8
ENGRAVE
10
178.5130
20
8.4664
30
0
0
VERTEX
8
ENGRAVE
10
178.5000
20
8.4313
30
0
0
VERTEX
8
ENGRAVE
10
178.4850
20
8.3982
30
0
0
VERTEX
8
ENGRAVE
10
178.4670
20
8.3671
30
0
0
VERTEX
8
ENGRAVE
10
178.4460
20
8.3379
30
0
0
VERTEX
8
ENGRAVE
10
178.4230
20
8.3107
30
0
0
VERTEX
8
ENGRAVE
10
178.3960
20
8.2854
30
0
0
VERTEX
8
ENGRAVE
10
178.3670
20
8.2623
30
0
0
VERTEX
8
ENGRAVE
10
178.3360
20
8.2416
30
0
0
VERTEX
8
ENGRAVE
10
178.3010
20
8.2234
30
0
0
VERTEX
8
ENGRAVE
10
178.2640
20
8.2076
30
0
0
VERTEX
8
ENGRAVE
10
178.2250
20
8.1943
30
0
0
VERTEX
8
ENGRAVE
10
178.1830
20
8.1833
30
0
0
VERTEX
8
ENGRAVE
10
178.1380
20
8.1748
30
0
0
VERTEX
8
ENGRAVE
10
178.0910
20
8.1687
30
0
0
VERTEX
8
ENGRAVE
10
178.0410
20
8.1651
30
0
0
VERTEX
8
ENGRAVE
10
177.9880
20
8.1639
30
0
0
SEQEND
8
ENGRAVE
0
POLYLINE
8
ENGRAVE
66
1
10
0
20
0
30
0
70
1
0
VERTEX
8
ENGRAVE
10
174.0160
20
7.8167
30
0
0
VERTEX
8
ENGRAVE
10
175.3490
20
7.8167
30
0
0
VERTEX
8
ENGRAVE
10
175.3490
20
6.5060
30
0
0
VERTEX
8
ENGRAVE
10
175.9890
20
6.5060
30
0
0
VERTEX
8
ENGRAVE
10
175.9890
20
9.5635
30
0
0
VERTEX
8
ENGRAVE
10
175.3490
20
9.5635
30
0
0
VERTEX
8
ENGRAVE
10
175.3490
20
8.3461
30
0
0
VERTEX
8
ENGRAVE
10
174.0160
20
8.3461
30
0
0
VERTEX
8
ENGRAVE
10
174.0160
20
9.5635
30
0
0
VERTEX
8
ENGRAVE
10
173.3760
20
9.5635
30
0
0
VERTEX
8
ENGRAVE
10
173.3760
20
6.5060
30
0
0
VERTEX
8
ENGRAVE
10
174.0160
20
6.5060
30
0
0
SEQEND
8
ENGRAVE
0
POLYLINE
8
ENGRAVE
66
1
10
0
20
0
30
0
70
1
0
VERTEX
8
ENGRAVE
10
172.1050
20
9.0688
30
0
0
VERTEX
8
ENGRAVE
10
173.0950
20
9.0688
30
0
0
VERTEX
8
ENGRAVE
10
173.0950
20
9.5635
30
0
0
VERTEX
8
ENGRAVE
10
170.4780
20
9.5635
30
0
0
VERTEX
8
ENGRAVE
10
170.4780
20
9.0688
30
0
0
VERTEX
8
ENGRAVE
10
171.4650
20
9.0688
30
0
0
VERTEX
8
ENGRAVE
10
171.4650
20
6.5060
30
0
0
VERTEX
8
ENGRAVE
10
172.1050
20
6.5060
30
0
0
SEQEND
8
ENGRAVE
0
CIRCLE
8
COUNTERSINK
10
346.0000
20
106.0000
30
0
40
3.2000
0
CIRCLE
8
COUNTERSINK
10
384.0000
20
106.0000
30
0
40
3.2000
0
CIRCLE
8
COUNTERSINK
10
168.0000
20
52.0000
30
0
40
3.2000
0
CIRCLE
8
COUNTERSINK
10
196.0000
20
52.0000
30
0
40
3.2000
0
CIRCLE
8
COUNTERSINK
10
237.0000
20
52.0000
30
0
40
3.2000
0
CIRCLE
8
COUNTERSINK
10
265.0000
20
52.0000
30
0
40
3.2000
0
CIRCLE
8
COUNTERSINK
10
168.0000
20
24.0000
30
0
40
3.2000
0
CIRCLE
8
COUNTERSINK
10
196.0000
20
24.0000
30
0
40
3.2000
0
CIRCLE
8
COUNTERSINK
10
237.0000
20
24.0000
30
0
40
3.2000
0
CIRCLE
8
COUNTERSINK
10
265.0000
20
24.0000
30
0
40
3.2000
0
CIRCLE
8
COUNTERSINK
10
384.0000
20
14.0000
30
0
40
3.2000
0
CIRCLE
8
COUNTERSINK
10
346.0000
20
14.0000
30
0
40
3.2000
0
ENDSEC
0
EOF
