0
SECTION
2
HEADER
9
$ACADVER
1
AC1009
9
$INSUNITS
70
4
0
ENDSEC
0
SECTION
2
TABLES
0
TABLE
2
LAYER
70
4
0
LAYER
2
CUT
70
0
62
7
6
CONTINUOUS
0
LAYER
2
DRILL
70
0
62
1
6
CONTINUOUS
0
LAYER
2
ENGRAVE
70
0
62
5
6
CONTINUOUS
0
LAYER
2
COUNTERSINK
70
0
62
3
6
CONTINUOUS
0
ENDTAB
0
ENDSEC
0
SECTION
2
ENTITIES
0
POLYLINE
8
CUT
66
1
10
0
20
0
30
0
70
1
0
VERTEX
8
CUT
10
295.0000
20
112.0000
30
0
0
VERTEX
8
CUT
10
0.0000
20
112.0000
30
0
0
VERTEX
8
CUT
10
0.0000
20
6.0000
30
0
0
VERTEX
8
CUT
10
0.0228
20
5.4771
30
0
0
VERTEX
8
CUT
10
0.0912
20
4.9581
30
0
0
VERTEX
8
CUT
10
0.2045
20
4.4471
30
0
0
VERTEX
8
CUT
10
0.3618
20
3.9479
30
0
0
VERTEX
8
CUT
10
0.5621
20
3.4643
30
0
0
VERTEX
8
CUT
10
0.8038
20
3.0000
30
0
0
VERTEX
8
CUT
10
1.0851
20
2.5585
30
0
0
VERTEX
8
CUT
10
1.4037
20
2.1433
30
0
0
VERTEX
8
CUT
10
1.7573
20
1.7573
30
0
0
VERTEX
8
CUT
10
2.1433
20
1.4037
30
0
0
VERTEX
8
CUT
10
2.5585
20
1.0851
30
0
0
VERTEX
8
CUT
10
3.0000
20
0.8038
30
0
0
VERTEX
8
CUT
10
3.4643
20
0.5621
30
0
0
VERTEX
8
CUT
10
3.9479
20
0.3618
30
0
0
VERTEX
8
CUT
10
4.4471
20
0.2045
30
0
0
VERTEX
8
CUT
10
4.9581
20
0.0912
30
0
0
VERTEX
8
CUT
10
5.4771
20
0.0228
30
0
0
VERTEX
8
CUT
10
6.0000
20
0.0000
30
0
0
VERTEX
8
CUT
10
295.0000
20
0.0000
30
0
0
SEQEND
8
CUT
0
POLYLINE
8
CUT
66
1
10
0
20
0
30
0
70
1
0
VERTEX
8
CUT
10
34.5642
20
50.0190
30
0
0
VERTEX
8
CUT
10
34.1319
20
50.0759
30
0
0
VERTEX
8
CUT
10
33.7058
20
50.1704
30
0
0
VERTEX
8
CUT
10
33.2900
20
50.3015
30
0
0
VERTEX
8
CUT
10
32.8869
20
50.4685
30
0
0
VERTEX
8
CUT
10
32.5001
20
50.6698
30
0
0
VERTEX
8
CUT
10
32.1320
20
50.9043
30
0
0
VERTEX
8
CUT
10
31.7861
20
51.1697
30
0
0
VERTEX
8
CUT
10
31.4645
20
51.4645
30
0
0
VERTEX
8
CUT
10
31.1698
20
51.7861
30
0
0
VERTEX
8
CUT
10
30.9043
20
52.1320
30
0
0
VERTEX
8
CUT
10
30.6698
20
52.5001
30
0
0
VERTEX
8
CUT
10
30.4685
20
52.8869
30
0
0
VERTEX
8
CUT
10
30.3015
20
53.2900
30
0
0
VERTEX
8
CUT
10
30.1704
20
53.7058
30
0
0
VERTEX
8
CUT
10
30.0760
20
54.1319
30
0
0
VERTEX
8
CUT
10
30.0191
20
54.5640
30
0
0
VERTEX
8
CUT
10
30.0000
20
55.0000
30
0
0
VERTEX
8
CUT
10
30.0190
20
55.4360
30
0
0
VERTEX
8
CUT
10
30.0760
20
55.8681
30
0
0
VERTEX
8
CUT
10
30.1704
20
56.2942
30
0
0
VERTEX
8
CUT
10
30.3015
20
56.7100
30
0
0
VERTEX
8
CUT
10
30.4685
20
57.1131
30
0
0
VERTEX
8
CUT
10
30.6698
20
57.4999
30
0
0
VERTEX
8
CUT
10
30.9044
20
57.8680
30
0
0
VERTEX
8
CUT
10
31.1697
20
58.2139
30
0
0
VERTEX
8
CUT
10
31.4645
20
58.5355
30
0
0
VERTEX
8
CUT
10
31.7861
20
58.8303
30
0
0
VERTEX
8
CUT
10
32.1320
20
59.0956
30
0
0
VERTEX
8
CUT
10
32.5001
20
59.3302
30
0
0
VERTEX
8
CUT
10
32.8869
20
59.5315
30
0
0
VERTEX
8
CUT
10
33.2900
20
59.6985
30
0
0
VERTEX
8
CUT
10
33.7058
20
59.8296
30
0
0
VERTEX
8
CUT
10
34.1319
20
59.9240
30
0
0
VERTEX
8
CUT
10
34.5640
20
59.9810
30
0
0
VERTEX
8
CUT
10
35.0000
20
60.0000
30
0
0
VERTEX
8
CUT
10
35.4360
20
59.9809
30
0
0
VERTEX
8
CUT
10
35.8681
20
59.9240
30
0
0
VERTEX
8
CUT
10
36.2942
20
59.8296
30
0
0
VERTEX
8
CUT
10
36.7100
20
59.6985
30
0
0
VERTEX
8
CUT
10
37.1131
20
59.5315
30
0
0
VERTEX
8
CUT
10
37.4999
20
59.3302
30
0
0
VERTEX
8
CUT
10
37.8680
20
59.0957
30
0
0
VERTEX
8
CUT
10
38.2139
20
58.8302
30
0
0
VERTEX
8
CUT
10
38.5355
20
58.5355
30
0
0
VERTEX
8
CUT
10
38.8303
20
58.2139
30
0
0
VERTEX
8
CUT
10
39.0957
20
57.8680
30
0
0
VERTEX
8
CUT
10
39.3302
20
57.4999
30
0
0
VERTEX
8
CUT
10
39.5315
20
57.1131
30
0
0
VERTEX
8
CUT
10
39.6985
20
56.7100
30
0
0
VERTEX
8
CUT
10
39.8296
20
56.2942
30
0
0
VERTEX
8
CUT
10
39.9241
20
55.8681
30
0
0
VERTEX
8
CUT
10
39.9810
20
55.4358
30
0
0
VERTEX
8
CUT
10
40.0000
20
55.0000
30
0
0
VERTEX
8
CUT
10
39.9810
20
54.5641
30
0
0
VERTEX
8
CUT
10
39.9241
20
54.1319
30
0
0
VERTEX
8
CUT
10
39.8296
20
53.7058
30
0
0
VERTEX
8
CUT
10
39.6985
20
53.2900
30
0
0
VERTEX
8
CUT
10
39.5315
20
52.8869
30
0
0
VERTEX
8
CUT
10
39.3302
20
52.5001
30
0
0
VERTEX
8
CUT
10
39.0957
20
52.1320
30
0
0
VERTEX
8
CUT
10
38.8302
20
51.7861
30
0
0
VERTEX
8
CUT
10
38.5355
20
51.4645
30
0
0
VERTEX
8
CUT
10
38.2139
20
51.1698
30
0
0
VERTEX
8
CUT
10
37.8680
20
50.9043
30
0
0
VERTEX
8
CUT
10
37.4999
20
50.6698
30
0
0
VERTEX
8
CUT
10
37.1131
20
50.4685
30
0
0
VERTEX
8
CUT
10
36.7100
20
50.3015
30
0
0
VERTEX
8
CUT
10
36.2942
20
50.1704
30
0
0
VERTEX
8
CUT
10
35.8681
20
50.0759
30
0
0
VERTEX
8
CUT
10
35.4359
20
50.0190
30
0
0
VERTEX
8
CUT
10
35.0000
20
50.0000
30
0
0
SEQEND
8
CUT
0
POLYLINE
8
CUT
66
1
10
0
20
0
30
0
70
1
0
VERTEX
8
CUT
10
162.3030
20
17.0305
30
0
0
VERTEX
8
CUT
10
161.6110
20
17.1216
30
0
0
VERTEX
8
CUT
10
160.9290
20
17.2726
30
0
0
VERTEX
8
CUT
10
160.2640
20
17.4825
30
0
0
VERTEX
8
CUT
10
159.6190
20
17.7496
30
0
0
VERTEX
8
CUT
10
159.0000
20
18.0718
30
0
0
VERTEX
8
CUT
10
158.4110
20
18.4468
30
0
0
VERTEX
8
CUT
10
157.8580
20
18.8716
30
0
0
VERTEX
8
CUT
10
157.3430
20
19.3432
30
0
0
VERTEX
8
CUT
10
156.8720
20
19.8578
30
0
0
VERTEX
8
CUT
10
156.4470
20
20.4114
30
0
0
VERTEX
8
CUT
10
156.0720
20
20.9999
30
0
0
VERTEX
8
CUT
10
155.7500
20
21.6190
30
0
0
VERTEX
8
CUT
10
155.4820
20
22.2639
30
0
0
VERTEX
8
CUT
10
155.2730
20
22.9294
30
0
0
VERTEX
8
CUT
10
155.1220
20
23.6108
30
0
0
VERTEX
8
CUT
10
155.0300
20
24.3027
30
0
0
VERTEX
8
CUT
10
155.0000
20
25.0000
30
0
0
VERTEX
8
CUT
10
155.0300
20
25.6973
30
0
0
VERTEX
8
CUT
10
155.1220
20
26.3892
30
0
0
VERTEX
8
CUT
10
155.2730
20
27.0706
30
0
0
VERTEX
8
CUT
10
155.4820
20
27.7361
30
0
0
VERTEX
8
CUT
10
155.7500
20
28.3810
30
0
0
VERTEX
8
CUT
10
156.0720
20
29.0001
30
0
0
VERTEX
8
CUT
10
156.4470
20
29.5886
30
0
0
VERTEX
8
CUT
10
156.8720
20
30.1422
30
0
0
VERTEX
8
CUT
10
157.3430
20
30.6568
30
0
0
VERTEX
8
CUT
10
157.8580
20
31.1284
30
0
0
VERTEX
8
CUT
10
158.4110
20
31.5532
30
0
0
VERTEX
8
CUT
10
159.0000
20
31.9282
30
0
0
VERTEX
8
CUT
10
159.6190
20
32.2504
30
0
0
VERTEX
8
CUT
10
160.2640
20
32.5175
30
0
0
VERTEX
8
CUT
10
160.9290
20
32.7274
30
0
0
VERTEX
8
CUT
10
161.6110
20
32.8784
30
0
0
VERTEX
8
CUT
10
162.3030
20
32.9695
30
0
0
VERTEX
8
CUT
10
163.0000
20
33.0000
30
0
0
VERTEX
8
CUT
10
163.6970
20
32.9695
30
0
0
VERTEX
8
CUT
10
164.3890
20
32.8784
30
0
0
VERTEX
8
CUT
10
165.0710
20
32.7274
30
0
0
VERTEX
8
CUT
10
165.7360
20
32.5175
30
0
0
VERTEX
8
CUT
10
166.3810
20
32.2504
30
0
0
VERTEX
8
CUT
10
167.0000
20
31.9282
30
0
0
VERTEX
8
CUT
10
167.5890
20
31.5532
30
0
0
VERTEX
8
CUT
10
168.1420
20
31.1284
30
0
0
VERTEX
8
CUT
10
168.6570
20
30.6568
30
0
0
VERTEX
8
CUT
10
169.1280
20
30.1422
30
0
0
VERTEX
8
CUT
10
169.5530
20
29.5886
30
0
0
VERTEX
8
CUT
10
169.9280
20
29.0001
30
0
0
VERTEX
8
CUT
10
170.2500
20
28.3810
30
0
0
VERTEX
8
CUT
10
170.5180
20
27.7361
30
0
0
VERTEX
8
CUT
10
170.7270
20
27.0706
30
0
0
VERTEX
8
CUT
10
170.8780
20
26.3892
30
0
0
VERTEX
8
CUT
10
170.9700
20
25.6973
30
0
0
VERTEX
8
CUT
10
171.0000
20
25.0000
30
0
0
VERTEX
8
CUT
10
170.9700
20
24.3027
30
0
0
VERTEX
8
CUT
10
170.8780
20
23.6108
30
0
0
VERTEX
8
CUT
10
170.7270
20
22.9294
30
0
0
VERTEX
8
CUT
10
170.5180
20
22.2639
30
0
0
VERTEX
8
CUT
10
170.2500
20
21.6190
30
0
0
VERTEX
8
CUT
10
169.9280
20
20.9999
30
0
0
VERTEX
8
CUT
10
169.5530
20
20.4114
30
0
0
VERTEX
8
CUT
10
169.1280
20
19.8578
30
0
0
VERTEX
8
CUT
10
168.6570
20
19.3432
30
0
0
VERTEX
8
CUT
10
168.1420
20
18.8716
30
0
0
VERTEX
8
CUT
10
167.5890
20
18.4468
30
0
0
VERTEX
8
CUT
10
167.0000
20
18.0718
30
0
0
VERTEX
8
CUT
10
166.3810
20
17.7496
30
0
0
VERTEX
8
CUT
10
165.7360
20
17.4825
30
0
0
VERTEX
8
CUT
10
165.0710
20
17.2726
30
0
0
VERTEX
8
CUT
10
164.3890
20
17.1216
30
0
0
VERTEX
8
CUT
10
163.6970
20
17.0305
30
0
0
VERTEX
8
CUT
10
163.0000
20
17.0000
30
0
0
SEQEND
8
CUT
0
CIRCLE
8
DRILL
10
149.0000
20
39.0000
30
0
40
1.7000
0
CIRCLE
8
DRILL
10
177.0000
20
39.0000
30
0
40
1.7000
0
CIRCLE
8
DRILL
10
177.0000
20
11.0000
30
0
40
1.7000
0
CIRCLE
8
DRILL
10
149.0000
20
11.0000
30
0
40
1.7000
0
CIRCLE
8
DRILL
10
280.0000
20
8.0000
30
0
40
2.2500
0
CIRCLE
8
DRILL
10
10.0000
20
8.0000
30
0
40
2.2500
0
POLYLINE
8
ENGRAVE
66
1
10
0
20
0
30
0
70
1
0
VERTEX
8
ENGRAVE
10
36.0175
20
77.1889
30
0
0
VERTEX
8
ENGRAVE
10
34.6846
20
77.1889
30
0
0
VERTEX
8
ENGRAVE
10
34.6846
20
79.2712
30
0
0
VERTEX
8
ENGRAVE
10
34.1645
20
79.2712
30
0
0
VERTEX
8
ENGRAVE
10
34.1645
20
76.7869
30
0
0
VERTEX
8
ENGRAVE
10
36.0175
20
76.7869
30
0
0
SEQEND
8
ENGRAVE
0
POLYLINE
8
ENGRAVE
66
1
10
0
20
0
30
0
70
1
0
VERTEX
8
ENGRAVE
10
43.5560
20
75.4304
30
0
0
VERTEX
8
ENGRAVE
10
43.6171
20
75.4397
30
0
0
VERTEX
8
ENGRAVE
10
43.6753
20
75.4541
30
0
0
VERTEX
8
ENGRAVE
10
43.7306
20
75.4738
30
0
0
VERTEX
8
ENGRAVE
10
43.7831
20
75.4987
30
0
0
VERTEX
8
ENGRAVE
10
43.8327
20
75.5287
30
0
0
VERTEX
8
ENGRAVE
10
43.8794
20
75.5640
30
0
0
VERTEX
8
ENGRAVE
10
43.9233
20
75.6044
30
0
0
VERTEX
8
ENGRAVE
10
43.9643
20
75.6501
30
0
0
VERTEX
8
ENGRAVE
10
44.0024
20
75.7009
30
0
0
VERTEX
8
ENGRAVE
10
44.0377
20
75.7569
30
0
0
VERTEX
8
ENGRAVE
10
44.0612
20
75.8008
30
0
0
VERTEX
8
ENGRAVE
10
44.0811
20
75.8446
30
0
0
VERTEX
8
ENGRAVE
10
44.0971
20
75.8882
30
0
0
VERTEX
8
ENGRAVE
10
44.1095
20
75.9317
30
0
0
VERTEX
8
ENGRAVE
10
44.1181
20
75.9750
30
0
0
VERTEX
8
ENGRAVE
10
44.1229
20
76.0181
30
0
0
VERTEX
8
ENGRAVE
10
44.1241
20
76.0612
30
0
0
VERTEX
8
ENGRAVE
10
44.1215
20
76.1040
30
0
0
VERTEX
8
ENGRAVE
10
44.1152
20
76.1467
30
0
0
VERTEX
8
ENGRAVE
10
44.1051
20
76.1893
30
0
0
VERTEX
8
ENGRAVE
10
44.0914
20
76.2315
30
0
0
VERTEX
8
ENGRAVE
10
44.0740
20
76.2731
30
0
0
VERTEX
8
ENGRAVE
10
44.0529
20
76.3140
30
0
0
VERTEX
8
ENGRAVE
10
44.0281
20
76.3543
30
0
0
VERTEX
8
ENGRAVE
10
43.9996
20
76.3940
30
0
0
VERTEX
8
ENGRAVE
10
43.9675
20
76.4331
30
0
0
VERTEX
8
ENGRAVE
10
43.9317
20
76.4715
30
0
0
VERTEX
8
ENGRAVE
10
43.8922
20
76.5093
30
0
0
VERTEX
8
ENGRAVE
10
43.8490
20
76.5465
30
0
0
VERTEX
8
ENGRAVE
10
43.8022
20
76.5831
30
0
0
VERTEX
8
ENGRAVE
10
43.8482
20
76.5694
30
0
0
VERTEX
8
ENGRAVE
10
43.8931
20
76.5586
30
0
0
VERTEX
8
ENGRAVE
10
43.9368
20
76.5506
30
0
0
VERTEX
8
ENGRAVE
10
43.9793
20
76.5455
30
0
0
VERTEX
8
ENGRAVE
10
44.0206
20
76.5432
30
0
0
VERTEX
8
ENGRAVE
10
44.0608
20
76.5438
30
0
0
VERTEX
8
ENGRAVE
10
44.0998
20
76.5473
30
0
0
VERTEX
8
ENGRAVE
10
44.1376
20
76.5536
30
0
0
VERTEX
8
ENGRAVE
10
44.1742
20
76.5628
30
0
0
VERTEX
8
ENGRAVE
10
44.2096
20
76.5748
30
0
0
VERTEX
8
ENGRAVE
10
44.2438
20
76.5895
30
0
0
VERTEX
8
ENGRAVE
10
44.2766
20
76.6064
30
0
0
VERTEX
8
ENGRAVE
10
44.3080
20
76.6257
30
0
0
VERTEX
8
ENGRAVE
10
44.3381
20
76.6472
30
0
0
VERTEX
8
ENGRAVE
10
44.3668
20
76.6711
30
0
0
VERTEX
8
ENGRAVE
10
44.3941
20
76.6974
30
0
0
VERTEX
8
ENGRAVE
10
44.4201
20
76.7259
30
0
0
VERTEX
8
ENGRAVE
10
44.4446
20
76.7567
30
0
0
VERTEX
8
ENGRAVE
10
44.4678
20
76.7899
30
0
0
VERTEX
8
ENGRAVE
10
44.4897
20
76.8254
30
0
0
VERTEX
8
ENGRAVE
10
44.5178
20
76.8787
30
0
0
VERTEX
8
ENGRAVE
10
44.5403
20
76.9317
30
0
0
VERTEX
8
ENGRAVE
10
44.5573
20
76.9845
30
0
0
VERTEX
8
ENGRAVE
10
44.5687
20
77.0370
30
0
0
VERTEX
8
ENGRAVE
10
44.5745
20
77.0892
30
0
0
VERTEX
8
ENGRAVE
10
44.5748
20
77.1411
30
0
0
VERTEX
8
ENGRAVE
10
44.5696
20
77.1927
30
0
0
VERTEX
8
ENGRAVE
10
44.5588
20
77.2441
30
0
0
VERTEX
8
ENGRAVE
10
44.5425
20
77.2952
30
0
0
VERTEX
8
ENGRAVE
10
44.5206
20
77.3461
30
0
0
VERTEX
8
ENGRAVE
10
44.4932
20
77.3965
30
0
0
VERTEX
8
ENGRAVE
10
44.4604
20
77.4464
30
0
0
VERTEX
8
ENGRAVE
10
44.4222
20
77.4958
30
0
0
VERTEX
8
ENGRAVE
10
44.3785
20
77.5447
30
0
0
VERTEX
8
ENGRAVE
10
44.3295
20
77.5930
30
0
0
VERTEX
8
ENGRAVE
10
44.2751
20
77.6409
30
0
0
VERTEX
8
ENGRAVE
10
44.2152
20
77.6882
30
0
0
VERTEX
8
ENGRAVE
10
44.1500
20
77.7350
30
0
0
VERTEX
8
ENGRAVE
10
44.0793
20
77.7812
30
0
0
VERTEX
8
ENGRAVE
10
44.0032
20
77.8270
30
0
0
VERTEX
8
ENGRAVE
10
43.0183
20
78.3956
30
0
0
VERTEX
8
ENGRAVE
10
41.7762
20
76.2442
30
0
0
VERTEX
8
ENGRAVE
10
42.8527
20
75.6227
30
0
0
VERTEX
8
ENGRAVE
10
42.9301
20
75.5801
30
0
0
VERTEX
8
ENGRAVE
10
43.0059
20
75.5428
30
0
0
VERTEX
8
ENGRAVE
10
43.0802
20
75.5106
30
0
0
VERTEX
8
ENGRAVE
10
43.1529
20
75.4836
30
0
0
VERTEX
8
ENGRAVE
10
43.2240
20
75.4618
30
0
0
VERTEX
8
ENGRAVE
10
43.2935
20
75.4451
30
0
0
VERTEX
8
ENGRAVE
10
43.3615
20
75.4337
30
0
0
VERTEX
8
ENGRAVE
10
43.4279
20
75.4274
30
0
0
VERTEX
8
ENGRAVE
10
43.4928
20
75.4263
30
0
0
SEQEND
8
ENGRAVE
0
POLYLINE
8
ENGRAVE
66
1
10
0
20
0
30
0
70
1
0
VERTEX
8
ENGRAVE
10
43.7471
20
76.8751
30
0
0
VERTEX
8
ENGRAVE
10
43.7189
20
76.8781
30
0
0
VERTEX
8
ENGRAVE
10
43.6893
20
76.8837
30
0
0
VERTEX
8
ENGRAVE
10
43.6584
20
76.8918
30
0
0
VERTEX
8
ENGRAVE
10
43.6262
20
76.9024
30
0
0
VERTEX
8
ENGRAVE
10
43.5927
20
76.9156
30
0
0
VERTEX
8
ENGRAVE
10
43.5578
20
76.9313
30
0
0
VERTEX
8
ENGRAVE
10
43.5217
20
76.9495
30
0
0
VERTEX
8
ENGRAVE
10
43.4842
20
76.9703
30
0
0
VERTEX
8
ENGRAVE
10
42.9680
20
77.2682
30
0
0
VERTEX
8
ENGRAVE
10
43.2757
20
77.8011
30
0
0
VERTEX
8
ENGRAVE
10
43.7888
20
77.5049
30
0
0
VERTEX
8
ENGRAVE
10
43.8239
20
77.4839
30
0
0
VERTEX
8
ENGRAVE
10
43.8565
20
77.4626
30
0
0
VERTEX
8
ENGRAVE
10
43.8866
20
77.4411
30
0
0
VERTEX
8
ENGRAVE
10
43.9142
20
77.4195
30
0
0
VERTEX
8
ENGRAVE
10
43.9393
20
77.3977
30
0
0
VERTEX
8
ENGRAVE
10
43.9619
20
77.3756
30
0
0
VERTEX
8
ENGRAVE
10
43.9821
20
77.3534
30
0
0
VERTEX
8
ENGRAVE
10
43.9997
20
77.3310
30
0
0
VERTEX
8
ENGRAVE
10
44.0149
20
77.3084
30
0
0
VERTEX
8
ENGRAVE
10
44.0276
20
77.2856
30
0
0
VERTEX
8
ENGRAVE
10
44.0376
20
77.2624
30
0
0
VERTEX
8
ENGRAVE
10
44.0448
20
77.2386
30
0
0
VERTEX
8
ENGRAVE
10
44.0492
20
77.2142
30
0
0
VERTEX
8
ENGRAVE
10
44.0507
20
77.1892
30
0
0
VERTEX
8
ENGRAVE
10
44.0495
20
77.1635
30
0
0
VERTEX
8
ENGRAVE
10
44.0454
20
77.1373
30
0
0
VERTEX
8
ENGRAVE
10
44.0385
20
77.1104
30
0
0
VERTEX
8
ENGRAVE
10
44.0288
20
77.0829
30
0
0
VERTEX
8
ENGRAVE
10
44.0163
20
77.0549
30
0
0
VERTEX
8
ENGRAVE
10
44.0010
20
77.0262
30
0
0
VERTEX
8
ENGRAVE
10
43.9851
20
77.0008
30
0
0
VERTEX
8
ENGRAVE
10
43.9684
20
76.9777
30
0
0
VERTEX
8
ENGRAVE
10
43.9506
20
76.9569
30
0
0
VERTEX
8
ENGRAVE
10
43.9319
20
76.9385
30
0
0
VERTEX
8
ENGRAVE
10
43.9123
20
76.9224
30
0
0
VERTEX
8
ENGRAVE
10
43.8917
20
76.9086
30
0
0
VERTEX
8
ENGRAVE
10
43.8701
20
76.8971
30
0
0
VERTEX
8
ENGRAVE
10
43.8476
20
76.8880
30
0
0
VERTEX
8
ENGRAVE
10
43.8241
20
76.8812
30
0
0
VERTEX
8
ENGRAVE
10
43.7996
20
76.8767
30
0
0
VERTEX
8
ENGRAVE
10
43.7740
20
76.8746
30
0
0
SEQEND
8
ENGRAVE
0
POLYLINE
8
ENGRAVE
66
1
10
0
20
0
30
0
70
1
0
VERTEX
8
ENGRAVE
10
43.3088
20
75.8723
30
0
0
VERTEX
8
ENGRAVE
10
43.2761
20
75.8754
30
0
0
VERTEX
8
ENGRAVE
10
43.2421
20
75.8815
30
0
0
VERTEX
8
ENGRAVE
10
43.2066
20
75.8905
30
0
0
VERTEX
8
ENGRAVE
10
43.1696
20
75.9023
30
0
0
VERTEX
8
ENGRAVE
10
43.1313
20
75.9172
30
0
0
VERTEX
8
ENGRAVE
10
43.0915
20
75.9349
30
0
0
VERTEX
8
ENGRAVE
10
43.0502
20
75.9556
30
0
0
VERTEX
8
ENGRAVE
10
43.0076
20
75.9791
30
0
0
VERTEX
8
ENGRAVE
10
42.4197
20
76.3185
30
0
0
VERTEX
8
ENGRAVE
10
42.7759
20
76.9354
30
0
0
VERTEX
8
ENGRAVE
10
43.3469
20
76.6057
30
0
0
VERTEX
8
ENGRAVE
10
43.4276
20
76.5551
30
0
0
VERTEX
8
ENGRAVE
10
43.4961
20
76.5035
30
0
0
VERTEX
8
ENGRAVE
10
43.5524
20
76.4508
30
0
0
VERTEX
8
ENGRAVE
10
43.5966
20
76.3971
30
0
0
VERTEX
8
ENGRAVE
10
43.6285
20
76.3423
30
0
0
VERTEX
8
ENGRAVE
10
43.6484
20
76.2865
30
0
0
VERTEX
8
ENGRAVE
10
43.6560
20
76.2297
30
0
0
VERTEX
8
ENGRAVE
10
43.6515
20
76.1718
30
0
0
VERTEX
8
ENGRAVE
10
43.6349
20
76.1129
30
0
0
VERTEX
8
ENGRAVE
10
43.6060
20
76.0530
30
0
0
VERTEX
8
ENGRAVE
10
43.5873
20
76.0229
30
0
0
VERTEX
8
ENGRAVE
10
43.5675
20
75.9955
30
0
0
VERTEX
8
ENGRAVE
10
43.5467
20
75.9709
30
0
0
VERTEX
8
ENGRAVE
10
43.5247
20
75.9490
30
0
0
VERTEX
8
ENGRAVE
10
43.5016
20
75.9298
30
0
0
VERTEX
8
ENGRAVE
10
43.4774
20
75.9134
30
0
0
VERTEX
8
ENGRAVE
10
43.4522
20
75.8996
30
0
0
VERTEX
8
ENGRAVE
10
43.4258
20
75.8886
30
0
0
VERTEX
8
ENGRAVE
10
43.3984
20
75.8804
30
0
0
VERTEX
8
ENGRAVE
10
43.3698
20
75.8748
30
0
0
VERTEX
8
ENGRAVE
10
43.3400
20
75.8721
30
0
0
SEQEND
8
ENGRAVE
0
POLYLINE
8
ENGRAVE
66
1
10
0
20
0
30
0
70
1
0
VERTEX
8
ENGRAVE
10
45.6856
20
74.1642
30
0
0
VERTEX
8
ENGRAVE
10
45.7493
20
74.1683
30
0
0
VERTEX
8
ENGRAVE
10
45.8121
20
74.1760
30
0
0
VERTEX
8
ENGRAVE
10
45.8740
20
74.1875
30
0
0
VERTEX
8
ENGRAVE
10
45.9350
20
74.2027
30
0
0
VERTEX
8
ENGRAVE
10
45.9951
20
74.2216
30
0
0
VERTEX
8
ENGRAVE
10
46.0543
20
74.2443
30
0
0
VERTEX
8
ENGRAVE
10
46.1125
20
74.2706
30
0
0
VERTEX
8
ENGRAVE
10
46.1699
20
74.3007
30
0
0
VERTEX
8
ENGRAVE
10
46.2264
20
74.3345
30
0
0
VERTEX
8
ENGRAVE
10
46.2815
20
74.3718
30
0
0
VERTEX
8
ENGRAVE
10
46.3349
20
74.4122
30
0
0
VERTEX
8
ENGRAVE
10
46.3867
20
74.4557
30
0
0
VERTEX
8
ENGRAVE
10
46.4366
20
74.5024
30
0
0
VERTEX
8
ENGRAVE
10
46.4849
20
74.5522
30
0
0
VERTEX
8
ENGRAVE
10
46.5314
20
74.6052
30
0
0
VERTEX
8
ENGRAVE
10
46.5763
20
74.6614
30
0
0
VERTEX
8
ENGRAVE
10
46.6194
20
74.7207
30
0
0
VERTEX
8
ENGRAVE
10
46.6607
20
74.7831
30
0
0
VERTEX
8
ENGRAVE
10
46.7004
20
74.8487
30
0
0
VERTEX
8
ENGRAVE
10
46.7553
20
74.9505
30
0
0
VERTEX
8
ENGRAVE
10
46.8019
20
75.0513
30
0
0
VERTEX
8
ENGRAVE
10
46.8403
20
75.1509
30
0
0
VERTEX
8
ENGRAVE
10
46.8704
20
75.2496
30
0
0
VERTEX
8
ENGRAVE
10
46.8922
20
75.3472
30
0
0
VERTEX
8
ENGRAVE
10
46.9058
20
75.4438
30
0
0
VERTEX
8
ENGRAVE
10
46.9110
20
75.5393
30
0
0
VERTEX
8
ENGRAVE
10
46.9080
20
75.6338
30
0
0
VERTEX
8
ENGRAVE
10
46.8967
20
75.7272
30
0
0
VERTEX
8
ENGRAVE
10
46.8771
20
75.8196
30
0
0
VERTEX
8
ENGRAVE
10
46.8495
20
75.9098
30
0
0
VERTEX
8
ENGRAVE
10
46.8140
20
75.9968
30
0
0
VERTEX
8
ENGRAVE
10
46.7706
20
76.0804
30
0
0
VERTEX
8
ENGRAVE
10
46.7194
20
76.1608
30
0
0
VERTEX
8
ENGRAVE
10
46.6604
20
76.2379
30
0
0
VERTEX
8
ENGRAVE
10
46.5934
20
76.3117
30
0
0
VERTEX
8
ENGRAVE
10
46.5186
20
76.3823
30
0
0
VERTEX
8
ENGRAVE
10
46.4360
20
76.4496
30
0
0
VERTEX
8
ENGRAVE
10
46.3454
20
76.5135
30
0
0
VERTEX
8
ENGRAVE
10
46.2471
20
76.5742
30
0
0
VERTEX
8
ENGRAVE
10
46.1454
20
76.6291
30
0
0
VERTEX
8
ENGRAVE
10
46.0448
20
76.6756
30
0
0
VERTEX
8
ENGRAVE
10
45.9453
20
76.7137
30
0
0
VERTEX
8
ENGRAVE
10
45.8470
20
76.7433
30
0
0
VERTEX
8
ENGRAVE
10
45.7498
20
76.7646
30
0
0
VERTEX
8
ENGRAVE
10
45.6538
20
76.7775
30
0
0
VERTEX
8
ENGRAVE
10
45.5589
20
76.7820
30
0
0
VERTEX
8
ENGRAVE
10
45.4651
20
76.7781
30
0
0
VERTEX
8
ENGRAVE
10
45.3725
20
76.7659
30
0
0
VERTEX
8
ENGRAVE
10
45.2810
20
76.7452
30
0
0
VERTEX
8
ENGRAVE
10
45.1916
20
76.7164
30
0
0
VERTEX
8
ENGRAVE
10
45.1054
20
76.6797
30
0
0
VERTEX
8
ENGRAVE
10
45.0223
20
76.6352
30
0
0
VERTEX
8
ENGRAVE
10
44.9423
20
76.5827
30
0
0
VERTEX
8
ENGRAVE
10
44.8654
20
76.5225
30
0
0
VERTEX
8
ENGRAVE
10
44.7916
20
76.4544
30
0
0
VERTEX
8
ENGRAVE
10
44.7209
20
76.3784
30
0
0
VERTEX
8
ENGRAVE
10
44.6534
20
76.2945
30
0
0
VERTEX
8
ENGRAVE
10
44.5889
20
76.2028
30
0
0
VERTEX
8
ENGRAVE
10
44.5276
20
76.1032
30
0
0
VERTEX
8
ENGRAVE
10
44.4718
20
75.9999
30
0
0
VERTEX
8
ENGRAVE
10
44.4243
20
75.8977
30
0
0
VERTEX
8
ENGRAVE
10
44.3851
20
75.7966
30
0
0
VERTEX
8
ENGRAVE
10
44.3542
20
75.6966
30
0
0
VERTEX
8
ENGRAVE
10
44.3317
20
75.5977
30
0
0
VERTEX
8
ENGRAVE
10
44.3174
20
75.4998
30
0
0
VERTEX
8
ENGRAVE
10
44.3114
20
75.4031
30
0
0
VERTEX
8
ENGRAVE
10
44.3138
20
75.3074
30
0
0
VERTEX
8
ENGRAVE
10
44.3244
20
75.2128
30
0
0
VERTEX
8
ENGRAVE
10
44.3434
20
75.1194
30
0
0
VERTEX
8
ENGRAVE
10
44.3704
20
75.0281
30
0
0
VERTEX
8
ENGRAVE
10
44.4052
20
74.9404
30
0
0
VERTEX
8
ENGRAVE
10
44.4479
20
74.8560
30
0
0
VERTEX
8
ENGRAVE
10
44.4984
20
74.7751
30
0
0
VERTEX
8
ENGRAVE
10
44.5567
20
74.6977
30
0
0
VERTEX
8
ENGRAVE
10
44.6228
20
74.6237
30
0
0
VERTEX
8
ENGRAVE
10
44.6968
20
74.5531
30
0
0
VERTEX
8
ENGRAVE
10
44.7787
20
74.4859
30
0
0
VERTEX
8
ENGRAVE
10
44.8683
20
74.4223
30
0
0
VERTEX
8
ENGRAVE
10
44.9658
20
74.3620
30
0
0
VERTEX
8
ENGRAVE
10
45.0317
20
74.3258
30
0
0
VERTEX
8
ENGRAVE
10
45.0975
20
74.2931
30
0
0
VERTEX
8
ENGRAVE
10
45.1633
20
74.2642
30
0
0
VERTEX
8
ENGRAVE
10
45.2289
20
74.2389
30
0
0
VERTEX
8
ENGRAVE
10
45.2945
20
74.2173
30
0
0
VERTEX
8
ENGRAVE
10
45.3599
20
74.1993
30
0
0
VERTEX
8
ENGRAVE
10
45.4253
20
74.1850
30
0
0
VERTEX
8
ENGRAVE
10
45.4906
20
74.1743
30
0
0
VERTEX
8
ENGRAVE
10
45.5558
20
74.1673
30
0
0
VERTEX
8
ENGRAVE
10
45.6209
20
74.1639
30
0
0
SEQEND
8
ENGRAVE
0
POLYLINE
8
ENGRAVE
66
1
10
0
20
0
30
0
70
1
0
VERTEX
8
ENGRAVE
10
45.4667
20
74.6113
30
0
0
VERTEX
8
ENGRAVE
10
45.4084
20
74.6211
30
0
0
VERTEX
8
ENGRAVE
10
45.3495
20
74.6366
30
0
0
VERTEX
8
ENGRAVE
10
45.2903
20
74.6575
30
0
0
VERTEX
8
ENGRAVE
10
45.2305
20
74.6841
30
0
0
VERTEX
8
ENGRAVE
10
45.1703
20
74.7162
30
0
0
VERTEX
8
ENGRAVE
10
45.1143
20
74.7512
30
0
0
VERTEX
8
ENGRAVE
10
45.0632
20
74.7889
30
0
0
VERTEX
8
ENGRAVE
10
45.0170
20
74.8292
30
0
0
VERTEX
8
ENGRAVE
10
44.9755
20
74.8722
30
0
0
VERTEX
8
ENGRAVE
10
44.9388
20
74.9178
30
0
0
VERTEX
8
ENGRAVE
10
44.9069
20
74.9661
30
0
0
VERTEX
8
ENGRAVE
10
44.8799
20
75.0171
30
0
0
VERTEX
8
ENGRAVE
10
44.8576
20
75.0707
30
0
0
VERTEX
8
ENGRAVE
10
44.8402
20
75.1269
30
0
0
VERTEX
8
ENGRAVE
10
44.8276
20
75.1859
30
0
0
VERTEX
8
ENGRAVE
10
44.8199
20
75.2466
30
0
0
VERTEX
8
ENGRAVE
10
44.8174
20
75.3085
30
0
0
VERTEX
8
ENGRAVE
10
44.8200
20
75.3714
30
0
0
VERTEX
8
ENGRAVE
10
44.8277
20
75.4353
30
0
0
VERTEX
8
ENGRAVE
10
44.8405
20
75.5004
30
0
0
VERTEX
8
ENGRAVE
10
44.8584
20
75.5665
30
0
0
VERTEX
8
ENGRAVE
10
44.8814
20
75.6336
30
0
0
VERTEX
8
ENGRAVE
10
44.9095
20
75.7018
30
0
0
VERTEX
8
ENGRAVE
10
44.9427
20
75.7710
30
0
0
VERTEX
8
ENGRAVE
10
44.9811
20
75.8414
30
0
0
VERTEX
8
ENGRAVE
10
45.0224
20
75.9091
30
0
0
VERTEX
8
ENGRAVE
10
45.0652
20
75.9718
30
0
0
VERTEX
8
ENGRAVE
10
45.1095
20
76.0296
30
0
0
VERTEX
8
ENGRAVE
10
45.1554
20
76.0823
30
0
0
VERTEX
8
ENGRAVE
10
45.2027
20
76.1300
30
0
0
VERTEX
8
ENGRAVE
10
45.2516
20
76.1727
30
0
0
VERTEX
8
ENGRAVE
10
45.3019
20
76.2104
30
0
0
VERTEX
8
ENGRAVE
10
45.3538
20
76.2431
30
0
0
VERTEX
8
ENGRAVE
10
45.4072
20
76.2708
30
0
0
VERTEX
8
ENGRAVE
10
45.4620
20
76.2935
30
0
0
VERTEX
8
ENGRAVE
10
45.5179
20
76.3110
30
0
0
VERTEX
8
ENGRAVE
10
45.5743
20
76.3229
30
0
0
VERTEX
8
ENGRAVE
10
45.6311
20
76.3293
30
0
0
VERTEX
8
ENGRAVE
10
45.6884
20
76.3302
30
0
0
VERTEX
8
ENGRAVE
10
45.7462
20
76.3257
30
0
0
VERTEX
8
ENGRAVE
10
45.8046
20
76.3155
30
0
0
VERTEX
8
ENGRAVE
10
45.8633
20
76.2999
30
0
0
VERTEX
8
ENGRAVE
10
45.9226
20
76.2788
30
0
0
VERTEX
8
ENGRAVE
10
45.9823
20
76.2522
30
0
0
VERTEX
8
ENGRAVE
10
46.0426
20
76.2200
30
0
0
VERTEX
8
ENGRAVE
10
46.0996
20
76.1844
30
0
0
VERTEX
8
ENGRAVE
10
46.1518
20
76.1464
30
0
0
VERTEX
8
ENGRAVE
10
46.1990
20
76.1059
30
0
0
VERTEX
8
ENGRAVE
10
46.2412
20
76.0631
30
0
0
VERTEX
8
ENGRAVE
10
46.2785
20
76.0178
30
0
0
VERTEX
8
ENGRAVE
10
46.3109
20
75.9701
30
0
0
VERTEX
8
ENGRAVE
10
46.3383
20
75.9200
30
0
0
VERTEX
8
ENGRAVE
10
46.3609
20
75.8675
30
0
0
VERTEX
8
ENGRAVE
10
46.3784
20
75.8125
30
0
0
VERTEX
8
ENGRAVE
10
46.3910
20
75.7551
30
0
0
VERTEX
8
ENGRAVE
10
46.3987
20
75.6960
30
0
0
VERTEX
8
ENGRAVE
10
46.4013
20
75.6358
30
0
0
VERTEX
8
ENGRAVE
10
46.3988
20
75.5744
30
0
0
VERTEX
8
ENGRAVE
10
46.3914
20
75.5120
30
0
0
VERTEX
8
ENGRAVE
10
46.3788
20
75.4484
30
0
0
VERTEX
8
ENGRAVE
10
46.3613
20
75.3838
30
0
0
VERTEX
8
ENGRAVE
10
46.3387
20
75.3180
30
0
0
VERTEX
8
ENGRAVE
10
46.3111
20
75.2511
30
0
0
VERTEX
8
ENGRAVE
10
46.2785
20
75.1832
30
0
0
VERTEX
8
ENGRAVE
10
46.2408
20
75.1141
30
0
0
VERTEX
8
ENGRAVE
10
46.1980
20
75.0437
30
0
0
VERTEX
8
ENGRAVE
10
46.1538
20
74.9786
30
0
0
VERTEX
8
ENGRAVE
10
46.1083
20
74.9186
30
0
0
VERTEX
8
ENGRAVE
10
46.0614
20
74.8639
30
0
0
VERTEX
8
ENGRAVE
10
46.0131
20
74.8145
30
0
0
VERTEX
8
ENGRAVE
10
45.9635
20
74.7702
30
0
0
VERTEX
8
ENGRAVE
10
45.9125
20
74.7312
30
0
0
VERTEX
8
ENGRAVE
10
45.8601
20
74.6974
30
0
0
VERTEX
8
ENGRAVE
10
45.8064
20
74.6688
30
0
0
VERTEX
8
ENGRAVE
10
45.7514
20
74.6454
30
0
0
VERTEX
8
ENGRAVE
10
45.6954
20
74.6275
30
0
0
VERTEX
8
ENGRAVE
10
45.6389
20
74.6151
30
0
0
VERTEX
8
ENGRAVE
10
45.5820
20
74.6082
30
0
0
VERTEX
8
ENGRAVE
10
45.5246
20
74.6070
30
0
0
SEQEND
8
ENGRAVE
0
POLYLINE
8
ENGRAVE
66
1
10
0
20
0
30
0
70
1
0
VERTEX
8
ENGRAVE
10
23.6634
20
73.6122
30
0
0
VERTEX
8
ENGRAVE
10
23.1918
20
74.4291
30
0
0
VERTEX
8
ENGRAVE
10
23.7201
20
74.7341
30
0
0
VERTEX
8
ENGRAVE
10
24.6910
20
74.2055
30
0
0
VERTEX
8
ENGRAVE
10
25.1980
20
74.4982
30
0
0
VERTEX
8
ENGRAVE
10
24.0943
20
75.0662
30
0
0
VERTEX
8
ENGRAVE
10
24.1304
20
75.1024
30
0
0
VERTEX
8
ENGRAVE
10
24.1635
20
75.1398
30
0
0
VERTEX
8
ENGRAVE
10
24.1934
20
75.1784
30
0
0
VERTEX
8
ENGRAVE
10
24.2202
20
75.2182
30
0
0
VERTEX
8
ENGRAVE
10
24.2440
20
75.2593
30
0
0
VERTEX
8
ENGRAVE
10
24.2646
20
75.3015
30
0
0
VERTEX
8
ENGRAVE
10
24.2821
20
75.3449
30
0
0
VERTEX
8
ENGRAVE
10
24.2966
20
75.3895
30
0
0
VERTEX
8
ENGRAVE
10
24.3079
20
75.4353
30
0
0
VERTEX
8
ENGRAVE
10
24.3162
20
75.4824
30
0
0
VERTEX
8
ENGRAVE
10
24.3212
20
75.5299
30
0
0
VERTEX
8
ENGRAVE
10
24.3230
20
75.5772
30
0
0
VERTEX
8
ENGRAVE
10
24.3215
20
75.6242
30
0
0
VERTEX
8
ENGRAVE
10
24.3167
20
75.6710
30
0
0
VERTEX
8
ENGRAVE
10
24.3087
20
75.7175
30
0
0
VERTEX
8
ENGRAVE
10
24.2973
20
75.7638
30
0
0
VERTEX
8
ENGRAVE
10
24.2827
20
75.8099
30
0
0
VERTEX
8
ENGRAVE
10
24.2648
20
75.8557
30
0
0
VERTEX
8
ENGRAVE
10
24.2437
20
75.9012
30
0
0
VERTEX
8
ENGRAVE
10
24.2192
20
75.9466
30
0
0
VERTEX
8
ENGRAVE
10
24.1822
20
76.0059
30
0
0
VERTEX
8
ENGRAVE
10
24.1426
20
76.0600
30
0
0
VERTEX
8
ENGRAVE
10
24.1005
20
76.1087
30
0
0
VERTEX
8
ENGRAVE
10
24.0559
20
76.1521
30
0
0
VERTEX
8
ENGRAVE
10
24.0088
20
76.1903
30
0
0
VERTEX
8
ENGRAVE
10
23.9591
20
76.2231
30
0
0
VERTEX
8
ENGRAVE
10
23.9070
20
76.2506
30
0
0
VERTEX
8
ENGRAVE
10
23.8523
20
76.2729
30
0
0
VERTEX
8
ENGRAVE
10
23.7951
20
76.2898
30
0
0
VERTEX
8
ENGRAVE
10
23.7354
20
76.3014
30
0
0
VERTEX
8
ENGRAVE
10
23.6736
20
76.3077
30
0
0
VERTEX
8
ENGRAVE
10
23.6103
20
76.3087
30
0
0
VERTEX
8
ENGRAVE
10
23.5453
20
76.3043
30
0
0
VERTEX
8
ENGRAVE
10
23.4787
20
76.2946
30
0
0
VERTEX
8
ENGRAVE
10
23.4106
20
76.2796
30
0
0
VERTEX
8
ENGRAVE
10
23.3408
20
76.2592
30
0
0
VERTEX
8
ENGRAVE
10
23.2695
20
76.2334
30
0
0
VERTEX
8
ENGRAVE
10
23.1965
20
76.2023
30
0
0
VERTEX
8
ENGRAVE
10
23.1219
20
76.1659
30
0
0
VERTEX
8
ENGRAVE
10
23.0458
20
76.1242
30
0
0
VERTEX
8
ENGRAVE
10
21.9709
20
75.5036
30
0
0
VERTEX
8
ENGRAVE
10
23.2130
20
73.3521
30
0
0
SEQEND
8
ENGRAVE
0
POLYLINE
8
ENGRAVE
66
1
10
0
20
0
30
0
70
1
0
VERTEX
8
ENGRAVE
10
22.6232
20
75.4139
30
0
0
VERTEX
8
ENGRAVE
10
23.2003
20
75.7472
30
0
0
VERTEX
8
ENGRAVE
10
23.2775
20
75.7876
30
0
0
VERTEX
8
ENGRAVE
10
23.3504
20
75.8173
30
0
0
VERTEX
8
ENGRAVE
10
23.4189
20
75.8362
30
0
0
VERTEX
8
ENGRAVE
10
23.4830
20
75.8443
30
0
0
VERTEX
8
ENGRAVE
10
23.5428
20
75.8416
30
0
0
VERTEX
8
ENGRAVE
10
23.5982
20
75.8281
30
0
0
VERTEX
8
ENGRAVE
10
23.6493
20
75.8039
30
0
0
VERTEX
8
ENGRAVE
10
23.6960
20
75.7688
30
0
0
VERTEX
8
ENGRAVE
10
23.7383
20
75.7230
30
0
0
VERTEX
8
ENGRAVE
10
23.7763
20
75.6664
30
0
0
VERTEX
8
ENGRAVE
10
23.7927
20
75.6357
30
0
0
VERTEX
8
ENGRAVE
10
23.8064
20
75.6052
30
0
0
VERTEX
8
ENGRAVE
10
23.8173
20
75.5750
30
0
0
VERTEX
8
ENGRAVE
10
23.8255
20
75.5450
30
0
0
VERTEX
8
ENGRAVE
10
23.8310
20
75.5153
30
0
0
VERTEX
8
ENGRAVE
10
23.8337
20
75.4858
30
0
0
VERTEX
8
ENGRAVE
10
23.8336
20
75.4565
30
0
0
VERTEX
8
ENGRAVE
10
23.8308
20
75.4275
30
0
0
VERTEX
8
ENGRAVE
10
23.8253
20
75.3988
30
0
0
VERTEX
8
ENGRAVE
10
23.8170
20
75.3703
30
0
0
VERTEX
8
ENGRAVE
10
23.8059
20
75.3422
30
0
0
VERTEX
8
ENGRAVE
10
23.7920
20
75.3148
30
0
0
VERTEX
8
ENGRAVE
10
23.7753
20
75.2880
30
0
0
VERTEX
8
ENGRAVE
10
23.7557
20
75.2619
30
0
0
VERTEX
8
ENGRAVE
10
23.7334
20
75.2365
30
0
0
VERTEX
8
ENGRAVE
10
23.7082
20
75.2117
30
0
0
VERTEX
8
ENGRAVE
10
23.6802
20
75.1876
30
0
0
VERTEX
8
ENGRAVE
10
23.6494
20
75.1641
30
0
0
VERTEX
8
ENGRAVE
10
23.6157
20
75.1412
30
0
0
VERTEX
8
ENGRAVE
10
23.5793
20
75.1190
30
0
0
VERTEX
8
ENGRAVE
10
22.9899
20
74.7787
30
0
0
SEQEND
8
ENGRAVE
0
POLYLINE
8
ENGRAVE
66
1
10
0
20
0
30
0
70
1
0
VERTEX
8
ENGRAVE
10
48.3695
20
74.8419
30
0
0
VERTEX
8
ENGRAVE
10
49.0658
20
74.4399
30
0
0
VERTEX
8
ENGRAVE
10
49.2668
20
74.7881
30
0
0
VERTEX
8
ENGRAVE
10
47.4253
20
75.8513
30
0
0
VERTEX
8
ENGRAVE
10
47.2243
20
75.5031
30
0
0
VERTEX
8
ENGRAVE
10
47.9190
20
75.1020
30
0
0
VERTEX
8
ENGRAVE
10
46.8779
20
73.2987
30
0
0
VERTEX
8
ENGRAVE
10
47.3284
20
73.0387
30
0
0
SEQEND
8
ENGRAVE
0
POLYLINE
8
ENGRAVE
66
1
10
0
20
0
30
0
70
1
0
VERTEX
8
ENGRAVE
10
51.3033
20
73.6123
30
0
0
VERTEX
8
ENGRAVE
10
50.8528
20
73.8724
30
0
0
VERTEX
8
ENGRAVE
10
50.3583
20
73.0157
30
0
0
VERTEX
8
ENGRAVE
10
49.4207
20
73.5570
30
0
0
VERTEX
8
ENGRAVE
10
49.9153
20
74.4136
30
0
0
VERTEX
8
ENGRAVE
10
49.4649
20
74.6737
30
0
0
VERTEX
8
ENGRAVE
10
48.2227
20
72.5223
30
0
0
VERTEX
8
ENGRAVE
10
48.6732
20
72.2622
30
0
0
VERTEX
8
ENGRAVE
10
49.2057
20
73.1845
30
0
0
VERTEX
8
ENGRAVE
10
50.1432
20
72.6432
30
0
0
VERTEX
8
ENGRAVE
10
49.6107
20
71.7209
30
0
0
VERTEX
8
ENGRAVE
10
50.0612
20
71.4609
30
0
0
SEQEND
8
ENGRAVE
0
POLYLINE
8
ENGRAVE
66
1
10
0
20
0
30
0
70
1
0
VERTEX
8
ENGRAVE
10
35.4000
20
74.5000
30
0
0
VERTEX
8
ENGRAVE
10
34.6000
20
74.5000
30
0
0
VERTEX
8
ENGRAVE
10
34.6000
20
71.0000
30
0
0
VERTEX
8
ENGRAVE
10
35.4000
20
71.0000
30
0
0
SEQEND
8
ENGRAVE
0
POLYLINE
8
ENGRAVE
66
1
10
0
20
0
30
0
70
1
0
VERTEX
8
ENGRAVE
10
45.0964
20
71.6875
30
0
0
VERTEX
8
ENGRAVE
10
44.4036
20
72.0875
30
0
0
VERTEX
8
ENGRAVE
10
42.6536
20
69.0564
30
0
0
VERTEX
8
ENGRAVE
10
43.3464
20
68.6564
30
0
0
SEQEND
8
ENGRAVE
0
POLYLINE
8
ENGRAVE
66
1
10
0
20
0
30
0
70
1
0
VERTEX
8
ENGRAVE
10
27.3464
20
69.0564
30
0
0
VERTEX
8
ENGRAVE
10
25.5964
20
72.0875
30
0
0
VERTEX
8
ENGRAVE
10
24.9036
20
71.6875
30
0
0
VERTEX
8
ENGRAVE
10
26.6536
20
68.6564
30
0
0
SEQEND
8
ENGRAVE
0
POLYLINE
8
ENGRAVE
66
1
10
0
20
0
30
0
70
1
0
VERTEX
8
ENGRAVE
10
52.4353
20
69.1612
30
0
0
VERTEX
8
ENGRAVE
10
52.4973
20
69.1688
30
0
0
VERTEX
8
ENGRAVE
10
52.5595
20
69.1829
30
0
0
VERTEX
8
ENGRAVE
10
52.6221
20
69.2034
30
0
0
VERTEX
8
ENGRAVE
10
52.6849
20
69.2303
30
0
0
VERTEX
8
ENGRAVE
10
52.7480
20
69.2636
30
0
0
VERTEX
8
ENGRAVE
10
52.7743
20
69.2793
30
0
0
VERTEX
8
ENGRAVE
10
52.7995
20
69.2955
30
0
0
VERTEX
8
ENGRAVE
10
52.8236
20
69.3122
30
0
0
VERTEX
8
ENGRAVE
10
52.8466
20
69.3293
30
0
0
VERTEX
8
ENGRAVE
10
52.8685
20
69.3469
30
0
0
VERTEX
8
ENGRAVE
10
52.8893
20
69.3650
30
0
0
VERTEX
8
ENGRAVE
10
52.9091
20
69.3835
30
0
0
VERTEX
8
ENGRAVE
10
52.9277
20
69.4025
30
0
0
VERTEX
8
ENGRAVE
10
52.9452
20
69.4220
30
0
0
VERTEX
8
ENGRAVE
10
52.9616
20
69.4419
30
0
0
VERTEX
8
ENGRAVE
10
52.9769
20
69.4622
30
0
0
VERTEX
8
ENGRAVE
10
52.9913
20
69.4830
30
0
0
VERTEX
8
ENGRAVE
10
53.0046
20
69.5041
30
0
0
VERTEX
8
ENGRAVE
10
53.0170
20
69.5257
30
0
0
VERTEX
8
ENGRAVE
10
53.0283
20
69.5476
30
0
0
VERTEX
8
ENGRAVE
10
53.0386
20
69.5699
30
0
0
VERTEX
8
ENGRAVE
10
53.0480
20
69.5927
30
0
0
VERTEX
8
ENGRAVE
10
53.0563
20
69.6158
30
0
0
VERTEX
8
ENGRAVE
10
53.0636
20
69.6393
30
0
0
VERTEX
8
ENGRAVE
10
53.0699
20
69.6633
30
0
0
VERTEX
8
ENGRAVE
10
53.0752
20
69.6878
30
0
0
VERTEX
8
ENGRAVE
10
53.0795
20
69.7133
30
0
0
VERTEX
8
ENGRAVE
10
53.0828
20
69.7397
30
0
0
VERTEX
8
ENGRAVE
10
53.0851
20
69.7670
30
0
0
VERTEX
8
ENGRAVE
10
53.0864
20
69.7952
30
0
0
VERTEX
8
ENGRAVE
10
53.0867
20
69.8242
30
0
0
VERTEX
8
ENGRAVE
10
53.0859
20
69.8542
30
0
0
VERTEX
8
ENGRAVE
10
53.0842
20
69.8851
30
0
0
VERTEX
8
ENGRAVE
10
53.0814
20
69.9169
30
0
0
VERTEX
8
ENGRAVE
10
53.0776
20
69.9496
30
0
0
VERTEX
8
ENGRAVE
10
53.0724
20
69.9846
30
0
0
VERTEX
8
ENGRAVE
10
53.0654
20
70.0232
30
0
0
VERTEX
8
ENGRAVE
10
53.0565
20
70.0655
30
0
0
VERTEX
8
ENGRAVE
10
53.0458
20
70.1114
30
0
0
VERTEX
8
ENGRAVE
10
53.0332
20
70.1609
30
0
0
VERTEX
8
ENGRAVE
10
53.0188
20
70.2141
30
0
0
VERTEX
8
ENGRAVE
10
53.0026
20
70.2710
30
0
0
VERTEX
8
ENGRAVE
10
52.9846
20
70.3314
30
0
0
VERTEX
8
ENGRAVE
10
52.9646
20
70.3955
30
0
0
VERTEX
8
ENGRAVE
10
52.9429
20
70.4633
30
0
0
VERTEX
8
ENGRAVE
10
52.9249
20
70.5202
30
0
0
VERTEX
8
ENGRAVE
10
52.9085
20
70.5733
30
0
0
VERTEX
8
ENGRAVE
10
52.8938
20
70.6227
30
0
0
VERTEX
8
ENGRAVE
10
52.8807
20
70.6684
30
0
0
VERTEX
8
ENGRAVE
10
52.8692
20
70.7104
30
0
0
VERTEX
8
ENGRAVE
10
52.8594
20
70.7486
30
0
0
VERTEX
8
ENGRAVE
10
52.8513
20
70.7831
30
0
0
VERTEX
8
ENGRAVE
10
52.8448
20
70.8138
30
0
0
VERTEX
8
ENGRAVE
10
52.8399
20
70.8408
30
0
0
VERTEX
8
ENGRAVE
10
52.8367
20
70.8641
30
0
0
VERTEX
8
ENGRAVE
10
52.8347
20
70.8852
30
0
0
VERTEX
8
ENGRAVE
10
52.8335
20
70.9057
30
0
0
VERTEX
8
ENGRAVE
10
52.8331
20
70.9254
30
0
0
VERTEX
8
ENGRAVE
10
52.8336
20
70.9446
30
0
0
VERTEX
8
ENGRAVE
10
52.8348
20
70.9630
30
0
0
VERTEX
8
ENGRAVE
10
52.8368
20
70.9809
30
0
0
VERTEX
8
ENGRAVE
10
52.8397
20
70.9980
30
0
0
VERTEX
8
ENGRAVE
10
52.8433
20
71.0145
30
0
0
VERTEX
8
ENGRAVE
10
52.8478
20
71.0304
30
0
0
VERTEX
8
ENGRAVE
10
52.8530
20
71.0456
30
0
0
VERTEX
8
ENGRAVE
10
52.8593
20
71.0602
30
0
0
VERTEX
8
ENGRAVE
10
52.8666
20
71.0743
30
0
0
VERTEX
8
ENGRAVE
10
52.8750
20
71.0879
30
0
0
VERTEX
8
ENGRAVE
10
52.8846
20
71.1010
30
0
0
VERTEX
8
ENGRAVE
10
52.8953
20
71.1135
30
0
0
VERTEX
8
ENGRAVE
10
52.9071
20
71.1255
30
0
0
VERTEX
8
ENGRAVE
10
52.9200
20
71.1370
30
0
0
VERTEX
8
ENGRAVE
10
52.9340
20
71.1480
30
0
0
VERTEX
8
ENGRAVE
10
52.9491
20
71.1585
30
0
0
VERTEX
8
ENGRAVE
10
52.9654
20
71.1685
30
0
0
VERTEX
8
ENGRAVE
10
53.0165
20
71.1925
30
0
0
VERTEX
8
ENGRAVE
10
53.0672
20
71.2054
30
0
0
VERTEX
8
ENGRAVE
10
53.1174
20
71.2072
30
0
0
VERTEX
8
ENGRAVE
10
53.1673
20
71.1978
30
0
0
VERTEX
8
ENGRAVE
10
53.2168
20
71.1772
30
0
0
VERTEX
8
ENGRAVE
10
53.2659
20
71.1455
30
0
0
VERTEX
8
ENGRAVE
10
53.3146
20
71.1027
30
0
0
VERTEX
8
ENGRAVE
10
53.3628
20
71.0487
30
0
0
VERTEX
8
ENGRAVE
10
53.4107
20
70.9836
30
0
0
VERTEX
8
ENGRAVE
10
53.4581
20
70.9073
30
0
0
VERTEX
8
ENGRAVE
10
53.4791
20
70.8693
30
0
0
VERTEX
8
ENGRAVE
10
53.4977
20
70.8323
30
0
0
VERTEX
8
ENGRAVE
10
53.5138
20
70.7963
30
0
0
VERTEX
8
ENGRAVE
10
53.5275
20
70.7612
30
0
0
VERTEX
8
ENGRAVE
10
53.5388
20
70.7271
30
0
0
VERTEX
8
ENGRAVE
10
53.5476
20
70.6940
30
0
0
VERTEX
8
ENGRAVE
10
53.5539
20
70.6619
30
0
0
VERTEX
8
ENGRAVE
10
53.5579
20
70.6307
30
0
0
VERTEX
8
ENGRAVE
10
53.5594
20
70.6005
30
0
0
VERTEX
8
ENGRAVE
10
53.5585
20
70.5713
30
0
0
VERTEX
8
ENGRAVE
10
53.5552
20
70.5429
30
0
0
VERTEX
8
ENGRAVE
10
53.5498
20
70.5151
30
0
0
VERTEX
8
ENGRAVE
10
53.5422
20
70.4878
30
0
0
VERTEX
8
ENGRAVE
10
53.5325
20
70.4612
30
0
0
VERTEX
8
ENGRAVE
10
53.5205
20
70.4352
30
0
0
VERTEX
8
ENGRAVE
10
53.5064
20
70.4097
30
0
0
VERTEX
8
ENGRAVE
10
53.4901
20
70.3849
30
0
0
VERTEX
8
ENGRAVE
10
53.4716
20
70.3606
30
0
0
VERTEX
8
ENGRAVE
10
53.4510
20
70.3370
30
0
0
VERTEX
8
ENGRAVE
10
53.4282
20
70.3139
30
0
0
VERTEX
8
ENGRAVE
10
53.7399
20
69.9116
30
0
0
VERTEX
8
ENGRAVE
10
53.7884
20
69.9570
30
0
0
VERTEX
8
ENGRAVE
10
53.8321
20
70.0034
30
0
0
VERTEX
8
ENGRAVE
10
53.8708
20
70.0507
30
0
0
VERTEX
8
ENGRAVE
10
53.9046
20
70.0990
30
0
0
VERTEX
8
ENGRAVE
10
53.9335
20
70.1483
30
0
0
VERTEX
8
ENGRAVE
10
53.9575
20
70.1986
30
0
0
VERTEX
8
ENGRAVE
10
53.9765
20
70.2498
30
0
0
VERTEX
8
ENGRAVE
10
53.9907
20
70.3020
30
0
0
VERTEX
8
ENGRAVE
10
53.9999
20
70.3552
30
0
0
VERTEX
8
ENGRAVE
10
54.0042
20
70.4093
30
0
0
VERTEX
8
ENGRAVE
10
54.0037
20
70.4652
30
0
0
VERTEX
8
ENGRAVE
10
53.9983
20
70.5236
30
0
0
VERTEX
8
ENGRAVE
10
53.9882
20
70.5846
30
0
0
VERTEX
8
ENGRAVE
10
53.9732
20
70.6481
30
0
0
VERTEX
8
ENGRAVE
10
53.9534
20
70.7141
30
0
0
VERTEX
8
ENGRAVE
10
53.9289
20
70.7827
30
0
0
VERTEX
8
ENGRAVE
10
53.8995
20
70.8538
30
0
0
VERTEX
8
ENGRAVE
10
53.8653
20
70.9275
30
0
0
VERTEX
8
ENGRAVE
10
53.8263
20
71.0037
30
0
0
VERTEX
8
ENGRAVE
10
53.7825
20
71.0824
30
0
0
VERTEX
8
ENGRAVE
10
53.7338
20
71.1632
30
0
0
VERTEX
8
ENGRAVE
10
53.6843
20
71.2382
30
0
0
VERTEX
8
ENGRAVE
10
53.6340
20
71.3075
30
0
0
VERTEX
8
ENGRAVE
10
53.5829
20
71.3709
30
0
0
VERTEX
8
ENGRAVE
10
53.5310
20
71.4286
30
0
0
VERTEX
8
ENGRAVE
10
53.4783
20
71.4805
30
0
0
VERTEX
8
ENGRAVE
10
53.4248
20
71.5267
30
0
0
VERTEX
8
ENGRAVE
10
53.3705
20
71.5670
30
0
0
VERTEX
8
ENGRAVE
10
53.3154
20
71.6016
30
0
0
VERTEX
8
ENGRAVE
10
53.2595
20
71.6304
30
0
0
VERTEX
8
ENGRAVE
10
53.2031
20
71.6534
30
0
0
VERTEX
8
ENGRAVE
10
53.1465
20
71.6703
30
0
0
VERTEX
8
ENGRAVE
10
53.0897
20
71.6814
30
0
0
VERTEX
8
ENGRAVE
10
53.0327
20
71.6864
30
0
0
VERTEX
8
ENGRAVE
10
52.9755
20
71.6856
30
0
0
VERTEX
8
ENGRAVE
10
52.9181
20
71.6787
30
0
0
VERTEX
8
ENGRAVE
10
52.8605
20
71.6659
30
0
0
VERTEX
8
ENGRAVE
10
52.8026
20
71.6471
30
0
0
VERTEX
8
ENGRAVE
10
52.7446
20
71.6224
30
0
0
VERTEX
8
ENGRAVE
10
52.6864
20
71.5917
30
0
0
VERTEX
8
ENGRAVE
10
52.6639
20
71.5783
30
0
0
VERTEX
8
ENGRAVE
10
52.6423
20
71.5646
30
0
0
VERTEX
8
ENGRAVE
10
52.6216
20
71.5507
30
0
0
VERTEX
8
ENGRAVE
10
52.6017
20
71.5364
30
0
0
VERTEX
8
ENGRAVE
10
52.5827
20
71.5219
30
0
0
VERTEX
8
ENGRAVE
10
52.5645
20
71.5070
30
0
0
VERTEX
8
ENGRAVE
10
52.5472
20
71.4919
30
0
0
VERTEX
8
ENGRAVE
10
52.5308
20
71.4764
30
0
0
VERTEX
8
ENGRAVE
10
52.5152
20
71.4607
30
0
0
VERTEX
8
ENGRAVE
10
52.5005
20
71.4447
30
0
0
VERTEX
8
ENGRAVE
10
52.4866
20
71.4284
30
0
0
VERTEX
8
ENGRAVE
10
52.4734
20
71.4119
30
0
0
VERTEX
8
ENGRAVE
10
52.4610
20
71.3952
30
0
0
VERTEX
8
ENGRAVE
10
52.4493
20
71.3783
30
0
0
VERTEX
8
ENGRAVE
10
52.4383
20
71.3612
30
0
0
VERTEX
8
ENGRAVE
10
52.4280
20
71.3438
30
0
0
VERTEX
8
ENGRAVE
10
52.4185
20
71.3263
30
0
0
VERTEX
8
ENGRAVE
10
52.4097
20
71.3085
30
0
0
VERTEX
8
ENGRAVE
10
52.4017
20
71.2906
30
0
0
VERTEX
8
ENGRAVE
10
52.3943
20
71.2724
30
0
0
VERTEX
8
ENGRAVE
10
52.3877
20
71.2540
30
0
0
VERTEX
8
ENGRAVE
10
52.3817
20
71.2354
30
0
0
VERTEX
8
ENGRAVE
10
52.3764
20
71.2165
30
0
0
VERTEX
8
ENGRAVE
10
52.3717
20
71.1974
30
0
0
VERTEX
8
ENGRAVE
10
52.3676
20
71.1781
30
0
0
VERTEX
8
ENGRAVE
10
52.3642
20
71.1585
30
0
0
VERTEX
8
ENGRAVE
10
52.3614
20
71.1387
30
0
0
VERTEX
8
ENGRAVE
10
52.3593
20
71.1187
30
0
0
VERTEX
8
ENGRAVE
10
52.3578
20
71.0984
30
0
0
VERTEX
8
ENGRAVE
10
52.3570
20
71.0778
30
0
0
VERTEX
8
ENGRAVE
10
52.3568
20
71.0571
30
0
0
VERTEX
8
ENGRAVE
10
52.3569
20
71.0361
30
0
0
VERTEX
8
ENGRAVE
10
52.3576
20
71.0149
30
0
0
VERTEX
8
ENGRAVE
10
52.3587
20
70.9935
30
0
0
VERTEX
8
ENGRAVE
10
52.3602
20
70.9718
30
0
0
VERTEX
8
ENGRAVE
10
52.3622
20
70.9499
30
0
0
VERTEX
8
ENGRAVE
10
52.3647
20
70.9278
30
0
0
VERTEX
8
ENGRAVE
10
52.3676
20
70.9055
30
0
0
VERTEX
8
ENGRAVE
10
52.3710
20
70.8829
30
0
0
VERTEX
8
ENGRAVE
10
52.3748
20
70.8601
30
0
0
VERTEX
8
ENGRAVE
10
52.3795
20
70.8356
30
0
0
VERTEX
8
ENGRAVE
10
52.3855
20
70.8079
30
0
0
VERTEX
8
ENGRAVE
10
52.3927
20
70.7771
30
0
0
VERTEX
8
ENGRAVE
10
52.4011
20
70.7430
30
0
0
VERTEX
8
ENGRAVE
10
52.4108
20
70.7058
30
0
0
VERTEX
8
ENGRAVE
10
52.4217
20
70.6653
30
0
0
VERTEX
8
ENGRAVE
10
52.4339
20
70.6217
30
0
0
VERTEX
8
ENGRAVE
10
52.4473
20
70.5749
30
0
0
VERTEX
8
ENGRAVE
10
52.4620
20
70.5249
30
0
0
VERTEX
8
ENGRAVE
10
52.4780
20
70.4717
30
0
0
VERTEX
8
ENGRAVE
10
52.4980
20
70.4112
30
0
0
VERTEX
8
ENGRAVE
10
52.5164
20
70.3545
30
0
0
VERTEX
8
ENGRAVE
10
52.5330
20
70.3017
30
0
0
VERTEX
8
ENGRAVE
10
52.5478
20
70.2526
30
0
0
VERTEX
8
ENGRAVE
10
52.5609
20
70.2073
30
0
0
VERTEX
8
ENGRAVE
10
52.5722
20
70.1659
30
0
0
VERTEX
8
ENGRAVE
10
52.5818
20
70.1283
30
0
0
VERTEX
8
ENGRAVE
10
52.5896
20
70.0945
30
0
0
VERTEX
8
ENGRAVE
10
52.5956
20
70.0645
30
0
0
VERTEX
8
ENGRAVE
10
52.5999
20
70.0383
30
0
0
VERTEX
8
ENGRAVE
10
52.6029
20
70.0143
30
0
0
VERTEX
8
ENGRAVE
10
52.6050
20
69.9910
30
0
0
VERTEX
8
ENGRAVE
10
52.6061
20
69.9684
30
0
0
VERTEX
8
ENGRAVE
10
52.6064
20
69.9464
30
0
0
VERTEX
8
ENGRAVE
10
52.6057
20
69.9251
30
0
0
VERTEX
8
ENGRAVE
10
52.6042
20
69.9044
30
0
0
VERTEX
8
ENGRAVE
10
52.6017
20
69.8844
30
0
0
VERTEX
8
ENGRAVE
10
52.5983
20
69.8650
30
0
0
VERTEX
8
ENGRAVE
10
52.5940
20
69.8463
30
0
0
VERTEX
8
ENGRAVE
10
52.5888
20
69.8283
30
0
0
VERTEX
8
ENGRAVE
10
52.5826
20
69.8109
30
0
0
VERTEX
8
ENGRAVE
10
52.5750
20
69.7943
30
0
0
VERTEX
8
ENGRAVE
10
52.5662
20
69.7783
30
0
0
VERTEX
8
ENGRAVE
10
52.5561
20
69.7631
30
0
0
VERTEX
8
ENGRAVE
10
52.5447
20
69.7486
30
0
0
VERTEX
8
ENGRAVE
10
52.5321
20
69.7348
30
0
0
VERTEX
8
ENGRAVE
10
52.5182
20
69.7217
30
0
0
VERTEX
8
ENGRAVE
10
52.5031
20
69.7094
30
0
0
VERTEX
8
ENGRAVE
10
52.4867
20
69.6977
30
0
0
VERTEX
8
ENGRAVE
10
52.4690
20
69.6868
30
0
0
VERTEX
8
ENGRAVE
10
52.4117
20
69.6600
30
0
0
VERTEX
8
ENGRAVE
10
52.3548
20
69.6460
30
0
0
VERTEX
8
ENGRAVE
10
52.2981
20
69.6447
30
0
0
VERTEX
8
ENGRAVE
10
52.2417
20
69.6562
30
0
0
VERTEX
8
ENGRAVE
10
52.1856
20
69.6805
30
0
0
VERTEX
8
ENGRAVE
10
52.1298
20
69.7174
30
0
0
VERTEX
8
ENGRAVE
10
52.0743
20
69.7672
30
0
0
VERTEX
8
ENGRAVE
10
52.0191
20
69.8297
30
0
0
VERTEX
8
ENGRAVE
10
51.9641
20
69.9049
30
0
0
VERTEX
8
ENGRAVE
10
51.9095
20
69.9929
30
0
0
VERTEX
8
ENGRAVE
10
51.8846
20
70.0378
30
0
0
VERTEX
8
ENGRAVE
10
51.8624
20
70.0817
30
0
0
VERTEX
8
ENGRAVE
10
51.8428
20
70.1245
30
0
0
VERTEX
8
ENGRAVE
10
51.8259
20
70.1661
30
0
0
VERTEX
8
ENGRAVE
10
51.8118
20
70.2067
30
0
0
VERTEX
8
ENGRAVE
10
51.8003
20
70.2462
30
0
0
VERTEX
8
ENGRAVE
10
51.7915
20
70.2846
30
0
0
VERTEX
8
ENGRAVE
10
51.7854
20
70.3219
30
0
0
VERTEX
8
ENGRAVE
10
51.7819
20
70.3580
30
0
0
VERTEX
8
ENGRAVE
10
51.7812
20
70.3932
30
0
0
VERTEX
8
ENGRAVE
10
51.7832
20
70.4274
30
0
0
VERTEX
8
ENGRAVE
10
51.7881
20
70.4611
30
0
0
VERTEX
8
ENGRAVE
10
51.7959
20
70.4942
30
0
0
VERTEX
8
ENGRAVE
10
51.8064
20
70.5266
30
0
0
VERTEX
8
ENGRAVE
10
51.8199
20
70.5585
30
0
0
VERTEX
8
ENGRAVE
10
51.8361
20
70.5898
30
0
0
VERTEX
8
ENGRAVE
10
51.8553
20
70.6205
30
0
0
VERTEX
8
ENGRAVE
10
51.8772
20
70.6506
30
0
0
VERTEX
8
ENGRAVE
10
51.9021
20
70.6801
30
0
0
VERTEX
8
ENGRAVE
10
51.9297
20
70.7090
30
0
0
VERTEX
8
ENGRAVE
10
51.6067
20
71.1027
30
0
0
VERTEX
8
ENGRAVE
10
51.5574
20
71.0541
30
0
0
VERTEX
8
ENGRAVE
10
51.5131
20
71.0038
30
0
0
VERTEX
8
ENGRAVE
10
51.4737
20
70.9520
30
0
0
VERTEX
8
ENGRAVE
10
51.4393
20
70.8985
30
0
0
VERTEX
8
ENGRAVE
10
51.4098
20
70.8434
30
0
0
VERTEX
8
ENGRAVE
10
51.3853
20
70.7867
30
0
0
VERTEX
8
ENGRAVE
10
51.3658
20
70.7284
30
0
0
VERTEX
8
ENGRAVE
10
51.3512
20
70.6685
30
0
0
VERTEX
8
ENGRAVE
10
51.3416
20
70.6070
30
0
0
VERTEX
8
ENGRAVE
10
51.3369
20
70.5438
30
0
0
VERTEX
8
ENGRAVE
10
51.3373
20
70.4789
30
0
0
VERTEX
8
ENGRAVE
10
51.3426
20
70.4122
30
0
0
VERTEX
8
ENGRAVE
10
51.3529
20
70.3435
30
0
0
VERTEX
8
ENGRAVE
10
51.3682
20
70.2730
30
0
0
VERTEX
8
ENGRAVE
10
51.3885
20
70.2006
30
0
0
VERTEX
8
ENGRAVE
10
51.4138
20
70.1263
30
0
0
VERTEX
8
ENGRAVE
10
51.4442
20
70.0501
30
0
0
VERTEX
8
ENGRAVE
10
51.4794
20
69.9720
30
0
0
VERTEX
8
ENGRAVE
10
51.5197
20
69.8921
30
0
0
VERTEX
8
ENGRAVE
10
51.5650
20
69.8103
30
0
0
VERTEX
8
ENGRAVE
10
51.6178
20
69.7227
30
0
0
VERTEX
8
ENGRAVE
10
51.6714
20
69.6415
30
0
0
VERTEX
8
ENGRAVE
10
51.7258
20
69.5666
30
0
0
VERTEX
8
ENGRAVE
10
51.7810
20
69.4980
30
0
0
VERTEX
8
ENGRAVE
10
51.8370
20
69.4357
30
0
0
VERTEX
8
ENGRAVE
10
51.8938
20
69.3797
30
0
0
VERTEX
8
ENGRAVE
10
51.9515
20
69.3301
30
0
0
VERTEX
8
ENGRAVE
10
52.0100
20
69.2867
30
0
0
VERTEX
8
ENGRAVE
10
52.0692
20
69.2497
30
0
0
VERTEX
8
ENGRAVE
10
52.1293
20
69.2189
30
0
0
VERTEX
8
ENGRAVE
10
52.1900
20
69.1946
30
0
0
VERTEX
8
ENGRAVE
10
52.2509
20
69.1766
30
0
0
VERTEX
8
ENGRAVE
10
52.3121
20
69.1651
30
0
0
VERTEX
8
ENGRAVE
10
52.3735
20
69.1599
30
0
0
SEQEND
8
ENGRAVE
0
POLYLINE
8
ENGRAVE
66
1
10
0
20
0
30
0
70
1
0
VERTEX
8
ENGRAVE
10
17.1992
20
67.7404
30
0
0
VERTEX
8
ENGRAVE
10
16.4098
20
68.1962
30
0
0
VERTEX
8
ENGRAVE
10
17.0454
20
69.2971
30
0
0
VERTEX
8
ENGRAVE
10
16.6973
20
69.4981
30
0
0
VERTEX
8
ENGRAVE
10
16.0617
20
68.3972
30
0
0
VERTEX
8
ENGRAVE
10
15.3960
20
68.7816
30
0
0
VERTEX
8
ENGRAVE
10
16.0519
20
69.9176
30
0
0
VERTEX
8
ENGRAVE
10
15.7037
20
70.1186
30
0
0
VERTEX
8
ENGRAVE
10
14.7878
20
68.5321
30
0
0
VERTEX
8
ENGRAVE
10
16.9392
20
67.2900
30
0
0
SEQEND
8
ENGRAVE
0
POLYLINE
8
ENGRAVE
66
1
10
0
20
0
30
0
70
1
0
VERTEX
8
ENGRAVE
10
54.6551
20
68.6931
30
0
0
VERTEX
8
ENGRAVE
10
55.0571
20
67.9968
30
0
0
VERTEX
8
ENGRAVE
10
55.4053
20
68.1978
30
0
0
VERTEX
8
ENGRAVE
10
54.3421
20
70.0392
30
0
0
VERTEX
8
ENGRAVE
10
53.9940
20
69.8382
30
0
0
VERTEX
8
ENGRAVE
10
54.3951
20
69.1435
30
0
0
VERTEX
8
ENGRAVE
10
52.5918
20
68.1024
30
0
0
VERTEX
8
ENGRAVE
10
52.8518
20
67.6519
30
0
0
SEQEND
8
ENGRAVE
0
POLYLINE
8
ENGRAVE
66
1
10
0
20
0
30
0
70
1
0
VERTEX
8
ENGRAVE
10
16.1222
20
65.8749
30
0
0
VERTEX
8
ENGRAVE
10
15.3328
20
66.3307
30
0
0
VERTEX
8
ENGRAVE
10
15.9684
20
67.4316
30
0
0
VERTEX
8
ENGRAVE
10
15.6203
20
67.6326
30
0
0
VERTEX
8
ENGRAVE
10
14.9847
20
66.5317
30
0
0
VERTEX
8
ENGRAVE
10
14.3189
20
66.9160
30
0
0
VERTEX
8
ENGRAVE
10
14.9748
20
68.0521
30
0
0
VERTEX
8
ENGRAVE
10
14.6267
20
68.2531
30
0
0
VERTEX
8
ENGRAVE
10
13.7107
20
66.6666
30
0
0
VERTEX
8
ENGRAVE
10
15.8621
20
65.4245
30
0
0
SEQEND
8
ENGRAVE
0
POLYLINE
8
ENGRAVE
66
1
10
0
20
0
30
0
70
1
0
VERTEX
8
ENGRAVE
10
56.0729
20
67.0414
30
0
0
VERTEX
8
ENGRAVE
10
55.7661
20
67.5728
30
0
0
VERTEX
8
ENGRAVE
10
53.1615
20
67.1155
30
0
0
VERTEX
8
ENGRAVE
10
53.4216
20
66.6651
30
0
0
VERTEX
8
ENGRAVE
10
54.0815
20
66.7916
30
0
0
VERTEX
8
ENGRAVE
10
54.5549
20
65.9716
30
0
0
VERTEX
8
ENGRAVE
10
54.1154
20
65.4634
30
0
0
VERTEX
8
ENGRAVE
10
54.3728
20
65.0175
30
0
0
SEQEND
8
ENGRAVE
0
POLYLINE
8
ENGRAVE
66
1
10
0
20
0
30
0
70
1
0
VERTEX
8
ENGRAVE
10
54.4787
20
66.8865
30
0
0
VERTEX
8
ENGRAVE
10
54.6394
20
66.9179
30
0
0
VERTEX
8
ENGRAVE
10
54.7849
20
66.9464
30
0
0
VERTEX
8
ENGRAVE
10
54.9153
20
66.9720
30
0
0
VERTEX
8
ENGRAVE
10
55.0305
20
66.9947
30
0
0
VERTEX
8
ENGRAVE
10
55.1305
20
67.0145
30
0
0
VERTEX
8
ENGRAVE
10
55.2154
20
67.0314
30
0
0
VERTEX
8
ENGRAVE
10
55.2850
20
67.0454
30
0
0
VERTEX
8
ENGRAVE
10
55.3395
20
67.0565
30
0
0
VERTEX
8
ENGRAVE
10
55.3788
20
67.0647
30
0
0
VERTEX
8
ENGRAVE
10
55.4029
20
67.0699
30
0
0
VERTEX
8
ENGRAVE
10
55.4507
20
67.0812
30
0
0
VERTEX
8
ENGRAVE
10
55.4808
20
67.0884
30
0
0
VERTEX
8
ENGRAVE
10
55.4952
20
67.0920
30
0
0
VERTEX
8
ENGRAVE
10
55.5230
20
67.0989
30
0
0
VERTEX
8
ENGRAVE
10
55.5493
20
67.1056
30
0
0
VERTEX
8
ENGRAVE
10
55.5881
20
67.1158
30
0
0
VERTEX
8
ENGRAVE
10
55.5013
20
67.0229
30
0
0
VERTEX
8
ENGRAVE
10
55.3315
20
66.8374
30
0
0
VERTEX
8
ENGRAVE
10
54.8357
20
66.2681
30
0
0
SEQEND
8
ENGRAVE
0
POLYLINE
8
ENGRAVE
66
1
10
0
20
0
30
0
70
1
0
VERTEX
8
ENGRAVE
10
56.2248
20
63.8974
30
0
0
VERTEX
8
ENGRAVE
10
56.2610
20
63.8612
30
0
0
VERTEX
8
ENGRAVE
10
56.2984
20
63.8282
30
0
0
VERTEX
8
ENGRAVE
10
56.3370
20
63.7983
30
0
0
VERTEX
8
ENGRAVE
10
56.3768
20
63.7714
30
0
0
VERTEX
8
ENGRAVE
10
56.4178
20
63.7477
30
0
0
VERTEX
8
ENGRAVE
10
56.4600
20
63.7271
30
0
0
VERTEX
8
ENGRAVE
10
56.5035
20
63.7095
30
0
0
VERTEX
8
ENGRAVE
10
56.5481
20
63.6951
30
0
0
VERTEX
8
ENGRAVE
10
56.5939
20
63.6837
30
0
0
VERTEX
8
ENGRAVE
10
56.6409
20
63.6755
30
0
0
VERTEX
8
ENGRAVE
10
56.6885
20
63.6704
30
0
0
VERTEX
8
ENGRAVE
10
56.7357
20
63.6687
30
0
0
VERTEX
8
ENGRAVE
10
56.7828
20
63.6702
30
0
0
VERTEX
8
ENGRAVE
10
56.8295
20
63.6749
30
0
0
VERTEX
8
ENGRAVE
10
56.8761
20
63.6830
30
0
0
VERTEX
8
ENGRAVE
10
56.9224
20
63.6943
30
0
0
VERTEX
8
ENGRAVE
10
56.9684
20
63.7089
30
0
0
VERTEX
8
ENGRAVE
10
57.0143
20
63.7268
30
0
0
VERTEX
8
ENGRAVE
10
57.0598
20
63.7480
30
0
0
VERTEX
8
ENGRAVE
10
57.1051
20
63.7725
30
0
0
VERTEX
8
ENGRAVE
10
57.1645
20
63.8095
30
0
0
VERTEX
8
ENGRAVE
10
57.2185
20
63.8491
30
0
0
VERTEX
8
ENGRAVE
10
57.2673
20
63.8912
30
0
0
VERTEX
8
ENGRAVE
10
57.3107
20
63.9358
30
0
0
VERTEX
8
ENGRAVE
10
57.3488
20
63.9829
30
0
0
VERTEX
8
ENGRAVE
10
57.3817
20
64.0325
30
0
0
VERTEX
8
ENGRAVE
10
57.4092
20
64.0847
30
0
0
VERTEX
8
ENGRAVE
10
57.4314
20
64.1394
30
0
0
VERTEX
8
ENGRAVE
10
57.4484
20
64.1965
30
0
0
VERTEX
8
ENGRAVE
10
57.4600
20
64.2563
30
0
0
VERTEX
8
ENGRAVE
10
57.4663
20
64.3180
30
0
0
VERTEX
8
ENGRAVE
10
57.4673
20
64.3814
30
0
0
VERTEX
8
ENGRAVE
10
57.4629
20
64.4464
30
0
0
VERTEX
8
ENGRAVE
10
57.4532
20
64.5129
30
0
0
VERTEX
8
ENGRAVE
10
57.4381
20
64.5811
30
0
0
VERTEX
8
ENGRAVE
10
57.4177
20
64.6508
30
0
0
VERTEX
8
ENGRAVE
10
57.3920
20
64.7222
30
0
0
VERTEX
8
ENGRAVE
10
57.3609
20
64.7952
30
0
0
VERTEX
8
ENGRAVE
10
57.3245
20
64.8697
30
0
0
VERTEX
8
ENGRAVE
10
57.2827
20
64.9459
30
0
0
VERTEX
8
ENGRAVE
10
56.6621
20
66.0208
30
0
0
VERTEX
8
ENGRAVE
10
54.5107
20
64.7787
30
0
0
VERTEX
8
ENGRAVE
10
54.7708
20
64.3283
30
0
0
VERTEX
8
ENGRAVE
10
55.5877
20
64.7999
30
0
0
VERTEX
8
ENGRAVE
10
55.8927
20
64.2716
30
0
0
VERTEX
8
ENGRAVE
10
55.3641
20
63.3007
30
0
0
VERTEX
8
ENGRAVE
10
55.6568
20
62.7937
30
0
0
SEQEND
8
ENGRAVE
0
POLYLINE
8
ENGRAVE
66
1
10
0
20
0
30
0
70
1
0
VERTEX
8
ENGRAVE
10
56.6151
20
64.1581
30
0
0
VERTEX
8
ENGRAVE
10
56.5861
20
64.1609
30
0
0
VERTEX
8
ENGRAVE
10
56.5573
20
64.1664
30
0
0
VERTEX
8
ENGRAVE
10
56.5288
20
64.1747
30
0
0
VERTEX
8
ENGRAVE
10
56.5008
20
64.1858
30
0
0
VERTEX
8
ENGRAVE
10
56.4734
20
64.1997
30
0
0
VERTEX
8
ENGRAVE
10
56.4466
20
64.2164
30
0
0
VERTEX
8
ENGRAVE
10
56.4205
20
64.2359
30
0
0
VERTEX
8
ENGRAVE
10
56.3951
20
64.2583
30
0
0
VERTEX
8
ENGRAVE
10
56.3703
20
64.2835
30
0
0
VERTEX
8
ENGRAVE
10
56.3461
20
64.3115
30
0
0
VERTEX
8
ENGRAVE
10
56.3226
20
64.3423
30
0
0
VERTEX
8
ENGRAVE
10
56.2998
20
64.3759
30
0
0
VERTEX
8
ENGRAVE
10
56.2776
20
64.4124
30
0
0
VERTEX
8
ENGRAVE
10
55.9373
20
65.0018
30
0
0
VERTEX
8
ENGRAVE
10
56.5725
20
65.3685
30
0
0
VERTEX
8
ENGRAVE
10
56.9057
20
64.7913
30
0
0
VERTEX
8
ENGRAVE
10
56.9462
20
64.7141
30
0
0
VERTEX
8
ENGRAVE
10
56.9759
20
64.6413
30
0
0
VERTEX
8
ENGRAVE
10
56.9947
20
64.5728
30
0
0
VERTEX
8
ENGRAVE
10
57.0028
20
64.5086
30
0
0
VERTEX
8
ENGRAVE
10
57.0002
20
64.4489
30
0
0
VERTEX
8
ENGRAVE
10
56.9867
20
64.3934
30
0
0
VERTEX
8
ENGRAVE
10
56.9624
20
64.3424
30
0
0
VERTEX
8
ENGRAVE
10
56.9274
20
64.2957
30
0
0
VERTEX
8
ENGRAVE
10
56.8816
20
64.2534
30
0
0
VERTEX
8
ENGRAVE
10
56.8250
20
64.2154
30
0
0
VERTEX
8
ENGRAVE
10
56.7943
20
64.1990
30
0
0
VERTEX
8
ENGRAVE
10
56.7638
20
64.1853
30
0
0
VERTEX
8
ENGRAVE
10
56.7336
20
64.1743
30
0
0
VERTEX
8
ENGRAVE
10
56.7036
20
64.1661
30
0
0
VERTEX
8
ENGRAVE
10
56.6738
20
64.1607
30
0
0
VERTEX
8
ENGRAVE
10
56.6443
20
64.1580
30
0
0
SEQEND
8
ENGRAVE
0
POLYLINE
8
ENGRAVE
66
1
10
0
20
0
30
0
70
1
0
VERTEX
8
ENGRAVE
10
14.1541
20
63.3810
30
0
0
VERTEX
8
ENGRAVE
10
14.2486
20
63.3916
30
0
0
VERTEX
8
ENGRAVE
10
14.3421
20
63.4106
30
0
0
VERTEX
8
ENGRAVE
10
14.4333
20
63.4376
30
0
0
VERTEX
8
ENGRAVE
10
14.5211
20
63.4724
30
0
0
VERTEX
8
ENGRAVE
10
14.6055
20
63.5151
30
0
0
VERTEX
8
ENGRAVE
10
14.6863
20
63.5656
30
0
0
VERTEX
8
ENGRAVE
10
14.7638
20
63.6239
30
0
0
VERTEX
8
ENGRAVE
10
14.8378
20
63.6901
30
0
0
VERTEX
8
ENGRAVE
10
14.9084
20
63.7641
30
0
0
VERTEX
8
ENGRAVE
10
14.9755
20
63.8459
30
0
0
VERTEX
8
ENGRAVE
10
15.0392
20
63.9355
30
0
0
VERTEX
8
ENGRAVE
10
15.0995
20
64.0330
30
0
0
VERTEX
8
ENGRAVE
10
15.1357
20
64.0989
30
0
0
VERTEX
8
ENGRAVE
10
15.1683
20
64.1647
30
0
0
VERTEX
8
ENGRAVE
10
15.1973
20
64.2305
30
0
0
VERTEX
8
ENGRAVE
10
15.2226
20
64.2962
30
0
0
VERTEX
8
ENGRAVE
10
15.2442
20
64.3617
30
0
0
VERTEX
8
ENGRAVE
10
15.2622
20
64.4272
30
0
0
VERTEX
8
ENGRAVE
10
15.2765
20
64.4926
30
0
0
VERTEX
8
ENGRAVE
10
15.2872
20
64.5579
30
0
0
VERTEX
8
ENGRAVE
10
15.2942
20
64.6231
30
0
0
VERTEX
8
ENGRAVE
10
15.2976
20
64.6882
30
0
0
VERTEX
8
ENGRAVE
10
15.2972
20
64.7528
30
0
0
VERTEX
8
ENGRAVE
10
15.2932
20
64.8165
30
0
0
VERTEX
8
ENGRAVE
10
15.2854
20
64.8793
30
0
0
VERTEX
8
ENGRAVE
10
15.2740
20
64.9412
30
0
0
VERTEX
8
ENGRAVE
10
15.2588
20
65.0022
30
0
0
VERTEX
8
ENGRAVE
10
15.2398
20
65.0623
30
0
0
VERTEX
8
ENGRAVE
10
15.2172
20
65.1215
30
0
0
VERTEX
8
ENGRAVE
10
15.1908
20
65.1798
30
0
0
VERTEX
8
ENGRAVE
10
15.1608
20
65.2372
30
0
0
VERTEX
8
ENGRAVE
10
15.1270
20
65.2936
30
0
0
VERTEX
8
ENGRAVE
10
15.0897
20
65.3488
30
0
0
VERTEX
8
ENGRAVE
10
15.0493
20
65.4022
30
0
0
VERTEX
8
ENGRAVE
10
15.0058
20
65.4539
30
0
0
VERTEX
8
ENGRAVE
10
14.9591
20
65.5039
30
0
0
VERTEX
8
ENGRAVE
10
14.9093
20
65.5522
30
0
0
VERTEX
8
ENGRAVE
10
14.8563
20
65.5987
30
0
0
VERTEX
8
ENGRAVE
10
14.8001
20
65.6435
30
0
0
VERTEX
8
ENGRAVE
10
14.7408
20
65.6866
30
0
0
VERTEX
8
ENGRAVE
10
14.6783
20
65.7280
30
0
0
VERTEX
8
ENGRAVE
10
14.6127
20
65.7676
30
0
0
VERTEX
8
ENGRAVE
10
14.5110
20
65.8226
30
0
0
VERTEX
8
ENGRAVE
10
14.4102
20
65.8692
30
0
0
VERTEX
8
ENGRAVE
10
14.3105
20
65.9076
30
0
0
VERTEX
8
ENGRAVE
10
14.2119
20
65.9377
30
0
0
VERTEX
8
ENGRAVE
10
14.1143
20
65.9595
30
0
0
VERTEX
8
ENGRAVE
10
14.0177
20
65.9730
30
0
0
VERTEX
8
ENGRAVE
10
13.9222
20
65.9783
30
0
0
VERTEX
8
ENGRAVE
10
13.8277
20
65.9753
30
0
0
VERTEX
8
ENGRAVE
10
13.7343
20
65.9640
30
0
0
VERTEX
8
ENGRAVE
10
13.6419
20
65.9444
30
0
0
VERTEX
8
ENGRAVE
10
13.5517
20
65.9167
30
0
0
VERTEX
8
ENGRAVE
10
13.4647
20
65.8812
30
0
0
VERTEX
8
ENGRAVE
10
13.3810
20
65.8379
30
0
0
VERTEX
8
ENGRAVE
10
13.3007
20
65.7867
30
0
0
VERTEX
8
ENGRAVE
10
13.2236
20
65.7276
30
0
0
VERTEX
8
ENGRAVE
10
13.1497
20
65.6606
30
0
0
VERTEX
8
ENGRAVE
10
13.0792
20
65.5858
30
0
0
VERTEX
8
ENGRAVE
10
13.0119
20
65.5032
30
0
0
VERTEX
8
ENGRAVE
10
12.9479
20
65.4127
30
0
0
VERTEX
8
ENGRAVE
10
12.8872
20
65.3143
30
0
0
VERTEX
8
ENGRAVE
10
12.8324
20
65.2126
30
0
0
VERTEX
8
ENGRAVE
10
12.7859
20
65.1120
30
0
0
VERTEX
8
ENGRAVE
10
12.7478
20
65.0125
30
0
0
VERTEX
8
ENGRAVE
10
12.7181
20
64.9142
30
0
0
VERTEX
8
ENGRAVE
10
12.6968
20
64.8170
30
0
0
VERTEX
8
ENGRAVE
10
12.6839
20
64.7210
30
0
0
VERTEX
8
ENGRAVE
10
12.6794
20
64.6261
30
0
0
VERTEX
8
ENGRAVE
10
12.6833
20
64.5323
30
0
0
VERTEX
8
ENGRAVE
10
12.6956
20
64.4397
30
0
0
VERTEX
8
ENGRAVE
10
12.7163
20
64.3482
30
0
0
VERTEX
8
ENGRAVE
10
12.7451
20
64.2589
30
0
0
VERTEX
8
ENGRAVE
10
12.7818
20
64.1726
30
0
0
VERTEX
8
ENGRAVE
10
12.8263
20
64.0895
30
0
0
VERTEX
8
ENGRAVE
10
12.8787
20
64.0095
30
0
0
VERTEX
8
ENGRAVE
10
12.9390
20
63.9326
30
0
0
VERTEX
8
ENGRAVE
10
13.0071
20
63.8588
30
0
0
VERTEX
8
ENGRAVE
10
13.0831
20
63.7882
30
0
0
VERTEX
8
ENGRAVE
10
13.1670
20
63.7206
30
0
0
VERTEX
8
ENGRAVE
10
13.2587
20
63.6562
30
0
0
VERTEX
8
ENGRAVE
10
13.3583
20
63.5948
30
0
0
VERTEX
8
ENGRAVE
10
13.4615
20
63.5390
30
0
0
VERTEX
8
ENGRAVE
10
13.5638
20
63.4916
30
0
0
VERTEX
8
ENGRAVE
10
13.6649
20
63.4524
30
0
0
VERTEX
8
ENGRAVE
10
13.7649
20
63.4215
30
0
0
VERTEX
8
ENGRAVE
10
13.8638
20
63.3989
30
0
0
VERTEX
8
ENGRAVE
10
13.9617
20
63.3846
30
0
0
VERTEX
8
ENGRAVE
10
14.0584
20
63.3787
30
0
0
SEQEND
8
ENGRAVE
0
POLYLINE
8
ENGRAVE
66
1
10
0
20
0
30
0
70
1
0
VERTEX
8
ENGRAVE
10
14.0901
20
63.8872
30
0
0
VERTEX
8
ENGRAVE
10
14.0261
20
63.8949
30
0
0
VERTEX
8
ENGRAVE
10
13.9611
20
63.9077
30
0
0
VERTEX
8
ENGRAVE
10
13.8950
20
63.9256
30
0
0
VERTEX
8
ENGRAVE
10
13.8279
20
63.9486
30
0
0
VERTEX
8
ENGRAVE
10
13.7597
20
63.9768
30
0
0
VERTEX
8
ENGRAVE
10
13.6904
20
64.0100
30
0
0
VERTEX
8
ENGRAVE
10
13.6201
20
64.0483
30
0
0
VERTEX
8
ENGRAVE
10
13.5524
20
64.0896
30
0
0
VERTEX
8
ENGRAVE
10
13.4896
20
64.1325
30
0
0
VERTEX
8
ENGRAVE
10
13.4319
20
64.1768
30
0
0
VERTEX
8
ENGRAVE
10
13.3792
20
64.2226
30
0
0
VERTEX
8
ENGRAVE
10
13.3315
20
64.2700
30
0
0
VERTEX
8
ENGRAVE
10
13.2888
20
64.3188
30
0
0
VERTEX
8
ENGRAVE
10
13.2511
20
64.3692
30
0
0
VERTEX
8
ENGRAVE
10
13.2183
20
64.4210
30
0
0
VERTEX
8
ENGRAVE
10
13.1906
20
64.4744
30
0
0
VERTEX
8
ENGRAVE
10
13.1679
20
64.5293
30
0
0
VERTEX
8
ENGRAVE
10
13.1505
20
64.5851
30
0
0
VERTEX
8
ENGRAVE
10
13.1385
20
64.6415
30
0
0
VERTEX
8
ENGRAVE
10
13.1321
20
64.6983
30
0
0
VERTEX
8
ENGRAVE
10
13.1312
20
64.7557
30
0
0
VERTEX
8
ENGRAVE
10
13.1358
20
64.8135
30
0
0
VERTEX
8
ENGRAVE
10
13.1459
20
64.8718
30
0
0
VERTEX
8
ENGRAVE
10
13.1615
20
64.9306
30
0
0
VERTEX
8
ENGRAVE
10
13.1827
20
64.9898
30
0
0
VERTEX
8
ENGRAVE
10
13.2093
20
65.0496
30
0
0
VERTEX
8
ENGRAVE
10
13.2415
20
65.1098
30
0
0
VERTEX
8
ENGRAVE
10
13.2771
20
65.1669
30
0
0
VERTEX
8
ENGRAVE
10
13.3151
20
65.2190
30
0
0
VERTEX
8
ENGRAVE
10
13.3555
20
65.2662
30
0
0
VERTEX
8
ENGRAVE
10
13.3984
20
65.3085
30
0
0
VERTEX
8
ENGRAVE
10
13.4436
20
65.3458
30
0
0
VERTEX
8
ENGRAVE
10
13.4913
20
65.3782
30
0
0
VERTEX
8
ENGRAVE
10
13.5415
20
65.4056
30
0
0
VERTEX
8
ENGRAVE
10
13.5940
20
65.4281
30
0
0
VERTEX
8
ENGRAVE
10
13.6490
20
65.4456
30
0
0
VERTEX
8
ENGRAVE
10
13.7063
20
65.4583
30
0
0
VERTEX
8
ENGRAVE
10
13.7655
20
65.4659
30
0
0
VERTEX
8
ENGRAVE
10
13.8257
20
65.4685
30
0
0
VERTEX
8
ENGRAVE
10
13.8871
20
65.4661
30
0
0
VERTEX
8
ENGRAVE
10
13.9495
20
65.4586
30
0
0
VERTEX
8
ENGRAVE
10
14.0131
20
65.4461
30
0
0
VERTEX
8
ENGRAVE
10
14.0777
20
65.4285
30
0
0
VERTEX
8
ENGRAVE
10
14.1435
20
65.4060
30
0
0
VERTEX
8
ENGRAVE
10
14.2104
20
65.3784
30
0
0
VERTEX
8
ENGRAVE
10
14.2783
20
65.3457
30
0
0
VERTEX
8
ENGRAVE
10
14.3474
20
65.3080
30
0
0
VERTEX
8
ENGRAVE
10
14.4178
20
65.2652
30
0
0
VERTEX
8
ENGRAVE
10
14.4829
20
65.2210
30
0
0
VERTEX
8
ENGRAVE
10
14.5428
20
65.1755
30
0
0
VERTEX
8
ENGRAVE
10
14.5975
20
65.1286
30
0
0
VERTEX
8
ENGRAVE
10
14.6470
20
65.0803
30
0
0
VERTEX
8
ENGRAVE
10
14.6913
20
65.0307
30
0
0
VERTEX
8
ENGRAVE
10
14.7303
20
64.9797
30
0
0
VERTEX
8
ENGRAVE
10
14.7641
20
64.9274
30
0
0
VERTEX
8
ENGRAVE
10
14.7927
20
64.8737
30
0
0
VERTEX
8
ENGRAVE
10
14.8160
20
64.8186
30
0
0
VERTEX
8
ENGRAVE
10
14.8340
20
64.7626
30
0
0
VERTEX
8
ENGRAVE
10
14.8464
20
64.7061
30
0
0
VERTEX
8
ENGRAVE
10
14.8532
20
64.6492
30
0
0
VERTEX
8
ENGRAVE
10
14.8545
20
64.5918
30
0
0
VERTEX
8
ENGRAVE
10
14.8502
20
64.5340
30
0
0
VERTEX
8
ENGRAVE
10
14.8403
20
64.4756
30
0
0
VERTEX
8
ENGRAVE
10
14.8249
20
64.4168
30
0
0
VERTEX
8
ENGRAVE
10
14.8039
20
64.3575
30
0
0
VERTEX
8
ENGRAVE
10
14.7774
20
64.2977
30
0
0
VERTEX
8
ENGRAVE
10
14.7452
20
64.2375
30
0
0
VERTEX
8
ENGRAVE
10
14.7102
20
64.1816
30
0
0
VERTEX
8
ENGRAVE
10
14.6726
20
64.1305
30
0
0
VERTEX
8
ENGRAVE
10
14.6322
20
64.0842
30
0
0
VERTEX
8
ENGRAVE
10
14.5893
20
64.0427
30
0
0
VERTEX
8
ENGRAVE
10
14.5436
20
64.0060
30
0
0
VERTEX
8
ENGRAVE
10
14.4953
20
63.9742
30
0
0
VERTEX
8
ENGRAVE
10
14.4444
20
63.9471
30
0
0
VERTEX
8
ENGRAVE
10
14.3908
20
63.9249
30
0
0
VERTEX
8
ENGRAVE
10
14.3345
20
63.9075
30
0
0
VERTEX
8
ENGRAVE
10
14.2756
20
63.8949
30
0
0
VERTEX
8
ENGRAVE
10
14.2148
20
63.8872
30
0
0
VERTEX
8
ENGRAVE
10
14.1530
20
63.8847
30
0
0
SEQEND
8
ENGRAVE
0
POLYLINE
8
ENGRAVE
66
1
10
0
20
0
30
0
70
1
0
VERTEX
8
ENGRAVE
10
21.3436
20
63.3464
30
0
0
VERTEX
8
ENGRAVE
10
18.3125
20
65.0964
30
0
0
VERTEX
8
ENGRAVE
10
17.9125
20
64.4036
30
0
0
VERTEX
8
ENGRAVE
10
20.9436
20
62.6536
30
0
0
SEQEND
8
ENGRAVE
0
POLYLINE
8
ENGRAVE
66
1
10
0
20
0
30
0
70
1
0
VERTEX
8
ENGRAVE
10
52.0875
20
64.4036
30
0
0
VERTEX
8
ENGRAVE
10
51.6875
20
65.0964
30
0
0
VERTEX
8
ENGRAVE
10
48.6564
20
63.3464
30
0
0
VERTEX
8
ENGRAVE
10
49.0564
20
62.6536
30
0
0
SEQEND
8
ENGRAVE
0
POLYLINE
8
ENGRAVE
66
1
10
0
20
0
30
0
70
1
0
VERTEX
8
ENGRAVE
10
58.1480
20
62.6432
30
0
0
VERTEX
8
ENGRAVE
10
58.5500
20
61.9469
30
0
0
VERTEX
8
ENGRAVE
10
58.8981
20
62.1479
30
0
0
VERTEX
8
ENGRAVE
10
57.8350
20
63.9894
30
0
0
VERTEX
8
ENGRAVE
10
57.4868
20
63.7884
30
0
0
VERTEX
8
ENGRAVE
10
57.8879
20
63.0937
30
0
0
VERTEX
8
ENGRAVE
10
56.0847
20
62.0525
30
0
0
VERTEX
8
ENGRAVE
10
56.3447
20
61.6021
30
0
0
SEQEND
8
ENGRAVE
0
POLYLINE
8
ENGRAVE
66
1
10
0
20
0
30
0
70
1
0
VERTEX
8
ENGRAVE
10
152.1370
20
6.6615
30
0
0
VERTEX
8
ENGRAVE
10
152.7540
20
6.6615
30
0
0
VERTEX
8
ENGRAVE
10
152.8090
20
6.6625
30
0
0
VERTEX
8
ENGRAVE
10
152.8630
20
6.6656
30
0
0
VERTEX
8
ENGRAVE
10
152.9150
20
6.6707
30
0
0
VERTEX
8
ENGRAVE
10
152.9660
20
6.6780
30
0
0
VERTEX
8
ENGRAVE
10
153.0150
20
6.6872
30
0
0
VERTEX
8
ENGRAVE
10
153.0630
20
6.6986
30
0
0
VERTEX
8
ENGRAVE
10
153.1090
20
6.7120
30
0
0
VERTEX
8
ENGRAVE
10
153.1540
20
6.7275
30
0
0
VERTEX
8
ENGRAVE
10
153.1970
20
6.7450
30
0
0
VERTEX
8
ENGRAVE
10
153.2380
20
6.7646
30
0
0
VERTEX
8
ENGRAVE
10
153.2780
20
6.7861
30
0
0
VERTEX
8
ENGRAVE
10
153.3160
20
6.8093
30
0
0
VERTEX
8
ENGRAVE
10
153.3520
20
6.8342
30
0
0
VERTEX
8
ENGRAVE
10
153.3860
20
6.8608
30
0
0
VERTEX
8
ENGRAVE
10
153.4180
20
6.8891
30
0
0
VERTEX
8
ENGRAVE
10
153.4490
20
6.9192
30
0
0
VERTEX
8
ENGRAVE
10
153.4770
20
6.9509
30
0
0
VERTEX
8
ENGRAVE
10
153.5040
20
6.9844
30
0
0
VERTEX
8
ENGRAVE
10
153.5280
20
7.0195
30
0
0
VERTEX
8
ENGRAVE
10
153.5510
20
7.0564
30
0
0
VERTEX
8
ENGRAVE
10
153.5720
20
7.0946
30
0
0
VERTEX
8
ENGRAVE
10
153.5900
20
7.1339
30
0
0
VERTEX
8
ENGRAVE
10
153.6070
20
7.1742
30
0
0
VERTEX
8
ENGRAVE
10
153.6210
20
7.2155
30
0
0
VERTEX
8
ENGRAVE
10
153.6330
20
7.2578
30
0
0
VERTEX
8
ENGRAVE
10
153.6430
20
7.3012
30
0
0
VERTEX
8
ENGRAVE
10
153.6510
20
7.3456
30
0
0
VERTEX
8
ENGRAVE
10
153.6560
20
7.3910
30
0
0
VERTEX
8
ENGRAVE
10
153.6590
20
7.4374
30
0
0
VERTEX
8
ENGRAVE
10
153.6600
20
7.4848
30
0
0
VERTEX
8
ENGRAVE
10
153.6580
20
7.5582
30
0
0
VERTEX
8
ENGRAVE
10
153.6510
20
7.6282
30
0
0
VERTEX
8
ENGRAVE
10
153.6390
20
7.6948
30
0
0
VERTEX
8
ENGRAVE
10
153.6220
20
7.7580
30
0
0
VERTEX
8
ENGRAVE
10
153.6000
20
7.8178
30
0
0
VERTEX
8
ENGRAVE
10
153.5740
20
7.8742
30
0
0
VERTEX
8
ENGRAVE
10
153.5420
20
7.9272
30
0
0
VERTEX
8
ENGRAVE
10
153.5060
20
7.9768
30
0
0
VERTEX
8
ENGRAVE
10
153.4650
20
8.0230
30
0
0
VERTEX
8
ENGRAVE
10
153.4200
20
8.0658
30
0
0
VERTEX
8
ENGRAVE
10
153.3700
20
8.1048
30
0
0
VERTEX
8
ENGRAVE
10
153.3150
20
8.1397
30
0
0
VERTEX
8
ENGRAVE
10
153.2570
20
8.1705
30
0
0
VERTEX
8
ENGRAVE
10
153.1940
20
8.1972
30
0
0
VERTEX
8
ENGRAVE
10
153.1280
20
8.2198
30
0
0
VERTEX
8
ENGRAVE
10
153.0570
20
8.2383
30
0
0
VERTEX
8
ENGRAVE
10
152.9820
20
8.2527
30
0
0
VERTEX
8
ENGRAVE
10
152.9030
20
8.2630
30
0
0
VERTEX
8
ENGRAVE
10
152.8200
20
8.2691
30
0
0
VERTEX
8
ENGRAVE
10
152.7330
20
8.2712
30
0
0
VERTEX
8
ENGRAVE
10
151.6170
20
8.2712
30
0
0
VERTEX
8
ENGRAVE
10
151.6170
20
5.7869
30
0
0
VERTEX
8
ENGRAVE
10
152.1370
20
5.7869
30
0
0
SEQEND
8
ENGRAVE
0
POLYLINE
8
ENGRAVE
66
1
10
0
20
0
30
0
70
1
0
VERTEX
8
ENGRAVE
10
152.1370
20
7.0617
30
0
0
VERTEX
8
ENGRAVE
10
152.1370
20
7.8674
30
0
0
VERTEX
8
ENGRAVE
10
152.6750
20
7.8674
30
0
0
VERTEX
8
ENGRAVE
10
152.7630
20
7.8635
30
0
0
VERTEX
8
ENGRAVE
10
152.8410
20
7.8518
30
0
0
VERTEX
8
ENGRAVE
10
152.9100
20
7.8322
30
0
0
VERTEX
8
ENGRAVE
10
152.9700
20
7.8048
30
0
0
VERTEX
8
ENGRAVE
10
153.0210
20
7.7696
30
0
0
VERTEX
8
ENGRAVE
10
153.0630
20
7.7265
30
0
0
VERTEX
8
ENGRAVE
10
153.0950
20
7.6756
30
0
0
VERTEX
8
ENGRAVE
10
153.1180
20
7.6169
30
0
0
VERTEX
8
ENGRAVE
10
153.1320
20
7.5504
30
0
0
VERTEX
8
ENGRAVE
10
153.1370
20
7.4760
30
0
0
VERTEX
8
ENGRAVE
10
153.1360
20
7.4367
30
0
0
VERTEX
8
ENGRAVE
10
153.1320
20
7.3994
30
0
0
VERTEX
8
ENGRAVE
10
153.1260
20
7.3639
30
0
0
VERTEX
8
ENGRAVE
10
153.1180
20
7.3303
30
0
0
VERTEX
8
ENGRAVE
10
153.1080
20
7.2986
30
0
0
VERTEX
8
ENGRAVE
10
153.0950
20
7.2688
30
0
0
VERTEX
8
ENGRAVE
10
153.0800
20
7.2408
30
0
0
VERTEX
8
ENGRAVE
10
153.0620
20
7.2148
30
0
0
VERTEX
8
ENGRAVE
10
153.0420
20
7.1906
30
0
0
VERTEX
8
ENGRAVE
10
153.0200
20
7.1683
30
0
0
VERTEX
8
ENGRAVE
10
152.9960
20
7.1481
30
0
0
VERTEX
8
ENGRAVE
10
152.9700
20
7.1299
30
0
0
VERTEX
8
ENGRAVE
10
152.9420
20
7.1139
30
0
0
VERTEX
8
ENGRAVE
10
152.9110
20
7.1001
30
0
0
VERTEX
8
ENGRAVE
10
152.8790
20
7.0883
30
0
0
VERTEX
8
ENGRAVE
10
152.8450
20
7.0787
30
0
0
VERTEX
8
ENGRAVE
10
152.8090
20
7.0713
30
0
0
VERTEX
8
ENGRAVE
10
152.7710
20
7.0659
30
0
0
VERTEX
8
ENGRAVE
10
152.7310
20
7.0627
30
0
0
VERTEX
8
ENGRAVE
10
152.6890
20
7.0617
30
0
0
SEQEND
8
ENGRAVE
0
POLYLINE
8
ENGRAVE
66
1
10
0
20
0
30
0
70
1
0
VERTEX
8
ENGRAVE
10
156.7740
20
6.7302
30
0
0
VERTEX
8
ENGRAVE
10
157.3840
20
6.7302
30
0
0
VERTEX
8
ENGRAVE
10
157.9610
20
5.7869
30
0
0
VERTEX
8
ENGRAVE
10
158.5460
20
5.7869
30
0
0
VERTEX
8
ENGRAVE
10
157.8740
20
6.8307
30
0
0
VERTEX
8
ENGRAVE
10
157.9240
20
6.8440
30
0
0
VERTEX
8
ENGRAVE
10
157.9710
20
6.8599
30
0
0
VERTEX
8
ENGRAVE
10
158.0160
20
6.8783
30
0
0
VERTEX
8
ENGRAVE
10
158.0590
20
6.8994
30
0
0
VERTEX
8
ENGRAVE
10
158.1000
20
6.9231
30
0
0
VERTEX
8
ENGRAVE
10
158.1390
20
6.9493
30
0
0
VERTEX
8
ENGRAVE
10
158.1760
20
6.9781
30
0
0
VERTEX
8
ENGRAVE
10
158.2110
20
7.0095
30
0
0
VERTEX
8
ENGRAVE
10
158.2440
20
7.0436
30
0
0
VERTEX
8
ENGRAVE
10
158.2750
20
7.0802
30
0
0
VERTEX
8
ENGRAVE
10
158.3030
20
7.1188
30
0
0
VERTEX
8
ENGRAVE
10
158.3280
20
7.1588
30
0
0
VERTEX
8
ENGRAVE
10
158.3500
20
7.2003
30
0
0
VERTEX
8
ENGRAVE
10
158.3690
20
7.2432
30
0
0
VERTEX
8
ENGRAVE
10
158.3860
20
7.2876
30
0
0
VERTEX
8
ENGRAVE
10
158.3990
20
7.3333
30
0
0
VERTEX
8
ENGRAVE
10
158.4090
20
7.3805
30
0
0
VERTEX
8
ENGRAVE
10
158.4170
20
7.4291
30
0
0
VERTEX
8
ENGRAVE
10
158.4210
20
7.4792
30
0
0
VERTEX
8
ENGRAVE
10
158.4230
20
7.5307
30
0
0
VERTEX
8
ENGRAVE
10
158.4200
20
7.6006
30
0
0
VERTEX
8
ENGRAVE
10
158.4130
20
7.6672
30
0
0
VERTEX
8
ENGRAVE
10
158.4010
20
7.7304
30
0
0
VERTEX
8
ENGRAVE
10
158.3840
20
7.7903
30
0
0
VERTEX
8
ENGRAVE
10
158.3620
20
7.8469
30
0
0
VERTEX
8
ENGRAVE
10
158.3360
20
7.9002
30
0
0
VERTEX
8
ENGRAVE
10
158.3040
20
7.9501
30
0
0
VERTEX
8
ENGRAVE
10
158.2680
20
7.9967
30
0
0
VERTEX
8
ENGRAVE
10
158.2270
20
8.0399
30
0
0
VERTEX
8
ENGRAVE
10
158.1810
20
8.0799
30
0
0
VERTEX
8
ENGRAVE
10
158.1310
20
8.1162
30
0
0
VERTEX
8
ENGRAVE
10
158.0760
20
8.1487
30
0
0
VERTEX
8
ENGRAVE
10
158.0180
20
8.1774
30
0
0
VERTEX
8
ENGRAVE
10
157.9550
20
8.2023
30
0
0
VERTEX
8
ENGRAVE
10
157.8890
20
8.2234
30
0
0
VERTEX
8
ENGRAVE
10
157.8180
20
8.2406
30
0
0
VERTEX
8
ENGRAVE
10
157.7440
20
8.2540
30
0
0
VERTEX
8
ENGRAVE
10
157.6650
20
8.2635
30
0
0
VERTEX
8
ENGRAVE
10
157.5820
20
8.2693
30
0
0
VERTEX
8
ENGRAVE
10
157.4950
20
8.2712
30
0
0
VERTEX
8
ENGRAVE
10
156.2540
20
8.2712
30
0
0
VERTEX
8
ENGRAVE
10
156.2540
20
5.7869
30
0
0
VERTEX
8
ENGRAVE
10
156.7740
20
5.7869
30
0
0
SEQEND
8
ENGRAVE
0
POLYLINE
8
ENGRAVE
66
1
10
0
20
0
30
0
70
1
0
VERTEX
8
ENGRAVE
10
156.7740
20
7.1340
30
0
0
VERTEX
8
ENGRAVE
10
156.7740
20
7.8674
30
0
0
VERTEX
8
ENGRAVE
10
157.4410
20
7.8674
30
0
0
VERTEX
8
ENGRAVE
10
157.5280
20
7.8639
30
0
0
VERTEX
8
ENGRAVE
10
157.6060
20
7.8531
30
0
0
VERTEX
8
ENGRAVE
10
157.6740
20
7.8352
30
0
0
VERTEX
8
ENGRAVE
10
157.7340
20
7.8102
30
0
0
VERTEX
8
ENGRAVE
10
157.7840
20
7.7779
30
0
0
VERTEX
8
ENGRAVE
10
157.8260
20
7.7386
30
0
0
VERTEX
8
ENGRAVE
10
157.8580
20
7.6921
30
0
0
VERTEX
8
ENGRAVE
10
157.8810
20
7.6383
30
0
0
VERTEX
8
ENGRAVE
10
157.8940
20
7.5775
30
0
0
VERTEX
8
ENGRAVE
10
157.8990
20
7.5095
30
0
0
VERTEX
8
ENGRAVE
10
157.8980
20
7.4747
30
0
0
VERTEX
8
ENGRAVE
10
157.8950
20
7.4414
30
0
0
VERTEX
8
ENGRAVE
10
157.8890
20
7.4098
30
0
0
VERTEX
8
ENGRAVE
10
157.8810
20
7.3797
30
0
0
VERTEX
8
ENGRAVE
10
157.8710
20
7.3513
30
0
0
VERTEX
8
ENGRAVE
10
157.8580
20
7.3244
30
0
0
VERTEX
8
ENGRAVE
10
157.8440
20
7.2991
30
0
0
VERTEX
8
ENGRAVE
10
157.8270
20
7.2754
30
0
0
VERTEX
8
ENGRAVE
10
157.8080
20
7.2532
30
0
0
VERTEX
8
ENGRAVE
10
157.7860
20
7.2327
30
0
0
VERTEX
8
ENGRAVE
10
157.7630
20
7.2139
30
0
0
VERTEX
8
ENGRAVE
10
157.7370
20
7.1971
30
0
0
VERTEX
8
ENGRAVE
10
157.7090
20
7.1823
30
0
0
VERTEX
8
ENGRAVE
10
157.6790
20
7.1695
30
0
0
VERTEX
8
ENGRAVE
10
157.6470
20
7.1586
30
0
0
VERTEX
8
ENGRAVE
10
157.6130
20
7.1498
30
0
0
VERTEX
8
ENGRAVE
10
157.5760
20
7.1429
30
0
0
VERTEX
8
ENGRAVE
10
157.5380
20
7.1379
30
0
0
VERTEX
8
ENGRAVE
10
157.4970
20
7.1349
30
0
0
VERTEX
8
ENGRAVE
10
157.4550
20
7.1340
30
0
0
SEQEND
8
ENGRAVE
0
POLYLINE
8
ENGRAVE
66
1
10
0
20
0
30
0
70
1
0
VERTEX
8
ENGRAVE
10
154.2960
20
6.4217
30
0
0
VERTEX
8
ENGRAVE
10
155.2430
20
6.4217
30
0
0
VERTEX
8
ENGRAVE
10
155.4630
20
5.7869
30
0
0
VERTEX
8
ENGRAVE
10
155.9780
20
5.7869
30
0
0
VERTEX
8
ENGRAVE
10
155.0760
20
8.2712
30
0
0
VERTEX
8
ENGRAVE
10
154.4620
20
8.2712
30
0
0
VERTEX
8
ENGRAVE
10
153.5560
20
5.7869
30
0
0
VERTEX
8
ENGRAVE
10
154.0760
20
5.7869
30
0
0
SEQEND
8
ENGRAVE
0
POLYLINE
8
ENGRAVE
66
1
10
0
20
0
30
0
70
1
0
VERTEX
8
ENGRAVE
10
154.4130
20
6.8131
30
0
0
VERTEX
8
ENGRAVE
10
154.4660
20
6.9680
30
0
0
VERTEX
8
ENGRAVE
10
154.5140
20
7.1083
30
0
0
VERTEX
8
ENGRAVE
10
154.5570
20
7.2340
30
0
0
VERTEX
8
ENGRAVE
10
154.5950
20
7.3451
30
0
0
VERTEX
8
ENGRAVE
10
154.6280
20
7.4416
30
0
0
VERTEX
8
ENGRAVE
10
154.6550
20
7.5235
30
0
0
VERTEX
8
ENGRAVE
10
154.6780
20
7.5908
30
0
0
VERTEX
8
ENGRAVE
10
154.6960
20
7.6436
30
0
0
VERTEX
8
ENGRAVE
10
154.7080
20
7.6817
30
0
0
VERTEX
8
ENGRAVE
10
154.7160
20
7.7052
30
0
0
VERTEX
8
ENGRAVE
10
154.7250
20
7.7369
30
0
0
VERTEX
8
ENGRAVE
10
154.7340
20
7.7673
30
0
0
VERTEX
8
ENGRAVE
10
154.7390
20
7.7819
30
0
0
VERTEX
8
ENGRAVE
10
154.7470
20
7.8101
30
0
0
VERTEX
8
ENGRAVE
10
154.7550
20
7.8369
30
0
0
VERTEX
8
ENGRAVE
10
154.7580
20
7.8498
30
0
0
VERTEX
8
ENGRAVE
10
154.7690
20
7.8886
30
0
0
VERTEX
8
ENGRAVE
10
154.8060
20
7.7669
30
0
0
VERTEX
8
ENGRAVE
10
154.8820
20
7.5271
30
0
0
VERTEX
8
ENGRAVE
10
155.1270
20
6.8131
30
0
0
SEQEND
8
ENGRAVE
0
POLYLINE
8
ENGRAVE
66
1
10
0
20
0
30
0
70
1
0
VERTEX
8
ENGRAVE
10
168.0100
20
6.4217
30
0
0
VERTEX
8
ENGRAVE
10
168.9560
20
6.4217
30
0
0
VERTEX
8
ENGRAVE
10
169.1770
20
5.7869
30
0
0
VERTEX
8
ENGRAVE
10
169.6920
20
5.7869
30
0
0
VERTEX
8
ENGRAVE
10
168.7890
20
8.2712
30
0
0
VERTEX
8
ENGRAVE
10
168.1750
20
8.2712
30
0
0
VERTEX
8
ENGRAVE
10
167.2690
20
5.7869
30
0
0
VERTEX
8
ENGRAVE
10
167.7890
20
5.7869
30
0
0
SEQEND
8
ENGRAVE
0
POLYLINE
8
ENGRAVE
66
1
10
0
20
0
30
0
70
1
0
VERTEX
8
ENGRAVE
10
168.1260
20
6.8131
30
0
0
VERTEX
8
ENGRAVE
10
168.1790
20
6.9680
30
0
0
VERTEX
8
ENGRAVE
10
168.2270
20
7.1083
30
0
0
VERTEX
8
ENGRAVE
10
168.2700
20
7.2340
30
0
0
VERTEX
8
ENGRAVE
10
168.3080
20
7.3451
30
0
0
VERTEX
8
ENGRAVE
10
168.3410
20
7.4416
30
0
0
VERTEX
8
ENGRAVE
10
168.3690
20
7.5235
30
0
0
VERTEX
8
ENGRAVE
10
168.3910
20
7.5908
30
0
0
VERTEX
8
ENGRAVE
10
168.4090
20
7.6436
30
0
0
VERTEX
8
ENGRAVE
10
168.4220
20
7.6817
30
0
0
VERTEX
8
ENGRAVE
10
168.4290
20
7.7052
30
0
0
VERTEX
8
ENGRAVE
10
168.4390
20
7.7369
30
0
0
VERTEX
8
ENGRAVE
10
168.4480
20
7.7673
30
0
0
VERTEX
8
ENGRAVE
10
168.4560
20
7.7962
30
0
0
VERTEX
8
ENGRAVE
10
168.4600
20
7.8101
30
0
0
VERTEX
8
ENGRAVE
10
168.4680
20
7.8369
30
0
0
VERTEX
8
ENGRAVE
10
168.4710
20
7.8498
30
0
0
VERTEX
8
ENGRAVE
10
168.4820
20
7.8886
30
0
0
VERTEX
8
ENGRAVE
10
168.5190
20
7.7669
30
0
0
VERTEX
8
ENGRAVE
10
168.5950
20
7.5271
30
0
0
VERTEX
8
ENGRAVE
10
168.8400
20
6.8131
30
0
0
SEQEND
8
ENGRAVE
0
POLYLINE
8
ENGRAVE
66
1
10
0
20
0
30
0
70
1
0
VERTEX
8
ENGRAVE
10
174.5400
20
6.1889
30
0
0
VERTEX
8
ENGRAVE
10
173.0340
20
6.1889
30
0
0
VERTEX
8
ENGRAVE
10
173.0340
20
6.8431
30
0
0
VERTEX
8
ENGRAVE
10
174.3600
20
6.8431
30
0
0
VERTEX
8
ENGRAVE
10
174.3600
20
7.2450
30
0
0
VERTEX
8
ENGRAVE
10
173.0340
20
7.2450
30
0
0
VERTEX
8
ENGRAVE
10
173.0340
20
7.8692
30
0
0
VERTEX
8
ENGRAVE
10
174.4680
20
7.8692
30
0
0
VERTEX
8
ENGRAVE
10
174.4680
20
8.2712
30
0
0
VERTEX
8
ENGRAVE
10
172.5140
20
8.2712
30
0
0
VERTEX
8
ENGRAVE
10
172.5140
20
5.7869
30
0
0
VERTEX
8
ENGRAVE
10
174.5400
20
5.7869
30
0
0
SEQEND
8
ENGRAVE
0
POLYLINE
8
ENGRAVE
66
1
10
0
20
0
30
0
70
1
0
VERTEX
8
ENGRAVE
10
170.4870
20
6.6932
30
0
0
VERTEX
8
ENGRAVE
10
170.7940
20
6.9277
30
0
0
VERTEX
8
ENGRAVE
10
171.6860
20
5.7869
30
0
0
VERTEX
8
ENGRAVE
10
172.3000
20
5.7869
30
0
0
VERTEX
8
ENGRAVE
10
171.1520
20
7.2204
30
0
0
VERTEX
8
ENGRAVE
10
172.2140
20
8.2712
30
0
0
VERTEX
8
ENGRAVE
10
171.6070
20
8.2712
30
0
0
VERTEX
8
ENGRAVE
10
170.4870
20
7.1445
30
0
0
VERTEX
8
ENGRAVE
10
170.4870
20
8.2712
30
0
0
VERTEX
8
ENGRAVE
10
169.9670
20
8.2712
30
0
0
VERTEX
8
ENGRAVE
10
169.9670
20
5.7869
30
0
0
VERTEX
8
ENGRAVE
10
170.4870
20
5.7869
30
0
0
SEQEND
8
ENGRAVE
0
POLYLINE
8
ENGRAVE
66
1
10
0
20
0
30
0
70
1
0
VERTEX
8
ENGRAVE
10
159.3210
20
6.6932
30
0
0
VERTEX
8
ENGRAVE
10
159.6280
20
6.9277
30
0
0
VERTEX
8
ENGRAVE
10
160.5200
20
5.7869
30
0
0
VERTEX
8
ENGRAVE
10
161.1330
20
5.7869
30
0
0
VERTEX
8
ENGRAVE
10
159.9860
20
7.2204
30
0
0
VERTEX
8
ENGRAVE
10
161.0470
20
8.2712
30
0
0
VERTEX
8
ENGRAVE
10
160.4400
20
8.2712
30
0
0
VERTEX
8
ENGRAVE
10
159.3210
20
7.1445
30
0
0
VERTEX
8
ENGRAVE
10
159.3210
20
8.2712
30
0
0
VERTEX
8
ENGRAVE
10
158.8010
20
8.2712
30
0
0
VERTEX
8
ENGRAVE
10
158.8010
20
5.7869
30
0
0
VERTEX
8
ENGRAVE
10
159.3210
20
5.7869
30
0
0
SEQEND
8
ENGRAVE
0
POLYLINE
8
ENGRAVE
66
1
10
0
20
0
30
0
70
1
0
VERTEX
8
ENGRAVE
10
165.3940
20
6.7302
30
0
0
VERTEX
8
ENGRAVE
10
166.0040
20
6.7302
30
0
0
VERTEX
8
ENGRAVE
10
166.5810
20
5.7869
30
0
0
VERTEX
8
ENGRAVE
10
167.1660
20
5.7869
30
0
0
VERTEX
8
ENGRAVE
10
166.4940
20
6.8307
30
0
0
VERTEX
8
ENGRAVE
10
166.5440
20
6.8440
30
0
0
VERTEX
8
ENGRAVE
10
166.5910
20
6.8599
30
0
0
VERTEX
8
ENGRAVE
10
166.6360
20
6.8783
30
0
0
VERTEX
8
ENGRAVE
10
166.6790
20
6.8994
30
0
0
VERTEX
8
ENGRAVE
10
166.7200
20
6.9231
30
0
0
VERTEX
8
ENGRAVE
10
166.7590
20
6.9493
30
0
0
VERTEX
8
ENGRAVE
10
166.7960
20
6.9781
30
0
0
VERTEX
8
ENGRAVE
10
166.8310
20
7.0095
30
0
0
VERTEX
8
ENGRAVE
10
166.8640
20
7.0436
30
0
0
VERTEX
8
ENGRAVE
10
166.8940
20
7.0802
30
0
0
VERTEX
8
ENGRAVE
10
166.9230
20
7.1188
30
0
0
VERTEX
8
ENGRAVE
10
166.9480
20
7.1588
30
0
0
VERTEX
8
ENGRAVE
10
166.9700
20
7.2003
30
0
0
VERTEX
8
ENGRAVE
10
166.9890
20
7.2432
30
0
0
VERTEX
8
ENGRAVE
10
167.0060
20
7.2876
30
0
0
VERTEX
8
ENGRAVE
10
167.0190
20
7.3333
30
0
0
VERTEX
8
ENGRAVE
10
167.0290
20
7.3805
30
0
0
VERTEX
8
ENGRAVE
10
167.0370
20
7.4291
30
0
0
VERTEX
8
ENGRAVE
10
167.0410
20
7.4792
30
0
0
VERTEX
8
ENGRAVE
10
167.0430
20
7.5307
30
0
0
VERTEX
8
ENGRAVE
10
167.0400
20
7.6006
30
0
0
VERTEX
8
ENGRAVE
10
167.0330
20
7.6672
30
0
0
VERTEX
8
ENGRAVE
10
167.0210
20
7.7304
30
0
0
VERTEX
8
ENGRAVE
10
167.0040
20
7.7903
30
0
0
VERTEX
8
ENGRAVE
10
166.9820
20
7.8469
30
0
0
VERTEX
8
ENGRAVE
10
166.9560
20
7.9002
30
0
0
VERTEX
8
ENGRAVE
10
166.9240
20
7.9501
30
0
0
VERTEX
8
ENGRAVE
10
166.8880
20
7.9967
30
0
0
VERTEX
8
ENGRAVE
10
166.8470
20
8.0399
30
0
0
VERTEX
8
ENGRAVE
10
166.8010
20
8.0799
30
0
0
VERTEX
8
ENGRAVE
10
166.7510
20
8.1162
30
0
0
VERTEX
8
ENGRAVE
10
166.6960
20
8.1487
30
0
0
VERTEX
8
ENGRAVE
10
166.6380
20
8.1774
30
0
0
VERTEX
8
ENGRAVE
10
166.5750
20
8.2023
30
0
0
VERTEX
8
ENGRAVE
10
166.5090
20
8.2234
30
0
0
VERTEX
8
ENGRAVE
10
166.4380
20
8.2406
30
0
0
VERTEX
8
ENGRAVE
10
166.3630
20
8.2540
30
0
0
VERTEX
8
ENGRAVE
10
166.2850
20
8.2635
30
0
0
VERTEX
8
ENGRAVE
10
166.2020
20
8.2693
30
0
0
VERTEX
8
ENGRAVE
10
166.1150
20
8.2712
30
0
0
VERTEX
8
ENGRAVE
10
164.8740
20
8.2712
30
0
0
VERTEX
8
ENGRAVE
10
164.8740
20
5.7869
30
0
0
VERTEX
8
ENGRAVE
10
165.3940
20
5.7869
30
0
0
SEQEND
8
ENGRAVE
0
POLYLINE
8
ENGRAVE
66
1
10
0
20
0
30
0
70
1
0
VERTEX
8
ENGRAVE
10
165.3940
20
7.1340
30
0
0
VERTEX
8
ENGRAVE
10
165.3940
20
7.8674
30
0
0
VERTEX
8
ENGRAVE
10
166.0610
20
7.8674
30
0
0
VERTEX
8
ENGRAVE
10
166.1480
20
7.8639
30
0
0
VERTEX
8
ENGRAVE
10
166.2260
20
7.8531
30
0
0
VERTEX
8
ENGRAVE
10
166.2940
20
7.8352
30
0
0
VERTEX
8
ENGRAVE
10
166.3540
20
7.8102
30
0
0
VERTEX
8
ENGRAVE
10
166.4040
20
7.7779
30
0
0
VERTEX
8
ENGRAVE
10
166.4460
20
7.7386
30
0
0
VERTEX
8
ENGRAVE
10
166.4780
20
7.6921
30
0
0
VERTEX
8
ENGRAVE
10
166.5010
20
7.6383
30
0
0
VERTEX
8
ENGRAVE
10
166.5140
20
7.5775
30
0
0
VERTEX
8
ENGRAVE
10
166.5190
20
7.5095
30
0
0
VERTEX
8
ENGRAVE
10
166.5180
20
7.4747
30
0
0
VERTEX
8
ENGRAVE
10
166.5140
20
7.4414
30
0
0
VERTEX
8
ENGRAVE
10
166.5090
20
7.4098
30
0
0
VERTEX
8
ENGRAVE
10
166.5010
20
7.3797
30
0
0
VERTEX
8
ENGRAVE
10
166.4910
20
7.3513
30
0
0
VERTEX
8
ENGRAVE
10
166.4780
20
7.3244
30
0
0
VERTEX
8
ENGRAVE
10
166.4640
20
7.2991
30
0
0
VERTEX
8
ENGRAVE
10
166.4470
20
7.2754
30
0
0
VERTEX
8
ENGRAVE
10
166.4280
20
7.2532
30
0
0
VERTEX
8
ENGRAVE
10
166.4060
20
7.2327
30
0
0
VERTEX
8
ENGRAVE
10
166.3820
20
7.2139
30
0
0
VERTEX
8
ENGRAVE
10
166.3570
20
7.1971
30
0
0
VERTEX
8
ENGRAVE
10
166.3290
20
7.1823
30
0
0
VERTEX
8
ENGRAVE
10
166.2990
20
7.1695
30
0
0
VERTEX
8
ENGRAVE
10
166.2670
20
7.1586
30
0
0
VERTEX
8
ENGRAVE
10
166.2330
20
7.1498
30
0
0
VERTEX
8
ENGRAVE
10
166.1960
20
7.1429
30
0
0
VERTEX
8
ENGRAVE
10
166.1580
20
7.1379
30
0
0
VERTEX
8
ENGRAVE
10
166.1170
20
7.1349
30
0
0
VERTEX
8
ENGRAVE
10
166.0750
20
7.1340
30
0
0
SEQEND
8
ENGRAVE
0
POLYLINE
8
ENGRAVE
66
1
10
0
20
0
30
0
70
1
0
VERTEX
8
ENGRAVE
10
163.6590
20
5.7888
30
0
0
VERTEX
8
ENGRAVE
10
163.7430
20
5.7944
30
0
0
VERTEX
8
ENGRAVE
10
163.8230
20
5.8036
30
0
0
VERTEX
8
ENGRAVE
10
163.9000
20
5.8166
30
0
0
VERTEX
8
ENGRAVE
10
163.9720
20
5.8332
30
0
0
VERTEX
8
ENGRAVE
10
164.0410
20
5.8536
30
0
0
VERTEX
8
ENGRAVE
10
164.1050
20
5.8777
30
0
0
VERTEX
8
ENGRAVE
10
164.1660
20
5.9054
30
0
0
VERTEX
8
ENGRAVE
10
164.2230
20
5.9369
30
0
0
VERTEX
8
ENGRAVE
10
164.2750
20
5.9721
30
0
0
VERTEX
8
ENGRAVE
10
164.3240
20
6.0106
30
0
0
VERTEX
8
ENGRAVE
10
164.3670
20
6.0523
30
0
0
VERTEX
8
ENGRAVE
10
164.4050
20
6.0969
30
0
0
VERTEX
8
ENGRAVE
10
164.4380
20
6.1447
30
0
0
VERTEX
8
ENGRAVE
10
164.4660
20
6.1956
30
0
0
VERTEX
8
ENGRAVE
10
164.4890
20
6.2495
30
0
0
VERTEX
8
ENGRAVE
10
164.5070
20
6.3064
30
0
0
VERTEX
8
ENGRAVE
10
164.5190
20
6.3665
30
0
0
VERTEX
8
ENGRAVE
10
164.5270
20
6.4296
30
0
0
VERTEX
8
ENGRAVE
10
164.5290
20
6.4957
30
0
0
VERTEX
8
ENGRAVE
10
164.5280
20
6.5455
30
0
0
VERTEX
8
ENGRAVE
10
164.5230
20
6.5933
30
0
0
VERTEX
8
ENGRAVE
10
164.5150
20
6.6391
30
0
0
VERTEX
8
ENGRAVE
10
164.5040
20
6.6829
30
0
0
VERTEX
8
ENGRAVE
10
164.4900
20
6.7247
30
0
0
VERTEX
8
ENGRAVE
10
164.4730
20
6.7645
30
0
0
VERTEX
8
ENGRAVE
10
164.4520
20
6.8023
30
0
0
VERTEX
8
ENGRAVE
10
164.4280
20
6.8382
30
0
0
VERTEX
8
ENGRAVE
10
164.4020
20
6.8720
30
0
0
VERTEX
8
ENGRAVE
10
164.3720
20
6.9039
30
0
0
VERTEX
8
ENGRAVE
10
164.3390
20
6.9336
30
0
0
VERTEX
8
ENGRAVE
10
164.3030
20
6.9608
30
0
0
VERTEX
8
ENGRAVE
10
164.2640
20
6.9857
30
0
0
VERTEX
8
ENGRAVE
10
164.2220
20
7.0082
30
0
0
VERTEX
8
ENGRAVE
10
164.1780
20
7.0284
30
0
0
VERTEX
8
ENGRAVE
10
164.1300
20
7.0462
30
0
0
VERTEX
8
ENGRAVE
10
164.0800
20
7.0615
30
0
0
VERTEX
8
ENGRAVE
10
164.0270
20
7.0745
30
0
0
VERTEX
8
ENGRAVE
10
163.9710
20
7.0852
30
0
0
VERTEX
8
ENGRAVE
10
163.9120
20
7.0934
30
0
0
VERTEX
8
ENGRAVE
10
163.9590
20
7.1046
30
0
0
VERTEX
8
ENGRAVE
10
164.0030
20
7.1176
30
0
0
VERTEX
8
ENGRAVE
10
164.0450
20
7.1326
30
0
0
VERTEX
8
ENGRAVE
10
164.0840
20
7.1494
30
0
0
VERTEX
8
ENGRAVE
10
164.1210
20
7.1681
30
0
0
VERTEX
8
ENGRAVE
10
164.1560
20
7.1887
30
0
0
VERTEX
8
ENGRAVE
10
164.1880
20
7.2112
30
0
0
VERTEX
8
ENGRAVE
10
164.2170
20
7.2356
30
0
0
VERTEX
8
ENGRAVE
10
164.2450
20
7.2618
30
0
0
VERTEX
8
ENGRAVE
10
164.2690
20
7.2900
30
0
0
VERTEX
8
ENGRAVE
10
164.2920
20
7.3197
30
0
0
VERTEX
8
ENGRAVE
10
164.3110
20
7.3508
30
0
0
VERTEX
8
ENGRAVE
10
164.3290
20
7.3832
30
0
0
VERTEX
8
ENGRAVE
10
164.3440
20
7.4169
30
0
0
VERTEX
8
ENGRAVE
10
164.3570
20
7.4520
30
0
0
VERTEX
8
ENGRAVE
10
164.3680
20
7.4883
30
0
0
VERTEX
8
ENGRAVE
10
164.3760
20
7.5260
30
0
0
VERTEX
8
ENGRAVE
10
164.3820
20
7.5651
30
0
0
VERTEX
8
ENGRAVE
10
164.3850
20
7.6054
30
0
0
VERTEX
8
ENGRAVE
10
164.3870
20
7.6470
30
0
0
VERTEX
8
ENGRAVE
10
164.3840
20
7.7072
30
0
0
VERTEX
8
ENGRAVE
10
164.3770
20
7.7644
30
0
0
VERTEX
8
ENGRAVE
10
164.3660
20
7.8186
30
0
0
VERTEX
8
ENGRAVE
10
164.3490
20
7.8697
30
0
0
VERTEX
8
ENGRAVE
10
164.3280
20
7.9179
30
0
0
VERTEX
8
ENGRAVE
10
164.3020
20
7.9630
30
0
0
VERTEX
8
ENGRAVE
10
164.2720
20
8.0051
30
0
0
VERTEX
8
ENGRAVE
10
164.2370
20
8.0442
30
0
0
VERTEX
8
ENGRAVE
10
164.1970
20
8.0803
30
0
0
VERTEX
8
ENGRAVE
10
164.1530
20
8.1134
30
0
0
VERTEX
8
ENGRAVE
10
164.1040
20
8.1433
30
0
0
VERTEX
8
ENGRAVE
10
164.0510
20
8.1702
30
0
0
VERTEX
8
ENGRAVE
10
163.9930
20
8.1938
30
0
0
VERTEX
8
ENGRAVE
10
163.9310
20
8.2144
30
0
0
VERTEX
8
ENGRAVE
10
163.8640
20
8.2317
30
0
0
VERTEX
8
ENGRAVE
10
163.7930
20
8.2459
30
0
0
VERTEX
8
ENGRAVE
10
163.7170
20
8.2570
30
0
0
VERTEX
8
ENGRAVE
10
163.6380
20
8.2649
30
0
0
VERTEX
8
ENGRAVE
10
163.5530
20
8.2696
30
0
0
VERTEX
8
ENGRAVE
10
163.4640
20
8.2712
30
0
0
VERTEX
8
ENGRAVE
10
162.3270
20
8.2712
30
0
0
VERTEX
8
ENGRAVE
10
162.3270
20
5.7869
30
0
0
VERTEX
8
ENGRAVE
10
163.5700
20
5.7869
30
0
0
SEQEND
8
ENGRAVE
0
POLYLINE
8
ENGRAVE
66
1
10
0
20
0
30
0
70
1
0
VERTEX
8
ENGRAVE
10
162.8470
20
7.2697
30
0
0
VERTEX
8
ENGRAVE
10
162.8470
20
7.8851
30
0
0
VERTEX
8
ENGRAVE
10
163.4400
20
7.8851
30
0
0
VERTEX
8
ENGRAVE
10
163.4810
20
7.8844
30
0
0
VERTEX
8
ENGRAVE
10
163.5200
20
7.8822
30
0
0
VERTEX
8
ENGRAVE
10
163.5560
20
7.8787
30
0
0
VERTEX
8
ENGRAVE
10
163.5910
20
7.8738
30
0
0
VERTEX
8
ENGRAVE
10
163.6240
20
7.8674
30
0
0
VERTEX
8
ENGRAVE
10
163.6540
20
7.8597
30
0
0
VERTEX
8
ENGRAVE
10
163.6830
20
7.8505
30
0
0
VERTEX
8
ENGRAVE
10
163.7090
20
7.8399
30
0
0
VERTEX
8
ENGRAVE
10
163.7340
20
7.8279
30
0
0
VERTEX
8
ENGRAVE
10
163.7560
20
7.8145
30
0
0
VERTEX
8
ENGRAVE
10
163.7760
20
7.7994
30
0
0
VERTEX
8
ENGRAVE
10
163.7950
20
7.7824
30
0
0
VERTEX
8
ENGRAVE
10
163.8110
20
7.7635
30
0
0
VERTEX
8
ENGRAVE
10
163.8240
20
7.7426
30
0
0
VERTEX
8
ENGRAVE
10
163.8360
20
7.7198
30
0
0
VERTEX
8
ENGRAVE
10
163.8460
20
7.6950
30
0
0
VERTEX
8
ENGRAVE
10
163.8530
20
7.6683
30
0
0
VERTEX
8
ENGRAVE
10
163.8590
20
7.6396
30
0
0
VERTEX
8
ENGRAVE
10
163.8620
20
7.6090
30
0
0
VERTEX
8
ENGRAVE
10
163.8630
20
7.5765
30
0
0
VERTEX
8
ENGRAVE
10
163.8620
20
7.5466
30
0
0
VERTEX
8
ENGRAVE
10
163.8590
20
7.5182
30
0
0
VERTEX
8
ENGRAVE
10
163.8540
20
7.4914
30
0
0
VERTEX
8
ENGRAVE
10
163.8470
20
7.4661
30
0
0
VERTEX
8
ENGRAVE
10
163.8380
20
7.4423
30
0
0
VERTEX
8
ENGRAVE
10
163.8270
20
7.4200
30
0
0
VERTEX
8
ENGRAVE
10
163.8140
20
7.3993
30
0
0
VERTEX
8
ENGRAVE
10
163.7990
20
7.3802
30
0
0
VERTEX
8
ENGRAVE
10
163.7820
20
7.3625
30
0
0
VERTEX
8
ENGRAVE
10
163.7630
20
7.3464
30
0
0
VERTEX
8
ENGRAVE
10
163.7420
20
7.3318
30
0
0
VERTEX
8
ENGRAVE
10
163.7190
20
7.3188
30
0
0
VERTEX
8
ENGRAVE
10
163.6930
20
7.3073
30
0
0
VERTEX
8
ENGRAVE
10
163.6640
20
7.2973
30
0
0
VERTEX
8
ENGRAVE
10
163.6330
20
7.2889
30
0
0
VERTEX
8
ENGRAVE
10
163.6000
20
7.2820
30
0
0
VERTEX
8
ENGRAVE
10
163.5650
20
7.2766
30
0
0
VERTEX
8
ENGRAVE
10
163.5270
20
7.2728
30
0
0
VERTEX
8
ENGRAVE
10
163.4860
20
7.2705
30
0
0
VERTEX
8
ENGRAVE
10
163.4430
20
7.2697
30
0
0
SEQEND
8
ENGRAVE
0
POLYLINE
8
ENGRAVE
66
1
10
0
20
0
30
0
70
1
0
VERTEX
8
ENGRAVE
10
162.8470
20
6.1731
30
0
0
VERTEX
8
ENGRAVE
10
162.8470
20
6.8854
30
0
0
VERTEX
8
ENGRAVE
10
163.5070
20
6.8854
30
0
0
VERTEX
8
ENGRAVE
10
163.6020
20
6.8819
30
0
0
VERTEX
8
ENGRAVE
10
163.6870
20
6.8714
30
0
0
VERTEX
8
ENGRAVE
10
163.7620
20
6.8539
30
0
0
VERTEX
8
ENGRAVE
10
163.8270
20
6.8295
30
0
0
VERTEX
8
ENGRAVE
10
163.8820
20
6.7981
30
0
0
VERTEX
8
ENGRAVE
10
163.9270
20
6.7597
30
0
0
VERTEX
8
ENGRAVE
10
163.9620
20
6.7143
30
0
0
VERTEX
8
ENGRAVE
10
163.9870
20
6.6619
30
0
0
VERTEX
8
ENGRAVE
10
164.0020
20
6.6026
30
0
0
VERTEX
8
ENGRAVE
10
164.0070
20
6.5363
30
0
0
VERTEX
8
ENGRAVE
10
164.0060
20
6.5008
30
0
0
VERTEX
8
ENGRAVE
10
164.0030
20
6.4672
30
0
0
VERTEX
8
ENGRAVE
10
163.9970
20
6.4355
30
0
0
VERTEX
8
ENGRAVE
10
163.9890
20
6.4055
30
0
0
VERTEX
8
ENGRAVE
10
163.9790
20
6.3774
30
0
0
VERTEX
8
ENGRAVE
10
163.9660
20
6.3510
30
0
0
VERTEX
8
ENGRAVE
10
163.9510
20
6.3265
30
0
0
VERTEX
8
ENGRAVE
10
163.9340
20
6.3038
30
0
0
VERTEX
8
ENGRAVE
10
163.9140
20
6.2829
30
0
0
VERTEX
8
ENGRAVE
10
163.8920
20
6.2639
30
0
0
VERTEX
8
ENGRAVE
10
163.8680
20
6.2466
30
0
0
VERTEX
8
ENGRAVE
10
163.8400
20
6.2312
30
0
0
VERTEX
8
ENGRAVE
10
163.8110
20
6.2176
30
0
0
VERTEX
8
ENGRAVE
10
163.7780
20
6.2058
30
0
0
VERTEX
8
ENGRAVE
10
163.7430
20
6.1958
30
0
0
VERTEX
8
ENGRAVE
10
163.7050
20
6.1876
30
0
0
VERTEX
8
ENGRAVE
10
163.6640
20
6.1812
30
0
0
VERTEX
8
ENGRAVE
10
163.6210
20
6.1767
30
0
0
VERTEX
8
ENGRAVE
10
163.5750
20
6.1740
30
0
0
VERTEX
8
ENGRAVE
10
163.5260
20
6.1731
30
0
0
SEQEND
8
ENGRAVE
0
CIRCLE
8
COUNTERSINK
10
149.0000
20
39.0000
30
0
40
3.2000
0
CIRCLE
8
COUNTERSINK
10
177.0000
20
39.0000
30
0
40
3.2000
0
CIRCLE
8
COUNTERSINK
10
177.0000
20
11.0000
30
0
40
3.2000
0
CIRCLE
8
COUNTERSINK
10
149.0000
20
11.0000
30
0
40
3.2000
0
ENDSEC
0
EOF
