0
SECTION
2
HEADER
9
$ACADVER
1
AC1009
9
$INSUNITS
70
4
0
ENDSEC
0
SECTION
2
TABLES
0
TABLE
2
LAYER
70
2
0
LAYER
2
OUTLINE
70
0
62
7
6
CONTINUOUS
0
LAYER
2
BACK_PILOTS
70
0
62
6
6
CONTINUOUS
0
ENDTAB
0
ENDSEC
0
SECTION
2
ENTITIES
0
POLYLINE
8
OUTLINE
66
1
10
0
20
0
30
0
70
1
0
VERTEX
8
OUTLINE
10
0.0000
20
112.0000
30
0
0
VERTEX
8
OUTLINE
10
295.0000
20
112.0000
30
0
0
VERTEX
8
OUTLINE
10
295.0000
20
6.0000
30
0
0
VERTEX
8
OUTLINE
10
294.9772
20
5.4771
30
0
0
VERTEX
8
OUTLINE
10
294.9088
20
4.9581
30
0
0
VERTEX
8
OUTLINE
10
294.7955
20
4.4471
30
0
0
VERTEX
8
OUTLINE
10
294.6382
20
3.9479
30
0
0
VERTEX
8
OUTLINE
10
294.4379
20
3.4643
30
0
0
VERTEX
8
OUTLINE
10
294.1962
20
3.0000
30
0
0
VERTEX
8
OUTLINE
10
293.9149
20
2.5585
30
0
0
VERTEX
8
OUTLINE
10
293.5963
20
2.1433
30
0
0
VERTEX
8
OUTLINE
10
293.2427
20
1.7573
30
0
0
VERTEX
8
OUTLINE
10
292.8567
20
1.4037
30
0
0
VERTEX
8
OUTLINE
10
292.4414
20
1.0851
30
0
0
VERTEX
8
OUTLINE
10
292.0000
20
0.8038
30
0
0
VERTEX
8
OUTLINE
10
291.5357
20
0.5621
30
0
0
VERTEX
8
OUTLINE
10
291.0521
20
0.3618
30
0
0
VERTEX
8
OUTLINE
10
290.5529
20
0.2045
30
0
0
VERTEX
8
OUTLINE
10
290.0419
20
0.0912
30
0
0
VERTEX
8
OUTLINE
10
289.5229
20
0.0228
30
0
0
VERTEX
8
OUTLINE
10
289.0000
20
0.0000
30
0
0
VERTEX
8
OUTLINE
10
0.0000
20
0.0000
30
0
0
SEQEND
8
OUTLINE
0
CIRCLE
8
BACK_PILOTS
10
275.5000
20
100.0000
30
0
40
1.3000
0
CIRCLE
8
BACK_PILOTS
10
84.5000
20
100.0000
30
0
40
1.3000
0
CIRCLE
8
BACK_PILOTS
10
10.0000
20
80.5000
30
0
40
1.3000
0
CIRCLE
8
BACK_PILOTS
10
10.0000
20
30.5000
30
0
40
1.3000
0
ENDSEC
0
EOF
