0
SECTION
2
HEADER
9
$ACADVER
1
AC1009
9
$INSUNITS
70
4
0
ENDSEC
0
SECTION
2
TABLES
0
TABLE
2
LAYER
70
2
0
LAYER
2
OUTLINE
70
0
62
7
6
CONTINUOUS
0
LAYER
2
BACK_PILOTS
70
0
62
6
6
CONTINUOUS
0
ENDTAB
0
ENDSEC
0
SECTION
2
ENTITIES
0
POLYLINE
8
OUTLINE
66
1
10
0
20
0
30
0
70
1
0
VERTEX
8
OUTLINE
10
5.4770
20
0.0228
30
0
0
VERTEX
8
OUTLINE
10
4.9580
20
0.0912
30
0
0
VERTEX
8
OUTLINE
10
4.4470
20
0.2045
30
0
0
VERTEX
8
OUTLINE
10
3.9480
20
0.3618
30
0
0
VERTEX
8
OUTLINE
10
3.4640
20
0.5621
30
0
0
VERTEX
8
OUTLINE
10
3.0000
20
0.8038
30
0
0
VERTEX
8
OUTLINE
10
2.5590
20
1.0851
30
0
0
VERTEX
8
OUTLINE
10
2.1430
20
1.4037
30
0
0
VERTEX
8
OUTLINE
10
1.7570
20
1.7573
30
0
0
VERTEX
8
OUTLINE
10
1.4040
20
2.1433
30
0
0
VERTEX
8
OUTLINE
10
1.0850
20
2.5585
30
0
0
VERTEX
8
OUTLINE
10
0.8040
20
3.0000
30
0
0
VERTEX
8
OUTLINE
10
0.5620
20
3.4643
30
0
0
VERTEX
8
OUTLINE
10
0.3620
20
3.9479
30
0
0
VERTEX
8
OUTLINE
10
0.2040
20
4.4471
30
0
0
VERTEX
8
OUTLINE
10
0.0910
20
4.9581
30
0
0
VERTEX
8
OUTLINE
10
0.0230
20
5.4771
30
0
0
VERTEX
8
OUTLINE
10
0.0000
20
6.0000
30
0
0
VERTEX
8
OUTLINE
10
0.0000
20
112.0000
30
0
0
VERTEX
8
OUTLINE
10
515.0000
20
112.0000
30
0
0
VERTEX
8
OUTLINE
10
515.0000
20
0.0000
30
0
0
VERTEX
8
OUTLINE
10
6.0000
20
0.0000
30
0
0
SEQEND
8
OUTLINE
0
CIRCLE
8
BACK_PILOTS
10
505.0000
20
81.0000
30
0
40
1.3000
0
CIRCLE
8
BACK_PILOTS
10
505.0000
20
31.0000
30
0
40
1.3000
0
ENDSEC
0
EOF
