0
SECTION
2
HEADER
9
$ACADVER
1
AC1009
9
$INSUNITS
70
4
0
ENDSEC
0
SECTION
2
TABLES
0
TABLE
2
LAYER
70
3
0
LAYER
2
CUT
70
0
62
7
6
CONTINUOUS
0
LAYER
2
DRILL
70
0
62
1
6
CONTINUOUS
0
LAYER
2
COUNTERSINK
70
0
62
3
6
CONTINUOUS
0
ENDTAB
0
ENDSEC
0
SECTION
2
ENTITIES
0
POLYLINE
8
CUT
66
1
10
0
20
0
30
0
70
1
0
VERTEX
8
CUT
10
150.0000
20
150.0000
30
0
0
VERTEX
8
CUT
10
0.0000
20
150.0000
30
0
0
VERTEX
8
CUT
10
0.0000
20
0.0000
30
0
0
VERTEX
8
CUT
10
150.0000
20
0.0000
30
0
0
SEQEND
8
CUT
0
POLYLINE
8
CUT
66
1
10
0
20
0
30
0
70
1
0
VERTEX
8
CUT
10
74.3027
20
77.0305
30
0
0
VERTEX
8
CUT
10
73.6108
20
77.1216
30
0
0
VERTEX
8
CUT
10
72.9294
20
77.2726
30
0
0
VERTEX
8
CUT
10
72.2639
20
77.4825
30
0
0
VERTEX
8
CUT
10
71.6190
20
77.7496
30
0
0
VERTEX
8
CUT
10
70.9999
20
78.0718
30
0
0
VERTEX
8
CUT
10
70.4114
20
78.4468
30
0
0
VERTEX
8
CUT
10
69.8578
20
78.8716
30
0
0
VERTEX
8
CUT
10
69.3432
20
79.3432
30
0
0
VERTEX
8
CUT
10
68.8716
20
79.8578
30
0
0
VERTEX
8
CUT
10
68.4468
20
80.4114
30
0
0
VERTEX
8
CUT
10
68.0718
20
80.9999
30
0
0
VERTEX
8
CUT
10
67.7496
20
81.6190
30
0
0
VERTEX
8
CUT
10
67.4825
20
82.2639
30
0
0
VERTEX
8
CUT
10
67.2726
20
82.9294
30
0
0
VERTEX
8
CUT
10
67.1216
20
83.6108
30
0
0
VERTEX
8
CUT
10
67.0305
20
84.3027
30
0
0
VERTEX
8
CUT
10
67.0000
20
85.0000
30
0
0
VERTEX
8
CUT
10
67.0305
20
85.6973
30
0
0
VERTEX
8
CUT
10
67.1216
20
86.3892
30
0
0
VERTEX
8
CUT
10
67.2726
20
87.0706
30
0
0
VERTEX
8
CUT
10
67.4825
20
87.7361
30
0
0
VERTEX
8
CUT
10
67.7496
20
88.3810
30
0
0
VERTEX
8
CUT
10
68.0718
20
89.0001
30
0
0
VERTEX
8
CUT
10
68.4468
20
89.5886
30
0
0
VERTEX
8
CUT
10
68.8716
20
90.1422
30
0
0
VERTEX
8
CUT
10
69.3432
20
90.6568
30
0
0
VERTEX
8
CUT
10
69.8578
20
91.1284
30
0
0
VERTEX
8
CUT
10
70.4114
20
91.5532
30
0
0
VERTEX
8
CUT
10
70.9999
20
91.9282
30
0
0
VERTEX
8
CUT
10
71.6190
20
92.2504
30
0
0
VERTEX
8
CUT
10
72.2639
20
92.5175
30
0
0
VERTEX
8
CUT
10
72.9294
20
92.7274
30
0
0
VERTEX
8
CUT
10
73.6108
20
92.8784
30
0
0
VERTEX
8
CUT
10
74.3027
20
92.9695
30
0
0
VERTEX
8
CUT
10
75.0000
20
93.0000
30
0
0
VERTEX
8
CUT
10
75.6973
20
92.9695
30
0
0
VERTEX
8
CUT
10
76.3892
20
92.8784
30
0
0
VERTEX
8
CUT
10
77.0706
20
92.7274
30
0
0
VERTEX
8
CUT
10
77.7361
20
92.5175
30
0
0
VERTEX
8
CUT
10
78.3810
20
92.2504
30
0
0
VERTEX
8
CUT
10
79.0001
20
91.9282
30
0
0
VERTEX
8
CUT
10
79.5886
20
91.5532
30
0
0
VERTEX
8
CUT
10
80.1422
20
91.1284
30
0
0
VERTEX
8
CUT
10
80.6568
20
90.6568
30
0
0
VERTEX
8
CUT
10
81.1284
20
90.1422
30
0
0
VERTEX
8
CUT
10
81.5532
20
89.5886
30
0
0
VERTEX
8
CUT
10
81.9282
20
89.0001
30
0
0
VERTEX
8
CUT
10
82.2504
20
88.3810
30
0
0
VERTEX
8
CUT
10
82.5175
20
87.7361
30
0
0
VERTEX
8
CUT
10
82.7274
20
87.0706
30
0
0
VERTEX
8
CUT
10
82.8784
20
86.3892
30
0
0
VERTEX
8
CUT
10
82.9695
20
85.6973
30
0
0
VERTEX
8
CUT
10
83.0000
20
85.0000
30
0
0
VERTEX
8
CUT
10
82.9695
20
84.3027
30
0
0
VERTEX
8
CUT
10
82.8784
20
83.6108
30
0
0
VERTEX
8
CUT
10
82.7274
20
82.9294
30
0
0
VERTEX
8
CUT
10
82.5175
20
82.2639
30
0
0
VERTEX
8
CUT
10
82.2504
20
81.6190
30
0
0
VERTEX
8
CUT
10
81.9282
20
80.9999
30
0
0
VERTEX
8
CUT
10
81.5532
20
80.4114
30
0
0
VERTEX
8
CUT
10
81.1284
20
79.8578
30
0
0
VERTEX
8
CUT
10
80.6568
20
79.3432
30
0
0
VERTEX
8
CUT
10
80.1422
20
78.8716
30
0
0
VERTEX
8
CUT
10
79.5886
20
78.4468
30
0
0
VERTEX
8
CUT
10
79.0001
20
78.0718
30
0
0
VERTEX
8
CUT
10
78.3810
20
77.7496
30
0
0
VERTEX
8
CUT
10
77.7361
20
77.4825
30
0
0
VERTEX
8
CUT
10
77.0706
20
77.2726
30
0
0
VERTEX
8
CUT
10
76.3892
20
77.1216
30
0
0
VERTEX
8
CUT
10
75.6973
20
77.0305
30
0
0
VERTEX
8
CUT
10
75.0000
20
77.0000
30
0
0
SEQEND
8
CUT
0
CIRCLE
8
DRILL
10
89.0000
20
99.0000
30
0
40
1.7000
0
CIRCLE
8
DRILL
10
61.0000
20
99.0000
30
0
40
1.7000
0
CIRCLE
8
DRILL
10
89.0000
20
71.0000
30
0
40
1.7000
0
CIRCLE
8
DRILL
10
61.0000
20
71.0000
30
0
40
1.7000
0
CIRCLE
8
COUNTERSINK
10
89.0000
20
99.0000
30
0
40
3.2000
0
CIRCLE
8
COUNTERSINK
10
61.0000
20
99.0000
30
0
40
3.2000
0
CIRCLE
8
COUNTERSINK
10
89.0000
20
71.0000
30
0
40
3.2000
0
CIRCLE
8
COUNTERSINK
10
61.0000
20
71.0000
30
0
40
3.2000
0
ENDSEC
0
EOF
