0
SECTION
2
HEADER
9
$ACADVER
1
AC1009
9
$INSUNITS
70
4
0
ENDSEC
0
SECTION
2
TABLES
0
TABLE
2
LAYER
70
4
0
LAYER
2
CUT
70
0
62
7
6
CONTINUOUS
0
LAYER
2
DRILL
70
0
62
1
6
CONTINUOUS
0
LAYER
2
ENGRAVE
70
0
62
5
6
CONTINUOUS
0
LAYER
2
COUNTERSINK
70
0
62
3
6
CONTINUOUS
0
ENDTAB
0
ENDSEC
0
SECTION
2
ENTITIES
0
POLYLINE
8
CUT
66
1
10
0
20
0
30
0
70
1
0
VERTEX
8
CUT
10
130.0000
20
170.0000
30
0
0
VERTEX
8
CUT
10
0.0000
20
170.0000
30
0
0
VERTEX
8
CUT
10
0.0000
20
0.0000
30
0
0
VERTEX
8
CUT
10
130.0000
20
0.0000
30
0
0
SEQEND
8
CUT
0
POLYLINE
8
CUT
66
1
10
0
20
0
30
0
70
1
0
VERTEX
8
CUT
10
56.0000
20
33.3474
30
0
0
VERTEX
8
CUT
10
55.6513
20
33.3626
30
0
0
VERTEX
8
CUT
10
55.3055
20
33.4082
30
0
0
VERTEX
8
CUT
10
54.9647
20
33.4837
30
0
0
VERTEX
8
CUT
10
54.6321
20
33.5886
30
0
0
VERTEX
8
CUT
10
54.3096
20
33.7221
30
0
0
VERTEX
8
CUT
10
53.9999
20
33.8833
30
0
0
VERTEX
8
CUT
10
53.7056
20
34.0709
30
0
0
VERTEX
8
CUT
10
53.4289
20
34.2832
30
0
0
VERTEX
8
CUT
10
53.1718
20
34.5188
30
0
0
VERTEX
8
CUT
10
52.9356
20
34.7765
30
0
0
VERTEX
8
CUT
10
52.7235
20
35.0530
30
0
0
VERTEX
8
CUT
10
52.5360
20
35.3472
30
0
0
VERTEX
8
CUT
10
52.3748
20
35.6569
30
0
0
VERTEX
8
CUT
10
52.2412
20
35.9794
30
0
0
VERTEX
8
CUT
10
52.1363
20
36.3121
30
0
0
VERTEX
8
CUT
10
52.0608
20
36.6529
30
0
0
VERTEX
8
CUT
10
52.0152
20
36.9988
30
0
0
VERTEX
8
CUT
10
52.0000
20
37.3474
30
0
0
VERTEX
8
CUT
10
52.0000
20
132.6530
30
0
0
VERTEX
8
CUT
10
52.0152
20
133.0010
30
0
0
VERTEX
8
CUT
10
52.0608
20
133.3470
30
0
0
VERTEX
8
CUT
10
52.1363
20
133.6880
30
0
0
VERTEX
8
CUT
10
52.2412
20
134.0210
30
0
0
VERTEX
8
CUT
10
52.3748
20
134.3430
30
0
0
VERTEX
8
CUT
10
52.5360
20
134.6530
30
0
0
VERTEX
8
CUT
10
52.7235
20
134.9470
30
0
0
VERTEX
8
CUT
10
52.9356
20
135.2240
30
0
0
VERTEX
8
CUT
10
53.1718
20
135.4810
30
0
0
VERTEX
8
CUT
10
53.4289
20
135.7170
30
0
0
VERTEX
8
CUT
10
53.7056
20
135.9290
30
0
0
VERTEX
8
CUT
10
53.9999
20
136.1170
30
0
0
VERTEX
8
CUT
10
54.3096
20
136.2780
30
0
0
VERTEX
8
CUT
10
54.6321
20
136.4110
30
0
0
VERTEX
8
CUT
10
54.9647
20
136.5160
30
0
0
VERTEX
8
CUT
10
55.3055
20
136.5920
30
0
0
VERTEX
8
CUT
10
55.6513
20
136.6370
30
0
0
VERTEX
8
CUT
10
56.0000
20
136.6530
30
0
0
VERTEX
8
CUT
10
74.0000
20
136.6530
30
0
0
VERTEX
8
CUT
10
74.3487
20
136.6370
30
0
0
VERTEX
8
CUT
10
74.6945
20
136.5920
30
0
0
VERTEX
8
CUT
10
75.0353
20
136.5160
30
0
0
VERTEX
8
CUT
10
75.3679
20
136.4110
30
0
0
VERTEX
8
CUT
10
75.6904
20
136.2780
30
0
0
VERTEX
8
CUT
10
76.0001
20
136.1170
30
0
0
VERTEX
8
CUT
10
76.2944
20
135.9290
30
0
0
VERTEX
8
CUT
10
76.5711
20
135.7170
30
0
0
VERTEX
8
CUT
10
76.8282
20
135.4810
30
0
0
VERTEX
8
CUT
10
77.0644
20
135.2240
30
0
0
VERTEX
8
CUT
10
77.2765
20
134.9470
30
0
0
VERTEX
8
CUT
10
77.4640
20
134.6530
30
0
0
VERTEX
8
CUT
10
77.6252
20
134.3430
30
0
0
VERTEX
8
CUT
10
77.7588
20
134.0210
30
0
0
VERTEX
8
CUT
10
77.8637
20
133.6880
30
0
0
VERTEX
8
CUT
10
77.9392
20
133.3470
30
0
0
VERTEX
8
CUT
10
77.9848
20
133.0010
30
0
0
VERTEX
8
CUT
10
78.0000
20
132.6530
30
0
0
VERTEX
8
CUT
10
78.0000
20
37.3474
30
0
0
VERTEX
8
CUT
10
77.9848
20
36.9988
30
0
0
VERTEX
8
CUT
10
77.9392
20
36.6529
30
0
0
VERTEX
8
CUT
10
77.8637
20
36.3121
30
0
0
VERTEX
8
CUT
10
77.7588
20
35.9794
30
0
0
VERTEX
8
CUT
10
77.6252
20
35.6569
30
0
0
VERTEX
8
CUT
10
77.4640
20
35.3472
30
0
0
VERTEX
8
CUT
10
77.2765
20
35.0530
30
0
0
VERTEX
8
CUT
10
77.0644
20
34.7765
30
0
0
VERTEX
8
CUT
10
76.8282
20
34.5188
30
0
0
VERTEX
8
CUT
10
76.5711
20
34.2832
30
0
0
VERTEX
8
CUT
10
76.2944
20
34.0709
30
0
0
VERTEX
8
CUT
10
76.0001
20
33.8833
30
0
0
VERTEX
8
CUT
10
75.6904
20
33.7221
30
0
0
VERTEX
8
CUT
10
75.3679
20
33.5886
30
0
0
VERTEX
8
CUT
10
75.0353
20
33.4837
30
0
0
VERTEX
8
CUT
10
74.6945
20
33.4082
30
0
0
VERTEX
8
CUT
10
74.3487
20
33.3626
30
0
0
VERTEX
8
CUT
10
74.0000
20
33.3474
30
0
0
SEQEND
8
CUT
0
POLYLINE
8
CUT
66
1
10
0
20
0
30
0
70
1
0
VERTEX
8
CUT
10
64.6295
20
17.7662
30
0
0
VERTEX
8
CUT
10
64.2622
20
17.8145
30
0
0
VERTEX
8
CUT
10
63.9001
20
17.8948
30
0
0
VERTEX
8
CUT
10
63.5464
20
18.0063
30
0
0
VERTEX
8
CUT
10
63.2038
20
18.1482
30
0
0
VERTEX
8
CUT
10
62.8748
20
18.3195
30
0
0
VERTEX
8
CUT
10
62.5624
20
18.5186
30
0
0
VERTEX
8
CUT
10
62.2681
20
18.7444
30
0
0
VERTEX
8
CUT
10
61.9948
20
18.9948
30
0
0
VERTEX
8
CUT
10
61.7444
20
19.2681
30
0
0
VERTEX
8
CUT
10
61.5186
20
19.5624
30
0
0
VERTEX
8
CUT
10
61.3195
20
19.8748
30
0
0
VERTEX
8
CUT
10
61.1482
20
20.2038
30
0
0
VERTEX
8
CUT
10
61.0063
20
20.5464
30
0
0
VERTEX
8
CUT
10
60.8948
20
20.9001
30
0
0
VERTEX
8
CUT
10
60.8145
20
21.2622
30
0
0
VERTEX
8
CUT
10
60.7662
20
21.6295
30
0
0
VERTEX
8
CUT
10
60.7500
20
22.0000
30
0
0
VERTEX
8
CUT
10
60.7662
20
22.3705
30
0
0
VERTEX
8
CUT
10
60.8145
20
22.7378
30
0
0
VERTEX
8
CUT
10
60.8948
20
23.0999
30
0
0
VERTEX
8
CUT
10
61.0063
20
23.4536
30
0
0
VERTEX
8
CUT
10
61.1482
20
23.7962
30
0
0
VERTEX
8
CUT
10
61.3194
20
24.1250
30
0
0
VERTEX
8
CUT
10
61.5186
20
24.4377
30
0
0
VERTEX
8
CUT
10
61.7444
20
24.7320
30
0
0
VERTEX
8
CUT
10
61.9948
20
25.0052
30
0
0
VERTEX
8
CUT
10
62.2681
20
25.2556
30
0
0
VERTEX
8
CUT
10
62.5624
20
25.4814
30
0
0
VERTEX
8
CUT
10
62.8748
20
25.6805
30
0
0
VERTEX
8
CUT
10
63.2038
20
25.8518
30
0
0
VERTEX
8
CUT
10
63.5464
20
25.9937
30
0
0
VERTEX
8
CUT
10
63.9001
20
26.1052
30
0
0
VERTEX
8
CUT
10
64.2622
20
26.1855
30
0
0
VERTEX
8
CUT
10
64.6295
20
26.2338
30
0
0
VERTEX
8
CUT
10
65.0000
20
26.2500
30
0
0
VERTEX
8
CUT
10
65.3705
20
26.2338
30
0
0
VERTEX
8
CUT
10
65.7378
20
26.1855
30
0
0
VERTEX
8
CUT
10
66.0999
20
26.1052
30
0
0
VERTEX
8
CUT
10
66.4536
20
25.9937
30
0
0
VERTEX
8
CUT
10
66.7962
20
25.8518
30
0
0
VERTEX
8
CUT
10
67.1252
20
25.6805
30
0
0
VERTEX
8
CUT
10
67.4376
20
25.4814
30
0
0
VERTEX
8
CUT
10
67.7319
20
25.2556
30
0
0
VERTEX
8
CUT
10
68.0052
20
25.0052
30
0
0
VERTEX
8
CUT
10
68.2556
20
24.7320
30
0
0
VERTEX
8
CUT
10
68.4814
20
24.4377
30
0
0
VERTEX
8
CUT
10
68.6806
20
24.1250
30
0
0
VERTEX
8
CUT
10
68.8518
20
23.7962
30
0
0
VERTEX
8
CUT
10
68.9937
20
23.4536
30
0
0
VERTEX
8
CUT
10
69.1052
20
23.0999
30
0
0
VERTEX
8
CUT
10
69.1855
20
22.7378
30
0
0
VERTEX
8
CUT
10
69.2338
20
22.3705
30
0
0
VERTEX
8
CUT
10
69.2500
20
22.0000
30
0
0
VERTEX
8
CUT
10
69.2338
20
21.6295
30
0
0
VERTEX
8
CUT
10
69.1855
20
21.2622
30
0
0
VERTEX
8
CUT
10
69.1052
20
20.9001
30
0
0
VERTEX
8
CUT
10
68.9937
20
20.5464
30
0
0
VERTEX
8
CUT
10
68.8518
20
20.2038
30
0
0
VERTEX
8
CUT
10
68.6805
20
19.8748
30
0
0
VERTEX
8
CUT
10
68.4814
20
19.5624
30
0
0
VERTEX
8
CUT
10
68.2556
20
19.2681
30
0
0
VERTEX
8
CUT
10
68.0052
20
18.9948
30
0
0
VERTEX
8
CUT
10
67.7319
20
18.7444
30
0
0
VERTEX
8
CUT
10
67.4376
20
18.5186
30
0
0
VERTEX
8
CUT
10
67.1252
20
18.3195
30
0
0
VERTEX
8
CUT
10
66.7962
20
18.1482
30
0
0
VERTEX
8
CUT
10
66.4536
20
18.0063
30
0
0
VERTEX
8
CUT
10
66.0999
20
17.8948
30
0
0
VERTEX
8
CUT
10
65.7378
20
17.8145
30
0
0
VERTEX
8
CUT
10
65.3705
20
17.7662
30
0
0
VERTEX
8
CUT
10
65.0000
20
17.7500
30
0
0
SEQEND
8
CUT
0
CIRCLE
8
DRILL
10
38.0000
20
140.0000
30
0
40
1.7000
0
CIRCLE
8
DRILL
10
92.0000
20
140.0000
30
0
40
1.7000
0
CIRCLE
8
DRILL
10
38.0000
20
30.0000
30
0
40
1.7000
0
CIRCLE
8
DRILL
10
92.0000
20
30.0000
30
0
40
1.7000
0
POLYLINE
8
ENGRAVE
66
1
10
0
20
0
30
0
70
1
0
VERTEX
8
ENGRAVE
10
73.9738
20
8.5605
30
0
0
VERTEX
8
ENGRAVE
10
74.0584
20
8.5659
30
0
0
VERTEX
8
ENGRAVE
10
74.1408
20
8.5749
30
0
0
VERTEX
8
ENGRAVE
10
74.2210
20
8.5875
30
0
0
VERTEX
8
ENGRAVE
10
74.2990
20
8.6037
30
0
0
VERTEX
8
ENGRAVE
10
74.3748
20
8.6235
30
0
0
VERTEX
8
ENGRAVE
10
74.4484
20
8.6469
30
0
0
VERTEX
8
ENGRAVE
10
74.5198
20
8.6739
30
0
0
VERTEX
8
ENGRAVE
10
74.5890
20
8.7045
30
0
0
VERTEX
8
ENGRAVE
10
74.6560
20
8.7387
30
0
0
VERTEX
8
ENGRAVE
10
74.7204
20
8.7763
30
0
0
VERTEX
8
ENGRAVE
10
74.7817
20
8.8171
30
0
0
VERTEX
8
ENGRAVE
10
74.8400
20
8.8612
30
0
0
VERTEX
8
ENGRAVE
10
74.8952
20
8.9083
30
0
0
VERTEX
8
ENGRAVE
10
74.9474
20
8.9587
30
0
0
VERTEX
8
ENGRAVE
10
74.9966
20
9.0123
30
0
0
VERTEX
8
ENGRAVE
10
75.0426
20
9.0691
30
0
0
VERTEX
8
ENGRAVE
10
75.0857
20
9.1290
30
0
0
VERTEX
8
ENGRAVE
10
75.1256
20
9.1922
30
0
0
VERTEX
8
ENGRAVE
10
75.1626
20
9.2585
30
0
0
VERTEX
8
ENGRAVE
10
75.1962
20
9.3276
30
0
0
VERTEX
8
ENGRAVE
10
75.2263
20
9.3987
30
0
0
VERTEX
8
ENGRAVE
10
75.2528
20
9.4721
30
0
0
VERTEX
8
ENGRAVE
10
75.2758
20
9.5476
30
0
0
VERTEX
8
ENGRAVE
10
75.2953
20
9.6252
30
0
0
VERTEX
8
ENGRAVE
10
75.3112
20
9.7050
30
0
0
VERTEX
8
ENGRAVE
10
75.3236
20
9.7870
30
0
0
VERTEX
8
ENGRAVE
10
75.3325
20
9.8711
30
0
0
VERTEX
8
ENGRAVE
10
75.3378
20
9.9574
30
0
0
VERTEX
8
ENGRAVE
10
75.3396
20
10.0458
30
0
0
VERTEX
8
ENGRAVE
10
75.3357
20
10.1792
30
0
0
VERTEX
8
ENGRAVE
10
75.3242
20
10.3068
30
0
0
VERTEX
8
ENGRAVE
10
75.3050
20
10.4285
30
0
0
VERTEX
8
ENGRAVE
10
75.2782
20
10.5445
30
0
0
VERTEX
8
ENGRAVE
10
75.2437
20
10.6546
30
0
0
VERTEX
8
ENGRAVE
10
75.2015
20
10.7589
30
0
0
VERTEX
8
ENGRAVE
10
75.1516
20
10.8574
30
0
0
VERTEX
8
ENGRAVE
10
75.0941
20
10.9501
30
0
0
VERTEX
8
ENGRAVE
10
75.0289
20
11.0369
30
0
0
VERTEX
8
ENGRAVE
10
74.9561
20
11.1179
30
0
0
VERTEX
8
ENGRAVE
10
74.8764
20
11.1921
30
0
0
VERTEX
8
ENGRAVE
10
74.7908
20
11.2585
30
0
0
VERTEX
8
ENGRAVE
10
74.6992
20
11.3171
30
0
0
VERTEX
8
ENGRAVE
10
74.6016
20
11.3679
30
0
0
VERTEX
8
ENGRAVE
10
74.4981
20
11.4109
30
0
0
VERTEX
8
ENGRAVE
10
74.3886
20
11.4460
30
0
0
VERTEX
8
ENGRAVE
10
74.2732
20
11.4734
30
0
0
VERTEX
8
ENGRAVE
10
74.1518
20
11.4929
30
0
0
VERTEX
8
ENGRAVE
10
74.0244
20
11.5046
30
0
0
VERTEX
8
ENGRAVE
10
73.8911
20
11.5085
30
0
0
VERTEX
8
ENGRAVE
10
73.7578
20
11.5047
30
0
0
VERTEX
8
ENGRAVE
10
73.6304
20
11.4931
30
0
0
VERTEX
8
ENGRAVE
10
73.5091
20
11.4737
30
0
0
VERTEX
8
ENGRAVE
10
73.3937
20
11.4467
30
0
0
VERTEX
8
ENGRAVE
10
73.2843
20
11.4119
30
0
0
VERTEX
8
ENGRAVE
10
73.1809
20
11.3694
30
0
0
VERTEX
8
ENGRAVE
10
73.0835
20
11.3191
30
0
0
VERTEX
8
ENGRAVE
10
72.9921
20
11.2611
30
0
0
VERTEX
8
ENGRAVE
10
72.9066
20
11.1954
30
0
0
VERTEX
8
ENGRAVE
10
72.8271
20
11.1220
30
0
0
VERTEX
8
ENGRAVE
10
72.7544
20
11.0416
30
0
0
VERTEX
8
ENGRAVE
10
72.6894
20
10.9552
30
0
0
VERTEX
8
ENGRAVE
10
72.6320
20
10.8628
30
0
0
VERTEX
8
ENGRAVE
10
72.5823
20
10.7643
30
0
0
VERTEX
8
ENGRAVE
10
72.5403
20
10.6597
30
0
0
VERTEX
8
ENGRAVE
10
72.5058
20
10.5490
30
0
0
VERTEX
8
ENGRAVE
10
72.4791
20
10.4323
30
0
0
VERTEX
8
ENGRAVE
10
72.4599
20
10.3096
30
0
0
VERTEX
8
ENGRAVE
10
72.4485
20
10.1807
30
0
0
VERTEX
8
ENGRAVE
10
72.4446
20
10.0458
30
0
0
VERTEX
8
ENGRAVE
10
72.4485
20
9.9104
30
0
0
VERTEX
8
ENGRAVE
10
72.4600
20
9.7809
30
0
0
VERTEX
8
ENGRAVE
10
72.4792
20
9.6573
30
0
0
VERTEX
8
ENGRAVE
10
72.5060
20
9.5395
30
0
0
VERTEX
8
ENGRAVE
10
72.5405
20
9.4276
30
0
0
VERTEX
8
ENGRAVE
10
72.5827
20
9.3216
30
0
0
VERTEX
8
ENGRAVE
10
72.6326
20
9.2215
30
0
0
VERTEX
8
ENGRAVE
10
72.6901
20
9.1273
30
0
0
VERTEX
8
ENGRAVE
10
72.7553
20
9.0389
30
0
0
VERTEX
8
ENGRAVE
10
72.8281
20
8.9564
30
0
0
VERTEX
8
ENGRAVE
10
72.9077
20
8.8808
30
0
0
VERTEX
8
ENGRAVE
10
72.9932
20
8.8132
30
0
0
VERTEX
8
ENGRAVE
10
73.0845
20
8.7536
30
0
0
VERTEX
8
ENGRAVE
10
73.1816
20
8.7019
30
0
0
VERTEX
8
ENGRAVE
10
73.2846
20
8.6581
30
0
0
VERTEX
8
ENGRAVE
10
73.3934
20
8.6223
30
0
0
VERTEX
8
ENGRAVE
10
73.5080
20
8.5945
30
0
0
VERTEX
8
ENGRAVE
10
73.6285
20
8.5746
30
0
0
VERTEX
8
ENGRAVE
10
73.7549
20
8.5627
30
0
0
VERTEX
8
ENGRAVE
10
73.8870
20
8.5587
30
0
0
SEQEND
8
ENGRAVE
0
POLYLINE
8
ENGRAVE
66
1
10
0
20
0
30
0
70
1
0
VERTEX
8
ENGRAVE
10
73.8109
20
9.0334
30
0
0
VERTEX
8
ENGRAVE
10
73.7381
20
9.0415
30
0
0
VERTEX
8
ENGRAVE
10
73.6686
20
9.0551
30
0
0
VERTEX
8
ENGRAVE
10
73.6024
20
9.0741
30
0
0
VERTEX
8
ENGRAVE
10
73.5394
20
9.0986
30
0
0
VERTEX
8
ENGRAVE
10
73.4797
20
9.1284
30
0
0
VERTEX
8
ENGRAVE
10
73.4233
20
9.1637
30
0
0
VERTEX
8
ENGRAVE
10
73.3701
20
9.2045
30
0
0
VERTEX
8
ENGRAVE
10
73.3203
20
9.2507
30
0
0
VERTEX
8
ENGRAVE
10
73.2737
20
9.3023
30
0
0
VERTEX
8
ENGRAVE
10
73.2310
20
9.3586
30
0
0
VERTEX
8
ENGRAVE
10
73.1927
20
9.4189
30
0
0
VERTEX
8
ENGRAVE
10
73.1590
20
9.4832
30
0
0
VERTEX
8
ENGRAVE
10
73.1298
20
9.5516
30
0
0
VERTEX
8
ENGRAVE
10
73.1051
20
9.6240
30
0
0
VERTEX
8
ENGRAVE
10
73.0848
20
9.7003
30
0
0
VERTEX
8
ENGRAVE
10
73.0691
20
9.7807
30
0
0
VERTEX
8
ENGRAVE
10
73.0579
20
9.8651
30
0
0
VERTEX
8
ENGRAVE
10
73.0511
20
9.9535
30
0
0
VERTEX
8
ENGRAVE
10
73.0489
20
10.0458
30
0
0
VERTEX
8
ENGRAVE
10
73.0511
20
10.1373
30
0
0
VERTEX
8
ENGRAVE
10
73.0577
20
10.2247
30
0
0
VERTEX
8
ENGRAVE
10
73.0686
20
10.3080
30
0
0
VERTEX
8
ENGRAVE
10
73.0840
20
10.3871
30
0
0
VERTEX
8
ENGRAVE
10
73.1038
20
10.4621
30
0
0
VERTEX
8
ENGRAVE
10
73.1280
20
10.5330
30
0
0
VERTEX
8
ENGRAVE
10
73.1565
20
10.5997
30
0
0
VERTEX
8
ENGRAVE
10
73.1895
20
10.6623
30
0
0
VERTEX
8
ENGRAVE
10
73.2268
20
10.7208
30
0
0
VERTEX
8
ENGRAVE
10
73.2686
20
10.7751
30
0
0
VERTEX
8
ENGRAVE
10
73.3143
20
10.8248
30
0
0
VERTEX
8
ENGRAVE
10
73.3638
20
10.8692
30
0
0
VERTEX
8
ENGRAVE
10
73.4169
20
10.9084
30
0
0
VERTEX
8
ENGRAVE
10
73.4736
20
10.9424
30
0
0
VERTEX
8
ENGRAVE
10
73.5341
20
10.9712
30
0
0
VERTEX
8
ENGRAVE
10
73.5981
20
10.9947
30
0
0
VERTEX
8
ENGRAVE
10
73.6659
20
11.0130
30
0
0
VERTEX
8
ENGRAVE
10
73.7373
20
11.0261
30
0
0
VERTEX
8
ENGRAVE
10
73.8124
20
11.0339
30
0
0
VERTEX
8
ENGRAVE
10
73.8911
20
11.0365
30
0
0
VERTEX
8
ENGRAVE
10
73.9687
20
11.0339
30
0
0
VERTEX
8
ENGRAVE
10
74.0427
20
11.0260
30
0
0
VERTEX
8
ENGRAVE
10
74.1132
20
11.0128
30
0
0
VERTEX
8
ENGRAVE
10
74.1801
20
10.9944
30
0
0
VERTEX
8
ENGRAVE
10
74.2435
20
10.9707
30
0
0
VERTEX
8
ENGRAVE
10
74.3034
20
10.9417
30
0
0
VERTEX
8
ENGRAVE
10
74.3597
20
10.9074
30
0
0
VERTEX
8
ENGRAVE
10
74.4125
20
10.8679
30
0
0
VERTEX
8
ENGRAVE
10
74.4618
20
10.8231
30
0
0
VERTEX
8
ENGRAVE
10
74.5075
20
10.7731
30
0
0
VERTEX
8
ENGRAVE
10
74.5493
20
10.7184
30
0
0
VERTEX
8
ENGRAVE
10
74.5866
20
10.6597
30
0
0
VERTEX
8
ENGRAVE
10
74.6196
20
10.5970
30
0
0
VERTEX
8
ENGRAVE
10
74.6481
20
10.5303
30
0
0
VERTEX
8
ENGRAVE
10
74.6723
20
10.4595
30
0
0
VERTEX
8
ENGRAVE
10
74.6921
20
10.3848
30
0
0
VERTEX
8
ENGRAVE
10
74.7074
20
10.3061
30
0
0
VERTEX
8
ENGRAVE
10
74.7184
20
10.2233
30
0
0
VERTEX
8
ENGRAVE
10
74.7250
20
10.1366
30
0
0
VERTEX
8
ENGRAVE
10
74.7272
20
10.0458
30
0
0
VERTEX
8
ENGRAVE
10
74.7250
20
9.9508
30
0
0
VERTEX
8
ENGRAVE
10
74.7185
20
9.8602
30
0
0
VERTEX
8
ENGRAVE
10
74.7075
20
9.7741
30
0
0
VERTEX
8
ENGRAVE
10
74.6922
20
9.6923
30
0
0
VERTEX
8
ENGRAVE
10
74.6725
20
9.6151
30
0
0
VERTEX
8
ENGRAVE
10
74.6485
20
9.5422
30
0
0
VERTEX
8
ENGRAVE
10
74.6201
20
9.4738
30
0
0
VERTEX
8
ENGRAVE
10
74.5872
20
9.4098
30
0
0
VERTEX
8
ENGRAVE
10
74.5501
20
9.3503
30
0
0
VERTEX
8
ENGRAVE
10
74.5085
20
9.2951
30
0
0
VERTEX
8
ENGRAVE
10
74.4629
20
9.2449
30
0
0
VERTEX
8
ENGRAVE
10
74.4137
20
9.1999
30
0
0
VERTEX
8
ENGRAVE
10
74.3607
20
9.1603
30
0
0
VERTEX
8
ENGRAVE
10
74.3041
20
9.1259
30
0
0
VERTEX
8
ENGRAVE
10
74.2438
20
9.0968
30
0
0
VERTEX
8
ENGRAVE
10
74.1798
20
9.0730
30
0
0
VERTEX
8
ENGRAVE
10
74.1121
20
9.0545
30
0
0
VERTEX
8
ENGRAVE
10
74.0408
20
9.0412
30
0
0
VERTEX
8
ENGRAVE
10
73.9657
20
9.0333
30
0
0
VERTEX
8
ENGRAVE
10
73.8870
20
9.0307
30
0
0
SEQEND
8
ENGRAVE
0
POLYLINE
8
ENGRAVE
66
1
10
0
20
0
30
0
70
1
0
VERTEX
8
ENGRAVE
10
62.7761
20
8.5609
30
0
0
VERTEX
8
ENGRAVE
10
62.8882
20
8.5676
30
0
0
VERTEX
8
ENGRAVE
10
62.9944
20
8.5787
30
0
0
VERTEX
8
ENGRAVE
10
63.0948
20
8.5944
30
0
0
VERTEX
8
ENGRAVE
10
63.1894
20
8.6144
30
0
0
VERTEX
8
ENGRAVE
10
63.2781
20
8.6389
30
0
0
VERTEX
8
ENGRAVE
10
63.3610
20
8.6678
30
0
0
VERTEX
8
ENGRAVE
10
63.4381
20
8.7013
30
0
0
VERTEX
8
ENGRAVE
10
63.5093
20
8.7391
30
0
0
VERTEX
8
ENGRAVE
10
63.5747
20
8.7814
30
0
0
VERTEX
8
ENGRAVE
10
63.6340
20
8.8280
30
0
0
VERTEX
8
ENGRAVE
10
63.6871
20
8.8785
30
0
0
VERTEX
8
ENGRAVE
10
63.7339
20
8.9330
30
0
0
VERTEX
8
ENGRAVE
10
63.7745
20
8.9914
30
0
0
VERTEX
8
ENGRAVE
10
63.8089
20
9.0538
30
0
0
VERTEX
8
ENGRAVE
10
63.8370
20
9.1202
30
0
0
VERTEX
8
ENGRAVE
10
63.8589
20
9.1905
30
0
0
VERTEX
8
ENGRAVE
10
63.8745
20
9.2648
30
0
0
VERTEX
8
ENGRAVE
10
63.8838
20
9.3431
30
0
0
VERTEX
8
ENGRAVE
10
63.8870
20
9.4253
30
0
0
VERTEX
8
ENGRAVE
10
63.8864
20
9.4607
30
0
0
VERTEX
8
ENGRAVE
10
63.8848
20
9.4953
30
0
0
VERTEX
8
ENGRAVE
10
63.8820
20
9.5290
30
0
0
VERTEX
8
ENGRAVE
10
63.8782
20
9.5619
30
0
0
VERTEX
8
ENGRAVE
10
63.8732
20
9.5939
30
0
0
VERTEX
8
ENGRAVE
10
63.8672
20
9.6251
30
0
0
VERTEX
8
ENGRAVE
10
63.8600
20
9.6555
30
0
0
VERTEX
8
ENGRAVE
10
63.8518
20
9.6851
30
0
0
VERTEX
8
ENGRAVE
10
63.8425
20
9.7138
30
0
0
VERTEX
8
ENGRAVE
10
63.8320
20
9.7417
30
0
0
VERTEX
8
ENGRAVE
10
63.8206
20
9.7687
30
0
0
VERTEX
8
ENGRAVE
10
63.8081
20
9.7951
30
0
0
VERTEX
8
ENGRAVE
10
63.7947
20
9.8206
30
0
0
VERTEX
8
ENGRAVE
10
63.7803
20
9.8453
30
0
0
VERTEX
8
ENGRAVE
10
63.7649
20
9.8693
30
0
0
VERTEX
8
ENGRAVE
10
63.7485
20
9.8925
30
0
0
VERTEX
8
ENGRAVE
10
63.7312
20
9.9150
30
0
0
VERTEX
8
ENGRAVE
10
63.7129
20
9.9367
30
0
0
VERTEX
8
ENGRAVE
10
63.6936
20
9.9575
30
0
0
VERTEX
8
ENGRAVE
10
63.6733
20
9.9777
30
0
0
VERTEX
8
ENGRAVE
10
63.6518
20
9.9972
30
0
0
VERTEX
8
ENGRAVE
10
63.6289
20
10.0161
30
0
0
VERTEX
8
ENGRAVE
10
63.6044
20
10.0347
30
0
0
VERTEX
8
ENGRAVE
10
63.5784
20
10.0527
30
0
0
VERTEX
8
ENGRAVE
10
63.5510
20
10.0702
30
0
0
VERTEX
8
ENGRAVE
10
63.5221
20
10.0873
30
0
0
VERTEX
8
ENGRAVE
10
63.4917
20
10.1038
30
0
0
VERTEX
8
ENGRAVE
10
63.4598
20
10.1199
30
0
0
VERTEX
8
ENGRAVE
10
63.4264
20
10.1355
30
0
0
VERTEX
8
ENGRAVE
10
63.3916
20
10.1506
30
0
0
VERTEX
8
ENGRAVE
10
63.3536
20
10.1656
30
0
0
VERTEX
8
ENGRAVE
10
63.3110
20
10.1808
30
0
0
VERTEX
8
ENGRAVE
10
63.2636
20
10.1963
30
0
0
VERTEX
8
ENGRAVE
10
63.2116
20
10.2121
30
0
0
VERTEX
8
ENGRAVE
10
63.1548
20
10.2281
30
0
0
VERTEX
8
ENGRAVE
10
63.0934
20
10.2444
30
0
0
VERTEX
8
ENGRAVE
10
63.0272
20
10.2610
30
0
0
VERTEX
8
ENGRAVE
10
62.9564
20
10.2778
30
0
0
VERTEX
8
ENGRAVE
10
62.8808
20
10.2949
30
0
0
VERTEX
8
ENGRAVE
10
62.8006
20
10.3123
30
0
0
VERTEX
8
ENGRAVE
10
62.7334
20
10.3271
30
0
0
VERTEX
8
ENGRAVE
10
62.6708
20
10.3414
30
0
0
VERTEX
8
ENGRAVE
10
62.6129
20
10.3552
30
0
0
VERTEX
8
ENGRAVE
10
62.5597
20
10.3685
30
0
0
VERTEX
8
ENGRAVE
10
62.5112
20
10.3812
30
0
0
VERTEX
8
ENGRAVE
10
62.4674
20
10.3935
30
0
0
VERTEX
8
ENGRAVE
10
62.4282
20
10.4052
30
0
0
VERTEX
8
ENGRAVE
10
62.3937
20
10.4165
30
0
0
VERTEX
8
ENGRAVE
10
62.3639
20
10.4272
30
0
0
VERTEX
8
ENGRAVE
10
62.3388
20
10.4374
30
0
0
VERTEX
8
ENGRAVE
10
62.3166
20
10.4476
30
0
0
VERTEX
8
ENGRAVE
10
62.2955
20
10.4582
30
0
0
VERTEX
8
ENGRAVE
10
62.2755
20
10.4692
30
0
0
VERTEX
8
ENGRAVE
10
62.2566
20
10.4807
30
0
0
VERTEX
8
ENGRAVE
10
62.2388
20
10.4926
30
0
0
VERTEX
8
ENGRAVE
10
62.2222
20
10.5049
30
0
0
VERTEX
8
ENGRAVE
10
62.2067
20
10.5177
30
0
0
VERTEX
8
ENGRAVE
10
62.1923
20
10.5308
30
0
0
VERTEX
8
ENGRAVE
10
62.1790
20
10.5444
30
0
0
VERTEX
8
ENGRAVE
10
62.1669
20
10.5585
30
0
0
VERTEX
8
ENGRAVE
10
62.1559
20
10.5731
30
0
0
VERTEX
8
ENGRAVE
10
62.1460
20
10.5886
30
0
0
VERTEX
8
ENGRAVE
10
62.1373
20
10.6048
30
0
0
VERTEX
8
ENGRAVE
10
62.1298
20
10.6219
30
0
0
VERTEX
8
ENGRAVE
10
62.1234
20
10.6398
30
0
0
VERTEX
8
ENGRAVE
10
62.1182
20
10.6586
30
0
0
VERTEX
8
ENGRAVE
10
62.1141
20
10.6781
30
0
0
VERTEX
8
ENGRAVE
10
62.1112
20
10.6984
30
0
0
VERTEX
8
ENGRAVE
10
62.1095
20
10.7196
30
0
0
VERTEX
8
ENGRAVE
10
62.1089
20
10.7416
30
0
0
VERTEX
8
ENGRAVE
10
62.1144
20
10.8065
30
0
0
VERTEX
8
ENGRAVE
10
62.1307
20
10.8646
30
0
0
VERTEX
8
ENGRAVE
10
62.1580
20
10.9159
30
0
0
VERTEX
8
ENGRAVE
10
62.1962
20
10.9603
30
0
0
VERTEX
8
ENGRAVE
10
62.2452
20
10.9979
30
0
0
VERTEX
8
ENGRAVE
10
62.3052
20
11.0287
30
0
0
VERTEX
8
ENGRAVE
10
62.3761
20
11.0526
30
0
0
VERTEX
8
ENGRAVE
10
62.4579
20
11.0697
30
0
0
VERTEX
8
ENGRAVE
10
62.5506
20
11.0799
30
0
0
VERTEX
8
ENGRAVE
10
62.6541
20
11.0833
30
0
0
VERTEX
8
ENGRAVE
10
62.7042
20
11.0824
30
0
0
VERTEX
8
ENGRAVE
10
62.7519
20
11.0796
30
0
0
VERTEX
8
ENGRAVE
10
62.7972
20
11.0749
30
0
0
VERTEX
8
ENGRAVE
10
62.8401
20
11.0684
30
0
0
VERTEX
8
ENGRAVE
10
62.8807
20
11.0599
30
0
0
VERTEX
8
ENGRAVE
10
62.9189
20
11.0496
30
0
0
VERTEX
8
ENGRAVE
10
62.9547
20
11.0375
30
0
0
VERTEX
8
ENGRAVE
10
62.9881
20
11.0234
30
0
0
VERTEX
8
ENGRAVE
10
63.0191
20
11.0075
30
0
0
VERTEX
8
ENGRAVE
10
63.0478
20
10.9897
30
0
0
VERTEX
8
ENGRAVE
10
63.0743
20
10.9701
30
0
0
VERTEX
8
ENGRAVE
10
63.0990
20
10.9487
30
0
0
VERTEX
8
ENGRAVE
10
63.1218
20
10.9254
30
0
0
VERTEX
8
ENGRAVE
10
63.1428
20
10.9002
30
0
0
VERTEX
8
ENGRAVE
10
63.1620
20
10.8733
30
0
0
VERTEX
8
ENGRAVE
10
63.1792
20
10.8445
30
0
0
VERTEX
8
ENGRAVE
10
63.1947
20
10.8139
30
0
0
VERTEX
8
ENGRAVE
10
63.2082
20
10.7814
30
0
0
VERTEX
8
ENGRAVE
10
63.2200
20
10.7471
30
0
0
VERTEX
8
ENGRAVE
10
63.2298
20
10.7110
30
0
0
VERTEX
8
ENGRAVE
10
63.8117
20
10.7904
30
0
0
VERTEX
8
ENGRAVE
10
63.7943
20
10.8651
30
0
0
VERTEX
8
ENGRAVE
10
63.7732
20
10.9355
30
0
0
VERTEX
8
ENGRAVE
10
63.7482
20
11.0015
30
0
0
VERTEX
8
ENGRAVE
10
63.7194
20
11.0632
30
0
0
VERTEX
8
ENGRAVE
10
63.6868
20
11.1205
30
0
0
VERTEX
8
ENGRAVE
10
63.6504
20
11.1734
30
0
0
VERTEX
8
ENGRAVE
10
63.6102
20
11.2220
30
0
0
VERTEX
8
ENGRAVE
10
63.5663
20
11.2663
30
0
0
VERTEX
8
ENGRAVE
10
63.5184
20
11.3062
30
0
0
VERTEX
8
ENGRAVE
10
63.4668
20
11.3417
30
0
0
VERTEX
8
ENGRAVE
10
63.4107
20
11.3734
30
0
0
VERTEX
8
ENGRAVE
10
63.3492
20
11.4017
30
0
0
VERTEX
8
ENGRAVE
10
63.2824
20
11.4268
30
0
0
VERTEX
8
ENGRAVE
10
63.2104
20
11.4485
30
0
0
VERTEX
8
ENGRAVE
10
63.1329
20
11.4668
30
0
0
VERTEX
8
ENGRAVE
10
63.0502
20
11.4818
30
0
0
VERTEX
8
ENGRAVE
10
62.9622
20
11.4935
30
0
0
VERTEX
8
ENGRAVE
10
62.8689
20
11.5019
30
0
0
VERTEX
8
ENGRAVE
10
62.7703
20
11.5069
30
0
0
VERTEX
8
ENGRAVE
10
62.6663
20
11.5085
30
0
0
VERTEX
8
ENGRAVE
10
62.5575
20
11.5065
30
0
0
VERTEX
8
ENGRAVE
10
62.4540
20
11.5003
30
0
0
VERTEX
8
ENGRAVE
10
62.3558
20
11.4899
30
0
0
VERTEX
8
ENGRAVE
10
62.2629
20
11.4755
30
0
0
VERTEX
8
ENGRAVE
10
62.1753
20
11.4569
30
0
0
VERTEX
8
ENGRAVE
10
62.0930
20
11.4342
30
0
0
VERTEX
8
ENGRAVE
10
62.0160
20
11.4073
30
0
0
VERTEX
8
ENGRAVE
10
61.9444
20
11.3764
30
0
0
VERTEX
8
ENGRAVE
10
61.8780
20
11.3413
30
0
0
VERTEX
8
ENGRAVE
10
61.8170
20
11.3020
30
0
0
VERTEX
8
ENGRAVE
10
61.7615
20
11.2589
30
0
0
VERTEX
8
ENGRAVE
10
61.7119
20
11.2122
30
0
0
VERTEX
8
ENGRAVE
10
61.6681
20
11.1618
30
0
0
VERTEX
8
ENGRAVE
10
61.6302
20
11.1077
30
0
0
VERTEX
8
ENGRAVE
10
61.5980
20
11.0500
30
0
0
VERTEX
8
ENGRAVE
10
61.5718
20
10.9887
30
0
0
VERTEX
8
ENGRAVE
10
61.5513
20
10.9237
30
0
0
VERTEX
8
ENGRAVE
10
61.5367
20
10.8551
30
0
0
VERTEX
8
ENGRAVE
10
61.5280
20
10.7829
30
0
0
VERTEX
8
ENGRAVE
10
61.5251
20
10.7070
30
0
0
VERTEX
8
ENGRAVE
10
61.5255
20
10.6768
30
0
0
VERTEX
8
ENGRAVE
10
61.5266
20
10.6473
30
0
0
VERTEX
8
ENGRAVE
10
61.5286
20
10.6185
30
0
0
VERTEX
8
ENGRAVE
10
61.5314
20
10.5905
30
0
0
VERTEX
8
ENGRAVE
10
61.5350
20
10.5630
30
0
0
VERTEX
8
ENGRAVE
10
61.5393
20
10.5363
30
0
0
VERTEX
8
ENGRAVE
10
61.5445
20
10.5103
30
0
0
VERTEX
8
ENGRAVE
10
61.5504
20
10.4850
30
0
0
VERTEX
8
ENGRAVE
10
61.5572
20
10.4604
30
0
0
VERTEX
8
ENGRAVE
10
61.5647
20
10.4364
30
0
0
VERTEX
8
ENGRAVE
10
61.5730
20
10.4131
30
0
0
VERTEX
8
ENGRAVE
10
61.5818
20
10.3904
30
0
0
VERTEX
8
ENGRAVE
10
61.5914
20
10.3684
30
0
0
VERTEX
8
ENGRAVE
10
61.6015
20
10.3469
30
0
0
VERTEX
8
ENGRAVE
10
61.6123
20
10.3260
30
0
0
VERTEX
8
ENGRAVE
10
61.6237
20
10.3058
30
0
0
VERTEX
8
ENGRAVE
10
61.6357
20
10.2862
30
0
0
VERTEX
8
ENGRAVE
10
61.6484
20
10.2672
30
0
0
VERTEX
8
ENGRAVE
10
61.6617
20
10.2487
30
0
0
VERTEX
8
ENGRAVE
10
61.6756
20
10.2309
30
0
0
VERTEX
8
ENGRAVE
10
61.6901
20
10.2137
30
0
0
VERTEX
8
ENGRAVE
10
61.7053
20
10.1970
30
0
0
VERTEX
8
ENGRAVE
10
61.7210
20
10.1807
30
0
0
VERTEX
8
ENGRAVE
10
61.7374
20
10.1650
30
0
0
VERTEX
8
ENGRAVE
10
61.7544
20
10.1498
30
0
0
VERTEX
8
ENGRAVE
10
61.7720
20
10.1351
30
0
0
VERTEX
8
ENGRAVE
10
61.7902
20
10.1209
30
0
0
VERTEX
8
ENGRAVE
10
61.8090
20
10.1072
30
0
0
VERTEX
8
ENGRAVE
10
61.8285
20
10.0941
30
0
0
VERTEX
8
ENGRAVE
10
61.8485
20
10.0814
30
0
0
VERTEX
8
ENGRAVE
10
61.8691
20
10.0692
30
0
0
VERTEX
8
ENGRAVE
10
61.8902
20
10.0572
30
0
0
VERTEX
8
ENGRAVE
10
61.9117
20
10.0456
30
0
0
VERTEX
8
ENGRAVE
10
61.9338
20
10.0344
30
0
0
VERTEX
8
ENGRAVE
10
61.9563
20
10.0234
30
0
0
VERTEX
8
ENGRAVE
10
61.9793
20
10.0128
30
0
0
VERTEX
8
ENGRAVE
10
62.0029
20
10.0025
30
0
0
VERTEX
8
ENGRAVE
10
62.0269
20
9.9925
30
0
0
VERTEX
8
ENGRAVE
10
62.0514
20
9.9829
30
0
0
VERTEX
8
ENGRAVE
10
62.0763
20
9.9736
30
0
0
VERTEX
8
ENGRAVE
10
62.1035
20
9.9641
30
0
0
VERTEX
8
ENGRAVE
10
62.1346
20
9.9541
30
0
0
VERTEX
8
ENGRAVE
10
62.1696
20
9.9435
30
0
0
VERTEX
8
ENGRAVE
10
62.2085
20
9.9323
30
0
0
VERTEX
8
ENGRAVE
10
62.2513
20
9.9205
30
0
0
VERTEX
8
ENGRAVE
10
62.2980
20
9.9081
30
0
0
VERTEX
8
ENGRAVE
10
62.3486
20
9.8951
30
0
0
VERTEX
8
ENGRAVE
10
62.4032
20
9.8815
30
0
0
VERTEX
8
ENGRAVE
10
62.4616
20
9.8673
30
0
0
VERTEX
8
ENGRAVE
10
62.5239
20
9.8526
30
0
0
VERTEX
8
ENGRAVE
10
62.5960
20
9.8377
30
0
0
VERTEX
8
ENGRAVE
10
62.6632
20
9.8233
30
0
0
VERTEX
8
ENGRAVE
10
62.7256
20
9.8094
30
0
0
VERTEX
8
ENGRAVE
10
62.7832
20
9.7959
30
0
0
VERTEX
8
ENGRAVE
10
62.8360
20
9.7829
30
0
0
VERTEX
8
ENGRAVE
10
62.8839
20
9.7703
30
0
0
VERTEX
8
ENGRAVE
10
62.9270
20
9.7581
30
0
0
VERTEX
8
ENGRAVE
10
62.9653
20
9.7464
30
0
0
VERTEX
8
ENGRAVE
10
62.9988
20
9.7352
30
0
0
VERTEX
8
ENGRAVE
10
63.0274
20
9.7244
30
0
0
VERTEX
8
ENGRAVE
10
63.0531
20
9.7135
30
0
0
VERTEX
8
ENGRAVE
10
63.0776
20
9.7022
30
0
0
VERTEX
8
ENGRAVE
10
63.1008
20
9.6903
30
0
0
VERTEX
8
ENGRAVE
10
63.1230
20
9.6778
30
0
0
VERTEX
8
ENGRAVE
10
63.1439
20
9.6649
30
0
0
VERTEX
8
ENGRAVE
10
63.1637
20
9.6514
30
0
0
VERTEX
8
ENGRAVE
10
63.1822
20
9.6374
30
0
0
VERTEX
8
ENGRAVE
10
63.1996
20
9.6228
30
0
0
VERTEX
8
ENGRAVE
10
63.2158
20
9.6077
30
0
0
VERTEX
8
ENGRAVE
10
63.2309
20
9.5922
30
0
0
VERTEX
8
ENGRAVE
10
63.2446
20
9.5759
30
0
0
VERTEX
8
ENGRAVE
10
63.2569
20
9.5587
30
0
0
VERTEX
8
ENGRAVE
10
63.2677
20
9.5407
30
0
0
VERTEX
8
ENGRAVE
10
63.2771
20
9.5219
30
0
0
VERTEX
8
ENGRAVE
10
63.2850
20
9.5021
30
0
0
VERTEX
8
ENGRAVE
10
63.2915
20
9.4816
30
0
0
VERTEX
8
ENGRAVE
10
63.2966
20
9.4601
30
0
0
VERTEX
8
ENGRAVE
10
63.3002
20
9.4379
30
0
0
VERTEX
8
ENGRAVE
10
63.3024
20
9.4147
30
0
0
VERTEX
8
ENGRAVE
10
63.3031
20
9.3908
30
0
0
VERTEX
8
ENGRAVE
10
63.2968
20
9.3181
30
0
0
VERTEX
8
ENGRAVE
10
63.2780
20
9.2531
30
0
0
VERTEX
8
ENGRAVE
10
63.2465
20
9.1957
30
0
0
VERTEX
8
ENGRAVE
10
63.2025
20
9.1460
30
0
0
VERTEX
8
ENGRAVE
10
63.1460
20
9.1039
30
0
0
VERTEX
8
ENGRAVE
10
63.0768
20
9.0695
30
0
0
VERTEX
8
ENGRAVE
10
62.9951
20
9.0427
30
0
0
VERTEX
8
ENGRAVE
10
62.9008
20
9.0236
30
0
0
VERTEX
8
ENGRAVE
10
62.7939
20
9.0121
30
0
0
VERTEX
8
ENGRAVE
10
62.6745
20
9.0083
30
0
0
VERTEX
8
ENGRAVE
10
62.6152
20
9.0093
30
0
0
VERTEX
8
ENGRAVE
10
62.5585
20
9.0124
30
0
0
VERTEX
8
ENGRAVE
10
62.5045
20
9.0175
30
0
0
VERTEX
8
ENGRAVE
10
62.4531
20
9.0247
30
0
0
VERTEX
8
ENGRAVE
10
62.4044
20
9.0340
30
0
0
VERTEX
8
ENGRAVE
10
62.3583
20
9.0453
30
0
0
VERTEX
8
ENGRAVE
10
62.3149
20
9.0586
30
0
0
VERTEX
8
ENGRAVE
10
62.2741
20
9.0740
30
0
0
VERTEX
8
ENGRAVE
10
62.2359
20
9.0915
30
0
0
VERTEX
8
ENGRAVE
10
62.2005
20
9.1110
30
0
0
VERTEX
8
ENGRAVE
10
62.1674
20
9.1328
30
0
0
VERTEX
8
ENGRAVE
10
62.1366
20
9.1571
30
0
0
VERTEX
8
ENGRAVE
10
62.1080
20
9.1839
30
0
0
VERTEX
8
ENGRAVE
10
62.0816
20
9.2132
30
0
0
VERTEX
8
ENGRAVE
10
62.0575
20
9.2450
30
0
0
VERTEX
8
ENGRAVE
10
62.0357
20
9.2793
30
0
0
VERTEX
8
ENGRAVE
10
62.0161
20
9.3162
30
0
0
VERTEX
8
ENGRAVE
10
61.9987
20
9.3555
30
0
0
VERTEX
8
ENGRAVE
10
61.9835
20
9.3973
30
0
0
VERTEX
8
ENGRAVE
10
61.9706
20
9.4416
30
0
0
VERTEX
8
ENGRAVE
10
61.3908
20
9.3460
30
0
0
VERTEX
8
ENGRAVE
10
61.4109
20
9.2687
30
0
0
VERTEX
8
ENGRAVE
10
61.4355
20
9.1954
30
0
0
VERTEX
8
ENGRAVE
10
61.4646
20
9.1261
30
0
0
VERTEX
8
ENGRAVE
10
61.4982
20
9.0609
30
0
0
VERTEX
8
ENGRAVE
10
61.5362
20
8.9997
30
0
0
VERTEX
8
ENGRAVE
10
61.5788
20
8.9425
30
0
0
VERTEX
8
ENGRAVE
10
61.6257
20
8.8893
30
0
0
VERTEX
8
ENGRAVE
10
61.6772
20
8.8402
30
0
0
VERTEX
8
ENGRAVE
10
61.7332
20
8.7951
30
0
0
VERTEX
8
ENGRAVE
10
61.7936
20
8.7540
30
0
0
VERTEX
8
ENGRAVE
10
61.8586
20
8.7169
30
0
0
VERTEX
8
ENGRAVE
10
61.9284
20
8.6837
30
0
0
VERTEX
8
ENGRAVE
10
62.0030
20
8.6544
30
0
0
VERTEX
8
ENGRAVE
10
62.0823
20
8.6290
30
0
0
VERTEX
8
ENGRAVE
10
62.1664
20
8.6075
30
0
0
VERTEX
8
ENGRAVE
10
62.2552
20
8.5899
30
0
0
VERTEX
8
ENGRAVE
10
62.3488
20
8.5763
30
0
0
VERTEX
8
ENGRAVE
10
62.4472
20
8.5665
30
0
0
VERTEX
8
ENGRAVE
10
62.5503
20
8.5607
30
0
0
VERTEX
8
ENGRAVE
10
62.6582
20
8.5587
30
0
0
SEQEND
8
ENGRAVE
0
POLYLINE
8
ENGRAVE
66
1
10
0
20
0
30
0
70
1
0
VERTEX
8
ENGRAVE
10
64.8636
20
9.8282
30
0
0
VERTEX
8
ENGRAVE
10
66.1127
20
9.8282
30
0
0
VERTEX
8
ENGRAVE
10
66.1127
20
8.5994
30
0
0
VERTEX
8
ENGRAVE
10
66.7128
20
8.5994
30
0
0
VERTEX
8
ENGRAVE
10
66.7128
20
11.4658
30
0
0
VERTEX
8
ENGRAVE
10
66.1127
20
11.4658
30
0
0
VERTEX
8
ENGRAVE
10
66.1127
20
10.3245
30
0
0
VERTEX
8
ENGRAVE
10
64.8636
20
10.3245
30
0
0
VERTEX
8
ENGRAVE
10
64.8636
20
11.4658
30
0
0
VERTEX
8
ENGRAVE
10
64.2635
20
11.4658
30
0
0
VERTEX
8
ENGRAVE
10
64.2635
20
8.5994
30
0
0
VERTEX
8
ENGRAVE
10
64.8636
20
8.5994
30
0
0
SEQEND
8
ENGRAVE
0
POLYLINE
8
ENGRAVE
66
1
10
0
20
0
30
0
70
1
0
VERTEX
8
ENGRAVE
10
78.8031
20
9.6511
30
0
0
VERTEX
8
ENGRAVE
10
80.2699
20
9.6511
30
0
0
VERTEX
8
ENGRAVE
10
80.2699
20
10.1150
30
0
0
VERTEX
8
ENGRAVE
10
78.8031
20
10.1150
30
0
0
VERTEX
8
ENGRAVE
10
78.8031
20
11.0020
30
0
0
VERTEX
8
ENGRAVE
10
80.3167
20
11.0020
30
0
0
VERTEX
8
ENGRAVE
10
80.3167
20
11.4658
30
0
0
VERTEX
8
ENGRAVE
10
78.2030
20
11.4658
30
0
0
VERTEX
8
ENGRAVE
10
78.2030
20
8.5994
30
0
0
VERTEX
8
ENGRAVE
10
78.8031
20
8.5994
30
0
0
SEQEND
8
ENGRAVE
0
POLYLINE
8
ENGRAVE
66
1
10
0
20
0
30
0
70
1
0
VERTEX
8
ENGRAVE
10
76.3176
20
9.6511
30
0
0
VERTEX
8
ENGRAVE
10
77.7844
20
9.6511
30
0
0
VERTEX
8
ENGRAVE
10
77.7844
20
10.1150
30
0
0
VERTEX
8
ENGRAVE
10
76.3176
20
10.1150
30
0
0
VERTEX
8
ENGRAVE
10
76.3176
20
11.0020
30
0
0
VERTEX
8
ENGRAVE
10
77.8312
20
11.0020
30
0
0
VERTEX
8
ENGRAVE
10
77.8312
20
11.4658
30
0
0
VERTEX
8
ENGRAVE
10
75.7175
20
11.4658
30
0
0
VERTEX
8
ENGRAVE
10
75.7175
20
8.5994
30
0
0
VERTEX
8
ENGRAVE
10
76.3176
20
8.5994
30
0
0
SEQEND
8
ENGRAVE
0
POLYLINE
8
ENGRAVE
66
1
10
0
20
0
30
0
70
1
0
VERTEX
8
ENGRAVE
10
71.4343
20
11.0020
30
0
0
VERTEX
8
ENGRAVE
10
72.3620
20
11.0020
30
0
0
VERTEX
8
ENGRAVE
10
72.3620
20
11.4658
30
0
0
VERTEX
8
ENGRAVE
10
69.9086
20
11.4658
30
0
0
VERTEX
8
ENGRAVE
10
69.9086
20
11.0020
30
0
0
VERTEX
8
ENGRAVE
10
70.8342
20
11.0020
30
0
0
VERTEX
8
ENGRAVE
10
70.8342
20
8.5994
30
0
0
VERTEX
8
ENGRAVE
10
71.4343
20
8.5994
30
0
0
SEQEND
8
ENGRAVE
0
POLYLINE
8
ENGRAVE
66
1
10
0
20
0
30
0
70
1
0
VERTEX
8
ENGRAVE
10
68.5134
20
8.5617
30
0
0
VERTEX
8
ENGRAVE
10
68.6273
20
8.5707
30
0
0
VERTEX
8
ENGRAVE
10
68.7357
20
8.5857
30
0
0
VERTEX
8
ENGRAVE
10
68.8386
20
8.6067
30
0
0
VERTEX
8
ENGRAVE
10
68.9360
20
8.6337
30
0
0
VERTEX
8
ENGRAVE
10
69.0280
20
8.6667
30
0
0
VERTEX
8
ENGRAVE
10
69.1145
20
8.7057
30
0
0
VERTEX
8
ENGRAVE
10
69.1955
20
8.7508
30
0
0
VERTEX
8
ENGRAVE
10
69.2710
20
8.8018
30
0
0
VERTEX
8
ENGRAVE
10
69.3411
20
8.8588
30
0
0
VERTEX
8
ENGRAVE
10
69.4051
20
8.9212
30
0
0
VERTEX
8
ENGRAVE
10
69.4623
20
8.9886
30
0
0
VERTEX
8
ENGRAVE
10
69.5128
20
9.0609
30
0
0
VERTEX
8
ENGRAVE
10
69.5566
20
9.1380
30
0
0
VERTEX
8
ENGRAVE
10
69.5936
20
9.2201
30
0
0
VERTEX
8
ENGRAVE
10
69.6239
20
9.3071
30
0
0
VERTEX
8
ENGRAVE
10
69.6475
20
9.3990
30
0
0
VERTEX
8
ENGRAVE
10
69.6643
20
9.4958
30
0
0
VERTEX
8
ENGRAVE
10
69.6744
20
9.5974
30
0
0
VERTEX
8
ENGRAVE
10
69.6778
20
9.7040
30
0
0
VERTEX
8
ENGRAVE
10
69.6778
20
11.4658
30
0
0
VERTEX
8
ENGRAVE
10
69.0776
20
11.4658
30
0
0
VERTEX
8
ENGRAVE
10
69.0776
20
9.7407
30
0
0
VERTEX
8
ENGRAVE
10
69.0759
20
9.6735
30
0
0
VERTEX
8
ENGRAVE
10
69.0707
20
9.6095
30
0
0
VERTEX
8
ENGRAVE
10
69.0621
20
9.5488
30
0
0
VERTEX
8
ENGRAVE
10
69.0500
20
9.4912
30
0
0
VERTEX
8
ENGRAVE
10
69.0344
20
9.4368
30
0
0
VERTEX
8
ENGRAVE
10
69.0154
20
9.3856
30
0
0
VERTEX
8
ENGRAVE
10
68.9929
20
9.3376
30
0
0
VERTEX
8
ENGRAVE
10
68.9670
20
9.2928
30
0
0
VERTEX
8
ENGRAVE
10
68.9376
20
9.2512
30
0
0
VERTEX
8
ENGRAVE
10
68.9047
20
9.2127
30
0
0
VERTEX
8
ENGRAVE
10
68.8687
20
9.1777
30
0
0
VERTEX
8
ENGRAVE
10
68.8296
20
9.1464
30
0
0
VERTEX
8
ENGRAVE
10
68.7876
20
9.1188
30
0
0
VERTEX
8
ENGRAVE
10
68.7426
20
9.0949
30
0
0
VERTEX
8
ENGRAVE
10
68.6947
20
9.0747
30
0
0
VERTEX
8
ENGRAVE
10
68.6438
20
9.0581
30
0
0
VERTEX
8
ENGRAVE
10
68.5899
20
9.0452
30
0
0
VERTEX
8
ENGRAVE
10
68.5330
20
9.0360
30
0
0
VERTEX
8
ENGRAVE
10
68.4732
20
9.0305
30
0
0
VERTEX
8
ENGRAVE
10
68.4104
20
9.0286
30
0
0
VERTEX
8
ENGRAVE
10
68.3492
20
9.0304
30
0
0
VERTEX
8
ENGRAVE
10
68.2911
20
9.0357
30
0
0
VERTEX
8
ENGRAVE
10
68.2360
20
9.0445
30
0
0
VERTEX
8
ENGRAVE
10
68.1840
20
9.0568
30
0
0
VERTEX
8
ENGRAVE
10
68.1350
20
9.0726
30
0
0
VERTEX
8
ENGRAVE
10
68.0890
20
9.0920
30
0
0
VERTEX
8
ENGRAVE
10
68.0460
20
9.1149
30
0
0
VERTEX
8
ENGRAVE
10
68.0061
20
9.1412
30
0
0
VERTEX
8
ENGRAVE
10
67.9692
20
9.1712
30
0
0
VERTEX
8
ENGRAVE
10
67.9353
20
9.2046
30
0
0
VERTEX
8
ENGRAVE
10
67.9046
20
9.2414
30
0
0
VERTEX
8
ENGRAVE
10
67.8771
20
9.2815
30
0
0
VERTEX
8
ENGRAVE
10
67.8529
20
9.3249
30
0
0
VERTEX
8
ENGRAVE
10
67.8318
20
9.3716
30
0
0
VERTEX
8
ENGRAVE
10
67.8141
20
9.4215
30
0
0
VERTEX
8
ENGRAVE
10
67.7995
20
9.4747
30
0
0
VERTEX
8
ENGRAVE
10
67.7882
20
9.5312
30
0
0
VERTEX
8
ENGRAVE
10
67.7801
20
9.5910
30
0
0
VERTEX
8
ENGRAVE
10
67.7752
20
9.6540
30
0
0
VERTEX
8
ENGRAVE
10
67.7736
20
9.7203
30
0
0
VERTEX
8
ENGRAVE
10
67.7736
20
11.4658
30
0
0
VERTEX
8
ENGRAVE
10
67.1735
20
11.4658
30
0
0
VERTEX
8
ENGRAVE
10
67.1735
20
9.6735
30
0
0
VERTEX
8
ENGRAVE
10
67.1766
20
9.5686
30
0
0
VERTEX
8
ENGRAVE
10
67.1861
20
9.4686
30
0
0
VERTEX
8
ENGRAVE
10
67.2018
20
9.3736
30
0
0
VERTEX
8
ENGRAVE
10
67.2238
20
9.2836
30
0
0
VERTEX
8
ENGRAVE
10
67.2520
20
9.1985
30
0
0
VERTEX
8
ENGRAVE
10
67.2866
20
9.1184
30
0
0
VERTEX
8
ENGRAVE
10
67.3275
20
9.0432
30
0
0
VERTEX
8
ENGRAVE
10
67.3746
20
8.9731
30
0
0
VERTEX
8
ENGRAVE
10
67.4281
20
8.9078
30
0
0
VERTEX
8
ENGRAVE
10
67.4878
20
8.8476
30
0
0
VERTEX
8
ENGRAVE
10
67.5534
20
8.7927
30
0
0
VERTEX
8
ENGRAVE
10
67.6246
20
8.7436
30
0
0
VERTEX
8
ENGRAVE
10
67.7014
20
8.7003
30
0
0
VERTEX
8
ENGRAVE
10
67.7837
20
8.6627
30
0
0
VERTEX
8
ENGRAVE
10
67.8715
20
8.6309
30
0
0
VERTEX
8
ENGRAVE
10
67.9649
20
8.6049
30
0
0
VERTEX
8
ENGRAVE
10
68.0639
20
8.5847
30
0
0
VERTEX
8
ENGRAVE
10
68.1684
20
8.5702
30
0
0
VERTEX
8
ENGRAVE
10
68.2785
20
8.5616
30
0
0
VERTEX
8
ENGRAVE
10
68.3941
20
8.5587
30
0
0
SEQEND
8
ENGRAVE
0
POLYLINE
8
ENGRAVE
66
1
10
0
20
0
30
0
70
1
0
VERTEX
8
ENGRAVE
10
50.4691
20
9.6511
30
0
0
VERTEX
8
ENGRAVE
10
51.9358
20
9.6511
30
0
0
VERTEX
8
ENGRAVE
10
51.9358
20
10.1150
30
0
0
VERTEX
8
ENGRAVE
10
50.4691
20
10.1150
30
0
0
VERTEX
8
ENGRAVE
10
50.4691
20
11.0020
30
0
0
VERTEX
8
ENGRAVE
10
51.9826
20
11.0020
30
0
0
VERTEX
8
ENGRAVE
10
51.9826
20
11.4658
30
0
0
VERTEX
8
ENGRAVE
10
49.8689
20
11.4658
30
0
0
VERTEX
8
ENGRAVE
10
49.8689
20
8.5994
30
0
0
VERTEX
8
ENGRAVE
10
50.4691
20
8.5994
30
0
0
SEQEND
8
ENGRAVE
0
POLYLINE
8
ENGRAVE
66
1
10
0
20
0
30
0
70
1
0
VERTEX
8
ENGRAVE
10
60.1451
20
9.0632
30
0
0
VERTEX
8
ENGRAVE
10
58.6071
20
9.0632
30
0
0
VERTEX
8
ENGRAVE
10
58.6071
20
11.4658
30
0
0
VERTEX
8
ENGRAVE
10
58.0069
20
11.4658
30
0
0
VERTEX
8
ENGRAVE
10
58.0069
20
8.5994
30
0
0
VERTEX
8
ENGRAVE
10
60.1451
20
8.5994
30
0
0
SEQEND
8
ENGRAVE
0
POLYLINE
8
ENGRAVE
66
1
10
0
20
0
30
0
70
1
0
VERTEX
8
ENGRAVE
10
57.6304
20
9.0632
30
0
0
VERTEX
8
ENGRAVE
10
55.8931
20
9.0632
30
0
0
VERTEX
8
ENGRAVE
10
55.8931
20
9.8180
30
0
0
VERTEX
8
ENGRAVE
10
57.4229
20
9.8180
30
0
0
VERTEX
8
ENGRAVE
10
57.4229
20
10.2818
30
0
0
VERTEX
8
ENGRAVE
10
55.8931
20
10.2818
30
0
0
VERTEX
8
ENGRAVE
10
55.8931
20
11.0020
30
0
0
VERTEX
8
ENGRAVE
10
57.5470
20
11.0020
30
0
0
VERTEX
8
ENGRAVE
10
57.5470
20
11.4658
30
0
0
VERTEX
8
ENGRAVE
10
55.2929
20
11.4658
30
0
0
VERTEX
8
ENGRAVE
10
55.2929
20
8.5994
30
0
0
VERTEX
8
ENGRAVE
10
57.6304
20
8.5994
30
0
0
SEQEND
8
ENGRAVE
0
POLYLINE
8
ENGRAVE
66
1
10
0
20
0
30
0
70
1
0
VERTEX
8
ENGRAVE
10
53.6659
20
8.5617
30
0
0
VERTEX
8
ENGRAVE
10
53.7797
20
8.5707
30
0
0
VERTEX
8
ENGRAVE
10
53.8881
20
8.5857
30
0
0
VERTEX
8
ENGRAVE
10
53.9910
20
8.6067
30
0
0
VERTEX
8
ENGRAVE
10
54.0885
20
8.6337
30
0
0
VERTEX
8
ENGRAVE
10
54.1804
20
8.6667
30
0
0
VERTEX
8
ENGRAVE
10
54.2669
20
8.7057
30
0
0
VERTEX
8
ENGRAVE
10
54.3479
20
8.7508
30
0
0
VERTEX
8
ENGRAVE
10
54.4235
20
8.8018
30
0
0
VERTEX
8
ENGRAVE
10
54.4936
20
8.8588
30
0
0
VERTEX
8
ENGRAVE
10
54.5575
20
8.9212
30
0
0
VERTEX
8
ENGRAVE
10
54.6148
20
8.9886
30
0
0
VERTEX
8
ENGRAVE
10
54.6653
20
9.0609
30
0
0
VERTEX
8
ENGRAVE
10
54.7090
20
9.1380
30
0
0
VERTEX
8
ENGRAVE
10
54.7461
20
9.2201
30
0
0
VERTEX
8
ENGRAVE
10
54.7764
20
9.3071
30
0
0
VERTEX
8
ENGRAVE
10
54.8000
20
9.3990
30
0
0
VERTEX
8
ENGRAVE
10
54.8168
20
9.4958
30
0
0
VERTEX
8
ENGRAVE
10
54.8269
20
9.5974
30
0
0
VERTEX
8
ENGRAVE
10
54.8303
20
9.7040
30
0
0
VERTEX
8
ENGRAVE
10
54.8303
20
11.4658
30
0
0
VERTEX
8
ENGRAVE
10
54.2301
20
11.4658
30
0
0
VERTEX
8
ENGRAVE
10
54.2301
20
9.7407
30
0
0
VERTEX
8
ENGRAVE
10
54.2284
20
9.6735
30
0
0
VERTEX
8
ENGRAVE
10
54.2232
20
9.6095
30
0
0
VERTEX
8
ENGRAVE
10
54.2146
20
9.5488
30
0
0
VERTEX
8
ENGRAVE
10
54.2024
20
9.4912
30
0
0
VERTEX
8
ENGRAVE
10
54.1869
20
9.4368
30
0
0
VERTEX
8
ENGRAVE
10
54.1679
20
9.3856
30
0
0
VERTEX
8
ENGRAVE
10
54.1454
20
9.3376
30
0
0
VERTEX
8
ENGRAVE
10
54.1194
20
9.2928
30
0
0
VERTEX
8
ENGRAVE
10
54.0900
20
9.2512
30
0
0
VERTEX
8
ENGRAVE
10
54.0572
20
9.2127
30
0
0
VERTEX
8
ENGRAVE
10
54.0211
20
9.1777
30
0
0
VERTEX
8
ENGRAVE
10
53.9821
20
9.1464
30
0
0
VERTEX
8
ENGRAVE
10
53.9401
20
9.1188
30
0
0
VERTEX
8
ENGRAVE
10
53.8951
20
9.0949
30
0
0
VERTEX
8
ENGRAVE
10
53.8472
20
9.0747
30
0
0
VERTEX
8
ENGRAVE
10
53.7962
20
9.0581
30
0
0
VERTEX
8
ENGRAVE
10
53.7423
20
9.0452
30
0
0
VERTEX
8
ENGRAVE
10
53.6855
20
9.0360
30
0
0
VERTEX
8
ENGRAVE
10
53.6257
20
9.0305
30
0
0
VERTEX
8
ENGRAVE
10
53.5629
20
9.0286
30
0
0
VERTEX
8
ENGRAVE
10
53.5017
20
9.0304
30
0
0
VERTEX
8
ENGRAVE
10
53.4436
20
9.0357
30
0
0
VERTEX
8
ENGRAVE
10
53.3885
20
9.0445
30
0
0
VERTEX
8
ENGRAVE
10
53.3365
20
9.0568
30
0
0
VERTEX
8
ENGRAVE
10
53.2874
20
9.0726
30
0
0
VERTEX
8
ENGRAVE
10
53.2415
20
9.0920
30
0
0
VERTEX
8
ENGRAVE
10
53.1985
20
9.1149
30
0
0
VERTEX
8
ENGRAVE
10
53.1586
20
9.1412
30
0
0
VERTEX
8
ENGRAVE
10
53.1217
20
9.1712
30
0
0
VERTEX
8
ENGRAVE
10
53.0878
20
9.2046
30
0
0
VERTEX
8
ENGRAVE
10
53.0571
20
9.2414
30
0
0
VERTEX
8
ENGRAVE
10
53.0296
20
9.2815
30
0
0
VERTEX
8
ENGRAVE
10
53.0054
20
9.3249
30
0
0
VERTEX
8
ENGRAVE
10
52.9843
20
9.3716
30
0
0
VERTEX
8
ENGRAVE
10
52.9665
20
9.4215
30
0
0
VERTEX
8
ENGRAVE
10
52.9520
20
9.4747
30
0
0
VERTEX
8
ENGRAVE
10
52.9407
20
9.5312
30
0
0
VERTEX
8
ENGRAVE
10
52.9326
20
9.5910
30
0
0
VERTEX
8
ENGRAVE
10
52.9277
20
9.6540
30
0
0
VERTEX
8
ENGRAVE
10
52.9261
20
9.7203
30
0
0
VERTEX
8
ENGRAVE
10
52.9261
20
11.4658
30
0
0
VERTEX
8
ENGRAVE
10
52.3259
20
11.4658
30
0
0
VERTEX
8
ENGRAVE
10
52.3259
20
9.6735
30
0
0
VERTEX
8
ENGRAVE
10
52.3291
20
9.5686
30
0
0
VERTEX
8
ENGRAVE
10
52.3385
20
9.4686
30
0
0
VERTEX
8
ENGRAVE
10
52.3542
20
9.3736
30
0
0
VERTEX
8
ENGRAVE
10
52.3762
20
9.2836
30
0
0
VERTEX
8
ENGRAVE
10
52.4045
20
9.1985
30
0
0
VERTEX
8
ENGRAVE
10
52.4391
20
9.1184
30
0
0
VERTEX
8
ENGRAVE
10
52.4800
20
9.0432
30
0
0
VERTEX
8
ENGRAVE
10
52.5271
20
8.9731
30
0
0
VERTEX
8
ENGRAVE
10
52.5805
20
8.9078
30
0
0
VERTEX
8
ENGRAVE
10
52.6403
20
8.8476
30
0
0
VERTEX
8
ENGRAVE
10
52.7059
20
8.7927
30
0
0
VERTEX
8
ENGRAVE
10
52.7771
20
8.7436
30
0
0
VERTEX
8
ENGRAVE
10
52.8538
20
8.7003
30
0
0
VERTEX
8
ENGRAVE
10
52.9361
20
8.6627
30
0
0
VERTEX
8
ENGRAVE
10
53.0240
20
8.6309
30
0
0
VERTEX
8
ENGRAVE
10
53.1174
20
8.6049
30
0
0
VERTEX
8
ENGRAVE
10
53.2164
20
8.5847
30
0
0
VERTEX
8
ENGRAVE
10
53.3209
20
8.5702
30
0
0
VERTEX
8
ENGRAVE
10
53.4309
20
8.5616
30
0
0
VERTEX
8
ENGRAVE
10
53.5466
20
8.5587
30
0
0
SEQEND
8
ENGRAVE
0
CIRCLE
8
COUNTERSINK
10
38.0000
20
140.0000
30
0
40
3.2000
0
CIRCLE
8
COUNTERSINK
10
92.0000
20
140.0000
30
0
40
3.2000
0
CIRCLE
8
COUNTERSINK
10
92.0000
20
30.0000
30
0
40
3.2000
0
CIRCLE
8
COUNTERSINK
10
38.0000
20
30.0000
30
0
40
3.2000
0
ENDSEC
0
EOF
