0
SECTION
2
HEADER
9
$ACADVER
1
AC1009
9
$INSUNITS
70
4
0
ENDSEC
0
SECTION
2
TABLES
0
TABLE
2
LAYER
70
2
0
LAYER
2
CUT
70
0
62
7
6
CONTINUOUS
0
LAYER
2
DRILL
70
0
62
1
6
CONTINUOUS
0
ENDTAB
0
ENDSEC
0
SECTION
2
ENTITIES
0
POLYLINE
8
CUT
66
1
10
0
20
0
30
0
70
1
0
VERTEX
8
CUT
10
0.0000
20
0.0000
30
0
0
VERTEX
8
CUT
10
34.0000
20
0.0000
30
0
0
VERTEX
8
CUT
10
34.0000
20
70.0000
30
0
0
VERTEX
8
CUT
10
0.0000
20
70.0000
30
0
0
SEQEND
8
CUT
0
CIRCLE
8
DRILL
10
7.0000
20
60.0000
30
0
40
1.7000
0
CIRCLE
8
DRILL
10
27.0000
20
60.0000
30
0
40
1.7000
0
CIRCLE
8
DRILL
10
7.0000
20
10.0000
30
0
40
1.7000
0
CIRCLE
8
DRILL
10
27.0000
20
10.0000
30
0
40
1.7000
0
ENDSEC
0
EOF
