<svg xmlns="http://www.w3.org/2000/svg" xmlns:inkscape="http://www.inkscape.org/namespaces/inkscape" width="282.000mm" height="327.482mm" viewBox="0 0 282.000 327.482">
<g id="OUTLINE" inkscape:groupmode="layer" inkscape:label="OUTLINE" fill="none" stroke="#000000" stroke-width="0.2">
<path d="M 0.0000,17.2700 L 0.0230,16.7470 L 0.0910,16.2280 L 0.2040,15.7170 L 0.3620,15.2180 L 0.5620,14.7350 L 0.8040,14.2700 L 1.0850,13.8290 L 1.4040,13.4140 L 1.7570,13.0280 L 2.1430,12.6740 L 2.5590,12.3550 L 3.0000,12.0740 L 3.4640,11.8330 L 3.9480,11.6320 L 4.4470,11.4750 L 4.9580,11.3620 L 5.6010,11.2840 L 20.2380,10.3080 L 20.2610,10.3070 L 40.4880,9.0380 L 40.5120,9.0370 L 60.7380,7.8470 L 60.7620,7.8460 L 80.9890,6.7350 L 81.0120,6.7340 L 101.2390,5.7030 L 101.2620,5.7020 L 121.4890,4.7500 L 121.5130,4.7490 L 141.7350,3.8760 L 141.7590,3.8750 L 161.9890,3.0810 L 162.0130,3.0800 L 182.2393,2.3650 L 182.2628,2.3650 L 202.4893,1.7290 L 202.5127,1.7280 L 222.7354,1.1720 L 222.7589,1.1710 L 242.9894,0.6940 L 243.0128,0.6940 L 263.2392,0.2950 L 263.2627,0.2950 L 282.0000,0.0000 L 282.0000,34.4820 L 41.0000,34.4820 L 41.0000,225.4820 L 282.0000,225.4820 L 282.0000,239.4820 L 278.5138,239.6342 L 275.0542,240.0897 L 271.6471,240.8450 L 268.3192,241.8943 L 265.0952,243.2297 L 262.0001,244.8409 L 259.0570,246.7159 L 256.2885,248.8402 L 253.7157,251.1977 L 251.3582,253.7705 L 249.2339,256.5390 L 247.3589,259.4821 L 245.7477,262.5772 L 244.4123,265.8012 L 243.3630,269.1291 L 242.6077,272.5362 L 242.1522,275.9957 L 242.0000,279.4820 L 242.1522,282.9683 L 242.6077,286.4278 L 243.3630,289.8349 L 244.4123,293.1628 L 245.7477,296.3868 L 247.3589,299.4819 L 249.2339,302.4250 L 251.3582,305.1935 L 253.7157,307.7663 L 256.2885,310.1238 L 259.0570,312.2481 L 262.0001,314.1231 L 265.0952,315.7343 L 268.3192,317.0697 L 271.6471,318.1190 L 275.0542,318.8743 L 278.5138,319.3298 L 282.0000,319.4820 L 282.0000,327.4820 L 0.0000,327.4820 Z"/>
</g>
<g id="BACK_PILOTS" inkscape:groupmode="layer" inkscape:label="BACK_PILOTS" fill="none" stroke="#9b30c8" stroke-width="0.2">
<circle cx="34.0000" cy="43.5320" r="1.3000"/>
<circle cx="34.0000" cy="212.0320" r="1.3000"/>
</g>
</svg>
