0
SECTION
2
HEADER
9
$ACADVER
1
AC1009
9
$INSUNITS
70
4
0
ENDSEC
0
SECTION
2
TABLES
0
TABLE
2
LAYER
70
2
0
LAYER
2
CUT
70
0
62
7
6
CONTINUOUS
0
LAYER
2
DRILL
70
0
62
1
6
CONTINUOUS
0
ENDTAB
0
ENDSEC
0
SECTION
2
ENTITIES
0
POLYLINE
8
CUT
66
1
10
0
20
0
30
0
70
1
0
VERTEX
8
CUT
10
528.0000
20
8.0000
30
0
0
VERTEX
8
CUT
10
524.5140
20
8.1522
30
0
0
VERTEX
8
CUT
10
521.0540
20
8.6077
30
0
0
VERTEX
8
CUT
10
517.6470
20
9.3630
30
0
0
VERTEX
8
CUT
10
514.3190
20
10.4123
30
0
0
VERTEX
8
CUT
10
511.0950
20
11.7477
30
0
0
VERTEX
8
CUT
10
508.0000
20
13.3589
30
0
0
VERTEX
8
CUT
10
505.0570
20
15.2339
30
0
0
VERTEX
8
CUT
10
502.2880
20
17.3582
30
0
0
VERTEX
8
CUT
10
499.7160
20
19.7157
30
0
0
VERTEX
8
CUT
10
497.3580
20
22.2885
30
0
0
VERTEX
8
CUT
10
495.2340
20
25.0570
30
0
0
VERTEX
8
CUT
10
493.3590
20
28.0001
30
0
0
VERTEX
8
CUT
10
491.7480
20
31.0952
30
0
0
VERTEX
8
CUT
10
490.4120
20
34.3192
30
0
0
VERTEX
8
CUT
10
489.3630
20
37.6471
30
0
0
VERTEX
8
CUT
10
488.6080
20
41.0542
30
0
0
VERTEX
8
CUT
10
488.1520
20
44.5137
30
0
0
VERTEX
8
CUT
10
488.0000
20
48.0000
30
0
0
VERTEX
8
CUT
10
488.1520
20
51.4863
30
0
0
VERTEX
8
CUT
10
488.6080
20
54.9458
30
0
0
VERTEX
8
CUT
10
489.3630
20
58.3529
30
0
0
VERTEX
8
CUT
10
490.4120
20
61.6808
30
0
0
VERTEX
8
CUT
10
491.7480
20
64.9048
30
0
0
VERTEX
8
CUT
10
493.3590
20
67.9999
30
0
0
VERTEX
8
CUT
10
495.2340
20
70.9430
30
0
0
VERTEX
8
CUT
10
497.3580
20
73.7115
30
0
0
VERTEX
8
CUT
10
499.7160
20
76.2843
30
0
0
VERTEX
8
CUT
10
502.2880
20
78.6418
30
0
0
VERTEX
8
CUT
10
505.0570
20
80.7661
30
0
0
VERTEX
8
CUT
10
508.0000
20
82.6411
30
0
0
VERTEX
8
CUT
10
511.0950
20
84.2523
30
0
0
VERTEX
8
CUT
10
514.3190
20
85.5877
30
0
0
VERTEX
8
CUT
10
517.6470
20
86.6370
30
0
0
VERTEX
8
CUT
10
521.0540
20
87.3923
30
0
0
VERTEX
8
CUT
10
524.5140
20
87.8478
30
0
0
VERTEX
8
CUT
10
528.0000
20
88.0000
30
0
0
VERTEX
8
CUT
10
528.0000
20
102.0000
30
0
0
VERTEX
8
CUT
10
491.0000
20
102.0000
30
0
0
VERTEX
8
CUT
10
491.0000
20
293.0000
30
0
0
VERTEX
8
CUT
10
528.0000
20
293.0000
30
0
0
VERTEX
8
CUT
10
528.0000
20
327.4820
30
0
0
VERTEX
8
CUT
10
526.5110
20
327.5060
30
0
0
VERTEX
8
CUT
10
526.4870
20
327.5060
30
0
0
VERTEX
8
CUT
10
506.2650
20
327.7460
30
0
0
VERTEX
8
CUT
10
506.2410
20
327.7460
30
0
0
VERTEX
8
CUT
10
486.0110
20
327.9070
30
0
0
VERTEX
8
CUT
10
485.9870
20
327.9070
30
0
0
VERTEX
8
CUT
10
465.7610
20
327.9890
30
0
0
VERTEX
8
CUT
10
465.7370
20
327.9890
30
0
0
VERTEX
8
CUT
10
445.5110
20
327.9910
30
0
0
VERTEX
8
CUT
10
445.4880
20
327.9910
30
0
0
VERTEX
8
CUT
10
425.2610
20
327.9150
30
0
0
VERTEX
8
CUT
10
425.2380
20
327.9140
30
0
0
VERTEX
8
CUT
10
405.0110
20
327.7590
30
0
0
VERTEX
8
CUT
10
404.9880
20
327.7580
30
0
0
VERTEX
8
CUT
10
384.7650
20
327.5230
30
0
0
VERTEX
8
CUT
10
384.7420
20
327.5230
30
0
0
VERTEX
8
CUT
10
364.5110
20
327.2090
30
0
0
VERTEX
8
CUT
10
364.4880
20
327.2090
30
0
0
VERTEX
8
CUT
10
344.2610
20
326.8150
30
0
0
VERTEX
8
CUT
10
344.2380
20
326.8150
30
0
0
VERTEX
8
CUT
10
324.0110
20
326.3420
30
0
0
VERTEX
8
CUT
10
323.9880
20
326.3420
30
0
0
VERTEX
8
CUT
10
303.7610
20
325.7900
30
0
0
VERTEX
8
CUT
10
303.7380
20
325.7900
30
0
0
VERTEX
8
CUT
10
283.5110
20
325.1590
30
0
0
VERTEX
8
CUT
10
283.4880
20
325.1580
30
0
0
VERTEX
8
CUT
10
263.2610
20
324.4480
30
0
0
VERTEX
8
CUT
10
263.2380
20
324.4470
30
0
0
VERTEX
8
CUT
10
243.0110
20
323.6590
30
0
0
VERTEX
8
CUT
10
242.9880
20
323.6580
30
0
0
VERTEX
8
CUT
10
222.7650
20
322.7900
30
0
0
VERTEX
8
CUT
10
222.7420
20
322.7890
30
0
0
VERTEX
8
CUT
10
202.5110
20
321.8410
30
0
0
VERTEX
8
CUT
10
202.4870
20
321.8400
30
0
0
VERTEX
8
CUT
10
182.2610
20
320.8140
30
0
0
VERTEX
8
CUT
10
182.2370
20
320.8120
30
0
0
VERTEX
8
CUT
10
162.0110
20
319.7070
30
0
0
VERTEX
8
CUT
10
161.9870
20
319.7060
30
0
0
VERTEX
8
CUT
10
141.7640
20
318.5210
30
0
0
VERTEX
8
CUT
10
141.7400
20
318.5200
30
0
0
VERTEX
8
CUT
10
121.5100
20
317.2560
30
0
0
VERTEX
8
CUT
10
121.4860
20
317.2540
30
0
0
VERTEX
8
CUT
10
101.2630
20
315.9120
30
0
0
VERTEX
8
CUT
10
101.2400
20
315.9100
30
0
0
VERTEX
8
CUT
10
81.0091
20
314.4880
30
0
0
VERTEX
8
CUT
10
80.9858
20
314.4860
30
0
0
VERTEX
8
CUT
10
60.7623
20
312.9850
30
0
0
VERTEX
8
CUT
10
60.7390
20
312.9830
30
0
0
VERTEX
8
CUT
10
40.5118
20
311.4030
30
0
0
VERTEX
8
CUT
10
40.4886
20
311.4010
30
0
0
VERTEX
8
CUT
10
20.2610
20
309.7420
30
0
0
VERTEX
8
CUT
10
20.2378
20
309.7400
30
0
0
VERTEX
8
CUT
10
5.4862
20
308.4720
30
0
0
VERTEX
8
CUT
10
4.9671
20
308.4040
30
0
0
VERTEX
8
CUT
10
4.4559
20
308.2920
30
0
0
VERTEX
8
CUT
10
3.9565
20
308.1350
30
0
0
VERTEX
8
CUT
10
3.4726
20
307.9350
30
0
0
VERTEX
8
CUT
10
3.0079
20
307.6940
30
0
0
VERTEX
8
CUT
10
2.5660
20
307.4140
30
0
0
VERTEX
8
CUT
10
2.1503
20
307.0960
30
0
0
VERTEX
8
CUT
10
1.7638
20
306.7430
30
0
0
VERTEX
8
CUT
10
1.4096
20
306.3570
30
0
0
VERTEX
8
CUT
10
1.0903
20
305.9430
30
0
0
VERTEX
8
CUT
10
0.8084
20
305.5020
30
0
0
VERTEX
8
CUT
10
0.5660
20
305.0380
30
0
0
VERTEX
8
CUT
10
0.3650
20
304.5540
30
0
0
VERTEX
8
CUT
10
0.2068
20
304.0550
30
0
0
VERTEX
8
CUT
10
0.0927
20
303.5450
30
0
0
VERTEX
8
CUT
10
0.0236
20
303.0260
30
0
0
VERTEX
8
CUT
10
0.0000
20
302.4940
30
0
0
VERTEX
8
CUT
10
0.0000
20
0.0000
30
0
0
VERTEX
8
CUT
10
528.0000
20
0.0000
30
0
0
SEQEND
8
CUT
0
POLYLINE
8
CUT
66
1
10
0
20
0
30
0
70
1
0
VERTEX
8
CUT
10
141.0000
20
102.0000
30
0
0
VERTEX
8
CUT
10
141.0000
20
293.0000
30
0
0
VERTEX
8
CUT
10
419.0000
20
293.0000
30
0
0
VERTEX
8
CUT
10
419.0000
20
102.0000
30
0
0
SEQEND
8
CUT
0
POLYLINE
8
CUT
66
1
10
0
20
0
30
0
70
1
0
VERTEX
8
CUT
10
440.0000
20
106.0000
30
0
0
VERTEX
8
CUT
10
440.0000
20
286.0000
30
0
0
VERTEX
8
CUT
10
470.0000
20
286.0000
30
0
0
VERTEX
8
CUT
10
470.0000
20
106.0000
30
0
0
SEQEND
8
CUT
0
POLYLINE
8
CUT
66
1
10
0
20
0
30
0
70
1
0
VERTEX
8
CUT
10
8.5000
20
168.5000
30
0
0
VERTEX
8
CUT
10
8.5000
20
281.5000
30
0
0
VERTEX
8
CUT
10
113.5000
20
281.5000
30
0
0
VERTEX
8
CUT
10
113.5000
20
168.5000
30
0
0
SEQEND
8
CUT
0
POLYLINE
8
CUT
66
1
10
0
20
0
30
0
70
1
0
VERTEX
8
CUT
10
36.0000
20
10.0000
30
0
0
VERTEX
8
CUT
10
36.0000
20
88.0000
30
0
0
VERTEX
8
CUT
10
194.0000
20
88.0000
30
0
0
VERTEX
8
CUT
10
194.0000
20
10.0000
30
0
0
SEQEND
8
CUT
0
POLYLINE
8
CUT
66
1
10
0
20
0
30
0
70
1
0
VERTEX
8
CUT
10
436.5140
20
8.1522
30
0
0
VERTEX
8
CUT
10
433.0540
20
8.6077
30
0
0
VERTEX
8
CUT
10
429.6470
20
9.3630
30
0
0
VERTEX
8
CUT
10
426.3190
20
10.4123
30
0
0
VERTEX
8
CUT
10
423.0950
20
11.7477
30
0
0
VERTEX
8
CUT
10
420.0000
20
13.3589
30
0
0
VERTEX
8
CUT
10
417.0570
20
15.2339
30
0
0
VERTEX
8
CUT
10
414.2880
20
17.3582
30
0
0
VERTEX
8
CUT
10
411.7160
20
19.7157
30
0
0
VERTEX
8
CUT
10
409.3580
20
22.2885
30
0
0
VERTEX
8
CUT
10
407.2340
20
25.0570
30
0
0
VERTEX
8
CUT
10
405.3590
20
28.0001
30
0
0
VERTEX
8
CUT
10
403.7480
20
31.0952
30
0
0
VERTEX
8
CUT
10
402.4120
20
34.3192
30
0
0
VERTEX
8
CUT
10
401.3630
20
37.6471
30
0
0
VERTEX
8
CUT
10
400.6080
20
41.0542
30
0
0
VERTEX
8
CUT
10
400.1520
20
44.5137
30
0
0
VERTEX
8
CUT
10
400.0000
20
48.0000
30
0
0
VERTEX
8
CUT
10
400.1520
20
51.4863
30
0
0
VERTEX
8
CUT
10
400.6080
20
54.9458
30
0
0
VERTEX
8
CUT
10
401.3630
20
58.3529
30
0
0
VERTEX
8
CUT
10
402.4120
20
61.6808
30
0
0
VERTEX
8
CUT
10
403.7480
20
64.9048
30
0
0
VERTEX
8
CUT
10
405.3590
20
67.9999
30
0
0
VERTEX
8
CUT
10
407.2340
20
70.9430
30
0
0
VERTEX
8
CUT
10
409.3580
20
73.7115
30
0
0
VERTEX
8
CUT
10
411.7160
20
76.2843
30
0
0
VERTEX
8
CUT
10
414.2880
20
78.6418
30
0
0
VERTEX
8
CUT
10
417.0570
20
80.7661
30
0
0
VERTEX
8
CUT
10
420.0000
20
82.6411
30
0
0
VERTEX
8
CUT
10
423.0950
20
84.2523
30
0
0
VERTEX
8
CUT
10
426.3190
20
85.5877
30
0
0
VERTEX
8
CUT
10
429.6470
20
86.6370
30
0
0
VERTEX
8
CUT
10
433.0540
20
87.3923
30
0
0
VERTEX
8
CUT
10
436.5140
20
87.8478
30
0
0
VERTEX
8
CUT
10
440.0000
20
88.0000
30
0
0
VERTEX
8
CUT
10
443.4860
20
87.8478
30
0
0
VERTEX
8
CUT
10
446.9460
20
87.3923
30
0
0
VERTEX
8
CUT
10
450.3530
20
86.6370
30
0
0
VERTEX
8
CUT
10
453.6810
20
85.5877
30
0
0
VERTEX
8
CUT
10
456.9050
20
84.2523
30
0
0
VERTEX
8
CUT
10
460.0000
20
82.6411
30
0
0
VERTEX
8
CUT
10
462.9430
20
80.7661
30
0
0
VERTEX
8
CUT
10
465.7120
20
78.6418
30
0
0
VERTEX
8
CUT
10
468.2840
20
76.2843
30
0
0
VERTEX
8
CUT
10
470.6420
20
73.7115
30
0
0
VERTEX
8
CUT
10
472.7660
20
70.9430
30
0
0
VERTEX
8
CUT
10
474.6410
20
67.9999
30
0
0
VERTEX
8
CUT
10
476.2520
20
64.9048
30
0
0
VERTEX
8
CUT
10
477.5880
20
61.6808
30
0
0
VERTEX
8
CUT
10
478.6370
20
58.3529
30
0
0
VERTEX
8
CUT
10
479.3920
20
54.9458
30
0
0
VERTEX
8
CUT
10
479.8480
20
51.4863
30
0
0
VERTEX
8
CUT
10
480.0000
20
48.0000
30
0
0
VERTEX
8
CUT
10
479.8480
20
44.5137
30
0
0
VERTEX
8
CUT
10
479.3920
20
41.0542
30
0
0
VERTEX
8
CUT
10
478.6370
20
37.6471
30
0
0
VERTEX
8
CUT
10
477.5880
20
34.3192
30
0
0
VERTEX
8
CUT
10
476.2520
20
31.0952
30
0
0
VERTEX
8
CUT
10
474.6410
20
28.0001
30
0
0
VERTEX
8
CUT
10
472.7660
20
25.0570
30
0
0
VERTEX
8
CUT
10
470.6420
20
22.2885
30
0
0
VERTEX
8
CUT
10
468.2840
20
19.7157
30
0
0
VERTEX
8
CUT
10
465.7120
20
17.3582
30
0
0
VERTEX
8
CUT
10
462.9430
20
15.2339
30
0
0
VERTEX
8
CUT
10
460.0000
20
13.3589
30
0
0
VERTEX
8
CUT
10
456.9050
20
11.7477
30
0
0
VERTEX
8
CUT
10
453.6810
20
10.4123
30
0
0
VERTEX
8
CUT
10
450.3530
20
9.3630
30
0
0
VERTEX
8
CUT
10
446.9460
20
8.6077
30
0
0
VERTEX
8
CUT
10
443.4860
20
8.1522
30
0
0
VERTEX
8
CUT
10
440.0000
20
8.0000
30
0
0
SEQEND
8
CUT
0
POLYLINE
8
CUT
66
1
10
0
20
0
30
0
70
1
0
VERTEX
8
CUT
10
277.3850
20
18.1142
30
0
0
VERTEX
8
CUT
10
274.7910
20
18.4558
30
0
0
VERTEX
8
CUT
10
272.2350
20
19.0222
30
0
0
VERTEX
8
CUT
10
269.7390
20
19.8092
30
0
0
VERTEX
8
CUT
10
267.3220
20
20.8107
30
0
0
VERTEX
8
CUT
10
265.0000
20
22.0193
30
0
0
VERTEX
8
CUT
10
262.7930
20
23.4254
30
0
0
VERTEX
8
CUT
10
260.7160
20
25.0187
30
0
0
VERTEX
8
CUT
10
258.7870
20
26.7868
30
0
0
VERTEX
8
CUT
10
257.0190
20
28.7164
30
0
0
VERTEX
8
CUT
10
255.4250
20
30.7927
30
0
0
VERTEX
8
CUT
10
254.0190
20
32.9999
30
0
0
VERTEX
8
CUT
10
252.8110
20
35.3215
30
0
0
VERTEX
8
CUT
10
251.8090
20
37.7394
30
0
0
VERTEX
8
CUT
10
251.0220
20
40.2353
30
0
0
VERTEX
8
CUT
10
250.4560
20
42.7906
30
0
0
VERTEX
8
CUT
10
250.1140
20
45.3853
30
0
0
VERTEX
8
CUT
10
250.0000
20
48.0000
30
0
0
VERTEX
8
CUT
10
250.1140
20
50.6147
30
0
0
VERTEX
8
CUT
10
250.4560
20
53.2094
30
0
0
VERTEX
8
CUT
10
251.0220
20
55.7647
30
0
0
VERTEX
8
CUT
10
251.8090
20
58.2606
30
0
0
VERTEX
8
CUT
10
252.8110
20
60.6785
30
0
0
VERTEX
8
CUT
10
254.0190
20
63.0001
30
0
0
VERTEX
8
CUT
10
255.4250
20
65.2073
30
0
0
VERTEX
8
CUT
10
257.0190
20
67.2836
30
0
0
VERTEX
8
CUT
10
258.7870
20
69.2132
30
0
0
VERTEX
8
CUT
10
260.7160
20
70.9813
30
0
0
VERTEX
8
CUT
10
262.7930
20
72.5746
30
0
0
VERTEX
8
CUT
10
265.0000
20
73.9807
30
0
0
VERTEX
8
CUT
10
267.3220
20
75.1893
30
0
0
VERTEX
8
CUT
10
269.7390
20
76.1908
30
0
0
VERTEX
8
CUT
10
272.2350
20
76.9778
30
0
0
VERTEX
8
CUT
10
274.7910
20
77.5442
30
0
0
VERTEX
8
CUT
10
277.3850
20
77.8858
30
0
0
VERTEX
8
CUT
10
280.0000
20
78.0000
30
0
0
VERTEX
8
CUT
10
282.6150
20
77.8858
30
0
0
VERTEX
8
CUT
10
285.2090
20
77.5442
30
0
0
VERTEX
8
CUT
10
287.7650
20
76.9778
30
0
0
VERTEX
8
CUT
10
290.2610
20
76.1908
30
0
0
VERTEX
8
CUT
10
292.6780
20
75.1893
30
0
0
VERTEX
8
CUT
10
295.0000
20
73.9807
30
0
0
VERTEX
8
CUT
10
297.2070
20
72.5746
30
0
0
VERTEX
8
CUT
10
299.2840
20
70.9813
30
0
0
VERTEX
8
CUT
10
301.2130
20
69.2132
30
0
0
VERTEX
8
CUT
10
302.9810
20
67.2836
30
0
0
VERTEX
8
CUT
10
304.5750
20
65.2073
30
0
0
VERTEX
8
CUT
10
305.9810
20
63.0001
30
0
0
VERTEX
8
CUT
10
307.1890
20
60.6785
30
0
0
VERTEX
8
CUT
10
308.1910
20
58.2606
30
0
0
VERTEX
8
CUT
10
308.9780
20
55.7647
30
0
0
VERTEX
8
CUT
10
309.5440
20
53.2094
30
0
0
VERTEX
8
CUT
10
309.8860
20
50.6147
30
0
0
VERTEX
8
CUT
10
310.0000
20
48.0000
30
0
0
VERTEX
8
CUT
10
309.8860
20
45.3853
30
0
0
VERTEX
8
CUT
10
309.5440
20
42.7906
30
0
0
VERTEX
8
CUT
10
308.9780
20
40.2353
30
0
0
VERTEX
8
CUT
10
308.1910
20
37.7394
30
0
0
VERTEX
8
CUT
10
307.1890
20
35.3215
30
0
0
VERTEX
8
CUT
10
305.9810
20
32.9999
30
0
0
VERTEX
8
CUT
10
304.5750
20
30.7927
30
0
0
VERTEX
8
CUT
10
302.9810
20
28.7164
30
0
0
VERTEX
8
CUT
10
301.2130
20
26.7868
30
0
0
VERTEX
8
CUT
10
299.2840
20
25.0187
30
0
0
VERTEX
8
CUT
10
297.2070
20
23.4254
30
0
0
VERTEX
8
CUT
10
295.0000
20
22.0193
30
0
0
VERTEX
8
CUT
10
292.6780
20
20.8107
30
0
0
VERTEX
8
CUT
10
290.2610
20
19.8092
30
0
0
VERTEX
8
CUT
10
287.7650
20
19.0222
30
0
0
VERTEX
8
CUT
10
285.2090
20
18.4558
30
0
0
VERTEX
8
CUT
10
282.6150
20
18.1142
30
0
0
VERTEX
8
CUT
10
280.0000
20
18.0000
30
0
0
SEQEND
8
CUT
0
CIRCLE
8
DRILL
10
455.0000
20
290.0000
30
0
40
1.7000
0
CIRCLE
8
DRILL
10
424.0000
20
284.0000
30
0
40
1.7000
0
CIRCLE
8
DRILL
10
136.0000
20
284.0000
30
0
40
1.7000
0
CIRCLE
8
DRILL
10
486.0000
20
284.0000
30
0
40
1.7000
0
CIRCLE
8
DRILL
10
114.5000
20
282.5000
30
0
40
1.3000
0
CIRCLE
8
DRILL
10
7.5000
20
282.5000
30
0
40
1.3000
0
CIRCLE
8
DRILL
10
114.5000
20
167.5000
30
0
40
1.3000
0
CIRCLE
8
DRILL
10
7.5000
20
167.5000
30
0
40
1.3000
0
CIRCLE
8
DRILL
10
10.0000
20
128.0000
30
0
40
2.2500
0
CIRCLE
8
DRILL
10
486.0000
20
108.0000
30
0
40
1.7000
0
CIRCLE
8
DRILL
10
424.0000
20
108.0000
30
0
40
1.7000
0
CIRCLE
8
DRILL
10
136.0000
20
108.0000
30
0
40
1.7000
0
CIRCLE
8
DRILL
10
455.0000
20
102.0000
30
0
40
1.7000
0
CIRCLE
8
DRILL
10
195.0000
20
89.0000
30
0
40
1.3000
0
CIRCLE
8
DRILL
10
35.0000
20
89.0000
30
0
40
1.3000
0
CIRCLE
8
DRILL
10
404.0000
20
84.0000
30
0
40
1.3000
0
CIRCLE
8
DRILL
10
476.0000
20
84.0000
30
0
40
1.3000
0
CIRCLE
8
DRILL
10
492.0000
20
84.0000
30
0
40
1.3000
0
CIRCLE
8
DRILL
10
261.2500
20
80.4759
30
0
40
1.3000
0
CIRCLE
8
DRILL
10
317.5000
20
48.0000
30
0
40
1.3000
0
CIRCLE
8
DRILL
10
261.2500
20
15.5241
30
0
40
1.3000
0
CIRCLE
8
DRILL
10
476.0000
20
12.0000
30
0
40
1.3000
0
CIRCLE
8
DRILL
10
492.0000
20
12.0000
30
0
40
1.3000
0
CIRCLE
8
DRILL
10
404.0000
20
12.0000
30
0
40
1.3000
0
CIRCLE
8
DRILL
10
35.0000
20
9.0000
30
0
40
1.3000
0
CIRCLE
8
DRILL
10
195.0000
20
9.0000
30
0
40
1.3000
0
ENDSEC
0
EOF
