0
SECTION
2
HEADER
9
$ACADVER
1
AC1009
9
$INSUNITS
70
4
0
ENDSEC
0
SECTION
2
TABLES
0
TABLE
2
LAYER
70
2
0
LAYER
2
OUTLINE
70
0
62
7
6
CONTINUOUS
0
LAYER
2
BACK_PILOTS
70
0
62
6
6
CONTINUOUS
0
ENDTAB
0
ENDSEC
0
SECTION
2
ENTITIES
0
POLYLINE
8
OUTLINE
66
1
10
0
20
0
30
0
70
1
0
VERTEX
8
OUTLINE
10
0.0000
20
310.2120
30
0
0
VERTEX
8
OUTLINE
10
0.0230
20
310.7350
30
0
0
VERTEX
8
OUTLINE
10
0.0910
20
311.2540
30
0
0
VERTEX
8
OUTLINE
10
0.2040
20
311.7650
30
0
0
VERTEX
8
OUTLINE
10
0.3620
20
312.2640
30
0
0
VERTEX
8
OUTLINE
10
0.5620
20
312.7470
30
0
0
VERTEX
8
OUTLINE
10
0.8040
20
313.2120
30
0
0
VERTEX
8
OUTLINE
10
1.0850
20
313.6530
30
0
0
VERTEX
8
OUTLINE
10
1.4040
20
314.0680
30
0
0
VERTEX
8
OUTLINE
10
1.7570
20
314.4540
30
0
0
VERTEX
8
OUTLINE
10
2.1430
20
314.8080
30
0
0
VERTEX
8
OUTLINE
10
2.5590
20
315.1270
30
0
0
VERTEX
8
OUTLINE
10
3.0000
20
315.4080
30
0
0
VERTEX
8
OUTLINE
10
3.4640
20
315.6490
30
0
0
VERTEX
8
OUTLINE
10
3.9480
20
315.8500
30
0
0
VERTEX
8
OUTLINE
10
4.4470
20
316.0070
30
0
0
VERTEX
8
OUTLINE
10
4.9580
20
316.1200
30
0
0
VERTEX
8
OUTLINE
10
5.6010
20
316.1980
30
0
0
VERTEX
8
OUTLINE
10
20.2380
20
317.1740
30
0
0
VERTEX
8
OUTLINE
10
20.2610
20
317.1750
30
0
0
VERTEX
8
OUTLINE
10
40.4880
20
318.4440
30
0
0
VERTEX
8
OUTLINE
10
40.5120
20
318.4450
30
0
0
VERTEX
8
OUTLINE
10
60.7380
20
319.6350
30
0
0
VERTEX
8
OUTLINE
10
60.7620
20
319.6360
30
0
0
VERTEX
8
OUTLINE
10
80.9890
20
320.7470
30
0
0
VERTEX
8
OUTLINE
10
81.0120
20
320.7480
30
0
0
VERTEX
8
OUTLINE
10
101.2390
20
321.7790
30
0
0
VERTEX
8
OUTLINE
10
101.2620
20
321.7800
30
0
0
VERTEX
8
OUTLINE
10
121.4890
20
322.7320
30
0
0
VERTEX
8
OUTLINE
10
121.5130
20
322.7330
30
0
0
VERTEX
8
OUTLINE
10
141.7350
20
323.6060
30
0
0
VERTEX
8
OUTLINE
10
141.7590
20
323.6070
30
0
0
VERTEX
8
OUTLINE
10
161.9890
20
324.4010
30
0
0
VERTEX
8
OUTLINE
10
162.0130
20
324.4020
30
0
0
VERTEX
8
OUTLINE
10
182.2393
20
325.1170
30
0
0
VERTEX
8
OUTLINE
10
182.2628
20
325.1170
30
0
0
VERTEX
8
OUTLINE
10
202.4893
20
325.7530
30
0
0
VERTEX
8
OUTLINE
10
202.5127
20
325.7540
30
0
0
VERTEX
8
OUTLINE
10
222.7354
20
326.3100
30
0
0
VERTEX
8
OUTLINE
10
222.7589
20
326.3110
30
0
0
VERTEX
8
OUTLINE
10
242.9894
20
326.7880
30
0
0
VERTEX
8
OUTLINE
10
243.0128
20
326.7880
30
0
0
VERTEX
8
OUTLINE
10
263.2392
20
327.1870
30
0
0
VERTEX
8
OUTLINE
10
263.2627
20
327.1870
30
0
0
VERTEX
8
OUTLINE
10
282.0000
20
327.4820
30
0
0
VERTEX
8
OUTLINE
10
282.0000
20
293.0000
30
0
0
VERTEX
8
OUTLINE
10
41.0000
20
293.0000
30
0
0
VERTEX
8
OUTLINE
10
41.0000
20
102.0000
30
0
0
VERTEX
8
OUTLINE
10
282.0000
20
102.0000
30
0
0
VERTEX
8
OUTLINE
10
282.0000
20
88.0000
30
0
0
VERTEX
8
OUTLINE
10
278.5138
20
87.8478
30
0
0
VERTEX
8
OUTLINE
10
275.0542
20
87.3923
30
0
0
VERTEX
8
OUTLINE
10
271.6471
20
86.6370
30
0
0
VERTEX
8
OUTLINE
10
268.3192
20
85.5877
30
0
0
VERTEX
8
OUTLINE
10
265.0952
20
84.2523
30
0
0
VERTEX
8
OUTLINE
10
262.0001
20
82.6411
30
0
0
VERTEX
8
OUTLINE
10
259.0570
20
80.7661
30
0
0
VERTEX
8
OUTLINE
10
256.2885
20
78.6418
30
0
0
VERTEX
8
OUTLINE
10
253.7157
20
76.2843
30
0
0
VERTEX
8
OUTLINE
10
251.3582
20
73.7115
30
0
0
VERTEX
8
OUTLINE
10
249.2339
20
70.9430
30
0
0
VERTEX
8
OUTLINE
10
247.3589
20
67.9999
30
0
0
VERTEX
8
OUTLINE
10
245.7477
20
64.9048
30
0
0
VERTEX
8
OUTLINE
10
244.4123
20
61.6808
30
0
0
VERTEX
8
OUTLINE
10
243.3630
20
58.3529
30
0
0
VERTEX
8
OUTLINE
10
242.6077
20
54.9458
30
0
0
VERTEX
8
OUTLINE
10
242.1522
20
51.4863
30
0
0
VERTEX
8
OUTLINE
10
242.0000
20
48.0000
30
0
0
VERTEX
8
OUTLINE
10
242.1522
20
44.5137
30
0
0
VERTEX
8
OUTLINE
10
242.6077
20
41.0542
30
0
0
VERTEX
8
OUTLINE
10
243.3630
20
37.6471
30
0
0
VERTEX
8
OUTLINE
10
244.4123
20
34.3192
30
0
0
VERTEX
8
OUTLINE
10
245.7477
20
31.0952
30
0
0
VERTEX
8
OUTLINE
10
247.3589
20
28.0001
30
0
0
VERTEX
8
OUTLINE
10
249.2339
20
25.0570
30
0
0
VERTEX
8
OUTLINE
10
251.3582
20
22.2885
30
0
0
VERTEX
8
OUTLINE
10
253.7157
20
19.7157
30
0
0
VERTEX
8
OUTLINE
10
256.2885
20
17.3582
30
0
0
VERTEX
8
OUTLINE
10
259.0570
20
15.2339
30
0
0
VERTEX
8
OUTLINE
10
262.0001
20
13.3589
30
0
0
VERTEX
8
OUTLINE
10
265.0952
20
11.7477
30
0
0
VERTEX
8
OUTLINE
10
268.3192
20
10.4123
30
0
0
VERTEX
8
OUTLINE
10
271.6471
20
9.3630
30
0
0
VERTEX
8
OUTLINE
10
275.0542
20
8.6077
30
0
0
VERTEX
8
OUTLINE
10
278.5138
20
8.1522
30
0
0
VERTEX
8
OUTLINE
10
282.0000
20
8.0000
30
0
0
VERTEX
8
OUTLINE
10
282.0000
20
0.0000
30
0
0
VERTEX
8
OUTLINE
10
0.0000
20
0.0000
30
0
0
SEQEND
8
OUTLINE
0
CIRCLE
8
BACK_PILOTS
10
262.0000
20
309.1640
30
0
40
1.3000
0
CIRCLE
8
BACK_PILOTS
10
160.0000
20
306.3270
30
0
40
1.3000
0
CIRCLE
8
BACK_PILOTS
10
120.0000
20
304.6650
30
0
40
1.3000
0
CIRCLE
8
BACK_PILOTS
10
20.0000
20
299.1580
30
0
40
1.3000
0
CIRCLE
8
BACK_PILOTS
10
34.0000
20
283.9500
30
0
40
1.3000
0
CIRCLE
8
BACK_PILOTS
10
34.0000
20
115.4500
30
0
40
1.3000
0
CIRCLE
8
BACK_PILOTS
10
113.5000
20
12.0000
30
0
40
1.3000
0
CIRCLE
8
BACK_PILOTS
10
35.5000
20
10.0000
30
0
40
1.3000
0
CIRCLE
8
BACK_PILOTS
10
85.5000
20
10.0000
30
0
40
1.3000
0
ENDSEC
0
EOF
