0
SECTION
2
HEADER
9
$ACADVER
1
AC1009
9
$INSUNITS
70
4
0
ENDSEC
0
SECTION
2
TABLES
0
TABLE
2
LAYER
70
2
0
LAYER
2
CUT
70
0
62
7
6
CONTINUOUS
0
LAYER
2
DRILL
70
0
62
1
6
CONTINUOUS
0
ENDTAB
0
ENDSEC
0
SECTION
2
ENTITIES
0
POLYLINE
8
CUT
66
1
10
0
20
0
30
0
70
1
0
VERTEX
8
CUT
10
282.0000
20
310.2120
30
0
0
VERTEX
8
CUT
10
281.9770
20
310.7350
30
0
0
VERTEX
8
CUT
10
281.9090
20
311.2540
30
0
0
VERTEX
8
CUT
10
281.7960
20
311.7650
30
0
0
VERTEX
8
CUT
10
281.6380
20
312.2640
30
0
0
VERTEX
8
CUT
10
281.4380
20
312.7470
30
0
0
VERTEX
8
CUT
10
281.1960
20
313.2120
30
0
0
VERTEX
8
CUT
10
280.9150
20
313.6530
30
0
0
VERTEX
8
CUT
10
280.5960
20
314.0680
30
0
0
VERTEX
8
CUT
10
280.2430
20
314.4540
30
0
0
VERTEX
8
CUT
10
279.8570
20
314.8080
30
0
0
VERTEX
8
CUT
10
279.4410
20
315.1270
30
0
0
VERTEX
8
CUT
10
279.0000
20
315.4080
30
0
0
VERTEX
8
CUT
10
278.5360
20
315.6490
30
0
0
VERTEX
8
CUT
10
278.0520
20
315.8500
30
0
0
VERTEX
8
CUT
10
277.5530
20
316.0070
30
0
0
VERTEX
8
CUT
10
277.0420
20
316.1200
30
0
0
VERTEX
8
CUT
10
276.3990
20
316.1980
30
0
0
VERTEX
8
CUT
10
261.7620
20
317.1740
30
0
0
VERTEX
8
CUT
10
261.7390
20
317.1750
30
0
0
VERTEX
8
CUT
10
241.5120
20
318.4440
30
0
0
VERTEX
8
CUT
10
241.4880
20
318.4450
30
0
0
VERTEX
8
CUT
10
221.2620
20
319.6350
30
0
0
VERTEX
8
CUT
10
221.2380
20
319.6360
30
0
0
VERTEX
8
CUT
10
201.0110
20
320.7470
30
0
0
VERTEX
8
CUT
10
200.9880
20
320.7480
30
0
0
VERTEX
8
CUT
10
180.7610
20
321.7790
30
0
0
VERTEX
8
CUT
10
180.7380
20
321.7800
30
0
0
VERTEX
8
CUT
10
160.5110
20
322.7320
30
0
0
VERTEX
8
CUT
10
160.4870
20
322.7330
30
0
0
VERTEX
8
CUT
10
140.2650
20
323.6060
30
0
0
VERTEX
8
CUT
10
140.2410
20
323.6070
30
0
0
VERTEX
8
CUT
10
120.0110
20
324.4010
30
0
0
VERTEX
8
CUT
10
119.9870
20
324.4020
30
0
0
VERTEX
8
CUT
10
99.7607
20
325.1170
30
0
0
VERTEX
8
CUT
10
99.7372
20
325.1170
30
0
0
VERTEX
8
CUT
10
79.5107
20
325.7530
30
0
0
VERTEX
8
CUT
10
79.4873
20
325.7540
30
0
0
VERTEX
8
CUT
10
59.2646
20
326.3100
30
0
0
VERTEX
8
CUT
10
59.2411
20
326.3110
30
0
0
VERTEX
8
CUT
10
39.0106
20
326.7880
30
0
0
VERTEX
8
CUT
10
38.9872
20
326.7880
30
0
0
VERTEX
8
CUT
10
18.7608
20
327.1870
30
0
0
VERTEX
8
CUT
10
18.7373
20
327.1870
30
0
0
VERTEX
8
CUT
10
0.0000
20
327.4820
30
0
0
VERTEX
8
CUT
10
0.0000
20
293.0000
30
0
0
VERTEX
8
CUT
10
241.0000
20
293.0000
30
0
0
VERTEX
8
CUT
10
241.0000
20
102.0000
30
0
0
VERTEX
8
CUT
10
0.0000
20
102.0000
30
0
0
VERTEX
8
CUT
10
0.0000
20
88.0000
30
0
0
VERTEX
8
CUT
10
3.4863
20
87.8478
30
0
0
VERTEX
8
CUT
10
6.9458
20
87.3923
30
0
0
VERTEX
8
CUT
10
10.3529
20
86.6370
30
0
0
VERTEX
8
CUT
10
13.6808
20
85.5877
30
0
0
VERTEX
8
CUT
10
16.9048
20
84.2523
30
0
0
VERTEX
8
CUT
10
19.9999
20
82.6411
30
0
0
VERTEX
8
CUT
10
22.9430
20
80.7661
30
0
0
VERTEX
8
CUT
10
25.7115
20
78.6418
30
0
0
VERTEX
8
CUT
10
28.2843
20
76.2843
30
0
0
VERTEX
8
CUT
10
30.6418
20
73.7115
30
0
0
VERTEX
8
CUT
10
32.7661
20
70.9430
30
0
0
VERTEX
8
CUT
10
34.6411
20
67.9999
30
0
0
VERTEX
8
CUT
10
36.2523
20
64.9048
30
0
0
VERTEX
8
CUT
10
37.5877
20
61.6808
30
0
0
VERTEX
8
CUT
10
38.6370
20
58.3529
30
0
0
VERTEX
8
CUT
10
39.3923
20
54.9458
30
0
0
VERTEX
8
CUT
10
39.8478
20
51.4863
30
0
0
VERTEX
8
CUT
10
40.0000
20
48.0000
30
0
0
VERTEX
8
CUT
10
39.8478
20
44.5137
30
0
0
VERTEX
8
CUT
10
39.3923
20
41.0542
30
0
0
VERTEX
8
CUT
10
38.6370
20
37.6471
30
0
0
VERTEX
8
CUT
10
37.5877
20
34.3192
30
0
0
VERTEX
8
CUT
10
36.2523
20
31.0952
30
0
0
VERTEX
8
CUT
10
34.6411
20
28.0001
30
0
0
VERTEX
8
CUT
10
32.7661
20
25.0570
30
0
0
VERTEX
8
CUT
10
30.6418
20
22.2885
30
0
0
VERTEX
8
CUT
10
28.2843
20
19.7157
30
0
0
VERTEX
8
CUT
10
25.7115
20
17.3582
30
0
0
VERTEX
8
CUT
10
22.9430
20
15.2339
30
0
0
VERTEX
8
CUT
10
19.9999
20
13.3589
30
0
0
VERTEX
8
CUT
10
16.9048
20
11.7477
30
0
0
VERTEX
8
CUT
10
13.6808
20
10.4123
30
0
0
VERTEX
8
CUT
10
10.3529
20
9.3630
30
0
0
VERTEX
8
CUT
10
6.9458
20
8.6077
30
0
0
VERTEX
8
CUT
10
3.4863
20
8.1522
30
0
0
VERTEX
8
CUT
10
0.0000
20
8.0000
30
0
0
VERTEX
8
CUT
10
0.0000
20
0.0000
30
0
0
VERTEX
8
CUT
10
282.0000
20
0.0000
30
0
0
SEQEND
8
CUT
0
POLYLINE
8
CUT
66
1
10
0
20
0
30
0
70
1
0
VERTEX
8
CUT
10
84.5137
20
8.1522
30
0
0
VERTEX
8
CUT
10
81.0542
20
8.6077
30
0
0
VERTEX
8
CUT
10
77.6471
20
9.3630
30
0
0
VERTEX
8
CUT
10
74.3192
20
10.4123
30
0
0
VERTEX
8
CUT
10
71.0952
20
11.7477
30
0
0
VERTEX
8
CUT
10
68.0001
20
13.3589
30
0
0
VERTEX
8
CUT
10
65.0570
20
15.2339
30
0
0
VERTEX
8
CUT
10
62.2885
20
17.3582
30
0
0
VERTEX
8
CUT
10
59.7157
20
19.7157
30
0
0
VERTEX
8
CUT
10
57.3582
20
22.2885
30
0
0
VERTEX
8
CUT
10
55.2339
20
25.0570
30
0
0
VERTEX
8
CUT
10
53.3589
20
28.0001
30
0
0
VERTEX
8
CUT
10
51.7477
20
31.0952
30
0
0
VERTEX
8
CUT
10
50.4123
20
34.3192
30
0
0
VERTEX
8
CUT
10
49.3630
20
37.6471
30
0
0
VERTEX
8
CUT
10
48.6077
20
41.0542
30
0
0
VERTEX
8
CUT
10
48.1522
20
44.5137
30
0
0
VERTEX
8
CUT
10
48.0000
20
48.0000
30
0
0
VERTEX
8
CUT
10
48.1522
20
51.4863
30
0
0
VERTEX
8
CUT
10
48.6077
20
54.9458
30
0
0
VERTEX
8
CUT
10
49.3630
20
58.3529
30
0
0
VERTEX
8
CUT
10
50.4123
20
61.6808
30
0
0
VERTEX
8
CUT
10
51.7477
20
64.9048
30
0
0
VERTEX
8
CUT
10
53.3589
20
67.9999
30
0
0
VERTEX
8
CUT
10
55.2339
20
70.9430
30
0
0
VERTEX
8
CUT
10
57.3582
20
73.7115
30
0
0
VERTEX
8
CUT
10
59.7157
20
76.2843
30
0
0
VERTEX
8
CUT
10
62.2885
20
78.6418
30
0
0
VERTEX
8
CUT
10
65.0570
20
80.7661
30
0
0
VERTEX
8
CUT
10
68.0001
20
82.6411
30
0
0
VERTEX
8
CUT
10
71.0952
20
84.2523
30
0
0
VERTEX
8
CUT
10
74.3192
20
85.5877
30
0
0
VERTEX
8
CUT
10
77.6471
20
86.6370
30
0
0
VERTEX
8
CUT
10
81.0542
20
87.3923
30
0
0
VERTEX
8
CUT
10
84.5137
20
87.8478
30
0
0
VERTEX
8
CUT
10
88.0000
20
88.0000
30
0
0
VERTEX
8
CUT
10
91.4863
20
87.8478
30
0
0
VERTEX
8
CUT
10
94.9458
20
87.3923
30
0
0
VERTEX
8
CUT
10
98.3529
20
86.6370
30
0
0
VERTEX
8
CUT
10
101.6810
20
85.5877
30
0
0
VERTEX
8
CUT
10
104.9050
20
84.2523
30
0
0
VERTEX
8
CUT
10
108.0000
20
82.6411
30
0
0
VERTEX
8
CUT
10
110.9430
20
80.7661
30
0
0
VERTEX
8
CUT
10
113.7120
20
78.6418
30
0
0
VERTEX
8
CUT
10
116.2840
20
76.2843
30
0
0
VERTEX
8
CUT
10
118.6420
20
73.7115
30
0
0
VERTEX
8
CUT
10
120.7660
20
70.9430
30
0
0
VERTEX
8
CUT
10
122.6410
20
67.9999
30
0
0
VERTEX
8
CUT
10
124.2520
20
64.9048
30
0
0
VERTEX
8
CUT
10
125.5880
20
61.6808
30
0
0
VERTEX
8
CUT
10
126.6370
20
58.3529
30
0
0
VERTEX
8
CUT
10
127.3920
20
54.9458
30
0
0
VERTEX
8
CUT
10
127.8480
20
51.4863
30
0
0
VERTEX
8
CUT
10
128.0000
20
48.0000
30
0
0
VERTEX
8
CUT
10
127.8480
20
44.5137
30
0
0
VERTEX
8
CUT
10
127.3920
20
41.0542
30
0
0
VERTEX
8
CUT
10
126.6370
20
37.6471
30
0
0
VERTEX
8
CUT
10
125.5880
20
34.3192
30
0
0
VERTEX
8
CUT
10
124.2520
20
31.0952
30
0
0
VERTEX
8
CUT
10
122.6410
20
28.0001
30
0
0
VERTEX
8
CUT
10
120.7660
20
25.0570
30
0
0
VERTEX
8
CUT
10
118.6420
20
22.2885
30
0
0
VERTEX
8
CUT
10
116.2840
20
19.7157
30
0
0
VERTEX
8
CUT
10
113.7120
20
17.3582
30
0
0
VERTEX
8
CUT
10
110.9430
20
15.2339
30
0
0
VERTEX
8
CUT
10
108.0000
20
13.3589
30
0
0
VERTEX
8
CUT
10
104.9050
20
11.7477
30
0
0
VERTEX
8
CUT
10
101.6810
20
10.4123
30
0
0
VERTEX
8
CUT
10
98.3529
20
9.3630
30
0
0
VERTEX
8
CUT
10
94.9458
20
8.6077
30
0
0
VERTEX
8
CUT
10
91.4863
20
8.1522
30
0
0
VERTEX
8
CUT
10
88.0000
20
8.0000
30
0
0
SEQEND
8
CUT
0
CIRCLE
8
DRILL
10
246.0000
20
284.0000
30
0
40
1.7000
0
CIRCLE
8
DRILL
10
272.0000
20
128.0000
30
0
40
2.2500
0
CIRCLE
8
DRILL
10
246.0000
20
108.0000
30
0
40
1.7000
0
CIRCLE
8
DRILL
10
36.0000
20
84.0000
30
0
40
1.3000
0
CIRCLE
8
DRILL
10
52.0000
20
84.0000
30
0
40
1.3000
0
CIRCLE
8
DRILL
10
124.0000
20
84.0000
30
0
40
1.3000
0
CIRCLE
8
DRILL
10
52.0000
20
12.0000
30
0
40
1.3000
0
CIRCLE
8
DRILL
10
124.0000
20
12.0000
30
0
40
1.3000
0
CIRCLE
8
DRILL
10
36.0000
20
12.0000
30
0
40
1.3000
0
ENDSEC
0
EOF
