0
SECTION
2
HEADER
9
$ACADVER
1
AC1009
9
$INSUNITS
70
4
0
ENDSEC
0
SECTION
2
TABLES
0
TABLE
2
LAYER
70
2
0
LAYER
2
OUTLINE
70
0
62
7
6
CONTINUOUS
0
LAYER
2
BACK_PILOTS
70
0
62
6
6
CONTINUOUS
0
ENDTAB
0
ENDSEC
0
SECTION
2
ENTITIES
0
POLYLINE
8
OUTLINE
66
1
10
0
20
0
30
0
70
1
0
VERTEX
8
OUTLINE
10
0.0000
20
8.0000
30
0
0
VERTEX
8
OUTLINE
10
3.4860
20
8.1522
30
0
0
VERTEX
8
OUTLINE
10
6.9460
20
8.6077
30
0
0
VERTEX
8
OUTLINE
10
10.3530
20
9.3630
30
0
0
VERTEX
8
OUTLINE
10
13.6810
20
10.4123
30
0
0
VERTEX
8
OUTLINE
10
16.9050
20
11.7477
30
0
0
VERTEX
8
OUTLINE
10
20.0000
20
13.3589
30
0
0
VERTEX
8
OUTLINE
10
22.9430
20
15.2339
30
0
0
VERTEX
8
OUTLINE
10
25.7120
20
17.3582
30
0
0
VERTEX
8
OUTLINE
10
28.2840
20
19.7157
30
0
0
VERTEX
8
OUTLINE
10
30.6420
20
22.2885
30
0
0
VERTEX
8
OUTLINE
10
32.7660
20
25.0570
30
0
0
VERTEX
8
OUTLINE
10
34.6410
20
28.0001
30
0
0
VERTEX
8
OUTLINE
10
36.2520
20
31.0952
30
0
0
VERTEX
8
OUTLINE
10
37.5880
20
34.3192
30
0
0
VERTEX
8
OUTLINE
10
38.6370
20
37.6471
30
0
0
VERTEX
8
OUTLINE
10
39.3920
20
41.0542
30
0
0
VERTEX
8
OUTLINE
10
39.8480
20
44.5137
30
0
0
VERTEX
8
OUTLINE
10
40.0000
20
48.0000
30
0
0
VERTEX
8
OUTLINE
10
39.8480
20
51.4863
30
0
0
VERTEX
8
OUTLINE
10
39.3920
20
54.9458
30
0
0
VERTEX
8
OUTLINE
10
38.6370
20
58.3529
30
0
0
VERTEX
8
OUTLINE
10
37.5880
20
61.6808
30
0
0
VERTEX
8
OUTLINE
10
36.2520
20
64.9048
30
0
0
VERTEX
8
OUTLINE
10
34.6410
20
67.9999
30
0
0
VERTEX
8
OUTLINE
10
32.7660
20
70.9430
30
0
0
VERTEX
8
OUTLINE
10
30.6420
20
73.7115
30
0
0
VERTEX
8
OUTLINE
10
28.2840
20
76.2843
30
0
0
VERTEX
8
OUTLINE
10
25.7120
20
78.6418
30
0
0
VERTEX
8
OUTLINE
10
22.9430
20
80.7661
30
0
0
VERTEX
8
OUTLINE
10
20.0000
20
82.6411
30
0
0
VERTEX
8
OUTLINE
10
16.9050
20
84.2523
30
0
0
VERTEX
8
OUTLINE
10
13.6810
20
85.5877
30
0
0
VERTEX
8
OUTLINE
10
10.3530
20
86.6370
30
0
0
VERTEX
8
OUTLINE
10
6.9460
20
87.3923
30
0
0
VERTEX
8
OUTLINE
10
3.4860
20
87.8478
30
0
0
VERTEX
8
OUTLINE
10
0.0000
20
88.0000
30
0
0
VERTEX
8
OUTLINE
10
0.0000
20
102.0000
30
0
0
VERTEX
8
OUTLINE
10
37.0000
20
102.0000
30
0
0
VERTEX
8
OUTLINE
10
37.0000
20
293.0000
30
0
0
VERTEX
8
OUTLINE
10
0.0000
20
293.0000
30
0
0
VERTEX
8
OUTLINE
10
0.0000
20
327.4820
30
0
0
VERTEX
8
OUTLINE
10
1.4890
20
327.5060
30
0
0
VERTEX
8
OUTLINE
10
1.5130
20
327.5060
30
0
0
VERTEX
8
OUTLINE
10
21.7350
20
327.7460
30
0
0
VERTEX
8
OUTLINE
10
21.7590
20
327.7460
30
0
0
VERTEX
8
OUTLINE
10
41.9890
20
327.9070
30
0
0
VERTEX
8
OUTLINE
10
42.0130
20
327.9070
30
0
0
VERTEX
8
OUTLINE
10
62.2390
20
327.9890
30
0
0
VERTEX
8
OUTLINE
10
62.2630
20
327.9890
30
0
0
VERTEX
8
OUTLINE
10
82.4890
20
327.9910
30
0
0
VERTEX
8
OUTLINE
10
82.5120
20
327.9910
30
0
0
VERTEX
8
OUTLINE
10
102.7390
20
327.9150
30
0
0
VERTEX
8
OUTLINE
10
102.7620
20
327.9140
30
0
0
VERTEX
8
OUTLINE
10
122.9890
20
327.7590
30
0
0
VERTEX
8
OUTLINE
10
123.0120
20
327.7580
30
0
0
VERTEX
8
OUTLINE
10
143.2350
20
327.5230
30
0
0
VERTEX
8
OUTLINE
10
143.2580
20
327.5230
30
0
0
VERTEX
8
OUTLINE
10
163.4890
20
327.2090
30
0
0
VERTEX
8
OUTLINE
10
163.5120
20
327.2090
30
0
0
VERTEX
8
OUTLINE
10
183.7390
20
326.8150
30
0
0
VERTEX
8
OUTLINE
10
183.7620
20
326.8150
30
0
0
VERTEX
8
OUTLINE
10
203.9890
20
326.3420
30
0
0
VERTEX
8
OUTLINE
10
204.0120
20
326.3420
30
0
0
VERTEX
8
OUTLINE
10
224.2390
20
325.7900
30
0
0
VERTEX
8
OUTLINE
10
224.2620
20
325.7900
30
0
0
VERTEX
8
OUTLINE
10
244.4890
20
325.1590
30
0
0
VERTEX
8
OUTLINE
10
244.5120
20
325.1580
30
0
0
VERTEX
8
OUTLINE
10
264.7390
20
324.4480
30
0
0
VERTEX
8
OUTLINE
10
264.7620
20
324.4470
30
0
0
VERTEX
8
OUTLINE
10
284.9890
20
323.6590
30
0
0
VERTEX
8
OUTLINE
10
285.0120
20
323.6580
30
0
0
VERTEX
8
OUTLINE
10
305.2350
20
322.7900
30
0
0
VERTEX
8
OUTLINE
10
305.2580
20
322.7890
30
0
0
VERTEX
8
OUTLINE
10
325.4890
20
321.8410
30
0
0
VERTEX
8
OUTLINE
10
325.5130
20
321.8400
30
0
0
VERTEX
8
OUTLINE
10
345.7390
20
320.8140
30
0
0
VERTEX
8
OUTLINE
10
345.7630
20
320.8120
30
0
0
VERTEX
8
OUTLINE
10
365.9890
20
319.7070
30
0
0
VERTEX
8
OUTLINE
10
366.0130
20
319.7060
30
0
0
VERTEX
8
OUTLINE
10
386.2360
20
318.5210
30
0
0
VERTEX
8
OUTLINE
10
386.2600
20
318.5200
30
0
0
VERTEX
8
OUTLINE
10
406.4900
20
317.2560
30
0
0
VERTEX
8
OUTLINE
10
406.5140
20
317.2540
30
0
0
VERTEX
8
OUTLINE
10
426.7370
20
315.9120
30
0
0
VERTEX
8
OUTLINE
10
426.7600
20
315.9100
30
0
0
VERTEX
8
OUTLINE
10
446.9909
20
314.4880
30
0
0
VERTEX
8
OUTLINE
10
447.0142
20
314.4860
30
0
0
VERTEX
8
OUTLINE
10
467.2377
20
312.9850
30
0
0
VERTEX
8
OUTLINE
10
467.2610
20
312.9830
30
0
0
VERTEX
8
OUTLINE
10
487.4882
20
311.4030
30
0
0
VERTEX
8
OUTLINE
10
487.5114
20
311.4010
30
0
0
VERTEX
8
OUTLINE
10
507.7390
20
309.7420
30
0
0
VERTEX
8
OUTLINE
10
507.7622
20
309.7400
30
0
0
VERTEX
8
OUTLINE
10
522.5138
20
308.4720
30
0
0
VERTEX
8
OUTLINE
10
523.0329
20
308.4040
30
0
0
VERTEX
8
OUTLINE
10
523.5441
20
308.2920
30
0
0
VERTEX
8
OUTLINE
10
524.0435
20
308.1350
30
0
0
VERTEX
8
OUTLINE
10
524.5274
20
307.9350
30
0
0
VERTEX
8
OUTLINE
10
524.9921
20
307.6940
30
0
0
VERTEX
8
OUTLINE
10
525.4340
20
307.4140
30
0
0
VERTEX
8
OUTLINE
10
525.8497
20
307.0960
30
0
0
VERTEX
8
OUTLINE
10
526.2362
20
306.7430
30
0
0
VERTEX
8
OUTLINE
10
526.5904
20
306.3570
30
0
0
VERTEX
8
OUTLINE
10
526.9097
20
305.9430
30
0
0
VERTEX
8
OUTLINE
10
527.1916
20
305.5020
30
0
0
VERTEX
8
OUTLINE
10
527.4340
20
305.0380
30
0
0
VERTEX
8
OUTLINE
10
527.6350
20
304.5540
30
0
0
VERTEX
8
OUTLINE
10
527.7932
20
304.0550
30
0
0
VERTEX
8
OUTLINE
10
527.9073
20
303.5450
30
0
0
VERTEX
8
OUTLINE
10
527.9764
20
303.0260
30
0
0
VERTEX
8
OUTLINE
10
528.0000
20
302.4940
30
0
0
VERTEX
8
OUTLINE
10
528.0000
20
0.0000
30
0
0
VERTEX
8
OUTLINE
10
0.0000
20
0.0000
30
0
0
SEQEND
8
OUTLINE
0
CIRCLE
8
BACK_PILOTS
10
394.0000
20
283.9500
30
0
40
1.3000
0
CIRCLE
8
BACK_PILOTS
10
102.0000
20
283.9500
30
0
40
1.3000
0
CIRCLE
8
BACK_PILOTS
10
44.0000
20
283.9500
30
0
40
1.3000
0
CIRCLE
8
BACK_PILOTS
10
394.0000
20
115.4500
30
0
40
1.3000
0
CIRCLE
8
BACK_PILOTS
10
102.0000
20
115.4500
30
0
40
1.3000
0
CIRCLE
8
BACK_PILOTS
10
44.0000
20
115.4500
30
0
40
1.3000
0
ENDSEC
0
EOF
