  0
SECTION
  2
BLOCKS
  0
ENDSEC
  0
SECTION
  2
ENTITIES
  0
LINE
  8
0
 10
-26.8518
 20
53.3065
 11
-26.7048
 21
53.3258
  0
LINE
  8
0
 10
-26.7048
 20
53.3258
 11
-26.56
 21
53.3579
  0
LINE
  8
0
 10
-26.56
 20
53.3579
 11
-26.4186
 21
53.4025
  0
LINE
  8
0
 10
-26.4186
 20
53.4025
 11
-26.2815
 21
53.4593
  0
LINE
  8
0
 10
-26.2815
 20
53.4593
 11
-26.15
 21
53.5278
  0
LINE
  8
0
 10
-26.15
 20
53.5278
 11
-26.0249
 21
53.6074
  0
LINE
  8
0
 10
-26.0249
 20
53.6074
 11
-25.9073
 21
53.6977
  0
LINE
  8
0
 10
-25.9073
 20
53.6977
 11
-25.7979
 21
53.7979
  0
LINE
  8
0
 10
-25.7979
 20
53.7979
 11
-25.6977
 21
53.9073
  0
LINE
  8
0
 10
-25.6977
 20
53.9073
 11
-25.6074
 21
54.0249
  0
LINE
  8
0
 10
-25.6074
 20
54.0249
 11
-25.5278
 21
54.15
  0
LINE
  8
0
 10
-25.5278
 20
54.15
 11
-25.4593
 21
54.2815
  0
LINE
  8
0
 10
-25.4593
 20
54.2815
 11
-25.4025
 21
54.4186
  0
LINE
  8
0
 10
-25.4025
 20
54.4186
 11
-25.3579
 21
54.56
  0
LINE
  8
0
 10
-25.3579
 20
54.56
 11
-25.3258
 21
54.7048
  0
LINE
  8
0
 10
-25.3258
 20
54.7048
 11
-25.3065
 21
54.8518
  0
LINE
  8
0
 10
-25.3065
 20
54.8518
 11
-25.3
 21
55
  0
LINE
  8
0
 10
-25.3
 20
55
 11
-25.3065
 21
55.1482
  0
LINE
  8
0
 10
-25.3065
 20
55.1482
 11
-25.3258
 21
55.2952
  0
LINE
  8
0
 10
-25.3258
 20
55.2952
 11
-25.3579
 21
55.44
  0
LINE
  8
0
 10
-25.3579
 20
55.44
 11
-25.4025
 21
55.5814
  0
LINE
  8
0
 10
-25.4025
 20
55.5814
 11
-25.4593
 21
55.7184
  0
LINE
  8
0
 10
-25.4593
 20
55.7184
 11
-25.5278
 21
55.85
  0
LINE
  8
0
 10
-25.5278
 20
55.85
 11
-25.6074
 21
55.9751
  0
LINE
  8
0
 10
-25.6074
 20
55.9751
 11
-25.6977
 21
56.0927
  0
LINE
  8
0
 10
-25.6977
 20
56.0927
 11
-25.7979
 21
56.2021
  0
LINE
  8
0
 10
-25.7979
 20
56.2021
 11
-25.9073
 21
56.3023
  0
LINE
  8
0
 10
-25.9073
 20
56.3023
 11
-26.0249
 21
56.3925
  0
LINE
  8
0
 10
-26.0249
 20
56.3925
 11
-26.15
 21
56.4722
  0
LINE
  8
0
 10
-26.15
 20
56.4722
 11
-26.2815
 21
56.5407
  0
LINE
  8
0
 10
-26.2815
 20
56.5407
 11
-26.4186
 21
56.5975
  0
LINE
  8
0
 10
-26.4186
 20
56.5975
 11
-26.56
 21
56.6421
  0
LINE
  8
0
 10
-26.56
 20
56.6421
 11
-26.7048
 21
56.6742
  0
LINE
  8
0
 10
-26.7048
 20
56.6742
 11
-26.8518
 21
56.6935
  0
LINE
  8
0
 10
-26.8518
 20
56.6935
 11
-27
 21
56.7
  0
LINE
  8
0
 10
-27
 20
56.7
 11
-27.1482
 21
56.6935
  0
LINE
  8
0
 10
-27.1482
 20
56.6935
 11
-27.2952
 21
56.6742
  0
LINE
  8
0
 10
-27.2952
 20
56.6742
 11
-27.44
 21
56.6421
  0
LINE
  8
0
 10
-27.44
 20
56.6421
 11
-27.5814
 21
56.5975
  0
LINE
  8
0
 10
-27.5814
 20
56.5975
 11
-27.7184
 21
56.5407
  0
LINE
  8
0
 10
-27.7184
 20
56.5407
 11
-27.85
 21
56.4722
  0
LINE
  8
0
 10
-27.85
 20
56.4722
 11
-27.9751
 21
56.3925
  0
LINE
  8
0
 10
-27.9751
 20
56.3925
 11
-28.0927
 21
56.3023
  0
LINE
  8
0
 10
-28.0927
 20
56.3023
 11
-28.2021
 21
56.2021
  0
LINE
  8
0
 10
-28.2021
 20
56.2021
 11
-28.3023
 21
56.0927
  0
LINE
  8
0
 10
-28.3023
 20
56.0927
 11
-28.3925
 21
55.9751
  0
LINE
  8
0
 10
-28.3925
 20
55.9751
 11
-28.4722
 21
55.85
  0
LINE
  8
0
 10
-28.4722
 20
55.85
 11
-28.5407
 21
55.7184
  0
LINE
  8
0
 10
-28.5407
 20
55.7184
 11
-28.5975
 21
55.5814
  0
LINE
  8
0
 10
-28.5975
 20
55.5814
 11
-28.6421
 21
55.44
  0
LINE
  8
0
 10
-28.6421
 20
55.44
 11
-28.6742
 21
55.2952
  0
LINE
  8
0
 10
-28.6742
 20
55.2952
 11
-28.6935
 21
55.1482
  0
LINE
  8
0
 10
-28.6935
 20
55.1482
 11
-28.7
 21
55
  0
LINE
  8
0
 10
-28.7
 20
55
 11
-28.6935
 21
54.8518
  0
LINE
  8
0
 10
-28.6935
 20
54.8518
 11
-28.6742
 21
54.7048
  0
LINE
  8
0
 10
-28.6742
 20
54.7048
 11
-28.6421
 21
54.56
  0
LINE
  8
0
 10
-28.6421
 20
54.56
 11
-28.5975
 21
54.4186
  0
LINE
  8
0
 10
-28.5975
 20
54.4186
 11
-28.5407
 21
54.2815
  0
LINE
  8
0
 10
-28.5407
 20
54.2815
 11
-28.4722
 21
54.15
  0
LINE
  8
0
 10
-28.4722
 20
54.15
 11
-28.3925
 21
54.0249
  0
LINE
  8
0
 10
-28.3925
 20
54.0249
 11
-28.3023
 21
53.9073
  0
LINE
  8
0
 10
-28.3023
 20
53.9073
 11
-28.2021
 21
53.7979
  0
LINE
  8
0
 10
-28.2021
 20
53.7979
 11
-28.0927
 21
53.6977
  0
LINE
  8
0
 10
-28.0927
 20
53.6977
 11
-27.9751
 21
53.6074
  0
LINE
  8
0
 10
-27.9751
 20
53.6074
 11
-27.85
 21
53.5278
  0
LINE
  8
0
 10
-27.85
 20
53.5278
 11
-27.7184
 21
53.4593
  0
LINE
  8
0
 10
-27.7184
 20
53.4593
 11
-27.5814
 21
53.4025
  0
LINE
  8
0
 10
-27.5814
 20
53.4025
 11
-27.44
 21
53.3579
  0
LINE
  8
0
 10
-27.44
 20
53.3579
 11
-27.2952
 21
53.3258
  0
LINE
  8
0
 10
-27.2952
 20
53.3258
 11
-27.1482
 21
53.3065
  0
LINE
  8
0
 10
-27.1482
 20
53.3065
 11
-27
 21
53.3
  0
LINE
  8
0
 10
-27
 20
53.3
 11
-26.8518
 21
53.3065
  0
LINE
  8
0
 10
27.1482
 20
53.3065
 11
27.2952
 21
53.3258
  0
LINE
  8
0
 10
27.2952
 20
53.3258
 11
27.44
 21
53.3579
  0
LINE
  8
0
 10
27.44
 20
53.3579
 11
27.5814
 21
53.4025
  0
LINE
  8
0
 10
27.5814
 20
53.4025
 11
27.7184
 21
53.4593
  0
LINE
  8
0
 10
27.7184
 20
53.4593
 11
27.85
 21
53.5278
  0
LINE
  8
0
 10
27.85
 20
53.5278
 11
27.9751
 21
53.6074
  0
LINE
  8
0
 10
27.9751
 20
53.6074
 11
28.0927
 21
53.6977
  0
LINE
  8
0
 10
28.0927
 20
53.6977
 11
28.2021
 21
53.7979
  0
LINE
  8
0
 10
28.2021
 20
53.7979
 11
28.3023
 21
53.9073
  0
LINE
  8
0
 10
28.3023
 20
53.9073
 11
28.3925
 21
54.0249
  0
LINE
  8
0
 10
28.3925
 20
54.0249
 11
28.4722
 21
54.15
  0
LINE
  8
0
 10
28.4722
 20
54.15
 11
28.5407
 21
54.2815
  0
LINE
  8
0
 10
28.5407
 20
54.2815
 11
28.5975
 21
54.4186
  0
LINE
  8
0
 10
28.5975
 20
54.4186
 11
28.6421
 21
54.56
  0
LINE
  8
0
 10
28.6421
 20
54.56
 11
28.6742
 21
54.7048
  0
LINE
  8
0
 10
28.6742
 20
54.7048
 11
28.6935
 21
54.8518
  0
LINE
  8
0
 10
28.6935
 20
54.8518
 11
28.7
 21
55
  0
LINE
  8
0
 10
28.7
 20
55
 11
28.6935
 21
55.1482
  0
LINE
  8
0
 10
28.6935
 20
55.1482
 11
28.6742
 21
55.2952
  0
LINE
  8
0
 10
28.6742
 20
55.2952
 11
28.6421
 21
55.44
  0
LINE
  8
0
 10
28.6421
 20
55.44
 11
28.5975
 21
55.5814
  0
LINE
  8
0
 10
28.5975
 20
55.5814
 11
28.5407
 21
55.7184
  0
LINE
  8
0
 10
28.5407
 20
55.7184
 11
28.4722
 21
55.85
  0
LINE
  8
0
 10
28.4722
 20
55.85
 11
28.3925
 21
55.9751
  0
LINE
  8
0
 10
28.3925
 20
55.9751
 11
28.3023
 21
56.0927
  0
LINE
  8
0
 10
28.3023
 20
56.0927
 11
28.2021
 21
56.2021
  0
LINE
  8
0
 10
28.2021
 20
56.2021
 11
28.0927
 21
56.3023
  0
LINE
  8
0
 10
28.0927
 20
56.3023
 11
27.9751
 21
56.3925
  0
LINE
  8
0
 10
27.9751
 20
56.3925
 11
27.85
 21
56.4722
  0
LINE
  8
0
 10
27.85
 20
56.4722
 11
27.7184
 21
56.5407
  0
LINE
  8
0
 10
27.7184
 20
56.5407
 11
27.5814
 21
56.5975
  0
LINE
  8
0
 10
27.5814
 20
56.5975
 11
27.44
 21
56.6421
  0
LINE
  8
0
 10
27.44
 20
56.6421
 11
27.2952
 21
56.6742
  0
LINE
  8
0
 10
27.2952
 20
56.6742
 11
27.1482
 21
56.6935
  0
LINE
  8
0
 10
27.1482
 20
56.6935
 11
27
 21
56.7
  0
LINE
  8
0
 10
27
 20
56.7
 11
26.8518
 21
56.6935
  0
LINE
  8
0
 10
26.8518
 20
56.6935
 11
26.7048
 21
56.6742
  0
LINE
  8
0
 10
26.7048
 20
56.6742
 11
26.56
 21
56.6421
  0
LINE
  8
0
 10
26.56
 20
56.6421
 11
26.4186
 21
56.5975
  0
LINE
  8
0
 10
26.4186
 20
56.5975
 11
26.2815
 21
56.5407
  0
LINE
  8
0
 10
26.2815
 20
56.5407
 11
26.15
 21
56.4722
  0
LINE
  8
0
 10
26.15
 20
56.4722
 11
26.0249
 21
56.3925
  0
LINE
  8
0
 10
26.0249
 20
56.3925
 11
25.9073
 21
56.3023
  0
LINE
  8
0
 10
25.9073
 20
56.3023
 11
25.7979
 21
56.2021
  0
LINE
  8
0
 10
25.7979
 20
56.2021
 11
25.6977
 21
56.0927
  0
LINE
  8
0
 10
25.6977
 20
56.0927
 11
25.6074
 21
55.9751
  0
LINE
  8
0
 10
25.6074
 20
55.9751
 11
25.5278
 21
55.85
  0
LINE
  8
0
 10
25.5278
 20
55.85
 11
25.4593
 21
55.7184
  0
LINE
  8
0
 10
25.4593
 20
55.7184
 11
25.4025
 21
55.5814
  0
LINE
  8
0
 10
25.4025
 20
55.5814
 11
25.3579
 21
55.44
  0
LINE
  8
0
 10
25.3579
 20
55.44
 11
25.3258
 21
55.2952
  0
LINE
  8
0
 10
25.3258
 20
55.2952
 11
25.3065
 21
55.1482
  0
LINE
  8
0
 10
25.3065
 20
55.1482
 11
25.3
 21
55
  0
LINE
  8
0
 10
25.3
 20
55
 11
25.3065
 21
54.8518
  0
LINE
  8
0
 10
25.3065
 20
54.8518
 11
25.3258
 21
54.7048
  0
LINE
  8
0
 10
25.3258
 20
54.7048
 11
25.3579
 21
54.56
  0
LINE
  8
0
 10
25.3579
 20
54.56
 11
25.4025
 21
54.4186
  0
LINE
  8
0
 10
25.4025
 20
54.4186
 11
25.4593
 21
54.2815
  0
LINE
  8
0
 10
25.4593
 20
54.2815
 11
25.5278
 21
54.15
  0
LINE
  8
0
 10
25.5278
 20
54.15
 11
25.6074
 21
54.0249
  0
LINE
  8
0
 10
25.6074
 20
54.0249
 11
25.6977
 21
53.9073
  0
LINE
  8
0
 10
25.6977
 20
53.9073
 11
25.7979
 21
53.7979
  0
LINE
  8
0
 10
25.7979
 20
53.7979
 11
25.9073
 21
53.6977
  0
LINE
  8
0
 10
25.9073
 20
53.6977
 11
26.0249
 21
53.6074
  0
LINE
  8
0
 10
26.0249
 20
53.6074
 11
26.15
 21
53.5278
  0
LINE
  8
0
 10
26.15
 20
53.5278
 11
26.2815
 21
53.4593
  0
LINE
  8
0
 10
26.2815
 20
53.4593
 11
26.4186
 21
53.4025
  0
LINE
  8
0
 10
26.4186
 20
53.4025
 11
26.56
 21
53.3579
  0
LINE
  8
0
 10
26.56
 20
53.3579
 11
26.7048
 21
53.3258
  0
LINE
  8
0
 10
26.7048
 20
53.3258
 11
26.8518
 21
53.3065
  0
LINE
  8
0
 10
26.8518
 20
53.3065
 11
27
 21
53.3
  0
LINE
  8
0
 10
27
 20
53.3
 11
27.1482
 21
53.3065
  0
LINE
  8
0
 10
41.4743
 20
-51.945
 11
41.6473
 21
-51.9222
  0
LINE
  8
0
 10
41.6473
 20
-51.9222
 11
41.8176
 21
-51.8845
  0
LINE
  8
0
 10
41.8176
 20
-51.8845
 11
41.984
 21
-51.832
  0
LINE
  8
0
 10
41.984
 20
-51.832
 11
42.1452
 21
-51.7652
  0
LINE
  8
0
 10
42.1452
 20
-51.7652
 11
42.3
 21
-51.6847
  0
LINE
  8
0
 10
42.3
 20
-51.6847
 11
42.4471
 21
-51.5909
  0
LINE
  8
0
 10
42.4471
 20
-51.5909
 11
42.5856
 21
-51.4847
  0
LINE
  8
0
 10
42.5856
 20
-51.4847
 11
42.7142
 21
-51.3668
  0
LINE
  8
0
 10
42.7142
 20
-51.3668
 11
42.8321
 21
-51.2382
  0
LINE
  8
0
 10
42.8321
 20
-51.2382
 11
42.9383
 21
-51.0998
  0
LINE
  8
0
 10
42.9383
 20
-51.0998
 11
43.032
 21
-50.9526
  0
LINE
  8
0
 10
43.032
 20
-50.9526
 11
43.1126
 21
-50.7979
  0
LINE
  8
0
 10
43.1126
 20
-50.7979
 11
43.1794
 21
-50.6367
  0
LINE
  8
0
 10
43.1794
 20
-50.6367
 11
43.2318
 21
-50.4702
  0
LINE
  8
0
 10
43.2318
 20
-50.4702
 11
43.2696
 21
-50.2999
  0
LINE
  8
0
 10
43.2696
 20
-50.2999
 11
43.2924
 21
-50.1269
  0
LINE
  8
0
 10
43.2924
 20
-50.1269
 11
43.3
 21
-49.9526
  0
LINE
  8
0
 10
43.3
 20
-49.9526
 11
43.3
 21
49.9526
  0
LINE
  8
0
 10
43.3
 20
49.9526
 11
43.2924
 21
50.1269
  0
LINE
  8
0
 10
43.2924
 20
50.1269
 11
43.2696
 21
50.2999
  0
LINE
  8
0
 10
43.2696
 20
50.2999
 11
43.2318
 21
50.4702
  0
LINE
  8
0
 10
43.2318
 20
50.4702
 11
43.1794
 21
50.6367
  0
LINE
  8
0
 10
43.1794
 20
50.6367
 11
43.1126
 21
50.7979
  0
LINE
  8
0
 10
43.1126
 20
50.7979
 11
43.032
 21
50.9526
  0
LINE
  8
0
 10
43.032
 20
50.9526
 11
42.9383
 21
51.0998
  0
LINE
  8
0
 10
42.9383
 20
51.0998
 11
42.8321
 21
51.2382
  0
LINE
  8
0
 10
42.8321
 20
51.2382
 11
42.7142
 21
51.3668
  0
LINE
  8
0
 10
42.7142
 20
51.3668
 11
42.5856
 21
51.4847
  0
LINE
  8
0
 10
42.5856
 20
51.4847
 11
42.4471
 21
51.5909
  0
LINE
  8
0
 10
42.4471
 20
51.5909
 11
42.3
 21
51.6847
  0
LINE
  8
0
 10
42.3
 20
51.6847
 11
42.1452
 21
51.7652
  0
LINE
  8
0
 10
42.1452
 20
51.7652
 11
41.984
 21
51.832
  0
LINE
  8
0
 10
41.984
 20
51.832
 11
41.8176
 21
51.8845
  0
LINE
  8
0
 10
41.8176
 20
51.8845
 11
41.6473
 21
51.9222
  0
LINE
  8
0
 10
41.6473
 20
51.9222
 11
41.4743
 21
51.945
  0
LINE
  8
0
 10
41.4743
 20
51.945
 11
41.3
 21
51.9526
  0
LINE
  8
0
 10
41.3
 20
51.9526
 11
20.7
 21
51.9526
  0
LINE
  8
0
 10
20.7
 20
51.9526
 11
20.5257
 21
51.945
  0
LINE
  8
0
 10
20.5257
 20
51.945
 11
20.3527
 21
51.9222
  0
LINE
  8
0
 10
20.3527
 20
51.9222
 11
20.1824
 21
51.8845
  0
LINE
  8
0
 10
20.1824
 20
51.8845
 11
20.016
 21
51.832
  0
LINE
  8
0
 10
20.016
 20
51.832
 11
19.8548
 21
51.7652
  0
LINE
  8
0
 10
19.8548
 20
51.7652
 11
19.7
 21
51.6847
  0
LINE
  8
0
 10
19.7
 20
51.6847
 11
19.5529
 21
51.5909
  0
LINE
  8
0
 10
19.5529
 20
51.5909
 11
19.4144
 21
51.4847
  0
LINE
  8
0
 10
19.4144
 20
51.4847
 11
19.2858
 21
51.3668
  0
LINE
  8
0
 10
19.2858
 20
51.3668
 11
19.1679
 21
51.2382
  0
LINE
  8
0
 10
19.1679
 20
51.2382
 11
19.0617
 21
51.0998
  0
LINE
  8
0
 10
19.0617
 20
51.0998
 11
18.968
 21
50.9526
  0
LINE
  8
0
 10
18.968
 20
50.9526
 11
18.8874
 21
50.7979
  0
LINE
  8
0
 10
18.8874
 20
50.7979
 11
18.8206
 21
50.6367
  0
LINE
  8
0
 10
18.8206
 20
50.6367
 11
18.7682
 21
50.4702
  0
LINE
  8
0
 10
18.7682
 20
50.4702
 11
18.7304
 21
50.2999
  0
LINE
  8
0
 10
18.7304
 20
50.2999
 11
18.7076
 21
50.1269
  0
LINE
  8
0
 10
18.7076
 20
50.1269
 11
18.7
 21
49.9526
  0
LINE
  8
0
 10
18.7
 20
49.9526
 11
18.7
 21
-49.9526
  0
LINE
  8
0
 10
18.7
 20
-49.9526
 11
18.7076
 21
-50.1269
  0
LINE
  8
0
 10
18.7076
 20
-50.1269
 11
18.7304
 21
-50.2999
  0
LINE
  8
0
 10
18.7304
 20
-50.2999
 11
18.7682
 21
-50.4702
  0
LINE
  8
0
 10
18.7682
 20
-50.4702
 11
18.8206
 21
-50.6367
  0
LINE
  8
0
 10
18.8206
 20
-50.6367
 11
18.8874
 21
-50.7979
  0
LINE
  8
0
 10
18.8874
 20
-50.7979
 11
18.968
 21
-50.9526
  0
LINE
  8
0
 10
18.968
 20
-50.9526
 11
19.0617
 21
-51.0998
  0
LINE
  8
0
 10
19.0617
 20
-51.0998
 11
19.1679
 21
-51.2382
  0
LINE
  8
0
 10
19.1679
 20
-51.2382
 11
19.2858
 21
-51.3668
  0
LINE
  8
0
 10
19.2858
 20
-51.3668
 11
19.4144
 21
-51.4847
  0
LINE
  8
0
 10
19.4144
 20
-51.4847
 11
19.5529
 21
-51.5909
  0
LINE
  8
0
 10
19.5529
 20
-51.5909
 11
19.7
 21
-51.6847
  0
LINE
  8
0
 10
19.7
 20
-51.6847
 11
19.8548
 21
-51.7652
  0
LINE
  8
0
 10
19.8548
 20
-51.7652
 11
20.016
 21
-51.832
  0
LINE
  8
0
 10
20.016
 20
-51.832
 11
20.1824
 21
-51.8845
  0
LINE
  8
0
 10
20.1824
 20
-51.8845
 11
20.3527
 21
-51.9222
  0
LINE
  8
0
 10
20.3527
 20
-51.9222
 11
20.5257
 21
-51.945
  0
LINE
  8
0
 10
20.5257
 20
-51.945
 11
20.7
 21
-51.9526
  0
LINE
  8
0
 10
20.7
 20
-51.9526
 11
41.3
 21
-51.9526
  0
LINE
  8
0
 10
41.3
 20
-51.9526
 11
41.4743
 21
-51.945
  0
LINE
  8
0
 10
21
 20
-51.6526
 11
20.8257
 21
-51.645
  0
LINE
  8
0
 10
20.8257
 20
-51.645
 11
20.6527
 21
-51.6222
  0
LINE
  8
0
 10
20.6527
 20
-51.6222
 11
20.4824
 21
-51.5845
  0
LINE
  8
0
 10
20.4824
 20
-51.5845
 11
20.316
 21
-51.532
  0
LINE
  8
0
 10
20.316
 20
-51.532
 11
20.1548
 21
-51.4652
  0
LINE
  8
0
 10
20.1548
 20
-51.4652
 11
20
 21
-51.3847
  0
LINE
  8
0
 10
20
 20
-51.3847
 11
19.8529
 21
-51.2909
  0
LINE
  8
0
 10
19.8529
 20
-51.2909
 11
19.7144
 21
-51.1847
  0
LINE
  8
0
 10
19.7144
 20
-51.1847
 11
19.5858
 21
-51.0668
  0
LINE
  8
0
 10
19.5858
 20
-51.0668
 11
19.4679
 21
-50.9382
  0
LINE
  8
0
 10
19.4679
 20
-50.9382
 11
19.3617
 21
-50.7998
  0
LINE
  8
0
 10
19.3617
 20
-50.7998
 11
19.268
 21
-50.6526
  0
LINE
  8
0
 10
19.268
 20
-50.6526
 11
19.1874
 21
-50.4978
  0
LINE
  8
0
 10
19.1874
 20
-50.4978
 11
19.1206
 21
-50.3367
  0
LINE
  8
0
 10
19.1206
 20
-50.3367
 11
19.0682
 21
-50.1703
  0
LINE
  8
0
 10
19.0682
 20
-50.1703
 11
19.0304
 21
-49.9999
  0
LINE
  8
0
 10
19.0304
 20
-49.9999
 11
19.0076
 21
-49.8269
  0
LINE
  8
0
 10
19.0076
 20
-49.8269
 11
19
 21
-49.6526
  0
LINE
  8
0
 10
19
 20
-49.6526
 11
19
 21
49.6526
  0
LINE
  8
0
 10
19
 20
49.6526
 11
19.0076
 21
49.8269
  0
LINE
  8
0
 10
19.0076
 20
49.8269
 11
19.0304
 21
49.9999
  0
LINE
  8
0
 10
19.0304
 20
49.9999
 11
19.0682
 21
50.1703
  0
LINE
  8
0
 10
19.0682
 20
50.1703
 11
19.1206
 21
50.3367
  0
LINE
  8
0
 10
19.1206
 20
50.3367
 11
19.1874
 21
50.4978
  0
LINE
  8
0
 10
19.1874
 20
50.4978
 11
19.268
 21
50.6526
  0
LINE
  8
0
 10
19.268
 20
50.6526
 11
19.3617
 21
50.7998
  0
LINE
  8
0
 10
19.3617
 20
50.7998
 11
19.4679
 21
50.9382
  0
LINE
  8
0
 10
19.4679
 20
50.9382
 11
19.5858
 21
51.0668
  0
LINE
  8
0
 10
19.5858
 20
51.0668
 11
19.7144
 21
51.1847
  0
LINE
  8
0
 10
19.7144
 20
51.1847
 11
19.8529
 21
51.2909
  0
LINE
  8
0
 10
19.8529
 20
51.2909
 11
20
 21
51.3847
  0
LINE
  8
0
 10
20
 20
51.3847
 11
20.1548
 21
51.4652
  0
LINE
  8
0
 10
20.1548
 20
51.4652
 11
20.316
 21
51.532
  0
LINE
  8
0
 10
20.316
 20
51.532
 11
20.4824
 21
51.5845
  0
LINE
  8
0
 10
20.4824
 20
51.5845
 11
20.6527
 21
51.6222
  0
LINE
  8
0
 10
20.6527
 20
51.6222
 11
20.8257
 21
51.645
  0
LINE
  8
0
 10
20.8257
 20
51.645
 11
21
 21
51.6526
  0
LINE
  8
0
 10
21
 20
51.6526
 11
41
 21
51.6526
  0
LINE
  8
0
 10
41
 20
51.6526
 11
41.1743
 21
51.645
  0
LINE
  8
0
 10
41.1743
 20
51.645
 11
41.3473
 21
51.6222
  0
LINE
  8
0
 10
41.3473
 20
51.6222
 11
41.5176
 21
51.5845
  0
LINE
  8
0
 10
41.5176
 20
51.5845
 11
41.684
 21
51.532
  0
LINE
  8
0
 10
41.684
 20
51.532
 11
41.8452
 21
51.4652
  0
LINE
  8
0
 10
41.8452
 20
51.4652
 11
42
 21
51.3847
  0
LINE
  8
0
 10
42
 20
51.3847
 11
42.1471
 21
51.2909
  0
LINE
  8
0
 10
42.1471
 20
51.2909
 11
42.2856
 21
51.1847
  0
LINE
  8
0
 10
42.2856
 20
51.1847
 11
42.4142
 21
51.0668
  0
LINE
  8
0
 10
42.4142
 20
51.0668
 11
42.5321
 21
50.9382
  0
LINE
  8
0
 10
42.5321
 20
50.9382
 11
42.6383
 21
50.7998
  0
LINE
  8
0
 10
42.6383
 20
50.7998
 11
42.732
 21
50.6526
  0
LINE
  8
0
 10
42.732
 20
50.6526
 11
42.8126
 21
50.4978
  0
LINE
  8
0
 10
42.8126
 20
50.4978
 11
42.8794
 21
50.3367
  0
LINE
  8
0
 10
42.8794
 20
50.3367
 11
42.9318
 21
50.1703
  0
LINE
  8
0
 10
42.9318
 20
50.1703
 11
42.9696
 21
49.9999
  0
LINE
  8
0
 10
42.9696
 20
49.9999
 11
42.9924
 21
49.8269
  0
LINE
  8
0
 10
42.9924
 20
49.8269
 11
43
 21
49.6526
  0
LINE
  8
0
 10
43
 20
49.6526
 11
43
 21
-49.6526
  0
LINE
  8
0
 10
43
 20
-49.6526
 11
42.9924
 21
-49.8269
  0
LINE
  8
0
 10
42.9924
 20
-49.8269
 11
42.9696
 21
-49.9999
  0
LINE
  8
0
 10
42.9696
 20
-49.9999
 11
42.9318
 21
-50.1703
  0
LINE
  8
0
 10
42.9318
 20
-50.1703
 11
42.8794
 21
-50.3367
  0
LINE
  8
0
 10
42.8794
 20
-50.3367
 11
42.8126
 21
-50.4978
  0
LINE
  8
0
 10
42.8126
 20
-50.4978
 11
42.732
 21
-50.6526
  0
LINE
  8
0
 10
42.732
 20
-50.6526
 11
42.6383
 21
-50.7998
  0
LINE
  8
0
 10
42.6383
 20
-50.7998
 11
42.5321
 21
-50.9382
  0
LINE
  8
0
 10
42.5321
 20
-50.9382
 11
42.4142
 21
-51.0668
  0
LINE
  8
0
 10
42.4142
 20
-51.0668
 11
42.2856
 21
-51.1847
  0
LINE
  8
0
 10
42.2856
 20
-51.1847
 11
42.1471
 21
-51.2909
  0
LINE
  8
0
 10
42.1471
 20
-51.2909
 11
42
 21
-51.3847
  0
LINE
  8
0
 10
42
 20
-51.3847
 11
41.8452
 21
-51.4652
  0
LINE
  8
0
 10
41.8452
 20
-51.4652
 11
41.684
 21
-51.532
  0
LINE
  8
0
 10
41.684
 20
-51.532
 11
41.5176
 21
-51.5845
  0
LINE
  8
0
 10
41.5176
 20
-51.5845
 11
41.3473
 21
-51.6222
  0
LINE
  8
0
 10
41.3473
 20
-51.6222
 11
41.1743
 21
-51.645
  0
LINE
  8
0
 10
41.1743
 20
-51.645
 11
41
 21
-51.6526
  0
LINE
  8
0
 10
41
 20
-51.6526
 11
21
 21
-51.6526
  0
LINE
  8
0
 10
9.34862
 20
-51.6374
 11
9.69458
 21
-51.5918
  0
LINE
  8
0
 10
9.69458
 20
-51.5918
 11
10.0353
 21
-51.5163
  0
LINE
  8
0
 10
10.0353
 20
-51.5163
 11
10.3681
 21
-51.4114
  0
LINE
  8
0
 10
10.3681
 20
-51.4114
 11
10.6905
 21
-51.2778
  0
LINE
  8
0
 10
10.6905
 20
-51.2778
 11
11
 21
-51.1167
  0
LINE
  8
0
 10
11
 20
-51.1167
 11
11.2943
 21
-50.9292
  0
LINE
  8
0
 10
11.2943
 20
-50.9292
 11
11.5711
 21
-50.7168
  0
LINE
  8
0
 10
11.5711
 20
-50.7168
 11
11.8284
 21
-50.481
  0
LINE
  8
0
 10
11.8284
 20
-50.481
 11
12.0642
 21
-50.2238
  0
LINE
  8
0
 10
12.0642
 20
-50.2238
 11
12.2766
 21
-49.9469
  0
LINE
  8
0
 10
12.2766
 20
-49.9469
 11
12.4641
 21
-49.6526
  0
LINE
  8
0
 10
12.4641
 20
-49.6526
 11
12.6252
 21
-49.3431
  0
LINE
  8
0
 10
12.6252
 20
-49.3431
 11
12.7588
 21
-49.0207
  0
LINE
  8
0
 10
12.7588
 20
-49.0207
 11
12.8637
 21
-48.6879
  0
LINE
  8
0
 10
12.8637
 20
-48.6879
 11
12.9392
 21
-48.3472
  0
LINE
  8
0
 10
12.9392
 20
-48.3472
 11
12.9848
 21
-48.0012
  0
LINE
  8
0
 10
12.9848
 20
-48.0012
 11
13
 21
-47.6526
  0
LINE
  8
0
 10
13
 20
-47.6526
 11
13
 21
47.6526
  0
LINE
  8
0
 10
13
 20
47.6526
 11
12.9848
 21
48.0012
  0
LINE
  8
0
 10
12.9848
 20
48.0012
 11
12.9392
 21
48.3472
  0
LINE
  8
0
 10
12.9392
 20
48.3472
 11
12.8637
 21
48.6879
  0
LINE
  8
0
 10
12.8637
 20
48.6879
 11
12.7588
 21
49.0207
  0
LINE
  8
0
 10
12.7588
 20
49.0207
 11
12.6252
 21
49.3431
  0
LINE
  8
0
 10
12.6252
 20
49.3431
 11
12.4641
 21
49.6526
  0
LINE
  8
0
 10
12.4641
 20
49.6526
 11
12.2766
 21
49.9469
  0
LINE
  8
0
 10
12.2766
 20
49.9469
 11
12.0642
 21
50.2238
  0
LINE
  8
0
 10
12.0642
 20
50.2238
 11
11.8284
 21
50.481
  0
LINE
  8
0
 10
11.8284
 20
50.481
 11
11.5711
 21
50.7168
  0
LINE
  8
0
 10
11.5711
 20
50.7168
 11
11.2943
 21
50.9292
  0
LINE
  8
0
 10
11.2943
 20
50.9292
 11
11
 21
51.1167
  0
LINE
  8
0
 10
11
 20
51.1167
 11
10.6905
 21
51.2778
  0
LINE
  8
0
 10
10.6905
 20
51.2778
 11
10.3681
 21
51.4114
  0
LINE
  8
0
 10
10.3681
 20
51.4114
 11
10.0353
 21
51.5163
  0
LINE
  8
0
 10
10.0353
 20
51.5163
 11
9.69458
 21
51.5918
  0
LINE
  8
0
 10
9.69458
 20
51.5918
 11
9.34862
 21
51.6374
  0
LINE
  8
0
 10
9.34862
 20
51.6374
 11
9
 21
51.6526
  0
LINE
  8
0
 10
9
 20
51.6526
 11
-9
 21
51.6526
  0
LINE
  8
0
 10
-9
 20
51.6526
 11
-9.34862
 21
51.6374
  0
LINE
  8
0
 10
-9.34862
 20
51.6374
 11
-9.69458
 21
51.5918
  0
LINE
  8
0
 10
-9.69458
 20
51.5918
 11
-10.0353
 21
51.5163
  0
LINE
  8
0
 10
-10.0353
 20
51.5163
 11
-10.3681
 21
51.4114
  0
LINE
  8
0
 10
-10.3681
 20
51.4114
 11
-10.6905
 21
51.2778
  0
LINE
  8
0
 10
-10.6905
 20
51.2778
 11
-11
 21
51.1167
  0
LINE
  8
0
 10
-11
 20
51.1167
 11
-11.2943
 21
50.9292
  0
LINE
  8
0
 10
-11.2943
 20
50.9292
 11
-11.5711
 21
50.7168
  0
LINE
  8
0
 10
-11.5711
 20
50.7168
 11
-11.8284
 21
50.481
  0
LINE
  8
0
 10
-11.8284
 20
50.481
 11
-12.0642
 21
50.2238
  0
LINE
  8
0
 10
-12.0642
 20
50.2238
 11
-12.2766
 21
49.9469
  0
LINE
  8
0
 10
-12.2766
 20
49.9469
 11
-12.4641
 21
49.6526
  0
LINE
  8
0
 10
-12.4641
 20
49.6526
 11
-12.6252
 21
49.3431
  0
LINE
  8
0
 10
-12.6252
 20
49.3431
 11
-12.7588
 21
49.0207
  0
LINE
  8
0
 10
-12.7588
 20
49.0207
 11
-12.8637
 21
48.6879
  0
LINE
  8
0
 10
-12.8637
 20
48.6879
 11
-12.9392
 21
48.3472
  0
LINE
  8
0
 10
-12.9392
 20
48.3472
 11
-12.9848
 21
48.0012
  0
LINE
  8
0
 10
-12.9848
 20
48.0012
 11
-13
 21
47.6526
  0
LINE
  8
0
 10
-13
 20
47.6526
 11
-13
 21
-47.6526
  0
LINE
  8
0
 10
-13
 20
-47.6526
 11
-12.9848
 21
-48.0012
  0
LINE
  8
0
 10
-12.9848
 20
-48.0012
 11
-12.9392
 21
-48.3472
  0
LINE
  8
0
 10
-12.9392
 20
-48.3472
 11
-12.8637
 21
-48.6879
  0
LINE
  8
0
 10
-12.8637
 20
-48.6879
 11
-12.7588
 21
-49.0207
  0
LINE
  8
0
 10
-12.7588
 20
-49.0207
 11
-12.6252
 21
-49.3431
  0
LINE
  8
0
 10
-12.6252
 20
-49.3431
 11
-12.4641
 21
-49.6526
  0
LINE
  8
0
 10
-12.4641
 20
-49.6526
 11
-12.2766
 21
-49.9469
  0
LINE
  8
0
 10
-12.2766
 20
-49.9469
 11
-12.0642
 21
-50.2238
  0
LINE
  8
0
 10
-12.0642
 20
-50.2238
 11
-11.8284
 21
-50.481
  0
LINE
  8
0
 10
-11.8284
 20
-50.481
 11
-11.5711
 21
-50.7168
  0
LINE
  8
0
 10
-11.5711
 20
-50.7168
 11
-11.2943
 21
-50.9292
  0
LINE
  8
0
 10
-11.2943
 20
-50.9292
 11
-11
 21
-51.1167
  0
LINE
  8
0
 10
-11
 20
-51.1167
 11
-10.6905
 21
-51.2778
  0
LINE
  8
0
 10
-10.6905
 20
-51.2778
 11
-10.3681
 21
-51.4114
  0
LINE
  8
0
 10
-10.3681
 20
-51.4114
 11
-10.0353
 21
-51.5163
  0
LINE
  8
0
 10
-10.0353
 20
-51.5163
 11
-9.69458
 21
-51.5918
  0
LINE
  8
0
 10
-9.69458
 20
-51.5918
 11
-9.34862
 21
-51.6374
  0
LINE
  8
0
 10
-9.34862
 20
-51.6374
 11
-9
 21
-51.6526
  0
LINE
  8
0
 10
-9
 20
-51.6526
 11
9
 21
-51.6526
  0
LINE
  8
0
 10
9
 20
-51.6526
 11
9.34862
 21
-51.6374
  0
LINE
  8
0
 10
-26.8518
 20
-56.6935
 11
-26.7048
 21
-56.6742
  0
LINE
  8
0
 10
-26.7048
 20
-56.6742
 11
-26.56
 21
-56.6421
  0
LINE
  8
0
 10
-26.56
 20
-56.6421
 11
-26.4186
 21
-56.5975
  0
LINE
  8
0
 10
-26.4186
 20
-56.5975
 11
-26.2815
 21
-56.5407
  0
LINE
  8
0
 10
-26.2815
 20
-56.5407
 11
-26.15
 21
-56.4722
  0
LINE
  8
0
 10
-26.15
 20
-56.4722
 11
-26.0249
 21
-56.3925
  0
LINE
  8
0
 10
-26.0249
 20
-56.3925
 11
-25.9073
 21
-56.3023
  0
LINE
  8
0
 10
-25.9073
 20
-56.3023
 11
-25.7979
 21
-56.2021
  0
LINE
  8
0
 10
-25.7979
 20
-56.2021
 11
-25.6977
 21
-56.0927
  0
LINE
  8
0
 10
-25.6977
 20
-56.0927
 11
-25.6074
 21
-55.9751
  0
LINE
  8
0
 10
-25.6074
 20
-55.9751
 11
-25.5278
 21
-55.85
  0
LINE
  8
0
 10
-25.5278
 20
-55.85
 11
-25.4593
 21
-55.7184
  0
LINE
  8
0
 10
-25.4593
 20
-55.7184
 11
-25.4025
 21
-55.5814
  0
LINE
  8
0
 10
-25.4025
 20
-55.5814
 11
-25.3579
 21
-55.44
  0
LINE
  8
0
 10
-25.3579
 20
-55.44
 11
-25.3258
 21
-55.2952
  0
LINE
  8
0
 10
-25.3258
 20
-55.2952
 11
-25.3065
 21
-55.1482
  0
LINE
  8
0
 10
-25.3065
 20
-55.1482
 11
-25.3
 21
-55
  0
LINE
  8
0
 10
-25.3
 20
-55
 11
-25.3065
 21
-54.8518
  0
LINE
  8
0
 10
-25.3065
 20
-54.8518
 11
-25.3258
 21
-54.7048
  0
LINE
  8
0
 10
-25.3258
 20
-54.7048
 11
-25.3579
 21
-54.56
  0
LINE
  8
0
 10
-25.3579
 20
-54.56
 11
-25.4025
 21
-54.4186
  0
LINE
  8
0
 10
-25.4025
 20
-54.4186
 11
-25.4593
 21
-54.2815
  0
LINE
  8
0
 10
-25.4593
 20
-54.2815
 11
-25.5278
 21
-54.15
  0
LINE
  8
0
 10
-25.5278
 20
-54.15
 11
-25.6074
 21
-54.0249
  0
LINE
  8
0
 10
-25.6074
 20
-54.0249
 11
-25.6977
 21
-53.9073
  0
LINE
  8
0
 10
-25.6977
 20
-53.9073
 11
-25.7979
 21
-53.7979
  0
LINE
  8
0
 10
-25.7979
 20
-53.7979
 11
-25.9073
 21
-53.6977
  0
LINE
  8
0
 10
-25.9073
 20
-53.6977
 11
-26.0249
 21
-53.6074
  0
LINE
  8
0
 10
-26.0249
 20
-53.6074
 11
-26.15
 21
-53.5278
  0
LINE
  8
0
 10
-26.15
 20
-53.5278
 11
-26.2815
 21
-53.4593
  0
LINE
  8
0
 10
-26.2815
 20
-53.4593
 11
-26.4186
 21
-53.4025
  0
LINE
  8
0
 10
-26.4186
 20
-53.4025
 11
-26.56
 21
-53.3579
  0
LINE
  8
0
 10
-26.56
 20
-53.3579
 11
-26.7048
 21
-53.3258
  0
LINE
  8
0
 10
-26.7048
 20
-53.3258
 11
-26.8518
 21
-53.3065
  0
LINE
  8
0
 10
-26.8518
 20
-53.3065
 11
-27
 21
-53.3
  0
LINE
  8
0
 10
-27
 20
-53.3
 11
-27.1482
 21
-53.3065
  0
LINE
  8
0
 10
-27.1482
 20
-53.3065
 11
-27.2952
 21
-53.3258
  0
LINE
  8
0
 10
-27.2952
 20
-53.3258
 11
-27.44
 21
-53.3579
  0
LINE
  8
0
 10
-27.44
 20
-53.3579
 11
-27.5814
 21
-53.4025
  0
LINE
  8
0
 10
-27.5814
 20
-53.4025
 11
-27.7184
 21
-53.4593
  0
LINE
  8
0
 10
-27.7184
 20
-53.4593
 11
-27.85
 21
-53.5278
  0
LINE
  8
0
 10
-27.85
 20
-53.5278
 11
-27.9751
 21
-53.6074
  0
LINE
  8
0
 10
-27.9751
 20
-53.6074
 11
-28.0927
 21
-53.6977
  0
LINE
  8
0
 10
-28.0927
 20
-53.6977
 11
-28.2021
 21
-53.7979
  0
LINE
  8
0
 10
-28.2021
 20
-53.7979
 11
-28.3023
 21
-53.9073
  0
LINE
  8
0
 10
-28.3023
 20
-53.9073
 11
-28.3925
 21
-54.0249
  0
LINE
  8
0
 10
-28.3925
 20
-54.0249
 11
-28.4722
 21
-54.15
  0
LINE
  8
0
 10
-28.4722
 20
-54.15
 11
-28.5407
 21
-54.2815
  0
LINE
  8
0
 10
-28.5407
 20
-54.2815
 11
-28.5975
 21
-54.4186
  0
LINE
  8
0
 10
-28.5975
 20
-54.4186
 11
-28.6421
 21
-54.56
  0
LINE
  8
0
 10
-28.6421
 20
-54.56
 11
-28.6742
 21
-54.7048
  0
LINE
  8
0
 10
-28.6742
 20
-54.7048
 11
-28.6935
 21
-54.8518
  0
LINE
  8
0
 10
-28.6935
 20
-54.8518
 11
-28.7
 21
-55
  0
LINE
  8
0
 10
-28.7
 20
-55
 11
-28.6935
 21
-55.1482
  0
LINE
  8
0
 10
-28.6935
 20
-55.1482
 11
-28.6742
 21
-55.2952
  0
LINE
  8
0
 10
-28.6742
 20
-55.2952
 11
-28.6421
 21
-55.44
  0
LINE
  8
0
 10
-28.6421
 20
-55.44
 11
-28.5975
 21
-55.5814
  0
LINE
  8
0
 10
-28.5975
 20
-55.5814
 11
-28.5407
 21
-55.7184
  0
LINE
  8
0
 10
-28.5407
 20
-55.7184
 11
-28.4722
 21
-55.85
  0
LINE
  8
0
 10
-28.4722
 20
-55.85
 11
-28.3925
 21
-55.9751
  0
LINE
  8
0
 10
-28.3925
 20
-55.9751
 11
-28.3023
 21
-56.0927
  0
LINE
  8
0
 10
-28.3023
 20
-56.0927
 11
-28.2021
 21
-56.2021
  0
LINE
  8
0
 10
-28.2021
 20
-56.2021
 11
-28.0927
 21
-56.3023
  0
LINE
  8
0
 10
-28.0927
 20
-56.3023
 11
-27.9751
 21
-56.3925
  0
LINE
  8
0
 10
-27.9751
 20
-56.3925
 11
-27.85
 21
-56.4722
  0
LINE
  8
0
 10
-27.85
 20
-56.4722
 11
-27.7184
 21
-56.5407
  0
LINE
  8
0
 10
-27.7184
 20
-56.5407
 11
-27.5814
 21
-56.5975
  0
LINE
  8
0
 10
-27.5814
 20
-56.5975
 11
-27.44
 21
-56.6421
  0
LINE
  8
0
 10
-27.44
 20
-56.6421
 11
-27.2952
 21
-56.6742
  0
LINE
  8
0
 10
-27.2952
 20
-56.6742
 11
-27.1482
 21
-56.6935
  0
LINE
  8
0
 10
-27.1482
 20
-56.6935
 11
-27
 21
-56.7
  0
LINE
  8
0
 10
-27
 20
-56.7
 11
-26.8518
 21
-56.6935
  0
LINE
  8
0
 10
27.1482
 20
-56.6935
 11
27.2952
 21
-56.6742
  0
LINE
  8
0
 10
27.2952
 20
-56.6742
 11
27.44
 21
-56.6421
  0
LINE
  8
0
 10
27.44
 20
-56.6421
 11
27.5814
 21
-56.5975
  0
LINE
  8
0
 10
27.5814
 20
-56.5975
 11
27.7184
 21
-56.5407
  0
LINE
  8
0
 10
27.7184
 20
-56.5407
 11
27.85
 21
-56.4722
  0
LINE
  8
0
 10
27.85
 20
-56.4722
 11
27.9751
 21
-56.3925
  0
LINE
  8
0
 10
27.9751
 20
-56.3925
 11
28.0927
 21
-56.3023
  0
LINE
  8
0
 10
28.0927
 20
-56.3023
 11
28.2021
 21
-56.2021
  0
LINE
  8
0
 10
28.2021
 20
-56.2021
 11
28.3023
 21
-56.0927
  0
LINE
  8
0
 10
28.3023
 20
-56.0927
 11
28.3925
 21
-55.9751
  0
LINE
  8
0
 10
28.3925
 20
-55.9751
 11
28.4722
 21
-55.85
  0
LINE
  8
0
 10
28.4722
 20
-55.85
 11
28.5407
 21
-55.7184
  0
LINE
  8
0
 10
28.5407
 20
-55.7184
 11
28.5975
 21
-55.5814
  0
LINE
  8
0
 10
28.5975
 20
-55.5814
 11
28.6421
 21
-55.44
  0
LINE
  8
0
 10
28.6421
 20
-55.44
 11
28.6742
 21
-55.2952
  0
LINE
  8
0
 10
28.6742
 20
-55.2952
 11
28.6935
 21
-55.1482
  0
LINE
  8
0
 10
28.6935
 20
-55.1482
 11
28.7
 21
-55
  0
LINE
  8
0
 10
28.7
 20
-55
 11
28.6935
 21
-54.8518
  0
LINE
  8
0
 10
28.6935
 20
-54.8518
 11
28.6742
 21
-54.7048
  0
LINE
  8
0
 10
28.6742
 20
-54.7048
 11
28.6421
 21
-54.56
  0
LINE
  8
0
 10
28.6421
 20
-54.56
 11
28.5975
 21
-54.4186
  0
LINE
  8
0
 10
28.5975
 20
-54.4186
 11
28.5407
 21
-54.2815
  0
LINE
  8
0
 10
28.5407
 20
-54.2815
 11
28.4722
 21
-54.15
  0
LINE
  8
0
 10
28.4722
 20
-54.15
 11
28.3925
 21
-54.0249
  0
LINE
  8
0
 10
28.3925
 20
-54.0249
 11
28.3023
 21
-53.9073
  0
LINE
  8
0
 10
28.3023
 20
-53.9073
 11
28.2021
 21
-53.7979
  0
LINE
  8
0
 10
28.2021
 20
-53.7979
 11
28.0927
 21
-53.6977
  0
LINE
  8
0
 10
28.0927
 20
-53.6977
 11
27.9751
 21
-53.6074
  0
LINE
  8
0
 10
27.9751
 20
-53.6074
 11
27.85
 21
-53.5278
  0
LINE
  8
0
 10
27.85
 20
-53.5278
 11
27.7184
 21
-53.4593
  0
LINE
  8
0
 10
27.7184
 20
-53.4593
 11
27.5814
 21
-53.4025
  0
LINE
  8
0
 10
27.5814
 20
-53.4025
 11
27.44
 21
-53.3579
  0
LINE
  8
0
 10
27.44
 20
-53.3579
 11
27.2952
 21
-53.3258
  0
LINE
  8
0
 10
27.2952
 20
-53.3258
 11
27.1482
 21
-53.3065
  0
LINE
  8
0
 10
27.1482
 20
-53.3065
 11
27
 21
-53.3
  0
LINE
  8
0
 10
27
 20
-53.3
 11
26.8518
 21
-53.3065
  0
LINE
  8
0
 10
26.8518
 20
-53.3065
 11
26.7048
 21
-53.3258
  0
LINE
  8
0
 10
26.7048
 20
-53.3258
 11
26.56
 21
-53.3579
  0
LINE
  8
0
 10
26.56
 20
-53.3579
 11
26.4186
 21
-53.4025
  0
LINE
  8
0
 10
26.4186
 20
-53.4025
 11
26.2815
 21
-53.4593
  0
LINE
  8
0
 10
26.2815
 20
-53.4593
 11
26.15
 21
-53.5278
  0
LINE
  8
0
 10
26.15
 20
-53.5278
 11
26.0249
 21
-53.6074
  0
LINE
  8
0
 10
26.0249
 20
-53.6074
 11
25.9073
 21
-53.6977
  0
LINE
  8
0
 10
25.9073
 20
-53.6977
 11
25.7979
 21
-53.7979
  0
LINE
  8
0
 10
25.7979
 20
-53.7979
 11
25.6977
 21
-53.9073
  0
LINE
  8
0
 10
25.6977
 20
-53.9073
 11
25.6074
 21
-54.0249
  0
LINE
  8
0
 10
25.6074
 20
-54.0249
 11
25.5278
 21
-54.15
  0
LINE
  8
0
 10
25.5278
 20
-54.15
 11
25.4593
 21
-54.2815
  0
LINE
  8
0
 10
25.4593
 20
-54.2815
 11
25.4025
 21
-54.4186
  0
LINE
  8
0
 10
25.4025
 20
-54.4186
 11
25.3579
 21
-54.56
  0
LINE
  8
0
 10
25.3579
 20
-54.56
 11
25.3258
 21
-54.7048
  0
LINE
  8
0
 10
25.3258
 20
-54.7048
 11
25.3065
 21
-54.8518
  0
LINE
  8
0
 10
25.3065
 20
-54.8518
 11
25.3
 21
-55
  0
LINE
  8
0
 10
25.3
 20
-55
 11
25.3065
 21
-55.1482
  0
LINE
  8
0
 10
25.3065
 20
-55.1482
 11
25.3258
 21
-55.2952
  0
LINE
  8
0
 10
25.3258
 20
-55.2952
 11
25.3579
 21
-55.44
  0
LINE
  8
0
 10
25.3579
 20
-55.44
 11
25.4025
 21
-55.5814
  0
LINE
  8
0
 10
25.4025
 20
-55.5814
 11
25.4593
 21
-55.7184
  0
LINE
  8
0
 10
25.4593
 20
-55.7184
 11
25.5278
 21
-55.85
  0
LINE
  8
0
 10
25.5278
 20
-55.85
 11
25.6074
 21
-55.9751
  0
LINE
  8
0
 10
25.6074
 20
-55.9751
 11
25.6977
 21
-56.0927
  0
LINE
  8
0
 10
25.6977
 20
-56.0927
 11
25.7979
 21
-56.2021
  0
LINE
  8
0
 10
25.7979
 20
-56.2021
 11
25.9073
 21
-56.3023
  0
LINE
  8
0
 10
25.9073
 20
-56.3023
 11
26.0249
 21
-56.3925
  0
LINE
  8
0
 10
26.0249
 20
-56.3925
 11
26.15
 21
-56.4722
  0
LINE
  8
0
 10
26.15
 20
-56.4722
 11
26.2815
 21
-56.5407
  0
LINE
  8
0
 10
26.2815
 20
-56.5407
 11
26.4186
 21
-56.5975
  0
LINE
  8
0
 10
26.4186
 20
-56.5975
 11
26.56
 21
-56.6421
  0
LINE
  8
0
 10
26.56
 20
-56.6421
 11
26.7048
 21
-56.6742
  0
LINE
  8
0
 10
26.7048
 20
-56.6742
 11
26.8518
 21
-56.6935
  0
LINE
  8
0
 10
26.8518
 20
-56.6935
 11
27
 21
-56.7
  0
LINE
  8
0
 10
27
 20
-56.7
 11
27.1482
 21
-56.6935
  0
ENDSEC
  0
SECTION
  2
OBJECTS
  0
DICTIONARY
  0
ENDSEC
  0
EOF
