  0
SECTION
  2
BLOCKS
  0
ENDSEC
  0
SECTION
  2
ENTITIES
  0
LINE
  8
0
 10
0.149994
 20
-22.4935
 11
1.961
 21
-22.4144
  0
LINE
  8
0
 10
1.961
 20
-22.4144
 11
3.90707
 21
-22.1582
  0
LINE
  8
0
 10
3.90707
 20
-22.1582
 11
5.82343
 21
-21.7333
  0
LINE
  8
0
 10
5.82343
 20
-21.7333
 11
7.69545
 21
-21.1431
  0
LINE
  8
0
 10
7.69545
 20
-21.1431
 11
9.5089
 21
-20.3919
  0
LINE
  8
0
 10
9.5089
 20
-20.3919
 11
11.25
 21
-19.4856
  0
LINE
  8
0
 10
11.25
 20
-19.4856
 11
12.9055
 21
-18.4309
  0
LINE
  8
0
 10
12.9055
 20
-18.4309
 11
14.4627
 21
-17.236
  0
LINE
  8
0
 10
14.4627
 20
-17.236
 11
15.9099
 21
-15.9099
  0
LINE
  8
0
 10
15.9099
 20
-15.9099
 11
17.236
 21
-14.4627
  0
LINE
  8
0
 10
17.236
 20
-14.4627
 11
18.4309
 21
-12.9055
  0
LINE
  8
0
 10
18.4309
 20
-12.9055
 11
19.4856
 21
-11.25
  0
LINE
  8
0
 10
19.4856
 20
-11.25
 11
20.3919
 21
-9.5089
  0
LINE
  8
0
 10
20.3919
 20
-9.5089
 11
21.1431
 21
-7.69545
  0
LINE
  8
0
 10
21.1431
 20
-7.69545
 11
21.7333
 21
-5.82343
  0
LINE
  8
0
 10
21.7333
 20
-5.82343
 11
22.1582
 21
-3.90707
  0
LINE
  8
0
 10
22.1582
 20
-3.90707
 11
22.4144
 21
-1.961
  0
LINE
  8
0
 10
22.4144
 20
-1.961
 11
22.4935
 21
-0.149994
  0
LINE
  8
0
 10
22.4935
 20
-0.149994
 11
27
 21
-0.149994
  0
LINE
  8
0
 10
27
 20
-0.149994
 11
27
 21
0.149994
  0
LINE
  8
0
 10
27
 20
0.149994
 11
22.4935
 21
0.149994
  0
LINE
  8
0
 10
22.4935
 20
0.149994
 11
22.4144
 21
1.961
  0
LINE
  8
0
 10
22.4144
 20
1.961
 11
22.1582
 21
3.90707
  0
LINE
  8
0
 10
22.1582
 20
3.90707
 11
21.7333
 21
5.82343
  0
LINE
  8
0
 10
21.7333
 20
5.82343
 11
21.1431
 21
7.69545
  0
LINE
  8
0
 10
21.1431
 20
7.69545
 11
20.3919
 21
9.5089
  0
LINE
  8
0
 10
20.3919
 20
9.5089
 11
19.4856
 21
11.25
  0
LINE
  8
0
 10
19.4856
 20
11.25
 11
18.4309
 21
12.9055
  0
LINE
  8
0
 10
18.4309
 20
12.9055
 11
17.236
 21
14.4627
  0
LINE
  8
0
 10
17.236
 20
14.4627
 11
15.9099
 21
15.9099
  0
LINE
  8
0
 10
15.9099
 20
15.9099
 11
14.4627
 21
17.236
  0
LINE
  8
0
 10
14.4627
 20
17.236
 11
12.9055
 21
18.4309
  0
LINE
  8
0
 10
12.9055
 20
18.4309
 11
11.25
 21
19.4856
  0
LINE
  8
0
 10
11.25
 20
19.4856
 11
9.5089
 21
20.3919
  0
LINE
  8
0
 10
9.5089
 20
20.3919
 11
7.69545
 21
21.1431
  0
LINE
  8
0
 10
7.69545
 20
21.1431
 11
5.82343
 21
21.7333
  0
LINE
  8
0
 10
5.82343
 20
21.7333
 11
3.90707
 21
22.1582
  0
LINE
  8
0
 10
3.90707
 20
22.1582
 11
1.961
 21
22.4144
  0
LINE
  8
0
 10
1.961
 20
22.4144
 11
0.149994
 21
22.4935
  0
LINE
  8
0
 10
0.149994
 20
22.4935
 11
0.149994
 21
27
  0
LINE
  8
0
 10
0.149994
 20
27
 11
-0.149994
 21
27
  0
LINE
  8
0
 10
-0.149994
 20
27
 11
-0.149994
 21
22.4935
  0
LINE
  8
0
 10
-0.149994
 20
22.4935
 11
-1.961
 21
22.4144
  0
LINE
  8
0
 10
-1.961
 20
22.4144
 11
-3.90707
 21
22.1582
  0
LINE
  8
0
 10
-3.90707
 20
22.1582
 11
-5.82343
 21
21.7333
  0
LINE
  8
0
 10
-5.82343
 20
21.7333
 11
-7.69545
 21
21.1431
  0
LINE
  8
0
 10
-7.69545
 20
21.1431
 11
-9.5089
 21
20.3919
  0
LINE
  8
0
 10
-9.5089
 20
20.3919
 11
-11.25
 21
19.4856
  0
LINE
  8
0
 10
-11.25
 20
19.4856
 11
-12.9055
 21
18.4309
  0
LINE
  8
0
 10
-12.9055
 20
18.4309
 11
-14.4627
 21
17.236
  0
LINE
  8
0
 10
-14.4627
 20
17.236
 11
-15.9099
 21
15.9099
  0
LINE
  8
0
 10
-15.9099
 20
15.9099
 11
-17.236
 21
14.4627
  0
LINE
  8
0
 10
-17.236
 20
14.4627
 11
-18.4309
 21
12.9055
  0
LINE
  8
0
 10
-18.4309
 20
12.9055
 11
-19.4856
 21
11.25
  0
LINE
  8
0
 10
-19.4856
 20
11.25
 11
-20.3919
 21
9.5089
  0
LINE
  8
0
 10
-20.3919
 20
9.5089
 11
-21.1431
 21
7.69545
  0
LINE
  8
0
 10
-21.1431
 20
7.69545
 11
-21.7333
 21
5.82343
  0
LINE
  8
0
 10
-21.7333
 20
5.82343
 11
-22.1582
 21
3.90707
  0
LINE
  8
0
 10
-22.1582
 20
3.90707
 11
-22.4144
 21
1.961
  0
LINE
  8
0
 10
-22.4144
 20
1.961
 11
-22.4935
 21
0.149994
  0
LINE
  8
0
 10
-22.4935
 20
0.149994
 11
-27
 21
0.149994
  0
LINE
  8
0
 10
-27
 20
0.149994
 11
-27
 21
-0.149994
  0
LINE
  8
0
 10
-27
 20
-0.149994
 11
-22.4935
 21
-0.149994
  0
LINE
  8
0
 10
-22.4935
 20
-0.149994
 11
-22.4144
 21
-1.961
  0
LINE
  8
0
 10
-22.4144
 20
-1.961
 11
-22.1582
 21
-3.90707
  0
LINE
  8
0
 10
-22.1582
 20
-3.90707
 11
-21.7333
 21
-5.82343
  0
LINE
  8
0
 10
-21.7333
 20
-5.82343
 11
-21.1431
 21
-7.69545
  0
LINE
  8
0
 10
-21.1431
 20
-7.69545
 11
-20.3919
 21
-9.5089
  0
LINE
  8
0
 10
-20.3919
 20
-9.5089
 11
-19.4856
 21
-11.25
  0
LINE
  8
0
 10
-19.4856
 20
-11.25
 11
-18.4309
 21
-12.9055
  0
LINE
  8
0
 10
-18.4309
 20
-12.9055
 11
-17.236
 21
-14.4627
  0
LINE
  8
0
 10
-17.236
 20
-14.4627
 11
-15.9099
 21
-15.9099
  0
LINE
  8
0
 10
-15.9099
 20
-15.9099
 11
-14.4627
 21
-17.236
  0
LINE
  8
0
 10
-14.4627
 20
-17.236
 11
-12.9055
 21
-18.4309
  0
LINE
  8
0
 10
-12.9055
 20
-18.4309
 11
-11.25
 21
-19.4856
  0
LINE
  8
0
 10
-11.25
 20
-19.4856
 11
-9.5089
 21
-20.3919
  0
LINE
  8
0
 10
-9.5089
 20
-20.3919
 11
-7.69545
 21
-21.1431
  0
LINE
  8
0
 10
-7.69545
 20
-21.1431
 11
-5.82343
 21
-21.7333
  0
LINE
  8
0
 10
-5.82343
 20
-21.7333
 11
-3.90707
 21
-22.1582
  0
LINE
  8
0
 10
-3.90707
 20
-22.1582
 11
-1.961
 21
-22.4144
  0
LINE
  8
0
 10
-1.961
 20
-22.4144
 11
-0.149994
 21
-22.4935
  0
LINE
  8
0
 10
-0.149994
 20
-22.4935
 11
-0.149994
 21
-27
  0
LINE
  8
0
 10
-0.149994
 20
-27
 11
0.149994
 21
-27
  0
LINE
  8
0
 10
0.149994
 20
-27
 11
0.149994
 21
-22.4935
  0
LINE
  8
0
 10
-22.2151
 20
1.94357
 11
-21.9612
 21
3.87234
  0
LINE
  8
0
 10
-21.9612
 20
3.87234
 11
-21.5401
 21
5.77165
  0
LINE
  8
0
 10
-21.5401
 20
5.77165
 11
-20.9551
 21
7.62704
  0
LINE
  8
0
 10
-20.9551
 20
7.62704
 11
-20.2107
 21
9.42438
  0
LINE
  8
0
 10
-20.2107
 20
9.42438
 11
-19.3124
 21
11.15
  0
LINE
  8
0
 10
-19.3124
 20
11.15
 11
-18.2671
 21
12.7907
  0
LINE
  8
0
 10
-18.2671
 20
12.7907
 11
-17.0828
 21
14.3342
  0
LINE
  8
0
 10
-17.0828
 20
14.3342
 11
-15.7685
 21
15.7685
  0
LINE
  8
0
 10
-15.7685
 20
15.7685
 11
-14.3342
 21
17.0828
  0
LINE
  8
0
 10
-14.3342
 20
17.0828
 11
-12.7907
 21
18.2671
  0
LINE
  8
0
 10
-12.7907
 20
18.2671
 11
-11.15
 21
19.3124
  0
LINE
  8
0
 10
-11.15
 20
19.3124
 11
-9.42438
 21
20.2107
  0
LINE
  8
0
 10
-9.42438
 20
20.2107
 11
-7.62704
 21
20.9551
  0
LINE
  8
0
 10
-7.62704
 20
20.9551
 11
-5.77165
 21
21.5401
  0
LINE
  8
0
 10
-5.77165
 20
21.5401
 11
-3.87234
 21
21.9612
  0
LINE
  8
0
 10
-3.87234
 20
21.9612
 11
-1.94357
 21
22.2151
  0
LINE
  8
0
 10
-1.94357
 20
22.2151
 11
-0.149994
 21
22.2934
  0
LINE
  8
0
 10
-0.149994
 20
22.2934
 11
-0.149994
 21
7.99345
  0
LINE
  8
0
 10
-0.149994
 20
7.99345
 11
-0.697235
 21
7.96954
  0
LINE
  8
0
 10
-0.697235
 20
7.96954
 11
-1.38918
 21
7.87845
  0
LINE
  8
0
 10
-1.38918
 20
7.87845
 11
-2.07054
 21
7.7274
  0
LINE
  8
0
 10
-2.07054
 20
7.7274
 11
-2.73616
 21
7.51753
  0
LINE
  8
0
 10
-2.73616
 20
7.51753
 11
-3.38094
 21
7.25046
  0
LINE
  8
0
 10
-3.38094
 20
7.25046
 11
-4
 21
6.92819
  0
LINE
  8
0
 10
-4
 20
6.92819
 11
-4.58861
 21
6.55321
  0
LINE
  8
0
 10
-4.58861
 20
6.55321
 11
-5.14229
 21
6.12834
  0
LINE
  8
0
 10
-5.14229
 20
6.12834
 11
-5.65685
 21
5.65685
  0
LINE
  8
0
 10
-5.65685
 20
5.65685
 11
-6.12834
 21
5.14229
  0
LINE
  8
0
 10
-6.12834
 20
5.14229
 11
-6.55321
 21
4.58861
  0
LINE
  8
0
 10
-6.55321
 20
4.58861
 11
-6.92819
 21
4
  0
LINE
  8
0
 10
-6.92819
 20
4
 11
-7.25046
 21
3.38094
  0
LINE
  8
0
 10
-7.25046
 20
3.38094
 11
-7.51753
 21
2.73616
  0
LINE
  8
0
 10
-7.51753
 20
2.73616
 11
-7.7274
 21
2.07054
  0
LINE
  8
0
 10
-7.7274
 20
2.07054
 11
-7.87845
 21
1.38918
  0
LINE
  8
0
 10
-7.87845
 20
1.38918
 11
-7.96954
 21
0.697235
  0
LINE
  8
0
 10
-7.96954
 20
0.697235
 11
-7.99345
 21
0.149994
  0
LINE
  8
0
 10
-7.99345
 20
0.149994
 11
-15.3067
 21
0.149994
  0
LINE
  8
0
 10
-15.3067
 20
0.149994
 11
-15.3258
 21
0.295197
  0
LINE
  8
0
 10
-15.3258
 20
0.295197
 11
-15.3579
 21
0.439987
  0
LINE
  8
0
 10
-15.3579
 20
0.439987
 11
-15.4025
 21
0.581421
  0
LINE
  8
0
 10
-15.4025
 20
0.581421
 11
-15.4593
 21
0.718445
  0
LINE
  8
0
 10
-15.4593
 20
0.718445
 11
-15.5278
 21
0.849991
  0
LINE
  8
0
 10
-15.5278
 20
0.849991
 11
-15.6074
 21
0.975067
  0
LINE
  8
0
 10
-15.6074
 20
0.975067
 11
-15.6977
 21
1.09273
  0
LINE
  8
0
 10
-15.6977
 20
1.09273
 11
-15.7979
 21
1.20207
  0
LINE
  8
0
 10
-15.7979
 20
1.20207
 11
-15.9073
 21
1.30226
  0
LINE
  8
0
 10
-15.9073
 20
1.30226
 11
-16.0249
 21
1.39255
  0
LINE
  8
0
 10
-16.0249
 20
1.39255
 11
-16.15
 21
1.47223
  0
LINE
  8
0
 10
-16.15
 20
1.47223
 11
-16.2815
 21
1.54071
  0
LINE
  8
0
 10
-16.2815
 20
1.54071
 11
-16.4186
 21
1.59747
  0
LINE
  8
0
 10
-16.4186
 20
1.59747
 11
-16.56
 21
1.64206
  0
LINE
  8
0
 10
-16.56
 20
1.64206
 11
-16.7048
 21
1.67416
  0
LINE
  8
0
 10
-16.7048
 20
1.67416
 11
-16.8518
 21
1.69353
  0
LINE
  8
0
 10
-16.8518
 20
1.69353
 11
-17
 21
1.7
  0
LINE
  8
0
 10
-17
 20
1.7
 11
-17.1482
 21
1.69353
  0
LINE
  8
0
 10
-17.1482
 20
1.69353
 11
-17.2952
 21
1.67416
  0
LINE
  8
0
 10
-17.2952
 20
1.67416
 11
-17.44
 21
1.64206
  0
LINE
  8
0
 10
-17.44
 20
1.64206
 11
-17.5814
 21
1.59747
  0
LINE
  8
0
 10
-17.5814
 20
1.59747
 11
-17.7184
 21
1.54071
  0
LINE
  8
0
 10
-17.7184
 20
1.54071
 11
-17.85
 21
1.47223
  0
LINE
  8
0
 10
-17.85
 20
1.47223
 11
-17.9751
 21
1.39255
  0
LINE
  8
0
 10
-17.9751
 20
1.39255
 11
-18.0927
 21
1.30226
  0
LINE
  8
0
 10
-18.0927
 20
1.30226
 11
-18.2021
 21
1.20207
  0
LINE
  8
0
 10
-18.2021
 20
1.20207
 11
-18.3023
 21
1.09273
  0
LINE
  8
0
 10
-18.3023
 20
1.09273
 11
-18.3925
 21
0.975067
  0
LINE
  8
0
 10
-18.3925
 20
0.975067
 11
-18.4722
 21
0.849991
  0
LINE
  8
0
 10
-18.4722
 20
0.849991
 11
-18.5407
 21
0.718445
  0
LINE
  8
0
 10
-18.5407
 20
0.718445
 11
-18.5975
 21
0.581421
  0
LINE
  8
0
 10
-18.5975
 20
0.581421
 11
-18.6421
 21
0.439987
  0
LINE
  8
0
 10
-18.6421
 20
0.439987
 11
-18.6742
 21
0.295197
  0
LINE
  8
0
 10
-18.6742
 20
0.295197
 11
-18.6933
 21
0.149994
  0
LINE
  8
0
 10
-18.6933
 20
0.149994
 11
-22.2934
 21
0.149994
  0
LINE
  8
0
 10
-22.2934
 20
0.149994
 11
-22.2151
 21
1.94357
  0
LINE
  8
0
 10
18.6933
 20
0.149994
 11
18.6742
 21
0.295197
  0
LINE
  8
0
 10
18.6742
 20
0.295197
 11
18.6421
 21
0.439987
  0
LINE
  8
0
 10
18.6421
 20
0.439987
 11
18.5975
 21
0.581421
  0
LINE
  8
0
 10
18.5975
 20
0.581421
 11
18.5407
 21
0.718445
  0
LINE
  8
0
 10
18.5407
 20
0.718445
 11
18.4722
 21
0.849991
  0
LINE
  8
0
 10
18.4722
 20
0.849991
 11
18.3925
 21
0.975067
  0
LINE
  8
0
 10
18.3925
 20
0.975067
 11
18.3023
 21
1.09273
  0
LINE
  8
0
 10
18.3023
 20
1.09273
 11
18.2021
 21
1.20207
  0
LINE
  8
0
 10
18.2021
 20
1.20207
 11
18.0927
 21
1.30226
  0
LINE
  8
0
 10
18.0927
 20
1.30226
 11
17.9751
 21
1.39255
  0
LINE
  8
0
 10
17.9751
 20
1.39255
 11
17.85
 21
1.47223
  0
LINE
  8
0
 10
17.85
 20
1.47223
 11
17.7184
 21
1.54071
  0
LINE
  8
0
 10
17.7184
 20
1.54071
 11
17.5814
 21
1.59747
  0
LINE
  8
0
 10
17.5814
 20
1.59747
 11
17.44
 21
1.64206
  0
LINE
  8
0
 10
17.44
 20
1.64206
 11
17.2952
 21
1.67416
  0
LINE
  8
0
 10
17.2952
 20
1.67416
 11
17.1482
 21
1.69353
  0
LINE
  8
0
 10
17.1482
 20
1.69353
 11
17
 21
1.7
  0
LINE
  8
0
 10
17
 20
1.7
 11
16.8518
 21
1.69353
  0
LINE
  8
0
 10
16.8518
 20
1.69353
 11
16.7048
 21
1.67416
  0
LINE
  8
0
 10
16.7048
 20
1.67416
 11
16.56
 21
1.64206
  0
LINE
  8
0
 10
16.56
 20
1.64206
 11
16.4186
 21
1.59747
  0
LINE
  8
0
 10
16.4186
 20
1.59747
 11
16.2815
 21
1.54071
  0
LINE
  8
0
 10
16.2815
 20
1.54071
 11
16.15
 21
1.47223
  0
LINE
  8
0
 10
16.15
 20
1.47223
 11
16.0249
 21
1.39255
  0
LINE
  8
0
 10
16.0249
 20
1.39255
 11
15.9073
 21
1.30226
  0
LINE
  8
0
 10
15.9073
 20
1.30226
 11
15.7979
 21
1.20207
  0
LINE
  8
0
 10
15.7979
 20
1.20207
 11
15.6977
 21
1.09273
  0
LINE
  8
0
 10
15.6977
 20
1.09273
 11
15.6074
 21
0.975067
  0
LINE
  8
0
 10
15.6074
 20
0.975067
 11
15.5278
 21
0.849991
  0
LINE
  8
0
 10
15.5278
 20
0.849991
 11
15.4593
 21
0.718445
  0
LINE
  8
0
 10
15.4593
 20
0.718445
 11
15.4025
 21
0.581421
  0
LINE
  8
0
 10
15.4025
 20
0.581421
 11
15.3579
 21
0.439987
  0
LINE
  8
0
 10
15.3579
 20
0.439987
 11
15.3258
 21
0.295197
  0
LINE
  8
0
 10
15.3258
 20
0.295197
 11
15.3067
 21
0.149994
  0
LINE
  8
0
 10
15.3067
 20
0.149994
 11
7.99345
 21
0.149994
  0
LINE
  8
0
 10
7.99345
 20
0.149994
 11
7.96954
 21
0.697235
  0
LINE
  8
0
 10
7.96954
 20
0.697235
 11
7.87845
 21
1.38918
  0
LINE
  8
0
 10
7.87845
 20
1.38918
 11
7.7274
 21
2.07054
  0
LINE
  8
0
 10
7.7274
 20
2.07054
 11
7.51753
 21
2.73616
  0
LINE
  8
0
 10
7.51753
 20
2.73616
 11
7.25046
 21
3.38094
  0
LINE
  8
0
 10
7.25046
 20
3.38094
 11
6.92819
 21
4
  0
LINE
  8
0
 10
6.92819
 20
4
 11
6.55321
 21
4.58861
  0
LINE
  8
0
 10
6.55321
 20
4.58861
 11
6.12834
 21
5.14229
  0
LINE
  8
0
 10
6.12834
 20
5.14229
 11
5.65685
 21
5.65685
  0
LINE
  8
0
 10
5.65685
 20
5.65685
 11
5.14229
 21
6.12834
  0
LINE
  8
0
 10
5.14229
 20
6.12834
 11
4.58861
 21
6.55321
  0
LINE
  8
0
 10
4.58861
 20
6.55321
 11
4
 21
6.92819
  0
LINE
  8
0
 10
4
 20
6.92819
 11
3.38094
 21
7.25046
  0
LINE
  8
0
 10
3.38094
 20
7.25046
 11
2.73616
 21
7.51753
  0
LINE
  8
0
 10
2.73616
 20
7.51753
 11
2.07054
 21
7.7274
  0
LINE
  8
0
 10
2.07054
 20
7.7274
 11
1.38918
 21
7.87845
  0
LINE
  8
0
 10
1.38918
 20
7.87845
 11
0.697235
 21
7.96954
  0
LINE
  8
0
 10
0.697235
 20
7.96954
 11
0.149994
 21
7.99345
  0
LINE
  8
0
 10
0.149994
 20
7.99345
 11
0.149994
 21
22.2934
  0
LINE
  8
0
 10
0.149994
 20
22.2934
 11
1.94357
 21
22.2151
  0
LINE
  8
0
 10
1.94357
 20
22.2151
 11
3.87234
 21
21.9612
  0
LINE
  8
0
 10
3.87234
 20
21.9612
 11
5.77165
 21
21.5401
  0
LINE
  8
0
 10
5.77165
 20
21.5401
 11
7.62704
 21
20.9551
  0
LINE
  8
0
 10
7.62704
 20
20.9551
 11
9.42438
 21
20.2107
  0
LINE
  8
0
 10
9.42438
 20
20.2107
 11
11.15
 21
19.3124
  0
LINE
  8
0
 10
11.15
 20
19.3124
 11
12.7907
 21
18.2671
  0
LINE
  8
0
 10
12.7907
 20
18.2671
 11
14.3342
 21
17.0828
  0
LINE
  8
0
 10
14.3342
 20
17.0828
 11
15.7685
 21
15.7685
  0
LINE
  8
0
 10
15.7685
 20
15.7685
 11
17.0828
 21
14.3342
  0
LINE
  8
0
 10
17.0828
 20
14.3342
 11
18.2671
 21
12.7907
  0
LINE
  8
0
 10
18.2671
 20
12.7907
 11
19.3124
 21
11.15
  0
LINE
  8
0
 10
19.3124
 20
11.15
 11
20.2107
 21
9.42438
  0
LINE
  8
0
 10
20.2107
 20
9.42438
 11
20.9551
 21
7.62704
  0
LINE
  8
0
 10
20.9551
 20
7.62704
 11
21.5401
 21
5.77165
  0
LINE
  8
0
 10
21.5401
 20
5.77165
 11
21.9612
 21
3.87234
  0
LINE
  8
0
 10
21.9612
 20
3.87234
 11
22.2151
 21
1.94357
  0
LINE
  8
0
 10
22.2151
 20
1.94357
 11
22.2934
 21
0.149994
  0
LINE
  8
0
 10
22.2934
 20
0.149994
 11
18.6933
 21
0.149994
  0
LINE
  8
0
 10
0.149994
 20
-22.2934
 11
0.149994
 21
-7.99345
  0
LINE
  8
0
 10
0.149994
 20
-7.99345
 11
0.697235
 21
-7.96954
  0
LINE
  8
0
 10
0.697235
 20
-7.96954
 11
1.38918
 21
-7.87845
  0
LINE
  8
0
 10
1.38918
 20
-7.87845
 11
2.07054
 21
-7.7274
  0
LINE
  8
0
 10
2.07054
 20
-7.7274
 11
2.73616
 21
-7.51753
  0
LINE
  8
0
 10
2.73616
 20
-7.51753
 11
3.38094
 21
-7.25046
  0
LINE
  8
0
 10
3.38094
 20
-7.25046
 11
4
 21
-6.92819
  0
LINE
  8
0
 10
4
 20
-6.92819
 11
4.58861
 21
-6.55321
  0
LINE
  8
0
 10
4.58861
 20
-6.55321
 11
5.14229
 21
-6.12834
  0
LINE
  8
0
 10
5.14229
 20
-6.12834
 11
5.65685
 21
-5.65685
  0
LINE
  8
0
 10
5.65685
 20
-5.65685
 11
6.12834
 21
-5.14229
  0
LINE
  8
0
 10
6.12834
 20
-5.14229
 11
6.55321
 21
-4.58861
  0
LINE
  8
0
 10
6.55321
 20
-4.58861
 11
6.92819
 21
-4
  0
LINE
  8
0
 10
6.92819
 20
-4
 11
7.25046
 21
-3.38094
  0
LINE
  8
0
 10
7.25046
 20
-3.38094
 11
7.51753
 21
-2.73616
  0
LINE
  8
0
 10
7.51753
 20
-2.73616
 11
7.7274
 21
-2.07054
  0
LINE
  8
0
 10
7.7274
 20
-2.07054
 11
7.87845
 21
-1.38918
  0
LINE
  8
0
 10
7.87845
 20
-1.38918
 11
7.96954
 21
-0.697235
  0
LINE
  8
0
 10
7.96954
 20
-0.697235
 11
7.99345
 21
-0.149994
  0
LINE
  8
0
 10
7.99345
 20
-0.149994
 11
15.3067
 21
-0.149994
  0
LINE
  8
0
 10
15.3067
 20
-0.149994
 11
15.3258
 21
-0.295197
  0
LINE
  8
0
 10
15.3258
 20
-0.295197
 11
15.3579
 21
-0.439987
  0
LINE
  8
0
 10
15.3579
 20
-0.439987
 11
15.4025
 21
-0.581421
  0
LINE
  8
0
 10
15.4025
 20
-0.581421
 11
15.4593
 21
-0.718445
  0
LINE
  8
0
 10
15.4593
 20
-0.718445
 11
15.5278
 21
-0.849991
  0
LINE
  8
0
 10
15.5278
 20
-0.849991
 11
15.6074
 21
-0.975067
  0
LINE
  8
0
 10
15.6074
 20
-0.975067
 11
15.6977
 21
-1.09273
  0
LINE
  8
0
 10
15.6977
 20
-1.09273
 11
15.7979
 21
-1.20207
  0
LINE
  8
0
 10
15.7979
 20
-1.20207
 11
15.9073
 21
-1.30226
  0
LINE
  8
0
 10
15.9073
 20
-1.30226
 11
16.0249
 21
-1.39255
  0
LINE
  8
0
 10
16.0249
 20
-1.39255
 11
16.15
 21
-1.47223
  0
LINE
  8
0
 10
16.15
 20
-1.47223
 11
16.2815
 21
-1.54071
  0
LINE
  8
0
 10
16.2815
 20
-1.54071
 11
16.4186
 21
-1.59747
  0
LINE
  8
0
 10
16.4186
 20
-1.59747
 11
16.56
 21
-1.64206
  0
LINE
  8
0
 10
16.56
 20
-1.64206
 11
16.7048
 21
-1.67416
  0
LINE
  8
0
 10
16.7048
 20
-1.67416
 11
16.8518
 21
-1.69353
  0
LINE
  8
0
 10
16.8518
 20
-1.69353
 11
17
 21
-1.7
  0
LINE
  8
0
 10
17
 20
-1.7
 11
17.1482
 21
-1.69353
  0
LINE
  8
0
 10
17.1482
 20
-1.69353
 11
17.2952
 21
-1.67416
  0
LINE
  8
0
 10
17.2952
 20
-1.67416
 11
17.44
 21
-1.64206
  0
LINE
  8
0
 10
17.44
 20
-1.64206
 11
17.5814
 21
-1.59747
  0
LINE
  8
0
 10
17.5814
 20
-1.59747
 11
17.7184
 21
-1.54071
  0
LINE
  8
0
 10
17.7184
 20
-1.54071
 11
17.85
 21
-1.47223
  0
LINE
  8
0
 10
17.85
 20
-1.47223
 11
17.9751
 21
-1.39255
  0
LINE
  8
0
 10
17.9751
 20
-1.39255
 11
18.0927
 21
-1.30226
  0
LINE
  8
0
 10
18.0927
 20
-1.30226
 11
18.2021
 21
-1.20207
  0
LINE
  8
0
 10
18.2021
 20
-1.20207
 11
18.3023
 21
-1.09273
  0
LINE
  8
0
 10
18.3023
 20
-1.09273
 11
18.3925
 21
-0.975067
  0
LINE
  8
0
 10
18.3925
 20
-0.975067
 11
18.4722
 21
-0.849991
  0
LINE
  8
0
 10
18.4722
 20
-0.849991
 11
18.5407
 21
-0.718445
  0
LINE
  8
0
 10
18.5407
 20
-0.718445
 11
18.5975
 21
-0.581421
  0
LINE
  8
0
 10
18.5975
 20
-0.581421
 11
18.6421
 21
-0.439987
  0
LINE
  8
0
 10
18.6421
 20
-0.439987
 11
18.6742
 21
-0.295197
  0
LINE
  8
0
 10
18.6742
 20
-0.295197
 11
18.6933
 21
-0.149994
  0
LINE
  8
0
 10
18.6933
 20
-0.149994
 11
22.2934
 21
-0.149994
  0
LINE
  8
0
 10
22.2934
 20
-0.149994
 11
22.2151
 21
-1.94357
  0
LINE
  8
0
 10
22.2151
 20
-1.94357
 11
21.9612
 21
-3.87234
  0
LINE
  8
0
 10
21.9612
 20
-3.87234
 11
21.5401
 21
-5.77165
  0
LINE
  8
0
 10
21.5401
 20
-5.77165
 11
20.9551
 21
-7.62704
  0
LINE
  8
0
 10
20.9551
 20
-7.62704
 11
20.2107
 21
-9.42438
  0
LINE
  8
0
 10
20.2107
 20
-9.42438
 11
19.3124
 21
-11.15
  0
LINE
  8
0
 10
19.3124
 20
-11.15
 11
18.2671
 21
-12.7907
  0
LINE
  8
0
 10
18.2671
 20
-12.7907
 11
17.0828
 21
-14.3342
  0
LINE
  8
0
 10
17.0828
 20
-14.3342
 11
15.7685
 21
-15.7685
  0
LINE
  8
0
 10
15.7685
 20
-15.7685
 11
14.3342
 21
-17.0828
  0
LINE
  8
0
 10
14.3342
 20
-17.0828
 11
12.7907
 21
-18.2671
  0
LINE
  8
0
 10
12.7907
 20
-18.2671
 11
11.15
 21
-19.3124
  0
LINE
  8
0
 10
11.15
 20
-19.3124
 11
9.42438
 21
-20.2107
  0
LINE
  8
0
 10
9.42438
 20
-20.2107
 11
7.62704
 21
-20.9551
  0
LINE
  8
0
 10
7.62704
 20
-20.9551
 11
5.77165
 21
-21.5401
  0
LINE
  8
0
 10
5.77165
 20
-21.5401
 11
3.87234
 21
-21.9612
  0
LINE
  8
0
 10
3.87234
 20
-21.9612
 11
1.94357
 21
-22.2151
  0
LINE
  8
0
 10
1.94357
 20
-22.2151
 11
0.149994
 21
-22.2934
  0
LINE
  8
0
 10
-1.94357
 20
-22.2151
 11
-3.87234
 21
-21.9612
  0
LINE
  8
0
 10
-3.87234
 20
-21.9612
 11
-5.77165
 21
-21.5401
  0
LINE
  8
0
 10
-5.77165
 20
-21.5401
 11
-7.62704
 21
-20.9551
  0
LINE
  8
0
 10
-7.62704
 20
-20.9551
 11
-9.42438
 21
-20.2107
  0
LINE
  8
0
 10
-9.42438
 20
-20.2107
 11
-11.15
 21
-19.3124
  0
LINE
  8
0
 10
-11.15
 20
-19.3124
 11
-12.7907
 21
-18.2671
  0
LINE
  8
0
 10
-12.7907
 20
-18.2671
 11
-14.3342
 21
-17.0828
  0
LINE
  8
0
 10
-14.3342
 20
-17.0828
 11
-15.7685
 21
-15.7685
  0
LINE
  8
0
 10
-15.7685
 20
-15.7685
 11
-17.0828
 21
-14.3342
  0
LINE
  8
0
 10
-17.0828
 20
-14.3342
 11
-18.2671
 21
-12.7907
  0
LINE
  8
0
 10
-18.2671
 20
-12.7907
 11
-19.3124
 21
-11.15
  0
LINE
  8
0
 10
-19.3124
 20
-11.15
 11
-20.2107
 21
-9.42438
  0
LINE
  8
0
 10
-20.2107
 20
-9.42438
 11
-20.9551
 21
-7.62704
  0
LINE
  8
0
 10
-20.9551
 20
-7.62704
 11
-21.5401
 21
-5.77165
  0
LINE
  8
0
 10
-21.5401
 20
-5.77165
 11
-21.9612
 21
-3.87234
  0
LINE
  8
0
 10
-21.9612
 20
-3.87234
 11
-22.2151
 21
-1.94357
  0
LINE
  8
0
 10
-22.2151
 20
-1.94357
 11
-22.2934
 21
-0.149994
  0
LINE
  8
0
 10
-22.2934
 20
-0.149994
 11
-18.6933
 21
-0.149994
  0
LINE
  8
0
 10
-18.6933
 20
-0.149994
 11
-18.6742
 21
-0.295197
  0
LINE
  8
0
 10
-18.6742
 20
-0.295197
 11
-18.6421
 21
-0.439987
  0
LINE
  8
0
 10
-18.6421
 20
-0.439987
 11
-18.5975
 21
-0.581421
  0
LINE
  8
0
 10
-18.5975
 20
-0.581421
 11
-18.5407
 21
-0.718445
  0
LINE
  8
0
 10
-18.5407
 20
-0.718445
 11
-18.4722
 21
-0.849991
  0
LINE
  8
0
 10
-18.4722
 20
-0.849991
 11
-18.3925
 21
-0.975067
  0
LINE
  8
0
 10
-18.3925
 20
-0.975067
 11
-18.3023
 21
-1.09273
  0
LINE
  8
0
 10
-18.3023
 20
-1.09273
 11
-18.2021
 21
-1.20207
  0
LINE
  8
0
 10
-18.2021
 20
-1.20207
 11
-18.0927
 21
-1.30226
  0
LINE
  8
0
 10
-18.0927
 20
-1.30226
 11
-17.9751
 21
-1.39255
  0
LINE
  8
0
 10
-17.9751
 20
-1.39255
 11
-17.85
 21
-1.47223
  0
LINE
  8
0
 10
-17.85
 20
-1.47223
 11
-17.7184
 21
-1.54071
  0
LINE
  8
0
 10
-17.7184
 20
-1.54071
 11
-17.5814
 21
-1.59747
  0
LINE
  8
0
 10
-17.5814
 20
-1.59747
 11
-17.44
 21
-1.64206
  0
LINE
  8
0
 10
-17.44
 20
-1.64206
 11
-17.2952
 21
-1.67416
  0
LINE
  8
0
 10
-17.2952
 20
-1.67416
 11
-17.1482
 21
-1.69353
  0
LINE
  8
0
 10
-17.1482
 20
-1.69353
 11
-17
 21
-1.7
  0
LINE
  8
0
 10
-17
 20
-1.7
 11
-16.8518
 21
-1.69353
  0
LINE
  8
0
 10
-16.8518
 20
-1.69353
 11
-16.7048
 21
-1.67416
  0
LINE
  8
0
 10
-16.7048
 20
-1.67416
 11
-16.56
 21
-1.64206
  0
LINE
  8
0
 10
-16.56
 20
-1.64206
 11
-16.4186
 21
-1.59747
  0
LINE
  8
0
 10
-16.4186
 20
-1.59747
 11
-16.2815
 21
-1.54071
  0
LINE
  8
0
 10
-16.2815
 20
-1.54071
 11
-16.15
 21
-1.47223
  0
LINE
  8
0
 10
-16.15
 20
-1.47223
 11
-16.0249
 21
-1.39255
  0
LINE
  8
0
 10
-16.0249
 20
-1.39255
 11
-15.9073
 21
-1.30226
  0
LINE
  8
0
 10
-15.9073
 20
-1.30226
 11
-15.7979
 21
-1.20207
  0
LINE
  8
0
 10
-15.7979
 20
-1.20207
 11
-15.6977
 21
-1.09273
  0
LINE
  8
0
 10
-15.6977
 20
-1.09273
 11
-15.6074
 21
-0.975067
  0
LINE
  8
0
 10
-15.6074
 20
-0.975067
 11
-15.5278
 21
-0.849991
  0
LINE
  8
0
 10
-15.5278
 20
-0.849991
 11
-15.4593
 21
-0.718445
  0
LINE
  8
0
 10
-15.4593
 20
-0.718445
 11
-15.4025
 21
-0.581421
  0
LINE
  8
0
 10
-15.4025
 20
-0.581421
 11
-15.3579
 21
-0.439987
  0
LINE
  8
0
 10
-15.3579
 20
-0.439987
 11
-15.3258
 21
-0.295197
  0
LINE
  8
0
 10
-15.3258
 20
-0.295197
 11
-15.3067
 21
-0.149994
  0
LINE
  8
0
 10
-15.3067
 20
-0.149994
 11
-7.99345
 21
-0.149994
  0
LINE
  8
0
 10
-7.99345
 20
-0.149994
 11
-7.96954
 21
-0.697235
  0
LINE
  8
0
 10
-7.96954
 20
-0.697235
 11
-7.87845
 21
-1.38918
  0
LINE
  8
0
 10
-7.87845
 20
-1.38918
 11
-7.7274
 21
-2.07054
  0
LINE
  8
0
 10
-7.7274
 20
-2.07054
 11
-7.51753
 21
-2.73616
  0
LINE
  8
0
 10
-7.51753
 20
-2.73616
 11
-7.25046
 21
-3.38094
  0
LINE
  8
0
 10
-7.25046
 20
-3.38094
 11
-6.92819
 21
-4
  0
LINE
  8
0
 10
-6.92819
 20
-4
 11
-6.55321
 21
-4.58861
  0
LINE
  8
0
 10
-6.55321
 20
-4.58861
 11
-6.12834
 21
-5.14229
  0
LINE
  8
0
 10
-6.12834
 20
-5.14229
 11
-5.65685
 21
-5.65685
  0
LINE
  8
0
 10
-5.65685
 20
-5.65685
 11
-5.14229
 21
-6.12834
  0
LINE
  8
0
 10
-5.14229
 20
-6.12834
 11
-4.58861
 21
-6.55321
  0
LINE
  8
0
 10
-4.58861
 20
-6.55321
 11
-4
 21
-6.92819
  0
LINE
  8
0
 10
-4
 20
-6.92819
 11
-3.38094
 21
-7.25046
  0
LINE
  8
0
 10
-3.38094
 20
-7.25046
 11
-2.73616
 21
-7.51753
  0
LINE
  8
0
 10
-2.73616
 20
-7.51753
 11
-2.07054
 21
-7.7274
  0
LINE
  8
0
 10
-2.07054
 20
-7.7274
 11
-1.38918
 21
-7.87845
  0
LINE
  8
0
 10
-1.38918
 20
-7.87845
 11
-0.697235
 21
-7.96954
  0
LINE
  8
0
 10
-0.697235
 20
-7.96954
 11
-0.149994
 21
-7.99345
  0
LINE
  8
0
 10
-0.149994
 20
-7.99345
 11
-0.149994
 21
-22.2934
  0
LINE
  8
0
 10
-0.149994
 20
-22.2934
 11
-1.94357
 21
-22.2151
  0
ENDSEC
  0
SECTION
  2
OBJECTS
  0
DICTIONARY
  0
ENDSEC
  0
EOF
